ISO-10303-21;
HEADER;
/* Generated by software containing ST-Developer
 * from STEP Tools, Inc. (www.steptools.com) 
 */

FILE_DESCRIPTION(
/* description */ (''),
/* implementation_level */ '2;1');

FILE_NAME(
/* name */ 'mid.step',
/* time_stamp */ '2026-06-02T01:55:13+08:00',
/* author */ (''),
/* organization */ (''),
/* preprocessor_version */ 'ST-DEVELOPER v20.1',
/* originating_system */ 'Autodesk Translation Framework v15.8.0.0',
/* authorisation */ '');

FILE_SCHEMA (('AUTOMOTIVE_DESIGN { 1 0 10303 214 3 1 1 }'));
ENDSEC;

DATA;
#10=MECHANICAL_DESIGN_GEOMETRIC_PRESENTATION_REPRESENTATION('',(#13),#294);
#11=SHAPE_REPRESENTATION_RELATIONSHIP('SRR','None',#301,#12);
#12=ADVANCED_BREP_SHAPE_REPRESENTATION('',(#14),#293);
#13=STYLED_ITEM('',(#310),#14);
#14=MANIFOLD_SOLID_BREP('\X2\5B9E4F53\X0\1',#174);
#15=CYLINDRICAL_SURFACE('',#193,1.5);
#16=FACE_BOUND('',#30,.T.);
#17=CIRCLE('',#189,1.5);
#18=CIRCLE('',#194,1.5);
#19=FACE_OUTER_BOUND('',#29,.T.);
#20=FACE_OUTER_BOUND('',#31,.T.);
#21=FACE_OUTER_BOUND('',#32,.T.);
#22=FACE_OUTER_BOUND('',#33,.T.);
#23=FACE_OUTER_BOUND('',#34,.T.);
#24=FACE_OUTER_BOUND('',#35,.T.);
#25=FACE_OUTER_BOUND('',#36,.T.);
#26=FACE_OUTER_BOUND('',#37,.T.);
#27=FACE_OUTER_BOUND('',#38,.T.);
#28=FACE_OUTER_BOUND('',#39,.T.);
#29=EDGE_LOOP('',(#113,#114,#115,#116,#117,#118));
#30=EDGE_LOOP('',(#119));
#31=EDGE_LOOP('',(#120,#121,#122,#123));
#32=EDGE_LOOP('',(#124,#125,#126,#127));
#33=EDGE_LOOP('',(#128,#129,#130,#131));
#34=EDGE_LOOP('',(#132,#133,#134,#135));
#35=EDGE_LOOP('',(#136));
#36=EDGE_LOOP('',(#137,#138,#139,#140));
#37=EDGE_LOOP('',(#141,#142,#143,#144));
#38=EDGE_LOOP('',(#145,#146,#147,#148));
#39=EDGE_LOOP('',(#149,#150,#151,#152,#153,#154));
#40=LINE('',#249,#59);
#41=LINE('',#251,#60);
#42=LINE('',#253,#61);
#43=LINE('',#255,#62);
#44=LINE('',#257,#63);
#45=LINE('',#258,#64);
#46=LINE('',#263,#65);
#47=LINE('',#265,#66);
#48=LINE('',#266,#67);
#49=LINE('',#269,#68);
#50=LINE('',#270,#69);
#51=LINE('',#273,#70);
#52=LINE('',#274,#71);
#53=LINE('',#277,#72);
#54=LINE('',#282,#73);
#55=LINE('',#283,#74);
#56=LINE('',#286,#75);
#57=LINE('',#287,#76);
#58=LINE('',#289,#77);
#59=VECTOR('',#204,10.);
#60=VECTOR('',#205,10.);
#61=VECTOR('',#206,10.);
#62=VECTOR('',#207,10.);
#63=VECTOR('',#208,10.);
#64=VECTOR('',#209,10.);
#65=VECTOR('',#214,10.);
#66=VECTOR('',#215,10.);
#67=VECTOR('',#216,10.);
#68=VECTOR('',#219,10.);
#69=VECTOR('',#220,10.);
#70=VECTOR('',#223,10.);
#71=VECTOR('',#224,10.);
#72=VECTOR('',#227,1.5);
#73=VECTOR('',#234,10.);
#74=VECTOR('',#235,10.);
#75=VECTOR('',#238,10.);
#76=VECTOR('',#239,10.);
#77=VECTOR('',#242,10.);
#78=VERTEX_POINT('',#247);
#79=VERTEX_POINT('',#248);
#80=VERTEX_POINT('',#250);
#81=VERTEX_POINT('',#252);
#82=VERTEX_POINT('',#254);
#83=VERTEX_POINT('',#256);
#84=VERTEX_POINT('',#259);
#85=VERTEX_POINT('',#262);
#86=VERTEX_POINT('',#264);
#87=VERTEX_POINT('',#268);
#88=VERTEX_POINT('',#272);
#89=VERTEX_POINT('',#276);
#90=VERTEX_POINT('',#281);
#91=VERTEX_POINT('',#285);
#92=EDGE_CURVE('',#78,#79,#40,.T.);
#93=EDGE_CURVE('',#80,#78,#41,.T.);
#94=EDGE_CURVE('',#81,#80,#42,.T.);
#95=EDGE_CURVE('',#82,#81,#43,.T.);
#96=EDGE_CURVE('',#83,#82,#44,.T.);
#97=EDGE_CURVE('',#79,#83,#45,.T.);
#98=EDGE_CURVE('',#84,#84,#17,.T.);
#99=EDGE_CURVE('',#85,#80,#46,.T.);
#100=EDGE_CURVE('',#85,#86,#47,.T.);
#101=EDGE_CURVE('',#86,#81,#48,.T.);
#102=EDGE_CURVE('',#87,#78,#49,.T.);
#103=EDGE_CURVE('',#87,#85,#50,.T.);
#104=EDGE_CURVE('',#88,#79,#51,.T.);
#105=EDGE_CURVE('',#88,#87,#52,.T.);
#106=EDGE_CURVE('',#84,#89,#53,.T.);
#107=EDGE_CURVE('',#89,#89,#18,.T.);
#108=EDGE_CURVE('',#90,#83,#54,.T.);
#109=EDGE_CURVE('',#90,#88,#55,.T.);
#110=EDGE_CURVE('',#91,#82,#56,.T.);
#111=EDGE_CURVE('',#91,#90,#57,.T.);
#112=EDGE_CURVE('',#86,#91,#58,.T.);
#113=ORIENTED_EDGE('',*,*,#92,.F.);
#114=ORIENTED_EDGE('',*,*,#93,.F.);
#115=ORIENTED_EDGE('',*,*,#94,.F.);
#116=ORIENTED_EDGE('',*,*,#95,.F.);
#117=ORIENTED_EDGE('',*,*,#96,.F.);
#118=ORIENTED_EDGE('',*,*,#97,.F.);
#119=ORIENTED_EDGE('',*,*,#98,.F.);
#120=ORIENTED_EDGE('',*,*,#94,.T.);
#121=ORIENTED_EDGE('',*,*,#99,.F.);
#122=ORIENTED_EDGE('',*,*,#100,.T.);
#123=ORIENTED_EDGE('',*,*,#101,.T.);
#124=ORIENTED_EDGE('',*,*,#93,.T.);
#125=ORIENTED_EDGE('',*,*,#102,.F.);
#126=ORIENTED_EDGE('',*,*,#103,.T.);
#127=ORIENTED_EDGE('',*,*,#99,.T.);
#128=ORIENTED_EDGE('',*,*,#92,.T.);
#129=ORIENTED_EDGE('',*,*,#104,.F.);
#130=ORIENTED_EDGE('',*,*,#105,.T.);
#131=ORIENTED_EDGE('',*,*,#102,.T.);
#132=ORIENTED_EDGE('',*,*,#98,.T.);
#133=ORIENTED_EDGE('',*,*,#106,.T.);
#134=ORIENTED_EDGE('',*,*,#107,.T.);
#135=ORIENTED_EDGE('',*,*,#106,.F.);
#136=ORIENTED_EDGE('',*,*,#107,.F.);
#137=ORIENTED_EDGE('',*,*,#97,.T.);
#138=ORIENTED_EDGE('',*,*,#108,.F.);
#139=ORIENTED_EDGE('',*,*,#109,.T.);
#140=ORIENTED_EDGE('',*,*,#104,.T.);
#141=ORIENTED_EDGE('',*,*,#96,.T.);
#142=ORIENTED_EDGE('',*,*,#110,.F.);
#143=ORIENTED_EDGE('',*,*,#111,.T.);
#144=ORIENTED_EDGE('',*,*,#108,.T.);
#145=ORIENTED_EDGE('',*,*,#95,.T.);
#146=ORIENTED_EDGE('',*,*,#101,.F.);
#147=ORIENTED_EDGE('',*,*,#112,.T.);
#148=ORIENTED_EDGE('',*,*,#110,.T.);
#149=ORIENTED_EDGE('',*,*,#105,.F.);
#150=ORIENTED_EDGE('',*,*,#109,.F.);
#151=ORIENTED_EDGE('',*,*,#111,.F.);
#152=ORIENTED_EDGE('',*,*,#112,.F.);
#153=ORIENTED_EDGE('',*,*,#100,.F.);
#154=ORIENTED_EDGE('',*,*,#103,.F.);
#155=PLANE('',#188);
#156=PLANE('',#190);
#157=PLANE('',#191);
#158=PLANE('',#192);
#159=PLANE('',#195);
#160=PLANE('',#196);
#161=PLANE('',#197);
#162=PLANE('',#198);
#163=PLANE('',#199);
#164=ADVANCED_FACE('',(#19,#16),#155,.T.);
#165=ADVANCED_FACE('',(#20),#156,.T.);
#166=ADVANCED_FACE('',(#21),#157,.T.);
#167=ADVANCED_FACE('',(#22),#158,.T.);
#168=ADVANCED_FACE('',(#23),#15,.F.);
#169=ADVANCED_FACE('',(#24),#159,.T.);
#170=ADVANCED_FACE('',(#25),#160,.T.);
#171=ADVANCED_FACE('',(#26),#161,.T.);
#172=ADVANCED_FACE('',(#27),#162,.T.);
#173=ADVANCED_FACE('',(#28),#163,.F.);
#174=CLOSED_SHELL('',(#164,#165,#166,#167,#168,#169,#170,#171,#172,#173));
#175=DERIVED_UNIT_ELEMENT(#177,1.);
#176=DERIVED_UNIT_ELEMENT(#296,-3.);
#177=(
MASS_UNIT()
NAMED_UNIT(*)
SI_UNIT(.KILO.,.GRAM.)
);
#178=DERIVED_UNIT((#175,#176));
#179=MEASURE_REPRESENTATION_ITEM('density measure',
POSITIVE_RATIO_MEASURE(7850.),#178);
#180=PROPERTY_DEFINITION_REPRESENTATION(#185,#182);
#181=PROPERTY_DEFINITION_REPRESENTATION(#186,#183);
#182=REPRESENTATION('material name',(#184),#293);
#183=REPRESENTATION('density',(#179),#293);
#184=DESCRIPTIVE_REPRESENTATION_ITEM('\X2\94A2\X0\','\X2\94A2\X0\');
#185=PROPERTY_DEFINITION('material property','material name',#303);
#186=PROPERTY_DEFINITION('material property','density of part',#303);
#187=AXIS2_PLACEMENT_3D('',#245,#200,#201);
#188=AXIS2_PLACEMENT_3D('',#246,#202,#203);
#189=AXIS2_PLACEMENT_3D('',#260,#210,#211);
#190=AXIS2_PLACEMENT_3D('',#261,#212,#213);
#191=AXIS2_PLACEMENT_3D('',#267,#217,#218);
#192=AXIS2_PLACEMENT_3D('',#271,#221,#222);
#193=AXIS2_PLACEMENT_3D('',#275,#225,#226);
#194=AXIS2_PLACEMENT_3D('',#278,#228,#229);
#195=AXIS2_PLACEMENT_3D('',#279,#230,#231);
#196=AXIS2_PLACEMENT_3D('',#280,#232,#233);
#197=AXIS2_PLACEMENT_3D('',#284,#236,#237);
#198=AXIS2_PLACEMENT_3D('',#288,#240,#241);
#199=AXIS2_PLACEMENT_3D('',#290,#243,#244);
#200=DIRECTION('axis',(0.,0.,1.));
#201=DIRECTION('refdir',(1.,0.,0.));
#202=DIRECTION('center_axis',(0.,1.,0.));
#203=DIRECTION('ref_axis',(0.,0.,1.));
#204=DIRECTION('',(-0.5,0.,-0.866025403784439));
#205=DIRECTION('',(-1.,0.,-1.85037170770859E-16));
#206=DIRECTION('',(-0.5,0.,0.866025403784439));
#207=DIRECTION('',(0.5,0.,0.866025403784439));
#208=DIRECTION('',(1.,0.,3.70074341541719E-16));
#209=DIRECTION('',(0.500000000000001,0.,-0.866025403784438));
#210=DIRECTION('center_axis',(0.,1.,0.));
#211=DIRECTION('ref_axis',(-1.,0.,0.));
#212=DIRECTION('center_axis',(0.866025403784439,0.,0.5));
#213=DIRECTION('ref_axis',(0.5,0.,-0.866025403784439));
#214=DIRECTION('',(0.,1.,0.));
#215=DIRECTION('',(0.5,0.,-0.866025403784439));
#216=DIRECTION('',(0.,1.,0.));
#217=DIRECTION('center_axis',(-1.85037170770859E-16,0.,1.));
#218=DIRECTION('ref_axis',(1.,0.,1.85037170770859E-16));
#219=DIRECTION('',(0.,1.,0.));
#220=DIRECTION('',(1.,0.,1.85037170770859E-16));
#221=DIRECTION('center_axis',(-0.866025403784439,0.,0.5));
#222=DIRECTION('ref_axis',(0.5,0.,0.866025403784439));
#223=DIRECTION('',(0.,1.,0.));
#224=DIRECTION('',(0.5,0.,0.866025403784439));
#225=DIRECTION('center_axis',(0.,-1.,0.));
#226=DIRECTION('ref_axis',(-1.,0.,0.));
#227=DIRECTION('',(0.,-1.,0.));
#228=DIRECTION('center_axis',(0.,-1.,0.));
#229=DIRECTION('ref_axis',(-1.,0.,0.));
#230=DIRECTION('center_axis',(0.,1.,0.));
#231=DIRECTION('ref_axis',(-1.,0.,0.));
#232=DIRECTION('center_axis',(-0.866025403784438,0.,-0.500000000000001));
#233=DIRECTION('ref_axis',(-0.500000000000001,0.,0.866025403784438));
#234=DIRECTION('',(0.,1.,0.));
#235=DIRECTION('',(-0.500000000000001,0.,0.866025403784438));
#236=DIRECTION('center_axis',(3.70074341541719E-16,0.,-1.));
#237=DIRECTION('ref_axis',(-1.,0.,-3.70074341541719E-16));
#238=DIRECTION('',(0.,1.,0.));
#239=DIRECTION('',(-1.,0.,-3.70074341541719E-16));
#240=DIRECTION('center_axis',(0.866025403784439,0.,-0.5));
#241=DIRECTION('ref_axis',(-0.5,0.,-0.866025403784439));
#242=DIRECTION('',(-0.5,0.,-0.866025403784439));
#243=DIRECTION('center_axis',(0.,1.,0.));
#244=DIRECTION('ref_axis',(1.,0.,0.));
#245=CARTESIAN_POINT('',(0.,0.,0.));
#246=CARTESIAN_POINT('Origin',(-1.11022302462516E-15,40.,-5.55111512312578E-16));
#247=CARTESIAN_POINT('',(-1.5,40.,2.59807621135332));
#248=CARTESIAN_POINT('',(-3.,40.,-2.88241491851646E-15));
#249=CARTESIAN_POINT('',(-2.625,40.,0.649519052838327));
#250=CARTESIAN_POINT('',(1.5,40.,2.59807621135332));
#251=CARTESIAN_POINT('',(-0.750000000000001,40.,2.59807621135332));
#252=CARTESIAN_POINT('',(3.,40.,1.046381982376E-15));
#253=CARTESIAN_POINT('',(1.875,40.,1.94855715851499));
#254=CARTESIAN_POINT('',(1.5,40.,-2.59807621135332));
#255=CARTESIAN_POINT('',(2.625,40.,-0.649519052838329));
#256=CARTESIAN_POINT('',(-1.5,40.,-2.59807621135332));
#257=CARTESIAN_POINT('',(0.750000000000001,40.,-2.59807621135332));
#258=CARTESIAN_POINT('',(-1.875,40.,-1.94855715851499));
#259=CARTESIAN_POINT('',(1.5,40.,-1.83697019872103E-16));
#260=CARTESIAN_POINT('Origin',(0.,40.,0.));
#261=CARTESIAN_POINT('Origin',(1.5,0.,2.59807621135332));
#262=CARTESIAN_POINT('',(1.5,0.,2.59807621135332));
#263=CARTESIAN_POINT('',(1.5,0.,2.59807621135332));
#264=CARTESIAN_POINT('',(3.,0.,1.046381982376E-15));
#265=CARTESIAN_POINT('',(1.5,0.,2.59807621135332));
#266=CARTESIAN_POINT('',(3.,0.,1.046381982376E-15));
#267=CARTESIAN_POINT('Origin',(-1.5,0.,2.59807621135332));
#268=CARTESIAN_POINT('',(-1.5,0.,2.59807621135332));
#269=CARTESIAN_POINT('',(-1.5,0.,2.59807621135332));
#270=CARTESIAN_POINT('',(-1.5,0.,2.59807621135332));
#271=CARTESIAN_POINT('Origin',(-3.,0.,-2.88241491851646E-15));
#272=CARTESIAN_POINT('',(-3.,0.,-2.88241491851646E-15));
#273=CARTESIAN_POINT('',(-3.,0.,-2.88241491851646E-15));
#274=CARTESIAN_POINT('',(-3.,0.,-2.88241491851646E-15));
#275=CARTESIAN_POINT('Origin',(0.,50.,0.));
#276=CARTESIAN_POINT('',(1.5,10.,-1.83697019872103E-16));
#277=CARTESIAN_POINT('',(1.5,50.,1.83697019872103E-16));
#278=CARTESIAN_POINT('Origin',(0.,10.,0.));
#279=CARTESIAN_POINT('Origin',(0.,10.,0.));
#280=CARTESIAN_POINT('Origin',(-1.5,0.,-2.59807621135332));
#281=CARTESIAN_POINT('',(-1.5,0.,-2.59807621135332));
#282=CARTESIAN_POINT('',(-1.5,0.,-2.59807621135332));
#283=CARTESIAN_POINT('',(-1.5,0.,-2.59807621135332));
#284=CARTESIAN_POINT('Origin',(1.5,0.,-2.59807621135332));
#285=CARTESIAN_POINT('',(1.5,0.,-2.59807621135332));
#286=CARTESIAN_POINT('',(1.5,0.,-2.59807621135332));
#287=CARTESIAN_POINT('',(1.5,0.,-2.59807621135332));
#288=CARTESIAN_POINT('Origin',(3.,0.,1.046381982376E-15));
#289=CARTESIAN_POINT('',(3.,0.,1.046381982376E-15));
#290=CARTESIAN_POINT('Origin',(-1.11022302462516E-15,0.,-5.55111512312578E-16));
#291=UNCERTAINTY_MEASURE_WITH_UNIT(LENGTH_MEASURE(0.01),#295,
'DISTANCE_ACCURACY_VALUE',
'Maximum model space distance between geometric entities at asserted c
onnectivities');
#292=UNCERTAINTY_MEASURE_WITH_UNIT(LENGTH_MEASURE(0.01),#295,
'DISTANCE_ACCURACY_VALUE',
'Maximum model space distance between geometric entities at asserted c
onnectivities');
#293=(
GEOMETRIC_REPRESENTATION_CONTEXT(3)
GLOBAL_UNCERTAINTY_ASSIGNED_CONTEXT((#291))
GLOBAL_UNIT_ASSIGNED_CONTEXT((#295,#297,#298))
REPRESENTATION_CONTEXT('','3D')
);
#294=(
GEOMETRIC_REPRESENTATION_CONTEXT(3)
GLOBAL_UNCERTAINTY_ASSIGNED_CONTEXT((#292))
GLOBAL_UNIT_ASSIGNED_CONTEXT((#295,#297,#298))
REPRESENTATION_CONTEXT('','3D')
);
#295=(
LENGTH_UNIT()
NAMED_UNIT(*)
SI_UNIT(.MILLI.,.METRE.)
);
#296=(
LENGTH_UNIT()
NAMED_UNIT(*)
SI_UNIT($,.METRE.)
);
#297=(
NAMED_UNIT(*)
PLANE_ANGLE_UNIT()
SI_UNIT($,.RADIAN.)
);
#298=(
NAMED_UNIT(*)
SI_UNIT($,.STERADIAN.)
SOLID_ANGLE_UNIT()
);
#299=SHAPE_DEFINITION_REPRESENTATION(#300,#301);
#300=PRODUCT_DEFINITION_SHAPE('',$,#303);
#301=SHAPE_REPRESENTATION('',(#187),#293);
#302=PRODUCT_DEFINITION_CONTEXT('part definition',#307,'design');
#303=PRODUCT_DEFINITION('2026-06-01-18-58-21-788','mid',#304,#302);
#304=PRODUCT_DEFINITION_FORMATION('',$,#309);
#305=PRODUCT_RELATED_PRODUCT_CATEGORY('mid','mid',(#309));
#306=APPLICATION_PROTOCOL_DEFINITION('international standard',
'automotive_design',2009,#307);
#307=APPLICATION_CONTEXT(
'Core Data for Automotive Mechanical Design Process');
#308=PRODUCT_CONTEXT('part definition',#307,'mechanical');
#309=PRODUCT('2026-06-01-18-58-21-788','mid',$,(#308));
#310=PRESENTATION_STYLE_ASSIGNMENT((#311));
#311=SURFACE_STYLE_USAGE(.BOTH.,#312);
#312=SURFACE_SIDE_STYLE('',(#313));
#313=SURFACE_STYLE_FILL_AREA(#314);
#314=FILL_AREA_STYLE('\X2\94A2\X0\ - \X2\7F0E5149\X0\',(#315));
#315=FILL_AREA_STYLE_COLOUR('\X2\94A2\X0\ - \X2\7F0E5149\X0\',#316);
#316=COLOUR_RGB('\X2\94A2\X0\ - \X2\7F0E5149\X0\',0.627450980392157,0.627450980392157,
0.627450980392157);
ENDSEC;
END-ISO-10303-21;
