ISO-10303-21;
HEADER;
/* Generated by software containing ST-Developer
 * from STEP Tools, Inc. (www.steptools.com) 
 */

FILE_DESCRIPTION(
/* description */ (''),
/* implementation_level */ '2;1');

FILE_NAME(
/* name */ '',
/* time_stamp */ '2026-05-28T18:48:44+08:00',
/* author */ (''),
/* organization */ (''),
/* preprocessor_version */ 'ST-DEVELOPER v20.1',
/* originating_system */ 'Autodesk Translation Framework v15.8.0.0',
/* authorisation */ '');

FILE_SCHEMA (('AUTOMOTIVE_DESIGN { 1 0 10303 214 3 1 1 }'));
ENDSEC;

DATA;
#10=MECHANICAL_DESIGN_GEOMETRIC_PRESENTATION_REPRESENTATION('',(#13),#519);
#11=SHAPE_REPRESENTATION_RELATIONSHIP('SRR','None',#526,#12);
#12=ADVANCED_BREP_SHAPE_REPRESENTATION('',(#14),#518);
#13=STYLED_ITEM('',(#535),#14);
#14=MANIFOLD_SOLID_BREP('\X2\5B9E4F53\X0\1',#313);
#15=CYLINDRICAL_SURFACE('',#339,1.84);
#16=CYLINDRICAL_SURFACE('',#341,1.84);
#17=CYLINDRICAL_SURFACE('',#343,1.84);
#18=CYLINDRICAL_SURFACE('',#345,1.84);
#19=FACE_BOUND('',#53,.T.);
#20=FACE_BOUND('',#54,.T.);
#21=FACE_BOUND('',#55,.T.);
#22=FACE_BOUND('',#56,.T.);
#23=FACE_BOUND('',#71,.T.);
#24=FACE_BOUND('',#72,.T.);
#25=FACE_BOUND('',#73,.T.);
#26=FACE_BOUND('',#74,.T.);
#27=CIRCLE('',#329,1.84);
#28=CIRCLE('',#330,1.84);
#29=CIRCLE('',#331,1.84);
#30=CIRCLE('',#332,1.84);
#31=CIRCLE('',#340,1.84);
#32=CIRCLE('',#342,1.84);
#33=CIRCLE('',#344,1.84);
#34=CIRCLE('',#346,1.84);
#35=FACE_OUTER_BOUND('',#51,.T.);
#36=FACE_OUTER_BOUND('',#52,.T.);
#37=FACE_OUTER_BOUND('',#57,.T.);
#38=FACE_OUTER_BOUND('',#58,.T.);
#39=FACE_OUTER_BOUND('',#59,.T.);
#40=FACE_OUTER_BOUND('',#60,.T.);
#41=FACE_OUTER_BOUND('',#61,.T.);
#42=FACE_OUTER_BOUND('',#62,.T.);
#43=FACE_OUTER_BOUND('',#63,.T.);
#44=FACE_OUTER_BOUND('',#64,.T.);
#45=FACE_OUTER_BOUND('',#65,.T.);
#46=FACE_OUTER_BOUND('',#66,.T.);
#47=FACE_OUTER_BOUND('',#67,.T.);
#48=FACE_OUTER_BOUND('',#68,.T.);
#49=FACE_OUTER_BOUND('',#69,.T.);
#50=FACE_OUTER_BOUND('',#70,.T.);
#51=EDGE_LOOP('',(#205,#206,#207,#208));
#52=EDGE_LOOP('',(#209,#210,#211,#212));
#53=EDGE_LOOP('',(#213));
#54=EDGE_LOOP('',(#214));
#55=EDGE_LOOP('',(#215));
#56=EDGE_LOOP('',(#216));
#57=EDGE_LOOP('',(#217,#218,#219,#220,#221));
#58=EDGE_LOOP('',(#222,#223,#224,#225));
#59=EDGE_LOOP('',(#226,#227,#228,#229,#230));
#60=EDGE_LOOP('',(#231,#232,#233,#234));
#61=EDGE_LOOP('',(#235,#236,#237,#238));
#62=EDGE_LOOP('',(#239,#240,#241,#242,#243,#244,#245,#246));
#63=EDGE_LOOP('',(#247,#248,#249,#250));
#64=EDGE_LOOP('',(#251,#252,#253,#254));
#65=EDGE_LOOP('',(#255,#256,#257,#258));
#66=EDGE_LOOP('',(#259,#260,#261,#262));
#67=EDGE_LOOP('',(#263,#264,#265,#266));
#68=EDGE_LOOP('',(#267,#268,#269,#270));
#69=EDGE_LOOP('',(#271,#272,#273,#274));
#70=EDGE_LOOP('',(#275,#276,#277,#278,#279,#280));
#71=EDGE_LOOP('',(#281));
#72=EDGE_LOOP('',(#282));
#73=EDGE_LOOP('',(#283));
#74=EDGE_LOOP('',(#284));
#75=LINE('',#437,#107);
#76=LINE('',#439,#108);
#77=LINE('',#441,#109);
#78=LINE('',#442,#110);
#79=LINE('',#446,#111);
#80=LINE('',#448,#112);
#81=LINE('',#450,#113);
#82=LINE('',#451,#114);
#83=LINE('',#462,#115);
#84=LINE('',#464,#116);
#85=LINE('',#466,#117);
#86=LINE('',#467,#118);
#87=LINE('',#470,#119);
#88=LINE('',#472,#120);
#89=LINE('',#473,#121);
#90=LINE('',#475,#122);
#91=LINE('',#477,#123);
#92=LINE('',#478,#124);
#93=LINE('',#480,#125);
#94=LINE('',#484,#126);
#95=LINE('',#485,#127);
#96=LINE('',#487,#128);
#97=LINE('',#488,#129);
#98=LINE('',#492,#130);
#99=LINE('',#496,#131);
#100=LINE('',#500,#132);
#101=LINE('',#504,#133);
#102=LINE('',#507,#134);
#103=LINE('',#509,#135);
#104=LINE('',#510,#136);
#105=LINE('',#512,#137);
#106=LINE('',#514,#138);
#107=VECTOR('',#355,10.);
#108=VECTOR('',#356,10.);
#109=VECTOR('',#357,10.);
#110=VECTOR('',#358,10.);
#111=VECTOR('',#361,10.);
#112=VECTOR('',#362,10.);
#113=VECTOR('',#363,10.);
#114=VECTOR('',#364,10.);
#115=VECTOR('',#375,10.);
#116=VECTOR('',#376,10.);
#117=VECTOR('',#377,10.);
#118=VECTOR('',#378,10.);
#119=VECTOR('',#381,10.);
#120=VECTOR('',#382,10.);
#121=VECTOR('',#383,10.);
#122=VECTOR('',#386,10.);
#123=VECTOR('',#387,10.);
#124=VECTOR('',#388,10.);
#125=VECTOR('',#391,10.);
#126=VECTOR('',#396,10.);
#127=VECTOR('',#397,10.);
#128=VECTOR('',#398,10.);
#129=VECTOR('',#399,10.);
#130=VECTOR('',#404,1.84);
#131=VECTOR('',#409,1.84);
#132=VECTOR('',#414,1.84);
#133=VECTOR('',#419,1.84);
#134=VECTOR('',#422,10.);
#135=VECTOR('',#423,10.);
#136=VECTOR('',#424,10.);
#137=VECTOR('',#427,10.);
#138=VECTOR('',#430,10.);
#139=VERTEX_POINT('',#435);
#140=VERTEX_POINT('',#436);
#141=VERTEX_POINT('',#438);
#142=VERTEX_POINT('',#440);
#143=VERTEX_POINT('',#444);
#144=VERTEX_POINT('',#445);
#145=VERTEX_POINT('',#447);
#146=VERTEX_POINT('',#449);
#147=VERTEX_POINT('',#452);
#148=VERTEX_POINT('',#454);
#149=VERTEX_POINT('',#456);
#150=VERTEX_POINT('',#458);
#151=VERTEX_POINT('',#461);
#152=VERTEX_POINT('',#463);
#153=VERTEX_POINT('',#465);
#154=VERTEX_POINT('',#469);
#155=VERTEX_POINT('',#471);
#156=VERTEX_POINT('',#476);
#157=VERTEX_POINT('',#483);
#158=VERTEX_POINT('',#486);
#159=VERTEX_POINT('',#490);
#160=VERTEX_POINT('',#494);
#161=VERTEX_POINT('',#498);
#162=VERTEX_POINT('',#502);
#163=VERTEX_POINT('',#506);
#164=VERTEX_POINT('',#508);
#165=EDGE_CURVE('',#139,#140,#75,.T.);
#166=EDGE_CURVE('',#141,#139,#76,.T.);
#167=EDGE_CURVE('',#142,#141,#77,.T.);
#168=EDGE_CURVE('',#140,#142,#78,.T.);
#169=EDGE_CURVE('',#143,#144,#79,.T.);
#170=EDGE_CURVE('',#144,#145,#80,.T.);
#171=EDGE_CURVE('',#145,#146,#81,.T.);
#172=EDGE_CURVE('',#146,#143,#82,.T.);
#173=EDGE_CURVE('',#147,#147,#27,.T.);
#174=EDGE_CURVE('',#148,#148,#28,.T.);
#175=EDGE_CURVE('',#149,#149,#29,.T.);
#176=EDGE_CURVE('',#150,#150,#30,.T.);
#177=EDGE_CURVE('',#140,#151,#83,.T.);
#178=EDGE_CURVE('',#152,#151,#84,.T.);
#179=EDGE_CURVE('',#153,#152,#85,.T.);
#180=EDGE_CURVE('',#139,#153,#86,.T.);
#181=EDGE_CURVE('',#153,#154,#87,.T.);
#182=EDGE_CURVE('',#155,#152,#88,.T.);
#183=EDGE_CURVE('',#154,#155,#89,.T.);
#184=EDGE_CURVE('',#154,#141,#90,.T.);
#185=EDGE_CURVE('',#156,#155,#91,.T.);
#186=EDGE_CURVE('',#142,#156,#92,.T.);
#187=EDGE_CURVE('',#151,#156,#93,.T.);
#188=EDGE_CURVE('',#157,#153,#94,.T.);
#189=EDGE_CURVE('',#144,#157,#95,.T.);
#190=EDGE_CURVE('',#143,#158,#96,.T.);
#191=EDGE_CURVE('',#154,#158,#97,.T.);
#192=EDGE_CURVE('',#159,#159,#31,.T.);
#193=EDGE_CURVE('',#159,#147,#98,.T.);
#194=EDGE_CURVE('',#160,#160,#32,.T.);
#195=EDGE_CURVE('',#160,#148,#99,.T.);
#196=EDGE_CURVE('',#161,#161,#33,.T.);
#197=EDGE_CURVE('',#161,#149,#100,.T.);
#198=EDGE_CURVE('',#162,#162,#34,.T.);
#199=EDGE_CURVE('',#162,#150,#101,.T.);
#200=EDGE_CURVE('',#145,#163,#102,.T.);
#201=EDGE_CURVE('',#164,#163,#103,.T.);
#202=EDGE_CURVE('',#146,#164,#104,.T.);
#203=EDGE_CURVE('',#158,#164,#105,.T.);
#204=EDGE_CURVE('',#163,#157,#106,.T.);
#205=ORIENTED_EDGE('',*,*,#165,.F.);
#206=ORIENTED_EDGE('',*,*,#166,.F.);
#207=ORIENTED_EDGE('',*,*,#167,.F.);
#208=ORIENTED_EDGE('',*,*,#168,.F.);
#209=ORIENTED_EDGE('',*,*,#169,.T.);
#210=ORIENTED_EDGE('',*,*,#170,.T.);
#211=ORIENTED_EDGE('',*,*,#171,.T.);
#212=ORIENTED_EDGE('',*,*,#172,.T.);
#213=ORIENTED_EDGE('',*,*,#173,.F.);
#214=ORIENTED_EDGE('',*,*,#174,.F.);
#215=ORIENTED_EDGE('',*,*,#175,.F.);
#216=ORIENTED_EDGE('',*,*,#176,.F.);
#217=ORIENTED_EDGE('',*,*,#165,.T.);
#218=ORIENTED_EDGE('',*,*,#177,.T.);
#219=ORIENTED_EDGE('',*,*,#178,.F.);
#220=ORIENTED_EDGE('',*,*,#179,.F.);
#221=ORIENTED_EDGE('',*,*,#180,.F.);
#222=ORIENTED_EDGE('',*,*,#181,.F.);
#223=ORIENTED_EDGE('',*,*,#179,.T.);
#224=ORIENTED_EDGE('',*,*,#182,.F.);
#225=ORIENTED_EDGE('',*,*,#183,.F.);
#226=ORIENTED_EDGE('',*,*,#167,.T.);
#227=ORIENTED_EDGE('',*,*,#184,.F.);
#228=ORIENTED_EDGE('',*,*,#183,.T.);
#229=ORIENTED_EDGE('',*,*,#185,.F.);
#230=ORIENTED_EDGE('',*,*,#186,.F.);
#231=ORIENTED_EDGE('',*,*,#168,.T.);
#232=ORIENTED_EDGE('',*,*,#186,.T.);
#233=ORIENTED_EDGE('',*,*,#187,.F.);
#234=ORIENTED_EDGE('',*,*,#177,.F.);
#235=ORIENTED_EDGE('',*,*,#178,.T.);
#236=ORIENTED_EDGE('',*,*,#187,.T.);
#237=ORIENTED_EDGE('',*,*,#185,.T.);
#238=ORIENTED_EDGE('',*,*,#182,.T.);
#239=ORIENTED_EDGE('',*,*,#184,.T.);
#240=ORIENTED_EDGE('',*,*,#166,.T.);
#241=ORIENTED_EDGE('',*,*,#180,.T.);
#242=ORIENTED_EDGE('',*,*,#188,.F.);
#243=ORIENTED_EDGE('',*,*,#189,.F.);
#244=ORIENTED_EDGE('',*,*,#169,.F.);
#245=ORIENTED_EDGE('',*,*,#190,.T.);
#246=ORIENTED_EDGE('',*,*,#191,.F.);
#247=ORIENTED_EDGE('',*,*,#192,.F.);
#248=ORIENTED_EDGE('',*,*,#193,.T.);
#249=ORIENTED_EDGE('',*,*,#173,.T.);
#250=ORIENTED_EDGE('',*,*,#193,.F.);
#251=ORIENTED_EDGE('',*,*,#194,.F.);
#252=ORIENTED_EDGE('',*,*,#195,.T.);
#253=ORIENTED_EDGE('',*,*,#174,.T.);
#254=ORIENTED_EDGE('',*,*,#195,.F.);
#255=ORIENTED_EDGE('',*,*,#196,.F.);
#256=ORIENTED_EDGE('',*,*,#197,.T.);
#257=ORIENTED_EDGE('',*,*,#175,.T.);
#258=ORIENTED_EDGE('',*,*,#197,.F.);
#259=ORIENTED_EDGE('',*,*,#198,.F.);
#260=ORIENTED_EDGE('',*,*,#199,.T.);
#261=ORIENTED_EDGE('',*,*,#176,.T.);
#262=ORIENTED_EDGE('',*,*,#199,.F.);
#263=ORIENTED_EDGE('',*,*,#171,.F.);
#264=ORIENTED_EDGE('',*,*,#200,.T.);
#265=ORIENTED_EDGE('',*,*,#201,.F.);
#266=ORIENTED_EDGE('',*,*,#202,.F.);
#267=ORIENTED_EDGE('',*,*,#172,.F.);
#268=ORIENTED_EDGE('',*,*,#202,.T.);
#269=ORIENTED_EDGE('',*,*,#203,.F.);
#270=ORIENTED_EDGE('',*,*,#190,.F.);
#271=ORIENTED_EDGE('',*,*,#170,.F.);
#272=ORIENTED_EDGE('',*,*,#189,.T.);
#273=ORIENTED_EDGE('',*,*,#204,.F.);
#274=ORIENTED_EDGE('',*,*,#200,.F.);
#275=ORIENTED_EDGE('',*,*,#204,.T.);
#276=ORIENTED_EDGE('',*,*,#188,.T.);
#277=ORIENTED_EDGE('',*,*,#181,.T.);
#278=ORIENTED_EDGE('',*,*,#191,.T.);
#279=ORIENTED_EDGE('',*,*,#203,.T.);
#280=ORIENTED_EDGE('',*,*,#201,.T.);
#281=ORIENTED_EDGE('',*,*,#198,.T.);
#282=ORIENTED_EDGE('',*,*,#196,.T.);
#283=ORIENTED_EDGE('',*,*,#194,.T.);
#284=ORIENTED_EDGE('',*,*,#192,.T.);
#285=PLANE('',#327);
#286=PLANE('',#328);
#287=PLANE('',#333);
#288=PLANE('',#334);
#289=PLANE('',#335);
#290=PLANE('',#336);
#291=PLANE('',#337);
#292=PLANE('',#338);
#293=PLANE('',#347);
#294=PLANE('',#348);
#295=PLANE('',#349);
#296=PLANE('',#350);
#297=ADVANCED_FACE('',(#35),#285,.F.);
#298=ADVANCED_FACE('',(#36,#19,#20,#21,#22),#286,.F.);
#299=ADVANCED_FACE('',(#37),#287,.T.);
#300=ADVANCED_FACE('',(#38),#288,.T.);
#301=ADVANCED_FACE('',(#39),#289,.T.);
#302=ADVANCED_FACE('',(#40),#290,.T.);
#303=ADVANCED_FACE('',(#41),#291,.T.);
#304=ADVANCED_FACE('',(#42),#292,.T.);
#305=ADVANCED_FACE('',(#43),#15,.F.);
#306=ADVANCED_FACE('',(#44),#16,.F.);
#307=ADVANCED_FACE('',(#45),#17,.F.);
#308=ADVANCED_FACE('',(#46),#18,.F.);
#309=ADVANCED_FACE('',(#47),#293,.T.);
#310=ADVANCED_FACE('',(#48),#294,.T.);
#311=ADVANCED_FACE('',(#49),#295,.T.);
#312=ADVANCED_FACE('',(#50,#23,#24,#25,#26),#296,.T.);
#313=CLOSED_SHELL('',(#297,#298,#299,#300,#301,#302,#303,#304,#305,#306,
#307,#308,#309,#310,#311,#312));
#314=DERIVED_UNIT_ELEMENT(#316,1.);
#315=DERIVED_UNIT_ELEMENT(#521,-3.);
#316=(
MASS_UNIT()
NAMED_UNIT(*)
SI_UNIT(.KILO.,.GRAM.)
);
#317=DERIVED_UNIT((#314,#315));
#318=MEASURE_REPRESENTATION_ITEM('density measure',
POSITIVE_RATIO_MEASURE(7850.),#317);
#319=PROPERTY_DEFINITION_REPRESENTATION(#324,#321);
#320=PROPERTY_DEFINITION_REPRESENTATION(#325,#322);
#321=REPRESENTATION('material name',(#323),#518);
#322=REPRESENTATION('density',(#318),#518);
#323=DESCRIPTIVE_REPRESENTATION_ITEM('\X2\94A2\X0\','\X2\94A2\X0\');
#324=PROPERTY_DEFINITION('material property','material name',#528);
#325=PROPERTY_DEFINITION('material property','density of part',#528);
#326=AXIS2_PLACEMENT_3D('',#433,#351,#352);
#327=AXIS2_PLACEMENT_3D('',#434,#353,#354);
#328=AXIS2_PLACEMENT_3D('',#443,#359,#360);
#329=AXIS2_PLACEMENT_3D('',#453,#365,#366);
#330=AXIS2_PLACEMENT_3D('',#455,#367,#368);
#331=AXIS2_PLACEMENT_3D('',#457,#369,#370);
#332=AXIS2_PLACEMENT_3D('',#459,#371,#372);
#333=AXIS2_PLACEMENT_3D('',#460,#373,#374);
#334=AXIS2_PLACEMENT_3D('',#468,#379,#380);
#335=AXIS2_PLACEMENT_3D('',#474,#384,#385);
#336=AXIS2_PLACEMENT_3D('',#479,#389,#390);
#337=AXIS2_PLACEMENT_3D('',#481,#392,#393);
#338=AXIS2_PLACEMENT_3D('',#482,#394,#395);
#339=AXIS2_PLACEMENT_3D('',#489,#400,#401);
#340=AXIS2_PLACEMENT_3D('',#491,#402,#403);
#341=AXIS2_PLACEMENT_3D('',#493,#405,#406);
#342=AXIS2_PLACEMENT_3D('',#495,#407,#408);
#343=AXIS2_PLACEMENT_3D('',#497,#410,#411);
#344=AXIS2_PLACEMENT_3D('',#499,#412,#413);
#345=AXIS2_PLACEMENT_3D('',#501,#415,#416);
#346=AXIS2_PLACEMENT_3D('',#503,#417,#418);
#347=AXIS2_PLACEMENT_3D('',#505,#420,#421);
#348=AXIS2_PLACEMENT_3D('',#511,#425,#426);
#349=AXIS2_PLACEMENT_3D('',#513,#428,#429);
#350=AXIS2_PLACEMENT_3D('',#515,#431,#432);
#351=DIRECTION('axis',(0.,0.,1.));
#352=DIRECTION('refdir',(1.,0.,0.));
#353=DIRECTION('center_axis',(0.,1.,0.));
#354=DIRECTION('ref_axis',(0.,0.,1.));
#355=DIRECTION('',(1.,0.,0.));
#356=DIRECTION('',(0.,0.,1.));
#357=DIRECTION('',(-1.,0.,0.));
#358=DIRECTION('',(0.,0.,-1.));
#359=DIRECTION('center_axis',(0.,1.,0.));
#360=DIRECTION('ref_axis',(1.,0.,0.));
#361=DIRECTION('',(0.,0.,1.));
#362=DIRECTION('',(-1.,0.,0.));
#363=DIRECTION('',(-3.96985273392159E-33,0.,-1.));
#364=DIRECTION('',(1.,0.,2.43666848299367E-33));
#365=DIRECTION('center_axis',(0.,-1.,0.));
#366=DIRECTION('ref_axis',(1.,0.,0.));
#367=DIRECTION('center_axis',(0.,-1.,0.));
#368=DIRECTION('ref_axis',(1.,0.,0.));
#369=DIRECTION('center_axis',(0.,-1.,0.));
#370=DIRECTION('ref_axis',(1.,0.,0.));
#371=DIRECTION('center_axis',(0.,-1.,0.));
#372=DIRECTION('ref_axis',(1.,0.,0.));
#373=DIRECTION('center_axis',(0.,0.,1.));
#374=DIRECTION('ref_axis',(1.,0.,0.));
#375=DIRECTION('',(0.,1.,0.));
#376=DIRECTION('',(1.,0.,0.));
#377=DIRECTION('',(0.,1.,0.));
#378=DIRECTION('',(0.,1.,0.));
#379=DIRECTION('center_axis',(-1.,0.,0.));
#380=DIRECTION('ref_axis',(0.,0.,1.));
#381=DIRECTION('',(0.,0.,-1.));
#382=DIRECTION('',(0.,0.,1.));
#383=DIRECTION('',(0.,1.,0.));
#384=DIRECTION('center_axis',(0.,0.,-1.));
#385=DIRECTION('ref_axis',(-1.,0.,0.));
#386=DIRECTION('',(0.,-1.,0.));
#387=DIRECTION('',(-1.,0.,0.));
#388=DIRECTION('',(0.,1.,0.));
#389=DIRECTION('center_axis',(1.,0.,0.));
#390=DIRECTION('ref_axis',(0.,0.,-1.));
#391=DIRECTION('',(0.,0.,-1.));
#392=DIRECTION('center_axis',(0.,1.,0.));
#393=DIRECTION('ref_axis',(0.,0.,1.));
#394=DIRECTION('center_axis',(1.,0.,0.));
#395=DIRECTION('ref_axis',(0.,0.,-1.));
#396=DIRECTION('',(0.,0.,-1.));
#397=DIRECTION('',(0.,1.,0.));
#398=DIRECTION('',(0.,1.,0.));
#399=DIRECTION('',(0.,0.,-1.));
#400=DIRECTION('center_axis',(0.,1.,0.));
#401=DIRECTION('ref_axis',(1.,0.,0.));
#402=DIRECTION('center_axis',(0.,-1.,0.));
#403=DIRECTION('ref_axis',(1.,0.,0.));
#404=DIRECTION('',(0.,-1.,0.));
#405=DIRECTION('center_axis',(0.,1.,0.));
#406=DIRECTION('ref_axis',(1.,0.,0.));
#407=DIRECTION('center_axis',(0.,-1.,0.));
#408=DIRECTION('ref_axis',(1.,0.,0.));
#409=DIRECTION('',(0.,-1.,0.));
#410=DIRECTION('center_axis',(0.,1.,0.));
#411=DIRECTION('ref_axis',(1.,0.,0.));
#412=DIRECTION('center_axis',(0.,-1.,0.));
#413=DIRECTION('ref_axis',(1.,0.,0.));
#414=DIRECTION('',(0.,-1.,0.));
#415=DIRECTION('center_axis',(0.,1.,0.));
#416=DIRECTION('ref_axis',(1.,0.,0.));
#417=DIRECTION('center_axis',(0.,-1.,0.));
#418=DIRECTION('ref_axis',(1.,0.,0.));
#419=DIRECTION('',(0.,-1.,0.));
#420=DIRECTION('center_axis',(-1.,0.,3.96985273392159E-33));
#421=DIRECTION('ref_axis',(3.96985273392159E-33,0.,1.));
#422=DIRECTION('',(0.,1.,0.));
#423=DIRECTION('',(3.96985273392159E-33,0.,1.));
#424=DIRECTION('',(0.,1.,0.));
#425=DIRECTION('center_axis',(2.43666848299367E-33,0.,-1.));
#426=DIRECTION('ref_axis',(-1.,0.,-2.43666848299367E-33));
#427=DIRECTION('',(-1.,0.,-2.43666848299367E-33));
#428=DIRECTION('center_axis',(0.,0.,1.));
#429=DIRECTION('ref_axis',(1.,0.,0.));
#430=DIRECTION('',(1.,0.,0.));
#431=DIRECTION('center_axis',(0.,1.,0.));
#432=DIRECTION('ref_axis',(1.,0.,0.));
#433=CARTESIAN_POINT('',(0.,0.,0.));
#434=CARTESIAN_POINT('Origin',(65.82,1.9,17.465));
#435=CARTESIAN_POINT('',(60.07,1.9,27.715));
#436=CARTESIAN_POINT('',(71.57,1.9,27.715));
#437=CARTESIAN_POINT('',(62.945,1.9,27.715));
#438=CARTESIAN_POINT('',(60.07,1.9,7.215));
#439=CARTESIAN_POINT('',(60.07,1.9,27.715));
#440=CARTESIAN_POINT('',(71.57,1.9,7.215));
#441=CARTESIAN_POINT('',(68.695,1.9,7.215));
#442=CARTESIAN_POINT('',(71.57,1.9,22.59));
#443=CARTESIAN_POINT('Origin',(30.035,0.,17.465));
#444=CARTESIAN_POINT('',(60.07,0.,1.4637067577343E-31));
#445=CARTESIAN_POINT('',(60.07,0.,34.93));
#446=CARTESIAN_POINT('',(60.07,0.,1.4637067577343E-31));
#447=CARTESIAN_POINT('',(1.38666955995881E-31,0.,34.93));
#448=CARTESIAN_POINT('',(60.07,0.,34.93));
#449=CARTESIAN_POINT('',(0.,0.,0.));
#450=CARTESIAN_POINT('',(1.38666955995881E-31,0.,34.93));
#451=CARTESIAN_POINT('',(0.,0.,0.));
#452=CARTESIAN_POINT('',(51.51,0.,31.105));
#453=CARTESIAN_POINT('Origin',(53.35,0.,31.105));
#454=CARTESIAN_POINT('',(4.88000000000001,0.,3.825));
#455=CARTESIAN_POINT('Origin',(6.72000000000001,0.,3.825));
#456=CARTESIAN_POINT('',(4.88000000000001,0.,31.105));
#457=CARTESIAN_POINT('Origin',(6.72000000000001,0.,31.105));
#458=CARTESIAN_POINT('',(51.51,0.,3.825));
#459=CARTESIAN_POINT('Origin',(53.35,0.,3.825));
#460=CARTESIAN_POINT('Origin',(60.07,0.,27.715));
#461=CARTESIAN_POINT('',(71.57,15.,27.715));
#462=CARTESIAN_POINT('',(71.57,0.,27.715));
#463=CARTESIAN_POINT('',(60.07,15.,27.715));
#464=CARTESIAN_POINT('',(71.57,15.,27.715));
#465=CARTESIAN_POINT('',(60.07,11.31,27.715));
#466=CARTESIAN_POINT('',(60.07,0.,27.715));
#467=CARTESIAN_POINT('',(60.07,0.,27.715));
#468=CARTESIAN_POINT('Origin',(60.07,0.,7.215));
#469=CARTESIAN_POINT('',(60.07,11.31,7.215));
#470=CARTESIAN_POINT('',(60.07,11.31,1.4637067577343E-31));
#471=CARTESIAN_POINT('',(60.07,15.,7.215));
#472=CARTESIAN_POINT('',(60.07,15.,27.715));
#473=CARTESIAN_POINT('',(60.07,0.,7.215));
#474=CARTESIAN_POINT('Origin',(71.57,0.,7.215));
#475=CARTESIAN_POINT('',(60.07,0.,7.215));
#476=CARTESIAN_POINT('',(71.57,15.,7.215));
#477=CARTESIAN_POINT('',(60.07,15.,7.215));
#478=CARTESIAN_POINT('',(71.57,0.,7.215));
#479=CARTESIAN_POINT('Origin',(71.57,0.,27.715));
#480=CARTESIAN_POINT('',(71.57,15.,7.215));
#481=CARTESIAN_POINT('Origin',(65.82,15.,17.465));
#482=CARTESIAN_POINT('Origin',(60.07,0.,34.93));
#483=CARTESIAN_POINT('',(60.07,11.31,34.93));
#484=CARTESIAN_POINT('',(60.07,11.31,1.4637067577343E-31));
#485=CARTESIAN_POINT('',(60.07,0.,34.93));
#486=CARTESIAN_POINT('',(60.07,11.31,0.));
#487=CARTESIAN_POINT('',(60.07,0.,1.4637067577343E-31));
#488=CARTESIAN_POINT('',(60.07,11.31,1.4637067577343E-31));
#489=CARTESIAN_POINT('Origin',(53.35,0.,31.105));
#490=CARTESIAN_POINT('',(51.51,11.31,31.105));
#491=CARTESIAN_POINT('Origin',(53.35,11.31,31.105));
#492=CARTESIAN_POINT('',(51.51,0.,31.105));
#493=CARTESIAN_POINT('Origin',(6.72000000000001,0.,3.825));
#494=CARTESIAN_POINT('',(4.88,11.31,3.825));
#495=CARTESIAN_POINT('Origin',(6.72000000000001,11.31,3.825));
#496=CARTESIAN_POINT('',(4.88000000000001,0.,3.825));
#497=CARTESIAN_POINT('Origin',(6.72000000000001,0.,31.105));
#498=CARTESIAN_POINT('',(4.88,11.31,31.105));
#499=CARTESIAN_POINT('Origin',(6.72000000000001,11.31,31.105));
#500=CARTESIAN_POINT('',(4.88000000000001,0.,31.105));
#501=CARTESIAN_POINT('Origin',(53.35,0.,3.825));
#502=CARTESIAN_POINT('',(51.51,11.31,3.825));
#503=CARTESIAN_POINT('Origin',(53.35,11.31,3.825));
#504=CARTESIAN_POINT('',(51.51,0.,3.825));
#505=CARTESIAN_POINT('Origin',(0.,0.,0.));
#506=CARTESIAN_POINT('',(0.,11.31,34.93));
#507=CARTESIAN_POINT('',(1.38666955995881E-31,0.,34.93));
#508=CARTESIAN_POINT('',(0.,11.31,0.));
#509=CARTESIAN_POINT('',(1.38666955995881E-31,11.31,34.93));
#510=CARTESIAN_POINT('',(0.,0.,0.));
#511=CARTESIAN_POINT('Origin',(60.07,0.,1.4637067577343E-31));
#512=CARTESIAN_POINT('',(0.,11.31,0.));
#513=CARTESIAN_POINT('Origin',(0.,0.,34.93));
#514=CARTESIAN_POINT('',(60.07,11.31,34.93));
#515=CARTESIAN_POINT('Origin',(30.035,11.31,17.465));
#516=UNCERTAINTY_MEASURE_WITH_UNIT(LENGTH_MEASURE(0.01),#520,
'DISTANCE_ACCURACY_VALUE',
'Maximum model space distance between geometric entities at asserted c
onnectivities');
#517=UNCERTAINTY_MEASURE_WITH_UNIT(LENGTH_MEASURE(0.01),#520,
'DISTANCE_ACCURACY_VALUE',
'Maximum model space distance between geometric entities at asserted c
onnectivities');
#518=(
GEOMETRIC_REPRESENTATION_CONTEXT(3)
GLOBAL_UNCERTAINTY_ASSIGNED_CONTEXT((#516))
GLOBAL_UNIT_ASSIGNED_CONTEXT((#520,#522,#523))
REPRESENTATION_CONTEXT('','3D')
);
#519=(
GEOMETRIC_REPRESENTATION_CONTEXT(3)
GLOBAL_UNCERTAINTY_ASSIGNED_CONTEXT((#517))
GLOBAL_UNIT_ASSIGNED_CONTEXT((#520,#522,#523))
REPRESENTATION_CONTEXT('','3D')
);
#520=(
LENGTH_UNIT()
NAMED_UNIT(*)
SI_UNIT(.MILLI.,.METRE.)
);
#521=(
LENGTH_UNIT()
NAMED_UNIT(*)
SI_UNIT($,.METRE.)
);
#522=(
NAMED_UNIT(*)
PLANE_ANGLE_UNIT()
SI_UNIT($,.RADIAN.)
);
#523=(
NAMED_UNIT(*)
SI_UNIT($,.STERADIAN.)
SOLID_ANGLE_UNIT()
);
#524=SHAPE_DEFINITION_REPRESENTATION(#525,#526);
#525=PRODUCT_DEFINITION_SHAPE('',$,#528);
#526=SHAPE_REPRESENTATION('',(#326),#518);
#527=PRODUCT_DEFINITION_CONTEXT('part definition',#532,'design');
#528=PRODUCT_DEFINITION('2026-05-28-15-44-58-054',
'Orin NX \X2\8BA17B97652F8DEF\X0\DCDC',#529,#527);
#529=PRODUCT_DEFINITION_FORMATION('',$,#534);
#530=PRODUCT_RELATED_PRODUCT_CATEGORY('Orin NX \X2\8BA17B97652F8DEF\X0\D
CDC','Orin NX \X2\8BA17B97652F8DEF\X0\DCDC',(#534));
#531=APPLICATION_PROTOCOL_DEFINITION('international standard',
'automotive_design',2009,#532);
#532=APPLICATION_CONTEXT(
'Core Data for Automotive Mechanical Design Process');
#533=PRODUCT_CONTEXT('part definition',#532,'mechanical');
#534=PRODUCT('2026-05-28-15-44-58-054','Orin NX \X2\8BA17B97652F8DEF\X0\D
CDC',$,(#533));
#535=PRESENTATION_STYLE_ASSIGNMENT((#536));
#536=SURFACE_STYLE_USAGE(.BOTH.,#537);
#537=SURFACE_SIDE_STYLE('',(#538));
#538=SURFACE_STYLE_FILL_AREA(#539);
#539=FILL_AREA_STYLE('\X2\94A2\X0\ - \X2\7F0E5149\X0\',(#540));
#540=FILL_AREA_STYLE_COLOUR('\X2\94A2\X0\ - \X2\7F0E5149\X0\',#541);
#541=COLOUR_RGB('\X2\94A2\X0\ - \X2\7F0E5149\X0\',0.627450980392157,0.627450980392157,
0.627450980392157);
ENDSEC;
END-ISO-10303-21;
