ISO-10303-21;
HEADER;
/* Generated by software containing ST-Developer
 * from STEP Tools, Inc. (www.steptools.com) 
 */

FILE_DESCRIPTION(
/* description */ (''),
/* implementation_level */ '2;1');

FILE_NAME(
/* name */ '',
/* time_stamp */ '2026-06-02T01:52:40+08:00',
/* author */ (''),
/* organization */ (''),
/* preprocessor_version */ 'ST-DEVELOPER v20.1',
/* originating_system */ 'Autodesk Translation Framework v15.8.0.0',
/* authorisation */ '');

FILE_SCHEMA (('AUTOMOTIVE_DESIGN { 1 0 10303 214 3 1 1 }'));
ENDSEC;

DATA;
#10=MECHANICAL_DESIGN_GEOMETRIC_PRESENTATION_REPRESENTATION('',(#13),#778);
#11=SHAPE_REPRESENTATION_RELATIONSHIP('SRR','None',#785,#12);
#12=ADVANCED_BREP_SHAPE_REPRESENTATION('',(#14),#777);
#13=STYLED_ITEM('',(#794),#14);
#14=MANIFOLD_SOLID_BREP('\X2\5B9E4F53\X0\6',#455);
#15=CONICAL_SURFACE('',#510,3.575,0.785398163397447);
#16=CYLINDRICAL_SURFACE('',#488,4.);
#17=CYLINDRICAL_SURFACE('',#495,4.);
#18=CYLINDRICAL_SURFACE('',#498,2.15);
#19=CYLINDRICAL_SURFACE('',#499,2.15);
#20=CYLINDRICAL_SURFACE('',#504,4.);
#21=CYLINDRICAL_SURFACE('',#506,4.);
#22=CYLINDRICAL_SURFACE('',#507,4.);
#23=CYLINDRICAL_SURFACE('',#509,4.);
#24=CYLINDRICAL_SURFACE('',#512,3.325);
#25=CYLINDRICAL_SURFACE('',#513,1.4);
#26=CYLINDRICAL_SURFACE('',#514,1.4);
#27=FACE_BOUND('',#61,.T.);
#28=FACE_BOUND('',#62,.T.);
#29=FACE_BOUND('',#64,.T.);
#30=FACE_BOUND('',#66,.T.);
#31=FACE_BOUND('',#67,.T.);
#32=FACE_BOUND('',#69,.T.);
#33=FACE_BOUND('',#70,.T.);
#34=FACE_BOUND('',#74,.T.);
#35=FACE_BOUND('',#75,.T.);
#36=FACE_BOUND('',#82,.T.);
#37=FACE_OUTER_BOUND('',#60,.T.);
#38=FACE_OUTER_BOUND('',#63,.T.);
#39=FACE_OUTER_BOUND('',#65,.T.);
#40=FACE_OUTER_BOUND('',#68,.T.);
#41=FACE_OUTER_BOUND('',#71,.T.);
#42=FACE_OUTER_BOUND('',#72,.T.);
#43=FACE_OUTER_BOUND('',#73,.T.);
#44=FACE_OUTER_BOUND('',#76,.T.);
#45=FACE_OUTER_BOUND('',#77,.T.);
#46=FACE_OUTER_BOUND('',#78,.T.);
#47=FACE_OUTER_BOUND('',#79,.T.);
#48=FACE_OUTER_BOUND('',#80,.T.);
#49=FACE_OUTER_BOUND('',#81,.T.);
#50=FACE_OUTER_BOUND('',#83,.T.);
#51=FACE_OUTER_BOUND('',#84,.T.);
#52=FACE_OUTER_BOUND('',#85,.T.);
#53=FACE_OUTER_BOUND('',#86,.T.);
#54=FACE_OUTER_BOUND('',#87,.T.);
#55=FACE_OUTER_BOUND('',#88,.T.);
#56=FACE_OUTER_BOUND('',#89,.T.);
#57=FACE_OUTER_BOUND('',#90,.T.);
#58=FACE_OUTER_BOUND('',#91,.T.);
#59=FACE_OUTER_BOUND('',#92,.T.);
#60=EDGE_LOOP('',(#297,#298,#299,#300,#301,#302));
#61=EDGE_LOOP('',(#303));
#62=EDGE_LOOP('',(#304));
#63=EDGE_LOOP('',(#305,#306,#307,#308,#309,#310));
#64=EDGE_LOOP('',(#311));
#65=EDGE_LOOP('',(#312,#313,#314,#315,#316,#317));
#66=EDGE_LOOP('',(#318));
#67=EDGE_LOOP('',(#319));
#68=EDGE_LOOP('',(#320,#321,#322,#323,#324,#325));
#69=EDGE_LOOP('',(#326));
#70=EDGE_LOOP('',(#327));
#71=EDGE_LOOP('',(#328,#329,#330,#331));
#72=EDGE_LOOP('',(#332,#333,#334,#335));
#73=EDGE_LOOP('',(#336,#337,#338,#339,#340,#341));
#74=EDGE_LOOP('',(#342));
#75=EDGE_LOOP('',(#343));
#76=EDGE_LOOP('',(#344,#345,#346,#347));
#77=EDGE_LOOP('',(#348,#349,#350,#351,#352,#353,#354,#355,#356));
#78=EDGE_LOOP('',(#357,#358,#359,#360,#361,#362,#363,#364,#365));
#79=EDGE_LOOP('',(#366,#367,#368,#369));
#80=EDGE_LOOP('',(#370,#371,#372,#373));
#81=EDGE_LOOP('',(#374,#375,#376,#377,#378,#379));
#82=EDGE_LOOP('',(#380));
#83=EDGE_LOOP('',(#381,#382,#383,#384));
#84=EDGE_LOOP('',(#385,#386,#387,#388));
#85=EDGE_LOOP('',(#389,#390,#391,#392));
#86=EDGE_LOOP('',(#393,#394,#395,#396));
#87=EDGE_LOOP('',(#397,#398,#399,#400));
#88=EDGE_LOOP('',(#401,#402,#403,#404));
#89=EDGE_LOOP('',(#405,#406,#407,#408));
#90=EDGE_LOOP('',(#409,#410,#411,#412));
#91=EDGE_LOOP('',(#413,#414,#415,#416));
#92=EDGE_LOOP('',(#417,#418,#419,#420));
#93=CIRCLE('',#470,4.);
#94=CIRCLE('',#471,4.);
#95=CIRCLE('',#472,1.4);
#96=CIRCLE('',#473,1.4);
#97=CIRCLE('',#475,4.);
#98=CIRCLE('',#476,4.);
#99=CIRCLE('',#477,3.825);
#100=CIRCLE('',#479,4.);
#101=CIRCLE('',#480,4.);
#102=CIRCLE('',#481,1.4);
#103=CIRCLE('',#482,1.4);
#104=CIRCLE('',#484,4.);
#105=CIRCLE('',#485,4.);
#106=CIRCLE('',#486,2.15);
#107=CIRCLE('',#487,2.15);
#108=CIRCLE('',#489,4.);
#109=CIRCLE('',#492,4.);
#110=CIRCLE('',#493,2.15);
#111=CIRCLE('',#494,2.15);
#112=CIRCLE('',#501,4.);
#113=CIRCLE('',#502,4.);
#114=CIRCLE('',#503,3.325);
#115=CIRCLE('',#511,3.325);
#116=LINE('',#652,#155);
#117=LINE('',#656,#156);
#118=LINE('',#660,#157);
#119=LINE('',#661,#158);
#120=LINE('',#668,#159);
#121=LINE('',#672,#160);
#122=LINE('',#675,#161);
#123=LINE('',#681,#162);
#124=LINE('',#685,#163);
#125=LINE('',#689,#164);
#126=LINE('',#690,#165);
#127=LINE('',#697,#166);
#128=LINE('',#701,#167);
#129=LINE('',#704,#168);
#130=LINE('',#711,#169);
#131=LINE('',#714,#170);
#132=LINE('',#717,#171);
#133=LINE('',#718,#172);
#134=LINE('',#721,#173);
#135=LINE('',#723,#174);
#136=LINE('',#725,#175);
#137=LINE('',#732,#176);
#138=LINE('',#735,#177);
#139=LINE('',#736,#178);
#140=LINE('',#737,#179);
#141=LINE('',#739,#180);
#142=LINE('',#741,#181);
#143=LINE('',#742,#182);
#144=LINE('',#744,#183);
#145=LINE('',#746,#184);
#146=LINE('',#751,#185);
#147=LINE('',#756,#186);
#148=LINE('',#758,#187);
#149=LINE('',#761,#188);
#150=LINE('',#763,#189);
#151=LINE('',#767,#190);
#152=LINE('',#770,#191);
#153=LINE('',#772,#192);
#154=LINE('',#774,#193);
#155=VECTOR('',#519,10.);
#156=VECTOR('',#522,10.);
#157=VECTOR('',#525,10.);
#158=VECTOR('',#526,10.);
#159=VECTOR('',#533,10.);
#160=VECTOR('',#536,10.);
#161=VECTOR('',#539,10.);
#162=VECTOR('',#544,10.);
#163=VECTOR('',#547,10.);
#164=VECTOR('',#550,10.);
#165=VECTOR('',#551,10.);
#166=VECTOR('',#558,10.);
#167=VECTOR('',#561,10.);
#168=VECTOR('',#564,10.);
#169=VECTOR('',#571,10.);
#170=VECTOR('',#574,10.);
#171=VECTOR('',#577,10.);
#172=VECTOR('',#578,10.);
#173=VECTOR('',#581,10.);
#174=VECTOR('',#582,10.);
#175=VECTOR('',#583,10.);
#176=VECTOR('',#592,10.);
#177=VECTOR('',#595,10.);
#178=VECTOR('',#596,10.);
#179=VECTOR('',#597,10.);
#180=VECTOR('',#600,10.);
#181=VECTOR('',#601,10.);
#182=VECTOR('',#602,10.);
#183=VECTOR('',#605,2.15);
#184=VECTOR('',#608,2.15);
#185=VECTOR('',#613,10.);
#186=VECTOR('',#620,10.);
#187=VECTOR('',#623,10.);
#188=VECTOR('',#628,10.);
#189=VECTOR('',#631,10.);
#190=VECTOR('',#636,3.575);
#191=VECTOR('',#641,3.325);
#192=VECTOR('',#644,1.4);
#193=VECTOR('',#647,1.4);
#194=VERTEX_POINT('',#650);
#195=VERTEX_POINT('',#651);
#196=VERTEX_POINT('',#653);
#197=VERTEX_POINT('',#655);
#198=VERTEX_POINT('',#657);
#199=VERTEX_POINT('',#659);
#200=VERTEX_POINT('',#662);
#201=VERTEX_POINT('',#664);
#202=VERTEX_POINT('',#667);
#203=VERTEX_POINT('',#669);
#204=VERTEX_POINT('',#671);
#205=VERTEX_POINT('',#673);
#206=VERTEX_POINT('',#676);
#207=VERTEX_POINT('',#679);
#208=VERTEX_POINT('',#680);
#209=VERTEX_POINT('',#682);
#210=VERTEX_POINT('',#684);
#211=VERTEX_POINT('',#686);
#212=VERTEX_POINT('',#688);
#213=VERTEX_POINT('',#691);
#214=VERTEX_POINT('',#693);
#215=VERTEX_POINT('',#696);
#216=VERTEX_POINT('',#698);
#217=VERTEX_POINT('',#700);
#218=VERTEX_POINT('',#702);
#219=VERTEX_POINT('',#705);
#220=VERTEX_POINT('',#707);
#221=VERTEX_POINT('',#710);
#222=VERTEX_POINT('',#712);
#223=VERTEX_POINT('',#716);
#224=VERTEX_POINT('',#720);
#225=VERTEX_POINT('',#722);
#226=VERTEX_POINT('',#724);
#227=VERTEX_POINT('',#727);
#228=VERTEX_POINT('',#729);
#229=VERTEX_POINT('',#734);
#230=VERTEX_POINT('',#740);
#231=VERTEX_POINT('',#748);
#232=VERTEX_POINT('',#750);
#233=VERTEX_POINT('',#753);
#234=VERTEX_POINT('',#766);
#235=EDGE_CURVE('',#194,#195,#116,.T.);
#236=EDGE_CURVE('',#196,#195,#93,.T.);
#237=EDGE_CURVE('',#196,#197,#117,.T.);
#238=EDGE_CURVE('',#198,#197,#94,.T.);
#239=EDGE_CURVE('',#198,#199,#118,.T.);
#240=EDGE_CURVE('',#199,#194,#119,.T.);
#241=EDGE_CURVE('',#200,#200,#95,.T.);
#242=EDGE_CURVE('',#201,#201,#96,.T.);
#243=EDGE_CURVE('',#199,#202,#120,.T.);
#244=EDGE_CURVE('',#203,#202,#97,.T.);
#245=EDGE_CURVE('',#204,#203,#121,.T.);
#246=EDGE_CURVE('',#205,#204,#98,.T.);
#247=EDGE_CURVE('',#194,#205,#122,.T.);
#248=EDGE_CURVE('',#206,#206,#99,.T.);
#249=EDGE_CURVE('',#207,#208,#123,.T.);
#250=EDGE_CURVE('',#209,#208,#100,.T.);
#251=EDGE_CURVE('',#209,#210,#124,.T.);
#252=EDGE_CURVE('',#211,#210,#101,.T.);
#253=EDGE_CURVE('',#211,#212,#125,.T.);
#254=EDGE_CURVE('',#212,#207,#126,.T.);
#255=EDGE_CURVE('',#213,#213,#102,.T.);
#256=EDGE_CURVE('',#214,#214,#103,.T.);
#257=EDGE_CURVE('',#215,#212,#127,.T.);
#258=EDGE_CURVE('',#216,#215,#104,.T.);
#259=EDGE_CURVE('',#216,#217,#128,.T.);
#260=EDGE_CURVE('',#218,#217,#105,.T.);
#261=EDGE_CURVE('',#218,#207,#129,.T.);
#262=EDGE_CURVE('',#219,#219,#106,.T.);
#263=EDGE_CURVE('',#220,#220,#107,.T.);
#264=EDGE_CURVE('',#215,#221,#130,.T.);
#265=EDGE_CURVE('',#221,#222,#108,.T.);
#266=EDGE_CURVE('',#222,#216,#131,.T.);
#267=EDGE_CURVE('',#222,#223,#132,.T.);
#268=EDGE_CURVE('',#217,#223,#133,.T.);
#269=EDGE_CURVE('',#224,#221,#134,.T.);
#270=EDGE_CURVE('',#224,#225,#135,.T.);
#271=EDGE_CURVE('',#226,#225,#136,.T.);
#272=EDGE_CURVE('',#223,#226,#109,.T.);
#273=EDGE_CURVE('',#227,#227,#110,.T.);
#274=EDGE_CURVE('',#228,#228,#111,.T.);
#275=EDGE_CURVE('',#226,#218,#137,.T.);
#276=EDGE_CURVE('',#229,#205,#138,.T.);
#277=EDGE_CURVE('',#224,#229,#139,.T.);
#278=EDGE_CURVE('',#195,#211,#140,.T.);
#279=EDGE_CURVE('',#208,#198,#141,.T.);
#280=EDGE_CURVE('',#225,#230,#142,.T.);
#281=EDGE_CURVE('',#202,#230,#143,.T.);
#282=EDGE_CURVE('',#219,#228,#144,.T.);
#283=EDGE_CURVE('',#220,#227,#145,.T.);
#284=EDGE_CURVE('',#231,#229,#112,.T.);
#285=EDGE_CURVE('',#232,#231,#146,.T.);
#286=EDGE_CURVE('',#230,#232,#113,.T.);
#287=EDGE_CURVE('',#233,#233,#114,.T.);
#288=EDGE_CURVE('',#232,#203,#147,.T.);
#289=EDGE_CURVE('',#204,#231,#148,.T.);
#290=EDGE_CURVE('',#197,#209,#149,.T.);
#291=EDGE_CURVE('',#210,#196,#150,.T.);
#292=EDGE_CURVE('',#206,#234,#151,.T.);
#293=EDGE_CURVE('',#234,#234,#115,.T.);
#294=EDGE_CURVE('',#234,#233,#152,.T.);
#295=EDGE_CURVE('',#201,#213,#153,.T.);
#296=EDGE_CURVE('',#200,#214,#154,.T.);
#297=ORIENTED_EDGE('',*,*,#235,.T.);
#298=ORIENTED_EDGE('',*,*,#236,.F.);
#299=ORIENTED_EDGE('',*,*,#237,.T.);
#300=ORIENTED_EDGE('',*,*,#238,.F.);
#301=ORIENTED_EDGE('',*,*,#239,.T.);
#302=ORIENTED_EDGE('',*,*,#240,.T.);
#303=ORIENTED_EDGE('',*,*,#241,.T.);
#304=ORIENTED_EDGE('',*,*,#242,.T.);
#305=ORIENTED_EDGE('',*,*,#240,.F.);
#306=ORIENTED_EDGE('',*,*,#243,.T.);
#307=ORIENTED_EDGE('',*,*,#244,.F.);
#308=ORIENTED_EDGE('',*,*,#245,.F.);
#309=ORIENTED_EDGE('',*,*,#246,.F.);
#310=ORIENTED_EDGE('',*,*,#247,.F.);
#311=ORIENTED_EDGE('',*,*,#248,.T.);
#312=ORIENTED_EDGE('',*,*,#249,.T.);
#313=ORIENTED_EDGE('',*,*,#250,.F.);
#314=ORIENTED_EDGE('',*,*,#251,.T.);
#315=ORIENTED_EDGE('',*,*,#252,.F.);
#316=ORIENTED_EDGE('',*,*,#253,.T.);
#317=ORIENTED_EDGE('',*,*,#254,.T.);
#318=ORIENTED_EDGE('',*,*,#255,.F.);
#319=ORIENTED_EDGE('',*,*,#256,.F.);
#320=ORIENTED_EDGE('',*,*,#254,.F.);
#321=ORIENTED_EDGE('',*,*,#257,.F.);
#322=ORIENTED_EDGE('',*,*,#258,.F.);
#323=ORIENTED_EDGE('',*,*,#259,.T.);
#324=ORIENTED_EDGE('',*,*,#260,.F.);
#325=ORIENTED_EDGE('',*,*,#261,.T.);
#326=ORIENTED_EDGE('',*,*,#262,.T.);
#327=ORIENTED_EDGE('',*,*,#263,.T.);
#328=ORIENTED_EDGE('',*,*,#258,.T.);
#329=ORIENTED_EDGE('',*,*,#264,.T.);
#330=ORIENTED_EDGE('',*,*,#265,.T.);
#331=ORIENTED_EDGE('',*,*,#266,.T.);
#332=ORIENTED_EDGE('',*,*,#266,.F.);
#333=ORIENTED_EDGE('',*,*,#267,.T.);
#334=ORIENTED_EDGE('',*,*,#268,.F.);
#335=ORIENTED_EDGE('',*,*,#259,.F.);
#336=ORIENTED_EDGE('',*,*,#265,.F.);
#337=ORIENTED_EDGE('',*,*,#269,.F.);
#338=ORIENTED_EDGE('',*,*,#270,.T.);
#339=ORIENTED_EDGE('',*,*,#271,.F.);
#340=ORIENTED_EDGE('',*,*,#272,.F.);
#341=ORIENTED_EDGE('',*,*,#267,.F.);
#342=ORIENTED_EDGE('',*,*,#273,.F.);
#343=ORIENTED_EDGE('',*,*,#274,.F.);
#344=ORIENTED_EDGE('',*,*,#260,.T.);
#345=ORIENTED_EDGE('',*,*,#268,.T.);
#346=ORIENTED_EDGE('',*,*,#272,.T.);
#347=ORIENTED_EDGE('',*,*,#275,.T.);
#348=ORIENTED_EDGE('',*,*,#235,.F.);
#349=ORIENTED_EDGE('',*,*,#247,.T.);
#350=ORIENTED_EDGE('',*,*,#276,.F.);
#351=ORIENTED_EDGE('',*,*,#277,.F.);
#352=ORIENTED_EDGE('',*,*,#269,.T.);
#353=ORIENTED_EDGE('',*,*,#264,.F.);
#354=ORIENTED_EDGE('',*,*,#257,.T.);
#355=ORIENTED_EDGE('',*,*,#253,.F.);
#356=ORIENTED_EDGE('',*,*,#278,.F.);
#357=ORIENTED_EDGE('',*,*,#239,.F.);
#358=ORIENTED_EDGE('',*,*,#279,.F.);
#359=ORIENTED_EDGE('',*,*,#249,.F.);
#360=ORIENTED_EDGE('',*,*,#261,.F.);
#361=ORIENTED_EDGE('',*,*,#275,.F.);
#362=ORIENTED_EDGE('',*,*,#271,.T.);
#363=ORIENTED_EDGE('',*,*,#280,.T.);
#364=ORIENTED_EDGE('',*,*,#281,.F.);
#365=ORIENTED_EDGE('',*,*,#243,.F.);
#366=ORIENTED_EDGE('',*,*,#262,.F.);
#367=ORIENTED_EDGE('',*,*,#282,.T.);
#368=ORIENTED_EDGE('',*,*,#274,.T.);
#369=ORIENTED_EDGE('',*,*,#282,.F.);
#370=ORIENTED_EDGE('',*,*,#263,.F.);
#371=ORIENTED_EDGE('',*,*,#283,.T.);
#372=ORIENTED_EDGE('',*,*,#273,.T.);
#373=ORIENTED_EDGE('',*,*,#283,.F.);
#374=ORIENTED_EDGE('',*,*,#277,.T.);
#375=ORIENTED_EDGE('',*,*,#284,.F.);
#376=ORIENTED_EDGE('',*,*,#285,.F.);
#377=ORIENTED_EDGE('',*,*,#286,.F.);
#378=ORIENTED_EDGE('',*,*,#280,.F.);
#379=ORIENTED_EDGE('',*,*,#270,.F.);
#380=ORIENTED_EDGE('',*,*,#287,.T.);
#381=ORIENTED_EDGE('',*,*,#286,.T.);
#382=ORIENTED_EDGE('',*,*,#288,.T.);
#383=ORIENTED_EDGE('',*,*,#244,.T.);
#384=ORIENTED_EDGE('',*,*,#281,.T.);
#385=ORIENTED_EDGE('',*,*,#288,.F.);
#386=ORIENTED_EDGE('',*,*,#285,.T.);
#387=ORIENTED_EDGE('',*,*,#289,.F.);
#388=ORIENTED_EDGE('',*,*,#245,.T.);
#389=ORIENTED_EDGE('',*,*,#246,.T.);
#390=ORIENTED_EDGE('',*,*,#289,.T.);
#391=ORIENTED_EDGE('',*,*,#284,.T.);
#392=ORIENTED_EDGE('',*,*,#276,.T.);
#393=ORIENTED_EDGE('',*,*,#238,.T.);
#394=ORIENTED_EDGE('',*,*,#290,.T.);
#395=ORIENTED_EDGE('',*,*,#250,.T.);
#396=ORIENTED_EDGE('',*,*,#279,.T.);
#397=ORIENTED_EDGE('',*,*,#290,.F.);
#398=ORIENTED_EDGE('',*,*,#237,.F.);
#399=ORIENTED_EDGE('',*,*,#291,.F.);
#400=ORIENTED_EDGE('',*,*,#251,.F.);
#401=ORIENTED_EDGE('',*,*,#236,.T.);
#402=ORIENTED_EDGE('',*,*,#278,.T.);
#403=ORIENTED_EDGE('',*,*,#252,.T.);
#404=ORIENTED_EDGE('',*,*,#291,.T.);
#405=ORIENTED_EDGE('',*,*,#248,.F.);
#406=ORIENTED_EDGE('',*,*,#292,.T.);
#407=ORIENTED_EDGE('',*,*,#293,.F.);
#408=ORIENTED_EDGE('',*,*,#292,.F.);
#409=ORIENTED_EDGE('',*,*,#293,.T.);
#410=ORIENTED_EDGE('',*,*,#294,.T.);
#411=ORIENTED_EDGE('',*,*,#287,.F.);
#412=ORIENTED_EDGE('',*,*,#294,.F.);
#413=ORIENTED_EDGE('',*,*,#242,.F.);
#414=ORIENTED_EDGE('',*,*,#295,.T.);
#415=ORIENTED_EDGE('',*,*,#255,.T.);
#416=ORIENTED_EDGE('',*,*,#295,.F.);
#417=ORIENTED_EDGE('',*,*,#241,.F.);
#418=ORIENTED_EDGE('',*,*,#296,.T.);
#419=ORIENTED_EDGE('',*,*,#256,.T.);
#420=ORIENTED_EDGE('',*,*,#296,.F.);
#421=PLANE('',#469);
#422=PLANE('',#474);
#423=PLANE('',#478);
#424=PLANE('',#483);
#425=PLANE('',#490);
#426=PLANE('',#491);
#427=PLANE('',#496);
#428=PLANE('',#497);
#429=PLANE('',#500);
#430=PLANE('',#505);
#431=PLANE('',#508);
#432=ADVANCED_FACE('',(#37,#27,#28),#421,.T.);
#433=ADVANCED_FACE('',(#38,#29),#422,.T.);
#434=ADVANCED_FACE('',(#39,#30,#31),#423,.F.);
#435=ADVANCED_FACE('',(#40,#32,#33),#424,.T.);
#436=ADVANCED_FACE('',(#41),#16,.T.);
#437=ADVANCED_FACE('',(#42),#425,.T.);
#438=ADVANCED_FACE('',(#43,#34,#35),#426,.F.);
#439=ADVANCED_FACE('',(#44),#17,.T.);
#440=ADVANCED_FACE('',(#45),#427,.T.);
#441=ADVANCED_FACE('',(#46),#428,.T.);
#442=ADVANCED_FACE('',(#47),#18,.F.);
#443=ADVANCED_FACE('',(#48),#19,.F.);
#444=ADVANCED_FACE('',(#49,#36),#429,.T.);
#445=ADVANCED_FACE('',(#50),#20,.T.);
#446=ADVANCED_FACE('',(#51),#430,.T.);
#447=ADVANCED_FACE('',(#52),#21,.T.);
#448=ADVANCED_FACE('',(#53),#22,.T.);
#449=ADVANCED_FACE('',(#54),#431,.T.);
#450=ADVANCED_FACE('',(#55),#23,.T.);
#451=ADVANCED_FACE('',(#56),#15,.F.);
#452=ADVANCED_FACE('',(#57),#24,.F.);
#453=ADVANCED_FACE('',(#58),#25,.F.);
#454=ADVANCED_FACE('',(#59),#26,.F.);
#455=CLOSED_SHELL('',(#432,#433,#434,#435,#436,#437,#438,#439,#440,#441,
#442,#443,#444,#445,#446,#447,#448,#449,#450,#451,#452,#453,#454));
#456=DERIVED_UNIT_ELEMENT(#458,1.);
#457=DERIVED_UNIT_ELEMENT(#780,-3.);
#458=(
MASS_UNIT()
NAMED_UNIT(*)
SI_UNIT(.KILO.,.GRAM.)
);
#459=DERIVED_UNIT((#456,#457));
#460=MEASURE_REPRESENTATION_ITEM('density measure',
POSITIVE_RATIO_MEASURE(7850.),#459);
#461=PROPERTY_DEFINITION_REPRESENTATION(#466,#463);
#462=PROPERTY_DEFINITION_REPRESENTATION(#467,#464);
#463=REPRESENTATION('material name',(#465),#777);
#464=REPRESENTATION('density',(#460),#777);
#465=DESCRIPTIVE_REPRESENTATION_ITEM('\X2\94A2\X0\','\X2\94A2\X0\');
#466=PROPERTY_DEFINITION('material property','material name',#787);
#467=PROPERTY_DEFINITION('material property','density of part',#787);
#468=AXIS2_PLACEMENT_3D('',#648,#515,#516);
#469=AXIS2_PLACEMENT_3D('',#649,#517,#518);
#470=AXIS2_PLACEMENT_3D('',#654,#520,#521);
#471=AXIS2_PLACEMENT_3D('',#658,#523,#524);
#472=AXIS2_PLACEMENT_3D('',#663,#527,#528);
#473=AXIS2_PLACEMENT_3D('',#665,#529,#530);
#474=AXIS2_PLACEMENT_3D('',#666,#531,#532);
#475=AXIS2_PLACEMENT_3D('',#670,#534,#535);
#476=AXIS2_PLACEMENT_3D('',#674,#537,#538);
#477=AXIS2_PLACEMENT_3D('',#677,#540,#541);
#478=AXIS2_PLACEMENT_3D('',#678,#542,#543);
#479=AXIS2_PLACEMENT_3D('',#683,#545,#546);
#480=AXIS2_PLACEMENT_3D('',#687,#548,#549);
#481=AXIS2_PLACEMENT_3D('',#692,#552,#553);
#482=AXIS2_PLACEMENT_3D('',#694,#554,#555);
#483=AXIS2_PLACEMENT_3D('',#695,#556,#557);
#484=AXIS2_PLACEMENT_3D('',#699,#559,#560);
#485=AXIS2_PLACEMENT_3D('',#703,#562,#563);
#486=AXIS2_PLACEMENT_3D('',#706,#565,#566);
#487=AXIS2_PLACEMENT_3D('',#708,#567,#568);
#488=AXIS2_PLACEMENT_3D('',#709,#569,#570);
#489=AXIS2_PLACEMENT_3D('',#713,#572,#573);
#490=AXIS2_PLACEMENT_3D('',#715,#575,#576);
#491=AXIS2_PLACEMENT_3D('',#719,#579,#580);
#492=AXIS2_PLACEMENT_3D('',#726,#584,#585);
#493=AXIS2_PLACEMENT_3D('',#728,#586,#587);
#494=AXIS2_PLACEMENT_3D('',#730,#588,#589);
#495=AXIS2_PLACEMENT_3D('',#731,#590,#591);
#496=AXIS2_PLACEMENT_3D('',#733,#593,#594);
#497=AXIS2_PLACEMENT_3D('',#738,#598,#599);
#498=AXIS2_PLACEMENT_3D('',#743,#603,#604);
#499=AXIS2_PLACEMENT_3D('',#745,#606,#607);
#500=AXIS2_PLACEMENT_3D('',#747,#609,#610);
#501=AXIS2_PLACEMENT_3D('',#749,#611,#612);
#502=AXIS2_PLACEMENT_3D('',#752,#614,#615);
#503=AXIS2_PLACEMENT_3D('',#754,#616,#617);
#504=AXIS2_PLACEMENT_3D('',#755,#618,#619);
#505=AXIS2_PLACEMENT_3D('',#757,#621,#622);
#506=AXIS2_PLACEMENT_3D('',#759,#624,#625);
#507=AXIS2_PLACEMENT_3D('',#760,#626,#627);
#508=AXIS2_PLACEMENT_3D('',#762,#629,#630);
#509=AXIS2_PLACEMENT_3D('',#764,#632,#633);
#510=AXIS2_PLACEMENT_3D('',#765,#634,#635);
#511=AXIS2_PLACEMENT_3D('',#768,#637,#638);
#512=AXIS2_PLACEMENT_3D('',#769,#639,#640);
#513=AXIS2_PLACEMENT_3D('',#771,#642,#643);
#514=AXIS2_PLACEMENT_3D('',#773,#645,#646);
#515=DIRECTION('axis',(0.,0.,1.));
#516=DIRECTION('refdir',(1.,0.,0.));
#517=DIRECTION('center_axis',(0.,1.,0.));
#518=DIRECTION('ref_axis',(1.,0.,0.));
#519=DIRECTION('',(0.,0.,1.));
#520=DIRECTION('center_axis',(0.,-1.,0.));
#521=DIRECTION('ref_axis',(-0.707106781186548,0.,0.707106781186547));
#522=DIRECTION('',(1.,0.,0.));
#523=DIRECTION('center_axis',(0.,-1.,0.));
#524=DIRECTION('ref_axis',(0.707106781186548,0.,0.707106781186547));
#525=DIRECTION('',(0.,0.,-1.));
#526=DIRECTION('',(-1.,0.,0.));
#527=DIRECTION('center_axis',(0.,-1.,0.));
#528=DIRECTION('ref_axis',(1.,0.,0.));
#529=DIRECTION('center_axis',(0.,-1.,0.));
#530=DIRECTION('ref_axis',(1.,0.,0.));
#531=DIRECTION('center_axis',(0.,0.,1.));
#532=DIRECTION('ref_axis',(1.,0.,0.));
#533=DIRECTION('',(0.,1.,0.));
#534=DIRECTION('center_axis',(0.,0.,-1.));
#535=DIRECTION('ref_axis',(0.707106781186548,0.707106781186547,0.));
#536=DIRECTION('',(1.,0.,0.));
#537=DIRECTION('center_axis',(0.,0.,-1.));
#538=DIRECTION('ref_axis',(-0.707106781186548,0.707106781186547,0.));
#539=DIRECTION('',(0.,1.,0.));
#540=DIRECTION('center_axis',(0.,0.,-1.));
#541=DIRECTION('ref_axis',(1.,0.,0.));
#542=DIRECTION('center_axis',(0.,1.,0.));
#543=DIRECTION('ref_axis',(1.,0.,0.));
#544=DIRECTION('',(0.,0.,1.));
#545=DIRECTION('center_axis',(0.,1.,0.));
#546=DIRECTION('ref_axis',(0.707106781186548,0.,0.707106781186547));
#547=DIRECTION('',(-1.,0.,0.));
#548=DIRECTION('center_axis',(0.,1.,0.));
#549=DIRECTION('ref_axis',(-0.707106781186548,0.,0.707106781186547));
#550=DIRECTION('',(0.,0.,-1.));
#551=DIRECTION('',(1.,0.,0.));
#552=DIRECTION('center_axis',(0.,-1.,0.));
#553=DIRECTION('ref_axis',(1.,0.,0.));
#554=DIRECTION('center_axis',(0.,-1.,0.));
#555=DIRECTION('ref_axis',(1.,0.,0.));
#556=DIRECTION('center_axis',(0.,-0.0871557427476582,0.996194698091746));
#557=DIRECTION('ref_axis',(1.,0.,0.));
#558=DIRECTION('',(0.,0.996194698091746,0.0871557427476585));
#559=DIRECTION('center_axis',(0.,0.0871557427476582,-0.996194698091746));
#560=DIRECTION('ref_axis',(-0.707106781186548,-0.704416026402759,-0.0616284167162194));
#561=DIRECTION('',(1.,0.,0.));
#562=DIRECTION('center_axis',(0.,0.0871557427476582,-0.996194698091746));
#563=DIRECTION('ref_axis',(0.707106781186547,-0.704416026402759,-0.0616284167162193));
#564=DIRECTION('',(0.,0.996194698091746,0.0871557427476582));
#565=DIRECTION('center_axis',(0.,0.0871557427476582,-0.996194698091746));
#566=DIRECTION('ref_axis',(1.,0.,0.));
#567=DIRECTION('center_axis',(0.,0.0871557427476582,-0.996194698091746));
#568=DIRECTION('ref_axis',(1.,0.,0.));
#569=DIRECTION('center_axis',(0.,-0.0871557427476582,0.996194698091746));
#570=DIRECTION('ref_axis',(-0.707106781186548,-0.704416026402759,-0.0616284167162194));
#571=DIRECTION('',(0.,0.0871557427476582,-0.996194698091746));
#572=DIRECTION('center_axis',(0.,-0.0871557427476582,0.996194698091746));
#573=DIRECTION('ref_axis',(-0.707106781186548,-0.704416026402759,-0.0616284167162194));
#574=DIRECTION('',(0.,-0.0871557427476582,0.996194698091746));
#575=DIRECTION('center_axis',(0.,-0.996194698091746,-0.0871557427476582));
#576=DIRECTION('ref_axis',(1.,0.,0.));
#577=DIRECTION('',(1.,0.,0.));
#578=DIRECTION('',(0.,0.0871557427476582,-0.996194698091746));
#579=DIRECTION('center_axis',(0.,-0.0871557427476582,0.996194698091746));
#580=DIRECTION('ref_axis',(1.,0.,0.));
#581=DIRECTION('',(1.22464679914735E-16,-0.996194698091746,-0.0871557427476582));
#582=DIRECTION('',(1.,0.,0.));
#583=DIRECTION('',(0.,0.996194698091746,0.0871557427476582));
#584=DIRECTION('center_axis',(0.,-0.0871557427476582,0.996194698091746));
#585=DIRECTION('ref_axis',(0.707106781186547,-0.704416026402759,-0.0616284167162193));
#586=DIRECTION('center_axis',(0.,0.0871557427476582,-0.996194698091746));
#587=DIRECTION('ref_axis',(1.,0.,0.));
#588=DIRECTION('center_axis',(0.,0.0871557427476582,-0.996194698091746));
#589=DIRECTION('ref_axis',(1.,0.,0.));
#590=DIRECTION('center_axis',(0.,-0.0871557427476582,0.996194698091746));
#591=DIRECTION('ref_axis',(0.707106781186547,-0.704416026402759,-0.0616284167162193));
#592=DIRECTION('',(0.,-0.0871557427476582,0.996194698091746));
#593=DIRECTION('center_axis',(-1.,0.,0.));
#594=DIRECTION('ref_axis',(0.,0.,1.));
#595=DIRECTION('',(0.,0.,1.));
#596=DIRECTION('',(0.,1.,0.));
#597=DIRECTION('',(0.,-1.,0.));
#598=DIRECTION('center_axis',(1.,0.,0.));
#599=DIRECTION('ref_axis',(0.,0.,-1.));
#600=DIRECTION('',(0.,1.,0.));
#601=DIRECTION('',(0.,1.,0.));
#602=DIRECTION('',(0.,0.,-1.));
#603=DIRECTION('center_axis',(0.,-0.0871557427476582,0.996194698091746));
#604=DIRECTION('ref_axis',(1.,0.,0.));
#605=DIRECTION('',(0.,0.0871557427476582,-0.996194698091745));
#606=DIRECTION('center_axis',(0.,-0.0871557427476582,0.996194698091746));
#607=DIRECTION('ref_axis',(1.,0.,0.));
#608=DIRECTION('',(0.,0.0871557427476582,-0.996194698091745));
#609=DIRECTION('center_axis',(0.,0.,-1.));
#610=DIRECTION('ref_axis',(-1.,0.,0.));
#611=DIRECTION('center_axis',(0.,0.,1.));
#612=DIRECTION('ref_axis',(-0.707106781186548,0.707106781186547,0.));
#613=DIRECTION('',(-1.,0.,0.));
#614=DIRECTION('center_axis',(0.,0.,1.));
#615=DIRECTION('ref_axis',(0.707106781186548,0.707106781186547,0.));
#616=DIRECTION('center_axis',(0.,0.,1.));
#617=DIRECTION('ref_axis',(1.,0.,0.));
#618=DIRECTION('center_axis',(0.,0.,-1.));
#619=DIRECTION('ref_axis',(0.707106781186548,0.707106781186547,0.));
#620=DIRECTION('',(0.,0.,1.));
#621=DIRECTION('center_axis',(0.,1.,0.));
#622=DIRECTION('ref_axis',(0.,0.,1.));
#623=DIRECTION('',(0.,0.,-1.));
#624=DIRECTION('center_axis',(0.,0.,1.));
#625=DIRECTION('ref_axis',(-0.707106781186548,0.707106781186547,0.));
#626=DIRECTION('center_axis',(0.,1.,0.));
#627=DIRECTION('ref_axis',(0.707106781186548,0.,0.707106781186547));
#628=DIRECTION('',(0.,-1.,0.));
#629=DIRECTION('center_axis',(0.,0.,1.));
#630=DIRECTION('ref_axis',(1.,0.,0.));
#631=DIRECTION('',(0.,1.,0.));
#632=DIRECTION('center_axis',(0.,1.,0.));
#633=DIRECTION('ref_axis',(-0.707106781186548,0.,0.707106781186547));
#634=DIRECTION('center_axis',(0.,0.,1.));
#635=DIRECTION('ref_axis',(1.,0.,0.));
#636=DIRECTION('',(0.707106781186546,8.65956056235492E-17,-0.707106781186549));
#637=DIRECTION('center_axis',(0.,0.,1.));
#638=DIRECTION('ref_axis',(1.,0.,0.));
#639=DIRECTION('center_axis',(0.,0.,-1.));
#640=DIRECTION('ref_axis',(1.,0.,0.));
#641=DIRECTION('',(0.,0.,-1.));
#642=DIRECTION('center_axis',(0.,1.,0.));
#643=DIRECTION('ref_axis',(1.,0.,0.));
#644=DIRECTION('',(0.,-1.,0.));
#645=DIRECTION('center_axis',(0.,1.,0.));
#646=DIRECTION('ref_axis',(1.,0.,0.));
#647=DIRECTION('',(0.,-1.,0.));
#648=CARTESIAN_POINT('',(0.,0.,0.));
#649=CARTESIAN_POINT('Origin',(32.5,4.,9.75));
#650=CARTESIAN_POINT('',(0.,4.,0.));
#651=CARTESIAN_POINT('',(0.,4.,15.5));
#652=CARTESIAN_POINT('',(0.,4.,19.5));
#653=CARTESIAN_POINT('',(4.,4.,19.5));
#654=CARTESIAN_POINT('Origin',(4.,4.,15.5));
#655=CARTESIAN_POINT('',(61.,4.,19.5));
#656=CARTESIAN_POINT('',(65.,4.,19.5));
#657=CARTESIAN_POINT('',(65.,4.,15.5));
#658=CARTESIAN_POINT('Origin',(61.,4.,15.5));
#659=CARTESIAN_POINT('',(65.,4.,0.));
#660=CARTESIAN_POINT('',(65.,4.,0.));
#661=CARTESIAN_POINT('',(16.25,4.,0.));
#662=CARTESIAN_POINT('',(8.6,4.,12.5));
#663=CARTESIAN_POINT('Origin',(10.,4.,12.5));
#664=CARTESIAN_POINT('',(53.6,4.,12.5));
#665=CARTESIAN_POINT('Origin',(55.,4.,12.5));
#666=CARTESIAN_POINT('Origin',(0.,0.,0.));
#667=CARTESIAN_POINT('',(65.,16.105,0.));
#668=CARTESIAN_POINT('',(65.,0.,0.));
#669=CARTESIAN_POINT('',(61.,20.105,0.));
#670=CARTESIAN_POINT('Origin',(61.,16.105,0.));
#671=CARTESIAN_POINT('',(4.,20.105,0.));
#672=CARTESIAN_POINT('',(0.,20.105,0.));
#673=CARTESIAN_POINT('',(0.,16.105,0.));
#674=CARTESIAN_POINT('Origin',(4.,16.105,0.));
#675=CARTESIAN_POINT('',(0.,0.,0.));
#676=CARTESIAN_POINT('',(28.675,14.15,0.));
#677=CARTESIAN_POINT('Origin',(32.5,14.15,0.));
#678=CARTESIAN_POINT('Origin',(32.5,0.,9.75));
#679=CARTESIAN_POINT('',(65.,0.,0.0152793501733894));
#680=CARTESIAN_POINT('',(65.,0.,15.5));
#681=CARTESIAN_POINT('',(65.,0.,0.));
#682=CARTESIAN_POINT('',(61.,0.,19.5));
#683=CARTESIAN_POINT('Origin',(61.,0.,15.5));
#684=CARTESIAN_POINT('',(4.,0.,19.5));
#685=CARTESIAN_POINT('',(65.,0.,19.5));
#686=CARTESIAN_POINT('',(0.,0.,15.5));
#687=CARTESIAN_POINT('Origin',(4.,0.,15.5));
#688=CARTESIAN_POINT('',(0.,0.,0.01527935017339));
#689=CARTESIAN_POINT('',(0.,0.,0.));
#690=CARTESIAN_POINT('',(32.5,0.,0.0152793501733899));
#691=CARTESIAN_POINT('',(53.6,0.,12.5));
#692=CARTESIAN_POINT('Origin',(55.,0.,12.5));
#693=CARTESIAN_POINT('',(8.6,0.,12.5));
#694=CARTESIAN_POINT('Origin',(10.,0.,12.5));
#695=CARTESIAN_POINT('Origin',(32.5,-15.2915434423668,-1.32255734884789));
#696=CARTESIAN_POINT('',(0.,-26.249685121376,-2.28127051907214));
#697=CARTESIAN_POINT('',(0.,-0.348622970990635,-0.0152212076330177));
#698=CARTESIAN_POINT('',(4.,-30.234463913743,-2.62989349006276));
#699=CARTESIAN_POINT('Origin',(4.,-26.249685121376,-2.28127051907213));
#700=CARTESIAN_POINT('',(61.,-30.234463913743,-2.62989349006276));
#701=CARTESIAN_POINT('',(3.67394039744206E-15,-30.234463913743,-2.62989349006276));
#702=CARTESIAN_POINT('',(65.,-26.249685121376,-2.28127051907213));
#703=CARTESIAN_POINT('Origin',(61.,-26.249685121376,-2.28127051907213));
#704=CARTESIAN_POINT('',(65.,-30.234463913743,-2.62989349006276));
#705=CARTESIAN_POINT('',(10.35,-15.2915434423668,-1.32255734884789));
#706=CARTESIAN_POINT('Origin',(12.5,-15.2915434423668,-1.32255734884789));
#707=CARTESIAN_POINT('',(50.35,-15.2915434423668,-1.32255734884789));
#708=CARTESIAN_POINT('Origin',(52.5,-15.2915434423668,-1.32255734884789));
#709=CARTESIAN_POINT('Origin',(4.,-26.0747103280523,-4.28124155842691));
#710=CARTESIAN_POINT('',(3.18408167778312E-15,-25.9010621503854,-6.26604931143911));
#711=CARTESIAN_POINT('',(0.,-26.0747103280523,-4.28124155842691));
#712=CARTESIAN_POINT('',(4.,-29.8858409427524,-6.61467228242975));
#713=CARTESIAN_POINT('Origin',(4.,-25.9010621503854,-6.26604931143911));
#714=CARTESIAN_POINT('',(4.,-30.0594891204193,-4.62986452941754));
#715=CARTESIAN_POINT('Origin',(3.67394039744206E-15,-29.8858409427524,-6.61467228242975));
#716=CARTESIAN_POINT('',(61.,-29.8858409427524,-6.61467228242975));
#717=CARTESIAN_POINT('',(3.67394039744206E-15,-29.8858409427524,-6.61467228242975));
#718=CARTESIAN_POINT('',(61.,-30.9060239865456,5.04607326651698));
#719=CARTESIAN_POINT('Origin',(32.5,-14.9429204713762,-5.30733614121487));
#720=CARTESIAN_POINT('',(0.,0.,-4.));
#721=CARTESIAN_POINT('',(0.,0.,-4.));
#722=CARTESIAN_POINT('',(65.,0.,-4.));
#723=CARTESIAN_POINT('',(48.75,0.,-4.));
#724=CARTESIAN_POINT('',(65.,-25.9010621503854,-6.26604931143911));
#725=CARTESIAN_POINT('',(65.,-29.8858409427524,-6.61467228242975));
#726=CARTESIAN_POINT('Origin',(61.,-25.9010621503854,-6.26604931143912));
#727=CARTESIAN_POINT('',(50.35,-14.9429204713762,-5.30733614121487));
#728=CARTESIAN_POINT('Origin',(52.5,-14.9429204713762,-5.30733614121487));
#729=CARTESIAN_POINT('',(10.35,-14.9429204713762,-5.30733614121487));
#730=CARTESIAN_POINT('Origin',(12.5,-14.9429204713762,-5.30733614121487));
#731=CARTESIAN_POINT('Origin',(61.,-26.9212451941786,5.39469623750761));
#732=CARTESIAN_POINT('',(65.,-26.9212451941786,5.39469623750761));
#733=CARTESIAN_POINT('Origin',(0.,0.,0.));
#734=CARTESIAN_POINT('',(0.,16.105,-4.));
#735=CARTESIAN_POINT('',(0.,16.105,-1.));
#736=CARTESIAN_POINT('',(0.,0.,-4.));
#737=CARTESIAN_POINT('',(0.,0.,15.5));
#738=CARTESIAN_POINT('Origin',(65.,0.,19.5));
#739=CARTESIAN_POINT('',(65.,0.,15.5));
#740=CARTESIAN_POINT('',(65.,16.105,-4.));
#741=CARTESIAN_POINT('',(65.,0.,-4.));
#742=CARTESIAN_POINT('',(65.,16.105,8.75));
#743=CARTESIAN_POINT('Origin',(12.5,-14.9429204713762,-5.30733614121487));
#744=CARTESIAN_POINT('',(10.35,-14.9429204713762,-5.30733614121487));
#745=CARTESIAN_POINT('Origin',(52.5,-14.9429204713762,-5.30733614121487));
#746=CARTESIAN_POINT('',(50.35,-14.9429204713762,-5.30733614121487));
#747=CARTESIAN_POINT('Origin',(65.,0.,-4.));
#748=CARTESIAN_POINT('',(4.,20.105,-4.));
#749=CARTESIAN_POINT('Origin',(4.,16.105,-4.));
#750=CARTESIAN_POINT('',(61.,20.105,-4.));
#751=CARTESIAN_POINT('',(0.,20.105,-4.));
#752=CARTESIAN_POINT('Origin',(61.,16.105,-4.));
#753=CARTESIAN_POINT('',(29.175,14.15,-4.));
#754=CARTESIAN_POINT('Origin',(32.5,14.15,-4.));
#755=CARTESIAN_POINT('Origin',(61.,16.105,8.75));
#756=CARTESIAN_POINT('',(61.,20.105,8.75));
#757=CARTESIAN_POINT('Origin',(32.5,20.105,-2.));
#758=CARTESIAN_POINT('',(4.,20.105,-1.));
#759=CARTESIAN_POINT('Origin',(4.,16.105,-1.));
#760=CARTESIAN_POINT('Origin',(61.,0.,15.5));
#761=CARTESIAN_POINT('',(61.,0.,19.5));
#762=CARTESIAN_POINT('Origin',(0.,0.,19.5));
#763=CARTESIAN_POINT('',(4.,0.,19.5));
#764=CARTESIAN_POINT('Origin',(4.,0.,15.5));
#765=CARTESIAN_POINT('Origin',(32.5,14.15,-0.25));
#766=CARTESIAN_POINT('',(29.175,14.15,-0.5));
#767=CARTESIAN_POINT('',(28.925,14.15,-0.25));
#768=CARTESIAN_POINT('Origin',(32.5,14.15,-0.5));
#769=CARTESIAN_POINT('Origin',(32.5,14.15,0.));
#770=CARTESIAN_POINT('',(29.175,14.15,0.));
#771=CARTESIAN_POINT('Origin',(55.,0.,12.5));
#772=CARTESIAN_POINT('',(53.6,0.,12.5));
#773=CARTESIAN_POINT('Origin',(10.,0.,12.5));
#774=CARTESIAN_POINT('',(8.6,0.,12.5));
#775=UNCERTAINTY_MEASURE_WITH_UNIT(LENGTH_MEASURE(0.01),#779,
'DISTANCE_ACCURACY_VALUE',
'Maximum model space distance between geometric entities at asserted c
onnectivities');
#776=UNCERTAINTY_MEASURE_WITH_UNIT(LENGTH_MEASURE(0.01),#779,
'DISTANCE_ACCURACY_VALUE',
'Maximum model space distance between geometric entities at asserted c
onnectivities');
#777=(
GEOMETRIC_REPRESENTATION_CONTEXT(3)
GLOBAL_UNCERTAINTY_ASSIGNED_CONTEXT((#775))
GLOBAL_UNIT_ASSIGNED_CONTEXT((#779,#781,#782))
REPRESENTATION_CONTEXT('','3D')
);
#778=(
GEOMETRIC_REPRESENTATION_CONTEXT(3)
GLOBAL_UNCERTAINTY_ASSIGNED_CONTEXT((#776))
GLOBAL_UNIT_ASSIGNED_CONTEXT((#779,#781,#782))
REPRESENTATION_CONTEXT('','3D')
);
#779=(
LENGTH_UNIT()
NAMED_UNIT(*)
SI_UNIT(.MILLI.,.METRE.)
);
#780=(
LENGTH_UNIT()
NAMED_UNIT(*)
SI_UNIT($,.METRE.)
);
#781=(
NAMED_UNIT(*)
PLANE_ANGLE_UNIT()
SI_UNIT($,.RADIAN.)
);
#782=(
NAMED_UNIT(*)
SI_UNIT($,.STERADIAN.)
SOLID_ANGLE_UNIT()
);
#783=SHAPE_DEFINITION_REPRESENTATION(#784,#785);
#784=PRODUCT_DEFINITION_SHAPE('',$,#787);
#785=SHAPE_REPRESENTATION('',(#468),#777);
#786=PRODUCT_DEFINITION_CONTEXT('part definition',#791,'design');
#787=PRODUCT_DEFINITION('2026-05-30-16-41-06-141','D435\X2\652F67B6\X0\',
#788,#786);
#788=PRODUCT_DEFINITION_FORMATION('',$,#793);
#789=PRODUCT_RELATED_PRODUCT_CATEGORY('D435\X2\652F67B6\X0\',
'D435\X2\652F67B6\X0\',(#793));
#790=APPLICATION_PROTOCOL_DEFINITION('international standard',
'automotive_design',2009,#791);
#791=APPLICATION_CONTEXT(
'Core Data for Automotive Mechanical Design Process');
#792=PRODUCT_CONTEXT('part definition',#791,'mechanical');
#793=PRODUCT('2026-05-30-16-41-06-141','D435\X2\652F67B6\X0\',$,(#792));
#794=PRESENTATION_STYLE_ASSIGNMENT((#795));
#795=SURFACE_STYLE_USAGE(.BOTH.,#796);
#796=SURFACE_SIDE_STYLE('',(#797));
#797=SURFACE_STYLE_FILL_AREA(#798);
#798=FILL_AREA_STYLE('\X2\94A2\X0\ - \X2\7F0E5149\X0\',(#799));
#799=FILL_AREA_STYLE_COLOUR('\X2\94A2\X0\ - \X2\7F0E5149\X0\',#800);
#800=COLOUR_RGB('\X2\94A2\X0\ - \X2\7F0E5149\X0\',0.627450980392157,0.627450980392157,
0.627450980392157);
ENDSEC;
END-ISO-10303-21;
