ISO-10303-21;
HEADER;
/* Generated by software containing ST-Developer
 * from STEP Tools, Inc. (www.steptools.com) 
 */

FILE_DESCRIPTION(
/* description */ (''),
/* implementation_level */ '2;1');

FILE_NAME(
/* name */ '',
/* time_stamp */ '2026-05-27T19:25:47+08:00',
/* author */ (''),
/* organization */ (''),
/* preprocessor_version */ 'ST-DEVELOPER v20.1',
/* originating_system */ 'Autodesk Translation Framework v15.8.0.0',
/* authorisation */ '');

FILE_SCHEMA (('AUTOMOTIVE_DESIGN { 1 0 10303 214 3 1 1 }'));
ENDSEC;

DATA;
#10=MECHANICAL_DESIGN_GEOMETRIC_PRESENTATION_REPRESENTATION('',(#13),#886);
#11=SHAPE_REPRESENTATION_RELATIONSHIP('SRR','None',#893,#12);
#12=ADVANCED_BREP_SHAPE_REPRESENTATION('',(#14),#885);
#13=STYLED_ITEM('',(#902),#14);
#14=MANIFOLD_SOLID_BREP('\X2\5B9E4F53\X0\1',#518);
#15=FACE_BOUND('',#74,.T.);
#16=FACE_BOUND('',#75,.T.);
#17=FACE_BOUND('',#76,.T.);
#18=FACE_BOUND('',#77,.T.);
#19=FACE_BOUND('',#78,.T.);
#20=FACE_BOUND('',#79,.T.);
#21=FACE_BOUND('',#80,.T.);
#22=FACE_BOUND('',#97,.T.);
#23=FACE_BOUND('',#98,.T.);
#24=FACE_BOUND('',#99,.T.);
#25=FACE_BOUND('',#100,.T.);
#26=FACE_BOUND('',#101,.T.);
#27=FACE_BOUND('',#102,.T.);
#28=FACE_BOUND('',#103,.T.);
#29=FACE_BOUND('',#109,.T.);
#30=FACE_BOUND('',#110,.T.);
#31=FACE_BOUND('',#111,.T.);
#32=FACE_BOUND('',#112,.T.);
#33=FACE_BOUND('',#114,.T.);
#34=FACE_BOUND('',#115,.T.);
#35=FACE_BOUND('',#116,.T.);
#36=FACE_BOUND('',#117,.T.);
#37=PLANE('',#535);
#38=PLANE('',#536);
#39=PLANE('',#564);
#40=PLANE('',#567);
#41=PLANE('',#578);
#42=PLANE('',#579);
#43=PLANE('',#583);
#44=PLANE('',#587);
#45=PLANE('',#588);
#46=FACE_OUTER_BOUND('',#71,.T.);
#47=FACE_OUTER_BOUND('',#72,.T.);
#48=FACE_OUTER_BOUND('',#73,.T.);
#49=FACE_OUTER_BOUND('',#81,.T.);
#50=FACE_OUTER_BOUND('',#82,.T.);
#51=FACE_OUTER_BOUND('',#83,.T.);
#52=FACE_OUTER_BOUND('',#84,.T.);
#53=FACE_OUTER_BOUND('',#85,.T.);
#54=FACE_OUTER_BOUND('',#86,.T.);
#55=FACE_OUTER_BOUND('',#87,.T.);
#56=FACE_OUTER_BOUND('',#88,.T.);
#57=FACE_OUTER_BOUND('',#89,.T.);
#58=FACE_OUTER_BOUND('',#90,.T.);
#59=FACE_OUTER_BOUND('',#91,.T.);
#60=FACE_OUTER_BOUND('',#92,.T.);
#61=FACE_OUTER_BOUND('',#93,.T.);
#62=FACE_OUTER_BOUND('',#94,.T.);
#63=FACE_OUTER_BOUND('',#95,.T.);
#64=FACE_OUTER_BOUND('',#96,.T.);
#65=FACE_OUTER_BOUND('',#104,.T.);
#66=FACE_OUTER_BOUND('',#105,.T.);
#67=FACE_OUTER_BOUND('',#106,.T.);
#68=FACE_OUTER_BOUND('',#107,.T.);
#69=FACE_OUTER_BOUND('',#108,.T.);
#70=FACE_OUTER_BOUND('',#113,.T.);
#71=EDGE_LOOP('',(#339,#340,#341,#342));
#72=EDGE_LOOP('',(#343,#344,#345,#346,#347,#348,#349));
#73=EDGE_LOOP('',(#350,#351,#352,#353));
#74=EDGE_LOOP('',(#354));
#75=EDGE_LOOP('',(#355));
#76=EDGE_LOOP('',(#356));
#77=EDGE_LOOP('',(#357,#358,#359,#360));
#78=EDGE_LOOP('',(#361));
#79=EDGE_LOOP('',(#362));
#80=EDGE_LOOP('',(#363));
#81=EDGE_LOOP('',(#364,#365,#366,#367));
#82=EDGE_LOOP('',(#368,#369,#370,#371));
#83=EDGE_LOOP('',(#372,#373,#374,#375));
#84=EDGE_LOOP('',(#376,#377,#378,#379));
#85=EDGE_LOOP('',(#380,#381,#382,#383));
#86=EDGE_LOOP('',(#384,#385,#386,#387));
#87=EDGE_LOOP('',(#388,#389,#390,#391));
#88=EDGE_LOOP('',(#392,#393,#394,#395));
#89=EDGE_LOOP('',(#396,#397,#398,#399));
#90=EDGE_LOOP('',(#400,#401,#402,#403));
#91=EDGE_LOOP('',(#404,#405,#406,#407));
#92=EDGE_LOOP('',(#408,#409,#410,#411));
#93=EDGE_LOOP('',(#412,#413,#414,#415));
#94=EDGE_LOOP('',(#416,#417,#418,#419));
#95=EDGE_LOOP('',(#420,#421,#422,#423));
#96=EDGE_LOOP('',(#424,#425,#426,#427));
#97=EDGE_LOOP('',(#428));
#98=EDGE_LOOP('',(#429));
#99=EDGE_LOOP('',(#430));
#100=EDGE_LOOP('',(#431,#432,#433,#434));
#101=EDGE_LOOP('',(#435));
#102=EDGE_LOOP('',(#436));
#103=EDGE_LOOP('',(#437));
#104=EDGE_LOOP('',(#438,#439,#440,#441));
#105=EDGE_LOOP('',(#442,#443,#444,#445));
#106=EDGE_LOOP('',(#446,#447,#448,#449,#450,#451,#452));
#107=EDGE_LOOP('',(#453,#454,#455,#456));
#108=EDGE_LOOP('',(#457,#458,#459,#460,#461,#462));
#109=EDGE_LOOP('',(#463));
#110=EDGE_LOOP('',(#464));
#111=EDGE_LOOP('',(#465));
#112=EDGE_LOOP('',(#466));
#113=EDGE_LOOP('',(#467,#468,#469,#470,#471,#472));
#114=EDGE_LOOP('',(#473));
#115=EDGE_LOOP('',(#474));
#116=EDGE_LOOP('',(#475));
#117=EDGE_LOOP('',(#476));
#118=LINE('',#748,#155);
#119=LINE('',#751,#156);
#120=LINE('',#754,#157);
#121=LINE('',#756,#158);
#122=LINE('',#758,#159);
#123=LINE('',#760,#160);
#124=LINE('',#762,#161);
#125=LINE('',#763,#162);
#126=LINE('',#766,#163);
#127=LINE('',#778,#164);
#128=LINE('',#781,#165);
#129=LINE('',#792,#166);
#130=LINE('',#798,#167);
#131=LINE('',#804,#168);
#132=LINE('',#810,#169);
#133=LINE('',#814,#170);
#134=LINE('',#818,#171);
#135=LINE('',#822,#172);
#136=LINE('',#827,#173);
#137=LINE('',#828,#174);
#138=LINE('',#829,#175);
#139=LINE('',#833,#176);
#140=LINE('',#836,#177);
#141=LINE('',#837,#178);
#142=LINE('',#842,#179);
#143=LINE('',#846,#180);
#144=LINE('',#850,#181);
#145=LINE('',#855,#182);
#146=LINE('',#858,#183);
#147=LINE('',#859,#184);
#148=LINE('',#863,#185);
#149=LINE('',#865,#186);
#150=LINE('',#867,#187);
#151=LINE('',#868,#188);
#152=LINE('',#874,#189);
#153=LINE('',#876,#190);
#154=LINE('',#877,#191);
#155=VECTOR('',#595,10.);
#156=VECTOR('',#598,10.);
#157=VECTOR('',#601,10.);
#158=VECTOR('',#602,10.);
#159=VECTOR('',#603,10.);
#160=VECTOR('',#604,10.);
#161=VECTOR('',#605,10.);
#162=VECTOR('',#606,10.);
#163=VECTOR('',#609,10.);
#164=VECTOR('',#620,10.);
#165=VECTOR('',#623,10.);
#166=VECTOR('',#634,2.);
#167=VECTOR('',#641,2.);
#168=VECTOR('',#648,2.);
#169=VECTOR('',#655,2.);
#170=VECTOR('',#660,1.6);
#171=VECTOR('',#665,1.6);
#172=VECTOR('',#670,1.6);
#173=VECTOR('',#675,10.);
#174=VECTOR('',#676,10.);
#175=VECTOR('',#677,10.);
#176=VECTOR('',#682,10.);
#177=VECTOR('',#685,10.);
#178=VECTOR('',#686,10.);
#179=VECTOR('',#693,1.6);
#180=VECTOR('',#698,1.6);
#181=VECTOR('',#703,1.6);
#182=VECTOR('',#710,10.);
#183=VECTOR('',#713,10.);
#184=VECTOR('',#714,10.);
#185=VECTOR('',#717,10.);
#186=VECTOR('',#718,10.);
#187=VECTOR('',#719,10.);
#188=VECTOR('',#720,10.);
#189=VECTOR('',#727,10.);
#190=VECTOR('',#730,10.);
#191=VECTOR('',#731,10.);
#192=CIRCLE('',#533,3.);
#193=CIRCLE('',#534,3.);
#194=CIRCLE('',#537,20.);
#195=CIRCLE('',#538,1.6);
#196=CIRCLE('',#539,1.6);
#197=CIRCLE('',#540,1.6);
#198=CIRCLE('',#541,6.50000000000428);
#199=CIRCLE('',#542,6.50000000000075);
#200=CIRCLE('',#543,1.6);
#201=CIRCLE('',#544,1.6);
#202=CIRCLE('',#545,1.6);
#203=CIRCLE('',#547,2.);
#204=CIRCLE('',#548,2.);
#205=CIRCLE('',#550,2.);
#206=CIRCLE('',#551,2.);
#207=CIRCLE('',#553,2.);
#208=CIRCLE('',#554,2.);
#209=CIRCLE('',#556,2.);
#210=CIRCLE('',#557,2.);
#211=CIRCLE('',#559,1.6);
#212=CIRCLE('',#561,1.6);
#213=CIRCLE('',#563,1.6);
#214=CIRCLE('',#566,6.50000000000075);
#215=CIRCLE('',#569,6.50000000000428);
#216=CIRCLE('',#571,1.6);
#217=CIRCLE('',#573,1.6);
#218=CIRCLE('',#575,1.6);
#219=CIRCLE('',#577,20.);
#220=CIRCLE('',#581,3.);
#221=CIRCLE('',#582,3.);
#222=CIRCLE('',#585,2.99999999999998);
#223=CIRCLE('',#586,2.99999999999998);
#224=VERTEX_POINT('',#744);
#225=VERTEX_POINT('',#745);
#226=VERTEX_POINT('',#747);
#227=VERTEX_POINT('',#749);
#228=VERTEX_POINT('',#753);
#229=VERTEX_POINT('',#755);
#230=VERTEX_POINT('',#757);
#231=VERTEX_POINT('',#759);
#232=VERTEX_POINT('',#761);
#233=VERTEX_POINT('',#765);
#234=VERTEX_POINT('',#768);
#235=VERTEX_POINT('',#770);
#236=VERTEX_POINT('',#772);
#237=VERTEX_POINT('',#774);
#238=VERTEX_POINT('',#775);
#239=VERTEX_POINT('',#777);
#240=VERTEX_POINT('',#779);
#241=VERTEX_POINT('',#782);
#242=VERTEX_POINT('',#784);
#243=VERTEX_POINT('',#786);
#244=VERTEX_POINT('',#789);
#245=VERTEX_POINT('',#791);
#246=VERTEX_POINT('',#795);
#247=VERTEX_POINT('',#797);
#248=VERTEX_POINT('',#801);
#249=VERTEX_POINT('',#803);
#250=VERTEX_POINT('',#807);
#251=VERTEX_POINT('',#809);
#252=VERTEX_POINT('',#813);
#253=VERTEX_POINT('',#817);
#254=VERTEX_POINT('',#821);
#255=VERTEX_POINT('',#825);
#256=VERTEX_POINT('',#826);
#257=VERTEX_POINT('',#831);
#258=VERTEX_POINT('',#835);
#259=VERTEX_POINT('',#841);
#260=VERTEX_POINT('',#845);
#261=VERTEX_POINT('',#849);
#262=VERTEX_POINT('',#853);
#263=VERTEX_POINT('',#857);
#264=VERTEX_POINT('',#861);
#265=VERTEX_POINT('',#862);
#266=VERTEX_POINT('',#864);
#267=VERTEX_POINT('',#866);
#268=VERTEX_POINT('',#870);
#269=VERTEX_POINT('',#872);
#270=EDGE_CURVE('',#224,#225,#192,.T.);
#271=EDGE_CURVE('',#225,#226,#118,.T.);
#272=EDGE_CURVE('',#226,#227,#193,.T.);
#273=EDGE_CURVE('',#227,#224,#119,.T.);
#274=EDGE_CURVE('',#228,#226,#120,.T.);
#275=EDGE_CURVE('',#229,#228,#121,.T.);
#276=EDGE_CURVE('',#230,#229,#122,.T.);
#277=EDGE_CURVE('',#231,#230,#123,.T.);
#278=EDGE_CURVE('',#232,#231,#124,.T.);
#279=EDGE_CURVE('',#232,#227,#125,.T.);
#280=EDGE_CURVE('',#225,#233,#126,.T.);
#281=EDGE_CURVE('',#233,#228,#194,.T.);
#282=EDGE_CURVE('',#234,#234,#195,.T.);
#283=EDGE_CURVE('',#235,#235,#196,.T.);
#284=EDGE_CURVE('',#236,#236,#197,.T.);
#285=EDGE_CURVE('',#237,#238,#198,.T.);
#286=EDGE_CURVE('',#238,#239,#127,.T.);
#287=EDGE_CURVE('',#239,#240,#199,.T.);
#288=EDGE_CURVE('',#240,#237,#128,.T.);
#289=EDGE_CURVE('',#241,#241,#200,.T.);
#290=EDGE_CURVE('',#242,#242,#201,.T.);
#291=EDGE_CURVE('',#243,#243,#202,.T.);
#292=EDGE_CURVE('',#244,#244,#203,.T.);
#293=EDGE_CURVE('',#244,#245,#129,.T.);
#294=EDGE_CURVE('',#245,#245,#204,.T.);
#295=EDGE_CURVE('',#246,#246,#205,.T.);
#296=EDGE_CURVE('',#246,#247,#130,.T.);
#297=EDGE_CURVE('',#247,#247,#206,.T.);
#298=EDGE_CURVE('',#248,#248,#207,.T.);
#299=EDGE_CURVE('',#248,#249,#131,.T.);
#300=EDGE_CURVE('',#249,#249,#208,.T.);
#301=EDGE_CURVE('',#250,#250,#209,.T.);
#302=EDGE_CURVE('',#250,#251,#132,.T.);
#303=EDGE_CURVE('',#251,#251,#210,.T.);
#304=EDGE_CURVE('',#234,#252,#133,.T.);
#305=EDGE_CURVE('',#252,#252,#211,.T.);
#306=EDGE_CURVE('',#235,#253,#134,.T.);
#307=EDGE_CURVE('',#253,#253,#212,.T.);
#308=EDGE_CURVE('',#236,#254,#135,.T.);
#309=EDGE_CURVE('',#254,#254,#213,.T.);
#310=EDGE_CURVE('',#255,#256,#136,.T.);
#311=EDGE_CURVE('',#255,#237,#137,.T.);
#312=EDGE_CURVE('',#256,#240,#138,.T.);
#313=EDGE_CURVE('',#256,#257,#214,.T.);
#314=EDGE_CURVE('',#257,#239,#139,.T.);
#315=EDGE_CURVE('',#257,#258,#140,.T.);
#316=EDGE_CURVE('',#258,#238,#141,.T.);
#317=EDGE_CURVE('',#258,#255,#215,.T.);
#318=EDGE_CURVE('',#241,#259,#142,.T.);
#319=EDGE_CURVE('',#259,#259,#216,.T.);
#320=EDGE_CURVE('',#242,#260,#143,.T.);
#321=EDGE_CURVE('',#260,#260,#217,.T.);
#322=EDGE_CURVE('',#243,#261,#144,.T.);
#323=EDGE_CURVE('',#261,#261,#218,.T.);
#324=EDGE_CURVE('',#229,#262,#219,.T.);
#325=EDGE_CURVE('',#262,#233,#145,.T.);
#326=EDGE_CURVE('',#230,#263,#146,.T.);
#327=EDGE_CURVE('',#262,#263,#147,.T.);
#328=EDGE_CURVE('',#264,#265,#148,.T.);
#329=EDGE_CURVE('',#265,#266,#149,.T.);
#330=EDGE_CURVE('',#267,#266,#150,.T.);
#331=EDGE_CURVE('',#264,#267,#151,.T.);
#332=EDGE_CURVE('',#268,#264,#220,.T.);
#333=EDGE_CURVE('',#269,#267,#221,.T.);
#334=EDGE_CURVE('',#268,#269,#152,.T.);
#335=EDGE_CURVE('',#268,#224,#153,.T.);
#336=EDGE_CURVE('',#263,#269,#154,.T.);
#337=EDGE_CURVE('',#265,#232,#222,.T.);
#338=EDGE_CURVE('',#266,#231,#223,.T.);
#339=ORIENTED_EDGE('',*,*,#270,.T.);
#340=ORIENTED_EDGE('',*,*,#271,.T.);
#341=ORIENTED_EDGE('',*,*,#272,.T.);
#342=ORIENTED_EDGE('',*,*,#273,.T.);
#343=ORIENTED_EDGE('',*,*,#272,.F.);
#344=ORIENTED_EDGE('',*,*,#274,.F.);
#345=ORIENTED_EDGE('',*,*,#275,.F.);
#346=ORIENTED_EDGE('',*,*,#276,.F.);
#347=ORIENTED_EDGE('',*,*,#277,.F.);
#348=ORIENTED_EDGE('',*,*,#278,.F.);
#349=ORIENTED_EDGE('',*,*,#279,.T.);
#350=ORIENTED_EDGE('',*,*,#271,.F.);
#351=ORIENTED_EDGE('',*,*,#280,.T.);
#352=ORIENTED_EDGE('',*,*,#281,.T.);
#353=ORIENTED_EDGE('',*,*,#274,.T.);
#354=ORIENTED_EDGE('',*,*,#282,.T.);
#355=ORIENTED_EDGE('',*,*,#283,.T.);
#356=ORIENTED_EDGE('',*,*,#284,.T.);
#357=ORIENTED_EDGE('',*,*,#285,.T.);
#358=ORIENTED_EDGE('',*,*,#286,.T.);
#359=ORIENTED_EDGE('',*,*,#287,.T.);
#360=ORIENTED_EDGE('',*,*,#288,.T.);
#361=ORIENTED_EDGE('',*,*,#289,.T.);
#362=ORIENTED_EDGE('',*,*,#290,.T.);
#363=ORIENTED_EDGE('',*,*,#291,.T.);
#364=ORIENTED_EDGE('',*,*,#292,.F.);
#365=ORIENTED_EDGE('',*,*,#293,.T.);
#366=ORIENTED_EDGE('',*,*,#294,.F.);
#367=ORIENTED_EDGE('',*,*,#293,.F.);
#368=ORIENTED_EDGE('',*,*,#295,.F.);
#369=ORIENTED_EDGE('',*,*,#296,.T.);
#370=ORIENTED_EDGE('',*,*,#297,.F.);
#371=ORIENTED_EDGE('',*,*,#296,.F.);
#372=ORIENTED_EDGE('',*,*,#298,.F.);
#373=ORIENTED_EDGE('',*,*,#299,.T.);
#374=ORIENTED_EDGE('',*,*,#300,.F.);
#375=ORIENTED_EDGE('',*,*,#299,.F.);
#376=ORIENTED_EDGE('',*,*,#301,.F.);
#377=ORIENTED_EDGE('',*,*,#302,.T.);
#378=ORIENTED_EDGE('',*,*,#303,.F.);
#379=ORIENTED_EDGE('',*,*,#302,.F.);
#380=ORIENTED_EDGE('',*,*,#282,.F.);
#381=ORIENTED_EDGE('',*,*,#304,.T.);
#382=ORIENTED_EDGE('',*,*,#305,.F.);
#383=ORIENTED_EDGE('',*,*,#304,.F.);
#384=ORIENTED_EDGE('',*,*,#283,.F.);
#385=ORIENTED_EDGE('',*,*,#306,.T.);
#386=ORIENTED_EDGE('',*,*,#307,.F.);
#387=ORIENTED_EDGE('',*,*,#306,.F.);
#388=ORIENTED_EDGE('',*,*,#284,.F.);
#389=ORIENTED_EDGE('',*,*,#308,.T.);
#390=ORIENTED_EDGE('',*,*,#309,.F.);
#391=ORIENTED_EDGE('',*,*,#308,.F.);
#392=ORIENTED_EDGE('',*,*,#310,.F.);
#393=ORIENTED_EDGE('',*,*,#311,.T.);
#394=ORIENTED_EDGE('',*,*,#288,.F.);
#395=ORIENTED_EDGE('',*,*,#312,.F.);
#396=ORIENTED_EDGE('',*,*,#313,.F.);
#397=ORIENTED_EDGE('',*,*,#312,.T.);
#398=ORIENTED_EDGE('',*,*,#287,.F.);
#399=ORIENTED_EDGE('',*,*,#314,.F.);
#400=ORIENTED_EDGE('',*,*,#315,.F.);
#401=ORIENTED_EDGE('',*,*,#314,.T.);
#402=ORIENTED_EDGE('',*,*,#286,.F.);
#403=ORIENTED_EDGE('',*,*,#316,.F.);
#404=ORIENTED_EDGE('',*,*,#317,.F.);
#405=ORIENTED_EDGE('',*,*,#316,.T.);
#406=ORIENTED_EDGE('',*,*,#285,.F.);
#407=ORIENTED_EDGE('',*,*,#311,.F.);
#408=ORIENTED_EDGE('',*,*,#289,.F.);
#409=ORIENTED_EDGE('',*,*,#318,.T.);
#410=ORIENTED_EDGE('',*,*,#319,.F.);
#411=ORIENTED_EDGE('',*,*,#318,.F.);
#412=ORIENTED_EDGE('',*,*,#290,.F.);
#413=ORIENTED_EDGE('',*,*,#320,.T.);
#414=ORIENTED_EDGE('',*,*,#321,.F.);
#415=ORIENTED_EDGE('',*,*,#320,.F.);
#416=ORIENTED_EDGE('',*,*,#291,.F.);
#417=ORIENTED_EDGE('',*,*,#322,.T.);
#418=ORIENTED_EDGE('',*,*,#323,.F.);
#419=ORIENTED_EDGE('',*,*,#322,.F.);
#420=ORIENTED_EDGE('',*,*,#324,.F.);
#421=ORIENTED_EDGE('',*,*,#275,.T.);
#422=ORIENTED_EDGE('',*,*,#281,.F.);
#423=ORIENTED_EDGE('',*,*,#325,.F.);
#424=ORIENTED_EDGE('',*,*,#326,.F.);
#425=ORIENTED_EDGE('',*,*,#276,.T.);
#426=ORIENTED_EDGE('',*,*,#324,.T.);
#427=ORIENTED_EDGE('',*,*,#327,.T.);
#428=ORIENTED_EDGE('',*,*,#323,.T.);
#429=ORIENTED_EDGE('',*,*,#321,.T.);
#430=ORIENTED_EDGE('',*,*,#319,.T.);
#431=ORIENTED_EDGE('',*,*,#317,.T.);
#432=ORIENTED_EDGE('',*,*,#310,.T.);
#433=ORIENTED_EDGE('',*,*,#313,.T.);
#434=ORIENTED_EDGE('',*,*,#315,.T.);
#435=ORIENTED_EDGE('',*,*,#309,.T.);
#436=ORIENTED_EDGE('',*,*,#307,.T.);
#437=ORIENTED_EDGE('',*,*,#305,.T.);
#438=ORIENTED_EDGE('',*,*,#328,.T.);
#439=ORIENTED_EDGE('',*,*,#329,.T.);
#440=ORIENTED_EDGE('',*,*,#330,.F.);
#441=ORIENTED_EDGE('',*,*,#331,.F.);
#442=ORIENTED_EDGE('',*,*,#332,.T.);
#443=ORIENTED_EDGE('',*,*,#331,.T.);
#444=ORIENTED_EDGE('',*,*,#333,.F.);
#445=ORIENTED_EDGE('',*,*,#334,.F.);
#446=ORIENTED_EDGE('',*,*,#270,.F.);
#447=ORIENTED_EDGE('',*,*,#335,.F.);
#448=ORIENTED_EDGE('',*,*,#334,.T.);
#449=ORIENTED_EDGE('',*,*,#336,.F.);
#450=ORIENTED_EDGE('',*,*,#327,.F.);
#451=ORIENTED_EDGE('',*,*,#325,.T.);
#452=ORIENTED_EDGE('',*,*,#280,.F.);
#453=ORIENTED_EDGE('',*,*,#337,.T.);
#454=ORIENTED_EDGE('',*,*,#278,.T.);
#455=ORIENTED_EDGE('',*,*,#338,.F.);
#456=ORIENTED_EDGE('',*,*,#329,.F.);
#457=ORIENTED_EDGE('',*,*,#338,.T.);
#458=ORIENTED_EDGE('',*,*,#277,.T.);
#459=ORIENTED_EDGE('',*,*,#326,.T.);
#460=ORIENTED_EDGE('',*,*,#336,.T.);
#461=ORIENTED_EDGE('',*,*,#333,.T.);
#462=ORIENTED_EDGE('',*,*,#330,.T.);
#463=ORIENTED_EDGE('',*,*,#292,.T.);
#464=ORIENTED_EDGE('',*,*,#295,.T.);
#465=ORIENTED_EDGE('',*,*,#298,.T.);
#466=ORIENTED_EDGE('',*,*,#301,.T.);
#467=ORIENTED_EDGE('',*,*,#273,.F.);
#468=ORIENTED_EDGE('',*,*,#279,.F.);
#469=ORIENTED_EDGE('',*,*,#337,.F.);
#470=ORIENTED_EDGE('',*,*,#328,.F.);
#471=ORIENTED_EDGE('',*,*,#332,.F.);
#472=ORIENTED_EDGE('',*,*,#335,.T.);
#473=ORIENTED_EDGE('',*,*,#294,.T.);
#474=ORIENTED_EDGE('',*,*,#297,.T.);
#475=ORIENTED_EDGE('',*,*,#300,.T.);
#476=ORIENTED_EDGE('',*,*,#303,.T.);
#477=CYLINDRICAL_SURFACE('',#532,3.);
#478=CYLINDRICAL_SURFACE('',#546,2.);
#479=CYLINDRICAL_SURFACE('',#549,2.);
#480=CYLINDRICAL_SURFACE('',#552,2.);
#481=CYLINDRICAL_SURFACE('',#555,2.);
#482=CYLINDRICAL_SURFACE('',#558,1.6);
#483=CYLINDRICAL_SURFACE('',#560,1.6);
#484=CYLINDRICAL_SURFACE('',#562,1.6);
#485=CYLINDRICAL_SURFACE('',#565,6.50000000000075);
#486=CYLINDRICAL_SURFACE('',#568,6.50000000000428);
#487=CYLINDRICAL_SURFACE('',#570,1.6);
#488=CYLINDRICAL_SURFACE('',#572,1.6);
#489=CYLINDRICAL_SURFACE('',#574,1.6);
#490=CYLINDRICAL_SURFACE('',#576,20.);
#491=CYLINDRICAL_SURFACE('',#580,3.);
#492=CYLINDRICAL_SURFACE('',#584,2.99999999999998);
#493=ADVANCED_FACE('',(#46),#477,.T.);
#494=ADVANCED_FACE('',(#47),#37,.T.);
#495=ADVANCED_FACE('',(#48,#15,#16,#17,#18,#19,#20,#21),#38,.F.);
#496=ADVANCED_FACE('',(#49),#478,.F.);
#497=ADVANCED_FACE('',(#50),#479,.F.);
#498=ADVANCED_FACE('',(#51),#480,.F.);
#499=ADVANCED_FACE('',(#52),#481,.F.);
#500=ADVANCED_FACE('',(#53),#482,.F.);
#501=ADVANCED_FACE('',(#54),#483,.F.);
#502=ADVANCED_FACE('',(#55),#484,.F.);
#503=ADVANCED_FACE('',(#56),#39,.T.);
#504=ADVANCED_FACE('',(#57),#485,.F.);
#505=ADVANCED_FACE('',(#58),#40,.T.);
#506=ADVANCED_FACE('',(#59),#486,.F.);
#507=ADVANCED_FACE('',(#60),#487,.F.);
#508=ADVANCED_FACE('',(#61),#488,.F.);
#509=ADVANCED_FACE('',(#62),#489,.F.);
#510=ADVANCED_FACE('',(#63),#490,.T.);
#511=ADVANCED_FACE('',(#64,#22,#23,#24,#25,#26,#27,#28),#41,.T.);
#512=ADVANCED_FACE('',(#65),#42,.T.);
#513=ADVANCED_FACE('',(#66),#491,.T.);
#514=ADVANCED_FACE('',(#67),#43,.T.);
#515=ADVANCED_FACE('',(#68),#492,.T.);
#516=ADVANCED_FACE('',(#69,#29,#30,#31,#32),#44,.T.);
#517=ADVANCED_FACE('',(#70,#33,#34,#35,#36),#45,.F.);
#518=CLOSED_SHELL('',(#493,#494,#495,#496,#497,#498,#499,#500,#501,#502,
#503,#504,#505,#506,#507,#508,#509,#510,#511,#512,#513,#514,#515,#516,#517));
#519=DERIVED_UNIT_ELEMENT(#521,1.);
#520=DERIVED_UNIT_ELEMENT(#888,-3.);
#521=(
MASS_UNIT()
NAMED_UNIT(*)
SI_UNIT(.KILO.,.GRAM.)
);
#522=DERIVED_UNIT((#519,#520));
#523=MEASURE_REPRESENTATION_ITEM('density measure',
POSITIVE_RATIO_MEASURE(7850.),#522);
#524=PROPERTY_DEFINITION_REPRESENTATION(#529,#526);
#525=PROPERTY_DEFINITION_REPRESENTATION(#530,#527);
#526=REPRESENTATION('material name',(#528),#885);
#527=REPRESENTATION('density',(#523),#885);
#528=DESCRIPTIVE_REPRESENTATION_ITEM('\X2\94A2\X0\','\X2\94A2\X0\');
#529=PROPERTY_DEFINITION('material property','material name',#895);
#530=PROPERTY_DEFINITION('material property','density of part',#895);
#531=AXIS2_PLACEMENT_3D('',#742,#589,#590);
#532=AXIS2_PLACEMENT_3D('',#743,#591,#592);
#533=AXIS2_PLACEMENT_3D('',#746,#593,#594);
#534=AXIS2_PLACEMENT_3D('',#750,#596,#597);
#535=AXIS2_PLACEMENT_3D('',#752,#599,#600);
#536=AXIS2_PLACEMENT_3D('',#764,#607,#608);
#537=AXIS2_PLACEMENT_3D('',#767,#610,#611);
#538=AXIS2_PLACEMENT_3D('',#769,#612,#613);
#539=AXIS2_PLACEMENT_3D('',#771,#614,#615);
#540=AXIS2_PLACEMENT_3D('',#773,#616,#617);
#541=AXIS2_PLACEMENT_3D('',#776,#618,#619);
#542=AXIS2_PLACEMENT_3D('',#780,#621,#622);
#543=AXIS2_PLACEMENT_3D('',#783,#624,#625);
#544=AXIS2_PLACEMENT_3D('',#785,#626,#627);
#545=AXIS2_PLACEMENT_3D('',#787,#628,#629);
#546=AXIS2_PLACEMENT_3D('',#788,#630,#631);
#547=AXIS2_PLACEMENT_3D('',#790,#632,#633);
#548=AXIS2_PLACEMENT_3D('',#793,#635,#636);
#549=AXIS2_PLACEMENT_3D('',#794,#637,#638);
#550=AXIS2_PLACEMENT_3D('',#796,#639,#640);
#551=AXIS2_PLACEMENT_3D('',#799,#642,#643);
#552=AXIS2_PLACEMENT_3D('',#800,#644,#645);
#553=AXIS2_PLACEMENT_3D('',#802,#646,#647);
#554=AXIS2_PLACEMENT_3D('',#805,#649,#650);
#555=AXIS2_PLACEMENT_3D('',#806,#651,#652);
#556=AXIS2_PLACEMENT_3D('',#808,#653,#654);
#557=AXIS2_PLACEMENT_3D('',#811,#656,#657);
#558=AXIS2_PLACEMENT_3D('',#812,#658,#659);
#559=AXIS2_PLACEMENT_3D('',#815,#661,#662);
#560=AXIS2_PLACEMENT_3D('',#816,#663,#664);
#561=AXIS2_PLACEMENT_3D('',#819,#666,#667);
#562=AXIS2_PLACEMENT_3D('',#820,#668,#669);
#563=AXIS2_PLACEMENT_3D('',#823,#671,#672);
#564=AXIS2_PLACEMENT_3D('',#824,#673,#674);
#565=AXIS2_PLACEMENT_3D('',#830,#678,#679);
#566=AXIS2_PLACEMENT_3D('',#832,#680,#681);
#567=AXIS2_PLACEMENT_3D('',#834,#683,#684);
#568=AXIS2_PLACEMENT_3D('',#838,#687,#688);
#569=AXIS2_PLACEMENT_3D('',#839,#689,#690);
#570=AXIS2_PLACEMENT_3D('',#840,#691,#692);
#571=AXIS2_PLACEMENT_3D('',#843,#694,#695);
#572=AXIS2_PLACEMENT_3D('',#844,#696,#697);
#573=AXIS2_PLACEMENT_3D('',#847,#699,#700);
#574=AXIS2_PLACEMENT_3D('',#848,#701,#702);
#575=AXIS2_PLACEMENT_3D('',#851,#704,#705);
#576=AXIS2_PLACEMENT_3D('',#852,#706,#707);
#577=AXIS2_PLACEMENT_3D('',#854,#708,#709);
#578=AXIS2_PLACEMENT_3D('',#856,#711,#712);
#579=AXIS2_PLACEMENT_3D('',#860,#715,#716);
#580=AXIS2_PLACEMENT_3D('',#869,#721,#722);
#581=AXIS2_PLACEMENT_3D('',#871,#723,#724);
#582=AXIS2_PLACEMENT_3D('',#873,#725,#726);
#583=AXIS2_PLACEMENT_3D('',#875,#728,#729);
#584=AXIS2_PLACEMENT_3D('',#878,#732,#733);
#585=AXIS2_PLACEMENT_3D('',#879,#734,#735);
#586=AXIS2_PLACEMENT_3D('',#880,#736,#737);
#587=AXIS2_PLACEMENT_3D('',#881,#738,#739);
#588=AXIS2_PLACEMENT_3D('',#882,#740,#741);
#589=DIRECTION('axis',(0.,0.,1.));
#590=DIRECTION('refdir',(1.,0.,0.));
#591=DIRECTION('center_axis',(0.,0.,1.));
#592=DIRECTION('ref_axis',(-0.707106781186548,-0.707106781186548,0.));
#593=DIRECTION('center_axis',(0.,0.,-1.));
#594=DIRECTION('ref_axis',(-0.707106781186548,-0.707106781186548,0.));
#595=DIRECTION('',(0.,0.,-1.));
#596=DIRECTION('center_axis',(1.22002530178589E-16,0.,1.));
#597=DIRECTION('ref_axis',(-0.707106781186548,-0.707106781186548,0.));
#598=DIRECTION('',(0.,0.,1.));
#599=DIRECTION('center_axis',(-1.22002530178589E-16,0.,-1.));
#600=DIRECTION('ref_axis',(-1.,0.,1.22002530178589E-16));
#601=DIRECTION('',(0.,-1.,0.));
#602=DIRECTION('',(-1.,0.,0.));
#603=DIRECTION('',(0.,1.,0.));
#604=DIRECTION('',(-1.,0.,1.22002530178589E-16));
#605=DIRECTION('',(0.,1.,0.));
#606=DIRECTION('',(-1.,0.,1.22002530178589E-16));
#607=DIRECTION('center_axis',(1.,0.,0.));
#608=DIRECTION('ref_axis',(0.,0.,-1.));
#609=DIRECTION('',(0.,1.,0.));
#610=DIRECTION('center_axis',(-1.,0.,0.));
#611=DIRECTION('ref_axis',(0.,0.,-1.));
#612=DIRECTION('center_axis',(1.,0.,0.));
#613=DIRECTION('ref_axis',(0.,0.,-1.));
#614=DIRECTION('center_axis',(1.,0.,0.));
#615=DIRECTION('ref_axis',(0.,0.,-1.));
#616=DIRECTION('center_axis',(1.,0.,0.));
#617=DIRECTION('ref_axis',(0.,0.,-1.));
#618=DIRECTION('center_axis',(1.,0.,0.));
#619=DIRECTION('ref_axis',(0.,9.84210661687047E-9,-1.));
#620=DIRECTION('',(0.,-1.,8.75490158385759E-14));
#621=DIRECTION('center_axis',(1.,0.,0.));
#622=DIRECTION('ref_axis',(0.,1.82629706229727E-9,1.));
#623=DIRECTION('',(0.,1.,-1.20855705337265E-13));
#624=DIRECTION('center_axis',(1.,0.,0.));
#625=DIRECTION('ref_axis',(0.,0.,-1.));
#626=DIRECTION('center_axis',(1.,0.,0.));
#627=DIRECTION('ref_axis',(0.,0.,-1.));
#628=DIRECTION('center_axis',(1.,0.,0.));
#629=DIRECTION('ref_axis',(0.,0.,-1.));
#630=DIRECTION('center_axis',(0.,-1.,0.));
#631=DIRECTION('ref_axis',(-1.,0.,0.));
#632=DIRECTION('center_axis',(0.,-1.,0.));
#633=DIRECTION('ref_axis',(-1.,0.,0.));
#634=DIRECTION('',(0.,-1.,0.));
#635=DIRECTION('center_axis',(0.,1.,0.));
#636=DIRECTION('ref_axis',(-1.,0.,0.));
#637=DIRECTION('center_axis',(0.,-1.,0.));
#638=DIRECTION('ref_axis',(-1.,0.,0.));
#639=DIRECTION('center_axis',(0.,-1.,0.));
#640=DIRECTION('ref_axis',(-1.,0.,0.));
#641=DIRECTION('',(0.,-1.,0.));
#642=DIRECTION('center_axis',(0.,1.,0.));
#643=DIRECTION('ref_axis',(-1.,0.,0.));
#644=DIRECTION('center_axis',(0.,-1.,0.));
#645=DIRECTION('ref_axis',(-1.,0.,0.));
#646=DIRECTION('center_axis',(0.,-1.,0.));
#647=DIRECTION('ref_axis',(-1.,0.,0.));
#648=DIRECTION('',(0.,-1.,0.));
#649=DIRECTION('center_axis',(0.,1.,0.));
#650=DIRECTION('ref_axis',(-1.,0.,0.));
#651=DIRECTION('center_axis',(0.,-1.,0.));
#652=DIRECTION('ref_axis',(-1.,0.,0.));
#653=DIRECTION('center_axis',(0.,-1.,0.));
#654=DIRECTION('ref_axis',(-1.,0.,0.));
#655=DIRECTION('',(0.,-1.,0.));
#656=DIRECTION('center_axis',(0.,1.,0.));
#657=DIRECTION('ref_axis',(-1.,0.,0.));
#658=DIRECTION('center_axis',(-1.,0.,0.));
#659=DIRECTION('ref_axis',(0.,0.,-1.));
#660=DIRECTION('',(1.,0.,0.));
#661=DIRECTION('center_axis',(-1.,0.,0.));
#662=DIRECTION('ref_axis',(0.,0.,-1.));
#663=DIRECTION('center_axis',(-1.,0.,0.));
#664=DIRECTION('ref_axis',(0.,0.,-1.));
#665=DIRECTION('',(1.,0.,0.));
#666=DIRECTION('center_axis',(-1.,0.,0.));
#667=DIRECTION('ref_axis',(0.,0.,-1.));
#668=DIRECTION('center_axis',(-1.,0.,0.));
#669=DIRECTION('ref_axis',(0.,0.,-1.));
#670=DIRECTION('',(1.,0.,0.));
#671=DIRECTION('center_axis',(-1.,0.,0.));
#672=DIRECTION('ref_axis',(0.,0.,-1.));
#673=DIRECTION('center_axis',(0.,1.20855705337265E-13,1.));
#674=DIRECTION('ref_axis',(0.,1.,-1.20855705337265E-13));
#675=DIRECTION('',(0.,-1.,1.20855705337265E-13));
#676=DIRECTION('',(-1.,0.,0.));
#677=DIRECTION('',(-1.,0.,0.));
#678=DIRECTION('center_axis',(-1.,0.,0.));
#679=DIRECTION('ref_axis',(0.,1.82629706229727E-9,1.));
#680=DIRECTION('center_axis',(-1.,0.,0.));
#681=DIRECTION('ref_axis',(0.,1.82629706229727E-9,1.));
#682=DIRECTION('',(-1.,0.,0.));
#683=DIRECTION('center_axis',(0.,-8.75490158385759E-14,-1.));
#684=DIRECTION('ref_axis',(0.,-1.,8.75490158385759E-14));
#685=DIRECTION('',(0.,1.,-8.75490158385759E-14));
#686=DIRECTION('',(-1.,0.,0.));
#687=DIRECTION('center_axis',(-1.,0.,0.));
#688=DIRECTION('ref_axis',(0.,9.84210661687047E-9,-1.));
#689=DIRECTION('center_axis',(-1.,0.,0.));
#690=DIRECTION('ref_axis',(0.,9.84210661687047E-9,-1.));
#691=DIRECTION('center_axis',(-1.,0.,0.));
#692=DIRECTION('ref_axis',(0.,0.,-1.));
#693=DIRECTION('',(1.,0.,0.));
#694=DIRECTION('center_axis',(-1.,0.,0.));
#695=DIRECTION('ref_axis',(0.,0.,-1.));
#696=DIRECTION('center_axis',(-1.,0.,0.));
#697=DIRECTION('ref_axis',(0.,0.,-1.));
#698=DIRECTION('',(1.,0.,0.));
#699=DIRECTION('center_axis',(-1.,0.,0.));
#700=DIRECTION('ref_axis',(0.,0.,-1.));
#701=DIRECTION('center_axis',(-1.,0.,0.));
#702=DIRECTION('ref_axis',(0.,0.,-1.));
#703=DIRECTION('',(1.,0.,0.));
#704=DIRECTION('center_axis',(-1.,0.,0.));
#705=DIRECTION('ref_axis',(0.,0.,-1.));
#706=DIRECTION('center_axis',(-1.,0.,0.));
#707=DIRECTION('ref_axis',(0.,0.,-1.));
#708=DIRECTION('center_axis',(1.,0.,0.));
#709=DIRECTION('ref_axis',(0.,0.,-1.));
#710=DIRECTION('',(-1.,0.,0.));
#711=DIRECTION('center_axis',(1.,0.,0.));
#712=DIRECTION('ref_axis',(0.,0.,-1.));
#713=DIRECTION('',(0.,0.,1.));
#714=DIRECTION('',(0.,-1.,0.));
#715=DIRECTION('center_axis',(1.,0.,0.));
#716=DIRECTION('ref_axis',(0.,0.,-1.));
#717=DIRECTION('',(0.,0.,-1.));
#718=DIRECTION('',(0.,1.,0.));
#719=DIRECTION('',(0.,0.,-1.));
#720=DIRECTION('',(0.,1.,0.));
#721=DIRECTION('center_axis',(0.,1.,0.));
#722=DIRECTION('ref_axis',(0.,0.,1.));
#723=DIRECTION('center_axis',(0.,1.,0.));
#724=DIRECTION('ref_axis',(0.,0.,1.));
#725=DIRECTION('center_axis',(0.,1.,0.));
#726=DIRECTION('ref_axis',(0.,0.,1.));
#727=DIRECTION('',(0.,1.,0.));
#728=DIRECTION('center_axis',(0.,0.,1.));
#729=DIRECTION('ref_axis',(1.,0.,0.));
#730=DIRECTION('',(-1.,0.,0.));
#731=DIRECTION('',(1.,0.,0.));
#732=DIRECTION('center_axis',(0.,1.,0.));
#733=DIRECTION('ref_axis',(1.,0.,0.));
#734=DIRECTION('center_axis',(0.,1.,0.));
#735=DIRECTION('ref_axis',(1.,0.,0.));
#736=DIRECTION('center_axis',(0.,1.,0.));
#737=DIRECTION('ref_axis',(1.,0.,0.));
#738=DIRECTION('center_axis',(0.,1.,0.));
#739=DIRECTION('ref_axis',(1.,0.,0.));
#740=DIRECTION('center_axis',(0.,1.,0.));
#741=DIRECTION('ref_axis',(1.,0.,0.));
#742=CARTESIAN_POINT('',(0.,0.,0.));
#743=CARTESIAN_POINT('Origin',(0.,3.,-20.));
#744=CARTESIAN_POINT('',(0.,0.,0.));
#745=CARTESIAN_POINT('',(-3.,3.,0.));
#746=CARTESIAN_POINT('Origin',(0.,3.,0.));
#747=CARTESIAN_POINT('',(-3.,3.,-40.));
#748=CARTESIAN_POINT('',(-3.,3.,-20.));
#749=CARTESIAN_POINT('',(0.,0.,-40.));
#750=CARTESIAN_POINT('Origin',(0.,3.,-40.));
#751=CARTESIAN_POINT('',(0.,0.,-20.));
#752=CARTESIAN_POINT('Origin',(36.4,0.,-40.));
#753=CARTESIAN_POINT('',(-3.,27.,-40.));
#754=CARTESIAN_POINT('',(-3.,0.,-40.));
#755=CARTESIAN_POINT('',(0.,27.,-40.));
#756=CARTESIAN_POINT('',(0.,27.,-40.));
#757=CARTESIAN_POINT('',(0.,3.,-40.));
#758=CARTESIAN_POINT('',(0.,0.,-40.));
#759=CARTESIAN_POINT('',(36.4,3.,-40.));
#760=CARTESIAN_POINT('',(36.4,3.,-40.));
#761=CARTESIAN_POINT('',(36.4,0.,-40.));
#762=CARTESIAN_POINT('',(36.4,0.,-40.));
#763=CARTESIAN_POINT('',(36.4,0.,-40.));
#764=CARTESIAN_POINT('Origin',(-3.,23.5,-20.));
#765=CARTESIAN_POINT('',(-3.,27.,0.));
#766=CARTESIAN_POINT('',(-3.,27.,0.));
#767=CARTESIAN_POINT('Origin',(-3.,27.,-20.));
#768=CARTESIAN_POINT('',(-3.,40.0000000000009,-10.6057713659382));
#769=CARTESIAN_POINT('Origin',(-3.,40.0000000000009,-12.2057713659382));
#770=CARTESIAN_POINT('',(-3.,40.0000000000028,-26.1942286340586));
#771=CARTESIAN_POINT('Origin',(-3.,40.0000000000028,-27.7942286340586));
#772=CARTESIAN_POINT('',(-3.,13.0000000000019,-26.1942286340618));
#773=CARTESIAN_POINT('Origin',(-3.,13.0000000000019,-27.7942286340618));
#774=CARTESIAN_POINT('',(-3.,33.5000000612591,-26.5000000000037));
#775=CARTESIAN_POINT('',(-3.,33.5000000301693,-13.4999999999952));
#776=CARTESIAN_POINT('Origin',(-3.,33.4999999972854,-19.9999999999995));
#777=CARTESIAN_POINT('',(-3.,19.5000000145855,-13.5000000000001));
#778=CARTESIAN_POINT('',(-3.,33.4999999854145,-13.5000000000013));
#779=CARTESIAN_POINT('',(-3.,19.4999999908436,-26.5000000000016));
#780=CARTESIAN_POINT('Origin',(-3.,19.5000000027146,-20.0000000000008));
#781=CARTESIAN_POINT('',(-3.,33.5000000612591,-26.5000000000037));
#782=CARTESIAN_POINT('',(-3.,26.5000000000028,-33.9884572681204));
#783=CARTESIAN_POINT('Origin',(-3.,26.5000000000028,-35.5884572681204));
#784=CARTESIAN_POINT('',(-3.,26.5,-2.81154273187961));
#785=CARTESIAN_POINT('Origin',(-3.,26.5,-4.41154273187961));
#786=CARTESIAN_POINT('',(-3.,13.,-10.6057713659415));
#787=CARTESIAN_POINT('Origin',(-3.,13.,-12.2057713659414));
#788=CARTESIAN_POINT('Origin',(8.00000000000001,3.,-35.));
#789=CARTESIAN_POINT('',(10.,3.,-35.));
#790=CARTESIAN_POINT('Origin',(8.00000000000001,3.,-35.));
#791=CARTESIAN_POINT('',(10.,0.,-35.));
#792=CARTESIAN_POINT('',(10.,3.,-35.));
#793=CARTESIAN_POINT('Origin',(8.00000000000001,0.,-35.));
#794=CARTESIAN_POINT('Origin',(31.4,3.,-35.));
#795=CARTESIAN_POINT('',(33.4,3.,-35.));
#796=CARTESIAN_POINT('Origin',(31.4,3.,-35.));
#797=CARTESIAN_POINT('',(33.4,0.,-35.));
#798=CARTESIAN_POINT('',(33.4,3.,-35.));
#799=CARTESIAN_POINT('Origin',(31.4,0.,-35.));
#800=CARTESIAN_POINT('Origin',(31.4,3.,-5.));
#801=CARTESIAN_POINT('',(33.4,3.,-5.));
#802=CARTESIAN_POINT('Origin',(31.4,3.,-5.));
#803=CARTESIAN_POINT('',(33.4,0.,-5.));
#804=CARTESIAN_POINT('',(33.4,3.,-5.));
#805=CARTESIAN_POINT('Origin',(31.4,0.,-5.));
#806=CARTESIAN_POINT('Origin',(8.00000000000001,3.,-5.));
#807=CARTESIAN_POINT('',(10.,3.,-5.));
#808=CARTESIAN_POINT('Origin',(8.00000000000001,3.,-5.));
#809=CARTESIAN_POINT('',(10.,0.,-5.));
#810=CARTESIAN_POINT('',(10.,3.,-5.));
#811=CARTESIAN_POINT('Origin',(8.00000000000001,0.,-5.));
#812=CARTESIAN_POINT('Origin',(0.,40.0000000000009,-12.2057713659382));
#813=CARTESIAN_POINT('',(0.,40.0000000000009,-10.6057713659382));
#814=CARTESIAN_POINT('',(0.,40.0000000000009,-10.6057713659382));
#815=CARTESIAN_POINT('Origin',(0.,40.0000000000009,-12.2057713659382));
#816=CARTESIAN_POINT('Origin',(0.,40.0000000000028,-27.7942286340586));
#817=CARTESIAN_POINT('',(0.,40.0000000000028,-26.1942286340586));
#818=CARTESIAN_POINT('',(0.,40.0000000000028,-26.1942286340586));
#819=CARTESIAN_POINT('Origin',(0.,40.0000000000028,-27.7942286340586));
#820=CARTESIAN_POINT('Origin',(0.,13.0000000000019,-27.7942286340618));
#821=CARTESIAN_POINT('',(0.,13.0000000000019,-26.1942286340618));
#822=CARTESIAN_POINT('',(0.,13.0000000000019,-26.1942286340618));
#823=CARTESIAN_POINT('Origin',(0.,13.0000000000019,-27.7942286340618));
#824=CARTESIAN_POINT('Origin',(0.,19.4999999908436,-26.500000000002));
#825=CARTESIAN_POINT('',(0.,33.5000000612591,-26.5000000000037));
#826=CARTESIAN_POINT('',(0.,19.4999999908436,-26.5000000000016));
#827=CARTESIAN_POINT('',(0.,33.5000000612591,-26.5000000000037));
#828=CARTESIAN_POINT('',(0.,33.5000000612591,-26.5000000000037));
#829=CARTESIAN_POINT('',(0.,19.4999999908436,-26.5000000000016));
#830=CARTESIAN_POINT('Origin',(0.,19.5000000027146,-20.0000000000008));
#831=CARTESIAN_POINT('',(0.,19.5000000145855,-13.5000000000001));
#832=CARTESIAN_POINT('Origin',(0.,19.5000000027146,-20.0000000000008));
#833=CARTESIAN_POINT('',(0.,19.5000000145855,-13.5000000000001));
#834=CARTESIAN_POINT('Origin',(0.,33.4999999854145,-13.5000000000013));
#835=CARTESIAN_POINT('',(0.,33.5000000301693,-13.4999999999952));
#836=CARTESIAN_POINT('',(0.,33.4999999854145,-13.5000000000013));
#837=CARTESIAN_POINT('',(0.,33.5000000301693,-13.4999999999952));
#838=CARTESIAN_POINT('Origin',(0.,33.4999999972854,-19.9999999999995));
#839=CARTESIAN_POINT('Origin',(0.,33.4999999972854,-19.9999999999995));
#840=CARTESIAN_POINT('Origin',(0.,26.5000000000028,-35.5884572681204));
#841=CARTESIAN_POINT('',(0.,26.5000000000028,-33.9884572681204));
#842=CARTESIAN_POINT('',(0.,26.5000000000028,-33.9884572681204));
#843=CARTESIAN_POINT('Origin',(0.,26.5000000000028,-35.5884572681204));
#844=CARTESIAN_POINT('Origin',(0.,26.5,-4.41154273187961));
#845=CARTESIAN_POINT('',(0.,26.5,-2.81154273187961));
#846=CARTESIAN_POINT('',(0.,26.5,-2.81154273187961));
#847=CARTESIAN_POINT('Origin',(0.,26.5,-4.41154273187961));
#848=CARTESIAN_POINT('Origin',(0.,13.,-12.2057713659414));
#849=CARTESIAN_POINT('',(0.,13.,-10.6057713659415));
#850=CARTESIAN_POINT('',(0.,13.,-10.6057713659415));
#851=CARTESIAN_POINT('Origin',(0.,13.,-12.2057713659414));
#852=CARTESIAN_POINT('Origin',(0.,27.,-20.));
#853=CARTESIAN_POINT('',(0.,27.,0.));
#854=CARTESIAN_POINT('Origin',(0.,27.,-20.));
#855=CARTESIAN_POINT('',(0.,27.,0.));
#856=CARTESIAN_POINT('Origin',(0.,23.5,-20.));
#857=CARTESIAN_POINT('',(0.,3.,0.));
#858=CARTESIAN_POINT('',(0.,3.,-40.));
#859=CARTESIAN_POINT('',(0.,27.,0.));
#860=CARTESIAN_POINT('Origin',(39.4,0.,-3.));
#861=CARTESIAN_POINT('',(39.4,0.,-3.));
#862=CARTESIAN_POINT('',(39.4,0.,-37.));
#863=CARTESIAN_POINT('',(39.4,0.,-3.));
#864=CARTESIAN_POINT('',(39.4,3.,-37.));
#865=CARTESIAN_POINT('',(39.4,0.,-37.));
#866=CARTESIAN_POINT('',(39.4,3.,-3.));
#867=CARTESIAN_POINT('',(39.4,3.,-3.));
#868=CARTESIAN_POINT('',(39.4,0.,-3.));
#869=CARTESIAN_POINT('Origin',(36.4,0.,-3.));
#870=CARTESIAN_POINT('',(36.4,0.,0.));
#871=CARTESIAN_POINT('Origin',(36.4,0.,-3.));
#872=CARTESIAN_POINT('',(36.4,3.,0.));
#873=CARTESIAN_POINT('Origin',(36.4,3.,-3.));
#874=CARTESIAN_POINT('',(36.4,0.,0.));
#875=CARTESIAN_POINT('Origin',(0.,0.,0.));
#876=CARTESIAN_POINT('',(0.,0.,0.));
#877=CARTESIAN_POINT('',(0.,3.,0.));
#878=CARTESIAN_POINT('Origin',(36.4,0.,-37.));
#879=CARTESIAN_POINT('Origin',(36.4,0.,-37.));
#880=CARTESIAN_POINT('Origin',(36.4,3.,-37.));
#881=CARTESIAN_POINT('Origin',(19.7,3.,-20.));
#882=CARTESIAN_POINT('Origin',(19.7,0.,-20.));
#883=UNCERTAINTY_MEASURE_WITH_UNIT(LENGTH_MEASURE(0.01),#887,
'DISTANCE_ACCURACY_VALUE',
'Maximum model space distance between geometric entities at asserted c
onnectivities');
#884=UNCERTAINTY_MEASURE_WITH_UNIT(LENGTH_MEASURE(0.01),#887,
'DISTANCE_ACCURACY_VALUE',
'Maximum model space distance between geometric entities at asserted c
onnectivities');
#885=(
GEOMETRIC_REPRESENTATION_CONTEXT(3)
GLOBAL_UNCERTAINTY_ASSIGNED_CONTEXT((#883))
GLOBAL_UNIT_ASSIGNED_CONTEXT((#887,#889,#890))
REPRESENTATION_CONTEXT('','3D')
);
#886=(
GEOMETRIC_REPRESENTATION_CONTEXT(3)
GLOBAL_UNCERTAINTY_ASSIGNED_CONTEXT((#884))
GLOBAL_UNIT_ASSIGNED_CONTEXT((#887,#889,#890))
REPRESENTATION_CONTEXT('','3D')
);
#887=(
LENGTH_UNIT()
NAMED_UNIT(*)
SI_UNIT(.MILLI.,.METRE.)
);
#888=(
LENGTH_UNIT()
NAMED_UNIT(*)
SI_UNIT($,.METRE.)
);
#889=(
NAMED_UNIT(*)
PLANE_ANGLE_UNIT()
SI_UNIT($,.RADIAN.)
);
#890=(
NAMED_UNIT(*)
SI_UNIT($,.STERADIAN.)
SOLID_ANGLE_UNIT()
);
#891=SHAPE_DEFINITION_REPRESENTATION(#892,#893);
#892=PRODUCT_DEFINITION_SHAPE('',$,#895);
#893=SHAPE_REPRESENTATION('',(#531),#885);
#894=PRODUCT_DEFINITION_CONTEXT('part definition',#899,'design');
#895=PRODUCT_DEFINITION('2026-05-27-16-46-23-525','\X2\7535673A652F67B6\X0\',
#896,#894);
#896=PRODUCT_DEFINITION_FORMATION('',$,#901);
#897=PRODUCT_RELATED_PRODUCT_CATEGORY('\X2\7535673A652F67B6\X0\',
'\X2\7535673A652F67B6\X0\',(#901));
#898=APPLICATION_PROTOCOL_DEFINITION('international standard',
'automotive_design',2009,#899);
#899=APPLICATION_CONTEXT(
'Core Data for Automotive Mechanical Design Process');
#900=PRODUCT_CONTEXT('part definition',#899,'mechanical');
#901=PRODUCT('2026-05-27-16-46-23-525','\X2\7535673A652F67B6\X0\',$,(#900));
#902=PRESENTATION_STYLE_ASSIGNMENT((#903));
#903=SURFACE_STYLE_USAGE(.BOTH.,#904);
#904=SURFACE_SIDE_STYLE('',(#905));
#905=SURFACE_STYLE_FILL_AREA(#906);
#906=FILL_AREA_STYLE('\X2\94A2\X0\ - \X2\7F0E5149\X0\',(#907));
#907=FILL_AREA_STYLE_COLOUR('\X2\94A2\X0\ - \X2\7F0E5149\X0\',#908);
#908=COLOUR_RGB('\X2\94A2\X0\ - \X2\7F0E5149\X0\',0.627450980392157,0.627450980392157,
0.627450980392157);
ENDSEC;
END-ISO-10303-21;
