ISO-10303-21;
HEADER;
/* Generated by software containing ST-Developer
 * from STEP Tools, Inc. (www.steptools.com) 
 */

FILE_DESCRIPTION(
/* description */ (''),
/* implementation_level */ '2;1');

FILE_NAME(
/* name */ '',
/* time_stamp */ '2026-06-02T01:59:38+08:00',
/* author */ (''),
/* organization */ (''),
/* preprocessor_version */ 'ST-DEVELOPER v20.1',
/* originating_system */ 'Autodesk Translation Framework v15.8.0.0',
/* authorisation */ '');

FILE_SCHEMA (('AUTOMOTIVE_DESIGN { 1 0 10303 214 3 1 1 }'));
ENDSEC;

DATA;
#10=MECHANICAL_DESIGN_GEOMETRIC_PRESENTATION_REPRESENTATION('',(#13),#1043);
#11=SHAPE_REPRESENTATION_RELATIONSHIP('SRR','None',#1050,#12);
#12=ADVANCED_BREP_SHAPE_REPRESENTATION('',(#14),#1042);
#13=STYLED_ITEM('',(#1059),#14);
#14=MANIFOLD_SOLID_BREP('\X2\5B9E4F53\X0\1',#583);
#15=FACE_BOUND('',#100,.T.);
#16=FACE_BOUND('',#101,.T.);
#17=FACE_BOUND('',#102,.T.);
#18=FACE_BOUND('',#103,.T.);
#19=FACE_BOUND('',#104,.T.);
#20=FACE_BOUND('',#105,.T.);
#21=FACE_BOUND('',#106,.T.);
#22=FACE_BOUND('',#107,.T.);
#23=FACE_BOUND('',#120,.T.);
#24=FACE_BOUND('',#121,.T.);
#25=FACE_BOUND('',#122,.T.);
#26=FACE_BOUND('',#123,.T.);
#27=FACE_BOUND('',#124,.T.);
#28=FACE_BOUND('',#125,.T.);
#29=FACE_BOUND('',#126,.T.);
#30=FACE_BOUND('',#127,.T.);
#31=PLANE('',#645);
#32=PLANE('',#648);
#33=PLANE('',#651);
#34=PLANE('',#675);
#35=PLANE('',#677);
#36=PLANE('',#678);
#37=TOROIDAL_SURFACE('',#621,2.5,0.5);
#38=TOROIDAL_SURFACE('',#628,2.5,0.5);
#39=TOROIDAL_SURFACE('',#634,2.5,0.5);
#40=TOROIDAL_SURFACE('',#640,2.5,0.5);
#41=TOROIDAL_SURFACE('',#652,2.5,0.5);
#42=TOROIDAL_SURFACE('',#659,2.5,0.5);
#43=TOROIDAL_SURFACE('',#664,2.5,0.5);
#44=TOROIDAL_SURFACE('',#669,2.5,0.5);
#45=FACE_OUTER_BOUND('',#79,.T.);
#46=FACE_OUTER_BOUND('',#80,.T.);
#47=FACE_OUTER_BOUND('',#81,.T.);
#48=FACE_OUTER_BOUND('',#82,.T.);
#49=FACE_OUTER_BOUND('',#83,.T.);
#50=FACE_OUTER_BOUND('',#84,.T.);
#51=FACE_OUTER_BOUND('',#85,.T.);
#52=FACE_OUTER_BOUND('',#86,.T.);
#53=FACE_OUTER_BOUND('',#87,.T.);
#54=FACE_OUTER_BOUND('',#88,.T.);
#55=FACE_OUTER_BOUND('',#89,.T.);
#56=FACE_OUTER_BOUND('',#90,.T.);
#57=FACE_OUTER_BOUND('',#91,.T.);
#58=FACE_OUTER_BOUND('',#92,.T.);
#59=FACE_OUTER_BOUND('',#93,.T.);
#60=FACE_OUTER_BOUND('',#94,.T.);
#61=FACE_OUTER_BOUND('',#95,.T.);
#62=FACE_OUTER_BOUND('',#96,.T.);
#63=FACE_OUTER_BOUND('',#97,.T.);
#64=FACE_OUTER_BOUND('',#98,.T.);
#65=FACE_OUTER_BOUND('',#99,.T.);
#66=FACE_OUTER_BOUND('',#108,.T.);
#67=FACE_OUTER_BOUND('',#109,.T.);
#68=FACE_OUTER_BOUND('',#110,.T.);
#69=FACE_OUTER_BOUND('',#111,.T.);
#70=FACE_OUTER_BOUND('',#112,.T.);
#71=FACE_OUTER_BOUND('',#113,.T.);
#72=FACE_OUTER_BOUND('',#114,.T.);
#73=FACE_OUTER_BOUND('',#115,.T.);
#74=FACE_OUTER_BOUND('',#116,.T.);
#75=FACE_OUTER_BOUND('',#117,.T.);
#76=FACE_OUTER_BOUND('',#118,.T.);
#77=FACE_OUTER_BOUND('',#119,.T.);
#78=FACE_OUTER_BOUND('',#128,.T.);
#79=EDGE_LOOP('',(#369,#370,#371,#372));
#80=EDGE_LOOP('',(#373,#374,#375,#376));
#81=EDGE_LOOP('',(#377,#378,#379,#380));
#82=EDGE_LOOP('',(#381,#382,#383,#384));
#83=EDGE_LOOP('',(#385,#386,#387,#388));
#84=EDGE_LOOP('',(#389,#390,#391,#392));
#85=EDGE_LOOP('',(#393,#394,#395,#396));
#86=EDGE_LOOP('',(#397,#398,#399,#400));
#87=EDGE_LOOP('',(#401,#402,#403,#404));
#88=EDGE_LOOP('',(#405,#406,#407,#408));
#89=EDGE_LOOP('',(#409,#410,#411,#412));
#90=EDGE_LOOP('',(#413,#414,#415,#416));
#91=EDGE_LOOP('',(#417,#418,#419,#420));
#92=EDGE_LOOP('',(#421,#422,#423,#424));
#93=EDGE_LOOP('',(#425,#426,#427,#428));
#94=EDGE_LOOP('',(#429,#430,#431,#432));
#95=EDGE_LOOP('',(#433,#434,#435,#436));
#96=EDGE_LOOP('',(#437,#438,#439,#440));
#97=EDGE_LOOP('',(#441,#442,#443,#444));
#98=EDGE_LOOP('',(#445,#446,#447,#448));
#99=EDGE_LOOP('',(#449,#450,#451,#452,#453,#454,#455,#456));
#100=EDGE_LOOP('',(#457));
#101=EDGE_LOOP('',(#458));
#102=EDGE_LOOP('',(#459));
#103=EDGE_LOOP('',(#460));
#104=EDGE_LOOP('',(#461));
#105=EDGE_LOOP('',(#462));
#106=EDGE_LOOP('',(#463));
#107=EDGE_LOOP('',(#464));
#108=EDGE_LOOP('',(#465,#466,#467,#468));
#109=EDGE_LOOP('',(#469,#470,#471,#472));
#110=EDGE_LOOP('',(#473,#474,#475,#476));
#111=EDGE_LOOP('',(#477,#478,#479,#480));
#112=EDGE_LOOP('',(#481,#482,#483,#484));
#113=EDGE_LOOP('',(#485,#486,#487,#488));
#114=EDGE_LOOP('',(#489,#490,#491,#492));
#115=EDGE_LOOP('',(#493,#494,#495,#496));
#116=EDGE_LOOP('',(#497,#498,#499,#500));
#117=EDGE_LOOP('',(#501,#502,#503,#504));
#118=EDGE_LOOP('',(#505,#506,#507,#508));
#119=EDGE_LOOP('',(#509,#510,#511,#512,#513,#514,#515,#516));
#120=EDGE_LOOP('',(#517));
#121=EDGE_LOOP('',(#518));
#122=EDGE_LOOP('',(#519));
#123=EDGE_LOOP('',(#520));
#124=EDGE_LOOP('',(#521));
#125=EDGE_LOOP('',(#522));
#126=EDGE_LOOP('',(#523));
#127=EDGE_LOOP('',(#524));
#128=EDGE_LOOP('',(#525,#526,#527,#528));
#129=LINE('',#882,#161);
#130=LINE('',#888,#162);
#131=LINE('',#894,#163);
#132=LINE('',#900,#164);
#133=LINE('',#906,#165);
#134=LINE('',#912,#166);
#135=LINE('',#918,#167);
#136=LINE('',#924,#168);
#137=LINE('',#939,#169);
#138=LINE('',#940,#170);
#139=LINE('',#951,#171);
#140=LINE('',#952,#172);
#141=LINE('',#963,#173);
#142=LINE('',#964,#174);
#143=LINE('',#972,#175);
#144=LINE('',#973,#176);
#145=LINE('',#976,#177);
#146=LINE('',#978,#178);
#147=LINE('',#979,#179);
#148=LINE('',#982,#180);
#149=LINE('',#986,#181);
#150=LINE('',#987,#182);
#151=LINE('',#990,#183);
#152=LINE('',#1005,#184);
#153=LINE('',#1006,#185);
#154=LINE('',#1014,#186);
#155=LINE('',#1022,#187);
#156=LINE('',#1030,#188);
#157=LINE('',#1031,#189);
#158=LINE('',#1033,#190);
#159=LINE('',#1035,#191);
#160=LINE('',#1037,#192);
#161=VECTOR('',#685,1.6);
#162=VECTOR('',#692,1.6);
#163=VECTOR('',#699,1.45);
#164=VECTOR('',#706,1.6);
#165=VECTOR('',#713,1.45);
#166=VECTOR('',#720,1.6);
#167=VECTOR('',#727,1.45);
#168=VECTOR('',#734,1.45);
#169=VECTOR('',#751,10.);
#170=VECTOR('',#752,10.);
#171=VECTOR('',#765,10.);
#172=VECTOR('',#766,10.);
#173=VECTOR('',#779,10.);
#174=VECTOR('',#780,10.);
#175=VECTOR('',#791,10.);
#176=VECTOR('',#792,10.);
#177=VECTOR('',#795,10.);
#178=VECTOR('',#796,10.);
#179=VECTOR('',#797,10.);
#180=VECTOR('',#800,10.);
#181=VECTOR('',#805,10.);
#182=VECTOR('',#806,10.);
#183=VECTOR('',#809,10.);
#184=VECTOR('',#828,10.);
#185=VECTOR('',#829,10.);
#186=VECTOR('',#840,10.);
#187=VECTOR('',#851,10.);
#188=VECTOR('',#862,10.);
#189=VECTOR('',#863,10.);
#190=VECTOR('',#866,10.);
#191=VECTOR('',#869,10.);
#192=VECTOR('',#872,10.);
#193=CIRCLE('',#598,1.6);
#194=CIRCLE('',#599,1.6);
#195=CIRCLE('',#601,1.6);
#196=CIRCLE('',#602,1.6);
#197=CIRCLE('',#604,1.45);
#198=CIRCLE('',#605,1.45);
#199=CIRCLE('',#607,1.6);
#200=CIRCLE('',#608,1.6);
#201=CIRCLE('',#610,1.45);
#202=CIRCLE('',#611,1.45);
#203=CIRCLE('',#613,1.6);
#204=CIRCLE('',#614,1.6);
#205=CIRCLE('',#616,1.45);
#206=CIRCLE('',#617,1.45);
#207=CIRCLE('',#619,1.45);
#208=CIRCLE('',#620,1.45);
#209=CIRCLE('',#622,0.500000000000007);
#210=CIRCLE('',#623,2.5);
#211=CIRCLE('',#624,0.5);
#212=CIRCLE('',#625,3.);
#213=CIRCLE('',#627,0.5);
#214=CIRCLE('',#629,0.5);
#215=CIRCLE('',#630,3.);
#216=CIRCLE('',#631,2.5);
#217=CIRCLE('',#633,0.5);
#218=CIRCLE('',#635,0.5);
#219=CIRCLE('',#636,3.);
#220=CIRCLE('',#637,2.5);
#221=CIRCLE('',#639,0.5);
#222=CIRCLE('',#641,0.5);
#223=CIRCLE('',#642,3.);
#224=CIRCLE('',#643,2.5);
#225=CIRCLE('',#647,3.);
#226=CIRCLE('',#650,3.);
#227=CIRCLE('',#653,0.499999999999998);
#228=CIRCLE('',#654,2.5);
#229=CIRCLE('',#655,0.5);
#230=CIRCLE('',#656,3.);
#231=CIRCLE('',#658,0.5);
#232=CIRCLE('',#660,0.5);
#233=CIRCLE('',#661,2.5);
#234=CIRCLE('',#663,0.5);
#235=CIRCLE('',#665,0.5);
#236=CIRCLE('',#666,2.5);
#237=CIRCLE('',#668,0.5);
#238=CIRCLE('',#670,0.5);
#239=CIRCLE('',#671,3.);
#240=CIRCLE('',#672,2.5);
#241=VERTEX_POINT('',#879);
#242=VERTEX_POINT('',#881);
#243=VERTEX_POINT('',#885);
#244=VERTEX_POINT('',#887);
#245=VERTEX_POINT('',#891);
#246=VERTEX_POINT('',#893);
#247=VERTEX_POINT('',#897);
#248=VERTEX_POINT('',#899);
#249=VERTEX_POINT('',#903);
#250=VERTEX_POINT('',#905);
#251=VERTEX_POINT('',#909);
#252=VERTEX_POINT('',#911);
#253=VERTEX_POINT('',#915);
#254=VERTEX_POINT('',#917);
#255=VERTEX_POINT('',#921);
#256=VERTEX_POINT('',#923);
#257=VERTEX_POINT('',#927);
#258=VERTEX_POINT('',#928);
#259=VERTEX_POINT('',#930);
#260=VERTEX_POINT('',#932);
#261=VERTEX_POINT('',#936);
#262=VERTEX_POINT('',#937);
#263=VERTEX_POINT('',#942);
#264=VERTEX_POINT('',#943);
#265=VERTEX_POINT('',#948);
#266=VERTEX_POINT('',#949);
#267=VERTEX_POINT('',#954);
#268=VERTEX_POINT('',#955);
#269=VERTEX_POINT('',#960);
#270=VERTEX_POINT('',#961);
#271=VERTEX_POINT('',#966);
#272=VERTEX_POINT('',#967);
#273=VERTEX_POINT('',#975);
#274=VERTEX_POINT('',#977);
#275=VERTEX_POINT('',#981);
#276=VERTEX_POINT('',#985);
#277=VERTEX_POINT('',#989);
#278=VERTEX_POINT('',#994);
#279=VERTEX_POINT('',#995);
#280=VERTEX_POINT('',#997);
#281=VERTEX_POINT('',#999);
#282=VERTEX_POINT('',#1003);
#283=VERTEX_POINT('',#1008);
#284=VERTEX_POINT('',#1012);
#285=VERTEX_POINT('',#1016);
#286=VERTEX_POINT('',#1020);
#287=VERTEX_POINT('',#1024);
#288=VERTEX_POINT('',#1025);
#289=EDGE_CURVE('',#241,#241,#193,.T.);
#290=EDGE_CURVE('',#241,#242,#129,.T.);
#291=EDGE_CURVE('',#242,#242,#194,.T.);
#292=EDGE_CURVE('',#243,#243,#195,.T.);
#293=EDGE_CURVE('',#243,#244,#130,.T.);
#294=EDGE_CURVE('',#244,#244,#196,.T.);
#295=EDGE_CURVE('',#245,#245,#197,.T.);
#296=EDGE_CURVE('',#245,#246,#131,.T.);
#297=EDGE_CURVE('',#246,#246,#198,.T.);
#298=EDGE_CURVE('',#247,#247,#199,.T.);
#299=EDGE_CURVE('',#247,#248,#132,.T.);
#300=EDGE_CURVE('',#248,#248,#200,.T.);
#301=EDGE_CURVE('',#249,#249,#201,.T.);
#302=EDGE_CURVE('',#249,#250,#133,.T.);
#303=EDGE_CURVE('',#250,#250,#202,.T.);
#304=EDGE_CURVE('',#251,#251,#203,.T.);
#305=EDGE_CURVE('',#251,#252,#134,.T.);
#306=EDGE_CURVE('',#252,#252,#204,.T.);
#307=EDGE_CURVE('',#253,#253,#205,.T.);
#308=EDGE_CURVE('',#253,#254,#135,.T.);
#309=EDGE_CURVE('',#254,#254,#206,.T.);
#310=EDGE_CURVE('',#255,#255,#207,.T.);
#311=EDGE_CURVE('',#255,#256,#136,.T.);
#312=EDGE_CURVE('',#256,#256,#208,.T.);
#313=EDGE_CURVE('',#257,#258,#209,.T.);
#314=EDGE_CURVE('',#258,#259,#210,.T.);
#315=EDGE_CURVE('',#259,#260,#211,.T.);
#316=EDGE_CURVE('',#260,#257,#212,.T.);
#317=EDGE_CURVE('',#261,#262,#213,.T.);
#318=EDGE_CURVE('',#262,#260,#137,.T.);
#319=EDGE_CURVE('',#259,#261,#138,.T.);
#320=EDGE_CURVE('',#263,#264,#214,.T.);
#321=EDGE_CURVE('',#264,#262,#215,.T.);
#322=EDGE_CURVE('',#261,#263,#216,.T.);
#323=EDGE_CURVE('',#265,#266,#217,.T.);
#324=EDGE_CURVE('',#266,#264,#139,.T.);
#325=EDGE_CURVE('',#263,#265,#140,.T.);
#326=EDGE_CURVE('',#267,#268,#218,.T.);
#327=EDGE_CURVE('',#268,#266,#219,.T.);
#328=EDGE_CURVE('',#265,#267,#220,.T.);
#329=EDGE_CURVE('',#269,#270,#221,.T.);
#330=EDGE_CURVE('',#270,#268,#141,.T.);
#331=EDGE_CURVE('',#267,#269,#142,.T.);
#332=EDGE_CURVE('',#271,#272,#222,.T.);
#333=EDGE_CURVE('',#272,#270,#223,.T.);
#334=EDGE_CURVE('',#269,#271,#224,.T.);
#335=EDGE_CURVE('',#271,#258,#143,.T.);
#336=EDGE_CURVE('',#257,#272,#144,.T.);
#337=EDGE_CURVE('',#273,#270,#145,.T.);
#338=EDGE_CURVE('',#274,#273,#146,.T.);
#339=EDGE_CURVE('',#268,#274,#147,.T.);
#340=EDGE_CURVE('',#272,#275,#148,.T.);
#341=EDGE_CURVE('',#273,#275,#225,.T.);
#342=EDGE_CURVE('',#276,#257,#149,.T.);
#343=EDGE_CURVE('',#275,#276,#150,.T.);
#344=EDGE_CURVE('',#260,#277,#151,.T.);
#345=EDGE_CURVE('',#276,#277,#226,.T.);
#346=EDGE_CURVE('',#278,#279,#227,.T.);
#347=EDGE_CURVE('',#279,#280,#228,.T.);
#348=EDGE_CURVE('',#280,#281,#229,.T.);
#349=EDGE_CURVE('',#281,#278,#230,.T.);
#350=EDGE_CURVE('',#282,#277,#231,.T.);
#351=EDGE_CURVE('',#277,#281,#152,.T.);
#352=EDGE_CURVE('',#280,#282,#153,.T.);
#353=EDGE_CURVE('',#283,#276,#232,.T.);
#354=EDGE_CURVE('',#282,#283,#233,.T.);
#355=EDGE_CURVE('',#284,#275,#234,.T.);
#356=EDGE_CURVE('',#283,#284,#154,.T.);
#357=EDGE_CURVE('',#285,#273,#235,.T.);
#358=EDGE_CURVE('',#284,#285,#236,.T.);
#359=EDGE_CURVE('',#286,#274,#237,.T.);
#360=EDGE_CURVE('',#285,#286,#155,.T.);
#361=EDGE_CURVE('',#287,#288,#238,.T.);
#362=EDGE_CURVE('',#288,#274,#239,.T.);
#363=EDGE_CURVE('',#286,#287,#240,.T.);
#364=EDGE_CURVE('',#287,#279,#156,.T.);
#365=EDGE_CURVE('',#278,#288,#157,.T.);
#366=EDGE_CURVE('',#288,#266,#158,.T.);
#367=EDGE_CURVE('',#264,#278,#159,.T.);
#368=EDGE_CURVE('',#281,#262,#160,.T.);
#369=ORIENTED_EDGE('',*,*,#289,.F.);
#370=ORIENTED_EDGE('',*,*,#290,.T.);
#371=ORIENTED_EDGE('',*,*,#291,.F.);
#372=ORIENTED_EDGE('',*,*,#290,.F.);
#373=ORIENTED_EDGE('',*,*,#292,.F.);
#374=ORIENTED_EDGE('',*,*,#293,.T.);
#375=ORIENTED_EDGE('',*,*,#294,.F.);
#376=ORIENTED_EDGE('',*,*,#293,.F.);
#377=ORIENTED_EDGE('',*,*,#295,.F.);
#378=ORIENTED_EDGE('',*,*,#296,.T.);
#379=ORIENTED_EDGE('',*,*,#297,.F.);
#380=ORIENTED_EDGE('',*,*,#296,.F.);
#381=ORIENTED_EDGE('',*,*,#298,.F.);
#382=ORIENTED_EDGE('',*,*,#299,.T.);
#383=ORIENTED_EDGE('',*,*,#300,.F.);
#384=ORIENTED_EDGE('',*,*,#299,.F.);
#385=ORIENTED_EDGE('',*,*,#301,.F.);
#386=ORIENTED_EDGE('',*,*,#302,.T.);
#387=ORIENTED_EDGE('',*,*,#303,.F.);
#388=ORIENTED_EDGE('',*,*,#302,.F.);
#389=ORIENTED_EDGE('',*,*,#304,.F.);
#390=ORIENTED_EDGE('',*,*,#305,.T.);
#391=ORIENTED_EDGE('',*,*,#306,.F.);
#392=ORIENTED_EDGE('',*,*,#305,.F.);
#393=ORIENTED_EDGE('',*,*,#307,.F.);
#394=ORIENTED_EDGE('',*,*,#308,.T.);
#395=ORIENTED_EDGE('',*,*,#309,.F.);
#396=ORIENTED_EDGE('',*,*,#308,.F.);
#397=ORIENTED_EDGE('',*,*,#310,.F.);
#398=ORIENTED_EDGE('',*,*,#311,.T.);
#399=ORIENTED_EDGE('',*,*,#312,.F.);
#400=ORIENTED_EDGE('',*,*,#311,.F.);
#401=ORIENTED_EDGE('',*,*,#313,.T.);
#402=ORIENTED_EDGE('',*,*,#314,.T.);
#403=ORIENTED_EDGE('',*,*,#315,.T.);
#404=ORIENTED_EDGE('',*,*,#316,.T.);
#405=ORIENTED_EDGE('',*,*,#317,.T.);
#406=ORIENTED_EDGE('',*,*,#318,.T.);
#407=ORIENTED_EDGE('',*,*,#315,.F.);
#408=ORIENTED_EDGE('',*,*,#319,.T.);
#409=ORIENTED_EDGE('',*,*,#320,.T.);
#410=ORIENTED_EDGE('',*,*,#321,.T.);
#411=ORIENTED_EDGE('',*,*,#317,.F.);
#412=ORIENTED_EDGE('',*,*,#322,.T.);
#413=ORIENTED_EDGE('',*,*,#323,.T.);
#414=ORIENTED_EDGE('',*,*,#324,.T.);
#415=ORIENTED_EDGE('',*,*,#320,.F.);
#416=ORIENTED_EDGE('',*,*,#325,.T.);
#417=ORIENTED_EDGE('',*,*,#326,.T.);
#418=ORIENTED_EDGE('',*,*,#327,.T.);
#419=ORIENTED_EDGE('',*,*,#323,.F.);
#420=ORIENTED_EDGE('',*,*,#328,.T.);
#421=ORIENTED_EDGE('',*,*,#329,.T.);
#422=ORIENTED_EDGE('',*,*,#330,.T.);
#423=ORIENTED_EDGE('',*,*,#326,.F.);
#424=ORIENTED_EDGE('',*,*,#331,.T.);
#425=ORIENTED_EDGE('',*,*,#332,.T.);
#426=ORIENTED_EDGE('',*,*,#333,.T.);
#427=ORIENTED_EDGE('',*,*,#329,.F.);
#428=ORIENTED_EDGE('',*,*,#334,.T.);
#429=ORIENTED_EDGE('',*,*,#332,.F.);
#430=ORIENTED_EDGE('',*,*,#335,.T.);
#431=ORIENTED_EDGE('',*,*,#313,.F.);
#432=ORIENTED_EDGE('',*,*,#336,.T.);
#433=ORIENTED_EDGE('',*,*,#330,.F.);
#434=ORIENTED_EDGE('',*,*,#337,.F.);
#435=ORIENTED_EDGE('',*,*,#338,.F.);
#436=ORIENTED_EDGE('',*,*,#339,.F.);
#437=ORIENTED_EDGE('',*,*,#333,.F.);
#438=ORIENTED_EDGE('',*,*,#340,.T.);
#439=ORIENTED_EDGE('',*,*,#341,.F.);
#440=ORIENTED_EDGE('',*,*,#337,.T.);
#441=ORIENTED_EDGE('',*,*,#336,.F.);
#442=ORIENTED_EDGE('',*,*,#342,.F.);
#443=ORIENTED_EDGE('',*,*,#343,.F.);
#444=ORIENTED_EDGE('',*,*,#340,.F.);
#445=ORIENTED_EDGE('',*,*,#316,.F.);
#446=ORIENTED_EDGE('',*,*,#344,.T.);
#447=ORIENTED_EDGE('',*,*,#345,.F.);
#448=ORIENTED_EDGE('',*,*,#342,.T.);
#449=ORIENTED_EDGE('',*,*,#314,.F.);
#450=ORIENTED_EDGE('',*,*,#335,.F.);
#451=ORIENTED_EDGE('',*,*,#334,.F.);
#452=ORIENTED_EDGE('',*,*,#331,.F.);
#453=ORIENTED_EDGE('',*,*,#328,.F.);
#454=ORIENTED_EDGE('',*,*,#325,.F.);
#455=ORIENTED_EDGE('',*,*,#322,.F.);
#456=ORIENTED_EDGE('',*,*,#319,.F.);
#457=ORIENTED_EDGE('',*,*,#312,.T.);
#458=ORIENTED_EDGE('',*,*,#309,.T.);
#459=ORIENTED_EDGE('',*,*,#306,.T.);
#460=ORIENTED_EDGE('',*,*,#303,.T.);
#461=ORIENTED_EDGE('',*,*,#300,.T.);
#462=ORIENTED_EDGE('',*,*,#297,.T.);
#463=ORIENTED_EDGE('',*,*,#294,.T.);
#464=ORIENTED_EDGE('',*,*,#291,.T.);
#465=ORIENTED_EDGE('',*,*,#346,.T.);
#466=ORIENTED_EDGE('',*,*,#347,.T.);
#467=ORIENTED_EDGE('',*,*,#348,.T.);
#468=ORIENTED_EDGE('',*,*,#349,.T.);
#469=ORIENTED_EDGE('',*,*,#350,.T.);
#470=ORIENTED_EDGE('',*,*,#351,.T.);
#471=ORIENTED_EDGE('',*,*,#348,.F.);
#472=ORIENTED_EDGE('',*,*,#352,.T.);
#473=ORIENTED_EDGE('',*,*,#353,.T.);
#474=ORIENTED_EDGE('',*,*,#345,.T.);
#475=ORIENTED_EDGE('',*,*,#350,.F.);
#476=ORIENTED_EDGE('',*,*,#354,.T.);
#477=ORIENTED_EDGE('',*,*,#355,.T.);
#478=ORIENTED_EDGE('',*,*,#343,.T.);
#479=ORIENTED_EDGE('',*,*,#353,.F.);
#480=ORIENTED_EDGE('',*,*,#356,.T.);
#481=ORIENTED_EDGE('',*,*,#357,.T.);
#482=ORIENTED_EDGE('',*,*,#341,.T.);
#483=ORIENTED_EDGE('',*,*,#355,.F.);
#484=ORIENTED_EDGE('',*,*,#358,.T.);
#485=ORIENTED_EDGE('',*,*,#359,.T.);
#486=ORIENTED_EDGE('',*,*,#338,.T.);
#487=ORIENTED_EDGE('',*,*,#357,.F.);
#488=ORIENTED_EDGE('',*,*,#360,.T.);
#489=ORIENTED_EDGE('',*,*,#361,.T.);
#490=ORIENTED_EDGE('',*,*,#362,.T.);
#491=ORIENTED_EDGE('',*,*,#359,.F.);
#492=ORIENTED_EDGE('',*,*,#363,.T.);
#493=ORIENTED_EDGE('',*,*,#361,.F.);
#494=ORIENTED_EDGE('',*,*,#364,.T.);
#495=ORIENTED_EDGE('',*,*,#346,.F.);
#496=ORIENTED_EDGE('',*,*,#365,.T.);
#497=ORIENTED_EDGE('',*,*,#327,.F.);
#498=ORIENTED_EDGE('',*,*,#339,.T.);
#499=ORIENTED_EDGE('',*,*,#362,.F.);
#500=ORIENTED_EDGE('',*,*,#366,.T.);
#501=ORIENTED_EDGE('',*,*,#324,.F.);
#502=ORIENTED_EDGE('',*,*,#366,.F.);
#503=ORIENTED_EDGE('',*,*,#365,.F.);
#504=ORIENTED_EDGE('',*,*,#367,.F.);
#505=ORIENTED_EDGE('',*,*,#321,.F.);
#506=ORIENTED_EDGE('',*,*,#367,.T.);
#507=ORIENTED_EDGE('',*,*,#349,.F.);
#508=ORIENTED_EDGE('',*,*,#368,.T.);
#509=ORIENTED_EDGE('',*,*,#347,.F.);
#510=ORIENTED_EDGE('',*,*,#364,.F.);
#511=ORIENTED_EDGE('',*,*,#363,.F.);
#512=ORIENTED_EDGE('',*,*,#360,.F.);
#513=ORIENTED_EDGE('',*,*,#358,.F.);
#514=ORIENTED_EDGE('',*,*,#356,.F.);
#515=ORIENTED_EDGE('',*,*,#354,.F.);
#516=ORIENTED_EDGE('',*,*,#352,.F.);
#517=ORIENTED_EDGE('',*,*,#310,.T.);
#518=ORIENTED_EDGE('',*,*,#307,.T.);
#519=ORIENTED_EDGE('',*,*,#304,.T.);
#520=ORIENTED_EDGE('',*,*,#301,.T.);
#521=ORIENTED_EDGE('',*,*,#298,.T.);
#522=ORIENTED_EDGE('',*,*,#295,.T.);
#523=ORIENTED_EDGE('',*,*,#292,.T.);
#524=ORIENTED_EDGE('',*,*,#289,.T.);
#525=ORIENTED_EDGE('',*,*,#318,.F.);
#526=ORIENTED_EDGE('',*,*,#368,.F.);
#527=ORIENTED_EDGE('',*,*,#351,.F.);
#528=ORIENTED_EDGE('',*,*,#344,.F.);
#529=CYLINDRICAL_SURFACE('',#597,1.6);
#530=CYLINDRICAL_SURFACE('',#600,1.6);
#531=CYLINDRICAL_SURFACE('',#603,1.45);
#532=CYLINDRICAL_SURFACE('',#606,1.6);
#533=CYLINDRICAL_SURFACE('',#609,1.45);
#534=CYLINDRICAL_SURFACE('',#612,1.6);
#535=CYLINDRICAL_SURFACE('',#615,1.45);
#536=CYLINDRICAL_SURFACE('',#618,1.45);
#537=CYLINDRICAL_SURFACE('',#626,0.5);
#538=CYLINDRICAL_SURFACE('',#632,0.5);
#539=CYLINDRICAL_SURFACE('',#638,0.5);
#540=CYLINDRICAL_SURFACE('',#644,0.5);
#541=CYLINDRICAL_SURFACE('',#646,3.);
#542=CYLINDRICAL_SURFACE('',#649,3.);
#543=CYLINDRICAL_SURFACE('',#657,0.5);
#544=CYLINDRICAL_SURFACE('',#662,0.5);
#545=CYLINDRICAL_SURFACE('',#667,0.5);
#546=CYLINDRICAL_SURFACE('',#673,0.5);
#547=CYLINDRICAL_SURFACE('',#674,3.);
#548=CYLINDRICAL_SURFACE('',#676,3.);
#549=ADVANCED_FACE('',(#45),#529,.F.);
#550=ADVANCED_FACE('',(#46),#530,.F.);
#551=ADVANCED_FACE('',(#47),#531,.F.);
#552=ADVANCED_FACE('',(#48),#532,.F.);
#553=ADVANCED_FACE('',(#49),#533,.F.);
#554=ADVANCED_FACE('',(#50),#534,.F.);
#555=ADVANCED_FACE('',(#51),#535,.F.);
#556=ADVANCED_FACE('',(#52),#536,.F.);
#557=ADVANCED_FACE('',(#53),#37,.T.);
#558=ADVANCED_FACE('',(#54),#537,.T.);
#559=ADVANCED_FACE('',(#55),#38,.T.);
#560=ADVANCED_FACE('',(#56),#538,.T.);
#561=ADVANCED_FACE('',(#57),#39,.T.);
#562=ADVANCED_FACE('',(#58),#539,.T.);
#563=ADVANCED_FACE('',(#59),#40,.T.);
#564=ADVANCED_FACE('',(#60),#540,.T.);
#565=ADVANCED_FACE('',(#61),#31,.F.);
#566=ADVANCED_FACE('',(#62),#541,.T.);
#567=ADVANCED_FACE('',(#63),#32,.F.);
#568=ADVANCED_FACE('',(#64),#542,.T.);
#569=ADVANCED_FACE('',(#65,#15,#16,#17,#18,#19,#20,#21,#22),#33,.F.);
#570=ADVANCED_FACE('',(#66),#41,.T.);
#571=ADVANCED_FACE('',(#67),#543,.T.);
#572=ADVANCED_FACE('',(#68),#42,.T.);
#573=ADVANCED_FACE('',(#69),#544,.T.);
#574=ADVANCED_FACE('',(#70),#43,.T.);
#575=ADVANCED_FACE('',(#71),#545,.T.);
#576=ADVANCED_FACE('',(#72),#44,.T.);
#577=ADVANCED_FACE('',(#73),#546,.T.);
#578=ADVANCED_FACE('',(#74),#547,.T.);
#579=ADVANCED_FACE('',(#75),#34,.F.);
#580=ADVANCED_FACE('',(#76),#548,.T.);
#581=ADVANCED_FACE('',(#77,#23,#24,#25,#26,#27,#28,#29,#30),#35,.T.);
#582=ADVANCED_FACE('',(#78),#36,.F.);
#583=CLOSED_SHELL('',(#549,#550,#551,#552,#553,#554,#555,#556,#557,#558,
#559,#560,#561,#562,#563,#564,#565,#566,#567,#568,#569,#570,#571,#572,#573,
#574,#575,#576,#577,#578,#579,#580,#581,#582));
#584=DERIVED_UNIT_ELEMENT(#586,1.);
#585=DERIVED_UNIT_ELEMENT(#1045,-3.);
#586=(
MASS_UNIT()
NAMED_UNIT(*)
SI_UNIT(.KILO.,.GRAM.)
);
#587=DERIVED_UNIT((#584,#585));
#588=MEASURE_REPRESENTATION_ITEM('density measure',
POSITIVE_RATIO_MEASURE(7850.),#587);
#589=PROPERTY_DEFINITION_REPRESENTATION(#594,#591);
#590=PROPERTY_DEFINITION_REPRESENTATION(#595,#592);
#591=REPRESENTATION('material name',(#593),#1042);
#592=REPRESENTATION('density',(#588),#1042);
#593=DESCRIPTIVE_REPRESENTATION_ITEM('\X2\94A2\X0\','\X2\94A2\X0\');
#594=PROPERTY_DEFINITION('material property','material name',#1052);
#595=PROPERTY_DEFINITION('material property','density of part',#1052);
#596=AXIS2_PLACEMENT_3D('',#877,#679,#680);
#597=AXIS2_PLACEMENT_3D('',#878,#681,#682);
#598=AXIS2_PLACEMENT_3D('',#880,#683,#684);
#599=AXIS2_PLACEMENT_3D('',#883,#686,#687);
#600=AXIS2_PLACEMENT_3D('',#884,#688,#689);
#601=AXIS2_PLACEMENT_3D('',#886,#690,#691);
#602=AXIS2_PLACEMENT_3D('',#889,#693,#694);
#603=AXIS2_PLACEMENT_3D('',#890,#695,#696);
#604=AXIS2_PLACEMENT_3D('',#892,#697,#698);
#605=AXIS2_PLACEMENT_3D('',#895,#700,#701);
#606=AXIS2_PLACEMENT_3D('',#896,#702,#703);
#607=AXIS2_PLACEMENT_3D('',#898,#704,#705);
#608=AXIS2_PLACEMENT_3D('',#901,#707,#708);
#609=AXIS2_PLACEMENT_3D('',#902,#709,#710);
#610=AXIS2_PLACEMENT_3D('',#904,#711,#712);
#611=AXIS2_PLACEMENT_3D('',#907,#714,#715);
#612=AXIS2_PLACEMENT_3D('',#908,#716,#717);
#613=AXIS2_PLACEMENT_3D('',#910,#718,#719);
#614=AXIS2_PLACEMENT_3D('',#913,#721,#722);
#615=AXIS2_PLACEMENT_3D('',#914,#723,#724);
#616=AXIS2_PLACEMENT_3D('',#916,#725,#726);
#617=AXIS2_PLACEMENT_3D('',#919,#728,#729);
#618=AXIS2_PLACEMENT_3D('',#920,#730,#731);
#619=AXIS2_PLACEMENT_3D('',#922,#732,#733);
#620=AXIS2_PLACEMENT_3D('',#925,#735,#736);
#621=AXIS2_PLACEMENT_3D('',#926,#737,#738);
#622=AXIS2_PLACEMENT_3D('',#929,#739,#740);
#623=AXIS2_PLACEMENT_3D('',#931,#741,#742);
#624=AXIS2_PLACEMENT_3D('',#933,#743,#744);
#625=AXIS2_PLACEMENT_3D('',#934,#745,#746);
#626=AXIS2_PLACEMENT_3D('',#935,#747,#748);
#627=AXIS2_PLACEMENT_3D('',#938,#749,#750);
#628=AXIS2_PLACEMENT_3D('',#941,#753,#754);
#629=AXIS2_PLACEMENT_3D('',#944,#755,#756);
#630=AXIS2_PLACEMENT_3D('',#945,#757,#758);
#631=AXIS2_PLACEMENT_3D('',#946,#759,#760);
#632=AXIS2_PLACEMENT_3D('',#947,#761,#762);
#633=AXIS2_PLACEMENT_3D('',#950,#763,#764);
#634=AXIS2_PLACEMENT_3D('',#953,#767,#768);
#635=AXIS2_PLACEMENT_3D('',#956,#769,#770);
#636=AXIS2_PLACEMENT_3D('',#957,#771,#772);
#637=AXIS2_PLACEMENT_3D('',#958,#773,#774);
#638=AXIS2_PLACEMENT_3D('',#959,#775,#776);
#639=AXIS2_PLACEMENT_3D('',#962,#777,#778);
#640=AXIS2_PLACEMENT_3D('',#965,#781,#782);
#641=AXIS2_PLACEMENT_3D('',#968,#783,#784);
#642=AXIS2_PLACEMENT_3D('',#969,#785,#786);
#643=AXIS2_PLACEMENT_3D('',#970,#787,#788);
#644=AXIS2_PLACEMENT_3D('',#971,#789,#790);
#645=AXIS2_PLACEMENT_3D('',#974,#793,#794);
#646=AXIS2_PLACEMENT_3D('',#980,#798,#799);
#647=AXIS2_PLACEMENT_3D('',#983,#801,#802);
#648=AXIS2_PLACEMENT_3D('',#984,#803,#804);
#649=AXIS2_PLACEMENT_3D('',#988,#807,#808);
#650=AXIS2_PLACEMENT_3D('',#991,#810,#811);
#651=AXIS2_PLACEMENT_3D('',#992,#812,#813);
#652=AXIS2_PLACEMENT_3D('',#993,#814,#815);
#653=AXIS2_PLACEMENT_3D('',#996,#816,#817);
#654=AXIS2_PLACEMENT_3D('',#998,#818,#819);
#655=AXIS2_PLACEMENT_3D('',#1000,#820,#821);
#656=AXIS2_PLACEMENT_3D('',#1001,#822,#823);
#657=AXIS2_PLACEMENT_3D('',#1002,#824,#825);
#658=AXIS2_PLACEMENT_3D('',#1004,#826,#827);
#659=AXIS2_PLACEMENT_3D('',#1007,#830,#831);
#660=AXIS2_PLACEMENT_3D('',#1009,#832,#833);
#661=AXIS2_PLACEMENT_3D('',#1010,#834,#835);
#662=AXIS2_PLACEMENT_3D('',#1011,#836,#837);
#663=AXIS2_PLACEMENT_3D('',#1013,#838,#839);
#664=AXIS2_PLACEMENT_3D('',#1015,#841,#842);
#665=AXIS2_PLACEMENT_3D('',#1017,#843,#844);
#666=AXIS2_PLACEMENT_3D('',#1018,#845,#846);
#667=AXIS2_PLACEMENT_3D('',#1019,#847,#848);
#668=AXIS2_PLACEMENT_3D('',#1021,#849,#850);
#669=AXIS2_PLACEMENT_3D('',#1023,#852,#853);
#670=AXIS2_PLACEMENT_3D('',#1026,#854,#855);
#671=AXIS2_PLACEMENT_3D('',#1027,#856,#857);
#672=AXIS2_PLACEMENT_3D('',#1028,#858,#859);
#673=AXIS2_PLACEMENT_3D('',#1029,#860,#861);
#674=AXIS2_PLACEMENT_3D('',#1032,#864,#865);
#675=AXIS2_PLACEMENT_3D('',#1034,#867,#868);
#676=AXIS2_PLACEMENT_3D('',#1036,#870,#871);
#677=AXIS2_PLACEMENT_3D('',#1038,#873,#874);
#678=AXIS2_PLACEMENT_3D('',#1039,#875,#876);
#679=DIRECTION('axis',(0.,0.,1.));
#680=DIRECTION('refdir',(1.,0.,0.));
#681=DIRECTION('center_axis',(0.,-1.,0.));
#682=DIRECTION('ref_axis',(-1.,0.,0.));
#683=DIRECTION('center_axis',(0.,-1.,0.));
#684=DIRECTION('ref_axis',(-1.,0.,0.));
#685=DIRECTION('',(0.,-1.,0.));
#686=DIRECTION('center_axis',(0.,1.,0.));
#687=DIRECTION('ref_axis',(-1.,0.,0.));
#688=DIRECTION('center_axis',(0.,-1.,0.));
#689=DIRECTION('ref_axis',(-1.,0.,0.));
#690=DIRECTION('center_axis',(0.,-1.,0.));
#691=DIRECTION('ref_axis',(-1.,0.,0.));
#692=DIRECTION('',(0.,-1.,0.));
#693=DIRECTION('center_axis',(0.,1.,0.));
#694=DIRECTION('ref_axis',(-1.,0.,0.));
#695=DIRECTION('center_axis',(0.,-1.,0.));
#696=DIRECTION('ref_axis',(-1.,0.,0.));
#697=DIRECTION('center_axis',(0.,-1.,0.));
#698=DIRECTION('ref_axis',(-1.,0.,0.));
#699=DIRECTION('',(0.,-1.,0.));
#700=DIRECTION('center_axis',(0.,1.,0.));
#701=DIRECTION('ref_axis',(-1.,0.,0.));
#702=DIRECTION('center_axis',(0.,-1.,0.));
#703=DIRECTION('ref_axis',(-1.,0.,0.));
#704=DIRECTION('center_axis',(0.,-1.,0.));
#705=DIRECTION('ref_axis',(-1.,0.,0.));
#706=DIRECTION('',(0.,-1.,0.));
#707=DIRECTION('center_axis',(0.,1.,0.));
#708=DIRECTION('ref_axis',(-1.,0.,0.));
#709=DIRECTION('center_axis',(0.,-1.,0.));
#710=DIRECTION('ref_axis',(-1.,0.,0.));
#711=DIRECTION('center_axis',(0.,-1.,0.));
#712=DIRECTION('ref_axis',(-1.,0.,0.));
#713=DIRECTION('',(0.,-1.,0.));
#714=DIRECTION('center_axis',(0.,1.,0.));
#715=DIRECTION('ref_axis',(-1.,0.,0.));
#716=DIRECTION('center_axis',(0.,-1.,0.));
#717=DIRECTION('ref_axis',(-1.,0.,0.));
#718=DIRECTION('center_axis',(0.,-1.,0.));
#719=DIRECTION('ref_axis',(-1.,0.,0.));
#720=DIRECTION('',(0.,-1.,0.));
#721=DIRECTION('center_axis',(0.,1.,0.));
#722=DIRECTION('ref_axis',(-1.,0.,0.));
#723=DIRECTION('center_axis',(0.,-1.,0.));
#724=DIRECTION('ref_axis',(-1.,0.,0.));
#725=DIRECTION('center_axis',(0.,-1.,0.));
#726=DIRECTION('ref_axis',(-1.,0.,0.));
#727=DIRECTION('',(0.,-1.,0.));
#728=DIRECTION('center_axis',(0.,1.,0.));
#729=DIRECTION('ref_axis',(-1.,0.,0.));
#730=DIRECTION('center_axis',(0.,-1.,0.));
#731=DIRECTION('ref_axis',(-1.,0.,0.));
#732=DIRECTION('center_axis',(0.,-1.,0.));
#733=DIRECTION('ref_axis',(-1.,0.,0.));
#734=DIRECTION('',(0.,-1.,0.));
#735=DIRECTION('center_axis',(0.,1.,0.));
#736=DIRECTION('ref_axis',(-1.,0.,0.));
#737=DIRECTION('center_axis',(0.,1.,0.));
#738=DIRECTION('ref_axis',(0.,0.,1.));
#739=DIRECTION('center_axis',(0.,0.,-1.));
#740=DIRECTION('ref_axis',(1.,0.,0.));
#741=DIRECTION('center_axis',(0.,1.,0.));
#742=DIRECTION('ref_axis',(0.707106781186547,0.,-0.707106781186548));
#743=DIRECTION('center_axis',(1.,0.,0.));
#744=DIRECTION('ref_axis',(0.,-1.,0.));
#745=DIRECTION('center_axis',(0.,-1.,0.));
#746=DIRECTION('ref_axis',(0.707106781186547,0.,-0.707106781186548));
#747=DIRECTION('center_axis',(1.,0.,0.));
#748=DIRECTION('ref_axis',(0.,-0.707106781186547,-0.707106781186548));
#749=DIRECTION('center_axis',(1.,0.,0.));
#750=DIRECTION('ref_axis',(0.,-1.,0.));
#751=DIRECTION('',(1.,0.,0.));
#752=DIRECTION('',(-1.,0.,0.));
#753=DIRECTION('center_axis',(0.,1.,0.));
#754=DIRECTION('ref_axis',(0.,0.,1.));
#755=DIRECTION('center_axis',(0.,0.,-1.));
#756=DIRECTION('ref_axis',(0.,-1.,0.));
#757=DIRECTION('center_axis',(0.,-1.,0.));
#758=DIRECTION('ref_axis',(-0.707106781186548,0.,-0.707106781186547));
#759=DIRECTION('center_axis',(0.,1.,0.));
#760=DIRECTION('ref_axis',(-0.707106781186548,0.,-0.707106781186547));
#761=DIRECTION('center_axis',(0.,0.,-1.));
#762=DIRECTION('ref_axis',(-0.707106781186546,-0.707106781186549,0.));
#763=DIRECTION('center_axis',(0.,0.,-1.));
#764=DIRECTION('ref_axis',(0.,-1.,0.));
#765=DIRECTION('',(0.,0.,-1.));
#766=DIRECTION('',(0.,0.,1.));
#767=DIRECTION('center_axis',(0.,1.,0.));
#768=DIRECTION('ref_axis',(0.,0.,1.));
#769=DIRECTION('center_axis',(-1.,0.,0.));
#770=DIRECTION('ref_axis',(0.,-1.,0.));
#771=DIRECTION('center_axis',(0.,-1.,0.));
#772=DIRECTION('ref_axis',(-0.707106781186547,0.,0.707106781186548));
#773=DIRECTION('center_axis',(0.,1.,0.));
#774=DIRECTION('ref_axis',(-0.707106781186547,0.,0.707106781186548));
#775=DIRECTION('center_axis',(-1.,0.,0.));
#776=DIRECTION('ref_axis',(0.,-0.707106781186542,0.707106781186553));
#777=DIRECTION('center_axis',(-1.,0.,0.));
#778=DIRECTION('ref_axis',(0.,-1.,0.));
#779=DIRECTION('',(-1.,0.,0.));
#780=DIRECTION('',(1.,0.,0.));
#781=DIRECTION('center_axis',(0.,1.,0.));
#782=DIRECTION('ref_axis',(0.,0.,1.));
#783=DIRECTION('center_axis',(0.,0.,1.));
#784=DIRECTION('ref_axis',(0.,-1.,0.));
#785=DIRECTION('center_axis',(0.,-1.,0.));
#786=DIRECTION('ref_axis',(0.707106781186546,0.,0.707106781186549));
#787=DIRECTION('center_axis',(0.,1.,0.));
#788=DIRECTION('ref_axis',(0.707106781186546,0.,0.707106781186549));
#789=DIRECTION('center_axis',(0.,0.,1.));
#790=DIRECTION('ref_axis',(0.707106781186553,-0.707106781186542,0.));
#791=DIRECTION('',(0.,0.,-1.));
#792=DIRECTION('',(0.,0.,1.));
#793=DIRECTION('center_axis',(0.,0.,-1.));
#794=DIRECTION('ref_axis',(0.,1.,0.));
#795=DIRECTION('',(0.,-1.,0.));
#796=DIRECTION('',(1.,0.,0.));
#797=DIRECTION('',(0.,1.,0.));
#798=DIRECTION('center_axis',(0.,-1.,0.));
#799=DIRECTION('ref_axis',(0.707106781186548,0.,0.707106781186548));
#800=DIRECTION('',(0.,1.,0.));
#801=DIRECTION('center_axis',(0.,1.,0.));
#802=DIRECTION('ref_axis',(0.707106781186546,0.,0.707106781186549));
#803=DIRECTION('center_axis',(-1.,0.,0.));
#804=DIRECTION('ref_axis',(0.,-1.,0.));
#805=DIRECTION('',(0.,-1.,0.));
#806=DIRECTION('',(0.,0.,-1.));
#807=DIRECTION('center_axis',(0.,-1.,0.));
#808=DIRECTION('ref_axis',(0.707106781186548,0.,-0.707106781186547));
#809=DIRECTION('',(0.,1.,0.));
#810=DIRECTION('center_axis',(0.,1.,0.));
#811=DIRECTION('ref_axis',(0.707106781186547,0.,-0.707106781186548));
#812=DIRECTION('center_axis',(0.,1.,0.));
#813=DIRECTION('ref_axis',(0.,0.,1.));
#814=DIRECTION('center_axis',(0.,-1.,0.));
#815=DIRECTION('ref_axis',(0.,0.,-1.));
#816=DIRECTION('center_axis',(0.,0.,-1.));
#817=DIRECTION('ref_axis',(-1.,0.,0.));
#818=DIRECTION('center_axis',(0.,-1.,0.));
#819=DIRECTION('ref_axis',(-0.707106781186548,0.,-0.707106781186547));
#820=DIRECTION('center_axis',(-1.,0.,0.));
#821=DIRECTION('ref_axis',(0.,1.,0.));
#822=DIRECTION('center_axis',(0.,1.,0.));
#823=DIRECTION('ref_axis',(-0.707106781186548,0.,-0.707106781186547));
#824=DIRECTION('center_axis',(-1.,0.,0.));
#825=DIRECTION('ref_axis',(0.,0.707106781186547,-0.707106781186548));
#826=DIRECTION('center_axis',(-1.,0.,0.));
#827=DIRECTION('ref_axis',(0.,1.,0.));
#828=DIRECTION('',(-1.,0.,0.));
#829=DIRECTION('',(1.,0.,0.));
#830=DIRECTION('center_axis',(0.,-1.,0.));
#831=DIRECTION('ref_axis',(0.,0.,-1.));
#832=DIRECTION('center_axis',(0.,0.,-1.));
#833=DIRECTION('ref_axis',(0.,1.,0.));
#834=DIRECTION('center_axis',(0.,-1.,0.));
#835=DIRECTION('ref_axis',(0.707106781186547,0.,-0.707106781186548));
#836=DIRECTION('center_axis',(0.,0.,-1.));
#837=DIRECTION('ref_axis',(0.707106781186553,0.707106781186542,0.));
#838=DIRECTION('center_axis',(0.,0.,-1.));
#839=DIRECTION('ref_axis',(0.,1.,0.));
#840=DIRECTION('',(0.,0.,1.));
#841=DIRECTION('center_axis',(0.,-1.,0.));
#842=DIRECTION('ref_axis',(0.,0.,-1.));
#843=DIRECTION('center_axis',(1.,0.,0.));
#844=DIRECTION('ref_axis',(0.,1.,0.));
#845=DIRECTION('center_axis',(0.,-1.,0.));
#846=DIRECTION('ref_axis',(0.707106781186546,0.,0.707106781186549));
#847=DIRECTION('center_axis',(1.,0.,0.));
#848=DIRECTION('ref_axis',(0.,0.707106781186542,0.707106781186553));
#849=DIRECTION('center_axis',(1.,0.,0.));
#850=DIRECTION('ref_axis',(0.,1.,0.));
#851=DIRECTION('',(-1.,0.,0.));
#852=DIRECTION('center_axis',(0.,-1.,0.));
#853=DIRECTION('ref_axis',(0.,0.,-1.));
#854=DIRECTION('center_axis',(0.,0.,1.));
#855=DIRECTION('ref_axis',(0.,1.,0.));
#856=DIRECTION('center_axis',(0.,1.,0.));
#857=DIRECTION('ref_axis',(-0.707106781186547,0.,0.707106781186548));
#858=DIRECTION('center_axis',(0.,-1.,0.));
#859=DIRECTION('ref_axis',(-0.707106781186547,0.,0.707106781186548));
#860=DIRECTION('center_axis',(0.,0.,1.));
#861=DIRECTION('ref_axis',(-0.707106781186547,0.707106781186548,0.));
#862=DIRECTION('',(0.,0.,-1.));
#863=DIRECTION('',(0.,0.,1.));
#864=DIRECTION('center_axis',(0.,-1.,0.));
#865=DIRECTION('ref_axis',(-0.707106781186546,0.,0.707106781186549));
#866=DIRECTION('',(0.,-1.,0.));
#867=DIRECTION('center_axis',(1.,0.,0.));
#868=DIRECTION('ref_axis',(0.,1.,0.));
#869=DIRECTION('',(0.,1.,0.));
#870=DIRECTION('center_axis',(0.,-1.,0.));
#871=DIRECTION('ref_axis',(-0.707106781186547,0.,-0.707106781186548));
#872=DIRECTION('',(0.,-1.,0.));
#873=DIRECTION('center_axis',(0.,1.,0.));
#874=DIRECTION('ref_axis',(0.,0.,1.));
#875=DIRECTION('center_axis',(0.,0.,1.));
#876=DIRECTION('ref_axis',(0.,-1.,0.));
#877=CARTESIAN_POINT('',(0.,0.,0.));
#878=CARTESIAN_POINT('Origin',(3.4,4.,15.8));
#879=CARTESIAN_POINT('',(5.,4.,15.8));
#880=CARTESIAN_POINT('Origin',(3.4,4.,15.8));
#881=CARTESIAN_POINT('',(5.,0.,15.8));
#882=CARTESIAN_POINT('',(5.,4.,15.8));
#883=CARTESIAN_POINT('Origin',(3.4,0.,15.8));
#884=CARTESIAN_POINT('Origin',(95.4,4.,73.8));
#885=CARTESIAN_POINT('',(97.,4.,73.8));
#886=CARTESIAN_POINT('Origin',(95.4,4.,73.8));
#887=CARTESIAN_POINT('',(97.,0.,73.8));
#888=CARTESIAN_POINT('',(97.,4.,73.8));
#889=CARTESIAN_POINT('Origin',(95.4,0.,73.8));
#890=CARTESIAN_POINT('Origin',(67.4,4.,62.9));
#891=CARTESIAN_POINT('',(68.85,4.,62.9));
#892=CARTESIAN_POINT('Origin',(67.4,4.,62.9));
#893=CARTESIAN_POINT('',(68.85,0.,62.9));
#894=CARTESIAN_POINT('',(68.85,4.,62.9));
#895=CARTESIAN_POINT('Origin',(67.4,0.,62.9));
#896=CARTESIAN_POINT('Origin',(3.4,4.,73.8));
#897=CARTESIAN_POINT('',(5.,4.,73.8));
#898=CARTESIAN_POINT('Origin',(3.4,4.,73.8));
#899=CARTESIAN_POINT('',(5.,0.,73.8));
#900=CARTESIAN_POINT('',(5.,4.,73.8));
#901=CARTESIAN_POINT('Origin',(3.4,0.,73.8));
#902=CARTESIAN_POINT('Origin',(31.4,4.,62.9));
#903=CARTESIAN_POINT('',(32.85,4.,62.9));
#904=CARTESIAN_POINT('Origin',(31.4,4.,62.9));
#905=CARTESIAN_POINT('',(32.85,0.,62.9));
#906=CARTESIAN_POINT('',(32.85,4.,62.9));
#907=CARTESIAN_POINT('Origin',(31.4,0.,62.9));
#908=CARTESIAN_POINT('Origin',(95.4,4.,15.8));
#909=CARTESIAN_POINT('',(97.,4.,15.8));
#910=CARTESIAN_POINT('Origin',(95.4,4.,15.8));
#911=CARTESIAN_POINT('',(97.,0.,15.8));
#912=CARTESIAN_POINT('',(97.,4.,15.8));
#913=CARTESIAN_POINT('Origin',(95.4,0.,15.8));
#914=CARTESIAN_POINT('Origin',(67.4,4.,14.9));
#915=CARTESIAN_POINT('',(68.85,4.,14.9));
#916=CARTESIAN_POINT('Origin',(67.4,4.,14.9));
#917=CARTESIAN_POINT('',(68.85,0.,14.9));
#918=CARTESIAN_POINT('',(68.85,4.,14.9));
#919=CARTESIAN_POINT('Origin',(67.4,0.,14.9));
#920=CARTESIAN_POINT('Origin',(31.4,4.,14.9));
#921=CARTESIAN_POINT('',(32.85,4.,14.9));
#922=CARTESIAN_POINT('Origin',(31.4,4.,14.9));
#923=CARTESIAN_POINT('',(32.85,0.,14.9));
#924=CARTESIAN_POINT('',(32.85,4.,14.9));
#925=CARTESIAN_POINT('Origin',(31.4,0.,14.9));
#926=CARTESIAN_POINT('Origin',(95.8,0.5,3.));
#927=CARTESIAN_POINT('',(98.8,0.5,3.));
#928=CARTESIAN_POINT('',(98.3,0.,3.));
#929=CARTESIAN_POINT('Origin',(98.3,0.5,3.));
#930=CARTESIAN_POINT('',(95.8,0.,0.500000000000003));
#931=CARTESIAN_POINT('Origin',(95.8,0.,3.));
#932=CARTESIAN_POINT('',(95.8,0.5,0.));
#933=CARTESIAN_POINT('Origin',(95.8,0.5,0.500000000000003));
#934=CARTESIAN_POINT('Origin',(95.8,0.5,3.));
#935=CARTESIAN_POINT('Origin',(49.4,0.5,0.5));
#936=CARTESIAN_POINT('',(3.,0.,0.5));
#937=CARTESIAN_POINT('',(3.,0.5,0.));
#938=CARTESIAN_POINT('Origin',(3.,0.5,0.5));
#939=CARTESIAN_POINT('',(49.4,0.5,0.));
#940=CARTESIAN_POINT('',(49.4,0.,0.5));
#941=CARTESIAN_POINT('Origin',(3.,0.5,3.));
#942=CARTESIAN_POINT('',(0.499999999999998,0.,3.));
#943=CARTESIAN_POINT('',(0.,0.5,3.));
#944=CARTESIAN_POINT('Origin',(0.499999999999998,0.5,3.));
#945=CARTESIAN_POINT('Origin',(3.,0.5,3.));
#946=CARTESIAN_POINT('Origin',(3.,0.,3.));
#947=CARTESIAN_POINT('Origin',(0.499999999999998,0.5,38.9));
#948=CARTESIAN_POINT('',(0.499999999999998,0.,74.8));
#949=CARTESIAN_POINT('',(0.,0.5,74.8));
#950=CARTESIAN_POINT('Origin',(0.499999999999998,0.5,74.8));
#951=CARTESIAN_POINT('',(0.,0.5,38.9));
#952=CARTESIAN_POINT('',(0.499999999999998,0.,38.9));
#953=CARTESIAN_POINT('Origin',(3.,0.5,74.8));
#954=CARTESIAN_POINT('',(3.,0.,77.3));
#955=CARTESIAN_POINT('',(3.,0.5,77.8));
#956=CARTESIAN_POINT('Origin',(3.,0.5,77.3));
#957=CARTESIAN_POINT('Origin',(3.,0.5,74.8));
#958=CARTESIAN_POINT('Origin',(3.,0.,74.8));
#959=CARTESIAN_POINT('Origin',(49.4,0.5,77.3));
#960=CARTESIAN_POINT('',(95.8,0.,77.3));
#961=CARTESIAN_POINT('',(95.8,0.5,77.8));
#962=CARTESIAN_POINT('Origin',(95.8,0.5,77.3));
#963=CARTESIAN_POINT('',(49.4,0.5,77.8));
#964=CARTESIAN_POINT('',(49.4,0.,77.3));
#965=CARTESIAN_POINT('Origin',(95.8,0.5,74.8));
#966=CARTESIAN_POINT('',(98.3,0.,74.8));
#967=CARTESIAN_POINT('',(98.8,0.5,74.8));
#968=CARTESIAN_POINT('Origin',(98.3,0.5,74.8));
#969=CARTESIAN_POINT('Origin',(95.8,0.5,74.8));
#970=CARTESIAN_POINT('Origin',(95.8,0.,74.8));
#971=CARTESIAN_POINT('Origin',(98.3,0.5,38.9));
#972=CARTESIAN_POINT('',(98.3,0.,38.9));
#973=CARTESIAN_POINT('',(98.8,0.5,38.9));
#974=CARTESIAN_POINT('Origin',(49.4,2.,77.8));
#975=CARTESIAN_POINT('',(95.8,3.5,77.8));
#976=CARTESIAN_POINT('',(95.8,2.,77.8));
#977=CARTESIAN_POINT('',(3.,3.5,77.8));
#978=CARTESIAN_POINT('',(49.4,3.5,77.8));
#979=CARTESIAN_POINT('',(3.,2.,77.8));
#980=CARTESIAN_POINT('Origin',(95.8,2.,74.8));
#981=CARTESIAN_POINT('',(98.8,3.5,74.8));
#982=CARTESIAN_POINT('',(98.8,2.,74.8));
#983=CARTESIAN_POINT('Origin',(95.8,3.5,74.8));
#984=CARTESIAN_POINT('Origin',(98.8,2.,38.9));
#985=CARTESIAN_POINT('',(98.8,3.5,3.));
#986=CARTESIAN_POINT('',(98.8,2.,3.));
#987=CARTESIAN_POINT('',(98.8,3.5,38.9));
#988=CARTESIAN_POINT('Origin',(95.8,2.,3.));
#989=CARTESIAN_POINT('',(95.8,3.5,0.));
#990=CARTESIAN_POINT('',(95.8,2.,0.));
#991=CARTESIAN_POINT('Origin',(95.8,3.5,3.));
#992=CARTESIAN_POINT('Origin',(49.4,0.,38.9));
#993=CARTESIAN_POINT('Origin',(3.,3.5,3.));
#994=CARTESIAN_POINT('',(0.,3.5,3.));
#995=CARTESIAN_POINT('',(0.499999999999998,4.,3.));
#996=CARTESIAN_POINT('Origin',(0.499999999999998,3.5,3.));
#997=CARTESIAN_POINT('',(3.,4.,0.500000000000001));
#998=CARTESIAN_POINT('Origin',(3.,4.,3.));
#999=CARTESIAN_POINT('',(3.,3.5,0.));
#1000=CARTESIAN_POINT('Origin',(3.,3.5,0.500000000000001));
#1001=CARTESIAN_POINT('Origin',(3.,3.5,3.));
#1002=CARTESIAN_POINT('Origin',(49.4,3.5,0.5));
#1003=CARTESIAN_POINT('',(95.8,4.,0.5));
#1004=CARTESIAN_POINT('Origin',(95.8,3.5,0.5));
#1005=CARTESIAN_POINT('',(49.4,3.5,0.));
#1006=CARTESIAN_POINT('',(49.4,4.,0.5));
#1007=CARTESIAN_POINT('Origin',(95.8,3.5,3.));
#1008=CARTESIAN_POINT('',(98.3,4.,3.));
#1009=CARTESIAN_POINT('Origin',(98.3,3.5,3.));
#1010=CARTESIAN_POINT('Origin',(95.8,4.,3.));
#1011=CARTESIAN_POINT('Origin',(98.3,3.5,38.9));
#1012=CARTESIAN_POINT('',(98.3,4.,74.8));
#1013=CARTESIAN_POINT('Origin',(98.3,3.5,74.8));
#1014=CARTESIAN_POINT('',(98.3,4.,38.9));
#1015=CARTESIAN_POINT('Origin',(95.8,3.5,74.8));
#1016=CARTESIAN_POINT('',(95.8,4.,77.3));
#1017=CARTESIAN_POINT('Origin',(95.8,3.5,77.3));
#1018=CARTESIAN_POINT('Origin',(95.8,4.,74.8));
#1019=CARTESIAN_POINT('Origin',(49.4,3.5,77.3));
#1020=CARTESIAN_POINT('',(3.,4.,77.3));
#1021=CARTESIAN_POINT('Origin',(3.,3.5,77.3));
#1022=CARTESIAN_POINT('',(49.4,4.,77.3));
#1023=CARTESIAN_POINT('Origin',(3.,3.5,74.8));
#1024=CARTESIAN_POINT('',(0.499999999999998,4.,74.8));
#1025=CARTESIAN_POINT('',(0.,3.5,74.8));
#1026=CARTESIAN_POINT('Origin',(0.499999999999998,3.5,74.8));
#1027=CARTESIAN_POINT('Origin',(3.,3.5,74.8));
#1028=CARTESIAN_POINT('Origin',(3.,4.,74.8));
#1029=CARTESIAN_POINT('Origin',(0.499999999999998,3.5,38.9));
#1030=CARTESIAN_POINT('',(0.499999999999998,4.,38.9));
#1031=CARTESIAN_POINT('',(0.,3.5,38.9));
#1032=CARTESIAN_POINT('Origin',(3.,2.,74.8));
#1033=CARTESIAN_POINT('',(0.,2.,74.8));
#1034=CARTESIAN_POINT('Origin',(0.,2.,38.9));
#1035=CARTESIAN_POINT('',(0.,2.,3.));
#1036=CARTESIAN_POINT('Origin',(3.,2.,3.));
#1037=CARTESIAN_POINT('',(3.,2.,0.));
#1038=CARTESIAN_POINT('Origin',(49.4,4.,38.9));
#1039=CARTESIAN_POINT('Origin',(49.4,2.,0.));
#1040=UNCERTAINTY_MEASURE_WITH_UNIT(LENGTH_MEASURE(0.01),#1044,
'DISTANCE_ACCURACY_VALUE',
'Maximum model space distance between geometric entities at asserted c
onnectivities');
#1041=UNCERTAINTY_MEASURE_WITH_UNIT(LENGTH_MEASURE(0.01),#1044,
'DISTANCE_ACCURACY_VALUE',
'Maximum model space distance between geometric entities at asserted c
onnectivities');
#1042=(
GEOMETRIC_REPRESENTATION_CONTEXT(3)
GLOBAL_UNCERTAINTY_ASSIGNED_CONTEXT((#1040))
GLOBAL_UNIT_ASSIGNED_CONTEXT((#1044,#1046,#1047))
REPRESENTATION_CONTEXT('','3D')
);
#1043=(
GEOMETRIC_REPRESENTATION_CONTEXT(3)
GLOBAL_UNCERTAINTY_ASSIGNED_CONTEXT((#1041))
GLOBAL_UNIT_ASSIGNED_CONTEXT((#1044,#1046,#1047))
REPRESENTATION_CONTEXT('','3D')
);
#1044=(
LENGTH_UNIT()
NAMED_UNIT(*)
SI_UNIT(.MILLI.,.METRE.)
);
#1045=(
LENGTH_UNIT()
NAMED_UNIT(*)
SI_UNIT($,.METRE.)
);
#1046=(
NAMED_UNIT(*)
PLANE_ANGLE_UNIT()
SI_UNIT($,.RADIAN.)
);
#1047=(
NAMED_UNIT(*)
SI_UNIT($,.STERADIAN.)
SOLID_ANGLE_UNIT()
);
#1048=SHAPE_DEFINITION_REPRESENTATION(#1049,#1050);
#1049=PRODUCT_DEFINITION_SHAPE('',$,#1052);
#1050=SHAPE_REPRESENTATION('',(#596),#1042);
#1051=PRODUCT_DEFINITION_CONTEXT('part definition',#1056,'design');
#1052=PRODUCT_DEFINITION('2026-06-01-13-28-28-103','mid360\X2\5E7353F0\X0\',
#1053,#1051);
#1053=PRODUCT_DEFINITION_FORMATION('',$,#1058);
#1054=PRODUCT_RELATED_PRODUCT_CATEGORY('mid360\X2\5E7353F0\X0\',
'mid360\X2\5E7353F0\X0\',(#1058));
#1055=APPLICATION_PROTOCOL_DEFINITION('international standard',
'automotive_design',2009,#1056);
#1056=APPLICATION_CONTEXT(
'Core Data for Automotive Mechanical Design Process');
#1057=PRODUCT_CONTEXT('part definition',#1056,'mechanical');
#1058=PRODUCT('2026-06-01-13-28-28-103','mid360\X2\5E7353F0\X0\',$,(#1057));
#1059=PRESENTATION_STYLE_ASSIGNMENT((#1060));
#1060=SURFACE_STYLE_USAGE(.BOTH.,#1061);
#1061=SURFACE_SIDE_STYLE('',(#1062));
#1062=SURFACE_STYLE_FILL_AREA(#1063);
#1063=FILL_AREA_STYLE('\X2\94A2\X0\ - \X2\7F0E5149\X0\',(#1064));
#1064=FILL_AREA_STYLE_COLOUR('\X2\94A2\X0\ - \X2\7F0E5149\X0\',#1065);
#1065=COLOUR_RGB('\X2\94A2\X0\ - \X2\7F0E5149\X0\',0.627450980392157,0.627450980392157,
0.627450980392157);
ENDSEC;
END-ISO-10303-21;
