ISO-10303-21;
HEADER;
/* Generated by software containing ST-Developer
 * from STEP Tools, Inc. (www.steptools.com) 
 */

FILE_DESCRIPTION(
/* description */ (''),
/* implementation_level */ '2;1');

FILE_NAME(
/* name */ '',
/* time_stamp */ '2026-08-18T13:06:07+08:00',
/* author */ (''),
/* organization */ (''),
/* preprocessor_version */ 'ST-DEVELOPER v20.1',
/* originating_system */ 'Autodesk Translation Framework v15.8.0.0',
/* authorisation */ '');

FILE_SCHEMA (('AUTOMOTIVE_DESIGN { 1 0 10303 214 3 1 1 }'));
ENDSEC;

DATA;
#10=MECHANICAL_DESIGN_GEOMETRIC_PRESENTATION_REPRESENTATION('',(#13),#745);
#11=SHAPE_REPRESENTATION_RELATIONSHIP('SRR','None',#752,#12);
#12=ADVANCED_BREP_SHAPE_REPRESENTATION('',(#14),#744);
#13=STYLED_ITEM('',(#761),#14);
#14=MANIFOLD_SOLID_BREP('\X2\5B9E4F53\X0\6',#434);
#15=CONICAL_SURFACE('',#488,3.575,0.785398163397447);
#16=FACE_BOUND('',#64,.T.);
#17=FACE_BOUND('',#65,.T.);
#18=FACE_BOUND('',#67,.T.);
#19=FACE_BOUND('',#68,.T.);
#20=FACE_BOUND('',#69,.T.);
#21=FACE_BOUND('',#72,.T.);
#22=FACE_BOUND('',#73,.T.);
#23=FACE_BOUND('',#75,.T.);
#24=FACE_BOUND('',#76,.T.);
#25=FACE_BOUND('',#78,.T.);
#26=PLANE('',#454);
#27=PLANE('',#461);
#28=PLANE('',#462);
#29=PLANE('',#466);
#30=PLANE('',#467);
#31=PLANE('',#472);
#32=PLANE('',#477);
#33=PLANE('',#481);
#34=PLANE('',#483);
#35=PLANE('',#486);
#36=FACE_OUTER_BOUND('',#58,.T.);
#37=FACE_OUTER_BOUND('',#59,.T.);
#38=FACE_OUTER_BOUND('',#60,.T.);
#39=FACE_OUTER_BOUND('',#61,.T.);
#40=FACE_OUTER_BOUND('',#62,.T.);
#41=FACE_OUTER_BOUND('',#63,.T.);
#42=FACE_OUTER_BOUND('',#66,.T.);
#43=FACE_OUTER_BOUND('',#70,.T.);
#44=FACE_OUTER_BOUND('',#71,.T.);
#45=FACE_OUTER_BOUND('',#74,.T.);
#46=FACE_OUTER_BOUND('',#77,.T.);
#47=FACE_OUTER_BOUND('',#79,.T.);
#48=FACE_OUTER_BOUND('',#80,.T.);
#49=FACE_OUTER_BOUND('',#81,.T.);
#50=FACE_OUTER_BOUND('',#82,.T.);
#51=FACE_OUTER_BOUND('',#83,.T.);
#52=FACE_OUTER_BOUND('',#84,.T.);
#53=FACE_OUTER_BOUND('',#85,.T.);
#54=FACE_OUTER_BOUND('',#86,.T.);
#55=FACE_OUTER_BOUND('',#87,.T.);
#56=FACE_OUTER_BOUND('',#88,.T.);
#57=FACE_OUTER_BOUND('',#89,.T.);
#58=EDGE_LOOP('',(#283,#284,#285,#286));
#59=EDGE_LOOP('',(#287,#288,#289,#290));
#60=EDGE_LOOP('',(#291,#292,#293,#294));
#61=EDGE_LOOP('',(#295,#296,#297,#298));
#62=EDGE_LOOP('',(#299,#300,#301,#302));
#63=EDGE_LOOP('',(#303,#304,#305,#306,#307,#308));
#64=EDGE_LOOP('',(#309));
#65=EDGE_LOOP('',(#310));
#66=EDGE_LOOP('',(#311,#312,#313,#314,#315,#316,#317,#318));
#67=EDGE_LOOP('',(#319));
#68=EDGE_LOOP('',(#320));
#69=EDGE_LOOP('',(#321));
#70=EDGE_LOOP('',(#322,#323,#324,#325,#326,#327,#328,#329));
#71=EDGE_LOOP('',(#330,#331,#332,#333,#334,#335));
#72=EDGE_LOOP('',(#336));
#73=EDGE_LOOP('',(#337));
#74=EDGE_LOOP('',(#338,#339,#340,#341,#342,#343));
#75=EDGE_LOOP('',(#344));
#76=EDGE_LOOP('',(#345));
#77=EDGE_LOOP('',(#346,#347,#348,#349,#350,#351));
#78=EDGE_LOOP('',(#352));
#79=EDGE_LOOP('',(#353,#354,#355,#356,#357,#358,#359,#360));
#80=EDGE_LOOP('',(#361,#362,#363,#364));
#81=EDGE_LOOP('',(#365,#366,#367,#368));
#82=EDGE_LOOP('',(#369,#370,#371,#372));
#83=EDGE_LOOP('',(#373,#374,#375,#376));
#84=EDGE_LOOP('',(#377,#378,#379,#380));
#85=EDGE_LOOP('',(#381,#382,#383,#384));
#86=EDGE_LOOP('',(#385,#386,#387,#388));
#87=EDGE_LOOP('',(#389,#390,#391,#392));
#88=EDGE_LOOP('',(#393,#394,#395,#396));
#89=EDGE_LOOP('',(#397,#398,#399,#400));
#90=LINE('',#626,#126);
#91=LINE('',#632,#127);
#92=LINE('',#637,#128);
#93=LINE('',#639,#129);
#94=LINE('',#641,#130);
#95=LINE('',#642,#131);
#96=LINE('',#648,#132);
#97=LINE('',#653,#133);
#98=LINE('',#657,#134);
#99=LINE('',#659,#135);
#100=LINE('',#660,#136);
#101=LINE('',#663,#137);
#102=LINE('',#667,#138);
#103=LINE('',#670,#139);
#104=LINE('',#675,#140);
#105=LINE('',#677,#141);
#106=LINE('',#679,#142);
#107=LINE('',#681,#143);
#108=LINE('',#682,#144);
#109=LINE('',#685,#145);
#110=LINE('',#689,#146);
#111=LINE('',#699,#147);
#112=LINE('',#703,#148);
#113=LINE('',#704,#149);
#114=LINE('',#711,#150);
#115=LINE('',#715,#151);
#116=LINE('',#720,#152);
#117=LINE('',#721,#153);
#118=LINE('',#723,#154);
#119=LINE('',#725,#155);
#120=LINE('',#728,#156);
#121=LINE('',#730,#157);
#122=LINE('',#734,#158);
#123=LINE('',#737,#159);
#124=LINE('',#739,#160);
#125=LINE('',#741,#161);
#126=VECTOR('',#499,2.);
#127=VECTOR('',#506,2.);
#128=VECTOR('',#511,10.);
#129=VECTOR('',#512,10.);
#130=VECTOR('',#513,10.);
#131=VECTOR('',#514,10.);
#132=VECTOR('',#521,10.);
#133=VECTOR('',#526,10.);
#134=VECTOR('',#531,10.);
#135=VECTOR('',#532,10.);
#136=VECTOR('',#533,10.);
#137=VECTOR('',#536,10.);
#138=VECTOR('',#539,10.);
#139=VECTOR('',#542,10.);
#140=VECTOR('',#547,10.);
#141=VECTOR('',#548,10.);
#142=VECTOR('',#549,10.);
#143=VECTOR('',#550,10.);
#144=VECTOR('',#551,10.);
#145=VECTOR('',#554,10.);
#146=VECTOR('',#557,10.);
#147=VECTOR('',#568,10.);
#148=VECTOR('',#571,10.);
#149=VECTOR('',#572,10.);
#150=VECTOR('',#579,10.);
#151=VECTOR('',#582,10.);
#152=VECTOR('',#589,10.);
#153=VECTOR('',#590,10.);
#154=VECTOR('',#593,10.);
#155=VECTOR('',#596,10.);
#156=VECTOR('',#601,10.);
#157=VECTOR('',#604,10.);
#158=VECTOR('',#609,3.575);
#159=VECTOR('',#614,3.325);
#160=VECTOR('',#617,1.4);
#161=VECTOR('',#620,1.4);
#162=CIRCLE('',#449,2.);
#163=CIRCLE('',#450,2.);
#164=CIRCLE('',#452,2.);
#165=CIRCLE('',#453,2.);
#166=CIRCLE('',#456,4.);
#167=CIRCLE('',#457,4.);
#168=CIRCLE('',#459,3.99999999999999);
#169=CIRCLE('',#460,3.99999999999999);
#170=CIRCLE('',#463,4.);
#171=CIRCLE('',#464,4.);
#172=CIRCLE('',#465,3.325);
#173=CIRCLE('',#468,4.);
#174=CIRCLE('',#469,4.);
#175=CIRCLE('',#470,1.4);
#176=CIRCLE('',#471,1.4);
#177=CIRCLE('',#473,4.);
#178=CIRCLE('',#474,4.);
#179=CIRCLE('',#475,1.4);
#180=CIRCLE('',#476,1.4);
#181=CIRCLE('',#478,4.);
#182=CIRCLE('',#479,4.);
#183=CIRCLE('',#480,3.825);
#184=CIRCLE('',#489,3.325);
#185=VERTEX_POINT('',#623);
#186=VERTEX_POINT('',#625);
#187=VERTEX_POINT('',#629);
#188=VERTEX_POINT('',#631);
#189=VERTEX_POINT('',#635);
#190=VERTEX_POINT('',#636);
#191=VERTEX_POINT('',#638);
#192=VERTEX_POINT('',#640);
#193=VERTEX_POINT('',#644);
#194=VERTEX_POINT('',#646);
#195=VERTEX_POINT('',#650);
#196=VERTEX_POINT('',#652);
#197=VERTEX_POINT('',#656);
#198=VERTEX_POINT('',#658);
#199=VERTEX_POINT('',#662);
#200=VERTEX_POINT('',#664);
#201=VERTEX_POINT('',#666);
#202=VERTEX_POINT('',#668);
#203=VERTEX_POINT('',#671);
#204=VERTEX_POINT('',#674);
#205=VERTEX_POINT('',#676);
#206=VERTEX_POINT('',#678);
#207=VERTEX_POINT('',#680);
#208=VERTEX_POINT('',#684);
#209=VERTEX_POINT('',#686);
#210=VERTEX_POINT('',#688);
#211=VERTEX_POINT('',#691);
#212=VERTEX_POINT('',#693);
#213=VERTEX_POINT('',#696);
#214=VERTEX_POINT('',#698);
#215=VERTEX_POINT('',#700);
#216=VERTEX_POINT('',#702);
#217=VERTEX_POINT('',#705);
#218=VERTEX_POINT('',#707);
#219=VERTEX_POINT('',#710);
#220=VERTEX_POINT('',#712);
#221=VERTEX_POINT('',#714);
#222=VERTEX_POINT('',#717);
#223=VERTEX_POINT('',#733);
#224=EDGE_CURVE('',#185,#185,#162,.T.);
#225=EDGE_CURVE('',#185,#186,#90,.T.);
#226=EDGE_CURVE('',#186,#186,#163,.T.);
#227=EDGE_CURVE('',#187,#187,#164,.T.);
#228=EDGE_CURVE('',#187,#188,#91,.T.);
#229=EDGE_CURVE('',#188,#188,#165,.T.);
#230=EDGE_CURVE('',#189,#190,#92,.T.);
#231=EDGE_CURVE('',#190,#191,#93,.T.);
#232=EDGE_CURVE('',#192,#191,#94,.T.);
#233=EDGE_CURVE('',#189,#192,#95,.T.);
#234=EDGE_CURVE('',#189,#193,#166,.T.);
#235=EDGE_CURVE('',#194,#192,#167,.T.);
#236=EDGE_CURVE('',#193,#194,#96,.T.);
#237=EDGE_CURVE('',#195,#190,#168,.T.);
#238=EDGE_CURVE('',#195,#196,#97,.T.);
#239=EDGE_CURVE('',#191,#196,#169,.T.);
#240=EDGE_CURVE('',#196,#197,#98,.T.);
#241=EDGE_CURVE('',#198,#197,#99,.T.);
#242=EDGE_CURVE('',#198,#194,#100,.T.);
#243=EDGE_CURVE('',#193,#199,#101,.T.);
#244=EDGE_CURVE('',#200,#199,#170,.T.);
#245=EDGE_CURVE('',#201,#200,#102,.T.);
#246=EDGE_CURVE('',#202,#201,#171,.T.);
#247=EDGE_CURVE('',#195,#202,#103,.T.);
#248=EDGE_CURVE('',#203,#203,#172,.T.);
#249=EDGE_CURVE('',#204,#198,#104,.T.);
#250=EDGE_CURVE('',#205,#204,#105,.T.);
#251=EDGE_CURVE('',#206,#205,#106,.T.);
#252=EDGE_CURVE('',#206,#207,#107,.T.);
#253=EDGE_CURVE('',#199,#207,#108,.T.);
#254=EDGE_CURVE('',#197,#208,#109,.T.);
#255=EDGE_CURVE('',#209,#208,#173,.T.);
#256=EDGE_CURVE('',#209,#210,#110,.T.);
#257=EDGE_CURVE('',#204,#210,#174,.T.);
#258=EDGE_CURVE('',#211,#211,#175,.T.);
#259=EDGE_CURVE('',#212,#212,#176,.T.);
#260=EDGE_CURVE('',#213,#205,#177,.T.);
#261=EDGE_CURVE('',#213,#214,#111,.T.);
#262=EDGE_CURVE('',#215,#214,#178,.T.);
#263=EDGE_CURVE('',#215,#216,#112,.T.);
#264=EDGE_CURVE('',#216,#206,#113,.T.);
#265=EDGE_CURVE('',#217,#217,#179,.T.);
#266=EDGE_CURVE('',#218,#218,#180,.T.);
#267=EDGE_CURVE('',#216,#219,#114,.T.);
#268=EDGE_CURVE('',#220,#219,#181,.T.);
#269=EDGE_CURVE('',#221,#220,#115,.T.);
#270=EDGE_CURVE('',#207,#221,#182,.T.);
#271=EDGE_CURVE('',#222,#222,#183,.T.);
#272=EDGE_CURVE('',#219,#202,#116,.T.);
#273=EDGE_CURVE('',#208,#215,#117,.T.);
#274=EDGE_CURVE('',#201,#220,#118,.T.);
#275=EDGE_CURVE('',#221,#200,#119,.T.);
#276=EDGE_CURVE('',#214,#209,#120,.T.);
#277=EDGE_CURVE('',#210,#213,#121,.T.);
#278=EDGE_CURVE('',#222,#223,#122,.T.);
#279=EDGE_CURVE('',#223,#223,#184,.T.);
#280=EDGE_CURVE('',#223,#203,#123,.T.);
#281=EDGE_CURVE('',#218,#212,#124,.T.);
#282=EDGE_CURVE('',#217,#211,#125,.T.);
#283=ORIENTED_EDGE('',*,*,#224,.F.);
#284=ORIENTED_EDGE('',*,*,#225,.T.);
#285=ORIENTED_EDGE('',*,*,#226,.F.);
#286=ORIENTED_EDGE('',*,*,#225,.F.);
#287=ORIENTED_EDGE('',*,*,#227,.F.);
#288=ORIENTED_EDGE('',*,*,#228,.T.);
#289=ORIENTED_EDGE('',*,*,#229,.F.);
#290=ORIENTED_EDGE('',*,*,#228,.F.);
#291=ORIENTED_EDGE('',*,*,#230,.T.);
#292=ORIENTED_EDGE('',*,*,#231,.T.);
#293=ORIENTED_EDGE('',*,*,#232,.F.);
#294=ORIENTED_EDGE('',*,*,#233,.F.);
#295=ORIENTED_EDGE('',*,*,#234,.F.);
#296=ORIENTED_EDGE('',*,*,#233,.T.);
#297=ORIENTED_EDGE('',*,*,#235,.F.);
#298=ORIENTED_EDGE('',*,*,#236,.F.);
#299=ORIENTED_EDGE('',*,*,#237,.F.);
#300=ORIENTED_EDGE('',*,*,#238,.T.);
#301=ORIENTED_EDGE('',*,*,#239,.F.);
#302=ORIENTED_EDGE('',*,*,#231,.F.);
#303=ORIENTED_EDGE('',*,*,#239,.T.);
#304=ORIENTED_EDGE('',*,*,#240,.T.);
#305=ORIENTED_EDGE('',*,*,#241,.F.);
#306=ORIENTED_EDGE('',*,*,#242,.T.);
#307=ORIENTED_EDGE('',*,*,#235,.T.);
#308=ORIENTED_EDGE('',*,*,#232,.T.);
#309=ORIENTED_EDGE('',*,*,#227,.T.);
#310=ORIENTED_EDGE('',*,*,#224,.T.);
#311=ORIENTED_EDGE('',*,*,#243,.T.);
#312=ORIENTED_EDGE('',*,*,#244,.F.);
#313=ORIENTED_EDGE('',*,*,#245,.F.);
#314=ORIENTED_EDGE('',*,*,#246,.F.);
#315=ORIENTED_EDGE('',*,*,#247,.F.);
#316=ORIENTED_EDGE('',*,*,#237,.T.);
#317=ORIENTED_EDGE('',*,*,#230,.F.);
#318=ORIENTED_EDGE('',*,*,#234,.T.);
#319=ORIENTED_EDGE('',*,*,#226,.T.);
#320=ORIENTED_EDGE('',*,*,#229,.T.);
#321=ORIENTED_EDGE('',*,*,#248,.T.);
#322=ORIENTED_EDGE('',*,*,#249,.F.);
#323=ORIENTED_EDGE('',*,*,#250,.F.);
#324=ORIENTED_EDGE('',*,*,#251,.F.);
#325=ORIENTED_EDGE('',*,*,#252,.T.);
#326=ORIENTED_EDGE('',*,*,#253,.F.);
#327=ORIENTED_EDGE('',*,*,#243,.F.);
#328=ORIENTED_EDGE('',*,*,#236,.T.);
#329=ORIENTED_EDGE('',*,*,#242,.F.);
#330=ORIENTED_EDGE('',*,*,#241,.T.);
#331=ORIENTED_EDGE('',*,*,#254,.T.);
#332=ORIENTED_EDGE('',*,*,#255,.F.);
#333=ORIENTED_EDGE('',*,*,#256,.T.);
#334=ORIENTED_EDGE('',*,*,#257,.F.);
#335=ORIENTED_EDGE('',*,*,#249,.T.);
#336=ORIENTED_EDGE('',*,*,#258,.F.);
#337=ORIENTED_EDGE('',*,*,#259,.F.);
#338=ORIENTED_EDGE('',*,*,#251,.T.);
#339=ORIENTED_EDGE('',*,*,#260,.F.);
#340=ORIENTED_EDGE('',*,*,#261,.T.);
#341=ORIENTED_EDGE('',*,*,#262,.F.);
#342=ORIENTED_EDGE('',*,*,#263,.T.);
#343=ORIENTED_EDGE('',*,*,#264,.T.);
#344=ORIENTED_EDGE('',*,*,#265,.T.);
#345=ORIENTED_EDGE('',*,*,#266,.T.);
#346=ORIENTED_EDGE('',*,*,#264,.F.);
#347=ORIENTED_EDGE('',*,*,#267,.T.);
#348=ORIENTED_EDGE('',*,*,#268,.F.);
#349=ORIENTED_EDGE('',*,*,#269,.F.);
#350=ORIENTED_EDGE('',*,*,#270,.F.);
#351=ORIENTED_EDGE('',*,*,#252,.F.);
#352=ORIENTED_EDGE('',*,*,#271,.T.);
#353=ORIENTED_EDGE('',*,*,#247,.T.);
#354=ORIENTED_EDGE('',*,*,#272,.F.);
#355=ORIENTED_EDGE('',*,*,#267,.F.);
#356=ORIENTED_EDGE('',*,*,#263,.F.);
#357=ORIENTED_EDGE('',*,*,#273,.F.);
#358=ORIENTED_EDGE('',*,*,#254,.F.);
#359=ORIENTED_EDGE('',*,*,#240,.F.);
#360=ORIENTED_EDGE('',*,*,#238,.F.);
#361=ORIENTED_EDGE('',*,*,#246,.T.);
#362=ORIENTED_EDGE('',*,*,#274,.T.);
#363=ORIENTED_EDGE('',*,*,#268,.T.);
#364=ORIENTED_EDGE('',*,*,#272,.T.);
#365=ORIENTED_EDGE('',*,*,#274,.F.);
#366=ORIENTED_EDGE('',*,*,#245,.T.);
#367=ORIENTED_EDGE('',*,*,#275,.F.);
#368=ORIENTED_EDGE('',*,*,#269,.T.);
#369=ORIENTED_EDGE('',*,*,#270,.T.);
#370=ORIENTED_EDGE('',*,*,#275,.T.);
#371=ORIENTED_EDGE('',*,*,#244,.T.);
#372=ORIENTED_EDGE('',*,*,#253,.T.);
#373=ORIENTED_EDGE('',*,*,#262,.T.);
#374=ORIENTED_EDGE('',*,*,#276,.T.);
#375=ORIENTED_EDGE('',*,*,#255,.T.);
#376=ORIENTED_EDGE('',*,*,#273,.T.);
#377=ORIENTED_EDGE('',*,*,#276,.F.);
#378=ORIENTED_EDGE('',*,*,#261,.F.);
#379=ORIENTED_EDGE('',*,*,#277,.F.);
#380=ORIENTED_EDGE('',*,*,#256,.F.);
#381=ORIENTED_EDGE('',*,*,#260,.T.);
#382=ORIENTED_EDGE('',*,*,#250,.T.);
#383=ORIENTED_EDGE('',*,*,#257,.T.);
#384=ORIENTED_EDGE('',*,*,#277,.T.);
#385=ORIENTED_EDGE('',*,*,#271,.F.);
#386=ORIENTED_EDGE('',*,*,#278,.T.);
#387=ORIENTED_EDGE('',*,*,#279,.F.);
#388=ORIENTED_EDGE('',*,*,#278,.F.);
#389=ORIENTED_EDGE('',*,*,#279,.T.);
#390=ORIENTED_EDGE('',*,*,#280,.T.);
#391=ORIENTED_EDGE('',*,*,#248,.F.);
#392=ORIENTED_EDGE('',*,*,#280,.F.);
#393=ORIENTED_EDGE('',*,*,#266,.F.);
#394=ORIENTED_EDGE('',*,*,#281,.T.);
#395=ORIENTED_EDGE('',*,*,#259,.T.);
#396=ORIENTED_EDGE('',*,*,#281,.F.);
#397=ORIENTED_EDGE('',*,*,#265,.F.);
#398=ORIENTED_EDGE('',*,*,#282,.T.);
#399=ORIENTED_EDGE('',*,*,#258,.T.);
#400=ORIENTED_EDGE('',*,*,#282,.F.);
#401=CYLINDRICAL_SURFACE('',#448,2.);
#402=CYLINDRICAL_SURFACE('',#451,2.);
#403=CYLINDRICAL_SURFACE('',#455,4.);
#404=CYLINDRICAL_SURFACE('',#458,3.99999999999999);
#405=CYLINDRICAL_SURFACE('',#482,4.);
#406=CYLINDRICAL_SURFACE('',#484,4.);
#407=CYLINDRICAL_SURFACE('',#485,4.);
#408=CYLINDRICAL_SURFACE('',#487,4.);
#409=CYLINDRICAL_SURFACE('',#490,3.325);
#410=CYLINDRICAL_SURFACE('',#491,1.4);
#411=CYLINDRICAL_SURFACE('',#492,1.4);
#412=ADVANCED_FACE('',(#36),#401,.F.);
#413=ADVANCED_FACE('',(#37),#402,.F.);
#414=ADVANCED_FACE('',(#38),#26,.T.);
#415=ADVANCED_FACE('',(#39),#403,.T.);
#416=ADVANCED_FACE('',(#40),#404,.T.);
#417=ADVANCED_FACE('',(#41,#16,#17),#27,.F.);
#418=ADVANCED_FACE('',(#42,#18,#19,#20),#28,.T.);
#419=ADVANCED_FACE('',(#43),#29,.T.);
#420=ADVANCED_FACE('',(#44,#21,#22),#30,.F.);
#421=ADVANCED_FACE('',(#45,#23,#24),#31,.T.);
#422=ADVANCED_FACE('',(#46,#25),#32,.T.);
#423=ADVANCED_FACE('',(#47),#33,.T.);
#424=ADVANCED_FACE('',(#48),#405,.T.);
#425=ADVANCED_FACE('',(#49),#34,.T.);
#426=ADVANCED_FACE('',(#50),#406,.T.);
#427=ADVANCED_FACE('',(#51),#407,.T.);
#428=ADVANCED_FACE('',(#52),#35,.T.);
#429=ADVANCED_FACE('',(#53),#408,.T.);
#430=ADVANCED_FACE('',(#54),#15,.F.);
#431=ADVANCED_FACE('',(#55),#409,.F.);
#432=ADVANCED_FACE('',(#56),#410,.F.);
#433=ADVANCED_FACE('',(#57),#411,.F.);
#434=CLOSED_SHELL('',(#412,#413,#414,#415,#416,#417,#418,#419,#420,#421,
#422,#423,#424,#425,#426,#427,#428,#429,#430,#431,#432,#433));
#435=DERIVED_UNIT_ELEMENT(#437,1.);
#436=DERIVED_UNIT_ELEMENT(#747,-3.);
#437=(
MASS_UNIT()
NAMED_UNIT(*)
SI_UNIT(.KILO.,.GRAM.)
);
#438=DERIVED_UNIT((#435,#436));
#439=MEASURE_REPRESENTATION_ITEM('density measure',
POSITIVE_RATIO_MEASURE(7850.),#438);
#440=PROPERTY_DEFINITION_REPRESENTATION(#445,#442);
#441=PROPERTY_DEFINITION_REPRESENTATION(#446,#443);
#442=REPRESENTATION('material name',(#444),#744);
#443=REPRESENTATION('density',(#439),#744);
#444=DESCRIPTIVE_REPRESENTATION_ITEM('\X2\94A2\X0\','\X2\94A2\X0\');
#445=PROPERTY_DEFINITION('material property','material name',#754);
#446=PROPERTY_DEFINITION('material property','density of part',#754);
#447=AXIS2_PLACEMENT_3D('',#621,#493,#494);
#448=AXIS2_PLACEMENT_3D('',#622,#495,#496);
#449=AXIS2_PLACEMENT_3D('',#624,#497,#498);
#450=AXIS2_PLACEMENT_3D('',#627,#500,#501);
#451=AXIS2_PLACEMENT_3D('',#628,#502,#503);
#452=AXIS2_PLACEMENT_3D('',#630,#504,#505);
#453=AXIS2_PLACEMENT_3D('',#633,#507,#508);
#454=AXIS2_PLACEMENT_3D('',#634,#509,#510);
#455=AXIS2_PLACEMENT_3D('',#643,#515,#516);
#456=AXIS2_PLACEMENT_3D('',#645,#517,#518);
#457=AXIS2_PLACEMENT_3D('',#647,#519,#520);
#458=AXIS2_PLACEMENT_3D('',#649,#522,#523);
#459=AXIS2_PLACEMENT_3D('',#651,#524,#525);
#460=AXIS2_PLACEMENT_3D('',#654,#527,#528);
#461=AXIS2_PLACEMENT_3D('',#655,#529,#530);
#462=AXIS2_PLACEMENT_3D('',#661,#534,#535);
#463=AXIS2_PLACEMENT_3D('',#665,#537,#538);
#464=AXIS2_PLACEMENT_3D('',#669,#540,#541);
#465=AXIS2_PLACEMENT_3D('',#672,#543,#544);
#466=AXIS2_PLACEMENT_3D('',#673,#545,#546);
#467=AXIS2_PLACEMENT_3D('',#683,#552,#553);
#468=AXIS2_PLACEMENT_3D('',#687,#555,#556);
#469=AXIS2_PLACEMENT_3D('',#690,#558,#559);
#470=AXIS2_PLACEMENT_3D('',#692,#560,#561);
#471=AXIS2_PLACEMENT_3D('',#694,#562,#563);
#472=AXIS2_PLACEMENT_3D('',#695,#564,#565);
#473=AXIS2_PLACEMENT_3D('',#697,#566,#567);
#474=AXIS2_PLACEMENT_3D('',#701,#569,#570);
#475=AXIS2_PLACEMENT_3D('',#706,#573,#574);
#476=AXIS2_PLACEMENT_3D('',#708,#575,#576);
#477=AXIS2_PLACEMENT_3D('',#709,#577,#578);
#478=AXIS2_PLACEMENT_3D('',#713,#580,#581);
#479=AXIS2_PLACEMENT_3D('',#716,#583,#584);
#480=AXIS2_PLACEMENT_3D('',#718,#585,#586);
#481=AXIS2_PLACEMENT_3D('',#719,#587,#588);
#482=AXIS2_PLACEMENT_3D('',#722,#591,#592);
#483=AXIS2_PLACEMENT_3D('',#724,#594,#595);
#484=AXIS2_PLACEMENT_3D('',#726,#597,#598);
#485=AXIS2_PLACEMENT_3D('',#727,#599,#600);
#486=AXIS2_PLACEMENT_3D('',#729,#602,#603);
#487=AXIS2_PLACEMENT_3D('',#731,#605,#606);
#488=AXIS2_PLACEMENT_3D('',#732,#607,#608);
#489=AXIS2_PLACEMENT_3D('',#735,#610,#611);
#490=AXIS2_PLACEMENT_3D('',#736,#612,#613);
#491=AXIS2_PLACEMENT_3D('',#738,#615,#616);
#492=AXIS2_PLACEMENT_3D('',#740,#618,#619);
#493=DIRECTION('axis',(0.,0.,1.));
#494=DIRECTION('refdir',(1.,0.,0.));
#495=DIRECTION('center_axis',(0.,0.,1.));
#496=DIRECTION('ref_axis',(-1.,0.,0.));
#497=DIRECTION('center_axis',(0.,0.,-1.));
#498=DIRECTION('ref_axis',(-1.,0.,0.));
#499=DIRECTION('',(0.,0.,-1.));
#500=DIRECTION('center_axis',(0.,0.,1.));
#501=DIRECTION('ref_axis',(-1.,0.,0.));
#502=DIRECTION('center_axis',(0.,0.,1.));
#503=DIRECTION('ref_axis',(-1.,0.,0.));
#504=DIRECTION('center_axis',(0.,0.,-1.));
#505=DIRECTION('ref_axis',(-1.,0.,0.));
#506=DIRECTION('',(0.,0.,-1.));
#507=DIRECTION('center_axis',(0.,0.,1.));
#508=DIRECTION('ref_axis',(-1.,0.,0.));
#509=DIRECTION('center_axis',(7.79103876929934E-17,-1.,0.));
#510=DIRECTION('ref_axis',(1.,7.79103876929934E-17,0.));
#511=DIRECTION('',(1.,7.79103876929934E-17,0.));
#512=DIRECTION('',(0.,0.,1.));
#513=DIRECTION('',(1.,7.79103876929934E-17,0.));
#514=DIRECTION('',(0.,0.,1.));
#515=DIRECTION('center_axis',(0.,0.,1.));
#516=DIRECTION('ref_axis',(5.55111512312578E-16,-1.,0.));
#517=DIRECTION('center_axis',(0.,0.,-1.));
#518=DIRECTION('ref_axis',(5.55111512312578E-16,-1.,0.));
#519=DIRECTION('center_axis',(0.,0.,1.));
#520=DIRECTION('ref_axis',(5.55111512312578E-16,-1.,0.));
#521=DIRECTION('',(0.,0.,1.));
#522=DIRECTION('center_axis',(0.,0.,1.));
#523=DIRECTION('ref_axis',(1.,1.11022302462516E-15,0.));
#524=DIRECTION('center_axis',(0.,0.,-1.));
#525=DIRECTION('ref_axis',(1.,1.11022302462516E-15,0.));
#526=DIRECTION('',(0.,0.,1.));
#527=DIRECTION('center_axis',(0.,0.,1.));
#528=DIRECTION('ref_axis',(1.,1.11022302462516E-15,0.));
#529=DIRECTION('center_axis',(0.,0.,-1.));
#530=DIRECTION('ref_axis',(-1.,0.,0.));
#531=DIRECTION('',(3.41607084500048E-16,1.,0.));
#532=DIRECTION('',(1.,0.,0.));
#533=DIRECTION('',(0.,-1.,0.));
#534=DIRECTION('center_axis',(0.,0.,-1.));
#535=DIRECTION('ref_axis',(-1.,0.,0.));
#536=DIRECTION('',(0.,1.,0.));
#537=DIRECTION('center_axis',(0.,0.,1.));
#538=DIRECTION('ref_axis',(-0.707106781186548,0.707106781186547,0.));
#539=DIRECTION('',(-1.,0.,0.));
#540=DIRECTION('center_axis',(0.,0.,1.));
#541=DIRECTION('ref_axis',(0.707106781186548,0.707106781186547,0.));
#542=DIRECTION('',(0.,1.,0.));
#543=DIRECTION('center_axis',(0.,0.,1.));
#544=DIRECTION('ref_axis',(1.,0.,0.));
#545=DIRECTION('center_axis',(-1.,0.,0.));
#546=DIRECTION('ref_axis',(0.,0.,1.));
#547=DIRECTION('',(0.,0.,-1.));
#548=DIRECTION('',(0.,-1.,0.));
#549=DIRECTION('',(0.,0.,1.));
#550=DIRECTION('',(0.,1.,0.));
#551=DIRECTION('',(0.,0.,1.));
#552=DIRECTION('center_axis',(0.,1.,0.));
#553=DIRECTION('ref_axis',(1.,0.,0.));
#554=DIRECTION('',(0.,0.,1.));
#555=DIRECTION('center_axis',(0.,1.,0.));
#556=DIRECTION('ref_axis',(0.707106781186548,0.,0.707106781186547));
#557=DIRECTION('',(-1.,0.,0.));
#558=DIRECTION('center_axis',(0.,1.,0.));
#559=DIRECTION('ref_axis',(-0.707106781186548,0.,0.707106781186547));
#560=DIRECTION('center_axis',(0.,-1.,0.));
#561=DIRECTION('ref_axis',(1.,0.,0.));
#562=DIRECTION('center_axis',(0.,-1.,0.));
#563=DIRECTION('ref_axis',(1.,0.,0.));
#564=DIRECTION('center_axis',(0.,1.,0.));
#565=DIRECTION('ref_axis',(1.,0.,0.));
#566=DIRECTION('center_axis',(0.,-1.,0.));
#567=DIRECTION('ref_axis',(-0.707106781186548,0.,0.707106781186547));
#568=DIRECTION('',(1.,0.,0.));
#569=DIRECTION('center_axis',(0.,-1.,0.));
#570=DIRECTION('ref_axis',(0.707106781186548,0.,0.707106781186547));
#571=DIRECTION('',(0.,0.,-1.));
#572=DIRECTION('',(-1.,0.,0.));
#573=DIRECTION('center_axis',(0.,-1.,0.));
#574=DIRECTION('ref_axis',(1.,0.,0.));
#575=DIRECTION('center_axis',(0.,-1.,0.));
#576=DIRECTION('ref_axis',(1.,0.,0.));
#577=DIRECTION('center_axis',(0.,0.,1.));
#578=DIRECTION('ref_axis',(1.,0.,0.));
#579=DIRECTION('',(0.,1.,0.));
#580=DIRECTION('center_axis',(0.,0.,-1.));
#581=DIRECTION('ref_axis',(0.707106781186548,0.707106781186547,0.));
#582=DIRECTION('',(1.,0.,0.));
#583=DIRECTION('center_axis',(0.,0.,-1.));
#584=DIRECTION('ref_axis',(-0.707106781186548,0.707106781186547,0.));
#585=DIRECTION('center_axis',(0.,0.,-1.));
#586=DIRECTION('ref_axis',(1.,0.,0.));
#587=DIRECTION('center_axis',(1.,0.,0.));
#588=DIRECTION('ref_axis',(0.,0.,-1.));
#589=DIRECTION('',(0.,0.,-1.));
#590=DIRECTION('',(0.,1.,0.));
#591=DIRECTION('center_axis',(0.,0.,-1.));
#592=DIRECTION('ref_axis',(0.707106781186548,0.707106781186547,0.));
#593=DIRECTION('',(0.,0.,1.));
#594=DIRECTION('center_axis',(0.,1.,0.));
#595=DIRECTION('ref_axis',(0.,0.,1.));
#596=DIRECTION('',(0.,0.,-1.));
#597=DIRECTION('center_axis',(0.,0.,1.));
#598=DIRECTION('ref_axis',(-0.707106781186548,0.707106781186547,0.));
#599=DIRECTION('center_axis',(0.,1.,0.));
#600=DIRECTION('ref_axis',(0.707106781186548,0.,0.707106781186547));
#601=DIRECTION('',(0.,-1.,0.));
#602=DIRECTION('center_axis',(0.,0.,1.));
#603=DIRECTION('ref_axis',(1.,0.,0.));
#604=DIRECTION('',(0.,1.,0.));
#605=DIRECTION('center_axis',(0.,1.,0.));
#606=DIRECTION('ref_axis',(-0.707106781186548,0.,0.707106781186547));
#607=DIRECTION('center_axis',(0.,0.,1.));
#608=DIRECTION('ref_axis',(1.,0.,0.));
#609=DIRECTION('',(0.707106781186546,8.65956056235492E-17,-0.707106781186549));
#610=DIRECTION('center_axis',(0.,0.,1.));
#611=DIRECTION('ref_axis',(1.,0.,0.));
#612=DIRECTION('center_axis',(0.,0.,-1.));
#613=DIRECTION('ref_axis',(1.,0.,0.));
#614=DIRECTION('',(0.,0.,-1.));
#615=DIRECTION('center_axis',(0.,1.,0.));
#616=DIRECTION('ref_axis',(1.,0.,0.));
#617=DIRECTION('',(0.,-1.,0.));
#618=DIRECTION('center_axis',(0.,1.,0.));
#619=DIRECTION('ref_axis',(1.,0.,0.));
#620=DIRECTION('',(0.,-1.,0.));
#621=CARTESIAN_POINT('',(0.,0.,0.));
#622=CARTESIAN_POINT('Origin',(52.5,-15.,-4.));
#623=CARTESIAN_POINT('',(54.5,-15.,0.));
#624=CARTESIAN_POINT('Origin',(52.5,-15.,0.));
#625=CARTESIAN_POINT('',(54.5,-15.,-4.));
#626=CARTESIAN_POINT('',(54.5,-15.,-4.));
#627=CARTESIAN_POINT('Origin',(52.5,-15.,-4.));
#628=CARTESIAN_POINT('Origin',(12.5,-15.,-4.));
#629=CARTESIAN_POINT('',(14.5,-15.,0.));
#630=CARTESIAN_POINT('Origin',(12.5,-15.,0.));
#631=CARTESIAN_POINT('',(14.5,-15.,-4.));
#632=CARTESIAN_POINT('',(14.5,-15.,-4.));
#633=CARTESIAN_POINT('Origin',(12.5,-15.,-4.));
#634=CARTESIAN_POINT('Origin',(4.,-30.,-4.));
#635=CARTESIAN_POINT('',(4.,-30.,-4.));
#636=CARTESIAN_POINT('',(61.,-30.,-4.));
#637=CARTESIAN_POINT('',(4.,-30.,-4.));
#638=CARTESIAN_POINT('',(61.,-30.,0.));
#639=CARTESIAN_POINT('',(61.,-30.,-4.));
#640=CARTESIAN_POINT('',(4.,-30.,0.));
#641=CARTESIAN_POINT('',(4.,-30.,0.));
#642=CARTESIAN_POINT('',(4.,-30.,-4.));
#643=CARTESIAN_POINT('Origin',(4.,-26.,-4.));
#644=CARTESIAN_POINT('',(-1.11022302462516E-15,-26.,-4.));
#645=CARTESIAN_POINT('Origin',(4.,-26.,-4.));
#646=CARTESIAN_POINT('',(-2.22044604925031E-15,-26.,0.));
#647=CARTESIAN_POINT('Origin',(4.,-26.,0.));
#648=CARTESIAN_POINT('',(-1.11022302462516E-15,-26.,-4.));
#649=CARTESIAN_POINT('Origin',(61.,-26.,-4.));
#650=CARTESIAN_POINT('',(65.,-26.,-4.));
#651=CARTESIAN_POINT('Origin',(61.,-26.,-4.));
#652=CARTESIAN_POINT('',(65.,-26.,0.));
#653=CARTESIAN_POINT('',(65.,-26.,-4.));
#654=CARTESIAN_POINT('Origin',(61.,-26.,0.));
#655=CARTESIAN_POINT('Origin',(32.5,-4.9475,0.));
#656=CARTESIAN_POINT('',(65.,0.,0.));
#657=CARTESIAN_POINT('',(65.,-26.,0.));
#658=CARTESIAN_POINT('',(0.,0.,0.));
#659=CARTESIAN_POINT('',(32.5,0.,0.));
#660=CARTESIAN_POINT('',(0.,0.,0.));
#661=CARTESIAN_POINT('Origin',(65.,0.,-4.));
#662=CARTESIAN_POINT('',(0.,16.105,-4.));
#663=CARTESIAN_POINT('',(0.,0.,-4.));
#664=CARTESIAN_POINT('',(4.,20.105,-4.));
#665=CARTESIAN_POINT('Origin',(4.,16.105,-4.));
#666=CARTESIAN_POINT('',(61.,20.105,-4.));
#667=CARTESIAN_POINT('',(0.,20.105,-4.));
#668=CARTESIAN_POINT('',(65.,16.105,-4.));
#669=CARTESIAN_POINT('Origin',(61.,16.105,-4.));
#670=CARTESIAN_POINT('',(65.,0.,-4.));
#671=CARTESIAN_POINT('',(29.175,14.15,-4.));
#672=CARTESIAN_POINT('Origin',(32.5,14.15,-4.));
#673=CARTESIAN_POINT('Origin',(0.,0.,0.));
#674=CARTESIAN_POINT('',(0.,0.,15.5));
#675=CARTESIAN_POINT('',(0.,0.,0.));
#676=CARTESIAN_POINT('',(0.,4.,15.5));
#677=CARTESIAN_POINT('',(0.,0.,15.5));
#678=CARTESIAN_POINT('',(0.,4.,0.));
#679=CARTESIAN_POINT('',(0.,4.,19.5));
#680=CARTESIAN_POINT('',(0.,16.105,0.));
#681=CARTESIAN_POINT('',(0.,0.,0.));
#682=CARTESIAN_POINT('',(0.,16.105,-1.));
#683=CARTESIAN_POINT('Origin',(32.5,0.,9.75));
#684=CARTESIAN_POINT('',(65.,0.,15.5));
#685=CARTESIAN_POINT('',(65.,0.,0.));
#686=CARTESIAN_POINT('',(61.,0.,19.5));
#687=CARTESIAN_POINT('Origin',(61.,0.,15.5));
#688=CARTESIAN_POINT('',(4.,0.,19.5));
#689=CARTESIAN_POINT('',(65.,0.,19.5));
#690=CARTESIAN_POINT('Origin',(4.,0.,15.5));
#691=CARTESIAN_POINT('',(8.6,0.,12.5));
#692=CARTESIAN_POINT('Origin',(10.,0.,12.5));
#693=CARTESIAN_POINT('',(53.6,0.,12.5));
#694=CARTESIAN_POINT('Origin',(55.,0.,12.5));
#695=CARTESIAN_POINT('Origin',(32.5,4.,9.75));
#696=CARTESIAN_POINT('',(4.,4.,19.5));
#697=CARTESIAN_POINT('Origin',(4.,4.,15.5));
#698=CARTESIAN_POINT('',(61.,4.,19.5));
#699=CARTESIAN_POINT('',(65.,4.,19.5));
#700=CARTESIAN_POINT('',(65.,4.,15.5));
#701=CARTESIAN_POINT('Origin',(61.,4.,15.5));
#702=CARTESIAN_POINT('',(65.,4.,0.));
#703=CARTESIAN_POINT('',(65.,4.,0.));
#704=CARTESIAN_POINT('',(16.25,4.,0.));
#705=CARTESIAN_POINT('',(8.6,4.,12.5));
#706=CARTESIAN_POINT('Origin',(10.,4.,12.5));
#707=CARTESIAN_POINT('',(53.6,4.,12.5));
#708=CARTESIAN_POINT('Origin',(55.,4.,12.5));
#709=CARTESIAN_POINT('Origin',(0.,0.,0.));
#710=CARTESIAN_POINT('',(65.,16.105,0.));
#711=CARTESIAN_POINT('',(65.,0.,0.));
#712=CARTESIAN_POINT('',(61.,20.105,0.));
#713=CARTESIAN_POINT('Origin',(61.,16.105,0.));
#714=CARTESIAN_POINT('',(4.,20.105,0.));
#715=CARTESIAN_POINT('',(0.,20.105,0.));
#716=CARTESIAN_POINT('Origin',(4.,16.105,0.));
#717=CARTESIAN_POINT('',(28.675,14.15,0.));
#718=CARTESIAN_POINT('Origin',(32.5,14.15,0.));
#719=CARTESIAN_POINT('Origin',(65.,0.,19.5));
#720=CARTESIAN_POINT('',(65.,16.105,8.75));
#721=CARTESIAN_POINT('',(65.,0.,15.5));
#722=CARTESIAN_POINT('Origin',(61.,16.105,8.75));
#723=CARTESIAN_POINT('',(61.,20.105,8.75));
#724=CARTESIAN_POINT('Origin',(32.5,20.105,-2.));
#725=CARTESIAN_POINT('',(4.,20.105,-1.));
#726=CARTESIAN_POINT('Origin',(4.,16.105,-1.));
#727=CARTESIAN_POINT('Origin',(61.,0.,15.5));
#728=CARTESIAN_POINT('',(61.,0.,19.5));
#729=CARTESIAN_POINT('Origin',(0.,0.,19.5));
#730=CARTESIAN_POINT('',(4.,0.,19.5));
#731=CARTESIAN_POINT('Origin',(4.,0.,15.5));
#732=CARTESIAN_POINT('Origin',(32.5,14.15,-0.25));
#733=CARTESIAN_POINT('',(29.175,14.15,-0.5));
#734=CARTESIAN_POINT('',(28.925,14.15,-0.25));
#735=CARTESIAN_POINT('Origin',(32.5,14.15,-0.5));
#736=CARTESIAN_POINT('Origin',(32.5,14.15,0.));
#737=CARTESIAN_POINT('',(29.175,14.15,0.));
#738=CARTESIAN_POINT('Origin',(55.,0.,12.5));
#739=CARTESIAN_POINT('',(53.6,0.,12.5));
#740=CARTESIAN_POINT('Origin',(10.,0.,12.5));
#741=CARTESIAN_POINT('',(8.6,0.,12.5));
#742=UNCERTAINTY_MEASURE_WITH_UNIT(LENGTH_MEASURE(0.01),#746,
'DISTANCE_ACCURACY_VALUE',
'Maximum model space distance between geometric entities at asserted c
onnectivities');
#743=UNCERTAINTY_MEASURE_WITH_UNIT(LENGTH_MEASURE(0.01),#746,
'DISTANCE_ACCURACY_VALUE',
'Maximum model space distance between geometric entities at asserted c
onnectivities');
#744=(
GEOMETRIC_REPRESENTATION_CONTEXT(3)
GLOBAL_UNCERTAINTY_ASSIGNED_CONTEXT((#742))
GLOBAL_UNIT_ASSIGNED_CONTEXT((#746,#748,#749))
REPRESENTATION_CONTEXT('','3D')
);
#745=(
GEOMETRIC_REPRESENTATION_CONTEXT(3)
GLOBAL_UNCERTAINTY_ASSIGNED_CONTEXT((#743))
GLOBAL_UNIT_ASSIGNED_CONTEXT((#746,#748,#749))
REPRESENTATION_CONTEXT('','3D')
);
#746=(
LENGTH_UNIT()
NAMED_UNIT(*)
SI_UNIT(.MILLI.,.METRE.)
);
#747=(
LENGTH_UNIT()
NAMED_UNIT(*)
SI_UNIT($,.METRE.)
);
#748=(
NAMED_UNIT(*)
PLANE_ANGLE_UNIT()
SI_UNIT($,.RADIAN.)
);
#749=(
NAMED_UNIT(*)
SI_UNIT($,.STERADIAN.)
SOLID_ANGLE_UNIT()
);
#750=SHAPE_DEFINITION_REPRESENTATION(#751,#752);
#751=PRODUCT_DEFINITION_SHAPE('',$,#754);
#752=SHAPE_REPRESENTATION('',(#447),#744);
#753=PRODUCT_DEFINITION_CONTEXT('part definition',#758,'design');
#754=PRODUCT_DEFINITION('2026-05-30-16-41-06-141','D435\X2\652F67B6\X0\',
#755,#753);
#755=PRODUCT_DEFINITION_FORMATION('',$,#760);
#756=PRODUCT_RELATED_PRODUCT_CATEGORY('D435\X2\652F67B6\X0\',
'D435\X2\652F67B6\X0\',(#760));
#757=APPLICATION_PROTOCOL_DEFINITION('international standard',
'automotive_design',2009,#758);
#758=APPLICATION_CONTEXT(
'Core Data for Automotive Mechanical Design Process');
#759=PRODUCT_CONTEXT('part definition',#758,'mechanical');
#760=PRODUCT('2026-05-30-16-41-06-141','D435\X2\652F67B6\X0\',$,(#759));
#761=PRESENTATION_STYLE_ASSIGNMENT((#762));
#762=SURFACE_STYLE_USAGE(.BOTH.,#763);
#763=SURFACE_SIDE_STYLE('',(#764));
#764=SURFACE_STYLE_FILL_AREA(#765);
#765=FILL_AREA_STYLE('\X2\94A2\X0\ - \X2\7F0E5149\X0\',(#766));
#766=FILL_AREA_STYLE_COLOUR('\X2\94A2\X0\ - \X2\7F0E5149\X0\',#767);
#767=COLOUR_RGB('\X2\94A2\X0\ - \X2\7F0E5149\X0\',0.627450980392157,0.627450980392157,
0.627450980392157);
ENDSEC;
END-ISO-10303-21;
