ISO-10303-21;
HEADER;
/* Generated by software containing ST-Developer
 * from STEP Tools, Inc. (www.steptools.com) 
 */

FILE_DESCRIPTION(
/* description */ ('STEP AP214'),
/* implementation_level */ '2;1');

FILE_NAME(
/* name */ '',
/* time_stamp */ '2026-08-17T23:19:52+08:00',
/* author */ (''),
/* organization */ (''),
/* preprocessor_version */ 'ST-DEVELOPER v20.1',
/* originating_system */ 'Autodesk Translation Framework v15.8.0.0',
/* authorisation */ '');

FILE_SCHEMA (('AUTOMOTIVE_DESIGN { 1 0 10303 214 3 1 1 }'));
ENDSEC;

DATA;
#10=MECHANICAL_DESIGN_GEOMETRIC_PRESENTATION_REPRESENTATION('',(#13),#921);
#11=SHAPE_REPRESENTATION_RELATIONSHIP('SRR','None',#928,#12);
#12=ADVANCED_BREP_SHAPE_REPRESENTATION('',(#14),#920);
#13=STYLED_ITEM('',(#938),#14);
#14=MANIFOLD_SOLID_BREP('\X2\5B9E4F53\X0\1',#537);
#15=FACE_BOUND('',#83,.T.);
#16=FACE_BOUND('',#84,.T.);
#17=FACE_BOUND('',#85,.T.);
#18=FACE_BOUND('',#86,.T.);
#19=FACE_BOUND('',#88,.T.);
#20=FACE_BOUND('',#89,.T.);
#21=FACE_BOUND('',#90,.T.);
#22=FACE_BOUND('',#91,.T.);
#23=FACE_BOUND('',#96,.T.);
#24=FACE_BOUND('',#97,.T.);
#25=FACE_BOUND('',#98,.T.);
#26=FACE_BOUND('',#99,.T.);
#27=FACE_BOUND('',#100,.T.);
#28=FACE_BOUND('',#101,.T.);
#29=FACE_BOUND('',#102,.T.);
#30=FACE_BOUND('',#104,.T.);
#31=FACE_BOUND('',#105,.T.);
#32=FACE_BOUND('',#106,.T.);
#33=FACE_BOUND('',#107,.T.);
#34=FACE_BOUND('',#108,.T.);
#35=FACE_BOUND('',#109,.T.);
#36=FACE_BOUND('',#110,.T.);
#37=PLANE('',#581);
#38=PLANE('',#584);
#39=PLANE('',#587);
#40=PLANE('',#590);
#41=PLANE('',#591);
#42=PLANE('',#594);
#43=PLANE('',#598);
#44=PLANE('',#604);
#45=PLANE('',#606);
#46=FACE_OUTER_BOUND('',#72,.T.);
#47=FACE_OUTER_BOUND('',#73,.T.);
#48=FACE_OUTER_BOUND('',#74,.T.);
#49=FACE_OUTER_BOUND('',#75,.T.);
#50=FACE_OUTER_BOUND('',#76,.T.);
#51=FACE_OUTER_BOUND('',#77,.T.);
#52=FACE_OUTER_BOUND('',#78,.T.);
#53=FACE_OUTER_BOUND('',#79,.T.);
#54=FACE_OUTER_BOUND('',#80,.T.);
#55=FACE_OUTER_BOUND('',#81,.T.);
#56=FACE_OUTER_BOUND('',#82,.T.);
#57=FACE_OUTER_BOUND('',#87,.T.);
#58=FACE_OUTER_BOUND('',#92,.T.);
#59=FACE_OUTER_BOUND('',#93,.T.);
#60=FACE_OUTER_BOUND('',#94,.T.);
#61=FACE_OUTER_BOUND('',#95,.T.);
#62=FACE_OUTER_BOUND('',#103,.T.);
#63=FACE_OUTER_BOUND('',#111,.T.);
#64=FACE_OUTER_BOUND('',#112,.T.);
#65=FACE_OUTER_BOUND('',#113,.T.);
#66=FACE_OUTER_BOUND('',#114,.T.);
#67=FACE_OUTER_BOUND('',#115,.T.);
#68=FACE_OUTER_BOUND('',#116,.T.);
#69=FACE_OUTER_BOUND('',#117,.T.);
#70=FACE_OUTER_BOUND('',#118,.T.);
#71=FACE_OUTER_BOUND('',#119,.T.);
#72=EDGE_LOOP('',(#350,#351,#352,#353));
#73=EDGE_LOOP('',(#354,#355,#356,#357));
#74=EDGE_LOOP('',(#358,#359,#360,#361));
#75=EDGE_LOOP('',(#362,#363,#364,#365));
#76=EDGE_LOOP('',(#366,#367,#368,#369));
#77=EDGE_LOOP('',(#370,#371,#372,#373));
#78=EDGE_LOOP('',(#374,#375,#376,#377));
#79=EDGE_LOOP('',(#378,#379,#380,#381));
#80=EDGE_LOOP('',(#382,#383,#384,#385));
#81=EDGE_LOOP('',(#386,#387,#388,#389));
#82=EDGE_LOOP('',(#390,#391,#392,#393,#394,#395));
#83=EDGE_LOOP('',(#396));
#84=EDGE_LOOP('',(#397));
#85=EDGE_LOOP('',(#398));
#86=EDGE_LOOP('',(#399));
#87=EDGE_LOOP('',(#400,#401,#402,#403,#404,#405));
#88=EDGE_LOOP('',(#406));
#89=EDGE_LOOP('',(#407));
#90=EDGE_LOOP('',(#408));
#91=EDGE_LOOP('',(#409));
#92=EDGE_LOOP('',(#410,#411,#412,#413,#414,#415,#416,#417));
#93=EDGE_LOOP('',(#418,#419,#420,#421));
#94=EDGE_LOOP('',(#422,#423,#424,#425,#426,#427,#428,#429));
#95=EDGE_LOOP('',(#430,#431,#432,#433));
#96=EDGE_LOOP('',(#434));
#97=EDGE_LOOP('',(#435));
#98=EDGE_LOOP('',(#436));
#99=EDGE_LOOP('',(#437,#438,#439,#440));
#100=EDGE_LOOP('',(#441));
#101=EDGE_LOOP('',(#442));
#102=EDGE_LOOP('',(#443));
#103=EDGE_LOOP('',(#444,#445,#446,#447));
#104=EDGE_LOOP('',(#448,#449,#450,#451));
#105=EDGE_LOOP('',(#452));
#106=EDGE_LOOP('',(#453));
#107=EDGE_LOOP('',(#454));
#108=EDGE_LOOP('',(#455));
#109=EDGE_LOOP('',(#456));
#110=EDGE_LOOP('',(#457));
#111=EDGE_LOOP('',(#458,#459,#460,#461));
#112=EDGE_LOOP('',(#462,#463,#464,#465));
#113=EDGE_LOOP('',(#466,#467,#468,#469));
#114=EDGE_LOOP('',(#470,#471,#472,#473));
#115=EDGE_LOOP('',(#474,#475,#476,#477));
#116=EDGE_LOOP('',(#478,#479,#480,#481));
#117=EDGE_LOOP('',(#482,#483,#484,#485));
#118=EDGE_LOOP('',(#486,#487,#488,#489));
#119=EDGE_LOOP('',(#490,#491,#492,#493));
#120=LINE('',#776,#158);
#121=LINE('',#782,#159);
#122=LINE('',#788,#160);
#123=LINE('',#794,#161);
#124=LINE('',#800,#162);
#125=LINE('',#806,#163);
#126=LINE('',#812,#164);
#127=LINE('',#818,#165);
#128=LINE('',#824,#166);
#129=LINE('',#830,#167);
#130=LINE('',#835,#168);
#131=LINE('',#837,#169);
#132=LINE('',#839,#170);
#133=LINE('',#843,#171);
#134=LINE('',#848,#172);
#135=LINE('',#850,#173);
#136=LINE('',#852,#174);
#137=LINE('',#856,#175);
#138=LINE('',#861,#176);
#139=LINE('',#863,#177);
#140=LINE('',#867,#178);
#141=LINE('',#868,#179);
#142=LINE('',#870,#180);
#143=LINE('',#871,#181);
#144=LINE('',#876,#182);
#145=LINE('',#878,#183);
#146=LINE('',#880,#184);
#147=LINE('',#882,#185);
#148=LINE('',#884,#186);
#149=LINE('',#888,#187);
#150=LINE('',#892,#188);
#151=LINE('',#895,#189);
#152=LINE('',#901,#190);
#153=LINE('',#904,#191);
#154=LINE('',#907,#192);
#155=LINE('',#908,#193);
#156=LINE('',#910,#194);
#157=LINE('',#912,#195);
#158=VECTOR('',#617,1.6);
#159=VECTOR('',#624,1.6);
#160=VECTOR('',#631,1.6);
#161=VECTOR('',#638,1.6);
#162=VECTOR('',#645,1.6);
#163=VECTOR('',#652,1.6);
#164=VECTOR('',#659,1.5);
#165=VECTOR('',#666,1.5);
#166=VECTOR('',#673,1.5);
#167=VECTOR('',#680,1.5);
#168=VECTOR('',#685,1000.);
#169=VECTOR('',#686,1000.);
#170=VECTOR('',#687,1000.);
#171=VECTOR('',#690,1000.);
#172=VECTOR('',#695,1000.);
#173=VECTOR('',#696,1000.);
#174=VECTOR('',#697,1000.);
#175=VECTOR('',#700,1000.);
#176=VECTOR('',#705,1000.);
#177=VECTOR('',#708,1000.);
#178=VECTOR('',#711,1000.);
#179=VECTOR('',#712,1000.);
#180=VECTOR('',#715,1000.);
#181=VECTOR('',#716,1000.);
#182=VECTOR('',#721,1000.);
#183=VECTOR('',#722,1000.);
#184=VECTOR('',#723,1000.);
#185=VECTOR('',#726,1000.);
#186=VECTOR('',#729,1000.);
#187=VECTOR('',#732,1000.);
#188=VECTOR('',#735,1000.);
#189=VECTOR('',#740,1000.);
#190=VECTOR('',#745,1000.);
#191=VECTOR('',#748,1000.);
#192=VECTOR('',#753,1000.);
#193=VECTOR('',#754,1000.);
#194=VECTOR('',#757,1000.);
#195=VECTOR('',#760,1000.);
#196=CIRCLE('',#552,1.6);
#197=CIRCLE('',#553,1.6);
#198=CIRCLE('',#555,1.6);
#199=CIRCLE('',#556,1.6);
#200=CIRCLE('',#558,1.6);
#201=CIRCLE('',#559,1.6);
#202=CIRCLE('',#561,1.6);
#203=CIRCLE('',#562,1.6);
#204=CIRCLE('',#564,1.6);
#205=CIRCLE('',#565,1.6);
#206=CIRCLE('',#567,1.6);
#207=CIRCLE('',#568,1.6);
#208=CIRCLE('',#570,1.5);
#209=CIRCLE('',#571,1.5);
#210=CIRCLE('',#573,1.5);
#211=CIRCLE('',#574,1.5);
#212=CIRCLE('',#576,1.5);
#213=CIRCLE('',#577,1.5);
#214=CIRCLE('',#579,1.5);
#215=CIRCLE('',#580,1.5);
#216=CIRCLE('',#582,3.);
#217=CIRCLE('',#583,3.);
#218=CIRCLE('',#585,3.);
#219=CIRCLE('',#586,3.);
#220=CIRCLE('',#588,1.);
#221=CIRCLE('',#589,0.5);
#222=CIRCLE('',#592,1.);
#223=CIRCLE('',#593,0.5);
#224=CIRCLE('',#595,20.);
#225=CIRCLE('',#596,6.5);
#226=CIRCLE('',#597,6.5);
#227=CIRCLE('',#599,20.);
#228=CIRCLE('',#600,6.5);
#229=CIRCLE('',#601,6.5);
#230=VERTEX_POINT('',#773);
#231=VERTEX_POINT('',#775);
#232=VERTEX_POINT('',#779);
#233=VERTEX_POINT('',#781);
#234=VERTEX_POINT('',#785);
#235=VERTEX_POINT('',#787);
#236=VERTEX_POINT('',#791);
#237=VERTEX_POINT('',#793);
#238=VERTEX_POINT('',#797);
#239=VERTEX_POINT('',#799);
#240=VERTEX_POINT('',#803);
#241=VERTEX_POINT('',#805);
#242=VERTEX_POINT('',#809);
#243=VERTEX_POINT('',#811);
#244=VERTEX_POINT('',#815);
#245=VERTEX_POINT('',#817);
#246=VERTEX_POINT('',#821);
#247=VERTEX_POINT('',#823);
#248=VERTEX_POINT('',#827);
#249=VERTEX_POINT('',#829);
#250=VERTEX_POINT('',#833);
#251=VERTEX_POINT('',#834);
#252=VERTEX_POINT('',#836);
#253=VERTEX_POINT('',#838);
#254=VERTEX_POINT('',#840);
#255=VERTEX_POINT('',#842);
#256=VERTEX_POINT('',#846);
#257=VERTEX_POINT('',#847);
#258=VERTEX_POINT('',#849);
#259=VERTEX_POINT('',#851);
#260=VERTEX_POINT('',#853);
#261=VERTEX_POINT('',#855);
#262=VERTEX_POINT('',#859);
#263=VERTEX_POINT('',#860);
#264=VERTEX_POINT('',#864);
#265=VERTEX_POINT('',#866);
#266=VERTEX_POINT('',#873);
#267=VERTEX_POINT('',#875);
#268=VERTEX_POINT('',#877);
#269=VERTEX_POINT('',#879);
#270=VERTEX_POINT('',#886);
#271=VERTEX_POINT('',#887);
#272=VERTEX_POINT('',#889);
#273=VERTEX_POINT('',#891);
#274=VERTEX_POINT('',#897);
#275=VERTEX_POINT('',#898);
#276=VERTEX_POINT('',#900);
#277=VERTEX_POINT('',#902);
#278=EDGE_CURVE('',#230,#230,#196,.T.);
#279=EDGE_CURVE('',#230,#231,#120,.T.);
#280=EDGE_CURVE('',#231,#231,#197,.T.);
#281=EDGE_CURVE('',#232,#232,#198,.T.);
#282=EDGE_CURVE('',#232,#233,#121,.T.);
#283=EDGE_CURVE('',#233,#233,#199,.T.);
#284=EDGE_CURVE('',#234,#234,#200,.T.);
#285=EDGE_CURVE('',#234,#235,#122,.T.);
#286=EDGE_CURVE('',#235,#235,#201,.T.);
#287=EDGE_CURVE('',#236,#236,#202,.T.);
#288=EDGE_CURVE('',#236,#237,#123,.T.);
#289=EDGE_CURVE('',#237,#237,#203,.T.);
#290=EDGE_CURVE('',#238,#238,#204,.T.);
#291=EDGE_CURVE('',#238,#239,#124,.T.);
#292=EDGE_CURVE('',#239,#239,#205,.T.);
#293=EDGE_CURVE('',#240,#240,#206,.T.);
#294=EDGE_CURVE('',#240,#241,#125,.T.);
#295=EDGE_CURVE('',#241,#241,#207,.T.);
#296=EDGE_CURVE('',#242,#242,#208,.T.);
#297=EDGE_CURVE('',#242,#243,#126,.T.);
#298=EDGE_CURVE('',#243,#243,#209,.T.);
#299=EDGE_CURVE('',#244,#244,#210,.T.);
#300=EDGE_CURVE('',#244,#245,#127,.T.);
#301=EDGE_CURVE('',#245,#245,#211,.T.);
#302=EDGE_CURVE('',#246,#246,#212,.T.);
#303=EDGE_CURVE('',#246,#247,#128,.T.);
#304=EDGE_CURVE('',#247,#247,#213,.T.);
#305=EDGE_CURVE('',#248,#248,#214,.T.);
#306=EDGE_CURVE('',#248,#249,#129,.T.);
#307=EDGE_CURVE('',#249,#249,#215,.T.);
#308=EDGE_CURVE('',#250,#251,#130,.T.);
#309=EDGE_CURVE('',#251,#252,#131,.T.);
#310=EDGE_CURVE('',#252,#253,#132,.T.);
#311=EDGE_CURVE('',#253,#254,#216,.T.);
#312=EDGE_CURVE('',#254,#255,#133,.T.);
#313=EDGE_CURVE('',#255,#250,#217,.T.);
#314=EDGE_CURVE('',#256,#257,#134,.T.);
#315=EDGE_CURVE('',#256,#258,#135,.T.);
#316=EDGE_CURVE('',#259,#258,#136,.T.);
#317=EDGE_CURVE('',#259,#260,#218,.T.);
#318=EDGE_CURVE('',#261,#260,#137,.T.);
#319=EDGE_CURVE('',#261,#257,#219,.T.);
#320=EDGE_CURVE('',#262,#263,#138,.T.);
#321=EDGE_CURVE('',#262,#256,#220,.T.);
#322=EDGE_CURVE('',#257,#253,#139,.T.);
#323=EDGE_CURVE('',#252,#264,#221,.T.);
#324=EDGE_CURVE('',#264,#265,#140,.T.);
#325=EDGE_CURVE('',#263,#265,#141,.T.);
#326=EDGE_CURVE('',#254,#261,#142,.T.);
#327=EDGE_CURVE('',#260,#255,#143,.T.);
#328=EDGE_CURVE('',#258,#266,#222,.T.);
#329=EDGE_CURVE('',#267,#266,#144,.T.);
#330=EDGE_CURVE('',#267,#268,#145,.T.);
#331=EDGE_CURVE('',#268,#269,#146,.T.);
#332=EDGE_CURVE('',#269,#251,#223,.T.);
#333=EDGE_CURVE('',#250,#259,#147,.T.);
#334=EDGE_CURVE('',#264,#269,#148,.T.);
#335=EDGE_CURVE('',#265,#268,#224,.T.);
#336=EDGE_CURVE('',#270,#271,#149,.T.);
#337=EDGE_CURVE('',#271,#272,#225,.T.);
#338=EDGE_CURVE('',#272,#273,#150,.T.);
#339=EDGE_CURVE('',#273,#270,#226,.T.);
#340=EDGE_CURVE('',#266,#262,#151,.T.);
#341=EDGE_CURVE('',#263,#267,#227,.T.);
#342=EDGE_CURVE('',#274,#275,#228,.T.);
#343=EDGE_CURVE('',#276,#274,#152,.T.);
#344=EDGE_CURVE('',#277,#276,#229,.T.);
#345=EDGE_CURVE('',#275,#277,#153,.T.);
#346=EDGE_CURVE('',#274,#271,#154,.T.);
#347=EDGE_CURVE('',#275,#272,#155,.T.);
#348=EDGE_CURVE('',#277,#273,#156,.T.);
#349=EDGE_CURVE('',#276,#270,#157,.T.);
#350=ORIENTED_EDGE('',*,*,#278,.T.);
#351=ORIENTED_EDGE('',*,*,#279,.T.);
#352=ORIENTED_EDGE('',*,*,#280,.F.);
#353=ORIENTED_EDGE('',*,*,#279,.F.);
#354=ORIENTED_EDGE('',*,*,#281,.T.);
#355=ORIENTED_EDGE('',*,*,#282,.T.);
#356=ORIENTED_EDGE('',*,*,#283,.F.);
#357=ORIENTED_EDGE('',*,*,#282,.F.);
#358=ORIENTED_EDGE('',*,*,#284,.T.);
#359=ORIENTED_EDGE('',*,*,#285,.T.);
#360=ORIENTED_EDGE('',*,*,#286,.F.);
#361=ORIENTED_EDGE('',*,*,#285,.F.);
#362=ORIENTED_EDGE('',*,*,#287,.T.);
#363=ORIENTED_EDGE('',*,*,#288,.T.);
#364=ORIENTED_EDGE('',*,*,#289,.F.);
#365=ORIENTED_EDGE('',*,*,#288,.F.);
#366=ORIENTED_EDGE('',*,*,#290,.T.);
#367=ORIENTED_EDGE('',*,*,#291,.T.);
#368=ORIENTED_EDGE('',*,*,#292,.F.);
#369=ORIENTED_EDGE('',*,*,#291,.F.);
#370=ORIENTED_EDGE('',*,*,#293,.T.);
#371=ORIENTED_EDGE('',*,*,#294,.T.);
#372=ORIENTED_EDGE('',*,*,#295,.F.);
#373=ORIENTED_EDGE('',*,*,#294,.F.);
#374=ORIENTED_EDGE('',*,*,#296,.T.);
#375=ORIENTED_EDGE('',*,*,#297,.T.);
#376=ORIENTED_EDGE('',*,*,#298,.F.);
#377=ORIENTED_EDGE('',*,*,#297,.F.);
#378=ORIENTED_EDGE('',*,*,#299,.T.);
#379=ORIENTED_EDGE('',*,*,#300,.T.);
#380=ORIENTED_EDGE('',*,*,#301,.F.);
#381=ORIENTED_EDGE('',*,*,#300,.F.);
#382=ORIENTED_EDGE('',*,*,#302,.T.);
#383=ORIENTED_EDGE('',*,*,#303,.T.);
#384=ORIENTED_EDGE('',*,*,#304,.F.);
#385=ORIENTED_EDGE('',*,*,#303,.F.);
#386=ORIENTED_EDGE('',*,*,#305,.T.);
#387=ORIENTED_EDGE('',*,*,#306,.T.);
#388=ORIENTED_EDGE('',*,*,#307,.F.);
#389=ORIENTED_EDGE('',*,*,#306,.F.);
#390=ORIENTED_EDGE('',*,*,#308,.T.);
#391=ORIENTED_EDGE('',*,*,#309,.T.);
#392=ORIENTED_EDGE('',*,*,#310,.T.);
#393=ORIENTED_EDGE('',*,*,#311,.T.);
#394=ORIENTED_EDGE('',*,*,#312,.T.);
#395=ORIENTED_EDGE('',*,*,#313,.T.);
#396=ORIENTED_EDGE('',*,*,#302,.F.);
#397=ORIENTED_EDGE('',*,*,#296,.F.);
#398=ORIENTED_EDGE('',*,*,#299,.F.);
#399=ORIENTED_EDGE('',*,*,#305,.F.);
#400=ORIENTED_EDGE('',*,*,#314,.F.);
#401=ORIENTED_EDGE('',*,*,#315,.T.);
#402=ORIENTED_EDGE('',*,*,#316,.F.);
#403=ORIENTED_EDGE('',*,*,#317,.T.);
#404=ORIENTED_EDGE('',*,*,#318,.F.);
#405=ORIENTED_EDGE('',*,*,#319,.T.);
#406=ORIENTED_EDGE('',*,*,#307,.T.);
#407=ORIENTED_EDGE('',*,*,#304,.T.);
#408=ORIENTED_EDGE('',*,*,#301,.T.);
#409=ORIENTED_EDGE('',*,*,#298,.T.);
#410=ORIENTED_EDGE('',*,*,#320,.F.);
#411=ORIENTED_EDGE('',*,*,#321,.T.);
#412=ORIENTED_EDGE('',*,*,#314,.T.);
#413=ORIENTED_EDGE('',*,*,#322,.T.);
#414=ORIENTED_EDGE('',*,*,#310,.F.);
#415=ORIENTED_EDGE('',*,*,#323,.T.);
#416=ORIENTED_EDGE('',*,*,#324,.T.);
#417=ORIENTED_EDGE('',*,*,#325,.F.);
#418=ORIENTED_EDGE('',*,*,#312,.F.);
#419=ORIENTED_EDGE('',*,*,#326,.T.);
#420=ORIENTED_EDGE('',*,*,#318,.T.);
#421=ORIENTED_EDGE('',*,*,#327,.T.);
#422=ORIENTED_EDGE('',*,*,#316,.T.);
#423=ORIENTED_EDGE('',*,*,#328,.T.);
#424=ORIENTED_EDGE('',*,*,#329,.F.);
#425=ORIENTED_EDGE('',*,*,#330,.T.);
#426=ORIENTED_EDGE('',*,*,#331,.T.);
#427=ORIENTED_EDGE('',*,*,#332,.T.);
#428=ORIENTED_EDGE('',*,*,#308,.F.);
#429=ORIENTED_EDGE('',*,*,#333,.T.);
#430=ORIENTED_EDGE('',*,*,#324,.F.);
#431=ORIENTED_EDGE('',*,*,#334,.T.);
#432=ORIENTED_EDGE('',*,*,#331,.F.);
#433=ORIENTED_EDGE('',*,*,#335,.F.);
#434=ORIENTED_EDGE('',*,*,#280,.T.);
#435=ORIENTED_EDGE('',*,*,#286,.T.);
#436=ORIENTED_EDGE('',*,*,#292,.T.);
#437=ORIENTED_EDGE('',*,*,#336,.T.);
#438=ORIENTED_EDGE('',*,*,#337,.T.);
#439=ORIENTED_EDGE('',*,*,#338,.T.);
#440=ORIENTED_EDGE('',*,*,#339,.T.);
#441=ORIENTED_EDGE('',*,*,#295,.T.);
#442=ORIENTED_EDGE('',*,*,#289,.T.);
#443=ORIENTED_EDGE('',*,*,#283,.T.);
#444=ORIENTED_EDGE('',*,*,#329,.T.);
#445=ORIENTED_EDGE('',*,*,#340,.T.);
#446=ORIENTED_EDGE('',*,*,#320,.T.);
#447=ORIENTED_EDGE('',*,*,#341,.T.);
#448=ORIENTED_EDGE('',*,*,#342,.F.);
#449=ORIENTED_EDGE('',*,*,#343,.F.);
#450=ORIENTED_EDGE('',*,*,#344,.F.);
#451=ORIENTED_EDGE('',*,*,#345,.F.);
#452=ORIENTED_EDGE('',*,*,#293,.F.);
#453=ORIENTED_EDGE('',*,*,#290,.F.);
#454=ORIENTED_EDGE('',*,*,#287,.F.);
#455=ORIENTED_EDGE('',*,*,#284,.F.);
#456=ORIENTED_EDGE('',*,*,#281,.F.);
#457=ORIENTED_EDGE('',*,*,#278,.F.);
#458=ORIENTED_EDGE('',*,*,#335,.T.);
#459=ORIENTED_EDGE('',*,*,#330,.F.);
#460=ORIENTED_EDGE('',*,*,#341,.F.);
#461=ORIENTED_EDGE('',*,*,#325,.T.);
#462=ORIENTED_EDGE('',*,*,#337,.F.);
#463=ORIENTED_EDGE('',*,*,#346,.F.);
#464=ORIENTED_EDGE('',*,*,#342,.T.);
#465=ORIENTED_EDGE('',*,*,#347,.T.);
#466=ORIENTED_EDGE('',*,*,#338,.F.);
#467=ORIENTED_EDGE('',*,*,#347,.F.);
#468=ORIENTED_EDGE('',*,*,#345,.T.);
#469=ORIENTED_EDGE('',*,*,#348,.T.);
#470=ORIENTED_EDGE('',*,*,#339,.F.);
#471=ORIENTED_EDGE('',*,*,#348,.F.);
#472=ORIENTED_EDGE('',*,*,#344,.T.);
#473=ORIENTED_EDGE('',*,*,#349,.T.);
#474=ORIENTED_EDGE('',*,*,#336,.F.);
#475=ORIENTED_EDGE('',*,*,#349,.F.);
#476=ORIENTED_EDGE('',*,*,#343,.T.);
#477=ORIENTED_EDGE('',*,*,#346,.T.);
#478=ORIENTED_EDGE('',*,*,#311,.F.);
#479=ORIENTED_EDGE('',*,*,#322,.F.);
#480=ORIENTED_EDGE('',*,*,#319,.F.);
#481=ORIENTED_EDGE('',*,*,#326,.F.);
#482=ORIENTED_EDGE('',*,*,#313,.F.);
#483=ORIENTED_EDGE('',*,*,#327,.F.);
#484=ORIENTED_EDGE('',*,*,#317,.F.);
#485=ORIENTED_EDGE('',*,*,#333,.F.);
#486=ORIENTED_EDGE('',*,*,#328,.F.);
#487=ORIENTED_EDGE('',*,*,#315,.F.);
#488=ORIENTED_EDGE('',*,*,#321,.F.);
#489=ORIENTED_EDGE('',*,*,#340,.F.);
#490=ORIENTED_EDGE('',*,*,#332,.F.);
#491=ORIENTED_EDGE('',*,*,#334,.F.);
#492=ORIENTED_EDGE('',*,*,#323,.F.);
#493=ORIENTED_EDGE('',*,*,#309,.F.);
#494=CYLINDRICAL_SURFACE('',#551,1.6);
#495=CYLINDRICAL_SURFACE('',#554,1.6);
#496=CYLINDRICAL_SURFACE('',#557,1.6);
#497=CYLINDRICAL_SURFACE('',#560,1.6);
#498=CYLINDRICAL_SURFACE('',#563,1.6);
#499=CYLINDRICAL_SURFACE('',#566,1.6);
#500=CYLINDRICAL_SURFACE('',#569,1.5);
#501=CYLINDRICAL_SURFACE('',#572,1.5);
#502=CYLINDRICAL_SURFACE('',#575,1.5);
#503=CYLINDRICAL_SURFACE('',#578,1.5);
#504=CYLINDRICAL_SURFACE('',#602,20.);
#505=CYLINDRICAL_SURFACE('',#603,6.5);
#506=CYLINDRICAL_SURFACE('',#605,6.5);
#507=CYLINDRICAL_SURFACE('',#607,3.);
#508=CYLINDRICAL_SURFACE('',#608,3.);
#509=CYLINDRICAL_SURFACE('',#609,1.);
#510=CYLINDRICAL_SURFACE('',#610,0.5);
#511=ADVANCED_FACE('',(#46),#494,.F.);
#512=ADVANCED_FACE('',(#47),#495,.F.);
#513=ADVANCED_FACE('',(#48),#496,.F.);
#514=ADVANCED_FACE('',(#49),#497,.F.);
#515=ADVANCED_FACE('',(#50),#498,.F.);
#516=ADVANCED_FACE('',(#51),#499,.F.);
#517=ADVANCED_FACE('',(#52),#500,.F.);
#518=ADVANCED_FACE('',(#53),#501,.F.);
#519=ADVANCED_FACE('',(#54),#502,.F.);
#520=ADVANCED_FACE('',(#55),#503,.F.);
#521=ADVANCED_FACE('',(#56,#15,#16,#17,#18),#37,.T.);
#522=ADVANCED_FACE('',(#57,#19,#20,#21,#22),#38,.F.);
#523=ADVANCED_FACE('',(#58),#39,.F.);
#524=ADVANCED_FACE('',(#59),#40,.F.);
#525=ADVANCED_FACE('',(#60),#41,.F.);
#526=ADVANCED_FACE('',(#61,#23,#24,#25,#26,#27,#28,#29),#42,.T.);
#527=ADVANCED_FACE('',(#62,#30,#31,#32,#33,#34,#35,#36),#43,.F.);
#528=ADVANCED_FACE('',(#63),#504,.T.);
#529=ADVANCED_FACE('',(#64),#505,.F.);
#530=ADVANCED_FACE('',(#65),#44,.T.);
#531=ADVANCED_FACE('',(#66),#506,.F.);
#532=ADVANCED_FACE('',(#67),#45,.T.);
#533=ADVANCED_FACE('',(#68),#507,.T.);
#534=ADVANCED_FACE('',(#69),#508,.T.);
#535=ADVANCED_FACE('',(#70),#509,.T.);
#536=ADVANCED_FACE('',(#71),#510,.F.);
#537=CLOSED_SHELL('',(#511,#512,#513,#514,#515,#516,#517,#518,#519,#520,
#521,#522,#523,#524,#525,#526,#527,#528,#529,#530,#531,#532,#533,#534,#535,
#536));
#538=DERIVED_UNIT_ELEMENT(#540,1.);
#539=DERIVED_UNIT_ELEMENT(#923,-3.);
#540=(
MASS_UNIT()
NAMED_UNIT(*)
SI_UNIT(.KILO.,.GRAM.)
);
#541=DERIVED_UNIT((#538,#539));
#542=MEASURE_REPRESENTATION_ITEM('density measure',
POSITIVE_RATIO_MEASURE(7850.),#541);
#543=PROPERTY_DEFINITION_REPRESENTATION(#548,#545);
#544=PROPERTY_DEFINITION_REPRESENTATION(#549,#546);
#545=REPRESENTATION('material name',(#547),#920);
#546=REPRESENTATION('density',(#542),#920);
#547=DESCRIPTIVE_REPRESENTATION_ITEM('\X2\94A2\X0\','\X2\94A2\X0\');
#548=PROPERTY_DEFINITION('material property','material name',#930);
#549=PROPERTY_DEFINITION('material property','density of part',#930);
#550=AXIS2_PLACEMENT_3D('',#771,#611,#612);
#551=AXIS2_PLACEMENT_3D('',#772,#613,#614);
#552=AXIS2_PLACEMENT_3D('',#774,#615,#616);
#553=AXIS2_PLACEMENT_3D('',#777,#618,#619);
#554=AXIS2_PLACEMENT_3D('',#778,#620,#621);
#555=AXIS2_PLACEMENT_3D('',#780,#622,#623);
#556=AXIS2_PLACEMENT_3D('',#783,#625,#626);
#557=AXIS2_PLACEMENT_3D('',#784,#627,#628);
#558=AXIS2_PLACEMENT_3D('',#786,#629,#630);
#559=AXIS2_PLACEMENT_3D('',#789,#632,#633);
#560=AXIS2_PLACEMENT_3D('',#790,#634,#635);
#561=AXIS2_PLACEMENT_3D('',#792,#636,#637);
#562=AXIS2_PLACEMENT_3D('',#795,#639,#640);
#563=AXIS2_PLACEMENT_3D('',#796,#641,#642);
#564=AXIS2_PLACEMENT_3D('',#798,#643,#644);
#565=AXIS2_PLACEMENT_3D('',#801,#646,#647);
#566=AXIS2_PLACEMENT_3D('',#802,#648,#649);
#567=AXIS2_PLACEMENT_3D('',#804,#650,#651);
#568=AXIS2_PLACEMENT_3D('',#807,#653,#654);
#569=AXIS2_PLACEMENT_3D('',#808,#655,#656);
#570=AXIS2_PLACEMENT_3D('',#810,#657,#658);
#571=AXIS2_PLACEMENT_3D('',#813,#660,#661);
#572=AXIS2_PLACEMENT_3D('',#814,#662,#663);
#573=AXIS2_PLACEMENT_3D('',#816,#664,#665);
#574=AXIS2_PLACEMENT_3D('',#819,#667,#668);
#575=AXIS2_PLACEMENT_3D('',#820,#669,#670);
#576=AXIS2_PLACEMENT_3D('',#822,#671,#672);
#577=AXIS2_PLACEMENT_3D('',#825,#674,#675);
#578=AXIS2_PLACEMENT_3D('',#826,#676,#677);
#579=AXIS2_PLACEMENT_3D('',#828,#678,#679);
#580=AXIS2_PLACEMENT_3D('',#831,#681,#682);
#581=AXIS2_PLACEMENT_3D('',#832,#683,#684);
#582=AXIS2_PLACEMENT_3D('',#841,#688,#689);
#583=AXIS2_PLACEMENT_3D('',#844,#691,#692);
#584=AXIS2_PLACEMENT_3D('',#845,#693,#694);
#585=AXIS2_PLACEMENT_3D('',#854,#698,#699);
#586=AXIS2_PLACEMENT_3D('',#857,#701,#702);
#587=AXIS2_PLACEMENT_3D('',#858,#703,#704);
#588=AXIS2_PLACEMENT_3D('',#862,#706,#707);
#589=AXIS2_PLACEMENT_3D('',#865,#709,#710);
#590=AXIS2_PLACEMENT_3D('',#869,#713,#714);
#591=AXIS2_PLACEMENT_3D('',#872,#717,#718);
#592=AXIS2_PLACEMENT_3D('',#874,#719,#720);
#593=AXIS2_PLACEMENT_3D('',#881,#724,#725);
#594=AXIS2_PLACEMENT_3D('',#883,#727,#728);
#595=AXIS2_PLACEMENT_3D('',#885,#730,#731);
#596=AXIS2_PLACEMENT_3D('',#890,#733,#734);
#597=AXIS2_PLACEMENT_3D('',#893,#736,#737);
#598=AXIS2_PLACEMENT_3D('',#894,#738,#739);
#599=AXIS2_PLACEMENT_3D('',#896,#741,#742);
#600=AXIS2_PLACEMENT_3D('',#899,#743,#744);
#601=AXIS2_PLACEMENT_3D('',#903,#746,#747);
#602=AXIS2_PLACEMENT_3D('',#905,#749,#750);
#603=AXIS2_PLACEMENT_3D('',#906,#751,#752);
#604=AXIS2_PLACEMENT_3D('',#909,#755,#756);
#605=AXIS2_PLACEMENT_3D('',#911,#758,#759);
#606=AXIS2_PLACEMENT_3D('',#913,#761,#762);
#607=AXIS2_PLACEMENT_3D('',#914,#763,#764);
#608=AXIS2_PLACEMENT_3D('',#915,#765,#766);
#609=AXIS2_PLACEMENT_3D('',#916,#767,#768);
#610=AXIS2_PLACEMENT_3D('',#917,#769,#770);
#611=DIRECTION('axis',(0.,0.,1.));
#612=DIRECTION('refdir',(1.,0.,0.));
#613=DIRECTION('center_axis',(0.,0.,1.));
#614=DIRECTION('ref_axis',(1.,0.,0.));
#615=DIRECTION('center_axis',(0.,0.,-1.));
#616=DIRECTION('ref_axis',(-1.,0.,0.));
#617=DIRECTION('',(0.,0.,1.));
#618=DIRECTION('center_axis',(0.,0.,-1.));
#619=DIRECTION('ref_axis',(-1.,0.,0.));
#620=DIRECTION('center_axis',(0.,0.,1.));
#621=DIRECTION('ref_axis',(1.,0.,0.));
#622=DIRECTION('center_axis',(0.,0.,-1.));
#623=DIRECTION('ref_axis',(-1.,0.,0.));
#624=DIRECTION('',(0.,0.,1.));
#625=DIRECTION('center_axis',(0.,0.,-1.));
#626=DIRECTION('ref_axis',(-1.,0.,0.));
#627=DIRECTION('center_axis',(0.,0.,1.));
#628=DIRECTION('ref_axis',(1.,0.,0.));
#629=DIRECTION('center_axis',(0.,0.,-1.));
#630=DIRECTION('ref_axis',(-1.,0.,0.));
#631=DIRECTION('',(0.,0.,1.));
#632=DIRECTION('center_axis',(0.,0.,-1.));
#633=DIRECTION('ref_axis',(-1.,0.,0.));
#634=DIRECTION('center_axis',(0.,0.,1.));
#635=DIRECTION('ref_axis',(1.,0.,0.));
#636=DIRECTION('center_axis',(0.,0.,-1.));
#637=DIRECTION('ref_axis',(-1.,0.,0.));
#638=DIRECTION('',(0.,0.,1.));
#639=DIRECTION('center_axis',(0.,0.,-1.));
#640=DIRECTION('ref_axis',(-1.,0.,0.));
#641=DIRECTION('center_axis',(0.,0.,1.));
#642=DIRECTION('ref_axis',(1.,0.,0.));
#643=DIRECTION('center_axis',(0.,0.,-1.));
#644=DIRECTION('ref_axis',(-1.,0.,0.));
#645=DIRECTION('',(0.,0.,1.));
#646=DIRECTION('center_axis',(0.,0.,-1.));
#647=DIRECTION('ref_axis',(-1.,0.,0.));
#648=DIRECTION('center_axis',(0.,0.,1.));
#649=DIRECTION('ref_axis',(1.,0.,0.));
#650=DIRECTION('center_axis',(0.,0.,-1.));
#651=DIRECTION('ref_axis',(-1.,0.,0.));
#652=DIRECTION('',(0.,0.,1.));
#653=DIRECTION('center_axis',(0.,0.,-1.));
#654=DIRECTION('ref_axis',(-1.,0.,0.));
#655=DIRECTION('center_axis',(0.,-1.,0.));
#656=DIRECTION('ref_axis',(0.,0.,-1.));
#657=DIRECTION('center_axis',(0.,1.,0.));
#658=DIRECTION('ref_axis',(0.,0.,1.));
#659=DIRECTION('',(0.,-1.,0.));
#660=DIRECTION('center_axis',(0.,1.,0.));
#661=DIRECTION('ref_axis',(0.,0.,1.));
#662=DIRECTION('center_axis',(0.,-1.,0.));
#663=DIRECTION('ref_axis',(0.,0.,-1.));
#664=DIRECTION('center_axis',(0.,1.,0.));
#665=DIRECTION('ref_axis',(0.,0.,1.));
#666=DIRECTION('',(0.,-1.,0.));
#667=DIRECTION('center_axis',(0.,1.,0.));
#668=DIRECTION('ref_axis',(0.,0.,1.));
#669=DIRECTION('center_axis',(0.,-1.,0.));
#670=DIRECTION('ref_axis',(0.,0.,-1.));
#671=DIRECTION('center_axis',(0.,1.,0.));
#672=DIRECTION('ref_axis',(0.,0.,1.));
#673=DIRECTION('',(0.,-1.,0.));
#674=DIRECTION('center_axis',(0.,1.,0.));
#675=DIRECTION('ref_axis',(0.,0.,1.));
#676=DIRECTION('center_axis',(0.,-1.,0.));
#677=DIRECTION('ref_axis',(0.,0.,-1.));
#678=DIRECTION('center_axis',(0.,1.,0.));
#679=DIRECTION('ref_axis',(0.,0.,1.));
#680=DIRECTION('',(0.,-1.,0.));
#681=DIRECTION('center_axis',(0.,1.,0.));
#682=DIRECTION('ref_axis',(0.,0.,1.));
#683=DIRECTION('center_axis',(0.,1.,0.));
#684=DIRECTION('ref_axis',(0.,0.,1.));
#685=DIRECTION('',(1.75668200098917E-16,0.,-1.));
#686=DIRECTION('',(-1.,0.,0.));
#687=DIRECTION('',(1.75668200098917E-16,0.,1.));
#688=DIRECTION('center_axis',(0.,1.,0.));
#689=DIRECTION('ref_axis',(0.,0.,1.));
#690=DIRECTION('',(1.,0.,0.));
#691=DIRECTION('center_axis',(0.,1.,0.));
#692=DIRECTION('ref_axis',(0.,0.,1.));
#693=DIRECTION('center_axis',(0.,1.,0.));
#694=DIRECTION('ref_axis',(0.,0.,1.));
#695=DIRECTION('',(1.75668200098917E-16,0.,1.));
#696=DIRECTION('',(1.,0.,0.));
#697=DIRECTION('',(1.75668200098917E-16,0.,-1.));
#698=DIRECTION('center_axis',(0.,-1.,0.));
#699=DIRECTION('ref_axis',(-3.46944695195362E-15,0.,1.));
#700=DIRECTION('',(1.,0.,0.));
#701=DIRECTION('center_axis',(0.,-1.,0.));
#702=DIRECTION('ref_axis',(0.,0.,1.));
#703=DIRECTION('center_axis',(1.,0.,-1.75668200098917E-16));
#704=DIRECTION('ref_axis',(-1.75668200098917E-16,0.,-1.));
#705=DIRECTION('',(0.,1.,0.));
#706=DIRECTION('center_axis',(-1.,0.,1.75668200098917E-16));
#707=DIRECTION('ref_axis',(-1.75668200098917E-16,0.,-1.));
#708=DIRECTION('',(0.,1.,0.));
#709=DIRECTION('center_axis',(1.,0.,-1.75668200098917E-16));
#710=DIRECTION('ref_axis',(-1.75668200098917E-16,0.,-1.));
#711=DIRECTION('',(0.,1.,0.));
#712=DIRECTION('',(0.,0.,1.));
#713=DIRECTION('center_axis',(0.,0.,-1.));
#714=DIRECTION('ref_axis',(-1.,0.,0.));
#715=DIRECTION('',(0.,-1.,0.));
#716=DIRECTION('',(0.,1.,0.));
#717=DIRECTION('center_axis',(-1.,0.,-1.75668200098917E-16));
#718=DIRECTION('ref_axis',(-1.75668200098917E-16,0.,1.));
#719=DIRECTION('center_axis',(1.,0.,1.75668200098917E-16));
#720=DIRECTION('ref_axis',(-1.75668200098917E-16,0.,1.));
#721=DIRECTION('',(0.,-1.,0.));
#722=DIRECTION('',(0.,0.,1.));
#723=DIRECTION('',(0.,-1.,0.));
#724=DIRECTION('center_axis',(-1.,0.,-1.75668200098917E-16));
#725=DIRECTION('ref_axis',(-1.75668200098917E-16,0.,1.));
#726=DIRECTION('',(0.,-1.,0.));
#727=DIRECTION('center_axis',(0.,0.,1.));
#728=DIRECTION('ref_axis',(1.,0.,0.));
#729=DIRECTION('',(1.,0.,0.));
#730=DIRECTION('center_axis',(0.,0.,-1.));
#731=DIRECTION('ref_axis',(1.,0.,0.));
#732=DIRECTION('',(3.09772049281573E-16,1.,0.));
#733=DIRECTION('center_axis',(0.,0.,-1.));
#734=DIRECTION('ref_axis',(-1.,0.,0.));
#735=DIRECTION('',(-3.09772049281573E-16,-1.,0.));
#736=DIRECTION('center_axis',(0.,0.,-1.));
#737=DIRECTION('ref_axis',(-1.,0.,0.));
#738=DIRECTION('center_axis',(0.,0.,1.));
#739=DIRECTION('ref_axis',(1.,0.,0.));
#740=DIRECTION('',(-1.,0.,0.));
#741=DIRECTION('center_axis',(0.,0.,-1.));
#742=DIRECTION('ref_axis',(1.,0.,0.));
#743=DIRECTION('center_axis',(0.,0.,-1.));
#744=DIRECTION('ref_axis',(-1.,0.,0.));
#745=DIRECTION('',(3.09772049281573E-16,1.,0.));
#746=DIRECTION('center_axis',(0.,0.,-1.));
#747=DIRECTION('ref_axis',(-1.,0.,0.));
#748=DIRECTION('',(-3.09772049281573E-16,-1.,0.));
#749=DIRECTION('center_axis',(0.,0.,1.));
#750=DIRECTION('ref_axis',(1.,0.,0.));
#751=DIRECTION('center_axis',(0.,0.,1.));
#752=DIRECTION('ref_axis',(1.,0.,0.));
#753=DIRECTION('',(0.,0.,1.));
#754=DIRECTION('',(0.,0.,1.));
#755=DIRECTION('center_axis',(-1.,3.09772049281573E-16,0.));
#756=DIRECTION('ref_axis',(-3.09772049281573E-16,-1.,0.));
#757=DIRECTION('',(0.,0.,1.));
#758=DIRECTION('center_axis',(0.,0.,1.));
#759=DIRECTION('ref_axis',(1.,0.,0.));
#760=DIRECTION('',(0.,0.,1.));
#761=DIRECTION('center_axis',(1.,-3.09772049281573E-16,0.));
#762=DIRECTION('ref_axis',(3.09772049281573E-16,1.,0.));
#763=DIRECTION('center_axis',(0.,-1.,0.));
#764=DIRECTION('ref_axis',(0.,0.,-1.));
#765=DIRECTION('center_axis',(0.,-1.,0.));
#766=DIRECTION('ref_axis',(0.,0.,-1.));
#767=DIRECTION('center_axis',(-1.,0.,0.));
#768=DIRECTION('ref_axis',(0.,0.,1.));
#769=DIRECTION('center_axis',(1.,0.,0.));
#770=DIRECTION('ref_axis',(0.,0.,-1.));
#771=CARTESIAN_POINT('',(0.,0.,0.));
#772=CARTESIAN_POINT('Origin',(7.75,13.0766062413412,-21.));
#773=CARTESIAN_POINT('',(6.15,13.0766062413412,-21.));
#774=CARTESIAN_POINT('Origin',(7.75,13.0766062413412,-21.));
#775=CARTESIAN_POINT('',(6.15,13.0766062413412,-19.5));
#776=CARTESIAN_POINT('',(6.15,13.0766062413412,-21.));
#777=CARTESIAN_POINT('Origin',(7.75,13.0766062413412,-19.5));
#778=CARTESIAN_POINT('Origin',(-7.75,13.0766062413412,-21.));
#779=CARTESIAN_POINT('',(-9.35,13.0766062413412,-21.));
#780=CARTESIAN_POINT('Origin',(-7.75,13.0766062413412,-21.));
#781=CARTESIAN_POINT('',(-9.35,13.0766062413412,-19.5));
#782=CARTESIAN_POINT('',(-9.35,13.0766062413412,-21.));
#783=CARTESIAN_POINT('Origin',(-7.75,13.0766062413412,-19.5));
#784=CARTESIAN_POINT('Origin',(-15.5,26.5,-21.));
#785=CARTESIAN_POINT('',(-17.1,26.5,-21.));
#786=CARTESIAN_POINT('Origin',(-15.5,26.5,-21.));
#787=CARTESIAN_POINT('',(-17.1,26.5,-19.5));
#788=CARTESIAN_POINT('',(-17.1,26.5,-21.));
#789=CARTESIAN_POINT('Origin',(-15.5,26.5,-19.5));
#790=CARTESIAN_POINT('Origin',(-7.75,39.9233937586588,-21.));
#791=CARTESIAN_POINT('',(-9.35,39.9233937586588,-21.));
#792=CARTESIAN_POINT('Origin',(-7.75,39.9233937586588,-21.));
#793=CARTESIAN_POINT('',(-9.35,39.9233937586588,-19.5));
#794=CARTESIAN_POINT('',(-9.35,39.9233937586588,-21.));
#795=CARTESIAN_POINT('Origin',(-7.75,39.9233937586588,-19.5));
#796=CARTESIAN_POINT('Origin',(7.74999999999999,39.9233937586588,-21.));
#797=CARTESIAN_POINT('',(6.15,39.9233937586588,-21.));
#798=CARTESIAN_POINT('Origin',(7.74999999999999,39.9233937586588,-21.));
#799=CARTESIAN_POINT('',(6.15,39.9233937586588,-19.5));
#800=CARTESIAN_POINT('',(6.15,39.9233937586588,-21.));
#801=CARTESIAN_POINT('Origin',(7.74999999999999,39.9233937586588,-19.5));
#802=CARTESIAN_POINT('Origin',(15.5,26.5,-21.));
#803=CARTESIAN_POINT('',(13.9,26.5,-21.));
#804=CARTESIAN_POINT('Origin',(15.5,26.5,-21.));
#805=CARTESIAN_POINT('',(13.9,26.5,-19.5));
#806=CARTESIAN_POINT('',(13.9,26.5,-21.));
#807=CARTESIAN_POINT('Origin',(15.5,26.5,-19.5));
#808=CARTESIAN_POINT('Origin',(-15.,1.5,-12.));
#809=CARTESIAN_POINT('',(-15.,1.5,-10.5));
#810=CARTESIAN_POINT('Origin',(-15.,1.5,-12.));
#811=CARTESIAN_POINT('',(-15.,0.,-10.5));
#812=CARTESIAN_POINT('',(-15.,1.5,-10.5));
#813=CARTESIAN_POINT('Origin',(-15.,0.,-12.));
#814=CARTESIAN_POINT('Origin',(15.,1.5,-12.));
#815=CARTESIAN_POINT('',(15.,1.5,-10.5));
#816=CARTESIAN_POINT('Origin',(15.,1.5,-12.));
#817=CARTESIAN_POINT('',(15.,0.,-10.5));
#818=CARTESIAN_POINT('',(15.,1.5,-10.5));
#819=CARTESIAN_POINT('Origin',(15.,0.,-12.));
#820=CARTESIAN_POINT('Origin',(-15.,1.5,12.));
#821=CARTESIAN_POINT('',(-15.,1.5,13.5));
#822=CARTESIAN_POINT('Origin',(-15.,1.5,12.));
#823=CARTESIAN_POINT('',(-15.,0.,13.5));
#824=CARTESIAN_POINT('',(-15.,1.5,13.5));
#825=CARTESIAN_POINT('Origin',(-15.,0.,12.));
#826=CARTESIAN_POINT('Origin',(15.,1.5,12.));
#827=CARTESIAN_POINT('',(15.,1.5,13.5));
#828=CARTESIAN_POINT('Origin',(15.,1.5,12.));
#829=CARTESIAN_POINT('',(15.,0.,13.5));
#830=CARTESIAN_POINT('',(15.,1.5,13.5));
#831=CARTESIAN_POINT('Origin',(15.,0.,12.));
#832=CARTESIAN_POINT('Origin',(0.,1.5,0.));
#833=CARTESIAN_POINT('',(20.,1.5,17.));
#834=CARTESIAN_POINT('',(20.,1.5,-19.));
#835=CARTESIAN_POINT('',(20.,1.5,-19.5));
#836=CARTESIAN_POINT('',(-20.,1.5,-19.));
#837=CARTESIAN_POINT('',(-20.,1.5,-19.));
#838=CARTESIAN_POINT('',(-20.,1.5,17.));
#839=CARTESIAN_POINT('',(-20.,1.5,-19.5));
#840=CARTESIAN_POINT('',(-17.,1.5,20.));
#841=CARTESIAN_POINT('Origin',(-17.,1.5,17.));
#842=CARTESIAN_POINT('',(17.,1.5,20.));
#843=CARTESIAN_POINT('',(-20.,1.5,20.));
#844=CARTESIAN_POINT('Origin',(17.,1.5,17.));
#845=CARTESIAN_POINT('Origin',(0.,0.,0.));
#846=CARTESIAN_POINT('',(-20.,0.,-20.));
#847=CARTESIAN_POINT('',(-20.,0.,17.));
#848=CARTESIAN_POINT('',(-20.,0.,-19.5));
#849=CARTESIAN_POINT('',(20.,0.,-20.));
#850=CARTESIAN_POINT('',(0.,0.,-20.));
#851=CARTESIAN_POINT('',(20.,0.,17.));
#852=CARTESIAN_POINT('',(20.,0.,-19.5));
#853=CARTESIAN_POINT('',(17.,0.,20.));
#854=CARTESIAN_POINT('Origin',(17.,0.,17.));
#855=CARTESIAN_POINT('',(-17.,0.,20.));
#856=CARTESIAN_POINT('',(-20.,0.,20.));
#857=CARTESIAN_POINT('Origin',(-17.,0.,17.));
#858=CARTESIAN_POINT('Origin',(-20.,1.5,-19.5));
#859=CARTESIAN_POINT('',(-20.,1.,-21.));
#860=CARTESIAN_POINT('',(-20.,26.5,-21.));
#861=CARTESIAN_POINT('',(-20.,0.,-21.));
#862=CARTESIAN_POINT('Origin',(-20.,1.,-20.));
#863=CARTESIAN_POINT('',(-20.,1.5,17.));
#864=CARTESIAN_POINT('',(-20.,2.,-19.5));
#865=CARTESIAN_POINT('Origin',(-20.,2.,-19.));
#866=CARTESIAN_POINT('',(-20.,26.5,-19.5));
#867=CARTESIAN_POINT('',(-20.,0.,-19.5));
#868=CARTESIAN_POINT('',(-20.,26.5,-21.));
#869=CARTESIAN_POINT('Origin',(-20.,1.5,20.));
#870=CARTESIAN_POINT('',(-17.,1.5,20.));
#871=CARTESIAN_POINT('',(17.,1.5,20.));
#872=CARTESIAN_POINT('Origin',(20.,1.5,-19.5));
#873=CARTESIAN_POINT('',(20.,1.,-21.));
#874=CARTESIAN_POINT('Origin',(20.,1.,-20.));
#875=CARTESIAN_POINT('',(20.,26.5,-21.));
#876=CARTESIAN_POINT('',(20.,26.5,-21.));
#877=CARTESIAN_POINT('',(20.,26.5,-19.5));
#878=CARTESIAN_POINT('',(20.,26.5,-21.));
#879=CARTESIAN_POINT('',(20.,2.,-19.5));
#880=CARTESIAN_POINT('',(20.,26.5,-19.5));
#881=CARTESIAN_POINT('Origin',(20.,2.,-19.));
#882=CARTESIAN_POINT('',(20.,1.5,17.));
#883=CARTESIAN_POINT('Origin',(0.,26.5,-19.5));
#884=CARTESIAN_POINT('',(20.,2.,-19.5));
#885=CARTESIAN_POINT('Origin',(0.,26.5,-19.5));
#886=CARTESIAN_POINT('',(-6.5,19.5,-19.5));
#887=CARTESIAN_POINT('',(-6.5,33.5,-19.5));
#888=CARTESIAN_POINT('',(-6.5,33.5,-19.5));
#889=CARTESIAN_POINT('',(6.5,33.5,-19.5));
#890=CARTESIAN_POINT('Origin',(2.50415608894009E-15,33.5,-19.5));
#891=CARTESIAN_POINT('',(6.5,19.5,-19.5));
#892=CARTESIAN_POINT('',(6.5,33.5,-19.5));
#893=CARTESIAN_POINT('Origin',(-1.78210770807565E-15,19.5,-19.5));
#894=CARTESIAN_POINT('Origin',(0.,26.5,-21.));
#895=CARTESIAN_POINT('',(0.,1.,-21.));
#896=CARTESIAN_POINT('Origin',(0.,26.5,-21.));
#897=CARTESIAN_POINT('',(-6.5,33.5,-21.));
#898=CARTESIAN_POINT('',(6.5,33.5,-21.));
#899=CARTESIAN_POINT('Origin',(2.50415608894009E-15,33.5,-21.));
#900=CARTESIAN_POINT('',(-6.5,19.5,-21.));
#901=CARTESIAN_POINT('',(-6.5,33.5,-21.));
#902=CARTESIAN_POINT('',(6.5,19.5,-21.));
#903=CARTESIAN_POINT('Origin',(-1.78210770807565E-15,19.5,-21.));
#904=CARTESIAN_POINT('',(6.5,33.5,-21.));
#905=CARTESIAN_POINT('Origin',(0.,26.5,-21.));
#906=CARTESIAN_POINT('Origin',(2.50415608894009E-15,33.5,-21.));
#907=CARTESIAN_POINT('',(-6.5,33.5,-21.));
#908=CARTESIAN_POINT('',(6.5,33.5,-21.));
#909=CARTESIAN_POINT('Origin',(6.5,33.5,-21.));
#910=CARTESIAN_POINT('',(6.5,19.5,-21.));
#911=CARTESIAN_POINT('Origin',(-1.78210770807565E-15,19.5,-21.));
#912=CARTESIAN_POINT('',(-6.5,19.5,-21.));
#913=CARTESIAN_POINT('Origin',(-6.5,33.5,-21.));
#914=CARTESIAN_POINT('Origin',(-17.,1.5,17.));
#915=CARTESIAN_POINT('Origin',(17.,1.5,17.));
#916=CARTESIAN_POINT('Origin',(0.,1.,-20.));
#917=CARTESIAN_POINT('Origin',(0.,2.,-19.));
#918=UNCERTAINTY_MEASURE_WITH_UNIT(LENGTH_MEASURE(0.01),#922,
'DISTANCE_ACCURACY_VALUE',
'Maximum model space distance between geometric entities at asserted c
onnectivities');
#919=UNCERTAINTY_MEASURE_WITH_UNIT(LENGTH_MEASURE(0.01),#922,
'DISTANCE_ACCURACY_VALUE',
'Maximum model space distance between geometric entities at asserted c
onnectivities');
#920=(
GEOMETRIC_REPRESENTATION_CONTEXT(3)
GLOBAL_UNCERTAINTY_ASSIGNED_CONTEXT((#918))
GLOBAL_UNIT_ASSIGNED_CONTEXT((#922,#924,#925))
REPRESENTATION_CONTEXT('','3D')
);
#921=(
GEOMETRIC_REPRESENTATION_CONTEXT(3)
GLOBAL_UNCERTAINTY_ASSIGNED_CONTEXT((#919))
GLOBAL_UNIT_ASSIGNED_CONTEXT((#922,#924,#925))
REPRESENTATION_CONTEXT('','3D')
);
#922=(
LENGTH_UNIT()
NAMED_UNIT(*)
SI_UNIT(.MILLI.,.METRE.)
);
#923=(
LENGTH_UNIT()
NAMED_UNIT(*)
SI_UNIT($,.METRE.)
);
#924=(
NAMED_UNIT(*)
PLANE_ANGLE_UNIT()
SI_UNIT($,.RADIAN.)
);
#925=(
NAMED_UNIT(*)
SI_UNIT($,.STERADIAN.)
SOLID_ANGLE_UNIT()
);
#926=SHAPE_DEFINITION_REPRESENTATION(#927,#928);
#927=PRODUCT_DEFINITION_SHAPE('',$,#930);
#928=SHAPE_REPRESENTATION('',(#550),#920);
#929=PRODUCT_DEFINITION_CONTEXT('part definition',#934,'design');
#930=PRODUCT_DEFINITION('37\X2\7535673A652F67B6\X0\',
'\X2\65B0\X0\37\X2\7535673A652F67B6\X0\',#931,#929);
#931=PRODUCT_DEFINITION_FORMATION('',$,#936);
#932=PRODUCT_RELATED_PRODUCT_CATEGORY('\X2\65B0\X0\37\X2\7535673A652F67B6\X0\',
'\X2\65B0\X0\37\X2\7535673A652F67B6\X0\',(#936));
#933=APPLICATION_PROTOCOL_DEFINITION('international standard',
'automotive_design',2009,#934);
#934=APPLICATION_CONTEXT(
'Core Data for Automotive Mechanical Design Process');
#935=PRODUCT_CONTEXT('part definition',#934,'mechanical');
#936=PRODUCT('37\X2\7535673A652F67B6\X0\','\X2\65B0\X0\37\X2\7535673A652F67B6\X0\',
'STEP AP214',(#935));
#937=PRESENTATION_STYLE_ASSIGNMENT((#939));
#938=PRESENTATION_STYLE_ASSIGNMENT((#940));
#939=SURFACE_STYLE_USAGE(.BOTH.,#941);
#940=SURFACE_STYLE_USAGE(.BOTH.,#942);
#941=SURFACE_SIDE_STYLE('',(#943));
#942=SURFACE_SIDE_STYLE('',(#944));
#943=SURFACE_STYLE_FILL_AREA(#945);
#944=SURFACE_STYLE_FILL_AREA(#946);
#945=FILL_AREA_STYLE('\X2\94A2\X0\ - \X2\7F0E5149\X0\',(#947));
#946=FILL_AREA_STYLE('Opaque(38,38,38)',(#948));
#947=FILL_AREA_STYLE_COLOUR('\X2\94A2\X0\ - \X2\7F0E5149\X0\',#949);
#948=FILL_AREA_STYLE_COLOUR('Opaque(38,38,38)',#950);
#949=COLOUR_RGB('\X2\94A2\X0\ - \X2\7F0E5149\X0\',0.627450980392157,0.627450980392157,
0.627450980392157);
#950=COLOUR_RGB('Opaque(38,38,38)',0.149019607843137,0.149019607843137,
0.149019607843137);
ENDSEC;
END-ISO-10303-21;
