ISO-10303-21;
HEADER;
/* Generated by software containing ST-Developer
 * from STEP Tools, Inc. (www.steptools.com) 
 */

FILE_DESCRIPTION(
/* description */ ('STEP AP214'),
/* implementation_level */ '2;1');

FILE_NAME(
/* name */ '',
/* time_stamp */ '2026-08-17T23:23:10+08:00',
/* author */ (''),
/* organization */ (''),
/* preprocessor_version */ 'ST-DEVELOPER v20.1',
/* originating_system */ 'Autodesk Translation Framework v15.8.0.0',
/* authorisation */ '');

FILE_SCHEMA (('AUTOMOTIVE_DESIGN { 1 0 10303 214 3 1 1 }'));
ENDSEC;

DATA;
#10=MECHANICAL_DESIGN_GEOMETRIC_PRESENTATION_REPRESENTATION('',(#13),#507);
#11=SHAPE_REPRESENTATION_RELATIONSHIP('SRR','None',#514,#12);
#12=ADVANCED_BREP_SHAPE_REPRESENTATION('',(#14),#506);
#13=STYLED_ITEM('',(#524),#14);
#14=MANIFOLD_SOLID_BREP('\X2\5B9E4F53\X0\1',#263);
#15=PLANE('',#287);
#16=PLANE('',#288);
#17=PLANE('',#289);
#18=PLANE('',#290);
#19=PLANE('',#291);
#20=PLANE('',#292);
#21=PLANE('',#293);
#22=PLANE('',#294);
#23=PLANE('',#295);
#24=PLANE('',#296);
#25=FACE_BOUND('',#54,.T.);
#26=FACE_BOUND('',#56,.T.);
#27=FACE_BOUND('',#58,.T.);
#28=FACE_BOUND('',#66,.T.);
#29=FACE_BOUND('',#68,.T.);
#30=CIRCLE('',#279,2.);
#31=CIRCLE('',#280,2.);
#32=CIRCLE('',#282,3.);
#33=CIRCLE('',#283,3.);
#34=CIRCLE('',#285,5.5);
#35=CIRCLE('',#286,5.5);
#36=FACE_OUTER_BOUND('',#50,.T.);
#37=FACE_OUTER_BOUND('',#51,.T.);
#38=FACE_OUTER_BOUND('',#52,.T.);
#39=FACE_OUTER_BOUND('',#53,.T.);
#40=FACE_OUTER_BOUND('',#55,.T.);
#41=FACE_OUTER_BOUND('',#57,.T.);
#42=FACE_OUTER_BOUND('',#59,.T.);
#43=FACE_OUTER_BOUND('',#60,.T.);
#44=FACE_OUTER_BOUND('',#61,.T.);
#45=FACE_OUTER_BOUND('',#62,.T.);
#46=FACE_OUTER_BOUND('',#63,.T.);
#47=FACE_OUTER_BOUND('',#64,.T.);
#48=FACE_OUTER_BOUND('',#65,.T.);
#49=FACE_OUTER_BOUND('',#67,.T.);
#50=EDGE_LOOP('',(#177,#178,#179,#180,#181,#182,#183));
#51=EDGE_LOOP('',(#184,#185,#186,#187));
#52=EDGE_LOOP('',(#188,#189,#190,#191,#192,#193,#194,#195,#196));
#53=EDGE_LOOP('',(#197,#198,#199,#200));
#54=EDGE_LOOP('',(#201,#202));
#55=EDGE_LOOP('',(#203,#204,#205,#206,#207,#208));
#56=EDGE_LOOP('',(#209));
#57=EDGE_LOOP('',(#210,#211,#212,#213,#214,#215));
#58=EDGE_LOOP('',(#216));
#59=EDGE_LOOP('',(#217,#218,#219,#220));
#60=EDGE_LOOP('',(#221,#222,#223,#224));
#61=EDGE_LOOP('',(#225,#226,#227,#228));
#62=EDGE_LOOP('',(#229,#230,#231,#232));
#63=EDGE_LOOP('',(#233,#234,#235,#236));
#64=EDGE_LOOP('',(#237,#238,#239,#240));
#65=EDGE_LOOP('',(#241));
#66=EDGE_LOOP('',(#242));
#67=EDGE_LOOP('',(#243));
#68=EDGE_LOOP('',(#244));
#69=LINE('',#404,#92);
#70=LINE('',#449,#93);
#71=LINE('',#454,#94);
#72=LINE('',#456,#95);
#73=LINE('',#462,#96);
#74=LINE('',#467,#97);
#75=LINE('',#469,#98);
#76=LINE('',#471,#99);
#77=LINE('',#473,#100);
#78=LINE('',#475,#101);
#79=LINE('',#476,#102);
#80=LINE('',#480,#103);
#81=LINE('',#482,#104);
#82=LINE('',#484,#105);
#83=LINE('',#486,#106);
#84=LINE('',#488,#107);
#85=LINE('',#489,#108);
#86=LINE('',#491,#109);
#87=LINE('',#492,#110);
#88=LINE('',#494,#111);
#89=LINE('',#496,#112);
#90=LINE('',#498,#113);
#91=LINE('',#500,#114);
#92=VECTOR('',#301,1.5);
#93=VECTOR('',#306,2.);
#94=VECTOR('',#313,3.);
#95=VECTOR('',#314,3.);
#96=VECTOR('',#321,5.5);
#97=VECTOR('',#326,1000.);
#98=VECTOR('',#327,1000.);
#99=VECTOR('',#328,1000.);
#100=VECTOR('',#329,1000.);
#101=VECTOR('',#330,1000.);
#102=VECTOR('',#331,1000.);
#103=VECTOR('',#334,1000.);
#104=VECTOR('',#335,1000.);
#105=VECTOR('',#336,1000.);
#106=VECTOR('',#337,1000.);
#107=VECTOR('',#338,1000.);
#108=VECTOR('',#339,1000.);
#109=VECTOR('',#342,1000.);
#110=VECTOR('',#343,1000.);
#111=VECTOR('',#346,1000.);
#112=VECTOR('',#349,1000.);
#113=VECTOR('',#352,1000.);
#114=VECTOR('',#355,1000.);
#115=B_SPLINE_CURVE_WITH_KNOTS('',3,(#366,#367,#368,#369,#370,#371,#372,
#373,#374,#375),.UNSPECIFIED.,.F.,.F.,(4,2,2,2,4),(0.454516960257271,0.511337272141268,
0.568157584025265,0.624966512205585,0.681775440385906),.UNSPECIFIED.);
#116=B_SPLINE_CURVE_WITH_KNOTS('',3,(#376,#377,#378,#379,#380,#381,#382,
#383,#384,#385,#386,#387,#388,#389,#390,#391,#392,#393,#394,#395,#396,#397,
#398,#399,#400,#401,#402),.UNSPECIFIED.,.F.,.F.,(4,2,2,2,3,2,2,2,2,2,2,
2,4),(-0.227258480128635,-0.170449551948315,-0.113640623767994,-0.0568203118839971,
0.,0.0568203118839972,0.113640623767994,0.170449551948315,0.227258480128635,
0.284067408308956,0.340876336489276,0.397696648373273,0.454516960257271),
 .UNSPECIFIED.);
#117=B_SPLINE_CURVE_WITH_KNOTS('',3,(#406,#407,#408,#409,#410,#411,#412,
#413,#414,#415),.UNSPECIFIED.,.F.,.F.,(4,2,2,2,4),(0.,0.057737280132221,
0.115474560264442,0.173054445763352,0.230634331262262),.UNSPECIFIED.);
#118=B_SPLINE_CURVE_WITH_KNOTS('',3,(#417,#418,#419,#420,#421,#422,#423,
#424,#425,#426,#427,#428,#429,#430,#431,#432,#433,#434),.UNSPECIFIED.,.F.,
 .F.,(4,2,2,2,2,2,2,2,4),(-0.691902993786786,-0.634323108287876,-0.576743222788966,
-0.519005942656745,-0.461268662524524,-0.403531382392303,-0.345794102260082,
-0.288214216761172,-0.230634331262262),.UNSPECIFIED.);
#119=B_SPLINE_CURVE_WITH_KNOTS('',3,(#435,#436,#437,#438,#439,#440,#441,
#442,#443,#444),.UNSPECIFIED.,.F.,.F.,(4,2,2,2,4),(-0.230634331262262,-0.173054445763352,
-0.115474560264442,-0.057737280132221,0.),.UNSPECIFIED.);
#120=VERTEX_POINT('',#364);
#121=VERTEX_POINT('',#365);
#122=VERTEX_POINT('',#403);
#123=VERTEX_POINT('',#405);
#124=VERTEX_POINT('',#416);
#125=VERTEX_POINT('',#446);
#126=VERTEX_POINT('',#448);
#127=VERTEX_POINT('',#452);
#128=VERTEX_POINT('',#455);
#129=VERTEX_POINT('',#459);
#130=VERTEX_POINT('',#461);
#131=VERTEX_POINT('',#465);
#132=VERTEX_POINT('',#466);
#133=VERTEX_POINT('',#468);
#134=VERTEX_POINT('',#470);
#135=VERTEX_POINT('',#472);
#136=VERTEX_POINT('',#474);
#137=VERTEX_POINT('',#478);
#138=VERTEX_POINT('',#479);
#139=VERTEX_POINT('',#481);
#140=VERTEX_POINT('',#483);
#141=VERTEX_POINT('',#485);
#142=VERTEX_POINT('',#487);
#143=EDGE_CURVE('',#120,#121,#115,.F.);
#144=EDGE_CURVE('',#121,#120,#116,.F.);
#145=EDGE_CURVE('',#121,#122,#69,.T.);
#146=EDGE_CURVE('',#122,#123,#117,.T.);
#147=EDGE_CURVE('',#123,#124,#118,.T.);
#148=EDGE_CURVE('',#124,#122,#119,.T.);
#149=EDGE_CURVE('',#125,#125,#30,.T.);
#150=EDGE_CURVE('',#125,#126,#70,.T.);
#151=EDGE_CURVE('',#126,#126,#31,.T.);
#152=EDGE_CURVE('',#127,#127,#32,.T.);
#153=EDGE_CURVE('',#127,#124,#71,.T.);
#154=EDGE_CURVE('',#123,#128,#72,.T.);
#155=EDGE_CURVE('',#128,#128,#33,.T.);
#156=EDGE_CURVE('',#129,#129,#34,.T.);
#157=EDGE_CURVE('',#129,#130,#73,.T.);
#158=EDGE_CURVE('',#130,#130,#35,.T.);
#159=EDGE_CURVE('',#131,#132,#74,.T.);
#160=EDGE_CURVE('',#132,#133,#75,.T.);
#161=EDGE_CURVE('',#133,#134,#76,.T.);
#162=EDGE_CURVE('',#134,#135,#77,.T.);
#163=EDGE_CURVE('',#135,#136,#78,.T.);
#164=EDGE_CURVE('',#136,#131,#79,.T.);
#165=EDGE_CURVE('',#137,#138,#80,.T.);
#166=EDGE_CURVE('',#139,#137,#81,.T.);
#167=EDGE_CURVE('',#140,#139,#82,.T.);
#168=EDGE_CURVE('',#141,#140,#83,.T.);
#169=EDGE_CURVE('',#142,#141,#84,.T.);
#170=EDGE_CURVE('',#138,#142,#85,.T.);
#171=EDGE_CURVE('',#132,#138,#86,.T.);
#172=EDGE_CURVE('',#131,#137,#87,.T.);
#173=EDGE_CURVE('',#133,#142,#88,.T.);
#174=EDGE_CURVE('',#134,#141,#89,.T.);
#175=EDGE_CURVE('',#135,#140,#90,.T.);
#176=EDGE_CURVE('',#136,#139,#91,.T.);
#177=ORIENTED_EDGE('',*,*,#143,.F.);
#178=ORIENTED_EDGE('',*,*,#144,.F.);
#179=ORIENTED_EDGE('',*,*,#145,.T.);
#180=ORIENTED_EDGE('',*,*,#146,.T.);
#181=ORIENTED_EDGE('',*,*,#147,.T.);
#182=ORIENTED_EDGE('',*,*,#148,.T.);
#183=ORIENTED_EDGE('',*,*,#145,.F.);
#184=ORIENTED_EDGE('',*,*,#149,.T.);
#185=ORIENTED_EDGE('',*,*,#150,.T.);
#186=ORIENTED_EDGE('',*,*,#151,.T.);
#187=ORIENTED_EDGE('',*,*,#150,.F.);
#188=ORIENTED_EDGE('',*,*,#152,.F.);
#189=ORIENTED_EDGE('',*,*,#153,.T.);
#190=ORIENTED_EDGE('',*,*,#147,.F.);
#191=ORIENTED_EDGE('',*,*,#154,.T.);
#192=ORIENTED_EDGE('',*,*,#155,.T.);
#193=ORIENTED_EDGE('',*,*,#154,.F.);
#194=ORIENTED_EDGE('',*,*,#146,.F.);
#195=ORIENTED_EDGE('',*,*,#148,.F.);
#196=ORIENTED_EDGE('',*,*,#153,.F.);
#197=ORIENTED_EDGE('',*,*,#156,.F.);
#198=ORIENTED_EDGE('',*,*,#157,.T.);
#199=ORIENTED_EDGE('',*,*,#158,.T.);
#200=ORIENTED_EDGE('',*,*,#157,.F.);
#201=ORIENTED_EDGE('',*,*,#143,.T.);
#202=ORIENTED_EDGE('',*,*,#144,.T.);
#203=ORIENTED_EDGE('',*,*,#159,.T.);
#204=ORIENTED_EDGE('',*,*,#160,.T.);
#205=ORIENTED_EDGE('',*,*,#161,.T.);
#206=ORIENTED_EDGE('',*,*,#162,.T.);
#207=ORIENTED_EDGE('',*,*,#163,.T.);
#208=ORIENTED_EDGE('',*,*,#164,.T.);
#209=ORIENTED_EDGE('',*,*,#149,.F.);
#210=ORIENTED_EDGE('',*,*,#165,.F.);
#211=ORIENTED_EDGE('',*,*,#166,.F.);
#212=ORIENTED_EDGE('',*,*,#167,.F.);
#213=ORIENTED_EDGE('',*,*,#168,.F.);
#214=ORIENTED_EDGE('',*,*,#169,.F.);
#215=ORIENTED_EDGE('',*,*,#170,.F.);
#216=ORIENTED_EDGE('',*,*,#156,.T.);
#217=ORIENTED_EDGE('',*,*,#165,.T.);
#218=ORIENTED_EDGE('',*,*,#171,.F.);
#219=ORIENTED_EDGE('',*,*,#159,.F.);
#220=ORIENTED_EDGE('',*,*,#172,.T.);
#221=ORIENTED_EDGE('',*,*,#170,.T.);
#222=ORIENTED_EDGE('',*,*,#173,.F.);
#223=ORIENTED_EDGE('',*,*,#160,.F.);
#224=ORIENTED_EDGE('',*,*,#171,.T.);
#225=ORIENTED_EDGE('',*,*,#169,.T.);
#226=ORIENTED_EDGE('',*,*,#174,.F.);
#227=ORIENTED_EDGE('',*,*,#161,.F.);
#228=ORIENTED_EDGE('',*,*,#173,.T.);
#229=ORIENTED_EDGE('',*,*,#168,.T.);
#230=ORIENTED_EDGE('',*,*,#175,.F.);
#231=ORIENTED_EDGE('',*,*,#162,.F.);
#232=ORIENTED_EDGE('',*,*,#174,.T.);
#233=ORIENTED_EDGE('',*,*,#167,.T.);
#234=ORIENTED_EDGE('',*,*,#176,.F.);
#235=ORIENTED_EDGE('',*,*,#163,.F.);
#236=ORIENTED_EDGE('',*,*,#175,.T.);
#237=ORIENTED_EDGE('',*,*,#166,.T.);
#238=ORIENTED_EDGE('',*,*,#172,.F.);
#239=ORIENTED_EDGE('',*,*,#164,.F.);
#240=ORIENTED_EDGE('',*,*,#176,.T.);
#241=ORIENTED_EDGE('',*,*,#158,.F.);
#242=ORIENTED_EDGE('',*,*,#155,.F.);
#243=ORIENTED_EDGE('',*,*,#152,.T.);
#244=ORIENTED_EDGE('',*,*,#151,.F.);
#245=CYLINDRICAL_SURFACE('',#277,1.5);
#246=CYLINDRICAL_SURFACE('',#278,2.);
#247=CYLINDRICAL_SURFACE('',#281,3.);
#248=CYLINDRICAL_SURFACE('',#284,5.5);
#249=ADVANCED_FACE('',(#36),#245,.F.);
#250=ADVANCED_FACE('',(#37),#246,.F.);
#251=ADVANCED_FACE('',(#38),#247,.F.);
#252=ADVANCED_FACE('',(#39,#25),#248,.T.);
#253=ADVANCED_FACE('',(#40,#26),#15,.T.);
#254=ADVANCED_FACE('',(#41,#27),#16,.F.);
#255=ADVANCED_FACE('',(#42),#17,.F.);
#256=ADVANCED_FACE('',(#43),#18,.F.);
#257=ADVANCED_FACE('',(#44),#19,.F.);
#258=ADVANCED_FACE('',(#45),#20,.F.);
#259=ADVANCED_FACE('',(#46),#21,.F.);
#260=ADVANCED_FACE('',(#47),#22,.F.);
#261=ADVANCED_FACE('',(#48,#28),#23,.F.);
#262=ADVANCED_FACE('',(#49,#29),#24,.T.);
#263=CLOSED_SHELL('',(#249,#250,#251,#252,#253,#254,#255,#256,#257,#258,
#259,#260,#261,#262));
#264=DERIVED_UNIT_ELEMENT(#266,1.);
#265=DERIVED_UNIT_ELEMENT(#509,-3.);
#266=(
MASS_UNIT()
NAMED_UNIT(*)
SI_UNIT(.KILO.,.GRAM.)
);
#267=DERIVED_UNIT((#264,#265));
#268=MEASURE_REPRESENTATION_ITEM('density measure',
POSITIVE_RATIO_MEASURE(7850.),#267);
#269=PROPERTY_DEFINITION_REPRESENTATION(#274,#271);
#270=PROPERTY_DEFINITION_REPRESENTATION(#275,#272);
#271=REPRESENTATION('material name',(#273),#506);
#272=REPRESENTATION('density',(#268),#506);
#273=DESCRIPTIVE_REPRESENTATION_ITEM('\X2\94A2\X0\','\X2\94A2\X0\');
#274=PROPERTY_DEFINITION('material property','material name',#516);
#275=PROPERTY_DEFINITION('material property','density of part',#516);
#276=AXIS2_PLACEMENT_3D('',#362,#297,#298);
#277=AXIS2_PLACEMENT_3D('',#363,#299,#300);
#278=AXIS2_PLACEMENT_3D('',#445,#302,#303);
#279=AXIS2_PLACEMENT_3D('',#447,#304,#305);
#280=AXIS2_PLACEMENT_3D('',#450,#307,#308);
#281=AXIS2_PLACEMENT_3D('',#451,#309,#310);
#282=AXIS2_PLACEMENT_3D('',#453,#311,#312);
#283=AXIS2_PLACEMENT_3D('',#457,#315,#316);
#284=AXIS2_PLACEMENT_3D('',#458,#317,#318);
#285=AXIS2_PLACEMENT_3D('',#460,#319,#320);
#286=AXIS2_PLACEMENT_3D('',#463,#322,#323);
#287=AXIS2_PLACEMENT_3D('',#464,#324,#325);
#288=AXIS2_PLACEMENT_3D('',#477,#332,#333);
#289=AXIS2_PLACEMENT_3D('',#490,#340,#341);
#290=AXIS2_PLACEMENT_3D('',#493,#344,#345);
#291=AXIS2_PLACEMENT_3D('',#495,#347,#348);
#292=AXIS2_PLACEMENT_3D('',#497,#350,#351);
#293=AXIS2_PLACEMENT_3D('',#499,#353,#354);
#294=AXIS2_PLACEMENT_3D('',#501,#356,#357);
#295=AXIS2_PLACEMENT_3D('',#502,#358,#359);
#296=AXIS2_PLACEMENT_3D('',#503,#360,#361);
#297=DIRECTION('axis',(0.,0.,1.));
#298=DIRECTION('refdir',(1.,0.,0.));
#299=DIRECTION('center_axis',(0.,0.,-1.));
#300=DIRECTION('ref_axis',(-1.,0.,0.));
#301=DIRECTION('',(0.,0.,-1.));
#302=DIRECTION('center_axis',(0.,-1.,0.));
#303=DIRECTION('ref_axis',(0.,0.,-1.));
#304=DIRECTION('center_axis',(0.,1.,0.));
#305=DIRECTION('ref_axis',(0.,0.,1.));
#306=DIRECTION('',(0.,-1.,0.));
#307=DIRECTION('center_axis',(0.,-1.,0.));
#308=DIRECTION('ref_axis',(0.,0.,-1.));
#309=DIRECTION('center_axis',(0.,-1.,0.));
#310=DIRECTION('ref_axis',(0.,0.,-1.));
#311=DIRECTION('center_axis',(0.,-1.,0.));
#312=DIRECTION('ref_axis',(0.,0.,-1.));
#313=DIRECTION('',(0.,-1.,0.));
#314=DIRECTION('',(0.,-1.,0.));
#315=DIRECTION('center_axis',(0.,-1.,0.));
#316=DIRECTION('ref_axis',(0.,0.,-1.));
#317=DIRECTION('center_axis',(0.,1.,0.));
#318=DIRECTION('ref_axis',(0.,0.,1.));
#319=DIRECTION('center_axis',(0.,1.,0.));
#320=DIRECTION('ref_axis',(0.,0.,1.));
#321=DIRECTION('',(0.,-1.,0.));
#322=DIRECTION('center_axis',(0.,1.,0.));
#323=DIRECTION('ref_axis',(0.,0.,1.));
#324=DIRECTION('center_axis',(0.,1.,0.));
#325=DIRECTION('ref_axis',(0.,0.,1.));
#326=DIRECTION('',(0.499999999999995,0.,-0.866025403784442));
#327=DIRECTION('',(-0.500000000000001,0.,-0.866025403784438));
#328=DIRECTION('',(-1.,0.,3.50540073038669E-15));
#329=DIRECTION('',(-0.499999999999995,0.,0.866025403784442));
#330=DIRECTION('',(0.500000000000007,0.,0.866025403784435));
#331=DIRECTION('',(1.,0.,-1.0391009307932E-14));
#332=DIRECTION('center_axis',(0.,1.,0.));
#333=DIRECTION('ref_axis',(0.,0.,1.));
#334=DIRECTION('',(0.499999999999995,0.,-0.866025403784442));
#335=DIRECTION('',(1.,0.,-1.0391009307932E-14));
#336=DIRECTION('',(0.500000000000007,0.,0.866025403784435));
#337=DIRECTION('',(-0.499999999999995,0.,0.866025403784442));
#338=DIRECTION('',(-1.,0.,3.50540073038669E-15));
#339=DIRECTION('',(-0.500000000000001,0.,-0.866025403784438));
#340=DIRECTION('center_axis',(-0.866025403784442,0.,-0.499999999999995));
#341=DIRECTION('ref_axis',(-0.499999999999995,0.,0.866025403784442));
#342=DIRECTION('',(0.,-1.,0.));
#343=DIRECTION('',(0.,-1.,0.));
#344=DIRECTION('center_axis',(-0.866025403784438,0.,0.500000000000001));
#345=DIRECTION('ref_axis',(0.500000000000001,0.,0.866025403784438));
#346=DIRECTION('',(0.,-1.,0.));
#347=DIRECTION('center_axis',(3.50540073038669E-15,0.,1.));
#348=DIRECTION('ref_axis',(1.,0.,-3.50540073038669E-15));
#349=DIRECTION('',(0.,-1.,0.));
#350=DIRECTION('center_axis',(0.866025403784442,0.,0.499999999999995));
#351=DIRECTION('ref_axis',(0.499999999999995,0.,-0.866025403784442));
#352=DIRECTION('',(0.,-1.,0.));
#353=DIRECTION('center_axis',(0.866025403784435,0.,-0.500000000000007));
#354=DIRECTION('ref_axis',(-0.500000000000007,0.,-0.866025403784435));
#355=DIRECTION('',(0.,-1.,0.));
#356=DIRECTION('center_axis',(-1.0391009307932E-14,0.,-1.));
#357=DIRECTION('ref_axis',(-1.,0.,1.0391009307932E-14));
#358=DIRECTION('center_axis',(0.,1.,0.));
#359=DIRECTION('ref_axis',(0.,0.,1.));
#360=DIRECTION('center_axis',(0.,-1.,0.));
#361=DIRECTION('ref_axis',(0.,0.,-1.));
#362=CARTESIAN_POINT('',(0.,0.,0.));
#363=CARTESIAN_POINT('Origin',(-1.30104260698261E-15,-6.,8.));
#364=CARTESIAN_POINT('',(3.93976068729099E-21,-4.5,5.5));
#365=CARTESIAN_POINT('',(1.5,-6.,5.29150262212918));
#366=CARTESIAN_POINT('Ctrl Pts',(1.5,-6.,5.29150262212918));
#367=CARTESIAN_POINT('Ctrl Pts',(1.5,-5.81059896038668,5.29150262212918));
#368=CARTESIAN_POINT('Ctrl Pts',(1.46195090261339,-5.60927259707902,5.30273310610877));
#369=CARTESIAN_POINT('Ctrl Pts',(1.30858296848408,-5.24001368131075,5.34264814911659));
#370=CARTESIAN_POINT('Ctrl Pts',(1.19331208379762,-5.07199174023798,5.37068733913148));
#371=CARTESIAN_POINT('Ctrl Pts',(0.92803483599873,-4.80671449243909,5.4228240101285));
#372=CARTESIAN_POINT('Ctrl Pts',(0.760001941769639,-4.69142294538271,5.45040086348335));
#373=CARTESIAN_POINT('Ctrl Pts',(0.390703772766047,-4.53803985787459,5.4892461307544));
#374=CARTESIAN_POINT('Ctrl Pts',(0.1893630939344,-4.5,5.5));
#375=CARTESIAN_POINT('Ctrl Pts',(-1.35308431126191E-15,-4.5,5.5));
#376=CARTESIAN_POINT('Ctrl Pts',(-1.31838984174237E-15,-4.5,5.5));
#377=CARTESIAN_POINT('Ctrl Pts',(-0.189363093934403,-4.5,5.5));
#378=CARTESIAN_POINT('Ctrl Pts',(-0.39070377276605,-4.53803985787459,5.4892461307544));
#379=CARTESIAN_POINT('Ctrl Pts',(-0.760001941769642,-4.69142294538271,5.45040086348335));
#380=CARTESIAN_POINT('Ctrl Pts',(-0.928034835998732,-4.80671449243909,5.4228240101285));
#381=CARTESIAN_POINT('Ctrl Pts',(-1.19331208379762,-5.07199174023798,5.37068733913148));
#382=CARTESIAN_POINT('Ctrl Pts',(-1.30858296848408,-5.24001368131075,5.34264814911659));
#383=CARTESIAN_POINT('Ctrl Pts',(-1.46195090261339,-5.60927259707902,5.30273310610877));
#384=CARTESIAN_POINT('Ctrl Pts',(-1.5,-5.81059896038668,5.29150262212918));
#385=CARTESIAN_POINT('Ctrl Pts',(-1.5,-6.,5.29150262212918));
#386=CARTESIAN_POINT('Ctrl Pts',(-1.5,-6.18940103961332,5.29150262212918));
#387=CARTESIAN_POINT('Ctrl Pts',(-1.46195090261339,-6.39072740292098,5.30273310610877));
#388=CARTESIAN_POINT('Ctrl Pts',(-1.30858296848408,-6.75998631868925,5.34264814911659));
#389=CARTESIAN_POINT('Ctrl Pts',(-1.19331208379762,-6.92800825976202,5.37068733913148));
#390=CARTESIAN_POINT('Ctrl Pts',(-0.928034835998732,-7.19328550756091,5.4228240101285));
#391=CARTESIAN_POINT('Ctrl Pts',(-0.760001941769643,-7.30857705461729,5.45040086348335));
#392=CARTESIAN_POINT('Ctrl Pts',(-0.390703772766051,-7.46196014212542,5.4892461307544));
#393=CARTESIAN_POINT('Ctrl Pts',(-0.189363093934403,-7.5,5.5));
#394=CARTESIAN_POINT('Ctrl Pts',(0.189363093934401,-7.5,5.5));
#395=CARTESIAN_POINT('Ctrl Pts',(0.390703772766048,-7.46196014212542,5.4892461307544));
#396=CARTESIAN_POINT('Ctrl Pts',(0.760001941769641,-7.30857705461729,5.45040086348335));
#397=CARTESIAN_POINT('Ctrl Pts',(0.92803483599873,-7.19328550756091,5.4228240101285));
#398=CARTESIAN_POINT('Ctrl Pts',(1.19331208379762,-6.92800825976202,5.37068733913148));
#399=CARTESIAN_POINT('Ctrl Pts',(1.30858296848408,-6.75998631868925,5.34264814911659));
#400=CARTESIAN_POINT('Ctrl Pts',(1.46195090261339,-6.39072740292098,5.30273310610877));
#401=CARTESIAN_POINT('Ctrl Pts',(1.5,-6.18940103961332,5.29150262212918));
#402=CARTESIAN_POINT('Ctrl Pts',(1.5,-6.,5.29150262212918));
#403=CARTESIAN_POINT('',(1.5,-6.,2.59807621135332));
#404=CARTESIAN_POINT('',(1.5,-6.,8.));
#405=CARTESIAN_POINT('',(3.67416415188968E-16,-7.5,3.));
#406=CARTESIAN_POINT('Ctrl Pts',(1.5,-6.,2.59807621135332));
#407=CARTESIAN_POINT('Ctrl Pts',(1.5,-6.19245760044074,2.59807621135332));
#408=CARTESIAN_POINT('Ctrl Pts',(1.46082837671514,-6.39470790189493,2.6217381539294));
#409=CARTESIAN_POINT('Ctrl Pts',(1.30684306460434,-6.76287353926173,2.70179401869102));
#410=CARTESIAN_POINT('Ctrl Pts',(1.19213374219655,-6.92918660136309,2.75655070132326));
#411=CARTESIAN_POINT('Ctrl Pts',(0.929545004709393,-7.19177533885025,2.85579991510575));
#412=CARTESIAN_POINT('Ctrl Pts',(0.763111137171561,-7.30674761988687,2.90739726155922));
#413=CARTESIAN_POINT('Ctrl Pts',(0.394417613233282,-7.46094585880369,2.97988795252598));
#414=CARTESIAN_POINT('Ctrl Pts',(0.191932951663032,-7.5,3.));
#415=CARTESIAN_POINT('Ctrl Pts',(-1.2490009027033E-15,-7.5,3.));
#416=CARTESIAN_POINT('',(-8.94933645022594E-16,-4.5,3.));
#417=CARTESIAN_POINT('Ctrl Pts',(-1.31838984174237E-15,-7.5,3.));
#418=CARTESIAN_POINT('Ctrl Pts',(-0.191932951663035,-7.5,3.));
#419=CARTESIAN_POINT('Ctrl Pts',(-0.394417613233284,-7.46094585880369,2.97988795252598));
#420=CARTESIAN_POINT('Ctrl Pts',(-0.763111137171564,-7.30674761988687,2.90739726155922));
#421=CARTESIAN_POINT('Ctrl Pts',(-0.929545004709396,-7.19177533885025,2.85579991510575));
#422=CARTESIAN_POINT('Ctrl Pts',(-1.19213374219655,-6.92918660136309,2.75655070132325));
#423=CARTESIAN_POINT('Ctrl Pts',(-1.30684306460434,-6.76287353926173,2.70179401869102));
#424=CARTESIAN_POINT('Ctrl Pts',(-1.46082837671514,-6.39470790189493,2.6217381539294));
#425=CARTESIAN_POINT('Ctrl Pts',(-1.5,-6.19245760044074,2.59807621135332));
#426=CARTESIAN_POINT('Ctrl Pts',(-1.5,-5.80754239955926,2.59807621135332));
#427=CARTESIAN_POINT('Ctrl Pts',(-1.46082837671514,-5.60529209810507,2.6217381539294));
#428=CARTESIAN_POINT('Ctrl Pts',(-1.30684306460434,-5.23712646073827,2.70179401869102));
#429=CARTESIAN_POINT('Ctrl Pts',(-1.19213374219655,-5.07081339863691,2.75655070132325));
#430=CARTESIAN_POINT('Ctrl Pts',(-0.929545004709396,-4.80822466114975,2.85579991510575));
#431=CARTESIAN_POINT('Ctrl Pts',(-0.763111137171563,-4.69325238011313,2.90739726155922));
#432=CARTESIAN_POINT('Ctrl Pts',(-0.394417613233284,-4.53905414119631,2.97988795252598));
#433=CARTESIAN_POINT('Ctrl Pts',(-0.191932951663035,-4.5,3.));
#434=CARTESIAN_POINT('Ctrl Pts',(-1.35308431126191E-15,-4.5,3.));
#435=CARTESIAN_POINT('Ctrl Pts',(-1.52655665885959E-15,-4.5,3.));
#436=CARTESIAN_POINT('Ctrl Pts',(0.191932951663032,-4.5,3.));
#437=CARTESIAN_POINT('Ctrl Pts',(0.394417613233282,-4.53905414119631,2.97988795252598));
#438=CARTESIAN_POINT('Ctrl Pts',(0.76311113717156,-4.69325238011313,2.90739726155922));
#439=CARTESIAN_POINT('Ctrl Pts',(0.929545004709393,-4.80822466114975,2.85579991510575));
#440=CARTESIAN_POINT('Ctrl Pts',(1.19213374219655,-5.07081339863691,2.75655070132326));
#441=CARTESIAN_POINT('Ctrl Pts',(1.30684306460434,-5.23712646073827,2.70179401869102));
#442=CARTESIAN_POINT('Ctrl Pts',(1.46082837671514,-5.60529209810507,2.6217381539294));
#443=CARTESIAN_POINT('Ctrl Pts',(1.5,-5.80754239955926,2.59807621135332));
#444=CARTESIAN_POINT('Ctrl Pts',(1.5,-6.,2.59807621135332));
#445=CARTESIAN_POINT('Origin',(0.,6.,0.));
#446=CARTESIAN_POINT('',(-2.44929359829471E-16,6.,2.));
#447=CARTESIAN_POINT('Origin',(0.,6.,0.));
#448=CARTESIAN_POINT('',(-2.44929359829471E-16,0.5,2.));
#449=CARTESIAN_POINT('',(-2.44929359829471E-16,6.,2.));
#450=CARTESIAN_POINT('Origin',(0.,0.5,0.));
#451=CARTESIAN_POINT('Origin',(0.,0.5,0.));
#452=CARTESIAN_POINT('',(-3.67394039744206E-16,0.5,3.));
#453=CARTESIAN_POINT('Origin',(0.,0.5,0.));
#454=CARTESIAN_POINT('',(-3.67394039744206E-16,0.5,3.));
#455=CARTESIAN_POINT('',(-3.67394039744206E-16,-12.,3.));
#456=CARTESIAN_POINT('',(-3.67394039744206E-16,0.5,3.));
#457=CARTESIAN_POINT('Origin',(0.,-12.,0.));
#458=CARTESIAN_POINT('Origin',(0.,-12.,0.));
#459=CARTESIAN_POINT('',(-6.73555739531044E-16,0.,-5.5));
#460=CARTESIAN_POINT('Origin',(0.,0.,0.));
#461=CARTESIAN_POINT('',(-6.73555739531044E-16,-12.,-5.5));
#462=CARTESIAN_POINT('',(-6.73555739531044E-16,-12.,-5.5));
#463=CARTESIAN_POINT('Origin',(0.,-12.,0.));
#464=CARTESIAN_POINT('Origin',(0.,6.,0.));
#465=CARTESIAN_POINT('',(3.46410161513783,6.,5.99999999999997));
#466=CARTESIAN_POINT('',(6.92820323027552,6.,0.));
#467=CARTESIAN_POINT('',(3.46410161513783,6.,5.99999999999997));
#468=CARTESIAN_POINT('',(3.46410161513774,6.,-6.00000000000001));
#469=CARTESIAN_POINT('',(6.92820323027552,6.,0.));
#470=CARTESIAN_POINT('',(-3.46410161513779,6.,-5.99999999999999));
#471=CARTESIAN_POINT('',(3.46410161513774,6.,-6.00000000000001));
#472=CARTESIAN_POINT('',(-6.92820323027552,6.,4.83793845804393E-14));
#473=CARTESIAN_POINT('',(-3.46410161513779,6.,-5.99999999999999));
#474=CARTESIAN_POINT('',(-3.4641016151377,6.,6.00000000000004));
#475=CARTESIAN_POINT('',(-6.92820323027552,6.,4.83793845804393E-14));
#476=CARTESIAN_POINT('',(-3.4641016151377,6.,6.00000000000004));
#477=CARTESIAN_POINT('Origin',(0.,0.,0.));
#478=CARTESIAN_POINT('',(3.46410161513783,0.,5.99999999999997));
#479=CARTESIAN_POINT('',(6.92820323027552,0.,0.));
#480=CARTESIAN_POINT('',(3.46410161513783,0.,5.99999999999997));
#481=CARTESIAN_POINT('',(-3.4641016151377,0.,6.00000000000004));
#482=CARTESIAN_POINT('',(-3.4641016151377,0.,6.00000000000004));
#483=CARTESIAN_POINT('',(-6.92820323027552,0.,4.83793845804393E-14));
#484=CARTESIAN_POINT('',(-6.92820323027552,0.,4.83793845804393E-14));
#485=CARTESIAN_POINT('',(-3.46410161513779,0.,-5.99999999999999));
#486=CARTESIAN_POINT('',(-3.46410161513779,0.,-5.99999999999999));
#487=CARTESIAN_POINT('',(3.46410161513774,0.,-6.00000000000001));
#488=CARTESIAN_POINT('',(3.46410161513774,0.,-6.00000000000001));
#489=CARTESIAN_POINT('',(6.92820323027552,0.,0.));
#490=CARTESIAN_POINT('Origin',(3.46410161513783,6.,5.99999999999997));
#491=CARTESIAN_POINT('',(6.92820323027552,6.,0.));
#492=CARTESIAN_POINT('',(3.46410161513783,6.,5.99999999999997));
#493=CARTESIAN_POINT('Origin',(6.92820323027552,6.,0.));
#494=CARTESIAN_POINT('',(3.46410161513774,6.,-6.00000000000001));
#495=CARTESIAN_POINT('Origin',(3.46410161513774,6.,-6.00000000000001));
#496=CARTESIAN_POINT('',(-3.46410161513779,6.,-5.99999999999999));
#497=CARTESIAN_POINT('Origin',(-3.46410161513779,6.,-5.99999999999999));
#498=CARTESIAN_POINT('',(-6.92820323027552,6.,4.83793845804393E-14));
#499=CARTESIAN_POINT('Origin',(-6.92820323027552,6.,4.83793845804393E-14));
#500=CARTESIAN_POINT('',(-3.4641016151377,6.,6.00000000000004));
#501=CARTESIAN_POINT('Origin',(-3.4641016151377,6.,6.00000000000004));
#502=CARTESIAN_POINT('Origin',(0.,-12.,0.));
#503=CARTESIAN_POINT('Origin',(0.,0.5,0.));
#504=UNCERTAINTY_MEASURE_WITH_UNIT(LENGTH_MEASURE(0.01),#508,
'DISTANCE_ACCURACY_VALUE',
'Maximum model space distance between geometric entities at asserted c
onnectivities');
#505=UNCERTAINTY_MEASURE_WITH_UNIT(LENGTH_MEASURE(0.01),#508,
'DISTANCE_ACCURACY_VALUE',
'Maximum model space distance between geometric entities at asserted c
onnectivities');
#506=(
GEOMETRIC_REPRESENTATION_CONTEXT(3)
GLOBAL_UNCERTAINTY_ASSIGNED_CONTEXT((#504))
GLOBAL_UNIT_ASSIGNED_CONTEXT((#508,#510,#511))
REPRESENTATION_CONTEXT('','3D')
);
#507=(
GEOMETRIC_REPRESENTATION_CONTEXT(3)
GLOBAL_UNCERTAINTY_ASSIGNED_CONTEXT((#505))
GLOBAL_UNIT_ASSIGNED_CONTEXT((#508,#510,#511))
REPRESENTATION_CONTEXT('','3D')
);
#508=(
LENGTH_UNIT()
NAMED_UNIT(*)
SI_UNIT(.MILLI.,.METRE.)
);
#509=(
LENGTH_UNIT()
NAMED_UNIT(*)
SI_UNIT($,.METRE.)
);
#510=(
NAMED_UNIT(*)
PLANE_ANGLE_UNIT()
SI_UNIT($,.RADIAN.)
);
#511=(
NAMED_UNIT(*)
SI_UNIT($,.STERADIAN.)
SOLID_ANGLE_UNIT()
);
#512=SHAPE_DEFINITION_REPRESENTATION(#513,#514);
#513=PRODUCT_DEFINITION_SHAPE('',$,#516);
#514=SHAPE_REPRESENTATION('',(#276),#506);
#515=PRODUCT_DEFINITION_CONTEXT('part definition',#520,'design');
#516=PRODUCT_DEFINITION('\X2\516D89D280548F745668\X0\',
'\X2\65B0516D89D280548F745668\X0\',#517,#515);
#517=PRODUCT_DEFINITION_FORMATION('',$,#522);
#518=PRODUCT_RELATED_PRODUCT_CATEGORY('\X2\65B0516D89D280548F745668\X0\',
'\X2\65B0516D89D280548F745668\X0\',(#522));
#519=APPLICATION_PROTOCOL_DEFINITION('international standard',
'automotive_design',2009,#520);
#520=APPLICATION_CONTEXT(
'Core Data for Automotive Mechanical Design Process');
#521=PRODUCT_CONTEXT('part definition',#520,'mechanical');
#522=PRODUCT('\X2\516D89D280548F745668\X0\','\X2\65B0516D89D280548F745668\X0\',
'STEP AP214',(#521));
#523=PRESENTATION_STYLE_ASSIGNMENT((#525));
#524=PRESENTATION_STYLE_ASSIGNMENT((#526));
#525=SURFACE_STYLE_USAGE(.BOTH.,#527);
#526=SURFACE_STYLE_USAGE(.BOTH.,#528);
#527=SURFACE_SIDE_STYLE('',(#529));
#528=SURFACE_SIDE_STYLE('',(#530));
#529=SURFACE_STYLE_FILL_AREA(#531);
#530=SURFACE_STYLE_FILL_AREA(#532);
#531=FILL_AREA_STYLE('\X2\94A2\X0\ - \X2\7F0E5149\X0\',(#533));
#532=FILL_AREA_STYLE('Opaque(212,171,33)',(#534));
#533=FILL_AREA_STYLE_COLOUR('\X2\94A2\X0\ - \X2\7F0E5149\X0\',#535);
#534=FILL_AREA_STYLE_COLOUR('Opaque(212,171,33)',#536);
#535=COLOUR_RGB('\X2\94A2\X0\ - \X2\7F0E5149\X0\',0.627450980392157,0.627450980392157,
0.627450980392157);
#536=COLOUR_RGB('Opaque(212,171,33)',0.831372549019608,0.670588235294118,
0.129411764705882);
ENDSEC;
END-ISO-10303-21;
