ISO-10303-21;
HEADER;
/* Generated by software containing ST-Developer
 * from STEP Tools, Inc. (www.steptools.com) 
 */

FILE_DESCRIPTION(
/* description */ (''),
/* implementation_level */ '2;1');

FILE_NAME(
/* name */ '',
/* time_stamp */ '2026-08-18T15:29:23+08:00',
/* author */ (''),
/* organization */ (''),
/* preprocessor_version */ 'ST-DEVELOPER v20.1',
/* originating_system */ 'Autodesk Translation Framework v15.8.0.0',
/* authorisation */ '');

FILE_SCHEMA (('AUTOMOTIVE_DESIGN { 1 0 10303 214 3 1 1 }'));
ENDSEC;

DATA;
#10=MECHANICAL_DESIGN_GEOMETRIC_PRESENTATION_REPRESENTATION('',(#13),#2224);
#11=SHAPE_REPRESENTATION_RELATIONSHIP('SRR','None',#2231,#12);
#12=ADVANCED_BREP_SHAPE_REPRESENTATION('',(#14),#2223);
#13=STYLED_ITEM('',(#2240),#14);
#14=MANIFOLD_SOLID_BREP('\X2\5B9E4F53\X0\3',#1324);
#15=FACE_BOUND('',#228,.T.);
#16=FACE_BOUND('',#229,.T.);
#17=FACE_BOUND('',#230,.T.);
#18=FACE_BOUND('',#231,.T.);
#19=FACE_BOUND('',#232,.T.);
#20=FACE_BOUND('',#233,.T.);
#21=FACE_BOUND('',#234,.T.);
#22=FACE_BOUND('',#235,.T.);
#23=FACE_BOUND('',#236,.T.);
#24=FACE_BOUND('',#237,.T.);
#25=FACE_BOUND('',#238,.T.);
#26=FACE_BOUND('',#239,.T.);
#27=FACE_BOUND('',#240,.T.);
#28=FACE_BOUND('',#241,.T.);
#29=FACE_BOUND('',#242,.T.);
#30=FACE_BOUND('',#243,.T.);
#31=FACE_BOUND('',#244,.T.);
#32=FACE_BOUND('',#245,.T.);
#33=FACE_BOUND('',#246,.T.);
#34=FACE_BOUND('',#247,.T.);
#35=FACE_BOUND('',#248,.T.);
#36=FACE_BOUND('',#249,.T.);
#37=FACE_BOUND('',#250,.T.);
#38=FACE_BOUND('',#251,.T.);
#39=FACE_BOUND('',#252,.T.);
#40=FACE_BOUND('',#253,.T.);
#41=FACE_BOUND('',#254,.T.);
#42=FACE_BOUND('',#255,.T.);
#43=FACE_BOUND('',#256,.T.);
#44=FACE_BOUND('',#257,.T.);
#45=FACE_BOUND('',#258,.T.);
#46=FACE_BOUND('',#259,.T.);
#47=FACE_BOUND('',#260,.T.);
#48=FACE_BOUND('',#261,.T.);
#49=FACE_BOUND('',#262,.T.);
#50=FACE_BOUND('',#263,.T.);
#51=FACE_BOUND('',#265,.T.);
#52=FACE_BOUND('',#266,.T.);
#53=FACE_BOUND('',#267,.T.);
#54=FACE_BOUND('',#268,.T.);
#55=FACE_BOUND('',#269,.T.);
#56=FACE_BOUND('',#270,.T.);
#57=FACE_BOUND('',#271,.T.);
#58=FACE_BOUND('',#272,.T.);
#59=FACE_BOUND('',#273,.T.);
#60=FACE_BOUND('',#274,.T.);
#61=FACE_BOUND('',#275,.T.);
#62=FACE_BOUND('',#276,.T.);
#63=FACE_BOUND('',#277,.T.);
#64=FACE_BOUND('',#278,.T.);
#65=FACE_BOUND('',#279,.T.);
#66=FACE_BOUND('',#280,.T.);
#67=FACE_BOUND('',#281,.T.);
#68=FACE_BOUND('',#282,.T.);
#69=FACE_BOUND('',#283,.T.);
#70=FACE_BOUND('',#284,.T.);
#71=FACE_BOUND('',#285,.T.);
#72=FACE_BOUND('',#286,.T.);
#73=FACE_BOUND('',#287,.T.);
#74=FACE_BOUND('',#288,.T.);
#75=FACE_BOUND('',#289,.T.);
#76=FACE_BOUND('',#290,.T.);
#77=FACE_BOUND('',#291,.T.);
#78=FACE_BOUND('',#292,.T.);
#79=FACE_BOUND('',#293,.T.);
#80=FACE_BOUND('',#294,.T.);
#81=FACE_BOUND('',#295,.T.);
#82=FACE_BOUND('',#296,.T.);
#83=FACE_BOUND('',#297,.T.);
#84=FACE_BOUND('',#298,.T.);
#85=FACE_BOUND('',#299,.T.);
#86=FACE_BOUND('',#300,.T.);
#87=PLANE('',#1347);
#88=PLANE('',#1351);
#89=PLANE('',#1355);
#90=PLANE('',#1356);
#91=PLANE('',#1357);
#92=PLANE('',#1358);
#93=PLANE('',#1395);
#94=PLANE('',#1399);
#95=PLANE('',#1439);
#96=PLANE('',#1440);
#97=PLANE('',#1441);
#98=PLANE('',#1442);
#99=PLANE('',#1455);
#100=PLANE('',#1459);
#101=PLANE('',#1463);
#102=PLANE('',#1467);
#103=PLANE('',#1471);
#104=PLANE('',#1475);
#105=PLANE('',#1479);
#106=PLANE('',#1480);
#107=FACE_OUTER_BOUND('',#168,.T.);
#108=FACE_OUTER_BOUND('',#169,.T.);
#109=FACE_OUTER_BOUND('',#170,.T.);
#110=FACE_OUTER_BOUND('',#171,.T.);
#111=FACE_OUTER_BOUND('',#172,.T.);
#112=FACE_OUTER_BOUND('',#173,.T.);
#113=FACE_OUTER_BOUND('',#174,.T.);
#114=FACE_OUTER_BOUND('',#175,.T.);
#115=FACE_OUTER_BOUND('',#176,.T.);
#116=FACE_OUTER_BOUND('',#177,.T.);
#117=FACE_OUTER_BOUND('',#178,.T.);
#118=FACE_OUTER_BOUND('',#179,.T.);
#119=FACE_OUTER_BOUND('',#180,.T.);
#120=FACE_OUTER_BOUND('',#181,.T.);
#121=FACE_OUTER_BOUND('',#182,.T.);
#122=FACE_OUTER_BOUND('',#183,.T.);
#123=FACE_OUTER_BOUND('',#184,.T.);
#124=FACE_OUTER_BOUND('',#185,.T.);
#125=FACE_OUTER_BOUND('',#186,.T.);
#126=FACE_OUTER_BOUND('',#187,.T.);
#127=FACE_OUTER_BOUND('',#188,.T.);
#128=FACE_OUTER_BOUND('',#189,.T.);
#129=FACE_OUTER_BOUND('',#190,.T.);
#130=FACE_OUTER_BOUND('',#191,.T.);
#131=FACE_OUTER_BOUND('',#192,.T.);
#132=FACE_OUTER_BOUND('',#193,.T.);
#133=FACE_OUTER_BOUND('',#194,.T.);
#134=FACE_OUTER_BOUND('',#195,.T.);
#135=FACE_OUTER_BOUND('',#196,.T.);
#136=FACE_OUTER_BOUND('',#197,.T.);
#137=FACE_OUTER_BOUND('',#198,.T.);
#138=FACE_OUTER_BOUND('',#199,.T.);
#139=FACE_OUTER_BOUND('',#200,.T.);
#140=FACE_OUTER_BOUND('',#201,.T.);
#141=FACE_OUTER_BOUND('',#202,.T.);
#142=FACE_OUTER_BOUND('',#203,.T.);
#143=FACE_OUTER_BOUND('',#204,.T.);
#144=FACE_OUTER_BOUND('',#205,.T.);
#145=FACE_OUTER_BOUND('',#206,.T.);
#146=FACE_OUTER_BOUND('',#207,.T.);
#147=FACE_OUTER_BOUND('',#208,.T.);
#148=FACE_OUTER_BOUND('',#209,.T.);
#149=FACE_OUTER_BOUND('',#210,.T.);
#150=FACE_OUTER_BOUND('',#211,.T.);
#151=FACE_OUTER_BOUND('',#212,.T.);
#152=FACE_OUTER_BOUND('',#213,.T.);
#153=FACE_OUTER_BOUND('',#214,.T.);
#154=FACE_OUTER_BOUND('',#215,.T.);
#155=FACE_OUTER_BOUND('',#216,.T.);
#156=FACE_OUTER_BOUND('',#217,.T.);
#157=FACE_OUTER_BOUND('',#218,.T.);
#158=FACE_OUTER_BOUND('',#219,.T.);
#159=FACE_OUTER_BOUND('',#220,.T.);
#160=FACE_OUTER_BOUND('',#221,.T.);
#161=FACE_OUTER_BOUND('',#222,.T.);
#162=FACE_OUTER_BOUND('',#223,.T.);
#163=FACE_OUTER_BOUND('',#224,.T.);
#164=FACE_OUTER_BOUND('',#225,.T.);
#165=FACE_OUTER_BOUND('',#226,.T.);
#166=FACE_OUTER_BOUND('',#227,.T.);
#167=FACE_OUTER_BOUND('',#264,.T.);
#168=EDGE_LOOP('',(#868,#869,#870,#871));
#169=EDGE_LOOP('',(#872,#873,#874,#875));
#170=EDGE_LOOP('',(#876,#877,#878,#879));
#171=EDGE_LOOP('',(#880,#881,#882,#883));
#172=EDGE_LOOP('',(#884,#885,#886,#887));
#173=EDGE_LOOP('',(#888,#889,#890,#891));
#174=EDGE_LOOP('',(#892,#893,#894,#895));
#175=EDGE_LOOP('',(#896,#897,#898,#899));
#176=EDGE_LOOP('',(#900,#901,#902,#903));
#177=EDGE_LOOP('',(#904,#905,#906,#907));
#178=EDGE_LOOP('',(#908,#909,#910,#911));
#179=EDGE_LOOP('',(#912,#913,#914,#915));
#180=EDGE_LOOP('',(#916,#917,#918,#919));
#181=EDGE_LOOP('',(#920,#921,#922,#923));
#182=EDGE_LOOP('',(#924,#925,#926,#927));
#183=EDGE_LOOP('',(#928,#929,#930,#931));
#184=EDGE_LOOP('',(#932,#933,#934,#935));
#185=EDGE_LOOP('',(#936,#937,#938,#939));
#186=EDGE_LOOP('',(#940,#941,#942,#943));
#187=EDGE_LOOP('',(#944,#945,#946,#947));
#188=EDGE_LOOP('',(#948,#949,#950,#951));
#189=EDGE_LOOP('',(#952,#953,#954,#955));
#190=EDGE_LOOP('',(#956,#957,#958,#959));
#191=EDGE_LOOP('',(#960,#961,#962,#963));
#192=EDGE_LOOP('',(#964,#965,#966,#967));
#193=EDGE_LOOP('',(#968,#969,#970,#971));
#194=EDGE_LOOP('',(#972,#973,#974,#975));
#195=EDGE_LOOP('',(#976,#977,#978,#979));
#196=EDGE_LOOP('',(#980,#981,#982,#983));
#197=EDGE_LOOP('',(#984,#985,#986,#987));
#198=EDGE_LOOP('',(#988,#989,#990,#991));
#199=EDGE_LOOP('',(#992,#993,#994,#995));
#200=EDGE_LOOP('',(#996,#997,#998,#999));
#201=EDGE_LOOP('',(#1000,#1001,#1002,#1003));
#202=EDGE_LOOP('',(#1004,#1005,#1006,#1007));
#203=EDGE_LOOP('',(#1008,#1009,#1010,#1011));
#204=EDGE_LOOP('',(#1012,#1013,#1014,#1015));
#205=EDGE_LOOP('',(#1016,#1017,#1018,#1019));
#206=EDGE_LOOP('',(#1020,#1021,#1022,#1023));
#207=EDGE_LOOP('',(#1024,#1025,#1026,#1027));
#208=EDGE_LOOP('',(#1028,#1029,#1030,#1031));
#209=EDGE_LOOP('',(#1032,#1033,#1034,#1035));
#210=EDGE_LOOP('',(#1036,#1037,#1038,#1039));
#211=EDGE_LOOP('',(#1040,#1041,#1042,#1043));
#212=EDGE_LOOP('',(#1044,#1045,#1046,#1047));
#213=EDGE_LOOP('',(#1048,#1049,#1050,#1051));
#214=EDGE_LOOP('',(#1052,#1053,#1054,#1055));
#215=EDGE_LOOP('',(#1056,#1057,#1058,#1059));
#216=EDGE_LOOP('',(#1060,#1061,#1062,#1063));
#217=EDGE_LOOP('',(#1064,#1065,#1066,#1067));
#218=EDGE_LOOP('',(#1068,#1069,#1070,#1071));
#219=EDGE_LOOP('',(#1072,#1073,#1074,#1075));
#220=EDGE_LOOP('',(#1076,#1077,#1078,#1079));
#221=EDGE_LOOP('',(#1080,#1081,#1082,#1083));
#222=EDGE_LOOP('',(#1084,#1085,#1086,#1087));
#223=EDGE_LOOP('',(#1088,#1089,#1090,#1091));
#224=EDGE_LOOP('',(#1092,#1093,#1094,#1095));
#225=EDGE_LOOP('',(#1096,#1097,#1098,#1099));
#226=EDGE_LOOP('',(#1100,#1101,#1102,#1103));
#227=EDGE_LOOP('',(#1104,#1105,#1106,#1107,#1108,#1109,#1110,#1111));
#228=EDGE_LOOP('',(#1112));
#229=EDGE_LOOP('',(#1113,#1114,#1115,#1116));
#230=EDGE_LOOP('',(#1117,#1118,#1119,#1120));
#231=EDGE_LOOP('',(#1121));
#232=EDGE_LOOP('',(#1122));
#233=EDGE_LOOP('',(#1123));
#234=EDGE_LOOP('',(#1124));
#235=EDGE_LOOP('',(#1125));
#236=EDGE_LOOP('',(#1126));
#237=EDGE_LOOP('',(#1127));
#238=EDGE_LOOP('',(#1128));
#239=EDGE_LOOP('',(#1129));
#240=EDGE_LOOP('',(#1130));
#241=EDGE_LOOP('',(#1131));
#242=EDGE_LOOP('',(#1132));
#243=EDGE_LOOP('',(#1133,#1134,#1135,#1136));
#244=EDGE_LOOP('',(#1137));
#245=EDGE_LOOP('',(#1138));
#246=EDGE_LOOP('',(#1139));
#247=EDGE_LOOP('',(#1140));
#248=EDGE_LOOP('',(#1141));
#249=EDGE_LOOP('',(#1142));
#250=EDGE_LOOP('',(#1143));
#251=EDGE_LOOP('',(#1144));
#252=EDGE_LOOP('',(#1145));
#253=EDGE_LOOP('',(#1146));
#254=EDGE_LOOP('',(#1147));
#255=EDGE_LOOP('',(#1148));
#256=EDGE_LOOP('',(#1149,#1150,#1151,#1152));
#257=EDGE_LOOP('',(#1153));
#258=EDGE_LOOP('',(#1154));
#259=EDGE_LOOP('',(#1155));
#260=EDGE_LOOP('',(#1156));
#261=EDGE_LOOP('',(#1157,#1158,#1159,#1160));
#262=EDGE_LOOP('',(#1161));
#263=EDGE_LOOP('',(#1162));
#264=EDGE_LOOP('',(#1163,#1164,#1165,#1166,#1167,#1168,#1169,#1170));
#265=EDGE_LOOP('',(#1171));
#266=EDGE_LOOP('',(#1172,#1173,#1174,#1175));
#267=EDGE_LOOP('',(#1176,#1177,#1178,#1179));
#268=EDGE_LOOP('',(#1180));
#269=EDGE_LOOP('',(#1181));
#270=EDGE_LOOP('',(#1182));
#271=EDGE_LOOP('',(#1183));
#272=EDGE_LOOP('',(#1184));
#273=EDGE_LOOP('',(#1185));
#274=EDGE_LOOP('',(#1186));
#275=EDGE_LOOP('',(#1187));
#276=EDGE_LOOP('',(#1188));
#277=EDGE_LOOP('',(#1189));
#278=EDGE_LOOP('',(#1190));
#279=EDGE_LOOP('',(#1191));
#280=EDGE_LOOP('',(#1192,#1193,#1194,#1195));
#281=EDGE_LOOP('',(#1196));
#282=EDGE_LOOP('',(#1197));
#283=EDGE_LOOP('',(#1198));
#284=EDGE_LOOP('',(#1199));
#285=EDGE_LOOP('',(#1200));
#286=EDGE_LOOP('',(#1201));
#287=EDGE_LOOP('',(#1202));
#288=EDGE_LOOP('',(#1203));
#289=EDGE_LOOP('',(#1204));
#290=EDGE_LOOP('',(#1205));
#291=EDGE_LOOP('',(#1206));
#292=EDGE_LOOP('',(#1207));
#293=EDGE_LOOP('',(#1208,#1209,#1210,#1211));
#294=EDGE_LOOP('',(#1212));
#295=EDGE_LOOP('',(#1213));
#296=EDGE_LOOP('',(#1214));
#297=EDGE_LOOP('',(#1215));
#298=EDGE_LOOP('',(#1216,#1217,#1218,#1219));
#299=EDGE_LOOP('',(#1220));
#300=EDGE_LOOP('',(#1221));
#301=LINE('',#1869,#396);
#302=LINE('',#1875,#397);
#303=LINE('',#1881,#398);
#304=LINE('',#1886,#399);
#305=LINE('',#1888,#400);
#306=LINE('',#1890,#401);
#307=LINE('',#1891,#402);
#308=LINE('',#1897,#403);
#309=LINE('',#1900,#404);
#310=LINE('',#1902,#405);
#311=LINE('',#1903,#406);
#312=LINE('',#1910,#407);
#313=LINE('',#1912,#408);
#314=LINE('',#1914,#409);
#315=LINE('',#1915,#410);
#316=LINE('',#1918,#411);
#317=LINE('',#1920,#412);
#318=LINE('',#1921,#413);
#319=LINE('',#1924,#414);
#320=LINE('',#1926,#415);
#321=LINE('',#1927,#416);
#322=LINE('',#1929,#417);
#323=LINE('',#1930,#418);
#324=LINE('',#1935,#419);
#325=LINE('',#1941,#420);
#326=LINE('',#1947,#421);
#327=LINE('',#1953,#422);
#328=LINE('',#1959,#423);
#329=LINE('',#1965,#424);
#330=LINE('',#1971,#425);
#331=LINE('',#1977,#426);
#332=LINE('',#1983,#427);
#333=LINE('',#1989,#428);
#334=LINE('',#1995,#429);
#335=LINE('',#2001,#430);
#336=LINE('',#2006,#431);
#337=LINE('',#2008,#432);
#338=LINE('',#2010,#433);
#339=LINE('',#2011,#434);
#340=LINE('',#2017,#435);
#341=LINE('',#2020,#436);
#342=LINE('',#2022,#437);
#343=LINE('',#2023,#438);
#344=LINE('',#2031,#439);
#345=LINE('',#2037,#440);
#346=LINE('',#2043,#441);
#347=LINE('',#2049,#442);
#348=LINE('',#2055,#443);
#349=LINE('',#2061,#444);
#350=LINE('',#2067,#445);
#351=LINE('',#2073,#446);
#352=LINE('',#2079,#447);
#353=LINE('',#2085,#448);
#354=LINE('',#2091,#449);
#355=LINE('',#2097,#450);
#356=LINE('',#2102,#451);
#357=LINE('',#2104,#452);
#358=LINE('',#2106,#453);
#359=LINE('',#2107,#454);
#360=LINE('',#2110,#455);
#361=LINE('',#2112,#456);
#362=LINE('',#2113,#457);
#363=LINE('',#2116,#458);
#364=LINE('',#2118,#459);
#365=LINE('',#2119,#460);
#366=LINE('',#2121,#461);
#367=LINE('',#2122,#462);
#368=LINE('',#2127,#463);
#369=LINE('',#2133,#464);
#370=LINE('',#2139,#465);
#371=LINE('',#2145,#466);
#372=LINE('',#2150,#467);
#373=LINE('',#2152,#468);
#374=LINE('',#2154,#469);
#375=LINE('',#2155,#470);
#376=LINE('',#2161,#471);
#377=LINE('',#2164,#472);
#378=LINE('',#2166,#473);
#379=LINE('',#2167,#474);
#380=LINE('',#2174,#475);
#381=LINE('',#2176,#476);
#382=LINE('',#2178,#477);
#383=LINE('',#2179,#478);
#384=LINE('',#2185,#479);
#385=LINE('',#2188,#480);
#386=LINE('',#2190,#481);
#387=LINE('',#2191,#482);
#388=LINE('',#2197,#483);
#389=LINE('',#2200,#484);
#390=LINE('',#2202,#485);
#391=LINE('',#2203,#486);
#392=LINE('',#2209,#487);
#393=LINE('',#2212,#488);
#394=LINE('',#2214,#489);
#395=LINE('',#2215,#490);
#396=VECTOR('',#1487,2.);
#397=VECTOR('',#1494,2.);
#398=VECTOR('',#1501,2.34999999999999);
#399=VECTOR('',#1506,10.);
#400=VECTOR('',#1507,10.);
#401=VECTOR('',#1508,10.);
#402=VECTOR('',#1509,10.);
#403=VECTOR('',#1516,10.);
#404=VECTOR('',#1519,10.);
#405=VECTOR('',#1520,10.);
#406=VECTOR('',#1521,10.);
#407=VECTOR('',#1530,10.);
#408=VECTOR('',#1531,10.);
#409=VECTOR('',#1532,10.);
#410=VECTOR('',#1533,10.);
#411=VECTOR('',#1536,10.);
#412=VECTOR('',#1537,10.);
#413=VECTOR('',#1538,10.);
#414=VECTOR('',#1541,10.);
#415=VECTOR('',#1542,10.);
#416=VECTOR('',#1543,10.);
#417=VECTOR('',#1546,10.);
#418=VECTOR('',#1547,10.);
#419=VECTOR('',#1552,2.35);
#420=VECTOR('',#1559,2.00000000000001);
#421=VECTOR('',#1566,1.55000000000001);
#422=VECTOR('',#1573,1.5);
#423=VECTOR('',#1580,1.55);
#424=VECTOR('',#1587,3.);
#425=VECTOR('',#1594,1.55);
#426=VECTOR('',#1601,1.25);
#427=VECTOR('',#1608,1.25);
#428=VECTOR('',#1615,1.5);
#429=VECTOR('',#1622,1.5);
#430=VECTOR('',#1629,1.25);
#431=VECTOR('',#1634,10.);
#432=VECTOR('',#1635,10.);
#433=VECTOR('',#1636,10.);
#434=VECTOR('',#1637,10.);
#435=VECTOR('',#1644,10.);
#436=VECTOR('',#1647,10.);
#437=VECTOR('',#1648,10.);
#438=VECTOR('',#1649,10.);
#439=VECTOR('',#1660,2.35);
#440=VECTOR('',#1667,2.00000000000001);
#441=VECTOR('',#1674,1.99999999999999);
#442=VECTOR('',#1681,2.00000000000001);
#443=VECTOR('',#1688,3.);
#444=VECTOR('',#1695,1.25);
#445=VECTOR('',#1702,1.25);
#446=VECTOR('',#1709,1.25);
#447=VECTOR('',#1716,1.25);
#448=VECTOR('',#1723,1.99999999999999);
#449=VECTOR('',#1730,1.25);
#450=VECTOR('',#1737,11.05);
#451=VECTOR('',#1742,10.);
#452=VECTOR('',#1743,10.);
#453=VECTOR('',#1744,10.);
#454=VECTOR('',#1745,10.);
#455=VECTOR('',#1748,10.);
#456=VECTOR('',#1749,10.);
#457=VECTOR('',#1750,10.);
#458=VECTOR('',#1753,10.);
#459=VECTOR('',#1754,10.);
#460=VECTOR('',#1755,10.);
#461=VECTOR('',#1758,10.);
#462=VECTOR('',#1759,10.);
#463=VECTOR('',#1764,1.55000000000001);
#464=VECTOR('',#1771,1.5);
#465=VECTOR('',#1778,2.00000000000001);
#466=VECTOR('',#1785,2.34999999999999);
#467=VECTOR('',#1790,10.);
#468=VECTOR('',#1791,10.);
#469=VECTOR('',#1792,10.);
#470=VECTOR('',#1793,10.);
#471=VECTOR('',#1800,10.);
#472=VECTOR('',#1803,10.);
#473=VECTOR('',#1804,10.);
#474=VECTOR('',#1805,10.);
#475=VECTOR('',#1814,10.);
#476=VECTOR('',#1815,10.);
#477=VECTOR('',#1816,10.);
#478=VECTOR('',#1817,10.);
#479=VECTOR('',#1824,10.);
#480=VECTOR('',#1827,10.);
#481=VECTOR('',#1828,10.);
#482=VECTOR('',#1829,10.);
#483=VECTOR('',#1836,10.);
#484=VECTOR('',#1839,10.);
#485=VECTOR('',#1840,10.);
#486=VECTOR('',#1841,10.);
#487=VECTOR('',#1848,10.);
#488=VECTOR('',#1851,10.);
#489=VECTOR('',#1852,10.);
#490=VECTOR('',#1853,10.);
#491=CIRCLE('',#1339,2.);
#492=CIRCLE('',#1340,2.);
#493=CIRCLE('',#1342,2.);
#494=CIRCLE('',#1343,2.);
#495=CIRCLE('',#1345,2.34999999999999);
#496=CIRCLE('',#1346,2.34999999999999);
#497=CIRCLE('',#1349,1.99999999999946);
#498=CIRCLE('',#1350,1.99999999999946);
#499=CIRCLE('',#1353,1.9999999999999);
#500=CIRCLE('',#1354,1.9999999999999);
#501=CIRCLE('',#1360,2.35);
#502=CIRCLE('',#1361,2.35);
#503=CIRCLE('',#1363,2.00000000000001);
#504=CIRCLE('',#1364,2.00000000000001);
#505=CIRCLE('',#1366,1.55000000000001);
#506=CIRCLE('',#1367,1.55000000000001);
#507=CIRCLE('',#1369,1.5);
#508=CIRCLE('',#1370,1.5);
#509=CIRCLE('',#1372,1.55);
#510=CIRCLE('',#1373,1.55);
#511=CIRCLE('',#1375,3.);
#512=CIRCLE('',#1376,3.);
#513=CIRCLE('',#1378,1.55);
#514=CIRCLE('',#1379,1.55);
#515=CIRCLE('',#1381,1.25);
#516=CIRCLE('',#1382,1.25);
#517=CIRCLE('',#1384,1.25);
#518=CIRCLE('',#1385,1.25);
#519=CIRCLE('',#1387,1.5);
#520=CIRCLE('',#1388,1.5);
#521=CIRCLE('',#1390,1.5);
#522=CIRCLE('',#1391,1.5);
#523=CIRCLE('',#1393,1.25);
#524=CIRCLE('',#1394,1.25);
#525=CIRCLE('',#1397,5.);
#526=CIRCLE('',#1398,5.);
#527=CIRCLE('',#1401,5.);
#528=CIRCLE('',#1402,5.);
#529=CIRCLE('',#1404,2.35);
#530=CIRCLE('',#1405,2.35);
#531=CIRCLE('',#1407,2.00000000000001);
#532=CIRCLE('',#1408,2.00000000000001);
#533=CIRCLE('',#1410,1.99999999999999);
#534=CIRCLE('',#1411,1.99999999999999);
#535=CIRCLE('',#1413,2.00000000000001);
#536=CIRCLE('',#1414,2.00000000000001);
#537=CIRCLE('',#1416,3.);
#538=CIRCLE('',#1417,3.);
#539=CIRCLE('',#1419,1.25);
#540=CIRCLE('',#1420,1.25);
#541=CIRCLE('',#1422,1.25);
#542=CIRCLE('',#1423,1.25);
#543=CIRCLE('',#1425,1.25);
#544=CIRCLE('',#1426,1.25);
#545=CIRCLE('',#1428,1.25);
#546=CIRCLE('',#1429,1.25);
#547=CIRCLE('',#1431,1.99999999999999);
#548=CIRCLE('',#1432,1.99999999999999);
#549=CIRCLE('',#1434,1.25);
#550=CIRCLE('',#1435,1.25);
#551=CIRCLE('',#1437,11.05);
#552=CIRCLE('',#1438,11.05);
#553=CIRCLE('',#1444,1.55000000000001);
#554=CIRCLE('',#1445,1.55000000000001);
#555=CIRCLE('',#1447,1.5);
#556=CIRCLE('',#1448,1.5);
#557=CIRCLE('',#1450,2.00000000000001);
#558=CIRCLE('',#1451,2.00000000000001);
#559=CIRCLE('',#1453,2.34999999999999);
#560=CIRCLE('',#1454,2.34999999999999);
#561=CIRCLE('',#1457,1.99999999999945);
#562=CIRCLE('',#1458,1.99999999999945);
#563=CIRCLE('',#1461,1.9999999999999);
#564=CIRCLE('',#1462,1.9999999999999);
#565=CIRCLE('',#1465,10.0000000000001);
#566=CIRCLE('',#1466,10.0000000000001);
#567=CIRCLE('',#1469,9.99999999999996);
#568=CIRCLE('',#1470,9.99999999999996);
#569=CIRCLE('',#1473,10.);
#570=CIRCLE('',#1474,10.);
#571=CIRCLE('',#1477,9.99999999999998);
#572=CIRCLE('',#1478,9.99999999999998);
#573=VERTEX_POINT('',#1866);
#574=VERTEX_POINT('',#1868);
#575=VERTEX_POINT('',#1872);
#576=VERTEX_POINT('',#1874);
#577=VERTEX_POINT('',#1878);
#578=VERTEX_POINT('',#1880);
#579=VERTEX_POINT('',#1884);
#580=VERTEX_POINT('',#1885);
#581=VERTEX_POINT('',#1887);
#582=VERTEX_POINT('',#1889);
#583=VERTEX_POINT('',#1893);
#584=VERTEX_POINT('',#1895);
#585=VERTEX_POINT('',#1899);
#586=VERTEX_POINT('',#1901);
#587=VERTEX_POINT('',#1908);
#588=VERTEX_POINT('',#1909);
#589=VERTEX_POINT('',#1911);
#590=VERTEX_POINT('',#1913);
#591=VERTEX_POINT('',#1917);
#592=VERTEX_POINT('',#1919);
#593=VERTEX_POINT('',#1923);
#594=VERTEX_POINT('',#1925);
#595=VERTEX_POINT('',#1932);
#596=VERTEX_POINT('',#1934);
#597=VERTEX_POINT('',#1938);
#598=VERTEX_POINT('',#1940);
#599=VERTEX_POINT('',#1944);
#600=VERTEX_POINT('',#1946);
#601=VERTEX_POINT('',#1950);
#602=VERTEX_POINT('',#1952);
#603=VERTEX_POINT('',#1956);
#604=VERTEX_POINT('',#1958);
#605=VERTEX_POINT('',#1962);
#606=VERTEX_POINT('',#1964);
#607=VERTEX_POINT('',#1968);
#608=VERTEX_POINT('',#1970);
#609=VERTEX_POINT('',#1974);
#610=VERTEX_POINT('',#1976);
#611=VERTEX_POINT('',#1980);
#612=VERTEX_POINT('',#1982);
#613=VERTEX_POINT('',#1986);
#614=VERTEX_POINT('',#1988);
#615=VERTEX_POINT('',#1992);
#616=VERTEX_POINT('',#1994);
#617=VERTEX_POINT('',#1998);
#618=VERTEX_POINT('',#2000);
#619=VERTEX_POINT('',#2004);
#620=VERTEX_POINT('',#2005);
#621=VERTEX_POINT('',#2007);
#622=VERTEX_POINT('',#2009);
#623=VERTEX_POINT('',#2013);
#624=VERTEX_POINT('',#2015);
#625=VERTEX_POINT('',#2019);
#626=VERTEX_POINT('',#2021);
#627=VERTEX_POINT('',#2028);
#628=VERTEX_POINT('',#2030);
#629=VERTEX_POINT('',#2034);
#630=VERTEX_POINT('',#2036);
#631=VERTEX_POINT('',#2040);
#632=VERTEX_POINT('',#2042);
#633=VERTEX_POINT('',#2046);
#634=VERTEX_POINT('',#2048);
#635=VERTEX_POINT('',#2052);
#636=VERTEX_POINT('',#2054);
#637=VERTEX_POINT('',#2058);
#638=VERTEX_POINT('',#2060);
#639=VERTEX_POINT('',#2064);
#640=VERTEX_POINT('',#2066);
#641=VERTEX_POINT('',#2070);
#642=VERTEX_POINT('',#2072);
#643=VERTEX_POINT('',#2076);
#644=VERTEX_POINT('',#2078);
#645=VERTEX_POINT('',#2082);
#646=VERTEX_POINT('',#2084);
#647=VERTEX_POINT('',#2088);
#648=VERTEX_POINT('',#2090);
#649=VERTEX_POINT('',#2094);
#650=VERTEX_POINT('',#2096);
#651=VERTEX_POINT('',#2100);
#652=VERTEX_POINT('',#2101);
#653=VERTEX_POINT('',#2103);
#654=VERTEX_POINT('',#2105);
#655=VERTEX_POINT('',#2109);
#656=VERTEX_POINT('',#2111);
#657=VERTEX_POINT('',#2115);
#658=VERTEX_POINT('',#2117);
#659=VERTEX_POINT('',#2124);
#660=VERTEX_POINT('',#2126);
#661=VERTEX_POINT('',#2130);
#662=VERTEX_POINT('',#2132);
#663=VERTEX_POINT('',#2136);
#664=VERTEX_POINT('',#2138);
#665=VERTEX_POINT('',#2142);
#666=VERTEX_POINT('',#2144);
#667=VERTEX_POINT('',#2148);
#668=VERTEX_POINT('',#2149);
#669=VERTEX_POINT('',#2151);
#670=VERTEX_POINT('',#2153);
#671=VERTEX_POINT('',#2157);
#672=VERTEX_POINT('',#2159);
#673=VERTEX_POINT('',#2163);
#674=VERTEX_POINT('',#2165);
#675=VERTEX_POINT('',#2172);
#676=VERTEX_POINT('',#2173);
#677=VERTEX_POINT('',#2175);
#678=VERTEX_POINT('',#2177);
#679=VERTEX_POINT('',#2181);
#680=VERTEX_POINT('',#2183);
#681=VERTEX_POINT('',#2187);
#682=VERTEX_POINT('',#2189);
#683=VERTEX_POINT('',#2193);
#684=VERTEX_POINT('',#2195);
#685=VERTEX_POINT('',#2199);
#686=VERTEX_POINT('',#2201);
#687=VERTEX_POINT('',#2205);
#688=VERTEX_POINT('',#2207);
#689=VERTEX_POINT('',#2211);
#690=VERTEX_POINT('',#2213);
#691=EDGE_CURVE('',#573,#573,#491,.T.);
#692=EDGE_CURVE('',#573,#574,#301,.T.);
#693=EDGE_CURVE('',#574,#574,#492,.T.);
#694=EDGE_CURVE('',#575,#575,#493,.T.);
#695=EDGE_CURVE('',#575,#576,#302,.T.);
#696=EDGE_CURVE('',#576,#576,#494,.T.);
#697=EDGE_CURVE('',#577,#577,#495,.T.);
#698=EDGE_CURVE('',#577,#578,#303,.T.);
#699=EDGE_CURVE('',#578,#578,#496,.T.);
#700=EDGE_CURVE('',#579,#580,#304,.T.);
#701=EDGE_CURVE('',#580,#581,#305,.T.);
#702=EDGE_CURVE('',#582,#581,#306,.T.);
#703=EDGE_CURVE('',#579,#582,#307,.T.);
#704=EDGE_CURVE('',#583,#579,#497,.T.);
#705=EDGE_CURVE('',#584,#582,#498,.T.);
#706=EDGE_CURVE('',#583,#584,#308,.T.);
#707=EDGE_CURVE('',#585,#583,#309,.T.);
#708=EDGE_CURVE('',#586,#584,#310,.T.);
#709=EDGE_CURVE('',#585,#586,#311,.T.);
#710=EDGE_CURVE('',#580,#585,#499,.T.);
#711=EDGE_CURVE('',#581,#586,#500,.T.);
#712=EDGE_CURVE('',#587,#588,#312,.T.);
#713=EDGE_CURVE('',#588,#589,#313,.T.);
#714=EDGE_CURVE('',#590,#589,#314,.T.);
#715=EDGE_CURVE('',#587,#590,#315,.T.);
#716=EDGE_CURVE('',#591,#587,#316,.T.);
#717=EDGE_CURVE('',#592,#590,#317,.T.);
#718=EDGE_CURVE('',#591,#592,#318,.T.);
#719=EDGE_CURVE('',#593,#591,#319,.T.);
#720=EDGE_CURVE('',#594,#592,#320,.T.);
#721=EDGE_CURVE('',#593,#594,#321,.T.);
#722=EDGE_CURVE('',#588,#593,#322,.T.);
#723=EDGE_CURVE('',#589,#594,#323,.T.);
#724=EDGE_CURVE('',#595,#595,#501,.T.);
#725=EDGE_CURVE('',#595,#596,#324,.T.);
#726=EDGE_CURVE('',#596,#596,#502,.T.);
#727=EDGE_CURVE('',#597,#597,#503,.T.);
#728=EDGE_CURVE('',#597,#598,#325,.T.);
#729=EDGE_CURVE('',#598,#598,#504,.T.);
#730=EDGE_CURVE('',#599,#599,#505,.T.);
#731=EDGE_CURVE('',#599,#600,#326,.T.);
#732=EDGE_CURVE('',#600,#600,#506,.T.);
#733=EDGE_CURVE('',#601,#601,#507,.T.);
#734=EDGE_CURVE('',#601,#602,#327,.T.);
#735=EDGE_CURVE('',#602,#602,#508,.T.);
#736=EDGE_CURVE('',#603,#603,#509,.T.);
#737=EDGE_CURVE('',#603,#604,#328,.T.);
#738=EDGE_CURVE('',#604,#604,#510,.T.);
#739=EDGE_CURVE('',#605,#605,#511,.T.);
#740=EDGE_CURVE('',#605,#606,#329,.T.);
#741=EDGE_CURVE('',#606,#606,#512,.T.);
#742=EDGE_CURVE('',#607,#607,#513,.T.);
#743=EDGE_CURVE('',#607,#608,#330,.T.);
#744=EDGE_CURVE('',#608,#608,#514,.T.);
#745=EDGE_CURVE('',#609,#609,#515,.T.);
#746=EDGE_CURVE('',#609,#610,#331,.T.);
#747=EDGE_CURVE('',#610,#610,#516,.T.);
#748=EDGE_CURVE('',#611,#611,#517,.T.);
#749=EDGE_CURVE('',#611,#612,#332,.T.);
#750=EDGE_CURVE('',#612,#612,#518,.T.);
#751=EDGE_CURVE('',#613,#613,#519,.T.);
#752=EDGE_CURVE('',#613,#614,#333,.T.);
#753=EDGE_CURVE('',#614,#614,#520,.T.);
#754=EDGE_CURVE('',#615,#615,#521,.T.);
#755=EDGE_CURVE('',#615,#616,#334,.T.);
#756=EDGE_CURVE('',#616,#616,#522,.T.);
#757=EDGE_CURVE('',#617,#617,#523,.T.);
#758=EDGE_CURVE('',#617,#618,#335,.T.);
#759=EDGE_CURVE('',#618,#618,#524,.T.);
#760=EDGE_CURVE('',#619,#620,#336,.T.);
#761=EDGE_CURVE('',#620,#621,#337,.T.);
#762=EDGE_CURVE('',#622,#621,#338,.T.);
#763=EDGE_CURVE('',#619,#622,#339,.T.);
#764=EDGE_CURVE('',#623,#619,#525,.T.);
#765=EDGE_CURVE('',#624,#622,#526,.T.);
#766=EDGE_CURVE('',#623,#624,#340,.T.);
#767=EDGE_CURVE('',#625,#623,#341,.T.);
#768=EDGE_CURVE('',#626,#624,#342,.T.);
#769=EDGE_CURVE('',#625,#626,#343,.T.);
#770=EDGE_CURVE('',#620,#625,#527,.T.);
#771=EDGE_CURVE('',#621,#626,#528,.T.);
#772=EDGE_CURVE('',#627,#627,#529,.T.);
#773=EDGE_CURVE('',#627,#628,#344,.T.);
#774=EDGE_CURVE('',#628,#628,#530,.T.);
#775=EDGE_CURVE('',#629,#629,#531,.T.);
#776=EDGE_CURVE('',#629,#630,#345,.T.);
#777=EDGE_CURVE('',#630,#630,#532,.T.);
#778=EDGE_CURVE('',#631,#631,#533,.T.);
#779=EDGE_CURVE('',#631,#632,#346,.T.);
#780=EDGE_CURVE('',#632,#632,#534,.T.);
#781=EDGE_CURVE('',#633,#633,#535,.T.);
#782=EDGE_CURVE('',#633,#634,#347,.T.);
#783=EDGE_CURVE('',#634,#634,#536,.T.);
#784=EDGE_CURVE('',#635,#635,#537,.T.);
#785=EDGE_CURVE('',#635,#636,#348,.T.);
#786=EDGE_CURVE('',#636,#636,#538,.T.);
#787=EDGE_CURVE('',#637,#637,#539,.T.);
#788=EDGE_CURVE('',#637,#638,#349,.T.);
#789=EDGE_CURVE('',#638,#638,#540,.T.);
#790=EDGE_CURVE('',#639,#639,#541,.T.);
#791=EDGE_CURVE('',#639,#640,#350,.T.);
#792=EDGE_CURVE('',#640,#640,#542,.T.);
#793=EDGE_CURVE('',#641,#641,#543,.T.);
#794=EDGE_CURVE('',#641,#642,#351,.T.);
#795=EDGE_CURVE('',#642,#642,#544,.T.);
#796=EDGE_CURVE('',#643,#643,#545,.T.);
#797=EDGE_CURVE('',#643,#644,#352,.T.);
#798=EDGE_CURVE('',#644,#644,#546,.T.);
#799=EDGE_CURVE('',#645,#645,#547,.T.);
#800=EDGE_CURVE('',#645,#646,#353,.T.);
#801=EDGE_CURVE('',#646,#646,#548,.T.);
#802=EDGE_CURVE('',#647,#647,#549,.T.);
#803=EDGE_CURVE('',#647,#648,#354,.T.);
#804=EDGE_CURVE('',#648,#648,#550,.T.);
#805=EDGE_CURVE('',#649,#649,#551,.T.);
#806=EDGE_CURVE('',#649,#650,#355,.T.);
#807=EDGE_CURVE('',#650,#650,#552,.T.);
#808=EDGE_CURVE('',#651,#652,#356,.T.);
#809=EDGE_CURVE('',#652,#653,#357,.T.);
#810=EDGE_CURVE('',#654,#653,#358,.T.);
#811=EDGE_CURVE('',#651,#654,#359,.T.);
#812=EDGE_CURVE('',#655,#651,#360,.T.);
#813=EDGE_CURVE('',#656,#654,#361,.T.);
#814=EDGE_CURVE('',#655,#656,#362,.T.);
#815=EDGE_CURVE('',#657,#655,#363,.T.);
#816=EDGE_CURVE('',#658,#656,#364,.T.);
#817=EDGE_CURVE('',#657,#658,#365,.T.);
#818=EDGE_CURVE('',#652,#657,#366,.T.);
#819=EDGE_CURVE('',#653,#658,#367,.T.);
#820=EDGE_CURVE('',#659,#659,#553,.T.);
#821=EDGE_CURVE('',#659,#660,#368,.T.);
#822=EDGE_CURVE('',#660,#660,#554,.T.);
#823=EDGE_CURVE('',#661,#661,#555,.T.);
#824=EDGE_CURVE('',#661,#662,#369,.T.);
#825=EDGE_CURVE('',#662,#662,#556,.T.);
#826=EDGE_CURVE('',#663,#663,#557,.T.);
#827=EDGE_CURVE('',#663,#664,#370,.T.);
#828=EDGE_CURVE('',#664,#664,#558,.T.);
#829=EDGE_CURVE('',#665,#665,#559,.T.);
#830=EDGE_CURVE('',#665,#666,#371,.T.);
#831=EDGE_CURVE('',#666,#666,#560,.T.);
#832=EDGE_CURVE('',#667,#668,#372,.T.);
#833=EDGE_CURVE('',#668,#669,#373,.T.);
#834=EDGE_CURVE('',#670,#669,#374,.T.);
#835=EDGE_CURVE('',#667,#670,#375,.T.);
#836=EDGE_CURVE('',#671,#667,#561,.T.);
#837=EDGE_CURVE('',#672,#670,#562,.T.);
#838=EDGE_CURVE('',#671,#672,#376,.T.);
#839=EDGE_CURVE('',#673,#671,#377,.T.);
#840=EDGE_CURVE('',#674,#672,#378,.T.);
#841=EDGE_CURVE('',#673,#674,#379,.T.);
#842=EDGE_CURVE('',#668,#673,#563,.T.);
#843=EDGE_CURVE('',#669,#674,#564,.T.);
#844=EDGE_CURVE('',#675,#676,#380,.T.);
#845=EDGE_CURVE('',#675,#677,#381,.T.);
#846=EDGE_CURVE('',#678,#677,#382,.T.);
#847=EDGE_CURVE('',#676,#678,#383,.T.);
#848=EDGE_CURVE('',#679,#676,#565,.T.);
#849=EDGE_CURVE('',#680,#678,#566,.T.);
#850=EDGE_CURVE('',#679,#680,#384,.T.);
#851=EDGE_CURVE('',#679,#681,#385,.T.);
#852=EDGE_CURVE('',#682,#680,#386,.T.);
#853=EDGE_CURVE('',#681,#682,#387,.T.);
#854=EDGE_CURVE('',#683,#681,#567,.T.);
#855=EDGE_CURVE('',#684,#682,#568,.T.);
#856=EDGE_CURVE('',#683,#684,#388,.T.);
#857=EDGE_CURVE('',#683,#685,#389,.T.);
#858=EDGE_CURVE('',#686,#684,#390,.T.);
#859=EDGE_CURVE('',#685,#686,#391,.T.);
#860=EDGE_CURVE('',#687,#685,#569,.T.);
#861=EDGE_CURVE('',#688,#686,#570,.T.);
#862=EDGE_CURVE('',#687,#688,#392,.T.);
#863=EDGE_CURVE('',#687,#689,#393,.T.);
#864=EDGE_CURVE('',#690,#688,#394,.T.);
#865=EDGE_CURVE('',#689,#690,#395,.T.);
#866=EDGE_CURVE('',#675,#689,#571,.T.);
#867=EDGE_CURVE('',#677,#690,#572,.T.);
#868=ORIENTED_EDGE('',*,*,#691,.F.);
#869=ORIENTED_EDGE('',*,*,#692,.T.);
#870=ORIENTED_EDGE('',*,*,#693,.F.);
#871=ORIENTED_EDGE('',*,*,#692,.F.);
#872=ORIENTED_EDGE('',*,*,#694,.F.);
#873=ORIENTED_EDGE('',*,*,#695,.T.);
#874=ORIENTED_EDGE('',*,*,#696,.F.);
#875=ORIENTED_EDGE('',*,*,#695,.F.);
#876=ORIENTED_EDGE('',*,*,#697,.F.);
#877=ORIENTED_EDGE('',*,*,#698,.T.);
#878=ORIENTED_EDGE('',*,*,#699,.T.);
#879=ORIENTED_EDGE('',*,*,#698,.F.);
#880=ORIENTED_EDGE('',*,*,#700,.T.);
#881=ORIENTED_EDGE('',*,*,#701,.T.);
#882=ORIENTED_EDGE('',*,*,#702,.F.);
#883=ORIENTED_EDGE('',*,*,#703,.F.);
#884=ORIENTED_EDGE('',*,*,#704,.T.);
#885=ORIENTED_EDGE('',*,*,#703,.T.);
#886=ORIENTED_EDGE('',*,*,#705,.F.);
#887=ORIENTED_EDGE('',*,*,#706,.F.);
#888=ORIENTED_EDGE('',*,*,#707,.T.);
#889=ORIENTED_EDGE('',*,*,#706,.T.);
#890=ORIENTED_EDGE('',*,*,#708,.F.);
#891=ORIENTED_EDGE('',*,*,#709,.F.);
#892=ORIENTED_EDGE('',*,*,#710,.T.);
#893=ORIENTED_EDGE('',*,*,#709,.T.);
#894=ORIENTED_EDGE('',*,*,#711,.F.);
#895=ORIENTED_EDGE('',*,*,#701,.F.);
#896=ORIENTED_EDGE('',*,*,#712,.T.);
#897=ORIENTED_EDGE('',*,*,#713,.T.);
#898=ORIENTED_EDGE('',*,*,#714,.F.);
#899=ORIENTED_EDGE('',*,*,#715,.F.);
#900=ORIENTED_EDGE('',*,*,#716,.T.);
#901=ORIENTED_EDGE('',*,*,#715,.T.);
#902=ORIENTED_EDGE('',*,*,#717,.F.);
#903=ORIENTED_EDGE('',*,*,#718,.F.);
#904=ORIENTED_EDGE('',*,*,#719,.T.);
#905=ORIENTED_EDGE('',*,*,#718,.T.);
#906=ORIENTED_EDGE('',*,*,#720,.F.);
#907=ORIENTED_EDGE('',*,*,#721,.F.);
#908=ORIENTED_EDGE('',*,*,#722,.T.);
#909=ORIENTED_EDGE('',*,*,#721,.T.);
#910=ORIENTED_EDGE('',*,*,#723,.F.);
#911=ORIENTED_EDGE('',*,*,#713,.F.);
#912=ORIENTED_EDGE('',*,*,#724,.F.);
#913=ORIENTED_EDGE('',*,*,#725,.T.);
#914=ORIENTED_EDGE('',*,*,#726,.T.);
#915=ORIENTED_EDGE('',*,*,#725,.F.);
#916=ORIENTED_EDGE('',*,*,#727,.F.);
#917=ORIENTED_EDGE('',*,*,#728,.T.);
#918=ORIENTED_EDGE('',*,*,#729,.T.);
#919=ORIENTED_EDGE('',*,*,#728,.F.);
#920=ORIENTED_EDGE('',*,*,#730,.F.);
#921=ORIENTED_EDGE('',*,*,#731,.T.);
#922=ORIENTED_EDGE('',*,*,#732,.T.);
#923=ORIENTED_EDGE('',*,*,#731,.F.);
#924=ORIENTED_EDGE('',*,*,#733,.F.);
#925=ORIENTED_EDGE('',*,*,#734,.T.);
#926=ORIENTED_EDGE('',*,*,#735,.T.);
#927=ORIENTED_EDGE('',*,*,#734,.F.);
#928=ORIENTED_EDGE('',*,*,#736,.F.);
#929=ORIENTED_EDGE('',*,*,#737,.T.);
#930=ORIENTED_EDGE('',*,*,#738,.T.);
#931=ORIENTED_EDGE('',*,*,#737,.F.);
#932=ORIENTED_EDGE('',*,*,#739,.F.);
#933=ORIENTED_EDGE('',*,*,#740,.T.);
#934=ORIENTED_EDGE('',*,*,#741,.T.);
#935=ORIENTED_EDGE('',*,*,#740,.F.);
#936=ORIENTED_EDGE('',*,*,#742,.F.);
#937=ORIENTED_EDGE('',*,*,#743,.T.);
#938=ORIENTED_EDGE('',*,*,#744,.T.);
#939=ORIENTED_EDGE('',*,*,#743,.F.);
#940=ORIENTED_EDGE('',*,*,#745,.F.);
#941=ORIENTED_EDGE('',*,*,#746,.T.);
#942=ORIENTED_EDGE('',*,*,#747,.T.);
#943=ORIENTED_EDGE('',*,*,#746,.F.);
#944=ORIENTED_EDGE('',*,*,#748,.F.);
#945=ORIENTED_EDGE('',*,*,#749,.T.);
#946=ORIENTED_EDGE('',*,*,#750,.T.);
#947=ORIENTED_EDGE('',*,*,#749,.F.);
#948=ORIENTED_EDGE('',*,*,#751,.F.);
#949=ORIENTED_EDGE('',*,*,#752,.T.);
#950=ORIENTED_EDGE('',*,*,#753,.T.);
#951=ORIENTED_EDGE('',*,*,#752,.F.);
#952=ORIENTED_EDGE('',*,*,#754,.F.);
#953=ORIENTED_EDGE('',*,*,#755,.T.);
#954=ORIENTED_EDGE('',*,*,#756,.T.);
#955=ORIENTED_EDGE('',*,*,#755,.F.);
#956=ORIENTED_EDGE('',*,*,#757,.F.);
#957=ORIENTED_EDGE('',*,*,#758,.T.);
#958=ORIENTED_EDGE('',*,*,#759,.T.);
#959=ORIENTED_EDGE('',*,*,#758,.F.);
#960=ORIENTED_EDGE('',*,*,#760,.T.);
#961=ORIENTED_EDGE('',*,*,#761,.T.);
#962=ORIENTED_EDGE('',*,*,#762,.F.);
#963=ORIENTED_EDGE('',*,*,#763,.F.);
#964=ORIENTED_EDGE('',*,*,#764,.T.);
#965=ORIENTED_EDGE('',*,*,#763,.T.);
#966=ORIENTED_EDGE('',*,*,#765,.F.);
#967=ORIENTED_EDGE('',*,*,#766,.F.);
#968=ORIENTED_EDGE('',*,*,#767,.T.);
#969=ORIENTED_EDGE('',*,*,#766,.T.);
#970=ORIENTED_EDGE('',*,*,#768,.F.);
#971=ORIENTED_EDGE('',*,*,#769,.F.);
#972=ORIENTED_EDGE('',*,*,#770,.T.);
#973=ORIENTED_EDGE('',*,*,#769,.T.);
#974=ORIENTED_EDGE('',*,*,#771,.F.);
#975=ORIENTED_EDGE('',*,*,#761,.F.);
#976=ORIENTED_EDGE('',*,*,#772,.F.);
#977=ORIENTED_EDGE('',*,*,#773,.T.);
#978=ORIENTED_EDGE('',*,*,#774,.T.);
#979=ORIENTED_EDGE('',*,*,#773,.F.);
#980=ORIENTED_EDGE('',*,*,#775,.F.);
#981=ORIENTED_EDGE('',*,*,#776,.T.);
#982=ORIENTED_EDGE('',*,*,#777,.T.);
#983=ORIENTED_EDGE('',*,*,#776,.F.);
#984=ORIENTED_EDGE('',*,*,#778,.F.);
#985=ORIENTED_EDGE('',*,*,#779,.T.);
#986=ORIENTED_EDGE('',*,*,#780,.T.);
#987=ORIENTED_EDGE('',*,*,#779,.F.);
#988=ORIENTED_EDGE('',*,*,#781,.F.);
#989=ORIENTED_EDGE('',*,*,#782,.T.);
#990=ORIENTED_EDGE('',*,*,#783,.T.);
#991=ORIENTED_EDGE('',*,*,#782,.F.);
#992=ORIENTED_EDGE('',*,*,#784,.F.);
#993=ORIENTED_EDGE('',*,*,#785,.T.);
#994=ORIENTED_EDGE('',*,*,#786,.T.);
#995=ORIENTED_EDGE('',*,*,#785,.F.);
#996=ORIENTED_EDGE('',*,*,#787,.F.);
#997=ORIENTED_EDGE('',*,*,#788,.T.);
#998=ORIENTED_EDGE('',*,*,#789,.T.);
#999=ORIENTED_EDGE('',*,*,#788,.F.);
#1000=ORIENTED_EDGE('',*,*,#790,.F.);
#1001=ORIENTED_EDGE('',*,*,#791,.T.);
#1002=ORIENTED_EDGE('',*,*,#792,.T.);
#1003=ORIENTED_EDGE('',*,*,#791,.F.);
#1004=ORIENTED_EDGE('',*,*,#793,.F.);
#1005=ORIENTED_EDGE('',*,*,#794,.T.);
#1006=ORIENTED_EDGE('',*,*,#795,.T.);
#1007=ORIENTED_EDGE('',*,*,#794,.F.);
#1008=ORIENTED_EDGE('',*,*,#796,.F.);
#1009=ORIENTED_EDGE('',*,*,#797,.T.);
#1010=ORIENTED_EDGE('',*,*,#798,.T.);
#1011=ORIENTED_EDGE('',*,*,#797,.F.);
#1012=ORIENTED_EDGE('',*,*,#799,.F.);
#1013=ORIENTED_EDGE('',*,*,#800,.T.);
#1014=ORIENTED_EDGE('',*,*,#801,.T.);
#1015=ORIENTED_EDGE('',*,*,#800,.F.);
#1016=ORIENTED_EDGE('',*,*,#802,.F.);
#1017=ORIENTED_EDGE('',*,*,#803,.T.);
#1018=ORIENTED_EDGE('',*,*,#804,.T.);
#1019=ORIENTED_EDGE('',*,*,#803,.F.);
#1020=ORIENTED_EDGE('',*,*,#805,.F.);
#1021=ORIENTED_EDGE('',*,*,#806,.T.);
#1022=ORIENTED_EDGE('',*,*,#807,.T.);
#1023=ORIENTED_EDGE('',*,*,#806,.F.);
#1024=ORIENTED_EDGE('',*,*,#808,.T.);
#1025=ORIENTED_EDGE('',*,*,#809,.T.);
#1026=ORIENTED_EDGE('',*,*,#810,.F.);
#1027=ORIENTED_EDGE('',*,*,#811,.F.);
#1028=ORIENTED_EDGE('',*,*,#812,.T.);
#1029=ORIENTED_EDGE('',*,*,#811,.T.);
#1030=ORIENTED_EDGE('',*,*,#813,.F.);
#1031=ORIENTED_EDGE('',*,*,#814,.F.);
#1032=ORIENTED_EDGE('',*,*,#815,.T.);
#1033=ORIENTED_EDGE('',*,*,#814,.T.);
#1034=ORIENTED_EDGE('',*,*,#816,.F.);
#1035=ORIENTED_EDGE('',*,*,#817,.F.);
#1036=ORIENTED_EDGE('',*,*,#818,.T.);
#1037=ORIENTED_EDGE('',*,*,#817,.T.);
#1038=ORIENTED_EDGE('',*,*,#819,.F.);
#1039=ORIENTED_EDGE('',*,*,#809,.F.);
#1040=ORIENTED_EDGE('',*,*,#820,.F.);
#1041=ORIENTED_EDGE('',*,*,#821,.T.);
#1042=ORIENTED_EDGE('',*,*,#822,.T.);
#1043=ORIENTED_EDGE('',*,*,#821,.F.);
#1044=ORIENTED_EDGE('',*,*,#823,.F.);
#1045=ORIENTED_EDGE('',*,*,#824,.T.);
#1046=ORIENTED_EDGE('',*,*,#825,.T.);
#1047=ORIENTED_EDGE('',*,*,#824,.F.);
#1048=ORIENTED_EDGE('',*,*,#826,.F.);
#1049=ORIENTED_EDGE('',*,*,#827,.T.);
#1050=ORIENTED_EDGE('',*,*,#828,.T.);
#1051=ORIENTED_EDGE('',*,*,#827,.F.);
#1052=ORIENTED_EDGE('',*,*,#829,.F.);
#1053=ORIENTED_EDGE('',*,*,#830,.T.);
#1054=ORIENTED_EDGE('',*,*,#831,.T.);
#1055=ORIENTED_EDGE('',*,*,#830,.F.);
#1056=ORIENTED_EDGE('',*,*,#832,.T.);
#1057=ORIENTED_EDGE('',*,*,#833,.T.);
#1058=ORIENTED_EDGE('',*,*,#834,.F.);
#1059=ORIENTED_EDGE('',*,*,#835,.F.);
#1060=ORIENTED_EDGE('',*,*,#836,.T.);
#1061=ORIENTED_EDGE('',*,*,#835,.T.);
#1062=ORIENTED_EDGE('',*,*,#837,.F.);
#1063=ORIENTED_EDGE('',*,*,#838,.F.);
#1064=ORIENTED_EDGE('',*,*,#839,.T.);
#1065=ORIENTED_EDGE('',*,*,#838,.T.);
#1066=ORIENTED_EDGE('',*,*,#840,.F.);
#1067=ORIENTED_EDGE('',*,*,#841,.F.);
#1068=ORIENTED_EDGE('',*,*,#842,.T.);
#1069=ORIENTED_EDGE('',*,*,#841,.T.);
#1070=ORIENTED_EDGE('',*,*,#843,.F.);
#1071=ORIENTED_EDGE('',*,*,#833,.F.);
#1072=ORIENTED_EDGE('',*,*,#844,.F.);
#1073=ORIENTED_EDGE('',*,*,#845,.T.);
#1074=ORIENTED_EDGE('',*,*,#846,.F.);
#1075=ORIENTED_EDGE('',*,*,#847,.F.);
#1076=ORIENTED_EDGE('',*,*,#848,.T.);
#1077=ORIENTED_EDGE('',*,*,#847,.T.);
#1078=ORIENTED_EDGE('',*,*,#849,.F.);
#1079=ORIENTED_EDGE('',*,*,#850,.F.);
#1080=ORIENTED_EDGE('',*,*,#851,.F.);
#1081=ORIENTED_EDGE('',*,*,#850,.T.);
#1082=ORIENTED_EDGE('',*,*,#852,.F.);
#1083=ORIENTED_EDGE('',*,*,#853,.F.);
#1084=ORIENTED_EDGE('',*,*,#854,.T.);
#1085=ORIENTED_EDGE('',*,*,#853,.T.);
#1086=ORIENTED_EDGE('',*,*,#855,.F.);
#1087=ORIENTED_EDGE('',*,*,#856,.F.);
#1088=ORIENTED_EDGE('',*,*,#857,.F.);
#1089=ORIENTED_EDGE('',*,*,#856,.T.);
#1090=ORIENTED_EDGE('',*,*,#858,.F.);
#1091=ORIENTED_EDGE('',*,*,#859,.F.);
#1092=ORIENTED_EDGE('',*,*,#860,.T.);
#1093=ORIENTED_EDGE('',*,*,#859,.T.);
#1094=ORIENTED_EDGE('',*,*,#861,.F.);
#1095=ORIENTED_EDGE('',*,*,#862,.F.);
#1096=ORIENTED_EDGE('',*,*,#863,.F.);
#1097=ORIENTED_EDGE('',*,*,#862,.T.);
#1098=ORIENTED_EDGE('',*,*,#864,.F.);
#1099=ORIENTED_EDGE('',*,*,#865,.F.);
#1100=ORIENTED_EDGE('',*,*,#866,.T.);
#1101=ORIENTED_EDGE('',*,*,#865,.T.);
#1102=ORIENTED_EDGE('',*,*,#867,.F.);
#1103=ORIENTED_EDGE('',*,*,#845,.F.);
#1104=ORIENTED_EDGE('',*,*,#867,.T.);
#1105=ORIENTED_EDGE('',*,*,#864,.T.);
#1106=ORIENTED_EDGE('',*,*,#861,.T.);
#1107=ORIENTED_EDGE('',*,*,#858,.T.);
#1108=ORIENTED_EDGE('',*,*,#855,.T.);
#1109=ORIENTED_EDGE('',*,*,#852,.T.);
#1110=ORIENTED_EDGE('',*,*,#849,.T.);
#1111=ORIENTED_EDGE('',*,*,#846,.T.);
#1112=ORIENTED_EDGE('',*,*,#697,.T.);
#1113=ORIENTED_EDGE('',*,*,#711,.T.);
#1114=ORIENTED_EDGE('',*,*,#708,.T.);
#1115=ORIENTED_EDGE('',*,*,#705,.T.);
#1116=ORIENTED_EDGE('',*,*,#702,.T.);
#1117=ORIENTED_EDGE('',*,*,#723,.T.);
#1118=ORIENTED_EDGE('',*,*,#720,.T.);
#1119=ORIENTED_EDGE('',*,*,#717,.T.);
#1120=ORIENTED_EDGE('',*,*,#714,.T.);
#1121=ORIENTED_EDGE('',*,*,#724,.T.);
#1122=ORIENTED_EDGE('',*,*,#727,.T.);
#1123=ORIENTED_EDGE('',*,*,#730,.T.);
#1124=ORIENTED_EDGE('',*,*,#733,.T.);
#1125=ORIENTED_EDGE('',*,*,#736,.T.);
#1126=ORIENTED_EDGE('',*,*,#739,.T.);
#1127=ORIENTED_EDGE('',*,*,#742,.T.);
#1128=ORIENTED_EDGE('',*,*,#745,.T.);
#1129=ORIENTED_EDGE('',*,*,#748,.T.);
#1130=ORIENTED_EDGE('',*,*,#751,.T.);
#1131=ORIENTED_EDGE('',*,*,#754,.T.);
#1132=ORIENTED_EDGE('',*,*,#757,.T.);
#1133=ORIENTED_EDGE('',*,*,#771,.T.);
#1134=ORIENTED_EDGE('',*,*,#768,.T.);
#1135=ORIENTED_EDGE('',*,*,#765,.T.);
#1136=ORIENTED_EDGE('',*,*,#762,.T.);
#1137=ORIENTED_EDGE('',*,*,#772,.T.);
#1138=ORIENTED_EDGE('',*,*,#775,.T.);
#1139=ORIENTED_EDGE('',*,*,#778,.T.);
#1140=ORIENTED_EDGE('',*,*,#781,.T.);
#1141=ORIENTED_EDGE('',*,*,#784,.T.);
#1142=ORIENTED_EDGE('',*,*,#787,.T.);
#1143=ORIENTED_EDGE('',*,*,#790,.T.);
#1144=ORIENTED_EDGE('',*,*,#793,.T.);
#1145=ORIENTED_EDGE('',*,*,#796,.T.);
#1146=ORIENTED_EDGE('',*,*,#799,.T.);
#1147=ORIENTED_EDGE('',*,*,#802,.T.);
#1148=ORIENTED_EDGE('',*,*,#805,.T.);
#1149=ORIENTED_EDGE('',*,*,#819,.T.);
#1150=ORIENTED_EDGE('',*,*,#816,.T.);
#1151=ORIENTED_EDGE('',*,*,#813,.T.);
#1152=ORIENTED_EDGE('',*,*,#810,.T.);
#1153=ORIENTED_EDGE('',*,*,#820,.T.);
#1154=ORIENTED_EDGE('',*,*,#823,.T.);
#1155=ORIENTED_EDGE('',*,*,#826,.T.);
#1156=ORIENTED_EDGE('',*,*,#829,.T.);
#1157=ORIENTED_EDGE('',*,*,#843,.T.);
#1158=ORIENTED_EDGE('',*,*,#840,.T.);
#1159=ORIENTED_EDGE('',*,*,#837,.T.);
#1160=ORIENTED_EDGE('',*,*,#834,.T.);
#1161=ORIENTED_EDGE('',*,*,#696,.T.);
#1162=ORIENTED_EDGE('',*,*,#693,.T.);
#1163=ORIENTED_EDGE('',*,*,#866,.F.);
#1164=ORIENTED_EDGE('',*,*,#844,.T.);
#1165=ORIENTED_EDGE('',*,*,#848,.F.);
#1166=ORIENTED_EDGE('',*,*,#851,.T.);
#1167=ORIENTED_EDGE('',*,*,#854,.F.);
#1168=ORIENTED_EDGE('',*,*,#857,.T.);
#1169=ORIENTED_EDGE('',*,*,#860,.F.);
#1170=ORIENTED_EDGE('',*,*,#863,.T.);
#1171=ORIENTED_EDGE('',*,*,#699,.F.);
#1172=ORIENTED_EDGE('',*,*,#710,.F.);
#1173=ORIENTED_EDGE('',*,*,#700,.F.);
#1174=ORIENTED_EDGE('',*,*,#704,.F.);
#1175=ORIENTED_EDGE('',*,*,#707,.F.);
#1176=ORIENTED_EDGE('',*,*,#722,.F.);
#1177=ORIENTED_EDGE('',*,*,#712,.F.);
#1178=ORIENTED_EDGE('',*,*,#716,.F.);
#1179=ORIENTED_EDGE('',*,*,#719,.F.);
#1180=ORIENTED_EDGE('',*,*,#726,.F.);
#1181=ORIENTED_EDGE('',*,*,#729,.F.);
#1182=ORIENTED_EDGE('',*,*,#732,.F.);
#1183=ORIENTED_EDGE('',*,*,#735,.F.);
#1184=ORIENTED_EDGE('',*,*,#738,.F.);
#1185=ORIENTED_EDGE('',*,*,#741,.F.);
#1186=ORIENTED_EDGE('',*,*,#744,.F.);
#1187=ORIENTED_EDGE('',*,*,#747,.F.);
#1188=ORIENTED_EDGE('',*,*,#750,.F.);
#1189=ORIENTED_EDGE('',*,*,#753,.F.);
#1190=ORIENTED_EDGE('',*,*,#756,.F.);
#1191=ORIENTED_EDGE('',*,*,#759,.F.);
#1192=ORIENTED_EDGE('',*,*,#770,.F.);
#1193=ORIENTED_EDGE('',*,*,#760,.F.);
#1194=ORIENTED_EDGE('',*,*,#764,.F.);
#1195=ORIENTED_EDGE('',*,*,#767,.F.);
#1196=ORIENTED_EDGE('',*,*,#774,.F.);
#1197=ORIENTED_EDGE('',*,*,#777,.F.);
#1198=ORIENTED_EDGE('',*,*,#780,.F.);
#1199=ORIENTED_EDGE('',*,*,#783,.F.);
#1200=ORIENTED_EDGE('',*,*,#786,.F.);
#1201=ORIENTED_EDGE('',*,*,#789,.F.);
#1202=ORIENTED_EDGE('',*,*,#792,.F.);
#1203=ORIENTED_EDGE('',*,*,#795,.F.);
#1204=ORIENTED_EDGE('',*,*,#798,.F.);
#1205=ORIENTED_EDGE('',*,*,#801,.F.);
#1206=ORIENTED_EDGE('',*,*,#804,.F.);
#1207=ORIENTED_EDGE('',*,*,#807,.F.);
#1208=ORIENTED_EDGE('',*,*,#818,.F.);
#1209=ORIENTED_EDGE('',*,*,#808,.F.);
#1210=ORIENTED_EDGE('',*,*,#812,.F.);
#1211=ORIENTED_EDGE('',*,*,#815,.F.);
#1212=ORIENTED_EDGE('',*,*,#822,.F.);
#1213=ORIENTED_EDGE('',*,*,#825,.F.);
#1214=ORIENTED_EDGE('',*,*,#828,.F.);
#1215=ORIENTED_EDGE('',*,*,#831,.F.);
#1216=ORIENTED_EDGE('',*,*,#842,.F.);
#1217=ORIENTED_EDGE('',*,*,#832,.F.);
#1218=ORIENTED_EDGE('',*,*,#836,.F.);
#1219=ORIENTED_EDGE('',*,*,#839,.F.);
#1220=ORIENTED_EDGE('',*,*,#694,.T.);
#1221=ORIENTED_EDGE('',*,*,#691,.T.);
#1222=CYLINDRICAL_SURFACE('',#1338,2.);
#1223=CYLINDRICAL_SURFACE('',#1341,2.);
#1224=CYLINDRICAL_SURFACE('',#1344,2.34999999999999);
#1225=CYLINDRICAL_SURFACE('',#1348,1.99999999999946);
#1226=CYLINDRICAL_SURFACE('',#1352,1.9999999999999);
#1227=CYLINDRICAL_SURFACE('',#1359,2.35);
#1228=CYLINDRICAL_SURFACE('',#1362,2.00000000000001);
#1229=CYLINDRICAL_SURFACE('',#1365,1.55000000000001);
#1230=CYLINDRICAL_SURFACE('',#1368,1.5);
#1231=CYLINDRICAL_SURFACE('',#1371,1.55);
#1232=CYLINDRICAL_SURFACE('',#1374,3.);
#1233=CYLINDRICAL_SURFACE('',#1377,1.55);
#1234=CYLINDRICAL_SURFACE('',#1380,1.25);
#1235=CYLINDRICAL_SURFACE('',#1383,1.25);
#1236=CYLINDRICAL_SURFACE('',#1386,1.5);
#1237=CYLINDRICAL_SURFACE('',#1389,1.5);
#1238=CYLINDRICAL_SURFACE('',#1392,1.25);
#1239=CYLINDRICAL_SURFACE('',#1396,5.);
#1240=CYLINDRICAL_SURFACE('',#1400,5.);
#1241=CYLINDRICAL_SURFACE('',#1403,2.35);
#1242=CYLINDRICAL_SURFACE('',#1406,2.00000000000001);
#1243=CYLINDRICAL_SURFACE('',#1409,1.99999999999999);
#1244=CYLINDRICAL_SURFACE('',#1412,2.00000000000001);
#1245=CYLINDRICAL_SURFACE('',#1415,3.);
#1246=CYLINDRICAL_SURFACE('',#1418,1.25);
#1247=CYLINDRICAL_SURFACE('',#1421,1.25);
#1248=CYLINDRICAL_SURFACE('',#1424,1.25);
#1249=CYLINDRICAL_SURFACE('',#1427,1.25);
#1250=CYLINDRICAL_SURFACE('',#1430,1.99999999999999);
#1251=CYLINDRICAL_SURFACE('',#1433,1.25);
#1252=CYLINDRICAL_SURFACE('',#1436,11.05);
#1253=CYLINDRICAL_SURFACE('',#1443,1.55000000000001);
#1254=CYLINDRICAL_SURFACE('',#1446,1.5);
#1255=CYLINDRICAL_SURFACE('',#1449,2.00000000000001);
#1256=CYLINDRICAL_SURFACE('',#1452,2.34999999999999);
#1257=CYLINDRICAL_SURFACE('',#1456,1.99999999999945);
#1258=CYLINDRICAL_SURFACE('',#1460,1.9999999999999);
#1259=CYLINDRICAL_SURFACE('',#1464,10.0000000000001);
#1260=CYLINDRICAL_SURFACE('',#1468,9.99999999999996);
#1261=CYLINDRICAL_SURFACE('',#1472,10.);
#1262=CYLINDRICAL_SURFACE('',#1476,9.99999999999998);
#1263=ADVANCED_FACE('',(#107),#1222,.F.);
#1264=ADVANCED_FACE('',(#108),#1223,.F.);
#1265=ADVANCED_FACE('',(#109),#1224,.F.);
#1266=ADVANCED_FACE('',(#110),#87,.T.);
#1267=ADVANCED_FACE('',(#111),#1225,.F.);
#1268=ADVANCED_FACE('',(#112),#88,.T.);
#1269=ADVANCED_FACE('',(#113),#1226,.F.);
#1270=ADVANCED_FACE('',(#114),#89,.T.);
#1271=ADVANCED_FACE('',(#115),#90,.T.);
#1272=ADVANCED_FACE('',(#116),#91,.T.);
#1273=ADVANCED_FACE('',(#117),#92,.T.);
#1274=ADVANCED_FACE('',(#118),#1227,.F.);
#1275=ADVANCED_FACE('',(#119),#1228,.F.);
#1276=ADVANCED_FACE('',(#120),#1229,.F.);
#1277=ADVANCED_FACE('',(#121),#1230,.F.);
#1278=ADVANCED_FACE('',(#122),#1231,.F.);
#1279=ADVANCED_FACE('',(#123),#1232,.F.);
#1280=ADVANCED_FACE('',(#124),#1233,.F.);
#1281=ADVANCED_FACE('',(#125),#1234,.F.);
#1282=ADVANCED_FACE('',(#126),#1235,.F.);
#1283=ADVANCED_FACE('',(#127),#1236,.F.);
#1284=ADVANCED_FACE('',(#128),#1237,.F.);
#1285=ADVANCED_FACE('',(#129),#1238,.F.);
#1286=ADVANCED_FACE('',(#130),#93,.T.);
#1287=ADVANCED_FACE('',(#131),#1239,.F.);
#1288=ADVANCED_FACE('',(#132),#94,.T.);
#1289=ADVANCED_FACE('',(#133),#1240,.F.);
#1290=ADVANCED_FACE('',(#134),#1241,.F.);
#1291=ADVANCED_FACE('',(#135),#1242,.F.);
#1292=ADVANCED_FACE('',(#136),#1243,.F.);
#1293=ADVANCED_FACE('',(#137),#1244,.F.);
#1294=ADVANCED_FACE('',(#138),#1245,.F.);
#1295=ADVANCED_FACE('',(#139),#1246,.F.);
#1296=ADVANCED_FACE('',(#140),#1247,.F.);
#1297=ADVANCED_FACE('',(#141),#1248,.F.);
#1298=ADVANCED_FACE('',(#142),#1249,.F.);
#1299=ADVANCED_FACE('',(#143),#1250,.F.);
#1300=ADVANCED_FACE('',(#144),#1251,.F.);
#1301=ADVANCED_FACE('',(#145),#1252,.F.);
#1302=ADVANCED_FACE('',(#146),#95,.T.);
#1303=ADVANCED_FACE('',(#147),#96,.T.);
#1304=ADVANCED_FACE('',(#148),#97,.T.);
#1305=ADVANCED_FACE('',(#149),#98,.T.);
#1306=ADVANCED_FACE('',(#150),#1253,.F.);
#1307=ADVANCED_FACE('',(#151),#1254,.F.);
#1308=ADVANCED_FACE('',(#152),#1255,.F.);
#1309=ADVANCED_FACE('',(#153),#1256,.F.);
#1310=ADVANCED_FACE('',(#154),#99,.T.);
#1311=ADVANCED_FACE('',(#155),#1257,.F.);
#1312=ADVANCED_FACE('',(#156),#100,.T.);
#1313=ADVANCED_FACE('',(#157),#1258,.F.);
#1314=ADVANCED_FACE('',(#158),#101,.T.);
#1315=ADVANCED_FACE('',(#159),#1259,.T.);
#1316=ADVANCED_FACE('',(#160),#102,.T.);
#1317=ADVANCED_FACE('',(#161),#1260,.T.);
#1318=ADVANCED_FACE('',(#162),#103,.T.);
#1319=ADVANCED_FACE('',(#163),#1261,.T.);
#1320=ADVANCED_FACE('',(#164),#104,.T.);
#1321=ADVANCED_FACE('',(#165),#1262,.T.);
#1322=ADVANCED_FACE('',(#166,#15,#16,#17,#18,#19,#20,#21,#22,#23,#24,#25,
#26,#27,#28,#29,#30,#31,#32,#33,#34,#35,#36,#37,#38,#39,#40,#41,#42,#43,
#44,#45,#46,#47,#48,#49,#50),#105,.T.);
#1323=ADVANCED_FACE('',(#167,#51,#52,#53,#54,#55,#56,#57,#58,#59,#60,#61,
#62,#63,#64,#65,#66,#67,#68,#69,#70,#71,#72,#73,#74,#75,#76,#77,#78,#79,
#80,#81,#82,#83,#84,#85,#86),#106,.F.);
#1324=CLOSED_SHELL('',(#1263,#1264,#1265,#1266,#1267,#1268,#1269,#1270,
#1271,#1272,#1273,#1274,#1275,#1276,#1277,#1278,#1279,#1280,#1281,#1282,
#1283,#1284,#1285,#1286,#1287,#1288,#1289,#1290,#1291,#1292,#1293,#1294,
#1295,#1296,#1297,#1298,#1299,#1300,#1301,#1302,#1303,#1304,#1305,#1306,
#1307,#1308,#1309,#1310,#1311,#1312,#1313,#1314,#1315,#1316,#1317,#1318,
#1319,#1320,#1321,#1322,#1323));
#1325=DERIVED_UNIT_ELEMENT(#1327,1.);
#1326=DERIVED_UNIT_ELEMENT(#2226,-3.);
#1327=(
MASS_UNIT()
NAMED_UNIT(*)
SI_UNIT(.KILO.,.GRAM.)
);
#1328=DERIVED_UNIT((#1325,#1326));
#1329=MEASURE_REPRESENTATION_ITEM('density measure',
POSITIVE_RATIO_MEASURE(7850.),#1328);
#1330=PROPERTY_DEFINITION_REPRESENTATION(#1335,#1332);
#1331=PROPERTY_DEFINITION_REPRESENTATION(#1336,#1333);
#1332=REPRESENTATION('material name',(#1334),#2223);
#1333=REPRESENTATION('density',(#1329),#2223);
#1334=DESCRIPTIVE_REPRESENTATION_ITEM('\X2\94A2\X0\','\X2\94A2\X0\');
#1335=PROPERTY_DEFINITION('material property','material name',#2233);
#1336=PROPERTY_DEFINITION('material property','density of part',#2233);
#1337=AXIS2_PLACEMENT_3D('',#1864,#1481,#1482);
#1338=AXIS2_PLACEMENT_3D('',#1865,#1483,#1484);
#1339=AXIS2_PLACEMENT_3D('',#1867,#1485,#1486);
#1340=AXIS2_PLACEMENT_3D('',#1870,#1488,#1489);
#1341=AXIS2_PLACEMENT_3D('',#1871,#1490,#1491);
#1342=AXIS2_PLACEMENT_3D('',#1873,#1492,#1493);
#1343=AXIS2_PLACEMENT_3D('',#1876,#1495,#1496);
#1344=AXIS2_PLACEMENT_3D('',#1877,#1497,#1498);
#1345=AXIS2_PLACEMENT_3D('',#1879,#1499,#1500);
#1346=AXIS2_PLACEMENT_3D('',#1882,#1502,#1503);
#1347=AXIS2_PLACEMENT_3D('',#1883,#1504,#1505);
#1348=AXIS2_PLACEMENT_3D('',#1892,#1510,#1511);
#1349=AXIS2_PLACEMENT_3D('',#1894,#1512,#1513);
#1350=AXIS2_PLACEMENT_3D('',#1896,#1514,#1515);
#1351=AXIS2_PLACEMENT_3D('',#1898,#1517,#1518);
#1352=AXIS2_PLACEMENT_3D('',#1904,#1522,#1523);
#1353=AXIS2_PLACEMENT_3D('',#1905,#1524,#1525);
#1354=AXIS2_PLACEMENT_3D('',#1906,#1526,#1527);
#1355=AXIS2_PLACEMENT_3D('',#1907,#1528,#1529);
#1356=AXIS2_PLACEMENT_3D('',#1916,#1534,#1535);
#1357=AXIS2_PLACEMENT_3D('',#1922,#1539,#1540);
#1358=AXIS2_PLACEMENT_3D('',#1928,#1544,#1545);
#1359=AXIS2_PLACEMENT_3D('',#1931,#1548,#1549);
#1360=AXIS2_PLACEMENT_3D('',#1933,#1550,#1551);
#1361=AXIS2_PLACEMENT_3D('',#1936,#1553,#1554);
#1362=AXIS2_PLACEMENT_3D('',#1937,#1555,#1556);
#1363=AXIS2_PLACEMENT_3D('',#1939,#1557,#1558);
#1364=AXIS2_PLACEMENT_3D('',#1942,#1560,#1561);
#1365=AXIS2_PLACEMENT_3D('',#1943,#1562,#1563);
#1366=AXIS2_PLACEMENT_3D('',#1945,#1564,#1565);
#1367=AXIS2_PLACEMENT_3D('',#1948,#1567,#1568);
#1368=AXIS2_PLACEMENT_3D('',#1949,#1569,#1570);
#1369=AXIS2_PLACEMENT_3D('',#1951,#1571,#1572);
#1370=AXIS2_PLACEMENT_3D('',#1954,#1574,#1575);
#1371=AXIS2_PLACEMENT_3D('',#1955,#1576,#1577);
#1372=AXIS2_PLACEMENT_3D('',#1957,#1578,#1579);
#1373=AXIS2_PLACEMENT_3D('',#1960,#1581,#1582);
#1374=AXIS2_PLACEMENT_3D('',#1961,#1583,#1584);
#1375=AXIS2_PLACEMENT_3D('',#1963,#1585,#1586);
#1376=AXIS2_PLACEMENT_3D('',#1966,#1588,#1589);
#1377=AXIS2_PLACEMENT_3D('',#1967,#1590,#1591);
#1378=AXIS2_PLACEMENT_3D('',#1969,#1592,#1593);
#1379=AXIS2_PLACEMENT_3D('',#1972,#1595,#1596);
#1380=AXIS2_PLACEMENT_3D('',#1973,#1597,#1598);
#1381=AXIS2_PLACEMENT_3D('',#1975,#1599,#1600);
#1382=AXIS2_PLACEMENT_3D('',#1978,#1602,#1603);
#1383=AXIS2_PLACEMENT_3D('',#1979,#1604,#1605);
#1384=AXIS2_PLACEMENT_3D('',#1981,#1606,#1607);
#1385=AXIS2_PLACEMENT_3D('',#1984,#1609,#1610);
#1386=AXIS2_PLACEMENT_3D('',#1985,#1611,#1612);
#1387=AXIS2_PLACEMENT_3D('',#1987,#1613,#1614);
#1388=AXIS2_PLACEMENT_3D('',#1990,#1616,#1617);
#1389=AXIS2_PLACEMENT_3D('',#1991,#1618,#1619);
#1390=AXIS2_PLACEMENT_3D('',#1993,#1620,#1621);
#1391=AXIS2_PLACEMENT_3D('',#1996,#1623,#1624);
#1392=AXIS2_PLACEMENT_3D('',#1997,#1625,#1626);
#1393=AXIS2_PLACEMENT_3D('',#1999,#1627,#1628);
#1394=AXIS2_PLACEMENT_3D('',#2002,#1630,#1631);
#1395=AXIS2_PLACEMENT_3D('',#2003,#1632,#1633);
#1396=AXIS2_PLACEMENT_3D('',#2012,#1638,#1639);
#1397=AXIS2_PLACEMENT_3D('',#2014,#1640,#1641);
#1398=AXIS2_PLACEMENT_3D('',#2016,#1642,#1643);
#1399=AXIS2_PLACEMENT_3D('',#2018,#1645,#1646);
#1400=AXIS2_PLACEMENT_3D('',#2024,#1650,#1651);
#1401=AXIS2_PLACEMENT_3D('',#2025,#1652,#1653);
#1402=AXIS2_PLACEMENT_3D('',#2026,#1654,#1655);
#1403=AXIS2_PLACEMENT_3D('',#2027,#1656,#1657);
#1404=AXIS2_PLACEMENT_3D('',#2029,#1658,#1659);
#1405=AXIS2_PLACEMENT_3D('',#2032,#1661,#1662);
#1406=AXIS2_PLACEMENT_3D('',#2033,#1663,#1664);
#1407=AXIS2_PLACEMENT_3D('',#2035,#1665,#1666);
#1408=AXIS2_PLACEMENT_3D('',#2038,#1668,#1669);
#1409=AXIS2_PLACEMENT_3D('',#2039,#1670,#1671);
#1410=AXIS2_PLACEMENT_3D('',#2041,#1672,#1673);
#1411=AXIS2_PLACEMENT_3D('',#2044,#1675,#1676);
#1412=AXIS2_PLACEMENT_3D('',#2045,#1677,#1678);
#1413=AXIS2_PLACEMENT_3D('',#2047,#1679,#1680);
#1414=AXIS2_PLACEMENT_3D('',#2050,#1682,#1683);
#1415=AXIS2_PLACEMENT_3D('',#2051,#1684,#1685);
#1416=AXIS2_PLACEMENT_3D('',#2053,#1686,#1687);
#1417=AXIS2_PLACEMENT_3D('',#2056,#1689,#1690);
#1418=AXIS2_PLACEMENT_3D('',#2057,#1691,#1692);
#1419=AXIS2_PLACEMENT_3D('',#2059,#1693,#1694);
#1420=AXIS2_PLACEMENT_3D('',#2062,#1696,#1697);
#1421=AXIS2_PLACEMENT_3D('',#2063,#1698,#1699);
#1422=AXIS2_PLACEMENT_3D('',#2065,#1700,#1701);
#1423=AXIS2_PLACEMENT_3D('',#2068,#1703,#1704);
#1424=AXIS2_PLACEMENT_3D('',#2069,#1705,#1706);
#1425=AXIS2_PLACEMENT_3D('',#2071,#1707,#1708);
#1426=AXIS2_PLACEMENT_3D('',#2074,#1710,#1711);
#1427=AXIS2_PLACEMENT_3D('',#2075,#1712,#1713);
#1428=AXIS2_PLACEMENT_3D('',#2077,#1714,#1715);
#1429=AXIS2_PLACEMENT_3D('',#2080,#1717,#1718);
#1430=AXIS2_PLACEMENT_3D('',#2081,#1719,#1720);
#1431=AXIS2_PLACEMENT_3D('',#2083,#1721,#1722);
#1432=AXIS2_PLACEMENT_3D('',#2086,#1724,#1725);
#1433=AXIS2_PLACEMENT_3D('',#2087,#1726,#1727);
#1434=AXIS2_PLACEMENT_3D('',#2089,#1728,#1729);
#1435=AXIS2_PLACEMENT_3D('',#2092,#1731,#1732);
#1436=AXIS2_PLACEMENT_3D('',#2093,#1733,#1734);
#1437=AXIS2_PLACEMENT_3D('',#2095,#1735,#1736);
#1438=AXIS2_PLACEMENT_3D('',#2098,#1738,#1739);
#1439=AXIS2_PLACEMENT_3D('',#2099,#1740,#1741);
#1440=AXIS2_PLACEMENT_3D('',#2108,#1746,#1747);
#1441=AXIS2_PLACEMENT_3D('',#2114,#1751,#1752);
#1442=AXIS2_PLACEMENT_3D('',#2120,#1756,#1757);
#1443=AXIS2_PLACEMENT_3D('',#2123,#1760,#1761);
#1444=AXIS2_PLACEMENT_3D('',#2125,#1762,#1763);
#1445=AXIS2_PLACEMENT_3D('',#2128,#1765,#1766);
#1446=AXIS2_PLACEMENT_3D('',#2129,#1767,#1768);
#1447=AXIS2_PLACEMENT_3D('',#2131,#1769,#1770);
#1448=AXIS2_PLACEMENT_3D('',#2134,#1772,#1773);
#1449=AXIS2_PLACEMENT_3D('',#2135,#1774,#1775);
#1450=AXIS2_PLACEMENT_3D('',#2137,#1776,#1777);
#1451=AXIS2_PLACEMENT_3D('',#2140,#1779,#1780);
#1452=AXIS2_PLACEMENT_3D('',#2141,#1781,#1782);
#1453=AXIS2_PLACEMENT_3D('',#2143,#1783,#1784);
#1454=AXIS2_PLACEMENT_3D('',#2146,#1786,#1787);
#1455=AXIS2_PLACEMENT_3D('',#2147,#1788,#1789);
#1456=AXIS2_PLACEMENT_3D('',#2156,#1794,#1795);
#1457=AXIS2_PLACEMENT_3D('',#2158,#1796,#1797);
#1458=AXIS2_PLACEMENT_3D('',#2160,#1798,#1799);
#1459=AXIS2_PLACEMENT_3D('',#2162,#1801,#1802);
#1460=AXIS2_PLACEMENT_3D('',#2168,#1806,#1807);
#1461=AXIS2_PLACEMENT_3D('',#2169,#1808,#1809);
#1462=AXIS2_PLACEMENT_3D('',#2170,#1810,#1811);
#1463=AXIS2_PLACEMENT_3D('',#2171,#1812,#1813);
#1464=AXIS2_PLACEMENT_3D('',#2180,#1818,#1819);
#1465=AXIS2_PLACEMENT_3D('',#2182,#1820,#1821);
#1466=AXIS2_PLACEMENT_3D('',#2184,#1822,#1823);
#1467=AXIS2_PLACEMENT_3D('',#2186,#1825,#1826);
#1468=AXIS2_PLACEMENT_3D('',#2192,#1830,#1831);
#1469=AXIS2_PLACEMENT_3D('',#2194,#1832,#1833);
#1470=AXIS2_PLACEMENT_3D('',#2196,#1834,#1835);
#1471=AXIS2_PLACEMENT_3D('',#2198,#1837,#1838);
#1472=AXIS2_PLACEMENT_3D('',#2204,#1842,#1843);
#1473=AXIS2_PLACEMENT_3D('',#2206,#1844,#1845);
#1474=AXIS2_PLACEMENT_3D('',#2208,#1846,#1847);
#1475=AXIS2_PLACEMENT_3D('',#2210,#1849,#1850);
#1476=AXIS2_PLACEMENT_3D('',#2216,#1854,#1855);
#1477=AXIS2_PLACEMENT_3D('',#2217,#1856,#1857);
#1478=AXIS2_PLACEMENT_3D('',#2218,#1858,#1859);
#1479=AXIS2_PLACEMENT_3D('',#2219,#1860,#1861);
#1480=AXIS2_PLACEMENT_3D('',#2220,#1862,#1863);
#1481=DIRECTION('axis',(0.,0.,1.));
#1482=DIRECTION('refdir',(1.,0.,0.));
#1483=DIRECTION('center_axis',(0.,1.,0.));
#1484=DIRECTION('ref_axis',(1.,0.,0.));
#1485=DIRECTION('center_axis',(0.,1.,0.));
#1486=DIRECTION('ref_axis',(1.,0.,0.));
#1487=DIRECTION('',(0.,1.,0.));
#1488=DIRECTION('center_axis',(0.,-1.,0.));
#1489=DIRECTION('ref_axis',(1.,0.,0.));
#1490=DIRECTION('center_axis',(0.,1.,0.));
#1491=DIRECTION('ref_axis',(1.,0.,0.));
#1492=DIRECTION('center_axis',(0.,1.,0.));
#1493=DIRECTION('ref_axis',(1.,0.,0.));
#1494=DIRECTION('',(0.,1.,0.));
#1495=DIRECTION('center_axis',(0.,-1.,0.));
#1496=DIRECTION('ref_axis',(1.,0.,0.));
#1497=DIRECTION('center_axis',(0.,1.,0.));
#1498=DIRECTION('ref_axis',(1.,0.,0.));
#1499=DIRECTION('center_axis',(0.,-1.,0.));
#1500=DIRECTION('ref_axis',(1.,0.,0.));
#1501=DIRECTION('',(0.,-1.,0.));
#1502=DIRECTION('center_axis',(0.,-1.,0.));
#1503=DIRECTION('ref_axis',(1.,0.,0.));
#1504=DIRECTION('center_axis',(4.69935671799008E-15,0.,-1.));
#1505=DIRECTION('ref_axis',(-1.,0.,-4.69935671799008E-15));
#1506=DIRECTION('',(-1.,0.,-4.69935671799008E-15));
#1507=DIRECTION('',(0.,1.,0.));
#1508=DIRECTION('',(-1.,0.,-4.69935671799008E-15));
#1509=DIRECTION('',(0.,1.,0.));
#1510=DIRECTION('center_axis',(0.,1.,0.));
#1511=DIRECTION('ref_axis',(0.,0.,1.));
#1512=DIRECTION('center_axis',(0.,-1.,0.));
#1513=DIRECTION('ref_axis',(0.,0.,1.));
#1514=DIRECTION('center_axis',(0.,-1.,0.));
#1515=DIRECTION('ref_axis',(0.,0.,1.));
#1516=DIRECTION('',(0.,1.,0.));
#1517=DIRECTION('center_axis',(-4.79334385234988E-13,0.,1.));
#1518=DIRECTION('ref_axis',(1.,0.,4.79334385234988E-13));
#1519=DIRECTION('',(1.,0.,4.79334385234988E-13));
#1520=DIRECTION('',(1.,0.,4.79334385234988E-13));
#1521=DIRECTION('',(0.,1.,0.));
#1522=DIRECTION('center_axis',(0.,1.,0.));
#1523=DIRECTION('ref_axis',(0.,0.,-1.));
#1524=DIRECTION('center_axis',(0.,-1.,0.));
#1525=DIRECTION('ref_axis',(0.,0.,-1.));
#1526=DIRECTION('center_axis',(0.,-1.,0.));
#1527=DIRECTION('ref_axis',(0.,0.,-1.));
#1528=DIRECTION('center_axis',(-1.,0.,0.));
#1529=DIRECTION('ref_axis',(0.,0.,1.));
#1530=DIRECTION('',(0.,0.,1.));
#1531=DIRECTION('',(0.,1.,0.));
#1532=DIRECTION('',(0.,0.,1.));
#1533=DIRECTION('',(0.,1.,0.));
#1534=DIRECTION('center_axis',(0.,0.,1.));
#1535=DIRECTION('ref_axis',(1.,0.,0.));
#1536=DIRECTION('',(1.,0.,0.));
#1537=DIRECTION('',(1.,0.,0.));
#1538=DIRECTION('',(0.,1.,0.));
#1539=DIRECTION('center_axis',(1.,0.,0.));
#1540=DIRECTION('ref_axis',(0.,0.,-1.));
#1541=DIRECTION('',(0.,0.,-1.));
#1542=DIRECTION('',(0.,0.,-1.));
#1543=DIRECTION('',(0.,1.,0.));
#1544=DIRECTION('center_axis',(2.96059473233375E-16,0.,-1.));
#1545=DIRECTION('ref_axis',(-1.,0.,-2.96059473233375E-16));
#1546=DIRECTION('',(-1.,0.,-2.96059473233375E-16));
#1547=DIRECTION('',(-1.,0.,-2.96059473233375E-16));
#1548=DIRECTION('center_axis',(0.,1.,0.));
#1549=DIRECTION('ref_axis',(1.,0.,0.));
#1550=DIRECTION('center_axis',(0.,-1.,0.));
#1551=DIRECTION('ref_axis',(1.,0.,0.));
#1552=DIRECTION('',(0.,-1.,0.));
#1553=DIRECTION('center_axis',(0.,-1.,0.));
#1554=DIRECTION('ref_axis',(1.,0.,0.));
#1555=DIRECTION('center_axis',(0.,1.,0.));
#1556=DIRECTION('ref_axis',(1.,0.,0.));
#1557=DIRECTION('center_axis',(0.,-1.,0.));
#1558=DIRECTION('ref_axis',(1.,0.,0.));
#1559=DIRECTION('',(0.,-1.,0.));
#1560=DIRECTION('center_axis',(0.,-1.,0.));
#1561=DIRECTION('ref_axis',(1.,0.,0.));
#1562=DIRECTION('center_axis',(0.,1.,0.));
#1563=DIRECTION('ref_axis',(1.,0.,0.));
#1564=DIRECTION('center_axis',(0.,-1.,0.));
#1565=DIRECTION('ref_axis',(1.,0.,0.));
#1566=DIRECTION('',(0.,-1.,0.));
#1567=DIRECTION('center_axis',(0.,-1.,0.));
#1568=DIRECTION('ref_axis',(1.,0.,0.));
#1569=DIRECTION('center_axis',(0.,1.,0.));
#1570=DIRECTION('ref_axis',(1.,0.,0.));
#1571=DIRECTION('center_axis',(0.,-1.,0.));
#1572=DIRECTION('ref_axis',(1.,0.,0.));
#1573=DIRECTION('',(0.,-1.,0.));
#1574=DIRECTION('center_axis',(0.,-1.,0.));
#1575=DIRECTION('ref_axis',(1.,0.,0.));
#1576=DIRECTION('center_axis',(0.,1.,0.));
#1577=DIRECTION('ref_axis',(1.,0.,0.));
#1578=DIRECTION('center_axis',(0.,-1.,0.));
#1579=DIRECTION('ref_axis',(1.,0.,0.));
#1580=DIRECTION('',(0.,-1.,0.));
#1581=DIRECTION('center_axis',(0.,-1.,0.));
#1582=DIRECTION('ref_axis',(1.,0.,0.));
#1583=DIRECTION('center_axis',(0.,1.,0.));
#1584=DIRECTION('ref_axis',(1.,0.,0.));
#1585=DIRECTION('center_axis',(0.,-1.,0.));
#1586=DIRECTION('ref_axis',(1.,0.,0.));
#1587=DIRECTION('',(0.,-1.,0.));
#1588=DIRECTION('center_axis',(0.,-1.,0.));
#1589=DIRECTION('ref_axis',(1.,0.,0.));
#1590=DIRECTION('center_axis',(0.,1.,0.));
#1591=DIRECTION('ref_axis',(1.,0.,0.));
#1592=DIRECTION('center_axis',(0.,-1.,0.));
#1593=DIRECTION('ref_axis',(1.,0.,0.));
#1594=DIRECTION('',(0.,-1.,0.));
#1595=DIRECTION('center_axis',(0.,-1.,0.));
#1596=DIRECTION('ref_axis',(1.,0.,0.));
#1597=DIRECTION('center_axis',(0.,1.,0.));
#1598=DIRECTION('ref_axis',(1.,0.,0.));
#1599=DIRECTION('center_axis',(0.,-1.,0.));
#1600=DIRECTION('ref_axis',(1.,0.,0.));
#1601=DIRECTION('',(0.,-1.,0.));
#1602=DIRECTION('center_axis',(0.,-1.,0.));
#1603=DIRECTION('ref_axis',(1.,0.,0.));
#1604=DIRECTION('center_axis',(0.,1.,0.));
#1605=DIRECTION('ref_axis',(1.,0.,0.));
#1606=DIRECTION('center_axis',(0.,-1.,0.));
#1607=DIRECTION('ref_axis',(1.,0.,0.));
#1608=DIRECTION('',(0.,-1.,0.));
#1609=DIRECTION('center_axis',(0.,-1.,0.));
#1610=DIRECTION('ref_axis',(1.,0.,0.));
#1611=DIRECTION('center_axis',(0.,1.,0.));
#1612=DIRECTION('ref_axis',(1.,0.,0.));
#1613=DIRECTION('center_axis',(0.,-1.,0.));
#1614=DIRECTION('ref_axis',(1.,0.,0.));
#1615=DIRECTION('',(0.,-1.,0.));
#1616=DIRECTION('center_axis',(0.,-1.,0.));
#1617=DIRECTION('ref_axis',(1.,0.,0.));
#1618=DIRECTION('center_axis',(0.,1.,0.));
#1619=DIRECTION('ref_axis',(1.,0.,0.));
#1620=DIRECTION('center_axis',(0.,-1.,0.));
#1621=DIRECTION('ref_axis',(1.,0.,0.));
#1622=DIRECTION('',(0.,-1.,0.));
#1623=DIRECTION('center_axis',(0.,-1.,0.));
#1624=DIRECTION('ref_axis',(1.,0.,0.));
#1625=DIRECTION('center_axis',(0.,1.,0.));
#1626=DIRECTION('ref_axis',(1.,0.,0.));
#1627=DIRECTION('center_axis',(0.,-1.,0.));
#1628=DIRECTION('ref_axis',(1.,0.,0.));
#1629=DIRECTION('',(0.,-1.,0.));
#1630=DIRECTION('center_axis',(0.,-1.,0.));
#1631=DIRECTION('ref_axis',(1.,0.,0.));
#1632=DIRECTION('center_axis',(1.,0.,0.));
#1633=DIRECTION('ref_axis',(0.,0.,-1.));
#1634=DIRECTION('',(0.,0.,-1.));
#1635=DIRECTION('',(0.,1.,0.));
#1636=DIRECTION('',(0.,0.,-1.));
#1637=DIRECTION('',(0.,1.,0.));
#1638=DIRECTION('center_axis',(0.,1.,0.));
#1639=DIRECTION('ref_axis',(-1.,0.,0.));
#1640=DIRECTION('center_axis',(0.,-1.,0.));
#1641=DIRECTION('ref_axis',(-1.,0.,0.));
#1642=DIRECTION('center_axis',(0.,-1.,0.));
#1643=DIRECTION('ref_axis',(-1.,0.,0.));
#1644=DIRECTION('',(0.,1.,0.));
#1645=DIRECTION('center_axis',(-1.,0.,0.));
#1646=DIRECTION('ref_axis',(0.,0.,1.));
#1647=DIRECTION('',(0.,0.,1.));
#1648=DIRECTION('',(0.,0.,1.));
#1649=DIRECTION('',(0.,1.,0.));
#1650=DIRECTION('center_axis',(0.,1.,0.));
#1651=DIRECTION('ref_axis',(1.,0.,0.));
#1652=DIRECTION('center_axis',(0.,-1.,0.));
#1653=DIRECTION('ref_axis',(1.,0.,0.));
#1654=DIRECTION('center_axis',(0.,-1.,0.));
#1655=DIRECTION('ref_axis',(1.,0.,0.));
#1656=DIRECTION('center_axis',(0.,1.,0.));
#1657=DIRECTION('ref_axis',(1.,0.,0.));
#1658=DIRECTION('center_axis',(0.,-1.,0.));
#1659=DIRECTION('ref_axis',(1.,0.,0.));
#1660=DIRECTION('',(0.,-1.,0.));
#1661=DIRECTION('center_axis',(0.,-1.,0.));
#1662=DIRECTION('ref_axis',(1.,0.,0.));
#1663=DIRECTION('center_axis',(0.,1.,0.));
#1664=DIRECTION('ref_axis',(1.,0.,0.));
#1665=DIRECTION('center_axis',(0.,-1.,0.));
#1666=DIRECTION('ref_axis',(1.,0.,0.));
#1667=DIRECTION('',(0.,-1.,0.));
#1668=DIRECTION('center_axis',(0.,-1.,0.));
#1669=DIRECTION('ref_axis',(1.,0.,0.));
#1670=DIRECTION('center_axis',(0.,1.,0.));
#1671=DIRECTION('ref_axis',(1.,0.,0.));
#1672=DIRECTION('center_axis',(0.,-1.,0.));
#1673=DIRECTION('ref_axis',(1.,0.,0.));
#1674=DIRECTION('',(0.,-1.,0.));
#1675=DIRECTION('center_axis',(0.,-1.,0.));
#1676=DIRECTION('ref_axis',(1.,0.,0.));
#1677=DIRECTION('center_axis',(0.,1.,0.));
#1678=DIRECTION('ref_axis',(1.,0.,0.));
#1679=DIRECTION('center_axis',(0.,-1.,0.));
#1680=DIRECTION('ref_axis',(1.,0.,0.));
#1681=DIRECTION('',(0.,-1.,0.));
#1682=DIRECTION('center_axis',(0.,-1.,0.));
#1683=DIRECTION('ref_axis',(1.,0.,0.));
#1684=DIRECTION('center_axis',(0.,1.,0.));
#1685=DIRECTION('ref_axis',(1.,0.,0.));
#1686=DIRECTION('center_axis',(0.,-1.,0.));
#1687=DIRECTION('ref_axis',(1.,0.,0.));
#1688=DIRECTION('',(0.,-1.,0.));
#1689=DIRECTION('center_axis',(0.,-1.,0.));
#1690=DIRECTION('ref_axis',(1.,0.,0.));
#1691=DIRECTION('center_axis',(0.,1.,0.));
#1692=DIRECTION('ref_axis',(1.,0.,0.));
#1693=DIRECTION('center_axis',(0.,-1.,0.));
#1694=DIRECTION('ref_axis',(1.,0.,0.));
#1695=DIRECTION('',(0.,-1.,0.));
#1696=DIRECTION('center_axis',(0.,-1.,0.));
#1697=DIRECTION('ref_axis',(1.,0.,0.));
#1698=DIRECTION('center_axis',(0.,1.,0.));
#1699=DIRECTION('ref_axis',(1.,0.,0.));
#1700=DIRECTION('center_axis',(0.,-1.,0.));
#1701=DIRECTION('ref_axis',(1.,0.,0.));
#1702=DIRECTION('',(0.,-1.,0.));
#1703=DIRECTION('center_axis',(0.,-1.,0.));
#1704=DIRECTION('ref_axis',(1.,0.,0.));
#1705=DIRECTION('center_axis',(0.,1.,0.));
#1706=DIRECTION('ref_axis',(1.,0.,0.));
#1707=DIRECTION('center_axis',(0.,-1.,0.));
#1708=DIRECTION('ref_axis',(1.,0.,0.));
#1709=DIRECTION('',(0.,-1.,0.));
#1710=DIRECTION('center_axis',(0.,-1.,0.));
#1711=DIRECTION('ref_axis',(1.,0.,0.));
#1712=DIRECTION('center_axis',(0.,1.,0.));
#1713=DIRECTION('ref_axis',(1.,0.,0.));
#1714=DIRECTION('center_axis',(0.,-1.,0.));
#1715=DIRECTION('ref_axis',(1.,0.,0.));
#1716=DIRECTION('',(0.,-1.,0.));
#1717=DIRECTION('center_axis',(0.,-1.,0.));
#1718=DIRECTION('ref_axis',(1.,0.,0.));
#1719=DIRECTION('center_axis',(0.,1.,0.));
#1720=DIRECTION('ref_axis',(1.,0.,0.));
#1721=DIRECTION('center_axis',(0.,-1.,0.));
#1722=DIRECTION('ref_axis',(1.,0.,0.));
#1723=DIRECTION('',(0.,-1.,0.));
#1724=DIRECTION('center_axis',(0.,-1.,0.));
#1725=DIRECTION('ref_axis',(1.,0.,0.));
#1726=DIRECTION('center_axis',(0.,1.,0.));
#1727=DIRECTION('ref_axis',(1.,0.,0.));
#1728=DIRECTION('center_axis',(0.,-1.,0.));
#1729=DIRECTION('ref_axis',(1.,0.,0.));
#1730=DIRECTION('',(0.,-1.,0.));
#1731=DIRECTION('center_axis',(0.,-1.,0.));
#1732=DIRECTION('ref_axis',(1.,0.,0.));
#1733=DIRECTION('center_axis',(0.,1.,0.));
#1734=DIRECTION('ref_axis',(1.,0.,0.));
#1735=DIRECTION('center_axis',(0.,-1.,0.));
#1736=DIRECTION('ref_axis',(1.,0.,0.));
#1737=DIRECTION('',(0.,-1.,0.));
#1738=DIRECTION('center_axis',(0.,-1.,0.));
#1739=DIRECTION('ref_axis',(1.,0.,0.));
#1740=DIRECTION('center_axis',(-1.,0.,0.));
#1741=DIRECTION('ref_axis',(0.,0.,1.));
#1742=DIRECTION('',(0.,0.,1.));
#1743=DIRECTION('',(0.,1.,0.));
#1744=DIRECTION('',(0.,0.,1.));
#1745=DIRECTION('',(0.,1.,0.));
#1746=DIRECTION('center_axis',(0.,0.,1.));
#1747=DIRECTION('ref_axis',(1.,0.,0.));
#1748=DIRECTION('',(1.,0.,0.));
#1749=DIRECTION('',(1.,0.,0.));
#1750=DIRECTION('',(0.,1.,0.));
#1751=DIRECTION('center_axis',(1.,0.,0.));
#1752=DIRECTION('ref_axis',(0.,0.,-1.));
#1753=DIRECTION('',(0.,0.,-1.));
#1754=DIRECTION('',(0.,0.,-1.));
#1755=DIRECTION('',(0.,1.,0.));
#1756=DIRECTION('center_axis',(0.,0.,-1.));
#1757=DIRECTION('ref_axis',(-1.,0.,0.));
#1758=DIRECTION('',(-1.,0.,0.));
#1759=DIRECTION('',(-1.,0.,0.));
#1760=DIRECTION('center_axis',(0.,1.,0.));
#1761=DIRECTION('ref_axis',(1.,0.,0.));
#1762=DIRECTION('center_axis',(0.,-1.,0.));
#1763=DIRECTION('ref_axis',(1.,0.,0.));
#1764=DIRECTION('',(0.,-1.,0.));
#1765=DIRECTION('center_axis',(0.,-1.,0.));
#1766=DIRECTION('ref_axis',(1.,0.,0.));
#1767=DIRECTION('center_axis',(0.,1.,0.));
#1768=DIRECTION('ref_axis',(1.,0.,0.));
#1769=DIRECTION('center_axis',(0.,-1.,0.));
#1770=DIRECTION('ref_axis',(1.,0.,0.));
#1771=DIRECTION('',(0.,-1.,0.));
#1772=DIRECTION('center_axis',(0.,-1.,0.));
#1773=DIRECTION('ref_axis',(1.,0.,0.));
#1774=DIRECTION('center_axis',(0.,1.,0.));
#1775=DIRECTION('ref_axis',(1.,0.,0.));
#1776=DIRECTION('center_axis',(0.,-1.,0.));
#1777=DIRECTION('ref_axis',(1.,0.,0.));
#1778=DIRECTION('',(0.,-1.,0.));
#1779=DIRECTION('center_axis',(0.,-1.,0.));
#1780=DIRECTION('ref_axis',(1.,0.,0.));
#1781=DIRECTION('center_axis',(0.,1.,0.));
#1782=DIRECTION('ref_axis',(1.,0.,0.));
#1783=DIRECTION('center_axis',(0.,-1.,0.));
#1784=DIRECTION('ref_axis',(1.,0.,0.));
#1785=DIRECTION('',(0.,-1.,0.));
#1786=DIRECTION('center_axis',(0.,-1.,0.));
#1787=DIRECTION('ref_axis',(1.,0.,0.));
#1788=DIRECTION('center_axis',(4.79334385234988E-13,0.,1.));
#1789=DIRECTION('ref_axis',(1.,0.,-4.79334385234988E-13));
#1790=DIRECTION('',(1.,0.,-4.79334385234988E-13));
#1791=DIRECTION('',(0.,1.,0.));
#1792=DIRECTION('',(1.,0.,-4.79334385234988E-13));
#1793=DIRECTION('',(0.,1.,0.));
#1794=DIRECTION('center_axis',(0.,1.,0.));
#1795=DIRECTION('ref_axis',(-2.22044604925092E-15,0.,-1.));
#1796=DIRECTION('center_axis',(0.,-1.,0.));
#1797=DIRECTION('ref_axis',(-2.22044604925092E-15,0.,-1.));
#1798=DIRECTION('center_axis',(0.,-1.,0.));
#1799=DIRECTION('ref_axis',(-2.22044604925092E-15,0.,-1.));
#1800=DIRECTION('',(0.,1.,0.));
#1801=DIRECTION('center_axis',(-4.69935671799009E-15,0.,-1.));
#1802=DIRECTION('ref_axis',(-1.,0.,4.69935671799009E-15));
#1803=DIRECTION('',(-1.,0.,4.69935671799009E-15));
#1804=DIRECTION('',(-1.,0.,4.69935671799009E-15));
#1805=DIRECTION('',(0.,1.,0.));
#1806=DIRECTION('center_axis',(0.,1.,0.));
#1807=DIRECTION('ref_axis',(4.44089209850084E-15,0.,1.));
#1808=DIRECTION('center_axis',(0.,-1.,0.));
#1809=DIRECTION('ref_axis',(4.44089209850084E-15,0.,1.));
#1810=DIRECTION('center_axis',(0.,-1.,0.));
#1811=DIRECTION('ref_axis',(4.44089209850084E-15,0.,1.));
#1812=DIRECTION('center_axis',(-1.,0.,5.24308394155918E-16));
#1813=DIRECTION('ref_axis',(5.24308394155918E-16,0.,1.));
#1814=DIRECTION('',(-5.24308394155918E-16,0.,-1.));
#1815=DIRECTION('',(0.,1.,0.));
#1816=DIRECTION('',(5.24308394155918E-16,0.,1.));
#1817=DIRECTION('',(0.,1.,0.));
#1818=DIRECTION('center_axis',(0.,1.,0.));
#1819=DIRECTION('ref_axis',(0.,0.,-1.));
#1820=DIRECTION('center_axis',(0.,1.,0.));
#1821=DIRECTION('ref_axis',(0.,0.,-1.));
#1822=DIRECTION('center_axis',(0.,1.,0.));
#1823=DIRECTION('ref_axis',(0.,0.,-1.));
#1824=DIRECTION('',(0.,1.,0.));
#1825=DIRECTION('center_axis',(0.,0.,-1.));
#1826=DIRECTION('ref_axis',(-1.,0.,0.));
#1827=DIRECTION('',(1.,0.,0.));
#1828=DIRECTION('',(-1.,0.,0.));
#1829=DIRECTION('',(0.,1.,0.));
#1830=DIRECTION('center_axis',(0.,1.,0.));
#1831=DIRECTION('ref_axis',(1.,0.,1.06581410364015E-14));
#1832=DIRECTION('center_axis',(0.,1.,0.));
#1833=DIRECTION('ref_axis',(1.,0.,1.06581410364015E-14));
#1834=DIRECTION('center_axis',(0.,1.,0.));
#1835=DIRECTION('ref_axis',(1.,0.,1.06581410364015E-14));
#1836=DIRECTION('',(0.,1.,0.));
#1837=DIRECTION('center_axis',(1.,0.,-2.09723357662367E-16));
#1838=DIRECTION('ref_axis',(-2.09723357662367E-16,0.,-1.));
#1839=DIRECTION('',(2.09723357662367E-16,0.,1.));
#1840=DIRECTION('',(-2.09723357662367E-16,0.,-1.));
#1841=DIRECTION('',(0.,1.,0.));
#1842=DIRECTION('center_axis',(0.,1.,0.));
#1843=DIRECTION('ref_axis',(-1.77635683940025E-15,0.,1.));
#1844=DIRECTION('center_axis',(0.,1.,0.));
#1845=DIRECTION('ref_axis',(-1.77635683940025E-15,0.,1.));
#1846=DIRECTION('center_axis',(0.,1.,0.));
#1847=DIRECTION('ref_axis',(-1.77635683940025E-15,0.,1.));
#1848=DIRECTION('',(0.,1.,0.));
#1849=DIRECTION('center_axis',(1.97372982155583E-16,0.,1.));
#1850=DIRECTION('ref_axis',(1.,0.,-1.97372982155583E-16));
#1851=DIRECTION('',(-1.,0.,1.97372982155583E-16));
#1852=DIRECTION('',(1.,0.,-1.97372982155583E-16));
#1853=DIRECTION('',(0.,1.,0.));
#1854=DIRECTION('center_axis',(0.,1.,0.));
#1855=DIRECTION('ref_axis',(-1.,0.,-3.55271367880051E-15));
#1856=DIRECTION('center_axis',(0.,1.,0.));
#1857=DIRECTION('ref_axis',(-1.,0.,-3.55271367880051E-15));
#1858=DIRECTION('center_axis',(0.,1.,0.));
#1859=DIRECTION('ref_axis',(-1.,0.,-3.55271367880051E-15));
#1860=DIRECTION('center_axis',(0.,1.,0.));
#1861=DIRECTION('ref_axis',(1.,0.,0.));
#1862=DIRECTION('center_axis',(0.,1.,0.));
#1863=DIRECTION('ref_axis',(1.,0.,0.));
#1864=CARTESIAN_POINT('',(0.,0.,0.));
#1865=CARTESIAN_POINT('Origin',(-9.99200722162641E-15,0.,-81.5));
#1866=CARTESIAN_POINT('',(-2.00000000000001,0.,-81.5));
#1867=CARTESIAN_POINT('Origin',(-9.99200722162641E-15,0.,-81.5));
#1868=CARTESIAN_POINT('',(-2.00000000000001,3.,-81.5));
#1869=CARTESIAN_POINT('',(-2.00000000000001,0.,-81.5));
#1870=CARTESIAN_POINT('Origin',(-9.99200722162641E-15,3.,-81.5));
#1871=CARTESIAN_POINT('Origin',(-9.99200722162641E-15,0.,81.5));
#1872=CARTESIAN_POINT('',(-2.00000000000001,0.,81.5));
#1873=CARTESIAN_POINT('Origin',(-9.99200722162641E-15,0.,81.5));
#1874=CARTESIAN_POINT('',(-2.00000000000001,3.,81.5));
#1875=CARTESIAN_POINT('',(-2.00000000000001,0.,81.5));
#1876=CARTESIAN_POINT('Origin',(-9.99200722162641E-15,3.,81.5));
#1877=CARTESIAN_POINT('Origin',(132.8,0.,-2.70000000000013));
#1878=CARTESIAN_POINT('',(130.45,3.,-2.70000000000013));
#1879=CARTESIAN_POINT('Origin',(132.8,3.,-2.70000000000013));
#1880=CARTESIAN_POINT('',(130.45,0.,-2.70000000000013));
#1881=CARTESIAN_POINT('',(130.45,0.,-2.70000000000013));
#1882=CARTESIAN_POINT('Origin',(132.8,0.,-2.70000000000013));
#1883=CARTESIAN_POINT('Origin',(85.1917838075599,0.,64.6999999999999));
#1884=CARTESIAN_POINT('',(85.1917838075599,0.,64.6999999999999));
#1885=CARTESIAN_POINT('',(83.3017838075599,0.,64.6999999999999));
#1886=CARTESIAN_POINT('',(83.3017838075599,0.,64.6999999999999));
#1887=CARTESIAN_POINT('',(83.3017838075599,3.,64.6999999999999));
#1888=CARTESIAN_POINT('',(83.3017838075599,0.,64.6999999999999));
#1889=CARTESIAN_POINT('',(85.1917838075599,3.,64.6999999999999));
#1890=CARTESIAN_POINT('',(83.3017838075599,3.,64.6999999999999));
#1891=CARTESIAN_POINT('',(85.1917838075599,0.,64.6999999999999));
#1892=CARTESIAN_POINT('Origin',(85.1917838075599,0.,62.7000000000005));
#1893=CARTESIAN_POINT('',(85.1917838075599,0.,60.700000000001));
#1894=CARTESIAN_POINT('Origin',(85.1917838075599,0.,62.7000000000005));
#1895=CARTESIAN_POINT('',(85.1917838075599,3.,60.700000000001));
#1896=CARTESIAN_POINT('Origin',(85.1917838075599,3.,62.7000000000005));
#1897=CARTESIAN_POINT('',(85.1917838075599,0.,60.700000000001));
#1898=CARTESIAN_POINT('Origin',(83.30178380756,0.,60.7000000000001));
#1899=CARTESIAN_POINT('',(83.30178380756,0.,60.7000000000001));
#1900=CARTESIAN_POINT('',(83.30178380756,0.,60.7000000000001));
#1901=CARTESIAN_POINT('',(83.30178380756,3.,60.7000000000001));
#1902=CARTESIAN_POINT('',(83.30178380756,3.,60.7000000000001));
#1903=CARTESIAN_POINT('',(83.30178380756,0.,60.7000000000001));
#1904=CARTESIAN_POINT('Origin',(83.30178380756,0.,62.7));
#1905=CARTESIAN_POINT('Origin',(83.30178380756,0.,62.7));
#1906=CARTESIAN_POINT('Origin',(83.30178380756,3.,62.7));
#1907=CARTESIAN_POINT('Origin',(122.5,0.,16.95));
#1908=CARTESIAN_POINT('',(122.5,0.,16.95));
#1909=CARTESIAN_POINT('',(122.5,0.,31.95));
#1910=CARTESIAN_POINT('',(122.5,0.,16.95));
#1911=CARTESIAN_POINT('',(122.5,3.,31.95));
#1912=CARTESIAN_POINT('',(122.5,0.,31.95));
#1913=CARTESIAN_POINT('',(122.5,3.,16.95));
#1914=CARTESIAN_POINT('',(122.5,3.,16.95));
#1915=CARTESIAN_POINT('',(122.5,0.,16.95));
#1916=CARTESIAN_POINT('Origin',(107.5,0.,16.95));
#1917=CARTESIAN_POINT('',(107.5,0.,16.95));
#1918=CARTESIAN_POINT('',(107.5,0.,16.95));
#1919=CARTESIAN_POINT('',(107.5,3.,16.95));
#1920=CARTESIAN_POINT('',(107.5,3.,16.95));
#1921=CARTESIAN_POINT('',(107.5,0.,16.95));
#1922=CARTESIAN_POINT('Origin',(107.5,0.,31.95));
#1923=CARTESIAN_POINT('',(107.5,0.,31.95));
#1924=CARTESIAN_POINT('',(107.5,0.,31.95));
#1925=CARTESIAN_POINT('',(107.5,3.,31.95));
#1926=CARTESIAN_POINT('',(107.5,3.,31.95));
#1927=CARTESIAN_POINT('',(107.5,0.,31.95));
#1928=CARTESIAN_POINT('Origin',(122.5,0.,31.95));
#1929=CARTESIAN_POINT('',(122.5,0.,31.95));
#1930=CARTESIAN_POINT('',(122.5,3.,31.95));
#1931=CARTESIAN_POINT('Origin',(59.7,0.,-72.5000000000001));
#1932=CARTESIAN_POINT('',(57.35,3.,-72.5000000000001));
#1933=CARTESIAN_POINT('Origin',(59.7,3.,-72.5000000000001));
#1934=CARTESIAN_POINT('',(57.35,0.,-72.5000000000001));
#1935=CARTESIAN_POINT('',(57.35,0.,-72.5000000000001));
#1936=CARTESIAN_POINT('Origin',(59.7,0.,-72.5000000000001));
#1937=CARTESIAN_POINT('Origin',(-135.,0.,84.7));
#1938=CARTESIAN_POINT('',(-137.,3.,84.7));
#1939=CARTESIAN_POINT('Origin',(-135.,3.,84.7));
#1940=CARTESIAN_POINT('',(-137.,0.,84.7));
#1941=CARTESIAN_POINT('',(-137.,0.,84.7));
#1942=CARTESIAN_POINT('Origin',(-135.,0.,84.7));
#1943=CARTESIAN_POINT('Origin',(-95.1907442500357,0.,84.874));
#1944=CARTESIAN_POINT('',(-96.7407442500357,3.,84.874));
#1945=CARTESIAN_POINT('Origin',(-95.1907442500357,3.,84.874));
#1946=CARTESIAN_POINT('',(-96.7407442500357,0.,84.874));
#1947=CARTESIAN_POINT('',(-96.7407442500357,0.,84.874));
#1948=CARTESIAN_POINT('Origin',(-95.1907442500357,0.,84.874));
#1949=CARTESIAN_POINT('Origin',(0.16029534697199,0.,-64.4316581000613));
#1950=CARTESIAN_POINT('',(-1.33970465302801,3.,-64.4316581000613));
#1951=CARTESIAN_POINT('Origin',(0.16029534697199,3.,-64.4316581000613));
#1952=CARTESIAN_POINT('',(-1.33970465302801,0.,-64.4316581000613));
#1953=CARTESIAN_POINT('',(-1.33970465302801,0.,-64.4316581000613));
#1954=CARTESIAN_POINT('Origin',(0.16029534697199,0.,-64.4316581000613));
#1955=CARTESIAN_POINT('Origin',(-46.1687442500357,0.,26.454));
#1956=CARTESIAN_POINT('',(-47.7187442500357,3.,26.454));
#1957=CARTESIAN_POINT('Origin',(-46.1687442500357,3.,26.454));
#1958=CARTESIAN_POINT('',(-47.7187442500357,0.,26.454));
#1959=CARTESIAN_POINT('',(-47.7187442500357,0.,26.454));
#1960=CARTESIAN_POINT('Origin',(-46.1687442500357,0.,26.454));
#1961=CARTESIAN_POINT('Origin',(-3.66470465302801,0.,-88.7000000000001));
#1962=CARTESIAN_POINT('',(-6.66470465302801,3.,-88.7000000000001));
#1963=CARTESIAN_POINT('Origin',(-3.66470465302801,3.,-88.7000000000001));
#1964=CARTESIAN_POINT('',(-6.66470465302801,0.,-88.7000000000001));
#1965=CARTESIAN_POINT('',(-6.66470465302801,0.,-88.7000000000001));
#1966=CARTESIAN_POINT('Origin',(-3.66470465302801,0.,-88.7000000000001));
#1967=CARTESIAN_POINT('Origin',(-46.1687442500356,0.,84.8739999999999));
#1968=CARTESIAN_POINT('',(-47.7187442500356,3.,84.8739999999999));
#1969=CARTESIAN_POINT('Origin',(-46.1687442500356,3.,84.8739999999999));
#1970=CARTESIAN_POINT('',(-47.7187442500356,0.,84.8739999999999));
#1971=CARTESIAN_POINT('',(-47.7187442500356,0.,84.8739999999999));
#1972=CARTESIAN_POINT('Origin',(-46.1687442500356,0.,84.8739999999999));
#1973=CARTESIAN_POINT('Origin',(-24.2263387453908,0.,-85.7000000000001));
#1974=CARTESIAN_POINT('',(-25.4763387453908,3.,-85.7000000000001));
#1975=CARTESIAN_POINT('Origin',(-24.2263387453908,3.,-85.7000000000001));
#1976=CARTESIAN_POINT('',(-25.4763387453908,0.,-85.7000000000001));
#1977=CARTESIAN_POINT('',(-25.4763387453908,0.,-85.7000000000001));
#1978=CARTESIAN_POINT('Origin',(-24.2263387453908,0.,-85.7000000000001));
#1979=CARTESIAN_POINT('Origin',(-24.2263387453908,0.,6.29999999999987));
#1980=CARTESIAN_POINT('',(-25.4763387453908,3.,6.29999999999987));
#1981=CARTESIAN_POINT('Origin',(-24.2263387453908,3.,6.29999999999987));
#1982=CARTESIAN_POINT('',(-25.4763387453908,0.,6.29999999999987));
#1983=CARTESIAN_POINT('',(-25.4763387453908,0.,6.29999999999987));
#1984=CARTESIAN_POINT('Origin',(-24.2263387453908,0.,6.29999999999987));
#1985=CARTESIAN_POINT('Origin',(0.16029534697199,0.,-17.7516581000613));
#1986=CARTESIAN_POINT('',(-1.33970465302801,3.,-17.7516581000613));
#1987=CARTESIAN_POINT('Origin',(0.16029534697199,3.,-17.7516581000613));
#1988=CARTESIAN_POINT('',(-1.33970465302801,0.,-17.7516581000613));
#1989=CARTESIAN_POINT('',(-1.33970465302801,0.,-17.7516581000613));
#1990=CARTESIAN_POINT('Origin',(0.16029534697199,0.,-17.7516581000613));
#1991=CARTESIAN_POINT('Origin',(27.440295346972,0.,-17.7516581000613));
#1992=CARTESIAN_POINT('',(25.940295346972,3.,-17.7516581000613));
#1993=CARTESIAN_POINT('Origin',(27.440295346972,3.,-17.7516581000613));
#1994=CARTESIAN_POINT('',(25.940295346972,0.,-17.7516581000613));
#1995=CARTESIAN_POINT('',(25.940295346972,0.,-17.7516581000613));
#1996=CARTESIAN_POINT('Origin',(27.440295346972,0.,-17.7516581000613));
#1997=CARTESIAN_POINT('Origin',(46.5786810808385,0.,-30.));
#1998=CARTESIAN_POINT('',(45.3286810808385,3.,-30.));
#1999=CARTESIAN_POINT('Origin',(46.5786810808385,3.,-30.));
#2000=CARTESIAN_POINT('',(45.3286810808385,0.,-30.));
#2001=CARTESIAN_POINT('',(45.3286810808385,0.,-30.));
#2002=CARTESIAN_POINT('Origin',(46.5786810808385,0.,-30.));
#2003=CARTESIAN_POINT('Origin',(-39.1558513716671,0.,81.454));
#2004=CARTESIAN_POINT('',(-39.1558513716671,0.,81.454));
#2005=CARTESIAN_POINT('',(-39.1558513716671,0.,31.454));
#2006=CARTESIAN_POINT('',(-39.1558513716671,0.,81.454));
#2007=CARTESIAN_POINT('',(-39.1558513716671,3.,31.454));
#2008=CARTESIAN_POINT('',(-39.1558513716671,0.,31.454));
#2009=CARTESIAN_POINT('',(-39.1558513716671,3.,81.454));
#2010=CARTESIAN_POINT('',(-39.1558513716671,3.,81.454));
#2011=CARTESIAN_POINT('',(-39.1558513716671,0.,81.454));
#2012=CARTESIAN_POINT('Origin',(-34.1558513716671,0.,81.454));
#2013=CARTESIAN_POINT('',(-29.1558513716671,0.,81.454));
#2014=CARTESIAN_POINT('Origin',(-34.1558513716671,0.,81.454));
#2015=CARTESIAN_POINT('',(-29.1558513716671,3.,81.454));
#2016=CARTESIAN_POINT('Origin',(-34.1558513716671,3.,81.454));
#2017=CARTESIAN_POINT('',(-29.1558513716671,0.,81.454));
#2018=CARTESIAN_POINT('Origin',(-29.1558513716671,0.,31.454));
#2019=CARTESIAN_POINT('',(-29.1558513716671,0.,31.454));
#2020=CARTESIAN_POINT('',(-29.1558513716671,0.,31.454));
#2021=CARTESIAN_POINT('',(-29.1558513716671,3.,31.454));
#2022=CARTESIAN_POINT('',(-29.1558513716671,3.,31.454));
#2023=CARTESIAN_POINT('',(-29.1558513716671,0.,31.454));
#2024=CARTESIAN_POINT('Origin',(-34.1558513716671,0.,31.454));
#2025=CARTESIAN_POINT('Origin',(-34.1558513716671,0.,31.454));
#2026=CARTESIAN_POINT('Origin',(-34.1558513716671,3.,31.454));
#2027=CARTESIAN_POINT('Origin',(59.7,0.,-2.70000000000014));
#2028=CARTESIAN_POINT('',(57.35,3.,-2.70000000000015));
#2029=CARTESIAN_POINT('Origin',(59.7,3.,-2.70000000000014));
#2030=CARTESIAN_POINT('',(57.35,0.,-2.70000000000014));
#2031=CARTESIAN_POINT('',(57.35,0.,-2.70000000000014));
#2032=CARTESIAN_POINT('Origin',(59.7,0.,-2.70000000000014));
#2033=CARTESIAN_POINT('Origin',(135.,0.,-84.7));
#2034=CARTESIAN_POINT('',(133.,3.,-84.7));
#2035=CARTESIAN_POINT('Origin',(135.,3.,-84.7));
#2036=CARTESIAN_POINT('',(133.,0.,-84.7));
#2037=CARTESIAN_POINT('',(133.,0.,-84.7));
#2038=CARTESIAN_POINT('Origin',(135.,0.,-84.7));
#2039=CARTESIAN_POINT('Origin',(-130.,0.,20.));
#2040=CARTESIAN_POINT('',(-132.,3.,20.));
#2041=CARTESIAN_POINT('Origin',(-130.,3.,20.));
#2042=CARTESIAN_POINT('',(-132.,0.,20.));
#2043=CARTESIAN_POINT('',(-132.,0.,20.));
#2044=CARTESIAN_POINT('Origin',(-130.,0.,20.));
#2045=CARTESIAN_POINT('Origin',(135.,0.,84.7));
#2046=CARTESIAN_POINT('',(133.,3.,84.7));
#2047=CARTESIAN_POINT('Origin',(135.,3.,84.7));
#2048=CARTESIAN_POINT('',(133.,0.,84.7));
#2049=CARTESIAN_POINT('',(133.,0.,84.7));
#2050=CARTESIAN_POINT('Origin',(135.,0.,84.7));
#2051=CARTESIAN_POINT('Origin',(-3.66470465302801,0.,88.7000000000001));
#2052=CARTESIAN_POINT('',(-6.66470465302801,3.,88.7000000000001));
#2053=CARTESIAN_POINT('Origin',(-3.66470465302801,3.,88.7000000000001));
#2054=CARTESIAN_POINT('',(-6.66470465302801,0.,88.7000000000001));
#2055=CARTESIAN_POINT('',(-6.66470465302801,0.,88.7000000000001));
#2056=CARTESIAN_POINT('Origin',(-3.66470465302801,0.,88.7000000000001));
#2057=CARTESIAN_POINT('Origin',(-82.2263387453908,0.,-85.7000000000001));
#2058=CARTESIAN_POINT('',(-83.4763387453908,3.,-85.7000000000001));
#2059=CARTESIAN_POINT('Origin',(-82.2263387453908,3.,-85.7000000000001));
#2060=CARTESIAN_POINT('',(-83.4763387453908,0.,-85.7000000000001));
#2061=CARTESIAN_POINT('',(-83.4763387453908,0.,-85.7000000000001));
#2062=CARTESIAN_POINT('Origin',(-82.2263387453908,0.,-85.7000000000001));
#2063=CARTESIAN_POINT('Origin',(-82.2263387453908,0.,6.29999999999987));
#2064=CARTESIAN_POINT('',(-83.4763387453908,3.,6.29999999999987));
#2065=CARTESIAN_POINT('Origin',(-82.2263387453908,3.,6.29999999999987));
#2066=CARTESIAN_POINT('',(-83.4763387453908,0.,6.29999999999987));
#2067=CARTESIAN_POINT('',(-83.4763387453908,0.,6.29999999999987));
#2068=CARTESIAN_POINT('Origin',(-82.2263387453908,0.,6.29999999999987));
#2069=CARTESIAN_POINT('Origin',(-13.4213189191615,0.,30.));
#2070=CARTESIAN_POINT('',(-14.6713189191615,3.,30.));
#2071=CARTESIAN_POINT('Origin',(-13.4213189191615,3.,30.));
#2072=CARTESIAN_POINT('',(-14.6713189191615,0.,30.));
#2073=CARTESIAN_POINT('',(-14.6713189191615,0.,30.));
#2074=CARTESIAN_POINT('Origin',(-13.4213189191615,0.,30.));
#2075=CARTESIAN_POINT('Origin',(-13.4213189191615,0.,-30.));
#2076=CARTESIAN_POINT('',(-14.6713189191615,3.,-30.));
#2077=CARTESIAN_POINT('Origin',(-13.4213189191615,3.,-30.));
#2078=CARTESIAN_POINT('',(-14.6713189191615,0.,-30.));
#2079=CARTESIAN_POINT('',(-14.6713189191615,0.,-30.));
#2080=CARTESIAN_POINT('Origin',(-13.4213189191615,0.,-30.));
#2081=CARTESIAN_POINT('Origin',(-130.,0.,-20.));
#2082=CARTESIAN_POINT('',(-132.,3.,-20.));
#2083=CARTESIAN_POINT('Origin',(-130.,3.,-20.));
#2084=CARTESIAN_POINT('',(-132.,0.,-20.));
#2085=CARTESIAN_POINT('',(-132.,0.,-20.));
#2086=CARTESIAN_POINT('Origin',(-130.,0.,-20.));
#2087=CARTESIAN_POINT('Origin',(46.5786810808385,0.,30.));
#2088=CARTESIAN_POINT('',(45.3286810808385,3.,30.));
#2089=CARTESIAN_POINT('Origin',(46.5786810808385,3.,30.));
#2090=CARTESIAN_POINT('',(45.3286810808385,0.,30.));
#2091=CARTESIAN_POINT('',(45.3286810808385,0.,30.));
#2092=CARTESIAN_POINT('Origin',(46.5786810808385,0.,30.));
#2093=CARTESIAN_POINT('Origin',(115.,0.,62.7));
#2094=CARTESIAN_POINT('',(103.95,3.,62.7));
#2095=CARTESIAN_POINT('Origin',(115.,3.,62.7));
#2096=CARTESIAN_POINT('',(103.95,0.,62.7));
#2097=CARTESIAN_POINT('',(103.95,0.,62.7));
#2098=CARTESIAN_POINT('Origin',(115.,0.,62.7));
#2099=CARTESIAN_POINT('Origin',(-27.3821887141584,0.,-15.));
#2100=CARTESIAN_POINT('',(-27.3821887141584,0.,-15.));
#2101=CARTESIAN_POINT('',(-27.3821887141584,0.,0.));
#2102=CARTESIAN_POINT('',(-27.3821887141584,0.,-15.));
#2103=CARTESIAN_POINT('',(-27.3821887141584,3.,0.));
#2104=CARTESIAN_POINT('',(-27.3821887141584,0.,0.));
#2105=CARTESIAN_POINT('',(-27.3821887141584,3.,-15.));
#2106=CARTESIAN_POINT('',(-27.3821887141584,3.,-15.));
#2107=CARTESIAN_POINT('',(-27.3821887141584,0.,-15.));
#2108=CARTESIAN_POINT('Origin',(-42.3821887141584,0.,-15.));
#2109=CARTESIAN_POINT('',(-42.3821887141584,0.,-15.));
#2110=CARTESIAN_POINT('',(-42.3821887141584,0.,-15.));
#2111=CARTESIAN_POINT('',(-42.3821887141584,3.,-15.));
#2112=CARTESIAN_POINT('',(-42.3821887141584,3.,-15.));
#2113=CARTESIAN_POINT('',(-42.3821887141584,0.,-15.));
#2114=CARTESIAN_POINT('Origin',(-42.3821887141584,0.,0.));
#2115=CARTESIAN_POINT('',(-42.3821887141584,0.,0.));
#2116=CARTESIAN_POINT('',(-42.3821887141584,0.,0.));
#2117=CARTESIAN_POINT('',(-42.3821887141584,3.,0.));
#2118=CARTESIAN_POINT('',(-42.3821887141584,3.,0.));
#2119=CARTESIAN_POINT('',(-42.3821887141584,0.,0.));
#2120=CARTESIAN_POINT('Origin',(-27.3821887141584,0.,0.));
#2121=CARTESIAN_POINT('',(-27.3821887141584,0.,0.));
#2122=CARTESIAN_POINT('',(-27.3821887141584,3.,0.));
#2123=CARTESIAN_POINT('Origin',(-95.1907442500357,0.,26.454));
#2124=CARTESIAN_POINT('',(-96.7407442500357,3.,26.454));
#2125=CARTESIAN_POINT('Origin',(-95.1907442500357,3.,26.454));
#2126=CARTESIAN_POINT('',(-96.7407442500357,0.,26.454));
#2127=CARTESIAN_POINT('',(-96.7407442500357,0.,26.454));
#2128=CARTESIAN_POINT('Origin',(-95.1907442500357,0.,26.454));
#2129=CARTESIAN_POINT('Origin',(27.440295346972,0.,-64.4316581000613));
#2130=CARTESIAN_POINT('',(25.940295346972,3.,-64.4316581000613));
#2131=CARTESIAN_POINT('Origin',(27.440295346972,3.,-64.4316581000613));
#2132=CARTESIAN_POINT('',(25.940295346972,0.,-64.4316581000613));
#2133=CARTESIAN_POINT('',(25.940295346972,0.,-64.4316581000613));
#2134=CARTESIAN_POINT('Origin',(27.440295346972,0.,-64.4316581000613));
#2135=CARTESIAN_POINT('Origin',(-135.,0.,-84.7));
#2136=CARTESIAN_POINT('',(-137.,3.,-84.7000000000001));
#2137=CARTESIAN_POINT('Origin',(-135.,3.,-84.7));
#2138=CARTESIAN_POINT('',(-137.,0.,-84.7));
#2139=CARTESIAN_POINT('',(-137.,0.,-84.7));
#2140=CARTESIAN_POINT('Origin',(-135.,0.,-84.7));
#2141=CARTESIAN_POINT('Origin',(132.8,0.,-72.5000000000001));
#2142=CARTESIAN_POINT('',(130.45,3.,-72.5000000000001));
#2143=CARTESIAN_POINT('Origin',(132.8,3.,-72.5000000000001));
#2144=CARTESIAN_POINT('',(130.45,0.,-72.5000000000001));
#2145=CARTESIAN_POINT('',(130.45,0.,-72.5000000000001));
#2146=CARTESIAN_POINT('Origin',(132.8,0.,-72.5000000000001));
#2147=CARTESIAN_POINT('Origin',(25.4117838075599,0.,60.700000000001));
#2148=CARTESIAN_POINT('',(25.4117838075599,0.,60.700000000001));
#2149=CARTESIAN_POINT('',(27.3017838075599,0.,60.7000000000001));
#2150=CARTESIAN_POINT('',(27.3017838075599,0.,60.7000000000001));
#2151=CARTESIAN_POINT('',(27.3017838075599,3.,60.7000000000001));
#2152=CARTESIAN_POINT('',(27.3017838075599,0.,60.7000000000001));
#2153=CARTESIAN_POINT('',(25.4117838075599,3.,60.700000000001));
#2154=CARTESIAN_POINT('',(27.3017838075599,3.,60.7000000000001));
#2155=CARTESIAN_POINT('',(25.4117838075599,0.,60.700000000001));
#2156=CARTESIAN_POINT('Origin',(25.4117838075599,0.,62.7000000000004));
#2157=CARTESIAN_POINT('',(25.4117838075599,0.,64.6999999999999));
#2158=CARTESIAN_POINT('Origin',(25.4117838075599,0.,62.7000000000004));
#2159=CARTESIAN_POINT('',(25.4117838075599,3.,64.6999999999999));
#2160=CARTESIAN_POINT('Origin',(25.4117838075599,3.,62.7000000000004));
#2161=CARTESIAN_POINT('',(25.4117838075599,0.,64.6999999999999));
#2162=CARTESIAN_POINT('Origin',(27.3017838075599,0.,64.6999999999999));
#2163=CARTESIAN_POINT('',(27.3017838075599,0.,64.6999999999999));
#2164=CARTESIAN_POINT('',(27.3017838075599,0.,64.6999999999999));
#2165=CARTESIAN_POINT('',(27.3017838075599,3.,64.6999999999999));
#2166=CARTESIAN_POINT('',(27.3017838075599,3.,64.6999999999999));
#2167=CARTESIAN_POINT('',(27.3017838075599,0.,64.6999999999999));
#2168=CARTESIAN_POINT('Origin',(27.3017838075599,0.,62.7));
#2169=CARTESIAN_POINT('Origin',(27.3017838075599,0.,62.7));
#2170=CARTESIAN_POINT('Origin',(27.3017838075599,3.,62.7));
#2171=CARTESIAN_POINT('Origin',(-145.,0.,-84.7));
#2172=CARTESIAN_POINT('',(-145.,0.,84.7));
#2173=CARTESIAN_POINT('',(-145.,0.,-84.7));
#2174=CARTESIAN_POINT('',(-145.,0.,84.7));
#2175=CARTESIAN_POINT('',(-145.,3.,84.7));
#2176=CARTESIAN_POINT('',(-145.,0.,84.7));
#2177=CARTESIAN_POINT('',(-145.,3.,-84.7000000000001));
#2178=CARTESIAN_POINT('',(-145.,3.,84.7));
#2179=CARTESIAN_POINT('',(-145.,0.,-84.7));
#2180=CARTESIAN_POINT('Origin',(-135.,0.,-84.7000000000001));
#2181=CARTESIAN_POINT('',(-135.,0.,-94.7000000000001));
#2182=CARTESIAN_POINT('Origin',(-135.,0.,-84.7000000000001));
#2183=CARTESIAN_POINT('',(-135.,3.,-94.7000000000001));
#2184=CARTESIAN_POINT('Origin',(-135.,3.,-84.7000000000001));
#2185=CARTESIAN_POINT('',(-135.,0.,-94.7000000000001));
#2186=CARTESIAN_POINT('Origin',(135.,0.,-94.7000000000001));
#2187=CARTESIAN_POINT('',(135.,0.,-94.7000000000001));
#2188=CARTESIAN_POINT('',(-135.,0.,-94.7000000000001));
#2189=CARTESIAN_POINT('',(135.,3.,-94.7000000000001));
#2190=CARTESIAN_POINT('',(-135.,3.,-94.7000000000001));
#2191=CARTESIAN_POINT('',(135.,0.,-94.7000000000001));
#2192=CARTESIAN_POINT('Origin',(135.,0.,-84.7000000000001));
#2193=CARTESIAN_POINT('',(145.,0.,-84.7));
#2194=CARTESIAN_POINT('Origin',(135.,0.,-84.7000000000001));
#2195=CARTESIAN_POINT('',(145.,3.,-84.7000000000001));
#2196=CARTESIAN_POINT('Origin',(135.,3.,-84.7000000000001));
#2197=CARTESIAN_POINT('',(145.,0.,-84.7));
#2198=CARTESIAN_POINT('Origin',(145.,0.,84.7));
#2199=CARTESIAN_POINT('',(145.,0.,84.7));
#2200=CARTESIAN_POINT('',(145.,0.,-84.7));
#2201=CARTESIAN_POINT('',(145.,3.,84.7));
#2202=CARTESIAN_POINT('',(145.,3.,-84.7));
#2203=CARTESIAN_POINT('',(145.,0.,84.7));
#2204=CARTESIAN_POINT('Origin',(135.,0.,84.7));
#2205=CARTESIAN_POINT('',(135.,0.,94.7));
#2206=CARTESIAN_POINT('Origin',(135.,0.,84.7));
#2207=CARTESIAN_POINT('',(135.,3.,94.7));
#2208=CARTESIAN_POINT('Origin',(135.,3.,84.7));
#2209=CARTESIAN_POINT('',(135.,0.,94.7));
#2210=CARTESIAN_POINT('Origin',(-135.,0.,94.7000000000001));
#2211=CARTESIAN_POINT('',(-135.,0.,94.7000000000001));
#2212=CARTESIAN_POINT('',(135.,0.,94.7));
#2213=CARTESIAN_POINT('',(-135.,3.,94.7000000000001));
#2214=CARTESIAN_POINT('',(135.,3.,94.7));
#2215=CARTESIAN_POINT('',(-135.,0.,94.7000000000001));
#2216=CARTESIAN_POINT('Origin',(-135.,0.,84.7000000000001));
#2217=CARTESIAN_POINT('Origin',(-135.,0.,84.7000000000001));
#2218=CARTESIAN_POINT('Origin',(-135.,3.,84.7000000000001));
#2219=CARTESIAN_POINT('Origin',(1.77635683940025E-14,3.,-3.5527136788005E-14));
#2220=CARTESIAN_POINT('Origin',(1.77635683940025E-14,0.,-3.5527136788005E-14));
#2221=UNCERTAINTY_MEASURE_WITH_UNIT(LENGTH_MEASURE(0.01),#2225,
'DISTANCE_ACCURACY_VALUE',
'Maximum model space distance between geometric entities at asserted c
onnectivities');
#2222=UNCERTAINTY_MEASURE_WITH_UNIT(LENGTH_MEASURE(0.01),#2225,
'DISTANCE_ACCURACY_VALUE',
'Maximum model space distance between geometric entities at asserted c
onnectivities');
#2223=(
GEOMETRIC_REPRESENTATION_CONTEXT(3)
GLOBAL_UNCERTAINTY_ASSIGNED_CONTEXT((#2221))
GLOBAL_UNIT_ASSIGNED_CONTEXT((#2225,#2227,#2228))
REPRESENTATION_CONTEXT('','3D')
);
#2224=(
GEOMETRIC_REPRESENTATION_CONTEXT(3)
GLOBAL_UNCERTAINTY_ASSIGNED_CONTEXT((#2222))
GLOBAL_UNIT_ASSIGNED_CONTEXT((#2225,#2227,#2228))
REPRESENTATION_CONTEXT('','3D')
);
#2225=(
LENGTH_UNIT()
NAMED_UNIT(*)
SI_UNIT(.MILLI.,.METRE.)
);
#2226=(
LENGTH_UNIT()
NAMED_UNIT(*)
SI_UNIT($,.METRE.)
);
#2227=(
NAMED_UNIT(*)
PLANE_ANGLE_UNIT()
SI_UNIT($,.RADIAN.)
);
#2228=(
NAMED_UNIT(*)
SI_UNIT($,.STERADIAN.)
SOLID_ANGLE_UNIT()
);
#2229=SHAPE_DEFINITION_REPRESENTATION(#2230,#2231);
#2230=PRODUCT_DEFINITION_SHAPE('',$,#2233);
#2231=SHAPE_REPRESENTATION('',(#1337),#2223);
#2232=PRODUCT_DEFINITION_CONTEXT('part definition',#2237,'design');
#2233=PRODUCT_DEFINITION('2026-05-30-19-40-51-836','\X2\65B07B2C4E8C5C425E9576D8\X0\',
#2234,#2232);
#2234=PRODUCT_DEFINITION_FORMATION('',$,#2239);
#2235=PRODUCT_RELATED_PRODUCT_CATEGORY('\X2\65B07B2C4E8C5C425E9576D8\X0\',
'\X2\65B07B2C4E8C5C425E9576D8\X0\',(#2239));
#2236=APPLICATION_PROTOCOL_DEFINITION('international standard',
'automotive_design',2009,#2237);
#2237=APPLICATION_CONTEXT(
'Core Data for Automotive Mechanical Design Process');
#2238=PRODUCT_CONTEXT('part definition',#2237,'mechanical');
#2239=PRODUCT('2026-05-30-19-40-51-836','\X2\65B07B2C4E8C5C425E9576D8\X0\',
$,(#2238));
#2240=PRESENTATION_STYLE_ASSIGNMENT((#2241));
#2241=SURFACE_STYLE_USAGE(.BOTH.,#2242);
#2242=SURFACE_SIDE_STYLE('',(#2243));
#2243=SURFACE_STYLE_FILL_AREA(#2244);
#2244=FILL_AREA_STYLE('\X2\94A2\X0\ - \X2\7F0E5149\X0\',(#2245));
#2245=FILL_AREA_STYLE_COLOUR('\X2\94A2\X0\ - \X2\7F0E5149\X0\',#2246);
#2246=COLOUR_RGB('\X2\94A2\X0\ - \X2\7F0E5149\X0\',0.627450980392157,0.627450980392157,
0.627450980392157);
ENDSEC;
END-ISO-10303-21;
