ISO-10303-21;
HEADER;
/* Generated by software containing ST-Developer
 * from STEP Tools, Inc. (www.steptools.com) 
 */

FILE_DESCRIPTION(
/* description */ (''),
/* implementation_level */ '2;1');

FILE_NAME(
/* name */ 'wheel_motor_single_side_v0_1.step',
/* time_stamp */ '2026-05-28T00:05:11+08:00',
/* author */ (''),
/* organization */ (''),
/* preprocessor_version */ 'ST-DEVELOPER v20.1',
/* originating_system */ 'Autodesk Translation Framework v15.8.0.0',
/* authorisation */ '');

FILE_SCHEMA (('AUTOMOTIVE_DESIGN { 1 0 10303 214 3 1 1 }'));
ENDSEC;

DATA;
#10=MECHANICAL_DESIGN_GEOMETRIC_PRESENTATION_REPRESENTATION('',(#35,#36,
#37,#38,#39),#1990);
#11=ITEM_DEFINED_TRANSFORMATION($,$,#1184,#1310);
#12=ITEM_DEFINED_TRANSFORMATION($,$,#1242,#1311);
#13=ITEM_DEFINED_TRANSFORMATION($,$,#1269,#1312);
#14=ITEM_DEFINED_TRANSFORMATION($,$,#1289,#1313);
#15=(
REPRESENTATION_RELATIONSHIP($,$,#2010,#2009)
REPRESENTATION_RELATIONSHIP_WITH_TRANSFORMATION(#11)
SHAPE_REPRESENTATION_RELATIONSHIP()
);
#16=(
REPRESENTATION_RELATIONSHIP($,$,#2011,#2009)
REPRESENTATION_RELATIONSHIP_WITH_TRANSFORMATION(#12)
SHAPE_REPRESENTATION_RELATIONSHIP()
);
#17=(
REPRESENTATION_RELATIONSHIP($,$,#2012,#2009)
REPRESENTATION_RELATIONSHIP_WITH_TRANSFORMATION(#13)
SHAPE_REPRESENTATION_RELATIONSHIP()
);
#18=(
REPRESENTATION_RELATIONSHIP($,$,#2013,#2009)
REPRESENTATION_RELATIONSHIP_WITH_TRANSFORMATION(#14)
SHAPE_REPRESENTATION_RELATIONSHIP()
);
#19=CONTEXT_DEPENDENT_SHAPE_REPRESENTATION(#15,#2005);
#20=CONTEXT_DEPENDENT_SHAPE_REPRESENTATION(#16,#2006);
#21=CONTEXT_DEPENDENT_SHAPE_REPRESENTATION(#17,#2007);
#22=CONTEXT_DEPENDENT_SHAPE_REPRESENTATION(#18,#2008);
#23=NEXT_ASSEMBLY_USAGE_OCCURRENCE('jgb37_motor_bracket_v0_1:1',
'jgb37_motor_bracket_v0_1:1','jgb37_motor_bracket_v0_1:1',#2015,#2016,
'jgb37_motor_bracket_v0_1:1');
#24=NEXT_ASSEMBLY_USAGE_OCCURRENCE('\X2\7535673A\X0\:1','\X2\7535673A\X0\:
1','\X2\7535673A\X0\:1',#2015,#2017,'\X2\7535673A\X0\:1');
#25=NEXT_ASSEMBLY_USAGE_OCCURRENCE('\X2\80548F745668\X0\:1',
'\X2\80548F745668\X0\:1','\X2\80548F745668\X0\:1',#2015,#2018,
'\X2\80548F745668\X0\:1');
#26=NEXT_ASSEMBLY_USAGE_OCCURRENCE('\X2\8F6E80CE\X0\:1','\X2\8F6E80CE\X0\:
1','\X2\8F6E80CE\X0\:1',#2015,#2019,'\X2\8F6E80CE\X0\:1');
#27=SHAPE_REPRESENTATION_RELATIONSHIP('SRR','None',#2010,#31);
#28=SHAPE_REPRESENTATION_RELATIONSHIP('SRR','None',#2011,#32);
#29=SHAPE_REPRESENTATION_RELATIONSHIP('SRR','None',#2012,#33);
#30=SHAPE_REPRESENTATION_RELATIONSHIP('SRR','None',#2013,#34);
#31=ADVANCED_BREP_SHAPE_REPRESENTATION('',(#40),#1986);
#32=ADVANCED_BREP_SHAPE_REPRESENTATION('',(#41,#42),#1987);
#33=ADVANCED_BREP_SHAPE_REPRESENTATION('',(#43),#1988);
#34=ADVANCED_BREP_SHAPE_REPRESENTATION('',(#44),#1989);
#35=STYLED_ITEM('',(#2039),#40);
#36=STYLED_ITEM('',(#2038),#41);
#37=STYLED_ITEM('',(#2038),#42);
#38=STYLED_ITEM('',(#2038),#43);
#39=STYLED_ITEM('',(#2038),#44);
#40=MANIFOLD_SOLID_BREP('\X2\5B9E4F53\X0\1',#1133);
#41=MANIFOLD_SOLID_BREP('\X2\5B9E4F53\X0\1',#1134);
#42=MANIFOLD_SOLID_BREP('\X2\5B9E4F53\X0\2',#1135);
#43=MANIFOLD_SOLID_BREP('\X2\5B9E4F53\X0\1',#1136);
#44=MANIFOLD_SOLID_BREP('\X2\5B9E4F53\X0\1',#1137);
#45=FACE_BOUND('',#185,.T.);
#46=FACE_BOUND('',#186,.T.);
#47=FACE_BOUND('',#187,.T.);
#48=FACE_BOUND('',#188,.T.);
#49=FACE_BOUND('',#189,.T.);
#50=FACE_BOUND('',#190,.T.);
#51=FACE_BOUND('',#191,.T.);
#52=FACE_BOUND('',#208,.T.);
#53=FACE_BOUND('',#209,.T.);
#54=FACE_BOUND('',#210,.T.);
#55=FACE_BOUND('',#211,.T.);
#56=FACE_BOUND('',#212,.T.);
#57=FACE_BOUND('',#213,.T.);
#58=FACE_BOUND('',#214,.T.);
#59=FACE_BOUND('',#220,.T.);
#60=FACE_BOUND('',#221,.T.);
#61=FACE_BOUND('',#222,.T.);
#62=FACE_BOUND('',#223,.T.);
#63=FACE_BOUND('',#225,.T.);
#64=FACE_BOUND('',#226,.T.);
#65=FACE_BOUND('',#227,.T.);
#66=FACE_BOUND('',#228,.T.);
#67=FACE_BOUND('',#231,.T.);
#68=FACE_BOUND('',#237,.T.);
#69=FACE_BOUND('',#242,.T.);
#70=FACE_BOUND('',#248,.T.);
#71=FACE_BOUND('',#257,.T.);
#72=FACE_BOUND('',#260,.T.);
#73=FACE_BOUND('',#262,.T.);
#74=FACE_BOUND('',#271,.T.);
#75=FACE_BOUND('',#275,.T.);
#76=FACE_BOUND('',#277,.T.);
#77=PLANE('',#1188);
#78=PLANE('',#1189);
#79=PLANE('',#1217);
#80=PLANE('',#1220);
#81=PLANE('',#1231);
#82=PLANE('',#1232);
#83=PLANE('',#1236);
#84=PLANE('',#1240);
#85=PLANE('',#1241);
#86=PLANE('',#1243);
#87=PLANE('',#1245);
#88=PLANE('',#1251);
#89=PLANE('',#1252);
#90=PLANE('',#1255);
#91=PLANE('',#1260);
#92=PLANE('',#1263);
#93=PLANE('',#1267);
#94=PLANE('',#1268);
#95=PLANE('',#1273);
#96=PLANE('',#1277);
#97=PLANE('',#1278);
#98=PLANE('',#1279);
#99=PLANE('',#1280);
#100=PLANE('',#1281);
#101=PLANE('',#1282);
#102=PLANE('',#1283);
#103=PLANE('',#1287);
#104=PLANE('',#1288);
#105=PLANE('',#1290);
#106=PLANE('',#1291);
#107=PLANE('',#1292);
#108=PLANE('',#1293);
#109=PLANE('',#1294);
#110=PLANE('',#1295);
#111=PLANE('',#1296);
#112=PLANE('',#1297);
#113=PLANE('',#1304);
#114=PLANE('',#1305);
#115=PLANE('',#1309);
#116=FACE_OUTER_BOUND('',#182,.T.);
#117=FACE_OUTER_BOUND('',#183,.T.);
#118=FACE_OUTER_BOUND('',#184,.T.);
#119=FACE_OUTER_BOUND('',#192,.T.);
#120=FACE_OUTER_BOUND('',#193,.T.);
#121=FACE_OUTER_BOUND('',#194,.T.);
#122=FACE_OUTER_BOUND('',#195,.T.);
#123=FACE_OUTER_BOUND('',#196,.T.);
#124=FACE_OUTER_BOUND('',#197,.T.);
#125=FACE_OUTER_BOUND('',#198,.T.);
#126=FACE_OUTER_BOUND('',#199,.T.);
#127=FACE_OUTER_BOUND('',#200,.T.);
#128=FACE_OUTER_BOUND('',#201,.T.);
#129=FACE_OUTER_BOUND('',#202,.T.);
#130=FACE_OUTER_BOUND('',#203,.T.);
#131=FACE_OUTER_BOUND('',#204,.T.);
#132=FACE_OUTER_BOUND('',#205,.T.);
#133=FACE_OUTER_BOUND('',#206,.T.);
#134=FACE_OUTER_BOUND('',#207,.T.);
#135=FACE_OUTER_BOUND('',#215,.T.);
#136=FACE_OUTER_BOUND('',#216,.T.);
#137=FACE_OUTER_BOUND('',#217,.T.);
#138=FACE_OUTER_BOUND('',#218,.T.);
#139=FACE_OUTER_BOUND('',#219,.T.);
#140=FACE_OUTER_BOUND('',#224,.T.);
#141=FACE_OUTER_BOUND('',#229,.T.);
#142=FACE_OUTER_BOUND('',#230,.T.);
#143=FACE_OUTER_BOUND('',#232,.T.);
#144=FACE_OUTER_BOUND('',#233,.T.);
#145=FACE_OUTER_BOUND('',#234,.T.);
#146=FACE_OUTER_BOUND('',#235,.T.);
#147=FACE_OUTER_BOUND('',#236,.T.);
#148=FACE_OUTER_BOUND('',#238,.T.);
#149=FACE_OUTER_BOUND('',#239,.T.);
#150=FACE_OUTER_BOUND('',#240,.T.);
#151=FACE_OUTER_BOUND('',#241,.T.);
#152=FACE_OUTER_BOUND('',#243,.T.);
#153=FACE_OUTER_BOUND('',#244,.T.);
#154=FACE_OUTER_BOUND('',#245,.T.);
#155=FACE_OUTER_BOUND('',#246,.T.);
#156=FACE_OUTER_BOUND('',#247,.T.);
#157=FACE_OUTER_BOUND('',#249,.T.);
#158=FACE_OUTER_BOUND('',#250,.T.);
#159=FACE_OUTER_BOUND('',#251,.T.);
#160=FACE_OUTER_BOUND('',#252,.T.);
#161=FACE_OUTER_BOUND('',#253,.T.);
#162=FACE_OUTER_BOUND('',#254,.T.);
#163=FACE_OUTER_BOUND('',#255,.T.);
#164=FACE_OUTER_BOUND('',#256,.T.);
#165=FACE_OUTER_BOUND('',#258,.T.);
#166=FACE_OUTER_BOUND('',#259,.T.);
#167=FACE_OUTER_BOUND('',#261,.T.);
#168=FACE_OUTER_BOUND('',#263,.T.);
#169=FACE_OUTER_BOUND('',#264,.T.);
#170=FACE_OUTER_BOUND('',#265,.T.);
#171=FACE_OUTER_BOUND('',#266,.T.);
#172=FACE_OUTER_BOUND('',#267,.T.);
#173=FACE_OUTER_BOUND('',#268,.T.);
#174=FACE_OUTER_BOUND('',#269,.T.);
#175=FACE_OUTER_BOUND('',#270,.T.);
#176=FACE_OUTER_BOUND('',#272,.T.);
#177=FACE_OUTER_BOUND('',#273,.T.);
#178=FACE_OUTER_BOUND('',#274,.T.);
#179=FACE_OUTER_BOUND('',#276,.T.);
#180=FACE_OUTER_BOUND('',#278,.T.);
#181=FACE_OUTER_BOUND('',#279,.T.);
#182=EDGE_LOOP('',(#752,#753,#754,#755));
#183=EDGE_LOOP('',(#756,#757,#758,#759,#760,#761,#762));
#184=EDGE_LOOP('',(#763,#764,#765,#766));
#185=EDGE_LOOP('',(#767));
#186=EDGE_LOOP('',(#768));
#187=EDGE_LOOP('',(#769));
#188=EDGE_LOOP('',(#770,#771,#772,#773));
#189=EDGE_LOOP('',(#774));
#190=EDGE_LOOP('',(#775));
#191=EDGE_LOOP('',(#776));
#192=EDGE_LOOP('',(#777,#778,#779,#780));
#193=EDGE_LOOP('',(#781,#782,#783,#784));
#194=EDGE_LOOP('',(#785,#786,#787,#788));
#195=EDGE_LOOP('',(#789,#790,#791,#792));
#196=EDGE_LOOP('',(#793,#794,#795,#796));
#197=EDGE_LOOP('',(#797,#798,#799,#800));
#198=EDGE_LOOP('',(#801,#802,#803,#804));
#199=EDGE_LOOP('',(#805,#806,#807,#808));
#200=EDGE_LOOP('',(#809,#810,#811,#812));
#201=EDGE_LOOP('',(#813,#814,#815,#816));
#202=EDGE_LOOP('',(#817,#818,#819,#820));
#203=EDGE_LOOP('',(#821,#822,#823,#824));
#204=EDGE_LOOP('',(#825,#826,#827,#828));
#205=EDGE_LOOP('',(#829,#830,#831,#832));
#206=EDGE_LOOP('',(#833,#834,#835,#836));
#207=EDGE_LOOP('',(#837,#838,#839,#840));
#208=EDGE_LOOP('',(#841));
#209=EDGE_LOOP('',(#842));
#210=EDGE_LOOP('',(#843));
#211=EDGE_LOOP('',(#844,#845,#846,#847));
#212=EDGE_LOOP('',(#848));
#213=EDGE_LOOP('',(#849));
#214=EDGE_LOOP('',(#850));
#215=EDGE_LOOP('',(#851,#852,#853,#854));
#216=EDGE_LOOP('',(#855,#856,#857,#858));
#217=EDGE_LOOP('',(#859,#860,#861,#862,#863,#864,#865));
#218=EDGE_LOOP('',(#866,#867,#868,#869));
#219=EDGE_LOOP('',(#870,#871,#872,#873,#874,#875));
#220=EDGE_LOOP('',(#876));
#221=EDGE_LOOP('',(#877));
#222=EDGE_LOOP('',(#878));
#223=EDGE_LOOP('',(#879));
#224=EDGE_LOOP('',(#880,#881,#882,#883,#884,#885));
#225=EDGE_LOOP('',(#886));
#226=EDGE_LOOP('',(#887));
#227=EDGE_LOOP('',(#888));
#228=EDGE_LOOP('',(#889));
#229=EDGE_LOOP('',(#890,#891));
#230=EDGE_LOOP('',(#892));
#231=EDGE_LOOP('',(#893));
#232=EDGE_LOOP('',(#894,#895,#896,#897,#898,#899,#900,#901));
#233=EDGE_LOOP('',(#902,#903,#904,#905));
#234=EDGE_LOOP('',(#906,#907,#908));
#235=EDGE_LOOP('',(#909,#910,#911,#912));
#236=EDGE_LOOP('',(#913));
#237=EDGE_LOOP('',(#914));
#238=EDGE_LOOP('',(#915,#916,#917,#918));
#239=EDGE_LOOP('',(#919));
#240=EDGE_LOOP('',(#920,#921,#922,#923));
#241=EDGE_LOOP('',(#924));
#242=EDGE_LOOP('',(#925));
#243=EDGE_LOOP('',(#926,#927,#928,#929));
#244=EDGE_LOOP('',(#930));
#245=EDGE_LOOP('',(#931));
#246=EDGE_LOOP('',(#932,#933,#934,#935));
#247=EDGE_LOOP('',(#936));
#248=EDGE_LOOP('',(#937));
#249=EDGE_LOOP('',(#938,#939,#940,#941));
#250=EDGE_LOOP('',(#942,#943,#944,#945));
#251=EDGE_LOOP('',(#946,#947,#948,#949));
#252=EDGE_LOOP('',(#950,#951,#952,#953));
#253=EDGE_LOOP('',(#954,#955,#956,#957));
#254=EDGE_LOOP('',(#958,#959,#960,#961));
#255=EDGE_LOOP('',(#962,#963,#964,#965));
#256=EDGE_LOOP('',(#966,#967,#968,#969,#970,#971));
#257=EDGE_LOOP('',(#972));
#258=EDGE_LOOP('',(#973,#974,#975,#976));
#259=EDGE_LOOP('',(#977));
#260=EDGE_LOOP('',(#978));
#261=EDGE_LOOP('',(#979));
#262=EDGE_LOOP('',(#980,#981,#982,#983,#984,#985));
#263=EDGE_LOOP('',(#986,#987,#988,#989));
#264=EDGE_LOOP('',(#990,#991,#992,#993));
#265=EDGE_LOOP('',(#994,#995,#996,#997));
#266=EDGE_LOOP('',(#998,#999,#1000,#1001));
#267=EDGE_LOOP('',(#1002,#1003,#1004,#1005));
#268=EDGE_LOOP('',(#1006,#1007,#1008,#1009));
#269=EDGE_LOOP('',(#1010,#1011,#1012,#1013,#1014,#1015));
#270=EDGE_LOOP('',(#1016));
#271=EDGE_LOOP('',(#1017,#1018,#1019,#1020,#1021,#1022));
#272=EDGE_LOOP('',(#1023,#1024,#1025,#1026));
#273=EDGE_LOOP('',(#1027,#1028,#1029,#1030));
#274=EDGE_LOOP('',(#1031));
#275=EDGE_LOOP('',(#1032));
#276=EDGE_LOOP('',(#1033));
#277=EDGE_LOOP('',(#1034));
#278=EDGE_LOOP('',(#1035,#1036,#1037,#1038));
#279=EDGE_LOOP('',(#1039));
#280=LINE('',#1671,#368);
#281=LINE('',#1674,#369);
#282=LINE('',#1677,#370);
#283=LINE('',#1679,#371);
#284=LINE('',#1681,#372);
#285=LINE('',#1683,#373);
#286=LINE('',#1685,#374);
#287=LINE('',#1686,#375);
#288=LINE('',#1689,#376);
#289=LINE('',#1701,#377);
#290=LINE('',#1704,#378);
#291=LINE('',#1715,#379);
#292=LINE('',#1721,#380);
#293=LINE('',#1727,#381);
#294=LINE('',#1733,#382);
#295=LINE('',#1738,#383);
#296=LINE('',#1742,#384);
#297=LINE('',#1746,#385);
#298=LINE('',#1750,#386);
#299=LINE('',#1751,#387);
#300=LINE('',#1752,#388);
#301=LINE('',#1756,#389);
#302=LINE('',#1759,#390);
#303=LINE('',#1760,#391);
#304=LINE('',#1766,#392);
#305=LINE('',#1770,#393);
#306=LINE('',#1774,#394);
#307=LINE('',#1778,#395);
#308=LINE('',#1781,#396);
#309=LINE('',#1782,#397);
#310=LINE('',#1786,#398);
#311=LINE('',#1788,#399);
#312=LINE('',#1790,#400);
#313=LINE('',#1791,#401);
#314=LINE('',#1797,#402);
#315=LINE('',#1799,#403);
#316=LINE('',#1800,#404);
#317=LINE('',#1810,#405);
#318=LINE('',#1819,#406);
#319=LINE('',#1822,#407);
#320=LINE('',#1825,#408);
#321=LINE('',#1827,#409);
#322=LINE('',#1831,#410);
#323=LINE('',#1840,#411);
#324=LINE('',#1846,#412);
#325=LINE('',#1852,#413);
#326=LINE('',#1861,#414);
#327=LINE('',#1869,#415);
#328=LINE('',#1873,#416);
#329=LINE('',#1875,#417);
#330=LINE('',#1877,#418);
#331=LINE('',#1878,#419);
#332=LINE('',#1881,#420);
#333=LINE('',#1883,#421);
#334=LINE('',#1884,#422);
#335=LINE('',#1887,#423);
#336=LINE('',#1889,#424);
#337=LINE('',#1890,#425);
#338=LINE('',#1893,#426);
#339=LINE('',#1895,#427);
#340=LINE('',#1896,#428);
#341=LINE('',#1899,#429);
#342=LINE('',#1901,#430);
#343=LINE('',#1902,#431);
#344=LINE('',#1904,#432);
#345=LINE('',#1905,#433);
#346=LINE('',#1911,#434);
#347=LINE('',#1919,#435);
#348=LINE('',#1921,#436);
#349=LINE('',#1923,#437);
#350=LINE('',#1924,#438);
#351=LINE('',#1927,#439);
#352=LINE('',#1929,#440);
#353=LINE('',#1930,#441);
#354=LINE('',#1933,#442);
#355=LINE('',#1935,#443);
#356=LINE('',#1936,#444);
#357=LINE('',#1939,#445);
#358=LINE('',#1941,#446);
#359=LINE('',#1942,#447);
#360=LINE('',#1945,#448);
#361=LINE('',#1947,#449);
#362=LINE('',#1948,#450);
#363=LINE('',#1950,#451);
#364=LINE('',#1951,#452);
#365=LINE('',#1958,#453);
#366=LINE('',#1964,#454);
#367=LINE('',#1973,#455);
#368=VECTOR('',#1322,10.);
#369=VECTOR('',#1325,10.);
#370=VECTOR('',#1328,10.);
#371=VECTOR('',#1329,10.);
#372=VECTOR('',#1330,10.);
#373=VECTOR('',#1331,10.);
#374=VECTOR('',#1332,10.);
#375=VECTOR('',#1333,10.);
#376=VECTOR('',#1336,10.);
#377=VECTOR('',#1347,10.);
#378=VECTOR('',#1350,10.);
#379=VECTOR('',#1361,2.);
#380=VECTOR('',#1368,2.);
#381=VECTOR('',#1375,2.);
#382=VECTOR('',#1382,2.);
#383=VECTOR('',#1389,1.6);
#384=VECTOR('',#1394,1.6);
#385=VECTOR('',#1399,1.6);
#386=VECTOR('',#1402,10.);
#387=VECTOR('',#1403,10.);
#388=VECTOR('',#1404,10.);
#389=VECTOR('',#1409,10.);
#390=VECTOR('',#1412,10.);
#391=VECTOR('',#1413,10.);
#392=VECTOR('',#1422,1.6);
#393=VECTOR('',#1427,1.6);
#394=VECTOR('',#1432,1.6);
#395=VECTOR('',#1437,10.);
#396=VECTOR('',#1440,10.);
#397=VECTOR('',#1441,10.);
#398=VECTOR('',#1444,10.);
#399=VECTOR('',#1445,10.);
#400=VECTOR('',#1446,10.);
#401=VECTOR('',#1447,10.);
#402=VECTOR('',#1454,10.);
#403=VECTOR('',#1457,10.);
#404=VECTOR('',#1458,10.);
#405=VECTOR('',#1473,10.);
#406=VECTOR('',#1484,10.);
#407=VECTOR('',#1487,3.);
#408=VECTOR('',#1490,10.);
#409=VECTOR('',#1493,10.);
#410=VECTOR('',#1498,6.);
#411=VECTOR('',#1509,16.);
#412=VECTOR('',#1518,18.5);
#413=VECTOR('',#1525,16.);
#414=VECTOR('',#1538,3.);
#415=VECTOR('',#1549,2.);
#416=VECTOR('',#1552,10.);
#417=VECTOR('',#1553,10.);
#418=VECTOR('',#1554,10.);
#419=VECTOR('',#1555,10.);
#420=VECTOR('',#1558,10.);
#421=VECTOR('',#1559,10.);
#422=VECTOR('',#1560,10.);
#423=VECTOR('',#1563,10.);
#424=VECTOR('',#1564,10.);
#425=VECTOR('',#1565,10.);
#426=VECTOR('',#1568,10.);
#427=VECTOR('',#1569,10.);
#428=VECTOR('',#1570,10.);
#429=VECTOR('',#1573,10.);
#430=VECTOR('',#1574,10.);
#431=VECTOR('',#1575,10.);
#432=VECTOR('',#1578,10.);
#433=VECTOR('',#1579,10.);
#434=VECTOR('',#1586,10.);
#435=VECTOR('',#1597,10.);
#436=VECTOR('',#1598,10.);
#437=VECTOR('',#1599,10.);
#438=VECTOR('',#1600,10.);
#439=VECTOR('',#1603,10.);
#440=VECTOR('',#1604,10.);
#441=VECTOR('',#1605,10.);
#442=VECTOR('',#1608,10.);
#443=VECTOR('',#1609,10.);
#444=VECTOR('',#1610,10.);
#445=VECTOR('',#1613,10.);
#446=VECTOR('',#1614,10.);
#447=VECTOR('',#1615,10.);
#448=VECTOR('',#1618,10.);
#449=VECTOR('',#1619,10.);
#450=VECTOR('',#1620,10.);
#451=VECTOR('',#1623,10.);
#452=VECTOR('',#1624,10.);
#453=VECTOR('',#1633,10.);
#454=VECTOR('',#1640,28.8);
#455=VECTOR('',#1653,42.5);
#456=CIRCLE('',#1186,3.);
#457=CIRCLE('',#1187,3.);
#458=CIRCLE('',#1190,20.);
#459=CIRCLE('',#1191,1.6);
#460=CIRCLE('',#1192,1.6);
#461=CIRCLE('',#1193,1.6);
#462=CIRCLE('',#1194,6.50000000000428);
#463=CIRCLE('',#1195,6.50000000000075);
#464=CIRCLE('',#1196,1.6);
#465=CIRCLE('',#1197,1.6);
#466=CIRCLE('',#1198,1.6);
#467=CIRCLE('',#1200,2.);
#468=CIRCLE('',#1201,2.);
#469=CIRCLE('',#1203,2.);
#470=CIRCLE('',#1204,2.);
#471=CIRCLE('',#1206,2.);
#472=CIRCLE('',#1207,2.);
#473=CIRCLE('',#1209,2.);
#474=CIRCLE('',#1210,2.);
#475=CIRCLE('',#1212,1.6);
#476=CIRCLE('',#1214,1.6);
#477=CIRCLE('',#1216,1.6);
#478=CIRCLE('',#1219,6.50000000000075);
#479=CIRCLE('',#1222,6.50000000000428);
#480=CIRCLE('',#1224,1.6);
#481=CIRCLE('',#1226,1.6);
#482=CIRCLE('',#1228,1.6);
#483=CIRCLE('',#1230,20.);
#484=CIRCLE('',#1234,3.);
#485=CIRCLE('',#1235,3.);
#486=CIRCLE('',#1238,2.99999999999998);
#487=CIRCLE('',#1239,2.99999999999998);
#488=CIRCLE('',#1244,3.);
#489=CIRCLE('',#1246,6.);
#490=CIRCLE('',#1247,3.);
#491=CIRCLE('',#1249,3.);
#492=CIRCLE('',#1250,3.);
#493=CIRCLE('',#1254,6.);
#494=CIRCLE('',#1256,18.5);
#495=CIRCLE('',#1258,16.);
#496=CIRCLE('',#1259,16.);
#497=CIRCLE('',#1262,18.5);
#498=CIRCLE('',#1265,16.);
#499=CIRCLE('',#1266,16.);
#500=CIRCLE('',#1271,3.);
#501=CIRCLE('',#1272,3.);
#502=CIRCLE('',#1274,2.);
#503=CIRCLE('',#1276,2.);
#504=CIRCLE('',#1285,10.);
#505=CIRCLE('',#1286,10.);
#506=CIRCLE('',#1298,10.);
#507=CIRCLE('',#1300,10.);
#508=CIRCLE('',#1302,28.8);
#509=CIRCLE('',#1303,28.8);
#510=CIRCLE('',#1306,42.5);
#511=CIRCLE('',#1308,42.5);
#512=VERTEX_POINT('',#1667);
#513=VERTEX_POINT('',#1668);
#514=VERTEX_POINT('',#1670);
#515=VERTEX_POINT('',#1672);
#516=VERTEX_POINT('',#1676);
#517=VERTEX_POINT('',#1678);
#518=VERTEX_POINT('',#1680);
#519=VERTEX_POINT('',#1682);
#520=VERTEX_POINT('',#1684);
#521=VERTEX_POINT('',#1688);
#522=VERTEX_POINT('',#1691);
#523=VERTEX_POINT('',#1693);
#524=VERTEX_POINT('',#1695);
#525=VERTEX_POINT('',#1697);
#526=VERTEX_POINT('',#1698);
#527=VERTEX_POINT('',#1700);
#528=VERTEX_POINT('',#1702);
#529=VERTEX_POINT('',#1705);
#530=VERTEX_POINT('',#1707);
#531=VERTEX_POINT('',#1709);
#532=VERTEX_POINT('',#1712);
#533=VERTEX_POINT('',#1714);
#534=VERTEX_POINT('',#1718);
#535=VERTEX_POINT('',#1720);
#536=VERTEX_POINT('',#1724);
#537=VERTEX_POINT('',#1726);
#538=VERTEX_POINT('',#1730);
#539=VERTEX_POINT('',#1732);
#540=VERTEX_POINT('',#1736);
#541=VERTEX_POINT('',#1740);
#542=VERTEX_POINT('',#1744);
#543=VERTEX_POINT('',#1748);
#544=VERTEX_POINT('',#1749);
#545=VERTEX_POINT('',#1754);
#546=VERTEX_POINT('',#1758);
#547=VERTEX_POINT('',#1764);
#548=VERTEX_POINT('',#1768);
#549=VERTEX_POINT('',#1772);
#550=VERTEX_POINT('',#1776);
#551=VERTEX_POINT('',#1780);
#552=VERTEX_POINT('',#1784);
#553=VERTEX_POINT('',#1785);
#554=VERTEX_POINT('',#1787);
#555=VERTEX_POINT('',#1789);
#556=VERTEX_POINT('',#1793);
#557=VERTEX_POINT('',#1795);
#558=VERTEX_POINT('',#1808);
#559=VERTEX_POINT('',#1809);
#560=VERTEX_POINT('',#1813);
#561=VERTEX_POINT('',#1815);
#562=VERTEX_POINT('',#1818);
#563=VERTEX_POINT('',#1820);
#564=VERTEX_POINT('',#1823);
#565=VERTEX_POINT('',#1830);
#566=VERTEX_POINT('',#1834);
#567=VERTEX_POINT('',#1837);
#568=VERTEX_POINT('',#1839);
#569=VERTEX_POINT('',#1844);
#570=VERTEX_POINT('',#1849);
#571=VERTEX_POINT('',#1851);
#572=VERTEX_POINT('',#1858);
#573=VERTEX_POINT('',#1860);
#574=VERTEX_POINT('',#1864);
#575=VERTEX_POINT('',#1867);
#576=VERTEX_POINT('',#1871);
#577=VERTEX_POINT('',#1872);
#578=VERTEX_POINT('',#1874);
#579=VERTEX_POINT('',#1876);
#580=VERTEX_POINT('',#1880);
#581=VERTEX_POINT('',#1882);
#582=VERTEX_POINT('',#1886);
#583=VERTEX_POINT('',#1888);
#584=VERTEX_POINT('',#1892);
#585=VERTEX_POINT('',#1894);
#586=VERTEX_POINT('',#1898);
#587=VERTEX_POINT('',#1900);
#588=VERTEX_POINT('',#1908);
#589=VERTEX_POINT('',#1910);
#590=VERTEX_POINT('',#1917);
#591=VERTEX_POINT('',#1918);
#592=VERTEX_POINT('',#1920);
#593=VERTEX_POINT('',#1922);
#594=VERTEX_POINT('',#1926);
#595=VERTEX_POINT('',#1928);
#596=VERTEX_POINT('',#1932);
#597=VERTEX_POINT('',#1934);
#598=VERTEX_POINT('',#1938);
#599=VERTEX_POINT('',#1940);
#600=VERTEX_POINT('',#1944);
#601=VERTEX_POINT('',#1946);
#602=VERTEX_POINT('',#1954);
#603=VERTEX_POINT('',#1957);
#604=VERTEX_POINT('',#1961);
#605=VERTEX_POINT('',#1963);
#606=VERTEX_POINT('',#1968);
#607=VERTEX_POINT('',#1971);
#608=EDGE_CURVE('',#512,#513,#456,.T.);
#609=EDGE_CURVE('',#513,#514,#280,.T.);
#610=EDGE_CURVE('',#514,#515,#457,.T.);
#611=EDGE_CURVE('',#515,#512,#281,.T.);
#612=EDGE_CURVE('',#516,#514,#282,.T.);
#613=EDGE_CURVE('',#517,#516,#283,.T.);
#614=EDGE_CURVE('',#518,#517,#284,.T.);
#615=EDGE_CURVE('',#519,#518,#285,.T.);
#616=EDGE_CURVE('',#520,#519,#286,.T.);
#617=EDGE_CURVE('',#520,#515,#287,.T.);
#618=EDGE_CURVE('',#513,#521,#288,.T.);
#619=EDGE_CURVE('',#521,#516,#458,.T.);
#620=EDGE_CURVE('',#522,#522,#459,.T.);
#621=EDGE_CURVE('',#523,#523,#460,.T.);
#622=EDGE_CURVE('',#524,#524,#461,.T.);
#623=EDGE_CURVE('',#525,#526,#462,.T.);
#624=EDGE_CURVE('',#526,#527,#289,.T.);
#625=EDGE_CURVE('',#527,#528,#463,.T.);
#626=EDGE_CURVE('',#528,#525,#290,.T.);
#627=EDGE_CURVE('',#529,#529,#464,.T.);
#628=EDGE_CURVE('',#530,#530,#465,.T.);
#629=EDGE_CURVE('',#531,#531,#466,.T.);
#630=EDGE_CURVE('',#532,#532,#467,.T.);
#631=EDGE_CURVE('',#532,#533,#291,.T.);
#632=EDGE_CURVE('',#533,#533,#468,.T.);
#633=EDGE_CURVE('',#534,#534,#469,.T.);
#634=EDGE_CURVE('',#534,#535,#292,.T.);
#635=EDGE_CURVE('',#535,#535,#470,.T.);
#636=EDGE_CURVE('',#536,#536,#471,.T.);
#637=EDGE_CURVE('',#536,#537,#293,.T.);
#638=EDGE_CURVE('',#537,#537,#472,.T.);
#639=EDGE_CURVE('',#538,#538,#473,.T.);
#640=EDGE_CURVE('',#538,#539,#294,.T.);
#641=EDGE_CURVE('',#539,#539,#474,.T.);
#642=EDGE_CURVE('',#540,#540,#475,.T.);
#643=EDGE_CURVE('',#540,#522,#295,.T.);
#644=EDGE_CURVE('',#541,#541,#476,.T.);
#645=EDGE_CURVE('',#541,#523,#296,.T.);
#646=EDGE_CURVE('',#542,#542,#477,.T.);
#647=EDGE_CURVE('',#542,#524,#297,.T.);
#648=EDGE_CURVE('',#543,#544,#298,.T.);
#649=EDGE_CURVE('',#543,#525,#299,.T.);
#650=EDGE_CURVE('',#544,#528,#300,.T.);
#651=EDGE_CURVE('',#544,#545,#478,.T.);
#652=EDGE_CURVE('',#545,#527,#301,.T.);
#653=EDGE_CURVE('',#545,#546,#302,.T.);
#654=EDGE_CURVE('',#546,#526,#303,.T.);
#655=EDGE_CURVE('',#546,#543,#479,.T.);
#656=EDGE_CURVE('',#547,#547,#480,.T.);
#657=EDGE_CURVE('',#547,#529,#304,.T.);
#658=EDGE_CURVE('',#548,#548,#481,.T.);
#659=EDGE_CURVE('',#548,#530,#305,.T.);
#660=EDGE_CURVE('',#549,#549,#482,.T.);
#661=EDGE_CURVE('',#549,#531,#306,.T.);
#662=EDGE_CURVE('',#517,#550,#483,.T.);
#663=EDGE_CURVE('',#550,#521,#307,.T.);
#664=EDGE_CURVE('',#518,#551,#308,.T.);
#665=EDGE_CURVE('',#550,#551,#309,.T.);
#666=EDGE_CURVE('',#552,#553,#310,.T.);
#667=EDGE_CURVE('',#553,#554,#311,.T.);
#668=EDGE_CURVE('',#555,#554,#312,.T.);
#669=EDGE_CURVE('',#552,#555,#313,.T.);
#670=EDGE_CURVE('',#556,#552,#484,.T.);
#671=EDGE_CURVE('',#557,#555,#485,.T.);
#672=EDGE_CURVE('',#556,#557,#314,.T.);
#673=EDGE_CURVE('',#556,#512,#315,.T.);
#674=EDGE_CURVE('',#551,#557,#316,.T.);
#675=EDGE_CURVE('',#553,#520,#486,.T.);
#676=EDGE_CURVE('',#554,#519,#487,.T.);
#677=EDGE_CURVE('',#558,#559,#317,.T.);
#678=EDGE_CURVE('',#558,#559,#488,.T.);
#679=EDGE_CURVE('',#560,#560,#489,.T.);
#680=EDGE_CURVE('',#561,#561,#490,.T.);
#681=EDGE_CURVE('',#558,#562,#318,.T.);
#682=EDGE_CURVE('',#563,#562,#491,.T.);
#683=EDGE_CURVE('',#563,#561,#319,.T.);
#684=EDGE_CURVE('',#564,#563,#492,.T.);
#685=EDGE_CURVE('',#559,#564,#320,.T.);
#686=EDGE_CURVE('',#562,#564,#321,.T.);
#687=EDGE_CURVE('',#560,#565,#322,.T.);
#688=EDGE_CURVE('',#565,#565,#493,.T.);
#689=EDGE_CURVE('',#566,#566,#494,.T.);
#690=EDGE_CURVE('',#567,#567,#495,.T.);
#691=EDGE_CURVE('',#567,#568,#323,.T.);
#692=EDGE_CURVE('',#568,#568,#496,.T.);
#693=EDGE_CURVE('',#569,#569,#497,.T.);
#694=EDGE_CURVE('',#569,#566,#324,.T.);
#695=EDGE_CURVE('',#570,#570,#498,.T.);
#696=EDGE_CURVE('',#570,#571,#325,.T.);
#697=EDGE_CURVE('',#571,#571,#499,.T.);
#698=EDGE_CURVE('',#572,#572,#500,.T.);
#699=EDGE_CURVE('',#572,#573,#326,.T.);
#700=EDGE_CURVE('',#573,#573,#501,.T.);
#701=EDGE_CURVE('',#574,#574,#502,.T.);
#702=EDGE_CURVE('',#575,#575,#503,.T.);
#703=EDGE_CURVE('',#575,#574,#327,.T.);
#704=EDGE_CURVE('',#576,#577,#328,.T.);
#705=EDGE_CURVE('',#576,#578,#329,.T.);
#706=EDGE_CURVE('',#579,#578,#330,.T.);
#707=EDGE_CURVE('',#577,#579,#331,.T.);
#708=EDGE_CURVE('',#577,#580,#332,.T.);
#709=EDGE_CURVE('',#581,#579,#333,.T.);
#710=EDGE_CURVE('',#580,#581,#334,.T.);
#711=EDGE_CURVE('',#580,#582,#335,.T.);
#712=EDGE_CURVE('',#583,#581,#336,.T.);
#713=EDGE_CURVE('',#582,#583,#337,.T.);
#714=EDGE_CURVE('',#582,#584,#338,.T.);
#715=EDGE_CURVE('',#585,#583,#339,.T.);
#716=EDGE_CURVE('',#584,#585,#340,.T.);
#717=EDGE_CURVE('',#584,#586,#341,.T.);
#718=EDGE_CURVE('',#587,#585,#342,.T.);
#719=EDGE_CURVE('',#586,#587,#343,.T.);
#720=EDGE_CURVE('',#586,#576,#344,.T.);
#721=EDGE_CURVE('',#578,#587,#345,.T.);
#722=EDGE_CURVE('',#588,#588,#504,.T.);
#723=EDGE_CURVE('',#588,#589,#346,.T.);
#724=EDGE_CURVE('',#589,#589,#505,.T.);
#725=EDGE_CURVE('',#590,#591,#347,.T.);
#726=EDGE_CURVE('',#590,#592,#348,.T.);
#727=EDGE_CURVE('',#592,#593,#349,.T.);
#728=EDGE_CURVE('',#591,#593,#350,.T.);
#729=EDGE_CURVE('',#591,#594,#351,.T.);
#730=EDGE_CURVE('',#593,#595,#352,.T.);
#731=EDGE_CURVE('',#594,#595,#353,.T.);
#732=EDGE_CURVE('',#594,#596,#354,.T.);
#733=EDGE_CURVE('',#595,#597,#355,.T.);
#734=EDGE_CURVE('',#596,#597,#356,.T.);
#735=EDGE_CURVE('',#596,#598,#357,.T.);
#736=EDGE_CURVE('',#597,#599,#358,.T.);
#737=EDGE_CURVE('',#598,#599,#359,.T.);
#738=EDGE_CURVE('',#600,#590,#360,.T.);
#739=EDGE_CURVE('',#600,#601,#361,.T.);
#740=EDGE_CURVE('',#601,#592,#362,.T.);
#741=EDGE_CURVE('',#598,#600,#363,.T.);
#742=EDGE_CURVE('',#599,#601,#364,.T.);
#743=EDGE_CURVE('',#602,#602,#506,.T.);
#744=EDGE_CURVE('',#602,#603,#365,.T.);
#745=EDGE_CURVE('',#603,#603,#507,.T.);
#746=EDGE_CURVE('',#604,#604,#508,.T.);
#747=EDGE_CURVE('',#604,#605,#366,.T.);
#748=EDGE_CURVE('',#605,#605,#509,.T.);
#749=EDGE_CURVE('',#606,#606,#510,.T.);
#750=EDGE_CURVE('',#607,#607,#511,.T.);
#751=EDGE_CURVE('',#607,#606,#367,.T.);
#752=ORIENTED_EDGE('',*,*,#608,.T.);
#753=ORIENTED_EDGE('',*,*,#609,.T.);
#754=ORIENTED_EDGE('',*,*,#610,.T.);
#755=ORIENTED_EDGE('',*,*,#611,.T.);
#756=ORIENTED_EDGE('',*,*,#610,.F.);
#757=ORIENTED_EDGE('',*,*,#612,.F.);
#758=ORIENTED_EDGE('',*,*,#613,.F.);
#759=ORIENTED_EDGE('',*,*,#614,.F.);
#760=ORIENTED_EDGE('',*,*,#615,.F.);
#761=ORIENTED_EDGE('',*,*,#616,.F.);
#762=ORIENTED_EDGE('',*,*,#617,.T.);
#763=ORIENTED_EDGE('',*,*,#609,.F.);
#764=ORIENTED_EDGE('',*,*,#618,.T.);
#765=ORIENTED_EDGE('',*,*,#619,.T.);
#766=ORIENTED_EDGE('',*,*,#612,.T.);
#767=ORIENTED_EDGE('',*,*,#620,.T.);
#768=ORIENTED_EDGE('',*,*,#621,.T.);
#769=ORIENTED_EDGE('',*,*,#622,.T.);
#770=ORIENTED_EDGE('',*,*,#623,.T.);
#771=ORIENTED_EDGE('',*,*,#624,.T.);
#772=ORIENTED_EDGE('',*,*,#625,.T.);
#773=ORIENTED_EDGE('',*,*,#626,.T.);
#774=ORIENTED_EDGE('',*,*,#627,.T.);
#775=ORIENTED_EDGE('',*,*,#628,.T.);
#776=ORIENTED_EDGE('',*,*,#629,.T.);
#777=ORIENTED_EDGE('',*,*,#630,.F.);
#778=ORIENTED_EDGE('',*,*,#631,.T.);
#779=ORIENTED_EDGE('',*,*,#632,.F.);
#780=ORIENTED_EDGE('',*,*,#631,.F.);
#781=ORIENTED_EDGE('',*,*,#633,.F.);
#782=ORIENTED_EDGE('',*,*,#634,.T.);
#783=ORIENTED_EDGE('',*,*,#635,.F.);
#784=ORIENTED_EDGE('',*,*,#634,.F.);
#785=ORIENTED_EDGE('',*,*,#636,.F.);
#786=ORIENTED_EDGE('',*,*,#637,.T.);
#787=ORIENTED_EDGE('',*,*,#638,.F.);
#788=ORIENTED_EDGE('',*,*,#637,.F.);
#789=ORIENTED_EDGE('',*,*,#639,.F.);
#790=ORIENTED_EDGE('',*,*,#640,.T.);
#791=ORIENTED_EDGE('',*,*,#641,.F.);
#792=ORIENTED_EDGE('',*,*,#640,.F.);
#793=ORIENTED_EDGE('',*,*,#642,.F.);
#794=ORIENTED_EDGE('',*,*,#643,.T.);
#795=ORIENTED_EDGE('',*,*,#620,.F.);
#796=ORIENTED_EDGE('',*,*,#643,.F.);
#797=ORIENTED_EDGE('',*,*,#644,.F.);
#798=ORIENTED_EDGE('',*,*,#645,.T.);
#799=ORIENTED_EDGE('',*,*,#621,.F.);
#800=ORIENTED_EDGE('',*,*,#645,.F.);
#801=ORIENTED_EDGE('',*,*,#646,.F.);
#802=ORIENTED_EDGE('',*,*,#647,.T.);
#803=ORIENTED_EDGE('',*,*,#622,.F.);
#804=ORIENTED_EDGE('',*,*,#647,.F.);
#805=ORIENTED_EDGE('',*,*,#648,.F.);
#806=ORIENTED_EDGE('',*,*,#649,.T.);
#807=ORIENTED_EDGE('',*,*,#626,.F.);
#808=ORIENTED_EDGE('',*,*,#650,.F.);
#809=ORIENTED_EDGE('',*,*,#651,.F.);
#810=ORIENTED_EDGE('',*,*,#650,.T.);
#811=ORIENTED_EDGE('',*,*,#625,.F.);
#812=ORIENTED_EDGE('',*,*,#652,.F.);
#813=ORIENTED_EDGE('',*,*,#653,.F.);
#814=ORIENTED_EDGE('',*,*,#652,.T.);
#815=ORIENTED_EDGE('',*,*,#624,.F.);
#816=ORIENTED_EDGE('',*,*,#654,.F.);
#817=ORIENTED_EDGE('',*,*,#655,.F.);
#818=ORIENTED_EDGE('',*,*,#654,.T.);
#819=ORIENTED_EDGE('',*,*,#623,.F.);
#820=ORIENTED_EDGE('',*,*,#649,.F.);
#821=ORIENTED_EDGE('',*,*,#656,.F.);
#822=ORIENTED_EDGE('',*,*,#657,.T.);
#823=ORIENTED_EDGE('',*,*,#627,.F.);
#824=ORIENTED_EDGE('',*,*,#657,.F.);
#825=ORIENTED_EDGE('',*,*,#658,.F.);
#826=ORIENTED_EDGE('',*,*,#659,.T.);
#827=ORIENTED_EDGE('',*,*,#628,.F.);
#828=ORIENTED_EDGE('',*,*,#659,.F.);
#829=ORIENTED_EDGE('',*,*,#660,.F.);
#830=ORIENTED_EDGE('',*,*,#661,.T.);
#831=ORIENTED_EDGE('',*,*,#629,.F.);
#832=ORIENTED_EDGE('',*,*,#661,.F.);
#833=ORIENTED_EDGE('',*,*,#662,.F.);
#834=ORIENTED_EDGE('',*,*,#613,.T.);
#835=ORIENTED_EDGE('',*,*,#619,.F.);
#836=ORIENTED_EDGE('',*,*,#663,.F.);
#837=ORIENTED_EDGE('',*,*,#664,.F.);
#838=ORIENTED_EDGE('',*,*,#614,.T.);
#839=ORIENTED_EDGE('',*,*,#662,.T.);
#840=ORIENTED_EDGE('',*,*,#665,.T.);
#841=ORIENTED_EDGE('',*,*,#660,.T.);
#842=ORIENTED_EDGE('',*,*,#658,.T.);
#843=ORIENTED_EDGE('',*,*,#656,.T.);
#844=ORIENTED_EDGE('',*,*,#655,.T.);
#845=ORIENTED_EDGE('',*,*,#648,.T.);
#846=ORIENTED_EDGE('',*,*,#651,.T.);
#847=ORIENTED_EDGE('',*,*,#653,.T.);
#848=ORIENTED_EDGE('',*,*,#646,.T.);
#849=ORIENTED_EDGE('',*,*,#644,.T.);
#850=ORIENTED_EDGE('',*,*,#642,.T.);
#851=ORIENTED_EDGE('',*,*,#666,.T.);
#852=ORIENTED_EDGE('',*,*,#667,.T.);
#853=ORIENTED_EDGE('',*,*,#668,.F.);
#854=ORIENTED_EDGE('',*,*,#669,.F.);
#855=ORIENTED_EDGE('',*,*,#670,.T.);
#856=ORIENTED_EDGE('',*,*,#669,.T.);
#857=ORIENTED_EDGE('',*,*,#671,.F.);
#858=ORIENTED_EDGE('',*,*,#672,.F.);
#859=ORIENTED_EDGE('',*,*,#608,.F.);
#860=ORIENTED_EDGE('',*,*,#673,.F.);
#861=ORIENTED_EDGE('',*,*,#672,.T.);
#862=ORIENTED_EDGE('',*,*,#674,.F.);
#863=ORIENTED_EDGE('',*,*,#665,.F.);
#864=ORIENTED_EDGE('',*,*,#663,.T.);
#865=ORIENTED_EDGE('',*,*,#618,.F.);
#866=ORIENTED_EDGE('',*,*,#675,.T.);
#867=ORIENTED_EDGE('',*,*,#616,.T.);
#868=ORIENTED_EDGE('',*,*,#676,.F.);
#869=ORIENTED_EDGE('',*,*,#667,.F.);
#870=ORIENTED_EDGE('',*,*,#676,.T.);
#871=ORIENTED_EDGE('',*,*,#615,.T.);
#872=ORIENTED_EDGE('',*,*,#664,.T.);
#873=ORIENTED_EDGE('',*,*,#674,.T.);
#874=ORIENTED_EDGE('',*,*,#671,.T.);
#875=ORIENTED_EDGE('',*,*,#668,.T.);
#876=ORIENTED_EDGE('',*,*,#630,.T.);
#877=ORIENTED_EDGE('',*,*,#633,.T.);
#878=ORIENTED_EDGE('',*,*,#636,.T.);
#879=ORIENTED_EDGE('',*,*,#639,.T.);
#880=ORIENTED_EDGE('',*,*,#611,.F.);
#881=ORIENTED_EDGE('',*,*,#617,.F.);
#882=ORIENTED_EDGE('',*,*,#675,.F.);
#883=ORIENTED_EDGE('',*,*,#666,.F.);
#884=ORIENTED_EDGE('',*,*,#670,.F.);
#885=ORIENTED_EDGE('',*,*,#673,.T.);
#886=ORIENTED_EDGE('',*,*,#632,.T.);
#887=ORIENTED_EDGE('',*,*,#635,.T.);
#888=ORIENTED_EDGE('',*,*,#638,.T.);
#889=ORIENTED_EDGE('',*,*,#641,.T.);
#890=ORIENTED_EDGE('',*,*,#677,.F.);
#891=ORIENTED_EDGE('',*,*,#678,.T.);
#892=ORIENTED_EDGE('',*,*,#679,.T.);
#893=ORIENTED_EDGE('',*,*,#680,.T.);
#894=ORIENTED_EDGE('',*,*,#678,.F.);
#895=ORIENTED_EDGE('',*,*,#681,.T.);
#896=ORIENTED_EDGE('',*,*,#682,.F.);
#897=ORIENTED_EDGE('',*,*,#683,.T.);
#898=ORIENTED_EDGE('',*,*,#680,.F.);
#899=ORIENTED_EDGE('',*,*,#683,.F.);
#900=ORIENTED_EDGE('',*,*,#684,.F.);
#901=ORIENTED_EDGE('',*,*,#685,.F.);
#902=ORIENTED_EDGE('',*,*,#677,.T.);
#903=ORIENTED_EDGE('',*,*,#685,.T.);
#904=ORIENTED_EDGE('',*,*,#686,.F.);
#905=ORIENTED_EDGE('',*,*,#681,.F.);
#906=ORIENTED_EDGE('',*,*,#686,.T.);
#907=ORIENTED_EDGE('',*,*,#684,.T.);
#908=ORIENTED_EDGE('',*,*,#682,.T.);
#909=ORIENTED_EDGE('',*,*,#679,.F.);
#910=ORIENTED_EDGE('',*,*,#687,.T.);
#911=ORIENTED_EDGE('',*,*,#688,.F.);
#912=ORIENTED_EDGE('',*,*,#687,.F.);
#913=ORIENTED_EDGE('',*,*,#689,.T.);
#914=ORIENTED_EDGE('',*,*,#688,.T.);
#915=ORIENTED_EDGE('',*,*,#690,.F.);
#916=ORIENTED_EDGE('',*,*,#691,.T.);
#917=ORIENTED_EDGE('',*,*,#692,.F.);
#918=ORIENTED_EDGE('',*,*,#691,.F.);
#919=ORIENTED_EDGE('',*,*,#690,.T.);
#920=ORIENTED_EDGE('',*,*,#693,.F.);
#921=ORIENTED_EDGE('',*,*,#694,.T.);
#922=ORIENTED_EDGE('',*,*,#689,.F.);
#923=ORIENTED_EDGE('',*,*,#694,.F.);
#924=ORIENTED_EDGE('',*,*,#693,.T.);
#925=ORIENTED_EDGE('',*,*,#692,.T.);
#926=ORIENTED_EDGE('',*,*,#695,.F.);
#927=ORIENTED_EDGE('',*,*,#696,.T.);
#928=ORIENTED_EDGE('',*,*,#697,.F.);
#929=ORIENTED_EDGE('',*,*,#696,.F.);
#930=ORIENTED_EDGE('',*,*,#697,.T.);
#931=ORIENTED_EDGE('',*,*,#695,.T.);
#932=ORIENTED_EDGE('',*,*,#698,.T.);
#933=ORIENTED_EDGE('',*,*,#699,.T.);
#934=ORIENTED_EDGE('',*,*,#700,.F.);
#935=ORIENTED_EDGE('',*,*,#699,.F.);
#936=ORIENTED_EDGE('',*,*,#698,.F.);
#937=ORIENTED_EDGE('',*,*,#701,.F.);
#938=ORIENTED_EDGE('',*,*,#702,.F.);
#939=ORIENTED_EDGE('',*,*,#703,.T.);
#940=ORIENTED_EDGE('',*,*,#701,.T.);
#941=ORIENTED_EDGE('',*,*,#703,.F.);
#942=ORIENTED_EDGE('',*,*,#704,.F.);
#943=ORIENTED_EDGE('',*,*,#705,.T.);
#944=ORIENTED_EDGE('',*,*,#706,.F.);
#945=ORIENTED_EDGE('',*,*,#707,.F.);
#946=ORIENTED_EDGE('',*,*,#708,.F.);
#947=ORIENTED_EDGE('',*,*,#707,.T.);
#948=ORIENTED_EDGE('',*,*,#709,.F.);
#949=ORIENTED_EDGE('',*,*,#710,.F.);
#950=ORIENTED_EDGE('',*,*,#711,.F.);
#951=ORIENTED_EDGE('',*,*,#710,.T.);
#952=ORIENTED_EDGE('',*,*,#712,.F.);
#953=ORIENTED_EDGE('',*,*,#713,.F.);
#954=ORIENTED_EDGE('',*,*,#714,.F.);
#955=ORIENTED_EDGE('',*,*,#713,.T.);
#956=ORIENTED_EDGE('',*,*,#715,.F.);
#957=ORIENTED_EDGE('',*,*,#716,.F.);
#958=ORIENTED_EDGE('',*,*,#717,.F.);
#959=ORIENTED_EDGE('',*,*,#716,.T.);
#960=ORIENTED_EDGE('',*,*,#718,.F.);
#961=ORIENTED_EDGE('',*,*,#719,.F.);
#962=ORIENTED_EDGE('',*,*,#720,.F.);
#963=ORIENTED_EDGE('',*,*,#719,.T.);
#964=ORIENTED_EDGE('',*,*,#721,.F.);
#965=ORIENTED_EDGE('',*,*,#705,.F.);
#966=ORIENTED_EDGE('',*,*,#721,.T.);
#967=ORIENTED_EDGE('',*,*,#718,.T.);
#968=ORIENTED_EDGE('',*,*,#715,.T.);
#969=ORIENTED_EDGE('',*,*,#712,.T.);
#970=ORIENTED_EDGE('',*,*,#709,.T.);
#971=ORIENTED_EDGE('',*,*,#706,.T.);
#972=ORIENTED_EDGE('',*,*,#702,.T.);
#973=ORIENTED_EDGE('',*,*,#722,.F.);
#974=ORIENTED_EDGE('',*,*,#723,.T.);
#975=ORIENTED_EDGE('',*,*,#724,.F.);
#976=ORIENTED_EDGE('',*,*,#723,.F.);
#977=ORIENTED_EDGE('',*,*,#724,.T.);
#978=ORIENTED_EDGE('',*,*,#700,.T.);
#979=ORIENTED_EDGE('',*,*,#722,.T.);
#980=ORIENTED_EDGE('',*,*,#704,.T.);
#981=ORIENTED_EDGE('',*,*,#708,.T.);
#982=ORIENTED_EDGE('',*,*,#711,.T.);
#983=ORIENTED_EDGE('',*,*,#714,.T.);
#984=ORIENTED_EDGE('',*,*,#717,.T.);
#985=ORIENTED_EDGE('',*,*,#720,.T.);
#986=ORIENTED_EDGE('',*,*,#725,.F.);
#987=ORIENTED_EDGE('',*,*,#726,.T.);
#988=ORIENTED_EDGE('',*,*,#727,.T.);
#989=ORIENTED_EDGE('',*,*,#728,.F.);
#990=ORIENTED_EDGE('',*,*,#729,.F.);
#991=ORIENTED_EDGE('',*,*,#728,.T.);
#992=ORIENTED_EDGE('',*,*,#730,.T.);
#993=ORIENTED_EDGE('',*,*,#731,.F.);
#994=ORIENTED_EDGE('',*,*,#732,.F.);
#995=ORIENTED_EDGE('',*,*,#731,.T.);
#996=ORIENTED_EDGE('',*,*,#733,.T.);
#997=ORIENTED_EDGE('',*,*,#734,.F.);
#998=ORIENTED_EDGE('',*,*,#735,.F.);
#999=ORIENTED_EDGE('',*,*,#734,.T.);
#1000=ORIENTED_EDGE('',*,*,#736,.T.);
#1001=ORIENTED_EDGE('',*,*,#737,.F.);
#1002=ORIENTED_EDGE('',*,*,#738,.F.);
#1003=ORIENTED_EDGE('',*,*,#739,.T.);
#1004=ORIENTED_EDGE('',*,*,#740,.T.);
#1005=ORIENTED_EDGE('',*,*,#726,.F.);
#1006=ORIENTED_EDGE('',*,*,#741,.F.);
#1007=ORIENTED_EDGE('',*,*,#737,.T.);
#1008=ORIENTED_EDGE('',*,*,#742,.T.);
#1009=ORIENTED_EDGE('',*,*,#739,.F.);
#1010=ORIENTED_EDGE('',*,*,#742,.F.);
#1011=ORIENTED_EDGE('',*,*,#736,.F.);
#1012=ORIENTED_EDGE('',*,*,#733,.F.);
#1013=ORIENTED_EDGE('',*,*,#730,.F.);
#1014=ORIENTED_EDGE('',*,*,#727,.F.);
#1015=ORIENTED_EDGE('',*,*,#740,.F.);
#1016=ORIENTED_EDGE('',*,*,#743,.F.);
#1017=ORIENTED_EDGE('',*,*,#735,.T.);
#1018=ORIENTED_EDGE('',*,*,#741,.T.);
#1019=ORIENTED_EDGE('',*,*,#738,.T.);
#1020=ORIENTED_EDGE('',*,*,#725,.T.);
#1021=ORIENTED_EDGE('',*,*,#729,.T.);
#1022=ORIENTED_EDGE('',*,*,#732,.T.);
#1023=ORIENTED_EDGE('',*,*,#743,.T.);
#1024=ORIENTED_EDGE('',*,*,#744,.T.);
#1025=ORIENTED_EDGE('',*,*,#745,.T.);
#1026=ORIENTED_EDGE('',*,*,#744,.F.);
#1027=ORIENTED_EDGE('',*,*,#746,.F.);
#1028=ORIENTED_EDGE('',*,*,#747,.T.);
#1029=ORIENTED_EDGE('',*,*,#748,.T.);
#1030=ORIENTED_EDGE('',*,*,#747,.F.);
#1031=ORIENTED_EDGE('',*,*,#748,.F.);
#1032=ORIENTED_EDGE('',*,*,#745,.F.);
#1033=ORIENTED_EDGE('',*,*,#749,.T.);
#1034=ORIENTED_EDGE('',*,*,#746,.T.);
#1035=ORIENTED_EDGE('',*,*,#750,.F.);
#1036=ORIENTED_EDGE('',*,*,#751,.T.);
#1037=ORIENTED_EDGE('',*,*,#749,.F.);
#1038=ORIENTED_EDGE('',*,*,#751,.F.);
#1039=ORIENTED_EDGE('',*,*,#750,.T.);
#1040=CYLINDRICAL_SURFACE('',#1185,3.);
#1041=CYLINDRICAL_SURFACE('',#1199,2.);
#1042=CYLINDRICAL_SURFACE('',#1202,2.);
#1043=CYLINDRICAL_SURFACE('',#1205,2.);
#1044=CYLINDRICAL_SURFACE('',#1208,2.);
#1045=CYLINDRICAL_SURFACE('',#1211,1.6);
#1046=CYLINDRICAL_SURFACE('',#1213,1.6);
#1047=CYLINDRICAL_SURFACE('',#1215,1.6);
#1048=CYLINDRICAL_SURFACE('',#1218,6.50000000000075);
#1049=CYLINDRICAL_SURFACE('',#1221,6.50000000000428);
#1050=CYLINDRICAL_SURFACE('',#1223,1.6);
#1051=CYLINDRICAL_SURFACE('',#1225,1.6);
#1052=CYLINDRICAL_SURFACE('',#1227,1.6);
#1053=CYLINDRICAL_SURFACE('',#1229,20.);
#1054=CYLINDRICAL_SURFACE('',#1233,3.);
#1055=CYLINDRICAL_SURFACE('',#1237,2.99999999999998);
#1056=CYLINDRICAL_SURFACE('',#1248,3.);
#1057=CYLINDRICAL_SURFACE('',#1253,6.);
#1058=CYLINDRICAL_SURFACE('',#1257,16.);
#1059=CYLINDRICAL_SURFACE('',#1261,18.5);
#1060=CYLINDRICAL_SURFACE('',#1264,16.);
#1061=CYLINDRICAL_SURFACE('',#1270,3.);
#1062=CYLINDRICAL_SURFACE('',#1275,2.);
#1063=CYLINDRICAL_SURFACE('',#1284,10.);
#1064=CYLINDRICAL_SURFACE('',#1299,10.);
#1065=CYLINDRICAL_SURFACE('',#1301,28.8);
#1066=CYLINDRICAL_SURFACE('',#1307,42.5);
#1067=ADVANCED_FACE('',(#116),#1040,.T.);
#1068=ADVANCED_FACE('',(#117),#77,.T.);
#1069=ADVANCED_FACE('',(#118,#45,#46,#47,#48,#49,#50,#51),#78,.F.);
#1070=ADVANCED_FACE('',(#119),#1041,.F.);
#1071=ADVANCED_FACE('',(#120),#1042,.F.);
#1072=ADVANCED_FACE('',(#121),#1043,.F.);
#1073=ADVANCED_FACE('',(#122),#1044,.F.);
#1074=ADVANCED_FACE('',(#123),#1045,.F.);
#1075=ADVANCED_FACE('',(#124),#1046,.F.);
#1076=ADVANCED_FACE('',(#125),#1047,.F.);
#1077=ADVANCED_FACE('',(#126),#79,.T.);
#1078=ADVANCED_FACE('',(#127),#1048,.F.);
#1079=ADVANCED_FACE('',(#128),#80,.T.);
#1080=ADVANCED_FACE('',(#129),#1049,.F.);
#1081=ADVANCED_FACE('',(#130),#1050,.F.);
#1082=ADVANCED_FACE('',(#131),#1051,.F.);
#1083=ADVANCED_FACE('',(#132),#1052,.F.);
#1084=ADVANCED_FACE('',(#133),#1053,.T.);
#1085=ADVANCED_FACE('',(#134,#52,#53,#54,#55,#56,#57,#58),#81,.T.);
#1086=ADVANCED_FACE('',(#135),#82,.T.);
#1087=ADVANCED_FACE('',(#136),#1054,.T.);
#1088=ADVANCED_FACE('',(#137),#83,.T.);
#1089=ADVANCED_FACE('',(#138),#1055,.T.);
#1090=ADVANCED_FACE('',(#139,#59,#60,#61,#62),#84,.T.);
#1091=ADVANCED_FACE('',(#140,#63,#64,#65,#66),#85,.F.);
#1092=ADVANCED_FACE('',(#141),#86,.T.);
#1093=ADVANCED_FACE('',(#142,#67),#87,.T.);
#1094=ADVANCED_FACE('',(#143),#1056,.T.);
#1095=ADVANCED_FACE('',(#144),#88,.T.);
#1096=ADVANCED_FACE('',(#145),#89,.T.);
#1097=ADVANCED_FACE('',(#146),#1057,.T.);
#1098=ADVANCED_FACE('',(#147,#68),#90,.T.);
#1099=ADVANCED_FACE('',(#148),#1058,.T.);
#1100=ADVANCED_FACE('',(#149),#91,.T.);
#1101=ADVANCED_FACE('',(#150),#1059,.T.);
#1102=ADVANCED_FACE('',(#151,#69),#92,.T.);
#1103=ADVANCED_FACE('',(#152),#1060,.T.);
#1104=ADVANCED_FACE('',(#153),#93,.T.);
#1105=ADVANCED_FACE('',(#154),#94,.T.);
#1106=ADVANCED_FACE('',(#155),#1061,.F.);
#1107=ADVANCED_FACE('',(#156,#70),#95,.F.);
#1108=ADVANCED_FACE('',(#157),#1062,.F.);
#1109=ADVANCED_FACE('',(#158),#96,.T.);
#1110=ADVANCED_FACE('',(#159),#97,.T.);
#1111=ADVANCED_FACE('',(#160),#98,.T.);
#1112=ADVANCED_FACE('',(#161),#99,.T.);
#1113=ADVANCED_FACE('',(#162),#100,.T.);
#1114=ADVANCED_FACE('',(#163),#101,.T.);
#1115=ADVANCED_FACE('',(#164,#71),#102,.T.);
#1116=ADVANCED_FACE('',(#165),#1063,.T.);
#1117=ADVANCED_FACE('',(#166,#72),#103,.T.);
#1118=ADVANCED_FACE('',(#167,#73),#104,.T.);
#1119=ADVANCED_FACE('',(#168),#105,.F.);
#1120=ADVANCED_FACE('',(#169),#106,.F.);
#1121=ADVANCED_FACE('',(#170),#107,.F.);
#1122=ADVANCED_FACE('',(#171),#108,.F.);
#1123=ADVANCED_FACE('',(#172),#109,.F.);
#1124=ADVANCED_FACE('',(#173),#110,.F.);
#1125=ADVANCED_FACE('',(#174),#111,.F.);
#1126=ADVANCED_FACE('',(#175,#74),#112,.T.);
#1127=ADVANCED_FACE('',(#176),#1064,.T.);
#1128=ADVANCED_FACE('',(#177),#1065,.F.);
#1129=ADVANCED_FACE('',(#178,#75),#113,.T.);
#1130=ADVANCED_FACE('',(#179,#76),#114,.T.);
#1131=ADVANCED_FACE('',(#180),#1066,.T.);
#1132=ADVANCED_FACE('',(#181),#115,.F.);
#1133=CLOSED_SHELL('',(#1067,#1068,#1069,#1070,#1071,#1072,#1073,#1074,
#1075,#1076,#1077,#1078,#1079,#1080,#1081,#1082,#1083,#1084,#1085,#1086,
#1087,#1088,#1089,#1090,#1091));
#1134=CLOSED_SHELL('',(#1092,#1093,#1094,#1095,#1096,#1097,#1098,#1099,
#1100,#1101,#1102));
#1135=CLOSED_SHELL('',(#1103,#1104,#1105));
#1136=CLOSED_SHELL('',(#1106,#1107,#1108,#1109,#1110,#1111,#1112,#1113,
#1114,#1115,#1116,#1117,#1118));
#1137=CLOSED_SHELL('',(#1119,#1120,#1121,#1122,#1123,#1124,#1125,#1126,
#1127,#1128,#1129,#1130,#1131,#1132));
#1138=DERIVED_UNIT_ELEMENT(#1146,1.);
#1139=DERIVED_UNIT_ELEMENT(#1992,-3.);
#1140=DERIVED_UNIT_ELEMENT(#1146,1.);
#1141=DERIVED_UNIT_ELEMENT(#1992,-3.);
#1142=DERIVED_UNIT_ELEMENT(#1146,1.);
#1143=DERIVED_UNIT_ELEMENT(#1992,-3.);
#1144=DERIVED_UNIT_ELEMENT(#1146,1.);
#1145=DERIVED_UNIT_ELEMENT(#1992,-3.);
#1146=(
MASS_UNIT()
NAMED_UNIT(*)
SI_UNIT(.KILO.,.GRAM.)
);
#1147=DERIVED_UNIT((#1138,#1139));
#1148=DERIVED_UNIT((#1140,#1141));
#1149=DERIVED_UNIT((#1142,#1143));
#1150=DERIVED_UNIT((#1144,#1145));
#1151=MEASURE_REPRESENTATION_ITEM('density measure',
POSITIVE_RATIO_MEASURE(7850.),#1147);
#1152=MEASURE_REPRESENTATION_ITEM('density measure',
POSITIVE_RATIO_MEASURE(7850.),#1148);
#1153=MEASURE_REPRESENTATION_ITEM('density measure',
POSITIVE_RATIO_MEASURE(7850.),#1149);
#1154=MEASURE_REPRESENTATION_ITEM('density measure',
POSITIVE_RATIO_MEASURE(7850.),#1150);
#1155=PROPERTY_DEFINITION_REPRESENTATION(#1175,#1163);
#1156=PROPERTY_DEFINITION_REPRESENTATION(#1176,#1164);
#1157=PROPERTY_DEFINITION_REPRESENTATION(#1177,#1165);
#1158=PROPERTY_DEFINITION_REPRESENTATION(#1178,#1166);
#1159=PROPERTY_DEFINITION_REPRESENTATION(#1179,#1167);
#1160=PROPERTY_DEFINITION_REPRESENTATION(#1180,#1168);
#1161=PROPERTY_DEFINITION_REPRESENTATION(#1181,#1169);
#1162=PROPERTY_DEFINITION_REPRESENTATION(#1182,#1170);
#1163=REPRESENTATION('material name',(#1171),#1986);
#1164=REPRESENTATION('density',(#1151),#1986);
#1165=REPRESENTATION('material name',(#1172),#1987);
#1166=REPRESENTATION('density',(#1152),#1987);
#1167=REPRESENTATION('material name',(#1173),#1988);
#1168=REPRESENTATION('density',(#1153),#1988);
#1169=REPRESENTATION('material name',(#1174),#1989);
#1170=REPRESENTATION('density',(#1154),#1989);
#1171=DESCRIPTIVE_REPRESENTATION_ITEM('\X2\94A2\X0\','\X2\94A2\X0\');
#1172=DESCRIPTIVE_REPRESENTATION_ITEM('\X2\94A2\X0\','\X2\94A2\X0\');
#1173=DESCRIPTIVE_REPRESENTATION_ITEM('\X2\94A2\X0\','\X2\94A2\X0\');
#1174=DESCRIPTIVE_REPRESENTATION_ITEM('\X2\94A2\X0\','\X2\94A2\X0\');
#1175=PROPERTY_DEFINITION('material property','material name',#2016);
#1176=PROPERTY_DEFINITION('material property','density of part',#2016);
#1177=PROPERTY_DEFINITION('material property','material name',#2017);
#1178=PROPERTY_DEFINITION('material property','density of part',#2017);
#1179=PROPERTY_DEFINITION('material property','material name',#2018);
#1180=PROPERTY_DEFINITION('material property','density of part',#2018);
#1181=PROPERTY_DEFINITION('material property','material name',#2019);
#1182=PROPERTY_DEFINITION('material property','density of part',#2019);
#1183=AXIS2_PLACEMENT_3D('',#1664,#1314,#1315);
#1184=AXIS2_PLACEMENT_3D('',#1665,#1316,#1317);
#1185=AXIS2_PLACEMENT_3D('',#1666,#1318,#1319);
#1186=AXIS2_PLACEMENT_3D('',#1669,#1320,#1321);
#1187=AXIS2_PLACEMENT_3D('',#1673,#1323,#1324);
#1188=AXIS2_PLACEMENT_3D('',#1675,#1326,#1327);
#1189=AXIS2_PLACEMENT_3D('',#1687,#1334,#1335);
#1190=AXIS2_PLACEMENT_3D('',#1690,#1337,#1338);
#1191=AXIS2_PLACEMENT_3D('',#1692,#1339,#1340);
#1192=AXIS2_PLACEMENT_3D('',#1694,#1341,#1342);
#1193=AXIS2_PLACEMENT_3D('',#1696,#1343,#1344);
#1194=AXIS2_PLACEMENT_3D('',#1699,#1345,#1346);
#1195=AXIS2_PLACEMENT_3D('',#1703,#1348,#1349);
#1196=AXIS2_PLACEMENT_3D('',#1706,#1351,#1352);
#1197=AXIS2_PLACEMENT_3D('',#1708,#1353,#1354);
#1198=AXIS2_PLACEMENT_3D('',#1710,#1355,#1356);
#1199=AXIS2_PLACEMENT_3D('',#1711,#1357,#1358);
#1200=AXIS2_PLACEMENT_3D('',#1713,#1359,#1360);
#1201=AXIS2_PLACEMENT_3D('',#1716,#1362,#1363);
#1202=AXIS2_PLACEMENT_3D('',#1717,#1364,#1365);
#1203=AXIS2_PLACEMENT_3D('',#1719,#1366,#1367);
#1204=AXIS2_PLACEMENT_3D('',#1722,#1369,#1370);
#1205=AXIS2_PLACEMENT_3D('',#1723,#1371,#1372);
#1206=AXIS2_PLACEMENT_3D('',#1725,#1373,#1374);
#1207=AXIS2_PLACEMENT_3D('',#1728,#1376,#1377);
#1208=AXIS2_PLACEMENT_3D('',#1729,#1378,#1379);
#1209=AXIS2_PLACEMENT_3D('',#1731,#1380,#1381);
#1210=AXIS2_PLACEMENT_3D('',#1734,#1383,#1384);
#1211=AXIS2_PLACEMENT_3D('',#1735,#1385,#1386);
#1212=AXIS2_PLACEMENT_3D('',#1737,#1387,#1388);
#1213=AXIS2_PLACEMENT_3D('',#1739,#1390,#1391);
#1214=AXIS2_PLACEMENT_3D('',#1741,#1392,#1393);
#1215=AXIS2_PLACEMENT_3D('',#1743,#1395,#1396);
#1216=AXIS2_PLACEMENT_3D('',#1745,#1397,#1398);
#1217=AXIS2_PLACEMENT_3D('',#1747,#1400,#1401);
#1218=AXIS2_PLACEMENT_3D('',#1753,#1405,#1406);
#1219=AXIS2_PLACEMENT_3D('',#1755,#1407,#1408);
#1220=AXIS2_PLACEMENT_3D('',#1757,#1410,#1411);
#1221=AXIS2_PLACEMENT_3D('',#1761,#1414,#1415);
#1222=AXIS2_PLACEMENT_3D('',#1762,#1416,#1417);
#1223=AXIS2_PLACEMENT_3D('',#1763,#1418,#1419);
#1224=AXIS2_PLACEMENT_3D('',#1765,#1420,#1421);
#1225=AXIS2_PLACEMENT_3D('',#1767,#1423,#1424);
#1226=AXIS2_PLACEMENT_3D('',#1769,#1425,#1426);
#1227=AXIS2_PLACEMENT_3D('',#1771,#1428,#1429);
#1228=AXIS2_PLACEMENT_3D('',#1773,#1430,#1431);
#1229=AXIS2_PLACEMENT_3D('',#1775,#1433,#1434);
#1230=AXIS2_PLACEMENT_3D('',#1777,#1435,#1436);
#1231=AXIS2_PLACEMENT_3D('',#1779,#1438,#1439);
#1232=AXIS2_PLACEMENT_3D('',#1783,#1442,#1443);
#1233=AXIS2_PLACEMENT_3D('',#1792,#1448,#1449);
#1234=AXIS2_PLACEMENT_3D('',#1794,#1450,#1451);
#1235=AXIS2_PLACEMENT_3D('',#1796,#1452,#1453);
#1236=AXIS2_PLACEMENT_3D('',#1798,#1455,#1456);
#1237=AXIS2_PLACEMENT_3D('',#1801,#1459,#1460);
#1238=AXIS2_PLACEMENT_3D('',#1802,#1461,#1462);
#1239=AXIS2_PLACEMENT_3D('',#1803,#1463,#1464);
#1240=AXIS2_PLACEMENT_3D('',#1804,#1465,#1466);
#1241=AXIS2_PLACEMENT_3D('',#1805,#1467,#1468);
#1242=AXIS2_PLACEMENT_3D('',#1806,#1469,#1470);
#1243=AXIS2_PLACEMENT_3D('',#1807,#1471,#1472);
#1244=AXIS2_PLACEMENT_3D('',#1811,#1474,#1475);
#1245=AXIS2_PLACEMENT_3D('',#1812,#1476,#1477);
#1246=AXIS2_PLACEMENT_3D('',#1814,#1478,#1479);
#1247=AXIS2_PLACEMENT_3D('',#1816,#1480,#1481);
#1248=AXIS2_PLACEMENT_3D('',#1817,#1482,#1483);
#1249=AXIS2_PLACEMENT_3D('',#1821,#1485,#1486);
#1250=AXIS2_PLACEMENT_3D('',#1824,#1488,#1489);
#1251=AXIS2_PLACEMENT_3D('',#1826,#1491,#1492);
#1252=AXIS2_PLACEMENT_3D('',#1828,#1494,#1495);
#1253=AXIS2_PLACEMENT_3D('',#1829,#1496,#1497);
#1254=AXIS2_PLACEMENT_3D('',#1832,#1499,#1500);
#1255=AXIS2_PLACEMENT_3D('',#1833,#1501,#1502);
#1256=AXIS2_PLACEMENT_3D('',#1835,#1503,#1504);
#1257=AXIS2_PLACEMENT_3D('',#1836,#1505,#1506);
#1258=AXIS2_PLACEMENT_3D('',#1838,#1507,#1508);
#1259=AXIS2_PLACEMENT_3D('',#1841,#1510,#1511);
#1260=AXIS2_PLACEMENT_3D('',#1842,#1512,#1513);
#1261=AXIS2_PLACEMENT_3D('',#1843,#1514,#1515);
#1262=AXIS2_PLACEMENT_3D('',#1845,#1516,#1517);
#1263=AXIS2_PLACEMENT_3D('',#1847,#1519,#1520);
#1264=AXIS2_PLACEMENT_3D('',#1848,#1521,#1522);
#1265=AXIS2_PLACEMENT_3D('',#1850,#1523,#1524);
#1266=AXIS2_PLACEMENT_3D('',#1853,#1526,#1527);
#1267=AXIS2_PLACEMENT_3D('',#1854,#1528,#1529);
#1268=AXIS2_PLACEMENT_3D('',#1855,#1530,#1531);
#1269=AXIS2_PLACEMENT_3D('',#1856,#1532,#1533);
#1270=AXIS2_PLACEMENT_3D('',#1857,#1534,#1535);
#1271=AXIS2_PLACEMENT_3D('',#1859,#1536,#1537);
#1272=AXIS2_PLACEMENT_3D('',#1862,#1539,#1540);
#1273=AXIS2_PLACEMENT_3D('',#1863,#1541,#1542);
#1274=AXIS2_PLACEMENT_3D('',#1865,#1543,#1544);
#1275=AXIS2_PLACEMENT_3D('',#1866,#1545,#1546);
#1276=AXIS2_PLACEMENT_3D('',#1868,#1547,#1548);
#1277=AXIS2_PLACEMENT_3D('',#1870,#1550,#1551);
#1278=AXIS2_PLACEMENT_3D('',#1879,#1556,#1557);
#1279=AXIS2_PLACEMENT_3D('',#1885,#1561,#1562);
#1280=AXIS2_PLACEMENT_3D('',#1891,#1566,#1567);
#1281=AXIS2_PLACEMENT_3D('',#1897,#1571,#1572);
#1282=AXIS2_PLACEMENT_3D('',#1903,#1576,#1577);
#1283=AXIS2_PLACEMENT_3D('',#1906,#1580,#1581);
#1284=AXIS2_PLACEMENT_3D('',#1907,#1582,#1583);
#1285=AXIS2_PLACEMENT_3D('',#1909,#1584,#1585);
#1286=AXIS2_PLACEMENT_3D('',#1912,#1587,#1588);
#1287=AXIS2_PLACEMENT_3D('',#1913,#1589,#1590);
#1288=AXIS2_PLACEMENT_3D('',#1914,#1591,#1592);
#1289=AXIS2_PLACEMENT_3D('',#1915,#1593,#1594);
#1290=AXIS2_PLACEMENT_3D('',#1916,#1595,#1596);
#1291=AXIS2_PLACEMENT_3D('',#1925,#1601,#1602);
#1292=AXIS2_PLACEMENT_3D('',#1931,#1606,#1607);
#1293=AXIS2_PLACEMENT_3D('',#1937,#1611,#1612);
#1294=AXIS2_PLACEMENT_3D('',#1943,#1616,#1617);
#1295=AXIS2_PLACEMENT_3D('',#1949,#1621,#1622);
#1296=AXIS2_PLACEMENT_3D('',#1952,#1625,#1626);
#1297=AXIS2_PLACEMENT_3D('',#1953,#1627,#1628);
#1298=AXIS2_PLACEMENT_3D('',#1955,#1629,#1630);
#1299=AXIS2_PLACEMENT_3D('',#1956,#1631,#1632);
#1300=AXIS2_PLACEMENT_3D('',#1959,#1634,#1635);
#1301=AXIS2_PLACEMENT_3D('',#1960,#1636,#1637);
#1302=AXIS2_PLACEMENT_3D('',#1962,#1638,#1639);
#1303=AXIS2_PLACEMENT_3D('',#1965,#1641,#1642);
#1304=AXIS2_PLACEMENT_3D('',#1966,#1643,#1644);
#1305=AXIS2_PLACEMENT_3D('',#1967,#1645,#1646);
#1306=AXIS2_PLACEMENT_3D('',#1969,#1647,#1648);
#1307=AXIS2_PLACEMENT_3D('',#1970,#1649,#1650);
#1308=AXIS2_PLACEMENT_3D('',#1972,#1651,#1652);
#1309=AXIS2_PLACEMENT_3D('',#1974,#1654,#1655);
#1310=AXIS2_PLACEMENT_3D('',#1975,#1656,#1657);
#1311=AXIS2_PLACEMENT_3D('',#1976,#1658,#1659);
#1312=AXIS2_PLACEMENT_3D('',#1977,#1660,#1661);
#1313=AXIS2_PLACEMENT_3D('',#1978,#1662,#1663);
#1314=DIRECTION('axis',(0.,0.,1.));
#1315=DIRECTION('refdir',(1.,0.,0.));
#1316=DIRECTION('axis',(0.,0.,1.));
#1317=DIRECTION('refdir',(1.,0.,0.));
#1318=DIRECTION('center_axis',(0.,0.,1.));
#1319=DIRECTION('ref_axis',(-0.707106781186547,-0.707106781186547,0.));
#1320=DIRECTION('center_axis',(0.,0.,-1.));
#1321=DIRECTION('ref_axis',(-0.707106781186547,-0.707106781186547,0.));
#1322=DIRECTION('',(0.,0.,-1.));
#1323=DIRECTION('center_axis',(1.22002530178589E-16,0.,1.));
#1324=DIRECTION('ref_axis',(-0.707106781186547,-0.707106781186547,8.62688164111967E-17));
#1325=DIRECTION('',(0.,0.,1.));
#1326=DIRECTION('center_axis',(-1.22002530178589E-16,0.,-1.));
#1327=DIRECTION('ref_axis',(-1.,0.,1.22002530178589E-16));
#1328=DIRECTION('',(0.,-1.,0.));
#1329=DIRECTION('',(-1.,0.,0.));
#1330=DIRECTION('',(0.,1.,0.));
#1331=DIRECTION('',(-1.,0.,1.22002530178589E-16));
#1332=DIRECTION('',(0.,1.,0.));
#1333=DIRECTION('',(-1.,0.,1.22002530178589E-16));
#1334=DIRECTION('center_axis',(1.,0.,0.));
#1335=DIRECTION('ref_axis',(0.,0.,-1.));
#1336=DIRECTION('',(0.,1.,0.));
#1337=DIRECTION('center_axis',(-1.,0.,0.));
#1338=DIRECTION('ref_axis',(0.,0.,-1.));
#1339=DIRECTION('center_axis',(1.,0.,0.));
#1340=DIRECTION('ref_axis',(0.,0.,-1.));
#1341=DIRECTION('center_axis',(1.,0.,0.));
#1342=DIRECTION('ref_axis',(0.,0.,-1.));
#1343=DIRECTION('center_axis',(1.,0.,0.));
#1344=DIRECTION('ref_axis',(0.,0.,-1.));
#1345=DIRECTION('center_axis',(1.,0.,0.));
#1346=DIRECTION('ref_axis',(0.,9.84210661687047E-9,-1.));
#1347=DIRECTION('',(0.,-1.,8.75490158385759E-14));
#1348=DIRECTION('center_axis',(1.,0.,0.));
#1349=DIRECTION('ref_axis',(0.,1.82629706229727E-9,1.));
#1350=DIRECTION('',(0.,1.,-1.20855705337265E-13));
#1351=DIRECTION('center_axis',(1.,0.,0.));
#1352=DIRECTION('ref_axis',(0.,0.,-1.));
#1353=DIRECTION('center_axis',(1.,0.,0.));
#1354=DIRECTION('ref_axis',(0.,0.,-1.));
#1355=DIRECTION('center_axis',(1.,0.,0.));
#1356=DIRECTION('ref_axis',(0.,0.,-1.));
#1357=DIRECTION('center_axis',(0.,-1.,0.));
#1358=DIRECTION('ref_axis',(-1.,0.,0.));
#1359=DIRECTION('center_axis',(0.,-1.,0.));
#1360=DIRECTION('ref_axis',(-1.,0.,0.));
#1361=DIRECTION('',(0.,-1.,0.));
#1362=DIRECTION('center_axis',(0.,1.,0.));
#1363=DIRECTION('ref_axis',(-1.,0.,0.));
#1364=DIRECTION('center_axis',(0.,-1.,0.));
#1365=DIRECTION('ref_axis',(-1.,0.,0.));
#1366=DIRECTION('center_axis',(0.,-1.,0.));
#1367=DIRECTION('ref_axis',(-1.,0.,0.));
#1368=DIRECTION('',(0.,-1.,0.));
#1369=DIRECTION('center_axis',(0.,1.,0.));
#1370=DIRECTION('ref_axis',(-1.,0.,0.));
#1371=DIRECTION('center_axis',(0.,-1.,0.));
#1372=DIRECTION('ref_axis',(-1.,0.,0.));
#1373=DIRECTION('center_axis',(0.,-1.,0.));
#1374=DIRECTION('ref_axis',(-1.,0.,0.));
#1375=DIRECTION('',(0.,-1.,0.));
#1376=DIRECTION('center_axis',(0.,1.,0.));
#1377=DIRECTION('ref_axis',(-1.,0.,0.));
#1378=DIRECTION('center_axis',(0.,-1.,0.));
#1379=DIRECTION('ref_axis',(-1.,0.,0.));
#1380=DIRECTION('center_axis',(0.,-1.,0.));
#1381=DIRECTION('ref_axis',(-1.,0.,0.));
#1382=DIRECTION('',(0.,-1.,0.));
#1383=DIRECTION('center_axis',(0.,1.,0.));
#1384=DIRECTION('ref_axis',(-1.,0.,0.));
#1385=DIRECTION('center_axis',(-1.,0.,0.));
#1386=DIRECTION('ref_axis',(0.,0.,-1.));
#1387=DIRECTION('center_axis',(-1.,0.,0.));
#1388=DIRECTION('ref_axis',(0.,0.,-1.));
#1389=DIRECTION('',(-1.,0.,0.));
#1390=DIRECTION('center_axis',(-1.,0.,0.));
#1391=DIRECTION('ref_axis',(0.,0.,-1.));
#1392=DIRECTION('center_axis',(-1.,0.,0.));
#1393=DIRECTION('ref_axis',(0.,0.,-1.));
#1394=DIRECTION('',(-1.,0.,0.));
#1395=DIRECTION('center_axis',(-1.,0.,0.));
#1396=DIRECTION('ref_axis',(0.,0.,-1.));
#1397=DIRECTION('center_axis',(-1.,0.,0.));
#1398=DIRECTION('ref_axis',(0.,0.,-1.));
#1399=DIRECTION('',(-1.,0.,0.));
#1400=DIRECTION('center_axis',(0.,1.20855705337265E-13,1.));
#1401=DIRECTION('ref_axis',(0.,1.,-1.20855705337265E-13));
#1402=DIRECTION('',(0.,-1.,1.20855705337265E-13));
#1403=DIRECTION('',(-1.,0.,0.));
#1404=DIRECTION('',(-1.,0.,0.));
#1405=DIRECTION('center_axis',(-1.,0.,0.));
#1406=DIRECTION('ref_axis',(0.,1.82629706229727E-9,1.));
#1407=DIRECTION('center_axis',(-1.,0.,0.));
#1408=DIRECTION('ref_axis',(0.,1.82629706229727E-9,1.));
#1409=DIRECTION('',(-1.,0.,0.));
#1410=DIRECTION('center_axis',(0.,-8.75490158385759E-14,-1.));
#1411=DIRECTION('ref_axis',(0.,-1.,8.75490158385759E-14));
#1412=DIRECTION('',(0.,1.,-8.75490158385759E-14));
#1413=DIRECTION('',(-1.,0.,0.));
#1414=DIRECTION('center_axis',(-1.,0.,0.));
#1415=DIRECTION('ref_axis',(0.,9.84210661687047E-9,-1.));
#1416=DIRECTION('center_axis',(-1.,0.,0.));
#1417=DIRECTION('ref_axis',(0.,9.84210661687047E-9,-1.));
#1418=DIRECTION('center_axis',(-1.,0.,0.));
#1419=DIRECTION('ref_axis',(0.,0.,-1.));
#1420=DIRECTION('center_axis',(-1.,0.,0.));
#1421=DIRECTION('ref_axis',(0.,0.,-1.));
#1422=DIRECTION('',(-1.,0.,0.));
#1423=DIRECTION('center_axis',(-1.,0.,0.));
#1424=DIRECTION('ref_axis',(0.,0.,-1.));
#1425=DIRECTION('center_axis',(-1.,0.,0.));
#1426=DIRECTION('ref_axis',(0.,0.,-1.));
#1427=DIRECTION('',(-1.,0.,0.));
#1428=DIRECTION('center_axis',(-1.,0.,0.));
#1429=DIRECTION('ref_axis',(0.,0.,-1.));
#1430=DIRECTION('center_axis',(-1.,0.,0.));
#1431=DIRECTION('ref_axis',(0.,0.,-1.));
#1432=DIRECTION('',(-1.,0.,0.));
#1433=DIRECTION('center_axis',(-1.,0.,0.));
#1434=DIRECTION('ref_axis',(0.,0.,-1.));
#1435=DIRECTION('center_axis',(1.,0.,0.));
#1436=DIRECTION('ref_axis',(0.,0.,-1.));
#1437=DIRECTION('',(-1.,0.,0.));
#1438=DIRECTION('center_axis',(1.,0.,0.));
#1439=DIRECTION('ref_axis',(0.,0.,-1.));
#1440=DIRECTION('',(0.,0.,1.));
#1441=DIRECTION('',(0.,-1.,0.));
#1442=DIRECTION('center_axis',(1.,0.,0.));
#1443=DIRECTION('ref_axis',(0.,0.,-1.));
#1444=DIRECTION('',(0.,0.,-1.));
#1445=DIRECTION('',(0.,1.,0.));
#1446=DIRECTION('',(0.,0.,-1.));
#1447=DIRECTION('',(0.,1.,0.));
#1448=DIRECTION('center_axis',(0.,1.,0.));
#1449=DIRECTION('ref_axis',(0.,0.,1.));
#1450=DIRECTION('center_axis',(0.,1.,0.));
#1451=DIRECTION('ref_axis',(0.,0.,1.));
#1452=DIRECTION('center_axis',(0.,1.,0.));
#1453=DIRECTION('ref_axis',(0.,0.,1.));
#1454=DIRECTION('',(0.,1.,0.));
#1455=DIRECTION('center_axis',(0.,0.,1.));
#1456=DIRECTION('ref_axis',(1.,0.,0.));
#1457=DIRECTION('',(-1.,0.,0.));
#1458=DIRECTION('',(1.,0.,0.));
#1459=DIRECTION('center_axis',(0.,1.,0.));
#1460=DIRECTION('ref_axis',(1.,0.,0.));
#1461=DIRECTION('center_axis',(0.,1.,0.));
#1462=DIRECTION('ref_axis',(1.,0.,0.));
#1463=DIRECTION('center_axis',(0.,1.,0.));
#1464=DIRECTION('ref_axis',(1.,0.,0.));
#1465=DIRECTION('center_axis',(0.,1.,0.));
#1466=DIRECTION('ref_axis',(1.,0.,0.));
#1467=DIRECTION('center_axis',(0.,1.,0.));
#1468=DIRECTION('ref_axis',(1.,0.,0.));
#1469=DIRECTION('axis',(0.,0.,1.));
#1470=DIRECTION('refdir',(1.,0.,0.));
#1471=DIRECTION('center_axis',(0.,-1.,0.));
#1472=DIRECTION('ref_axis',(1.,0.,0.));
#1473=DIRECTION('',(1.,0.,-3.34744836935922E-16));
#1474=DIRECTION('center_axis',(0.,-1.,0.));
#1475=DIRECTION('ref_axis',(1.,0.,0.));
#1476=DIRECTION('center_axis',(0.,-1.,0.));
#1477=DIRECTION('ref_axis',(1.,0.,0.));
#1478=DIRECTION('center_axis',(0.,-1.,0.));
#1479=DIRECTION('ref_axis',(1.,0.,0.));
#1480=DIRECTION('center_axis',(0.,1.,0.));
#1481=DIRECTION('ref_axis',(1.,0.,0.));
#1482=DIRECTION('center_axis',(0.,-1.,2.11471052309554E-16));
#1483=DIRECTION('ref_axis',(0.552770798392567,-1.76225876924628E-16,-0.833333333333333));
#1484=DIRECTION('',(0.,-1.,2.11471052309554E-16));
#1485=DIRECTION('center_axis',(0.,-1.,2.22044604925031E-16));
#1486=DIRECTION('ref_axis',(0.552770798392567,0.,-0.833333333333333));
#1487=DIRECTION('',(0.,1.,-2.11471052309554E-16));
#1488=DIRECTION('center_axis',(0.,-1.,2.22044604925031E-16));
#1489=DIRECTION('ref_axis',(0.552770798392567,0.,-0.833333333333333));
#1490=DIRECTION('',(0.,-1.,2.11471052309554E-16));
#1491=DIRECTION('center_axis',(-3.34744836935922E-16,-2.11471052309554E-16,
-1.));
#1492=DIRECTION('ref_axis',(1.,-7.43282850681308E-32,-3.34744836935922E-16));
#1493=DIRECTION('',(1.,-7.43282850681308E-32,-3.34744836935922E-16));
#1494=DIRECTION('center_axis',(0.,-1.,2.22044604925031E-16));
#1495=DIRECTION('ref_axis',(-1.,0.,0.));
#1496=DIRECTION('center_axis',(0.,-1.,0.));
#1497=DIRECTION('ref_axis',(1.,0.,0.));
#1498=DIRECTION('',(0.,1.,0.));
#1499=DIRECTION('center_axis',(0.,1.,-2.22044604925031E-16));
#1500=DIRECTION('ref_axis',(1.,0.,0.));
#1501=DIRECTION('center_axis',(0.,-1.,2.22044604925031E-16));
#1502=DIRECTION('ref_axis',(-1.,0.,0.));
#1503=DIRECTION('center_axis',(0.,-1.,2.22044604925031E-16));
#1504=DIRECTION('ref_axis',(1.,0.,0.));
#1505=DIRECTION('center_axis',(0.,1.,-2.22044604925031E-16));
#1506=DIRECTION('ref_axis',(1.,0.,0.));
#1507=DIRECTION('center_axis',(0.,1.,-2.22044604925031E-16));
#1508=DIRECTION('ref_axis',(1.,0.,0.));
#1509=DIRECTION('',(0.,-1.,2.22044604925031E-16));
#1510=DIRECTION('center_axis',(0.,-1.,2.22044604925031E-16));
#1511=DIRECTION('ref_axis',(1.,0.,0.));
#1512=DIRECTION('center_axis',(0.,1.,-2.22044604925031E-16));
#1513=DIRECTION('ref_axis',(1.,0.,0.));
#1514=DIRECTION('center_axis',(0.,1.,-2.22044604925031E-16));
#1515=DIRECTION('ref_axis',(1.,0.,0.));
#1516=DIRECTION('center_axis',(0.,1.,-2.22044604925031E-16));
#1517=DIRECTION('ref_axis',(1.,0.,0.));
#1518=DIRECTION('',(0.,-1.,2.22044604925031E-16));
#1519=DIRECTION('center_axis',(0.,1.,-2.22044604925031E-16));
#1520=DIRECTION('ref_axis',(1.,0.,0.));
#1521=DIRECTION('center_axis',(0.,1.,-2.22044604925031E-16));
#1522=DIRECTION('ref_axis',(1.,0.,0.));
#1523=DIRECTION('center_axis',(0.,1.,-2.22044604925031E-16));
#1524=DIRECTION('ref_axis',(1.,0.,0.));
#1525=DIRECTION('',(0.,-1.,2.22044604925031E-16));
#1526=DIRECTION('center_axis',(0.,-1.,2.22044604925031E-16));
#1527=DIRECTION('ref_axis',(1.,0.,0.));
#1528=DIRECTION('center_axis',(0.,-1.,2.22044604925031E-16));
#1529=DIRECTION('ref_axis',(-1.,0.,0.));
#1530=DIRECTION('center_axis',(0.,1.,-2.22044604925031E-16));
#1531=DIRECTION('ref_axis',(1.,0.,0.));
#1532=DIRECTION('axis',(0.,0.,1.));
#1533=DIRECTION('refdir',(1.,0.,0.));
#1534=DIRECTION('center_axis',(0.,-1.,2.22044604925031E-16));
#1535=DIRECTION('ref_axis',(0.,-2.22044604925031E-16,-1.));
#1536=DIRECTION('center_axis',(0.,1.,-2.22044604925031E-16));
#1537=DIRECTION('ref_axis',(0.,-2.22044604925031E-16,-1.));
#1538=DIRECTION('',(0.,-1.,2.22044604925031E-16));
#1539=DIRECTION('center_axis',(0.,1.,-2.22044604925031E-16));
#1540=DIRECTION('ref_axis',(0.,-2.22044604925031E-16,-1.));
#1541=DIRECTION('center_axis',(0.,1.,-2.22044604925031E-16));
#1542=DIRECTION('ref_axis',(0.,2.22044604925031E-16,1.));
#1543=DIRECTION('center_axis',(0.,-1.,2.22044604925031E-16));
#1544=DIRECTION('ref_axis',(0.,-2.22044604925031E-16,-1.));
#1545=DIRECTION('center_axis',(0.,-1.,2.22044604925031E-16));
#1546=DIRECTION('ref_axis',(0.,-2.22044604925031E-16,-1.));
#1547=DIRECTION('center_axis',(0.,-1.,0.));
#1548=DIRECTION('ref_axis',(0.,-2.22044604925031E-16,-1.));
#1549=DIRECTION('',(0.,-1.,2.22044604925031E-16));
#1550=DIRECTION('center_axis',(-0.866025403782826,0.,-0.500000000002794));
#1551=DIRECTION('ref_axis',(-0.500000000002794,0.,0.866025403782825));
#1552=DIRECTION('',(0.500000000002794,-1.92296268637998E-16,-0.866025403782825));
#1553=DIRECTION('',(0.,1.,0.));
#1554=DIRECTION('',(-0.500000000002794,0.,0.866025403782825));
#1555=DIRECTION('',(0.,1.,0.));
#1556=DIRECTION('center_axis',(1.60246890531803E-16,0.,-1.));
#1557=DIRECTION('ref_axis',(-1.,0.,-1.60246890531803E-16));
#1558=DIRECTION('',(1.,3.5581957498599E-32,1.60246890531803E-16));
#1559=DIRECTION('',(-1.,0.,-1.60246890531803E-16));
#1560=DIRECTION('',(0.,1.,0.));
#1561=DIRECTION('center_axis',(0.866025403784315,0.,-0.500000000000214));
#1562=DIRECTION('ref_axis',(-0.500000000000214,0.,-0.866025403784315));
#1563=DIRECTION('',(0.500000000000214,1.92296268638329E-16,0.866025403784315));
#1564=DIRECTION('',(-0.500000000000214,0.,-0.866025403784315));
#1565=DIRECTION('',(0.,1.,0.));
#1566=DIRECTION('center_axis',(0.866025403782826,0.,0.500000000002793));
#1567=DIRECTION('ref_axis',(0.500000000002793,0.,-0.866025403782826));
#1568=DIRECTION('',(-0.500000000002793,1.92296268637998E-16,0.866025403782826));
#1569=DIRECTION('',(0.500000000002793,0.,-0.866025403782826));
#1570=DIRECTION('',(0.,1.,0.));
#1571=DIRECTION('center_axis',(-6.40987562127212E-16,0.,1.));
#1572=DIRECTION('ref_axis',(1.,0.,6.40987562127212E-16));
#1573=DIRECTION('',(-1.,-1.42327829994396E-31,-6.40987562127212E-16));
#1574=DIRECTION('',(1.,0.,6.40987562127212E-16));
#1575=DIRECTION('',(0.,1.,0.));
#1576=DIRECTION('center_axis',(-0.866025403784315,0.,0.500000000000215));
#1577=DIRECTION('ref_axis',(0.500000000000215,0.,0.866025403784315));
#1578=DIRECTION('',(-0.500000000000215,-1.92296268638329E-16,-0.866025403784315));
#1579=DIRECTION('',(0.500000000000215,0.,0.866025403784315));
#1580=DIRECTION('center_axis',(0.,1.,0.));
#1581=DIRECTION('ref_axis',(0.,0.,1.));
#1582=DIRECTION('center_axis',(0.,1.,-2.22044604925031E-16));
#1583=DIRECTION('ref_axis',(1.,0.,0.));
#1584=DIRECTION('center_axis',(0.,1.,-2.22044604925031E-16));
#1585=DIRECTION('ref_axis',(1.,0.,0.));
#1586=DIRECTION('',(0.,-1.,2.22044604925031E-16));
#1587=DIRECTION('center_axis',(0.,-1.,2.22044604925031E-16));
#1588=DIRECTION('ref_axis',(1.,0.,0.));
#1589=DIRECTION('center_axis',(0.,-1.,2.22044604925031E-16));
#1590=DIRECTION('ref_axis',(-1.,0.,0.));
#1591=DIRECTION('center_axis',(0.,1.,-2.22044604925031E-16));
#1592=DIRECTION('ref_axis',(1.,0.,0.));
#1593=DIRECTION('axis',(0.,0.,1.));
#1594=DIRECTION('refdir',(1.,0.,0.));
#1595=DIRECTION('center_axis',(1.92296268638356E-15,0.,-1.));
#1596=DIRECTION('ref_axis',(1.,0.,1.92296268638356E-15));
#1597=DIRECTION('',(1.,0.,1.92296268638356E-15));
#1598=DIRECTION('',(0.,-1.,0.));
#1599=DIRECTION('',(1.,0.,1.92296268638356E-15));
#1600=DIRECTION('',(0.,-1.,0.));
#1601=DIRECTION('center_axis',(0.866025403784439,0.,-0.5));
#1602=DIRECTION('ref_axis',(0.5,0.,0.866025403784439));
#1603=DIRECTION('',(0.5,0.,0.866025403784439));
#1604=DIRECTION('',(0.5,0.,0.866025403784439));
#1605=DIRECTION('',(0.,-1.,0.));
#1606=DIRECTION('center_axis',(0.866025403784438,0.,0.500000000000001));
#1607=DIRECTION('ref_axis',(-0.500000000000001,0.,0.866025403784438));
#1608=DIRECTION('',(-0.500000000000001,0.,0.866025403784438));
#1609=DIRECTION('',(-0.500000000000001,0.,0.866025403784438));
#1610=DIRECTION('',(0.,-1.,0.));
#1611=DIRECTION('center_axis',(-4.80740671595891E-16,0.,1.));
#1612=DIRECTION('ref_axis',(-1.,0.,-4.80740671595891E-16));
#1613=DIRECTION('',(-1.,0.,-4.80740671595891E-16));
#1614=DIRECTION('',(-1.,0.,-4.80740671595891E-16));
#1615=DIRECTION('',(0.,-1.,0.));
#1616=DIRECTION('center_axis',(-0.866025403784439,0.,-0.5));
#1617=DIRECTION('ref_axis',(0.5,0.,-0.866025403784439));
#1618=DIRECTION('',(0.5,0.,-0.866025403784439));
#1619=DIRECTION('',(0.,-1.,0.));
#1620=DIRECTION('',(0.5,0.,-0.866025403784439));
#1621=DIRECTION('center_axis',(-0.866025403784439,0.,0.499999999999999));
#1622=DIRECTION('ref_axis',(-0.499999999999999,0.,-0.866025403784439));
#1623=DIRECTION('',(-0.499999999999999,0.,-0.866025403784439));
#1624=DIRECTION('',(-0.499999999999999,0.,-0.866025403784439));
#1625=DIRECTION('center_axis',(0.,-1.,0.));
#1626=DIRECTION('ref_axis',(0.,0.,-1.));
#1627=DIRECTION('center_axis',(0.,1.,0.));
#1628=DIRECTION('ref_axis',(1.,0.,0.));
#1629=DIRECTION('center_axis',(0.,-1.,0.));
#1630=DIRECTION('ref_axis',(1.,0.,0.));
#1631=DIRECTION('center_axis',(0.,-1.,0.));
#1632=DIRECTION('ref_axis',(1.,0.,0.));
#1633=DIRECTION('',(0.,-1.,0.));
#1634=DIRECTION('center_axis',(0.,1.,0.));
#1635=DIRECTION('ref_axis',(1.,0.,0.));
#1636=DIRECTION('center_axis',(0.,-1.,0.));
#1637=DIRECTION('ref_axis',(1.,0.,0.));
#1638=DIRECTION('center_axis',(0.,-1.,0.));
#1639=DIRECTION('ref_axis',(1.,0.,0.));
#1640=DIRECTION('',(0.,-1.,0.));
#1641=DIRECTION('center_axis',(0.,-1.,0.));
#1642=DIRECTION('ref_axis',(1.,0.,0.));
#1643=DIRECTION('center_axis',(0.,1.,0.));
#1644=DIRECTION('ref_axis',(1.,0.,0.));
#1645=DIRECTION('center_axis',(0.,1.,0.));
#1646=DIRECTION('ref_axis',(1.,0.,0.));
#1647=DIRECTION('center_axis',(0.,1.,0.));
#1648=DIRECTION('ref_axis',(1.,0.,0.));
#1649=DIRECTION('center_axis',(0.,-1.,0.));
#1650=DIRECTION('ref_axis',(1.,0.,0.));
#1651=DIRECTION('center_axis',(0.,-1.,0.));
#1652=DIRECTION('ref_axis',(1.,0.,0.));
#1653=DIRECTION('',(0.,1.,0.));
#1654=DIRECTION('center_axis',(0.,1.,0.));
#1655=DIRECTION('ref_axis',(1.,0.,0.));
#1656=DIRECTION('',(0.,0.,1.));
#1657=DIRECTION('',(1.,0.,0.));
#1658=DIRECTION('',(1.24492111605191E-30,-1.,1.22464679914745E-16));
#1659=DIRECTION('',(-9.02056207507948E-17,-1.22464679914735E-16,-1.));
#1660=DIRECTION('',(2.22044604925031E-16,1.83697019872104E-16,1.));
#1661=DIRECTION('',(-2.38004060904018E-15,1.,-1.83697019872103E-16));
#1662=DIRECTION('',(-9.84629044964432E-15,-0.866025403784439,0.500000000000001));
#1663=DIRECTION('',(-3.88578058618803E-16,-0.500000000000001,-0.866025403784438));
#1664=CARTESIAN_POINT('',(0.,0.,0.));
#1665=CARTESIAN_POINT('',(0.,0.,0.));
#1666=CARTESIAN_POINT('Origin',(0.,3.,-20.));
#1667=CARTESIAN_POINT('',(0.,0.,0.));
#1668=CARTESIAN_POINT('',(-3.,3.,0.));
#1669=CARTESIAN_POINT('Origin',(0.,3.,0.));
#1670=CARTESIAN_POINT('',(-3.,3.,-40.));
#1671=CARTESIAN_POINT('',(-3.,3.,-20.));
#1672=CARTESIAN_POINT('',(0.,0.,-40.));
#1673=CARTESIAN_POINT('Origin',(0.,3.,-40.));
#1674=CARTESIAN_POINT('',(0.,0.,-20.));
#1675=CARTESIAN_POINT('Origin',(36.4,0.,-40.));
#1676=CARTESIAN_POINT('',(-3.,27.,-40.));
#1677=CARTESIAN_POINT('',(-3.,0.,-40.));
#1678=CARTESIAN_POINT('',(0.,27.,-40.));
#1679=CARTESIAN_POINT('',(0.,27.,-40.));
#1680=CARTESIAN_POINT('',(0.,3.,-40.));
#1681=CARTESIAN_POINT('',(0.,0.,-40.));
#1682=CARTESIAN_POINT('',(36.4,3.,-40.));
#1683=CARTESIAN_POINT('',(36.4,3.,-40.));
#1684=CARTESIAN_POINT('',(36.4,0.,-40.));
#1685=CARTESIAN_POINT('',(36.4,0.,-40.));
#1686=CARTESIAN_POINT('',(36.4,0.,-40.));
#1687=CARTESIAN_POINT('Origin',(-3.,23.5,-20.));
#1688=CARTESIAN_POINT('',(-3.,27.,0.));
#1689=CARTESIAN_POINT('',(-3.,27.,0.));
#1690=CARTESIAN_POINT('Origin',(-3.,27.,-20.));
#1691=CARTESIAN_POINT('',(-3.,40.0000000000009,-10.6057713659382));
#1692=CARTESIAN_POINT('Origin',(-3.,40.0000000000009,-12.2057713659382));
#1693=CARTESIAN_POINT('',(-3.,40.0000000000028,-26.1942286340586));
#1694=CARTESIAN_POINT('Origin',(-3.,40.0000000000028,-27.7942286340586));
#1695=CARTESIAN_POINT('',(-3.,13.0000000000019,-26.1942286340618));
#1696=CARTESIAN_POINT('Origin',(-3.,13.0000000000019,-27.7942286340618));
#1697=CARTESIAN_POINT('',(-3.,33.5000000612591,-26.5000000000037));
#1698=CARTESIAN_POINT('',(-3.,33.5000000301693,-13.4999999999952));
#1699=CARTESIAN_POINT('Origin',(-3.,33.4999999972854,-19.9999999999995));
#1700=CARTESIAN_POINT('',(-3.,19.5000000145855,-13.5000000000001));
#1701=CARTESIAN_POINT('',(-3.,33.4999999854145,-13.5000000000013));
#1702=CARTESIAN_POINT('',(-3.,19.4999999908436,-26.5000000000016));
#1703=CARTESIAN_POINT('Origin',(-3.,19.5000000027146,-20.0000000000008));
#1704=CARTESIAN_POINT('',(-3.,33.5000000612591,-26.5000000000037));
#1705=CARTESIAN_POINT('',(-3.,26.5000000000028,-33.9884572681204));
#1706=CARTESIAN_POINT('Origin',(-3.,26.5000000000028,-35.5884572681204));
#1707=CARTESIAN_POINT('',(-3.,26.5,-2.81154273187961));
#1708=CARTESIAN_POINT('Origin',(-3.,26.5,-4.41154273187961));
#1709=CARTESIAN_POINT('',(-3.,13.,-10.6057713659415));
#1710=CARTESIAN_POINT('Origin',(-3.,13.,-12.2057713659414));
#1711=CARTESIAN_POINT('Origin',(8.00000000000001,3.,-35.));
#1712=CARTESIAN_POINT('',(10.,3.,-35.));
#1713=CARTESIAN_POINT('Origin',(8.00000000000001,3.,-35.));
#1714=CARTESIAN_POINT('',(10.,0.,-35.));
#1715=CARTESIAN_POINT('',(10.,3.,-35.));
#1716=CARTESIAN_POINT('Origin',(8.00000000000001,0.,-35.));
#1717=CARTESIAN_POINT('Origin',(31.4,3.,-35.));
#1718=CARTESIAN_POINT('',(33.4,3.,-35.));
#1719=CARTESIAN_POINT('Origin',(31.4,3.,-35.));
#1720=CARTESIAN_POINT('',(33.4,0.,-35.));
#1721=CARTESIAN_POINT('',(33.4,3.,-35.));
#1722=CARTESIAN_POINT('Origin',(31.4,0.,-35.));
#1723=CARTESIAN_POINT('Origin',(31.4,3.,-5.));
#1724=CARTESIAN_POINT('',(33.4,3.,-5.));
#1725=CARTESIAN_POINT('Origin',(31.4,3.,-5.));
#1726=CARTESIAN_POINT('',(33.4,0.,-5.));
#1727=CARTESIAN_POINT('',(33.4,3.,-5.));
#1728=CARTESIAN_POINT('Origin',(31.4,0.,-5.));
#1729=CARTESIAN_POINT('Origin',(8.00000000000001,3.,-5.));
#1730=CARTESIAN_POINT('',(10.,3.,-5.));
#1731=CARTESIAN_POINT('Origin',(8.00000000000001,3.,-5.));
#1732=CARTESIAN_POINT('',(10.,0.,-5.));
#1733=CARTESIAN_POINT('',(10.,3.,-5.));
#1734=CARTESIAN_POINT('Origin',(8.00000000000001,0.,-5.));
#1735=CARTESIAN_POINT('Origin',(0.,40.0000000000009,-12.2057713659382));
#1736=CARTESIAN_POINT('',(0.,40.0000000000009,-10.6057713659382));
#1737=CARTESIAN_POINT('Origin',(0.,40.0000000000009,-12.2057713659382));
#1738=CARTESIAN_POINT('',(0.,40.0000000000009,-10.6057713659382));
#1739=CARTESIAN_POINT('Origin',(0.,40.0000000000028,-27.7942286340586));
#1740=CARTESIAN_POINT('',(0.,40.0000000000028,-26.1942286340586));
#1741=CARTESIAN_POINT('Origin',(0.,40.0000000000028,-27.7942286340586));
#1742=CARTESIAN_POINT('',(0.,40.0000000000028,-26.1942286340586));
#1743=CARTESIAN_POINT('Origin',(0.,13.0000000000019,-27.7942286340618));
#1744=CARTESIAN_POINT('',(0.,13.0000000000019,-26.1942286340618));
#1745=CARTESIAN_POINT('Origin',(0.,13.0000000000019,-27.7942286340618));
#1746=CARTESIAN_POINT('',(0.,13.0000000000019,-26.1942286340618));
#1747=CARTESIAN_POINT('Origin',(0.,19.4999999908436,-26.500000000002));
#1748=CARTESIAN_POINT('',(0.,33.5000000612591,-26.5000000000037));
#1749=CARTESIAN_POINT('',(0.,19.4999999908436,-26.5000000000016));
#1750=CARTESIAN_POINT('',(0.,33.5000000612591,-26.5000000000037));
#1751=CARTESIAN_POINT('',(0.,33.5000000612591,-26.5000000000037));
#1752=CARTESIAN_POINT('',(0.,19.4999999908436,-26.5000000000016));
#1753=CARTESIAN_POINT('Origin',(0.,19.5000000027146,-20.0000000000008));
#1754=CARTESIAN_POINT('',(0.,19.5000000145855,-13.5000000000001));
#1755=CARTESIAN_POINT('Origin',(0.,19.5000000027146,-20.0000000000008));
#1756=CARTESIAN_POINT('',(0.,19.5000000145855,-13.5000000000001));
#1757=CARTESIAN_POINT('Origin',(0.,33.4999999854145,-13.5000000000013));
#1758=CARTESIAN_POINT('',(0.,33.5000000301693,-13.4999999999952));
#1759=CARTESIAN_POINT('',(0.,33.4999999854145,-13.5000000000013));
#1760=CARTESIAN_POINT('',(0.,33.5000000301693,-13.4999999999952));
#1761=CARTESIAN_POINT('Origin',(0.,33.4999999972854,-19.9999999999995));
#1762=CARTESIAN_POINT('Origin',(0.,33.4999999972854,-19.9999999999995));
#1763=CARTESIAN_POINT('Origin',(0.,26.5000000000028,-35.5884572681204));
#1764=CARTESIAN_POINT('',(0.,26.5000000000028,-33.9884572681204));
#1765=CARTESIAN_POINT('Origin',(0.,26.5000000000028,-35.5884572681204));
#1766=CARTESIAN_POINT('',(0.,26.5000000000028,-33.9884572681204));
#1767=CARTESIAN_POINT('Origin',(0.,26.5,-4.41154273187961));
#1768=CARTESIAN_POINT('',(0.,26.5,-2.81154273187961));
#1769=CARTESIAN_POINT('Origin',(0.,26.5,-4.41154273187961));
#1770=CARTESIAN_POINT('',(0.,26.5,-2.81154273187961));
#1771=CARTESIAN_POINT('Origin',(0.,13.,-12.2057713659414));
#1772=CARTESIAN_POINT('',(0.,13.,-10.6057713659415));
#1773=CARTESIAN_POINT('Origin',(0.,13.,-12.2057713659414));
#1774=CARTESIAN_POINT('',(0.,13.,-10.6057713659414));
#1775=CARTESIAN_POINT('Origin',(0.,27.,-20.));
#1776=CARTESIAN_POINT('',(0.,27.,0.));
#1777=CARTESIAN_POINT('Origin',(0.,27.,-20.));
#1778=CARTESIAN_POINT('',(0.,27.,0.));
#1779=CARTESIAN_POINT('Origin',(0.,23.5,-20.));
#1780=CARTESIAN_POINT('',(0.,3.,0.));
#1781=CARTESIAN_POINT('',(0.,3.,-40.));
#1782=CARTESIAN_POINT('',(0.,27.,0.));
#1783=CARTESIAN_POINT('Origin',(39.4,0.,-3.));
#1784=CARTESIAN_POINT('',(39.4,0.,-3.));
#1785=CARTESIAN_POINT('',(39.4,0.,-37.));
#1786=CARTESIAN_POINT('',(39.4,0.,-3.));
#1787=CARTESIAN_POINT('',(39.4,3.,-37.));
#1788=CARTESIAN_POINT('',(39.4,0.,-37.));
#1789=CARTESIAN_POINT('',(39.4,3.,-3.));
#1790=CARTESIAN_POINT('',(39.4,3.,-3.));
#1791=CARTESIAN_POINT('',(39.4,0.,-3.));
#1792=CARTESIAN_POINT('Origin',(36.4,0.,-3.));
#1793=CARTESIAN_POINT('',(36.4,0.,0.));
#1794=CARTESIAN_POINT('Origin',(36.4,0.,-3.));
#1795=CARTESIAN_POINT('',(36.4,3.,0.));
#1796=CARTESIAN_POINT('Origin',(36.4,3.,-3.));
#1797=CARTESIAN_POINT('',(36.4,0.,0.));
#1798=CARTESIAN_POINT('Origin',(0.,0.,0.));
#1799=CARTESIAN_POINT('',(0.,0.,0.));
#1800=CARTESIAN_POINT('',(0.,3.,0.));
#1801=CARTESIAN_POINT('Origin',(36.4,0.,-37.));
#1802=CARTESIAN_POINT('Origin',(36.4,0.,-37.));
#1803=CARTESIAN_POINT('Origin',(36.4,3.,-37.));
#1804=CARTESIAN_POINT('Origin',(19.7,3.,-20.));
#1805=CARTESIAN_POINT('Origin',(19.7,0.,-20.));
#1806=CARTESIAN_POINT('',(0.,0.,0.));
#1807=CARTESIAN_POINT('Origin',(-1.11022302462516E-15,-9.,-7.5));
#1808=CARTESIAN_POINT('',(-1.6583123951777,-9.,-10.));
#1809=CARTESIAN_POINT('',(1.6583123951777,-9.,-10.));
#1810=CARTESIAN_POINT('',(-0.829156197588853,-9.,-10.));
#1811=CARTESIAN_POINT('Origin',(-1.11022302462516E-15,-9.,-7.5));
#1812=CARTESIAN_POINT('Origin',(-1.11022302462516E-15,-6.,-7.5));
#1813=CARTESIAN_POINT('',(-6.,-6.,-7.5));
#1814=CARTESIAN_POINT('Origin',(-1.11022302462516E-15,-6.,-7.5));
#1815=CARTESIAN_POINT('',(-1.6583123951777,-6.,-4.99999999999999));
#1816=CARTESIAN_POINT('Origin',(-1.11022302462516E-15,-6.,-7.5));
#1817=CARTESIAN_POINT('Origin',(-1.11022302462516E-15,0.,-7.5));
#1818=CARTESIAN_POINT('',(-1.6583123951777,-21.,-10.));
#1819=CARTESIAN_POINT('',(-1.6583123951777,-2.46519032881566E-31,-10.));
#1820=CARTESIAN_POINT('',(-1.6583123951777,-21.,-4.99999999999999));
#1821=CARTESIAN_POINT('Origin',(-1.11022302462516E-15,-21.,-7.49999999999999));
#1822=CARTESIAN_POINT('',(-1.6583123951777,5.28677630773884E-16,-5.));
#1823=CARTESIAN_POINT('',(1.6583123951777,-21.,-10.));
#1824=CARTESIAN_POINT('Origin',(-1.11022302462516E-15,-21.,-7.49999999999999));
#1825=CARTESIAN_POINT('',(1.6583123951777,-2.46519032881566E-31,-10.));
#1826=CARTESIAN_POINT('Origin',(-1.6583123951777,-2.22044604925031E-15,
-10.));
#1827=CARTESIAN_POINT('',(0.829156197588849,-21.,-10.));
#1828=CARTESIAN_POINT('Origin',(0.,-21.,4.44089209850063E-15));
#1829=CARTESIAN_POINT('Origin',(-1.11022302462516E-15,-2.46519032881566E-31,
-7.5));
#1830=CARTESIAN_POINT('',(-6.,-2.46519032881566E-31,-7.5));
#1831=CARTESIAN_POINT('',(-6.,-2.46519032881566E-31,-7.5));
#1832=CARTESIAN_POINT('Origin',(-1.11022302462516E-15,0.,-7.5));
#1833=CARTESIAN_POINT('Origin',(0.,0.,0.));
#1834=CARTESIAN_POINT('',(-18.5,0.,2.2655965784226E-15));
#1835=CARTESIAN_POINT('Origin',(0.,0.,0.));
#1836=CARTESIAN_POINT('Origin',(0.,35.,-1.99840144432528E-15));
#1837=CARTESIAN_POINT('',(-16.,46.,-2.48145721986486E-15));
#1838=CARTESIAN_POINT('Origin',(0.,46.,-4.44089209850063E-15));
#1839=CARTESIAN_POINT('',(-16.,24.,2.40352408848583E-15));
#1840=CARTESIAN_POINT('',(-16.,35.,-3.89665656895168E-17));
#1841=CARTESIAN_POINT('Origin',(0.,24.,4.44089209850062E-16));
#1842=CARTESIAN_POINT('Origin',(0.,46.,-4.44089209850063E-15));
#1843=CARTESIAN_POINT('Origin',(0.,12.,-2.66453525910038E-15));
#1844=CARTESIAN_POINT('',(-18.5,24.,-3.06347393977815E-15));
#1845=CARTESIAN_POINT('Origin',(0.,24.,-5.32907051820075E-15));
#1846=CARTESIAN_POINT('',(-18.5,12.,-3.98938680677772E-16));
#1847=CARTESIAN_POINT('Origin',(0.,24.,-5.32907051820075E-15));
#1848=CARTESIAN_POINT('Origin',(0.,51.5,-1.22124532708767E-15));
#1849=CARTESIAN_POINT('',(-16.,57.,-4.83055775539579E-16));
#1850=CARTESIAN_POINT('Origin',(0.,57.,-2.44249065417534E-15));
#1851=CARTESIAN_POINT('',(-16.,46.,1.95943487863577E-15));
#1852=CARTESIAN_POINT('',(-16.,51.5,7.38189551548093E-16));
#1853=CARTESIAN_POINT('Origin',(0.,46.,0.));
#1854=CARTESIAN_POINT('Origin',(0.,46.,0.));
#1855=CARTESIAN_POINT('Origin',(0.,57.,-2.44249065417534E-15));
#1856=CARTESIAN_POINT('',(0.,0.,0.));
#1857=CARTESIAN_POINT('Origin',(0.,5.9,1.31006316905768E-15));
#1858=CARTESIAN_POINT('',(-3.67394039744206E-16,11.8,3.));
#1859=CARTESIAN_POINT('Origin',(0.,11.8,0.));
#1860=CARTESIAN_POINT('',(-3.67394039744206E-16,1.11022302462516E-15,3.));
#1861=CARTESIAN_POINT('',(-3.67394039744206E-16,5.9,3.));
#1862=CARTESIAN_POINT('Origin',(0.,0.,2.62012633811537E-15));
#1863=CARTESIAN_POINT('Origin',(0.,11.8,0.));
#1864=CARTESIAN_POINT('',(-2.44929359829471E-16,11.8,2.));
#1865=CARTESIAN_POINT('Origin',(0.,11.8,1.26565424807268E-15));
#1866=CARTESIAN_POINT('Origin',(0.,14.65,6.32827124036339E-16));
#1867=CARTESIAN_POINT('',(-2.44929359829471E-16,17.5,2.));
#1868=CARTESIAN_POINT('Origin',(0.,17.5,-2.46519032881566E-31));
#1869=CARTESIAN_POINT('',(-2.44929359829471E-16,14.65,2.));
#1870=CARTESIAN_POINT('Origin',(-3.46410161513229,11.,-6.));
#1871=CARTESIAN_POINT('',(-6.92820323029288,11.,-5.15698594938385E-12));
#1872=CARTESIAN_POINT('',(-3.46410161513229,11.,-6.));
#1873=CARTESIAN_POINT('',(-4.33012701891741,11.,-4.50000000000999));
#1874=CARTESIAN_POINT('',(-6.92820323029288,17.5,-5.15698594938385E-12));
#1875=CARTESIAN_POINT('',(-6.92820323029288,11.,-5.15698594938385E-12));
#1876=CARTESIAN_POINT('',(-3.46410161513229,17.5,-6.));
#1877=CARTESIAN_POINT('',(-6.92820323029288,17.5,-5.15698594938385E-12));
#1878=CARTESIAN_POINT('',(-3.46410161513229,11.,-6.));
#1879=CARTESIAN_POINT('Origin',(3.46410161515016,11.,-6.));
#1880=CARTESIAN_POINT('',(3.46410161515016,11.,-6.));
#1881=CARTESIAN_POINT('',(1.73205080757508,11.,-6.));
#1882=CARTESIAN_POINT('',(3.46410161515016,17.5,-6.));
#1883=CARTESIAN_POINT('',(-3.46410161513229,17.5,-6.));
#1884=CARTESIAN_POINT('',(3.46410161515016,11.,-6.));
#1885=CARTESIAN_POINT('Origin',(6.92820323029287,11.,5.1636472875316E-12));
#1886=CARTESIAN_POINT('',(6.92820323029287,11.,5.16420239904392E-12));
#1887=CARTESIAN_POINT('',(6.0621778265044,11.,-1.50000000000096));
#1888=CARTESIAN_POINT('',(6.92820323029287,17.5,5.16475751055623E-12));
#1889=CARTESIAN_POINT('',(3.46410161515016,17.5,-6.));
#1890=CARTESIAN_POINT('',(6.92820323029287,11.,5.16420239904392E-12));
#1891=CARTESIAN_POINT('Origin',(3.46410161513229,11.,6.));
#1892=CARTESIAN_POINT('',(3.46410161513229,11.,6.));
#1893=CARTESIAN_POINT('',(4.33012701891741,11.,4.50000000000999));
#1894=CARTESIAN_POINT('',(3.46410161513229,17.5,6.));
#1895=CARTESIAN_POINT('',(6.92820323029287,17.5,5.16420239904392E-12));
#1896=CARTESIAN_POINT('',(3.46410161513229,11.,6.));
#1897=CARTESIAN_POINT('Origin',(-3.46410161515016,11.,6.));
#1898=CARTESIAN_POINT('',(-3.46410161515016,11.,6.));
#1899=CARTESIAN_POINT('',(-1.73205080757508,11.,6.));
#1900=CARTESIAN_POINT('',(-3.46410161515016,17.5,6.));
#1901=CARTESIAN_POINT('',(3.46410161513229,17.5,6.));
#1902=CARTESIAN_POINT('',(-3.46410161515016,11.,6.));
#1903=CARTESIAN_POINT('Origin',(-6.92820323029288,11.,-5.15698594938385E-12));
#1904=CARTESIAN_POINT('',(-6.06217782650441,11.,1.50000000000097));
#1905=CARTESIAN_POINT('',(-3.46410161515016,17.5,6.));
#1906=CARTESIAN_POINT('Origin',(-5.55111512312578E-15,17.5,0.));
#1907=CARTESIAN_POINT('Origin',(0.,5.5,-1.22124532708767E-15));
#1908=CARTESIAN_POINT('',(-10.,11.,-1.21784385502799E-15));
#1909=CARTESIAN_POINT('Origin',(0.,11.,-2.44249065417534E-15));
#1910=CARTESIAN_POINT('',(-10.,0.,1.22464679914735E-15));
#1911=CARTESIAN_POINT('',(-10.,5.5,3.40147205968116E-18));
#1912=CARTESIAN_POINT('Origin',(0.,0.,0.));
#1913=CARTESIAN_POINT('Origin',(0.,0.,0.));
#1914=CARTESIAN_POINT('Origin',(0.,11.,-2.44249065417534E-15));
#1915=CARTESIAN_POINT('',(0.,0.,0.));
#1916=CARTESIAN_POINT('Origin',(-3.46410161513775,0.,-6.));
#1917=CARTESIAN_POINT('',(-3.46410161513775,-8.3,-6.));
#1918=CARTESIAN_POINT('',(3.46410161513776,-8.3,-5.99999999999999));
#1919=CARTESIAN_POINT('',(-1.73205080756887,-8.3,-6.));
#1920=CARTESIAN_POINT('',(-3.46410161513775,-15.3,-6.00000000000001));
#1921=CARTESIAN_POINT('',(-3.46410161513775,0.,-6.));
#1922=CARTESIAN_POINT('',(3.46410161513776,-15.3,-5.99999999999999));
#1923=CARTESIAN_POINT('',(-3.46410161513775,-15.3,-6.));
#1924=CARTESIAN_POINT('',(3.46410161513776,0.,-5.99999999999999));
#1925=CARTESIAN_POINT('Origin',(3.46410161513776,0.,-5.99999999999999));
#1926=CARTESIAN_POINT('',(6.92820323027551,-8.3,7.12310768806728E-15));
#1927=CARTESIAN_POINT('',(4.3301270189222,-8.3,-4.49999999999999));
#1928=CARTESIAN_POINT('',(6.92820323027551,-15.3,6.66133814775094E-15));
#1929=CARTESIAN_POINT('',(3.46410161513776,-15.3,-5.99999999999999));
#1930=CARTESIAN_POINT('',(6.92820323027551,0.,7.12310768806728E-15));
#1931=CARTESIAN_POINT('Origin',(6.92820323027551,0.,7.12310768806728E-15));
#1932=CARTESIAN_POINT('',(3.46410161513775,-8.3,6.));
#1933=CARTESIAN_POINT('',(6.06217782649107,-8.3,1.50000000000001));
#1934=CARTESIAN_POINT('',(3.46410161513775,-15.3,6.));
#1935=CARTESIAN_POINT('',(6.92820323027551,-15.3,7.12310768806728E-15));
#1936=CARTESIAN_POINT('',(3.46410161513775,0.,6.));
#1937=CARTESIAN_POINT('Origin',(3.46410161513775,0.,6.));
#1938=CARTESIAN_POINT('',(-3.46410161513775,-8.3,6.));
#1939=CARTESIAN_POINT('',(1.73205080756887,-8.3,6.));
#1940=CARTESIAN_POINT('',(-3.46410161513775,-15.3,6.));
#1941=CARTESIAN_POINT('',(3.46410161513775,-15.3,6.));
#1942=CARTESIAN_POINT('',(-3.46410161513775,0.,6.));
#1943=CARTESIAN_POINT('Origin',(-6.9282032302755,0.,-5.74893966795702E-15));
#1944=CARTESIAN_POINT('',(-6.9282032302755,-8.3,-5.74893966795702E-15));
#1945=CARTESIAN_POINT('',(-6.06217782649106,-8.3,-1.5));
#1946=CARTESIAN_POINT('',(-6.9282032302755,-15.3,-5.55111512312578E-15));
#1947=CARTESIAN_POINT('',(-6.9282032302755,0.,-5.74893966795702E-15));
#1948=CARTESIAN_POINT('',(-6.9282032302755,-15.3,-5.74893966795702E-15));
#1949=CARTESIAN_POINT('Origin',(-3.46410161513775,0.,6.));
#1950=CARTESIAN_POINT('',(-4.33012701892219,-8.3,4.49999999999999));
#1951=CARTESIAN_POINT('',(-3.46410161513775,-15.3,6.));
#1952=CARTESIAN_POINT('Origin',(7.7715611723761E-15,-15.3,-2.22044604925031E-15));
#1953=CARTESIAN_POINT('Origin',(0.,-8.3,0.));
#1954=CARTESIAN_POINT('',(-10.,-8.3,1.22464679914735E-15));
#1955=CARTESIAN_POINT('Origin',(0.,-8.3,0.));
#1956=CARTESIAN_POINT('Origin',(0.,0.,0.));
#1957=CARTESIAN_POINT('',(-10.,-17.,1.22464679914735E-15));
#1958=CARTESIAN_POINT('',(-10.,0.,-1.22464679914735E-15));
#1959=CARTESIAN_POINT('Origin',(0.,-17.,0.));
#1960=CARTESIAN_POINT('Origin',(0.,0.,0.));
#1961=CARTESIAN_POINT('',(-28.8,0.,3.52698278154438E-15));
#1962=CARTESIAN_POINT('Origin',(0.,0.,0.));
#1963=CARTESIAN_POINT('',(-28.8,-17.,3.52698278154438E-15));
#1964=CARTESIAN_POINT('',(-28.8,0.,-3.52698278154438E-15));
#1965=CARTESIAN_POINT('Origin',(0.,-17.,0.));
#1966=CARTESIAN_POINT('Origin',(0.,-17.,0.));
#1967=CARTESIAN_POINT('Origin',(0.,0.,0.));
#1968=CARTESIAN_POINT('',(-42.5,0.,5.20474889637625E-15));
#1969=CARTESIAN_POINT('Origin',(0.,0.,0.));
#1970=CARTESIAN_POINT('Origin',(0.,0.,0.));
#1971=CARTESIAN_POINT('',(-42.5,-33.4,5.20474889637625E-15));
#1972=CARTESIAN_POINT('Origin',(0.,-33.4,0.));
#1973=CARTESIAN_POINT('',(-42.5,0.,-5.20474889637625E-15));
#1974=CARTESIAN_POINT('Origin',(0.,-33.4,0.));
#1975=CARTESIAN_POINT('',(0.,0.,0.));
#1976=CARTESIAN_POINT('',(0.,26.4233937586607,-20.0442286340618));
#1977=CARTESIAN_POINT('',(-9.2,33.6733937586607,-20.0442286340618));
#1978=CARTESIAN_POINT('',(-12.0999999999999,33.6733937586606,-20.0442286340617));
#1979=UNCERTAINTY_MEASURE_WITH_UNIT(LENGTH_MEASURE(0.01),#1991,
'DISTANCE_ACCURACY_VALUE',
'Maximum model space distance between geometric entities at asserted c
onnectivities');
#1980=UNCERTAINTY_MEASURE_WITH_UNIT(LENGTH_MEASURE(0.01),#1991,
'DISTANCE_ACCURACY_VALUE',
'Maximum model space distance between geometric entities at asserted c
onnectivities');
#1981=UNCERTAINTY_MEASURE_WITH_UNIT(LENGTH_MEASURE(0.01),#1991,
'DISTANCE_ACCURACY_VALUE',
'Maximum model space distance between geometric entities at asserted c
onnectivities');
#1982=UNCERTAINTY_MEASURE_WITH_UNIT(LENGTH_MEASURE(0.01),#1991,
'DISTANCE_ACCURACY_VALUE',
'Maximum model space distance between geometric entities at asserted c
onnectivities');
#1983=UNCERTAINTY_MEASURE_WITH_UNIT(LENGTH_MEASURE(0.01),#1991,
'DISTANCE_ACCURACY_VALUE',
'Maximum model space distance between geometric entities at asserted c
onnectivities');
#1984=UNCERTAINTY_MEASURE_WITH_UNIT(LENGTH_MEASURE(0.01),#1991,
'DISTANCE_ACCURACY_VALUE',
'Maximum model space distance between geometric entities at asserted c
onnectivities');
#1985=(
GEOMETRIC_REPRESENTATION_CONTEXT(3)
GLOBAL_UNCERTAINTY_ASSIGNED_CONTEXT((#1979))
GLOBAL_UNIT_ASSIGNED_CONTEXT((#1991,#1993,#1994))
REPRESENTATION_CONTEXT('','3D')
);
#1986=(
GEOMETRIC_REPRESENTATION_CONTEXT(3)
GLOBAL_UNCERTAINTY_ASSIGNED_CONTEXT((#1980))
GLOBAL_UNIT_ASSIGNED_CONTEXT((#1991,#1993,#1994))
REPRESENTATION_CONTEXT('','3D')
);
#1987=(
GEOMETRIC_REPRESENTATION_CONTEXT(3)
GLOBAL_UNCERTAINTY_ASSIGNED_CONTEXT((#1981))
GLOBAL_UNIT_ASSIGNED_CONTEXT((#1991,#1993,#1994))
REPRESENTATION_CONTEXT('','3D')
);
#1988=(
GEOMETRIC_REPRESENTATION_CONTEXT(3)
GLOBAL_UNCERTAINTY_ASSIGNED_CONTEXT((#1982))
GLOBAL_UNIT_ASSIGNED_CONTEXT((#1991,#1993,#1994))
REPRESENTATION_CONTEXT('','3D')
);
#1989=(
GEOMETRIC_REPRESENTATION_CONTEXT(3)
GLOBAL_UNCERTAINTY_ASSIGNED_CONTEXT((#1983))
GLOBAL_UNIT_ASSIGNED_CONTEXT((#1991,#1993,#1994))
REPRESENTATION_CONTEXT('','3D')
);
#1990=(
GEOMETRIC_REPRESENTATION_CONTEXT(3)
GLOBAL_UNCERTAINTY_ASSIGNED_CONTEXT((#1984))
GLOBAL_UNIT_ASSIGNED_CONTEXT((#1991,#1993,#1994))
REPRESENTATION_CONTEXT('','3D')
);
#1991=(
LENGTH_UNIT()
NAMED_UNIT(*)
SI_UNIT(.MILLI.,.METRE.)
);
#1992=(
LENGTH_UNIT()
NAMED_UNIT(*)
SI_UNIT($,.METRE.)
);
#1993=(
NAMED_UNIT(*)
PLANE_ANGLE_UNIT()
SI_UNIT($,.RADIAN.)
);
#1994=(
NAMED_UNIT(*)
SI_UNIT($,.STERADIAN.)
SOLID_ANGLE_UNIT()
);
#1995=SHAPE_DEFINITION_REPRESENTATION(#2000,#2009);
#1996=SHAPE_DEFINITION_REPRESENTATION(#2001,#2010);
#1997=SHAPE_DEFINITION_REPRESENTATION(#2002,#2011);
#1998=SHAPE_DEFINITION_REPRESENTATION(#2003,#2012);
#1999=SHAPE_DEFINITION_REPRESENTATION(#2004,#2013);
#2000=PRODUCT_DEFINITION_SHAPE('',$,#2015);
#2001=PRODUCT_DEFINITION_SHAPE('',$,#2016);
#2002=PRODUCT_DEFINITION_SHAPE('',$,#2017);
#2003=PRODUCT_DEFINITION_SHAPE('',$,#2018);
#2004=PRODUCT_DEFINITION_SHAPE('',$,#2019);
#2005=PRODUCT_DEFINITION_SHAPE($,$,#23);
#2006=PRODUCT_DEFINITION_SHAPE($,$,#24);
#2007=PRODUCT_DEFINITION_SHAPE($,$,#25);
#2008=PRODUCT_DEFINITION_SHAPE($,$,#26);
#2009=SHAPE_REPRESENTATION('',(#1183,#1310,#1311,#1312,#1313),#1985);
#2010=SHAPE_REPRESENTATION('',(#1184),#1986);
#2011=SHAPE_REPRESENTATION('',(#1242),#1987);
#2012=SHAPE_REPRESENTATION('',(#1269),#1988);
#2013=SHAPE_REPRESENTATION('',(#1289),#1989);
#2014=PRODUCT_DEFINITION_CONTEXT('part definition',#2031,'design');
#2015=PRODUCT_DEFINITION('2026-05-27-22-23-51-898',
'wheel_motor_single_side_v0_1',#2020,#2014);
#2016=PRODUCT_DEFINITION('2026-05-27-13-57-29-652',
'jgb37_motor_bracket_v0_1',#2021,#2014);
#2017=PRODUCT_DEFINITION('2026-05-27-19-27-58-394','\X2\7535673A\X0\',#2022,
#2014);
#2018=PRODUCT_DEFINITION('2026-05-27-20-20-33-516','\X2\80548F745668\X0\',
#2023,#2014);
#2019=PRODUCT_DEFINITION('2026-05-27-21-11-46-557','\X2\8F6E80CE\X0\',#2024,
#2014);
#2020=PRODUCT_DEFINITION_FORMATION('',$,#2033);
#2021=PRODUCT_DEFINITION_FORMATION('',$,#2034);
#2022=PRODUCT_DEFINITION_FORMATION('',$,#2035);
#2023=PRODUCT_DEFINITION_FORMATION('',$,#2036);
#2024=PRODUCT_DEFINITION_FORMATION('',$,#2037);
#2025=PRODUCT_RELATED_PRODUCT_CATEGORY('wheel_motor_single_side_v0_1',
'wheel_motor_single_side_v0_1',(#2033));
#2026=PRODUCT_RELATED_PRODUCT_CATEGORY('jgb37_motor_bracket_v0_1',
'jgb37_motor_bracket_v0_1',(#2034));
#2027=PRODUCT_RELATED_PRODUCT_CATEGORY('\X2\7535673A\X0\','\X2\7535673A\X0\',
(#2035));
#2028=PRODUCT_RELATED_PRODUCT_CATEGORY('\X2\80548F745668\X0\',
'\X2\80548F745668\X0\',(#2036));
#2029=PRODUCT_RELATED_PRODUCT_CATEGORY('\X2\8F6E80CE\X0\','\X2\8F6E80CE\X0\',
(#2037));
#2030=APPLICATION_PROTOCOL_DEFINITION('international standard',
'automotive_design',2009,#2031);
#2031=APPLICATION_CONTEXT(
'Core Data for Automotive Mechanical Design Process');
#2032=PRODUCT_CONTEXT('part definition',#2031,'mechanical');
#2033=PRODUCT('2026-05-27-22-23-51-898','wheel_motor_single_side_v0_1',
$,(#2032));
#2034=PRODUCT('2026-05-27-13-57-29-652','jgb37_motor_bracket_v0_1',$,(#2032));
#2035=PRODUCT('2026-05-27-19-27-58-394','\X2\7535673A\X0\',$,(#2032));
#2036=PRODUCT('2026-05-27-20-20-33-516','\X2\80548F745668\X0\',$,(#2032));
#2037=PRODUCT('2026-05-27-21-11-46-557','\X2\8F6E80CE\X0\',$,(#2032));
#2038=PRESENTATION_STYLE_ASSIGNMENT((#2040));
#2039=PRESENTATION_STYLE_ASSIGNMENT((#2041));
#2040=SURFACE_STYLE_USAGE(.BOTH.,#2042);
#2041=SURFACE_STYLE_USAGE(.BOTH.,#2043);
#2042=SURFACE_SIDE_STYLE('',(#2044));
#2043=SURFACE_SIDE_STYLE('',(#2045));
#2044=SURFACE_STYLE_FILL_AREA(#2046);
#2045=SURFACE_STYLE_FILL_AREA(#2047);
#2046=FILL_AREA_STYLE('\X2\94A2\X0\ - \X2\7F0E5149\X0\',(#2048));
#2047=FILL_AREA_STYLE('Opaque(160,160,160)',(#2049));
#2048=FILL_AREA_STYLE_COLOUR('\X2\94A2\X0\ - \X2\7F0E5149\X0\',#2050);
#2049=FILL_AREA_STYLE_COLOUR('Opaque(160,160,160)',#2051);
#2050=COLOUR_RGB('\X2\94A2\X0\ - \X2\7F0E5149\X0\',0.627450980392157,0.627450980392157,
0.627450980392157);
#2051=COLOUR_RGB('Opaque(160,160,160)',0.627450980392157,0.627450980392157,
0.627450980392157);
ENDSEC;
END-ISO-10303-21;
