ISO-10303-21;
HEADER;
/* Generated by software containing ST-Developer
 * from STEP Tools, Inc. (www.steptools.com) 
 */

FILE_DESCRIPTION(
/* description */ (''),
/* implementation_level */ '2;1');

FILE_NAME(
/* name */ '',
/* time_stamp */ '2026-05-27T20:08:13+08:00',
/* author */ (''),
/* organization */ (''),
/* preprocessor_version */ 'ST-DEVELOPER v20.1',
/* originating_system */ 'Autodesk Translation Framework v15.8.0.0',
/* authorisation */ '');

FILE_SCHEMA (('AUTOMOTIVE_DESIGN { 1 0 10303 214 3 1 1 }'));
ENDSEC;

DATA;
#10=MECHANICAL_DESIGN_GEOMETRIC_PRESENTATION_REPRESENTATION('',(#13,#14),
#343);
#11=SHAPE_REPRESENTATION_RELATIONSHIP('SRR','None',#350,#12);
#12=ADVANCED_BREP_SHAPE_REPRESENTATION('',(#15,#16),#342);
#13=STYLED_ITEM('',(#359),#15);
#14=STYLED_ITEM('',(#359),#16);
#15=MANIFOLD_SOLID_BREP('\X2\5B9E4F53\X0\1',#186);
#16=MANIFOLD_SOLID_BREP('\X2\5B9E4F53\X0\2',#187);
#17=CYLINDRICAL_SURFACE('',#206,3.);
#18=CYLINDRICAL_SURFACE('',#211,6.);
#19=CYLINDRICAL_SURFACE('',#215,16.);
#20=CYLINDRICAL_SURFACE('',#219,18.5);
#21=CYLINDRICAL_SURFACE('',#222,16.);
#22=FACE_BOUND('',#41,.T.);
#23=FACE_BOUND('',#47,.T.);
#24=FACE_BOUND('',#52,.T.);
#25=FACE_OUTER_BOUND('',#39,.T.);
#26=FACE_OUTER_BOUND('',#40,.T.);
#27=FACE_OUTER_BOUND('',#42,.T.);
#28=FACE_OUTER_BOUND('',#43,.T.);
#29=FACE_OUTER_BOUND('',#44,.T.);
#30=FACE_OUTER_BOUND('',#45,.T.);
#31=FACE_OUTER_BOUND('',#46,.T.);
#32=FACE_OUTER_BOUND('',#48,.T.);
#33=FACE_OUTER_BOUND('',#49,.T.);
#34=FACE_OUTER_BOUND('',#50,.T.);
#35=FACE_OUTER_BOUND('',#51,.T.);
#36=FACE_OUTER_BOUND('',#53,.T.);
#37=FACE_OUTER_BOUND('',#54,.T.);
#38=FACE_OUTER_BOUND('',#55,.T.);
#39=EDGE_LOOP('',(#121,#122));
#40=EDGE_LOOP('',(#123));
#41=EDGE_LOOP('',(#124));
#42=EDGE_LOOP('',(#125,#126,#127,#128,#129,#130,#131,#132));
#43=EDGE_LOOP('',(#133,#134,#135,#136));
#44=EDGE_LOOP('',(#137,#138,#139));
#45=EDGE_LOOP('',(#140,#141,#142,#143));
#46=EDGE_LOOP('',(#144));
#47=EDGE_LOOP('',(#145));
#48=EDGE_LOOP('',(#146,#147,#148,#149));
#49=EDGE_LOOP('',(#150));
#50=EDGE_LOOP('',(#151,#152,#153,#154));
#51=EDGE_LOOP('',(#155));
#52=EDGE_LOOP('',(#156));
#53=EDGE_LOOP('',(#157,#158,#159,#160));
#54=EDGE_LOOP('',(#161));
#55=EDGE_LOOP('',(#162));
#56=CIRCLE('',#202,3.);
#57=CIRCLE('',#204,6.);
#58=CIRCLE('',#205,3.);
#59=CIRCLE('',#207,3.);
#60=CIRCLE('',#208,3.);
#61=CIRCLE('',#212,6.);
#62=CIRCLE('',#214,18.5);
#63=CIRCLE('',#216,16.);
#64=CIRCLE('',#217,16.);
#65=CIRCLE('',#220,18.5);
#66=CIRCLE('',#223,16.);
#67=CIRCLE('',#224,16.);
#68=LINE('',#294,#77);
#69=LINE('',#303,#78);
#70=LINE('',#306,#79);
#71=LINE('',#309,#80);
#72=LINE('',#311,#81);
#73=LINE('',#315,#82);
#74=LINE('',#324,#83);
#75=LINE('',#330,#84);
#76=LINE('',#336,#85);
#77=VECTOR('',#231,10.);
#78=VECTOR('',#242,10.);
#79=VECTOR('',#245,3.);
#80=VECTOR('',#248,10.);
#81=VECTOR('',#251,10.);
#82=VECTOR('',#256,6.);
#83=VECTOR('',#267,16.);
#84=VECTOR('',#276,18.5);
#85=VECTOR('',#283,16.);
#86=VERTEX_POINT('',#292);
#87=VERTEX_POINT('',#293);
#88=VERTEX_POINT('',#297);
#89=VERTEX_POINT('',#299);
#90=VERTEX_POINT('',#302);
#91=VERTEX_POINT('',#304);
#92=VERTEX_POINT('',#307);
#93=VERTEX_POINT('',#314);
#94=VERTEX_POINT('',#318);
#95=VERTEX_POINT('',#321);
#96=VERTEX_POINT('',#323);
#97=VERTEX_POINT('',#328);
#98=VERTEX_POINT('',#333);
#99=VERTEX_POINT('',#335);
#100=EDGE_CURVE('',#86,#87,#68,.T.);
#101=EDGE_CURVE('',#86,#87,#56,.T.);
#102=EDGE_CURVE('',#88,#88,#57,.T.);
#103=EDGE_CURVE('',#89,#89,#58,.T.);
#104=EDGE_CURVE('',#86,#90,#69,.T.);
#105=EDGE_CURVE('',#91,#90,#59,.T.);
#106=EDGE_CURVE('',#91,#89,#70,.T.);
#107=EDGE_CURVE('',#92,#91,#60,.T.);
#108=EDGE_CURVE('',#87,#92,#71,.T.);
#109=EDGE_CURVE('',#90,#92,#72,.T.);
#110=EDGE_CURVE('',#88,#93,#73,.T.);
#111=EDGE_CURVE('',#93,#93,#61,.T.);
#112=EDGE_CURVE('',#94,#94,#62,.T.);
#113=EDGE_CURVE('',#95,#95,#63,.T.);
#114=EDGE_CURVE('',#95,#96,#74,.T.);
#115=EDGE_CURVE('',#96,#96,#64,.T.);
#116=EDGE_CURVE('',#97,#97,#65,.T.);
#117=EDGE_CURVE('',#97,#94,#75,.T.);
#118=EDGE_CURVE('',#98,#98,#66,.T.);
#119=EDGE_CURVE('',#98,#99,#76,.T.);
#120=EDGE_CURVE('',#99,#99,#67,.T.);
#121=ORIENTED_EDGE('',*,*,#100,.F.);
#122=ORIENTED_EDGE('',*,*,#101,.T.);
#123=ORIENTED_EDGE('',*,*,#102,.T.);
#124=ORIENTED_EDGE('',*,*,#103,.T.);
#125=ORIENTED_EDGE('',*,*,#101,.F.);
#126=ORIENTED_EDGE('',*,*,#104,.T.);
#127=ORIENTED_EDGE('',*,*,#105,.F.);
#128=ORIENTED_EDGE('',*,*,#106,.T.);
#129=ORIENTED_EDGE('',*,*,#103,.F.);
#130=ORIENTED_EDGE('',*,*,#106,.F.);
#131=ORIENTED_EDGE('',*,*,#107,.F.);
#132=ORIENTED_EDGE('',*,*,#108,.F.);
#133=ORIENTED_EDGE('',*,*,#100,.T.);
#134=ORIENTED_EDGE('',*,*,#108,.T.);
#135=ORIENTED_EDGE('',*,*,#109,.F.);
#136=ORIENTED_EDGE('',*,*,#104,.F.);
#137=ORIENTED_EDGE('',*,*,#109,.T.);
#138=ORIENTED_EDGE('',*,*,#107,.T.);
#139=ORIENTED_EDGE('',*,*,#105,.T.);
#140=ORIENTED_EDGE('',*,*,#102,.F.);
#141=ORIENTED_EDGE('',*,*,#110,.T.);
#142=ORIENTED_EDGE('',*,*,#111,.F.);
#143=ORIENTED_EDGE('',*,*,#110,.F.);
#144=ORIENTED_EDGE('',*,*,#112,.T.);
#145=ORIENTED_EDGE('',*,*,#111,.T.);
#146=ORIENTED_EDGE('',*,*,#113,.F.);
#147=ORIENTED_EDGE('',*,*,#114,.T.);
#148=ORIENTED_EDGE('',*,*,#115,.F.);
#149=ORIENTED_EDGE('',*,*,#114,.F.);
#150=ORIENTED_EDGE('',*,*,#113,.T.);
#151=ORIENTED_EDGE('',*,*,#116,.F.);
#152=ORIENTED_EDGE('',*,*,#117,.T.);
#153=ORIENTED_EDGE('',*,*,#112,.F.);
#154=ORIENTED_EDGE('',*,*,#117,.F.);
#155=ORIENTED_EDGE('',*,*,#116,.T.);
#156=ORIENTED_EDGE('',*,*,#115,.T.);
#157=ORIENTED_EDGE('',*,*,#118,.F.);
#158=ORIENTED_EDGE('',*,*,#119,.T.);
#159=ORIENTED_EDGE('',*,*,#120,.F.);
#160=ORIENTED_EDGE('',*,*,#119,.F.);
#161=ORIENTED_EDGE('',*,*,#120,.T.);
#162=ORIENTED_EDGE('',*,*,#118,.T.);
#163=PLANE('',#201);
#164=PLANE('',#203);
#165=PLANE('',#209);
#166=PLANE('',#210);
#167=PLANE('',#213);
#168=PLANE('',#218);
#169=PLANE('',#221);
#170=PLANE('',#225);
#171=PLANE('',#226);
#172=ADVANCED_FACE('',(#25),#163,.T.);
#173=ADVANCED_FACE('',(#26,#22),#164,.T.);
#174=ADVANCED_FACE('',(#27),#17,.T.);
#175=ADVANCED_FACE('',(#28),#165,.T.);
#176=ADVANCED_FACE('',(#29),#166,.T.);
#177=ADVANCED_FACE('',(#30),#18,.T.);
#178=ADVANCED_FACE('',(#31,#23),#167,.T.);
#179=ADVANCED_FACE('',(#32),#19,.T.);
#180=ADVANCED_FACE('',(#33),#168,.T.);
#181=ADVANCED_FACE('',(#34),#20,.T.);
#182=ADVANCED_FACE('',(#35,#24),#169,.T.);
#183=ADVANCED_FACE('',(#36),#21,.T.);
#184=ADVANCED_FACE('',(#37),#170,.T.);
#185=ADVANCED_FACE('',(#38),#171,.T.);
#186=CLOSED_SHELL('',(#172,#173,#174,#175,#176,#177,#178,#179,#180,#181,
#182));
#187=CLOSED_SHELL('',(#183,#184,#185));
#188=DERIVED_UNIT_ELEMENT(#190,1.);
#189=DERIVED_UNIT_ELEMENT(#345,-3.);
#190=(
MASS_UNIT()
NAMED_UNIT(*)
SI_UNIT(.KILO.,.GRAM.)
);
#191=DERIVED_UNIT((#188,#189));
#192=MEASURE_REPRESENTATION_ITEM('density measure',
POSITIVE_RATIO_MEASURE(7850.),#191);
#193=PROPERTY_DEFINITION_REPRESENTATION(#198,#195);
#194=PROPERTY_DEFINITION_REPRESENTATION(#199,#196);
#195=REPRESENTATION('material name',(#197),#342);
#196=REPRESENTATION('density',(#192),#342);
#197=DESCRIPTIVE_REPRESENTATION_ITEM('\X2\94A2\X0\','\X2\94A2\X0\');
#198=PROPERTY_DEFINITION('material property','material name',#352);
#199=PROPERTY_DEFINITION('material property','density of part',#352);
#200=AXIS2_PLACEMENT_3D('',#290,#227,#228);
#201=AXIS2_PLACEMENT_3D('',#291,#229,#230);
#202=AXIS2_PLACEMENT_3D('',#295,#232,#233);
#203=AXIS2_PLACEMENT_3D('',#296,#234,#235);
#204=AXIS2_PLACEMENT_3D('',#298,#236,#237);
#205=AXIS2_PLACEMENT_3D('',#300,#238,#239);
#206=AXIS2_PLACEMENT_3D('',#301,#240,#241);
#207=AXIS2_PLACEMENT_3D('',#305,#243,#244);
#208=AXIS2_PLACEMENT_3D('',#308,#246,#247);
#209=AXIS2_PLACEMENT_3D('',#310,#249,#250);
#210=AXIS2_PLACEMENT_3D('',#312,#252,#253);
#211=AXIS2_PLACEMENT_3D('',#313,#254,#255);
#212=AXIS2_PLACEMENT_3D('',#316,#257,#258);
#213=AXIS2_PLACEMENT_3D('',#317,#259,#260);
#214=AXIS2_PLACEMENT_3D('',#319,#261,#262);
#215=AXIS2_PLACEMENT_3D('',#320,#263,#264);
#216=AXIS2_PLACEMENT_3D('',#322,#265,#266);
#217=AXIS2_PLACEMENT_3D('',#325,#268,#269);
#218=AXIS2_PLACEMENT_3D('',#326,#270,#271);
#219=AXIS2_PLACEMENT_3D('',#327,#272,#273);
#220=AXIS2_PLACEMENT_3D('',#329,#274,#275);
#221=AXIS2_PLACEMENT_3D('',#331,#277,#278);
#222=AXIS2_PLACEMENT_3D('',#332,#279,#280);
#223=AXIS2_PLACEMENT_3D('',#334,#281,#282);
#224=AXIS2_PLACEMENT_3D('',#337,#284,#285);
#225=AXIS2_PLACEMENT_3D('',#338,#286,#287);
#226=AXIS2_PLACEMENT_3D('',#339,#288,#289);
#227=DIRECTION('axis',(0.,0.,1.));
#228=DIRECTION('refdir',(1.,0.,0.));
#229=DIRECTION('center_axis',(0.,-1.,0.));
#230=DIRECTION('ref_axis',(1.,0.,0.));
#231=DIRECTION('',(1.,0.,-3.34744836935922E-16));
#232=DIRECTION('center_axis',(0.,-1.,0.));
#233=DIRECTION('ref_axis',(1.,0.,0.));
#234=DIRECTION('center_axis',(0.,-1.,0.));
#235=DIRECTION('ref_axis',(1.,0.,0.));
#236=DIRECTION('center_axis',(0.,-1.,0.));
#237=DIRECTION('ref_axis',(1.,0.,0.));
#238=DIRECTION('center_axis',(0.,1.,0.));
#239=DIRECTION('ref_axis',(1.,0.,0.));
#240=DIRECTION('center_axis',(0.,-1.,2.11471052309554E-16));
#241=DIRECTION('ref_axis',(0.552770798392567,-1.76225876924628E-16,-0.833333333333333));
#242=DIRECTION('',(0.,-1.,2.11471052309554E-16));
#243=DIRECTION('center_axis',(0.,-1.,2.22044604925031E-16));
#244=DIRECTION('ref_axis',(0.552770798392567,0.,-0.833333333333333));
#245=DIRECTION('',(0.,1.,-2.11471052309554E-16));
#246=DIRECTION('center_axis',(0.,-1.,2.22044604925031E-16));
#247=DIRECTION('ref_axis',(0.552770798392567,0.,-0.833333333333333));
#248=DIRECTION('',(0.,-1.,2.11471052309554E-16));
#249=DIRECTION('center_axis',(-3.34744836935922E-16,-2.11471052309554E-16,
-1.));
#250=DIRECTION('ref_axis',(1.,-7.43282850681308E-32,-3.34744836935922E-16));
#251=DIRECTION('',(1.,-7.43282850681308E-32,-3.34744836935922E-16));
#252=DIRECTION('center_axis',(0.,-1.,2.22044604925031E-16));
#253=DIRECTION('ref_axis',(-1.,0.,0.));
#254=DIRECTION('center_axis',(0.,-1.,0.));
#255=DIRECTION('ref_axis',(1.,0.,0.));
#256=DIRECTION('',(0.,1.,0.));
#257=DIRECTION('center_axis',(0.,1.,-2.22044604925031E-16));
#258=DIRECTION('ref_axis',(1.,0.,0.));
#259=DIRECTION('center_axis',(0.,-1.,2.22044604925031E-16));
#260=DIRECTION('ref_axis',(-1.,0.,0.));
#261=DIRECTION('center_axis',(0.,-1.,2.22044604925031E-16));
#262=DIRECTION('ref_axis',(1.,0.,0.));
#263=DIRECTION('center_axis',(0.,1.,-2.22044604925031E-16));
#264=DIRECTION('ref_axis',(1.,0.,0.));
#265=DIRECTION('center_axis',(0.,1.,-2.22044604925031E-16));
#266=DIRECTION('ref_axis',(1.,0.,0.));
#267=DIRECTION('',(0.,-1.,2.22044604925031E-16));
#268=DIRECTION('center_axis',(0.,-1.,2.22044604925031E-16));
#269=DIRECTION('ref_axis',(1.,0.,0.));
#270=DIRECTION('center_axis',(0.,1.,-2.22044604925031E-16));
#271=DIRECTION('ref_axis',(1.,0.,0.));
#272=DIRECTION('center_axis',(0.,1.,-2.22044604925031E-16));
#273=DIRECTION('ref_axis',(1.,0.,0.));
#274=DIRECTION('center_axis',(0.,1.,-2.22044604925031E-16));
#275=DIRECTION('ref_axis',(1.,0.,0.));
#276=DIRECTION('',(0.,-1.,2.22044604925031E-16));
#277=DIRECTION('center_axis',(0.,1.,-2.22044604925031E-16));
#278=DIRECTION('ref_axis',(1.,0.,0.));
#279=DIRECTION('center_axis',(0.,1.,-2.22044604925031E-16));
#280=DIRECTION('ref_axis',(1.,0.,0.));
#281=DIRECTION('center_axis',(0.,1.,-2.22044604925031E-16));
#282=DIRECTION('ref_axis',(1.,0.,0.));
#283=DIRECTION('',(0.,-1.,2.22044604925031E-16));
#284=DIRECTION('center_axis',(0.,-1.,2.22044604925031E-16));
#285=DIRECTION('ref_axis',(1.,0.,0.));
#286=DIRECTION('center_axis',(0.,-1.,2.22044604925031E-16));
#287=DIRECTION('ref_axis',(-1.,0.,0.));
#288=DIRECTION('center_axis',(0.,1.,-2.22044604925031E-16));
#289=DIRECTION('ref_axis',(1.,0.,0.));
#290=CARTESIAN_POINT('',(0.,0.,0.));
#291=CARTESIAN_POINT('Origin',(-1.11022302462516E-15,-9.,-7.5));
#292=CARTESIAN_POINT('',(-1.6583123951777,-9.,-10.));
#293=CARTESIAN_POINT('',(1.6583123951777,-9.,-10.));
#294=CARTESIAN_POINT('',(-0.829156197588853,-9.,-10.));
#295=CARTESIAN_POINT('Origin',(-1.11022302462516E-15,-9.,-7.5));
#296=CARTESIAN_POINT('Origin',(-1.11022302462516E-15,-6.,-7.5));
#297=CARTESIAN_POINT('',(-6.,-6.,-7.5));
#298=CARTESIAN_POINT('Origin',(-1.11022302462516E-15,-6.,-7.5));
#299=CARTESIAN_POINT('',(-1.6583123951777,-6.,-4.99999999999999));
#300=CARTESIAN_POINT('Origin',(-1.11022302462516E-15,-6.,-7.5));
#301=CARTESIAN_POINT('Origin',(-1.11022302462516E-15,0.,-7.5));
#302=CARTESIAN_POINT('',(-1.6583123951777,-21.,-10.));
#303=CARTESIAN_POINT('',(-1.6583123951777,-2.46519032881566E-31,-10.));
#304=CARTESIAN_POINT('',(-1.6583123951777,-21.,-4.99999999999999));
#305=CARTESIAN_POINT('Origin',(-1.11022302462516E-15,-21.,-7.49999999999999));
#306=CARTESIAN_POINT('',(-1.6583123951777,5.28677630773884E-16,-5.));
#307=CARTESIAN_POINT('',(1.6583123951777,-21.,-10.));
#308=CARTESIAN_POINT('Origin',(-1.11022302462516E-15,-21.,-7.49999999999999));
#309=CARTESIAN_POINT('',(1.6583123951777,-2.46519032881566E-31,-10.));
#310=CARTESIAN_POINT('Origin',(-1.6583123951777,-2.22044604925031E-15,-10.));
#311=CARTESIAN_POINT('',(0.829156197588849,-21.,-10.));
#312=CARTESIAN_POINT('Origin',(0.,-21.,4.44089209850063E-15));
#313=CARTESIAN_POINT('Origin',(-1.11022302462516E-15,-2.46519032881566E-31,
-7.5));
#314=CARTESIAN_POINT('',(-6.,-2.46519032881566E-31,-7.5));
#315=CARTESIAN_POINT('',(-6.,-2.46519032881566E-31,-7.5));
#316=CARTESIAN_POINT('Origin',(-1.11022302462516E-15,0.,-7.5));
#317=CARTESIAN_POINT('Origin',(0.,0.,0.));
#318=CARTESIAN_POINT('',(-18.5,0.,2.2655965784226E-15));
#319=CARTESIAN_POINT('Origin',(0.,0.,0.));
#320=CARTESIAN_POINT('Origin',(0.,35.,-1.99840144432528E-15));
#321=CARTESIAN_POINT('',(-16.,46.,-2.48145721986486E-15));
#322=CARTESIAN_POINT('Origin',(0.,46.,-4.44089209850063E-15));
#323=CARTESIAN_POINT('',(-16.,24.,2.40352408848583E-15));
#324=CARTESIAN_POINT('',(-16.,35.,-3.89665656895168E-17));
#325=CARTESIAN_POINT('Origin',(0.,24.,4.44089209850062E-16));
#326=CARTESIAN_POINT('Origin',(0.,46.,-4.44089209850063E-15));
#327=CARTESIAN_POINT('Origin',(0.,12.,-2.66453525910038E-15));
#328=CARTESIAN_POINT('',(-18.5,24.,-3.06347393977815E-15));
#329=CARTESIAN_POINT('Origin',(0.,24.,-5.32907051820075E-15));
#330=CARTESIAN_POINT('',(-18.5,12.,-3.98938680677772E-16));
#331=CARTESIAN_POINT('Origin',(0.,24.,-5.32907051820075E-15));
#332=CARTESIAN_POINT('Origin',(0.,51.5,-1.22124532708767E-15));
#333=CARTESIAN_POINT('',(-16.,57.,-4.83055775539579E-16));
#334=CARTESIAN_POINT('Origin',(0.,57.,-2.44249065417534E-15));
#335=CARTESIAN_POINT('',(-16.,46.,1.95943487863577E-15));
#336=CARTESIAN_POINT('',(-16.,51.5,7.38189551548093E-16));
#337=CARTESIAN_POINT('Origin',(0.,46.,0.));
#338=CARTESIAN_POINT('Origin',(0.,46.,0.));
#339=CARTESIAN_POINT('Origin',(0.,57.,-2.44249065417534E-15));
#340=UNCERTAINTY_MEASURE_WITH_UNIT(LENGTH_MEASURE(0.01),#344,
'DISTANCE_ACCURACY_VALUE',
'Maximum model space distance between geometric entities at asserted c
onnectivities');
#341=UNCERTAINTY_MEASURE_WITH_UNIT(LENGTH_MEASURE(0.01),#344,
'DISTANCE_ACCURACY_VALUE',
'Maximum model space distance between geometric entities at asserted c
onnectivities');
#342=(
GEOMETRIC_REPRESENTATION_CONTEXT(3)
GLOBAL_UNCERTAINTY_ASSIGNED_CONTEXT((#340))
GLOBAL_UNIT_ASSIGNED_CONTEXT((#344,#346,#347))
REPRESENTATION_CONTEXT('','3D')
);
#343=(
GEOMETRIC_REPRESENTATION_CONTEXT(3)
GLOBAL_UNCERTAINTY_ASSIGNED_CONTEXT((#341))
GLOBAL_UNIT_ASSIGNED_CONTEXT((#344,#346,#347))
REPRESENTATION_CONTEXT('','3D')
);
#344=(
LENGTH_UNIT()
NAMED_UNIT(*)
SI_UNIT(.MILLI.,.METRE.)
);
#345=(
LENGTH_UNIT()
NAMED_UNIT(*)
SI_UNIT($,.METRE.)
);
#346=(
NAMED_UNIT(*)
PLANE_ANGLE_UNIT()
SI_UNIT($,.RADIAN.)
);
#347=(
NAMED_UNIT(*)
SI_UNIT($,.STERADIAN.)
SOLID_ANGLE_UNIT()
);
#348=SHAPE_DEFINITION_REPRESENTATION(#349,#350);
#349=PRODUCT_DEFINITION_SHAPE('',$,#352);
#350=SHAPE_REPRESENTATION('',(#200),#342);
#351=PRODUCT_DEFINITION_CONTEXT('part definition',#356,'design');
#352=PRODUCT_DEFINITION('2026-05-27-19-27-58-394','\X2\7535673A\X0\',#353,
#351);
#353=PRODUCT_DEFINITION_FORMATION('',$,#358);
#354=PRODUCT_RELATED_PRODUCT_CATEGORY('\X2\7535673A\X0\','\X2\7535673A\X0\',
(#358));
#355=APPLICATION_PROTOCOL_DEFINITION('international standard',
'automotive_design',2009,#356);
#356=APPLICATION_CONTEXT(
'Core Data for Automotive Mechanical Design Process');
#357=PRODUCT_CONTEXT('part definition',#356,'mechanical');
#358=PRODUCT('2026-05-27-19-27-58-394','\X2\7535673A\X0\',$,(#357));
#359=PRESENTATION_STYLE_ASSIGNMENT((#360));
#360=SURFACE_STYLE_USAGE(.BOTH.,#361);
#361=SURFACE_SIDE_STYLE('',(#362));
#362=SURFACE_STYLE_FILL_AREA(#363);
#363=FILL_AREA_STYLE('\X2\94A2\X0\ - \X2\7F0E5149\X0\',(#364));
#364=FILL_AREA_STYLE_COLOUR('\X2\94A2\X0\ - \X2\7F0E5149\X0\',#365);
#365=COLOUR_RGB('\X2\94A2\X0\ - \X2\7F0E5149\X0\',0.627450980392157,0.627450980392157,
0.627450980392157);
ENDSEC;
END-ISO-10303-21;
