ISO-10303-21;
HEADER;
/* Generated by software containing ST-Developer
 * from STEP Tools, Inc. (www.steptools.com) 
 */

FILE_DESCRIPTION(
/* description */ (''),
/* implementation_level */ '2;1');

FILE_NAME(
/* name */ '',
/* time_stamp */ '2026-05-27T21:11:10+08:00',
/* author */ (''),
/* organization */ (''),
/* preprocessor_version */ 'ST-DEVELOPER v20.1',
/* originating_system */ 'Autodesk Translation Framework v15.8.0.0',
/* authorisation */ '');

FILE_SCHEMA (('AUTOMOTIVE_DESIGN { 1 0 10303 214 3 1 1 }'));
ENDSEC;

DATA;
#10=MECHANICAL_DESIGN_GEOMETRIC_PRESENTATION_REPRESENTATION('',(#13),#378);
#11=SHAPE_REPRESENTATION_RELATIONSHIP('SRR','None',#385,#12);
#12=ADVANCED_BREP_SHAPE_REPRESENTATION('',(#14),#377);
#13=STYLED_ITEM('',(#394),#14);
#14=MANIFOLD_SOLID_BREP('\X2\5B9E4F53\X0\1',#222);
#15=FACE_BOUND('',#44,.T.);
#16=FACE_BOUND('',#53,.T.);
#17=FACE_BOUND('',#56,.T.);
#18=FACE_BOUND('',#58,.T.);
#19=PLANE('',#239);
#20=PLANE('',#243);
#21=PLANE('',#244);
#22=PLANE('',#245);
#23=PLANE('',#246);
#24=PLANE('',#247);
#25=PLANE('',#248);
#26=PLANE('',#249);
#27=PLANE('',#253);
#28=PLANE('',#254);
#29=FACE_OUTER_BOUND('',#42,.T.);
#30=FACE_OUTER_BOUND('',#43,.T.);
#31=FACE_OUTER_BOUND('',#45,.T.);
#32=FACE_OUTER_BOUND('',#46,.T.);
#33=FACE_OUTER_BOUND('',#47,.T.);
#34=FACE_OUTER_BOUND('',#48,.T.);
#35=FACE_OUTER_BOUND('',#49,.T.);
#36=FACE_OUTER_BOUND('',#50,.T.);
#37=FACE_OUTER_BOUND('',#51,.T.);
#38=FACE_OUTER_BOUND('',#52,.T.);
#39=FACE_OUTER_BOUND('',#54,.T.);
#40=FACE_OUTER_BOUND('',#55,.T.);
#41=FACE_OUTER_BOUND('',#57,.T.);
#42=EDGE_LOOP('',(#152,#153,#154,#155));
#43=EDGE_LOOP('',(#156));
#44=EDGE_LOOP('',(#157));
#45=EDGE_LOOP('',(#158,#159,#160,#161));
#46=EDGE_LOOP('',(#162,#163,#164,#165));
#47=EDGE_LOOP('',(#166,#167,#168,#169));
#48=EDGE_LOOP('',(#170,#171,#172,#173));
#49=EDGE_LOOP('',(#174,#175,#176,#177));
#50=EDGE_LOOP('',(#178,#179,#180,#181));
#51=EDGE_LOOP('',(#182,#183,#184,#185));
#52=EDGE_LOOP('',(#186,#187,#188,#189,#190,#191));
#53=EDGE_LOOP('',(#192));
#54=EDGE_LOOP('',(#193,#194,#195,#196));
#55=EDGE_LOOP('',(#197));
#56=EDGE_LOOP('',(#198));
#57=EDGE_LOOP('',(#199));
#58=EDGE_LOOP('',(#200,#201,#202,#203,#204,#205));
#59=LINE('',#321,#80);
#60=LINE('',#329,#81);
#61=LINE('',#333,#82);
#62=LINE('',#335,#83);
#63=LINE('',#337,#84);
#64=LINE('',#338,#85);
#65=LINE('',#341,#86);
#66=LINE('',#343,#87);
#67=LINE('',#344,#88);
#68=LINE('',#347,#89);
#69=LINE('',#349,#90);
#70=LINE('',#350,#91);
#71=LINE('',#353,#92);
#72=LINE('',#355,#93);
#73=LINE('',#356,#94);
#74=LINE('',#359,#95);
#75=LINE('',#361,#96);
#76=LINE('',#362,#97);
#77=LINE('',#364,#98);
#78=LINE('',#365,#99);
#79=LINE('',#371,#100);
#80=VECTOR('',#261,3.);
#81=VECTOR('',#272,2.);
#82=VECTOR('',#275,10.);
#83=VECTOR('',#276,10.);
#84=VECTOR('',#277,10.);
#85=VECTOR('',#278,10.);
#86=VECTOR('',#281,10.);
#87=VECTOR('',#282,10.);
#88=VECTOR('',#283,10.);
#89=VECTOR('',#286,10.);
#90=VECTOR('',#287,10.);
#91=VECTOR('',#288,10.);
#92=VECTOR('',#291,10.);
#93=VECTOR('',#292,10.);
#94=VECTOR('',#293,10.);
#95=VECTOR('',#296,10.);
#96=VECTOR('',#297,10.);
#97=VECTOR('',#298,10.);
#98=VECTOR('',#301,10.);
#99=VECTOR('',#302,10.);
#100=VECTOR('',#309,10.);
#101=CIRCLE('',#237,3.);
#102=CIRCLE('',#238,3.);
#103=CIRCLE('',#240,2.);
#104=CIRCLE('',#242,2.);
#105=CIRCLE('',#251,10.);
#106=CIRCLE('',#252,10.);
#107=VERTEX_POINT('',#318);
#108=VERTEX_POINT('',#320);
#109=VERTEX_POINT('',#324);
#110=VERTEX_POINT('',#327);
#111=VERTEX_POINT('',#331);
#112=VERTEX_POINT('',#332);
#113=VERTEX_POINT('',#334);
#114=VERTEX_POINT('',#336);
#115=VERTEX_POINT('',#340);
#116=VERTEX_POINT('',#342);
#117=VERTEX_POINT('',#346);
#118=VERTEX_POINT('',#348);
#119=VERTEX_POINT('',#352);
#120=VERTEX_POINT('',#354);
#121=VERTEX_POINT('',#358);
#122=VERTEX_POINT('',#360);
#123=VERTEX_POINT('',#368);
#124=VERTEX_POINT('',#370);
#125=EDGE_CURVE('',#107,#107,#101,.T.);
#126=EDGE_CURVE('',#107,#108,#59,.T.);
#127=EDGE_CURVE('',#108,#108,#102,.T.);
#128=EDGE_CURVE('',#109,#109,#103,.T.);
#129=EDGE_CURVE('',#110,#110,#104,.T.);
#130=EDGE_CURVE('',#110,#109,#60,.T.);
#131=EDGE_CURVE('',#111,#112,#61,.T.);
#132=EDGE_CURVE('',#111,#113,#62,.T.);
#133=EDGE_CURVE('',#114,#113,#63,.T.);
#134=EDGE_CURVE('',#112,#114,#64,.T.);
#135=EDGE_CURVE('',#112,#115,#65,.T.);
#136=EDGE_CURVE('',#116,#114,#66,.T.);
#137=EDGE_CURVE('',#115,#116,#67,.T.);
#138=EDGE_CURVE('',#115,#117,#68,.T.);
#139=EDGE_CURVE('',#118,#116,#69,.T.);
#140=EDGE_CURVE('',#117,#118,#70,.T.);
#141=EDGE_CURVE('',#117,#119,#71,.T.);
#142=EDGE_CURVE('',#120,#118,#72,.T.);
#143=EDGE_CURVE('',#119,#120,#73,.T.);
#144=EDGE_CURVE('',#119,#121,#74,.T.);
#145=EDGE_CURVE('',#122,#120,#75,.T.);
#146=EDGE_CURVE('',#121,#122,#76,.T.);
#147=EDGE_CURVE('',#121,#111,#77,.T.);
#148=EDGE_CURVE('',#113,#122,#78,.T.);
#149=EDGE_CURVE('',#123,#123,#105,.T.);
#150=EDGE_CURVE('',#123,#124,#79,.T.);
#151=EDGE_CURVE('',#124,#124,#106,.T.);
#152=ORIENTED_EDGE('',*,*,#125,.T.);
#153=ORIENTED_EDGE('',*,*,#126,.T.);
#154=ORIENTED_EDGE('',*,*,#127,.F.);
#155=ORIENTED_EDGE('',*,*,#126,.F.);
#156=ORIENTED_EDGE('',*,*,#125,.F.);
#157=ORIENTED_EDGE('',*,*,#128,.F.);
#158=ORIENTED_EDGE('',*,*,#129,.F.);
#159=ORIENTED_EDGE('',*,*,#130,.T.);
#160=ORIENTED_EDGE('',*,*,#128,.T.);
#161=ORIENTED_EDGE('',*,*,#130,.F.);
#162=ORIENTED_EDGE('',*,*,#131,.F.);
#163=ORIENTED_EDGE('',*,*,#132,.T.);
#164=ORIENTED_EDGE('',*,*,#133,.F.);
#165=ORIENTED_EDGE('',*,*,#134,.F.);
#166=ORIENTED_EDGE('',*,*,#135,.F.);
#167=ORIENTED_EDGE('',*,*,#134,.T.);
#168=ORIENTED_EDGE('',*,*,#136,.F.);
#169=ORIENTED_EDGE('',*,*,#137,.F.);
#170=ORIENTED_EDGE('',*,*,#138,.F.);
#171=ORIENTED_EDGE('',*,*,#137,.T.);
#172=ORIENTED_EDGE('',*,*,#139,.F.);
#173=ORIENTED_EDGE('',*,*,#140,.F.);
#174=ORIENTED_EDGE('',*,*,#141,.F.);
#175=ORIENTED_EDGE('',*,*,#140,.T.);
#176=ORIENTED_EDGE('',*,*,#142,.F.);
#177=ORIENTED_EDGE('',*,*,#143,.F.);
#178=ORIENTED_EDGE('',*,*,#144,.F.);
#179=ORIENTED_EDGE('',*,*,#143,.T.);
#180=ORIENTED_EDGE('',*,*,#145,.F.);
#181=ORIENTED_EDGE('',*,*,#146,.F.);
#182=ORIENTED_EDGE('',*,*,#147,.F.);
#183=ORIENTED_EDGE('',*,*,#146,.T.);
#184=ORIENTED_EDGE('',*,*,#148,.F.);
#185=ORIENTED_EDGE('',*,*,#132,.F.);
#186=ORIENTED_EDGE('',*,*,#148,.T.);
#187=ORIENTED_EDGE('',*,*,#145,.T.);
#188=ORIENTED_EDGE('',*,*,#142,.T.);
#189=ORIENTED_EDGE('',*,*,#139,.T.);
#190=ORIENTED_EDGE('',*,*,#136,.T.);
#191=ORIENTED_EDGE('',*,*,#133,.T.);
#192=ORIENTED_EDGE('',*,*,#129,.T.);
#193=ORIENTED_EDGE('',*,*,#149,.F.);
#194=ORIENTED_EDGE('',*,*,#150,.T.);
#195=ORIENTED_EDGE('',*,*,#151,.F.);
#196=ORIENTED_EDGE('',*,*,#150,.F.);
#197=ORIENTED_EDGE('',*,*,#151,.T.);
#198=ORIENTED_EDGE('',*,*,#127,.T.);
#199=ORIENTED_EDGE('',*,*,#149,.T.);
#200=ORIENTED_EDGE('',*,*,#131,.T.);
#201=ORIENTED_EDGE('',*,*,#135,.T.);
#202=ORIENTED_EDGE('',*,*,#138,.T.);
#203=ORIENTED_EDGE('',*,*,#141,.T.);
#204=ORIENTED_EDGE('',*,*,#144,.T.);
#205=ORIENTED_EDGE('',*,*,#147,.T.);
#206=CYLINDRICAL_SURFACE('',#236,3.);
#207=CYLINDRICAL_SURFACE('',#241,2.);
#208=CYLINDRICAL_SURFACE('',#250,10.);
#209=ADVANCED_FACE('',(#29),#206,.F.);
#210=ADVANCED_FACE('',(#30,#15),#19,.F.);
#211=ADVANCED_FACE('',(#31),#207,.F.);
#212=ADVANCED_FACE('',(#32),#20,.T.);
#213=ADVANCED_FACE('',(#33),#21,.T.);
#214=ADVANCED_FACE('',(#34),#22,.T.);
#215=ADVANCED_FACE('',(#35),#23,.T.);
#216=ADVANCED_FACE('',(#36),#24,.T.);
#217=ADVANCED_FACE('',(#37),#25,.T.);
#218=ADVANCED_FACE('',(#38,#16),#26,.T.);
#219=ADVANCED_FACE('',(#39),#208,.T.);
#220=ADVANCED_FACE('',(#40,#17),#27,.T.);
#221=ADVANCED_FACE('',(#41,#18),#28,.T.);
#222=CLOSED_SHELL('',(#209,#210,#211,#212,#213,#214,#215,#216,#217,#218,
#219,#220,#221));
#223=DERIVED_UNIT_ELEMENT(#225,1.);
#224=DERIVED_UNIT_ELEMENT(#380,-3.);
#225=(
MASS_UNIT()
NAMED_UNIT(*)
SI_UNIT(.KILO.,.GRAM.)
);
#226=DERIVED_UNIT((#223,#224));
#227=MEASURE_REPRESENTATION_ITEM('density measure',
POSITIVE_RATIO_MEASURE(7850.),#226);
#228=PROPERTY_DEFINITION_REPRESENTATION(#233,#230);
#229=PROPERTY_DEFINITION_REPRESENTATION(#234,#231);
#230=REPRESENTATION('material name',(#232),#377);
#231=REPRESENTATION('density',(#227),#377);
#232=DESCRIPTIVE_REPRESENTATION_ITEM('\X2\94A2\X0\','\X2\94A2\X0\');
#233=PROPERTY_DEFINITION('material property','material name',#387);
#234=PROPERTY_DEFINITION('material property','density of part',#387);
#235=AXIS2_PLACEMENT_3D('',#316,#255,#256);
#236=AXIS2_PLACEMENT_3D('',#317,#257,#258);
#237=AXIS2_PLACEMENT_3D('',#319,#259,#260);
#238=AXIS2_PLACEMENT_3D('',#322,#262,#263);
#239=AXIS2_PLACEMENT_3D('',#323,#264,#265);
#240=AXIS2_PLACEMENT_3D('',#325,#266,#267);
#241=AXIS2_PLACEMENT_3D('',#326,#268,#269);
#242=AXIS2_PLACEMENT_3D('',#328,#270,#271);
#243=AXIS2_PLACEMENT_3D('',#330,#273,#274);
#244=AXIS2_PLACEMENT_3D('',#339,#279,#280);
#245=AXIS2_PLACEMENT_3D('',#345,#284,#285);
#246=AXIS2_PLACEMENT_3D('',#351,#289,#290);
#247=AXIS2_PLACEMENT_3D('',#357,#294,#295);
#248=AXIS2_PLACEMENT_3D('',#363,#299,#300);
#249=AXIS2_PLACEMENT_3D('',#366,#303,#304);
#250=AXIS2_PLACEMENT_3D('',#367,#305,#306);
#251=AXIS2_PLACEMENT_3D('',#369,#307,#308);
#252=AXIS2_PLACEMENT_3D('',#372,#310,#311);
#253=AXIS2_PLACEMENT_3D('',#373,#312,#313);
#254=AXIS2_PLACEMENT_3D('',#374,#314,#315);
#255=DIRECTION('axis',(0.,0.,1.));
#256=DIRECTION('refdir',(1.,0.,0.));
#257=DIRECTION('center_axis',(0.,-1.,2.22044604925031E-16));
#258=DIRECTION('ref_axis',(0.,-2.22044604925031E-16,-1.));
#259=DIRECTION('center_axis',(0.,1.,-2.22044604925031E-16));
#260=DIRECTION('ref_axis',(0.,-2.22044604925031E-16,-1.));
#261=DIRECTION('',(0.,-1.,2.22044604925031E-16));
#262=DIRECTION('center_axis',(0.,1.,-2.22044604925031E-16));
#263=DIRECTION('ref_axis',(0.,-2.22044604925031E-16,-1.));
#264=DIRECTION('center_axis',(0.,1.,-2.22044604925031E-16));
#265=DIRECTION('ref_axis',(0.,2.22044604925031E-16,1.));
#266=DIRECTION('center_axis',(0.,-1.,2.22044604925031E-16));
#267=DIRECTION('ref_axis',(0.,-2.22044604925031E-16,-1.));
#268=DIRECTION('center_axis',(0.,-1.,2.22044604925031E-16));
#269=DIRECTION('ref_axis',(0.,-2.22044604925031E-16,-1.));
#270=DIRECTION('center_axis',(0.,-1.,0.));
#271=DIRECTION('ref_axis',(0.,-2.22044604925031E-16,-1.));
#272=DIRECTION('',(0.,-1.,2.22044604925031E-16));
#273=DIRECTION('center_axis',(-0.866025403782826,0.,-0.500000000002794));
#274=DIRECTION('ref_axis',(-0.500000000002794,0.,0.866025403782825));
#275=DIRECTION('',(0.500000000002794,-1.92296268637998E-16,-0.866025403782825));
#276=DIRECTION('',(0.,1.,0.));
#277=DIRECTION('',(-0.500000000002794,0.,0.866025403782825));
#278=DIRECTION('',(0.,1.,0.));
#279=DIRECTION('center_axis',(1.60246890531803E-16,0.,-1.));
#280=DIRECTION('ref_axis',(-1.,0.,-1.60246890531803E-16));
#281=DIRECTION('',(1.,3.5581957498599E-32,1.60246890531803E-16));
#282=DIRECTION('',(-1.,0.,-1.60246890531803E-16));
#283=DIRECTION('',(0.,1.,0.));
#284=DIRECTION('center_axis',(0.866025403784315,0.,-0.500000000000214));
#285=DIRECTION('ref_axis',(-0.500000000000214,0.,-0.866025403784315));
#286=DIRECTION('',(0.500000000000214,1.92296268638329E-16,0.866025403784315));
#287=DIRECTION('',(-0.500000000000214,0.,-0.866025403784315));
#288=DIRECTION('',(0.,1.,0.));
#289=DIRECTION('center_axis',(0.866025403782826,0.,0.500000000002793));
#290=DIRECTION('ref_axis',(0.500000000002793,0.,-0.866025403782826));
#291=DIRECTION('',(-0.500000000002793,1.92296268637998E-16,0.866025403782826));
#292=DIRECTION('',(0.500000000002793,0.,-0.866025403782826));
#293=DIRECTION('',(0.,1.,0.));
#294=DIRECTION('center_axis',(-6.40987562127212E-16,0.,1.));
#295=DIRECTION('ref_axis',(1.,0.,6.40987562127212E-16));
#296=DIRECTION('',(-1.,-1.42327829994396E-31,-6.40987562127212E-16));
#297=DIRECTION('',(1.,0.,6.40987562127212E-16));
#298=DIRECTION('',(0.,1.,0.));
#299=DIRECTION('center_axis',(-0.866025403784315,0.,0.500000000000215));
#300=DIRECTION('ref_axis',(0.500000000000215,0.,0.866025403784315));
#301=DIRECTION('',(-0.500000000000215,-1.92296268638329E-16,-0.866025403784315));
#302=DIRECTION('',(0.500000000000215,0.,0.866025403784315));
#303=DIRECTION('center_axis',(0.,1.,0.));
#304=DIRECTION('ref_axis',(0.,0.,1.));
#305=DIRECTION('center_axis',(0.,1.,-2.22044604925031E-16));
#306=DIRECTION('ref_axis',(1.,0.,0.));
#307=DIRECTION('center_axis',(0.,1.,-2.22044604925031E-16));
#308=DIRECTION('ref_axis',(1.,0.,0.));
#309=DIRECTION('',(0.,-1.,2.22044604925031E-16));
#310=DIRECTION('center_axis',(0.,-1.,2.22044604925031E-16));
#311=DIRECTION('ref_axis',(1.,0.,0.));
#312=DIRECTION('center_axis',(0.,-1.,2.22044604925031E-16));
#313=DIRECTION('ref_axis',(-1.,0.,0.));
#314=DIRECTION('center_axis',(0.,1.,-2.22044604925031E-16));
#315=DIRECTION('ref_axis',(1.,0.,0.));
#316=CARTESIAN_POINT('',(0.,0.,0.));
#317=CARTESIAN_POINT('Origin',(0.,5.9,1.31006316905768E-15));
#318=CARTESIAN_POINT('',(-3.67394039744206E-16,11.8,3.));
#319=CARTESIAN_POINT('Origin',(0.,11.8,0.));
#320=CARTESIAN_POINT('',(-3.67394039744206E-16,1.11022302462516E-15,3.));
#321=CARTESIAN_POINT('',(-3.67394039744206E-16,5.9,3.));
#322=CARTESIAN_POINT('Origin',(0.,0.,2.62012633811537E-15));
#323=CARTESIAN_POINT('Origin',(0.,11.8,0.));
#324=CARTESIAN_POINT('',(-2.44929359829471E-16,11.8,2.));
#325=CARTESIAN_POINT('Origin',(0.,11.8,1.26565424807268E-15));
#326=CARTESIAN_POINT('Origin',(0.,14.65,6.32827124036339E-16));
#327=CARTESIAN_POINT('',(-2.44929359829471E-16,17.5,2.));
#328=CARTESIAN_POINT('Origin',(0.,17.5,-2.46519032881566E-31));
#329=CARTESIAN_POINT('',(-2.44929359829471E-16,14.65,2.));
#330=CARTESIAN_POINT('Origin',(-3.46410161513229,11.,-6.));
#331=CARTESIAN_POINT('',(-6.92820323029288,11.,-5.15698594938385E-12));
#332=CARTESIAN_POINT('',(-3.46410161513229,11.,-6.));
#333=CARTESIAN_POINT('',(-4.33012701891741,11.,-4.50000000000999));
#334=CARTESIAN_POINT('',(-6.92820323029288,17.5,-5.15698594938385E-12));
#335=CARTESIAN_POINT('',(-6.92820323029288,11.,-5.15698594938385E-12));
#336=CARTESIAN_POINT('',(-3.46410161513229,17.5,-6.));
#337=CARTESIAN_POINT('',(-6.92820323029288,17.5,-5.15698594938385E-12));
#338=CARTESIAN_POINT('',(-3.46410161513229,11.,-6.));
#339=CARTESIAN_POINT('Origin',(3.46410161515016,11.,-6.));
#340=CARTESIAN_POINT('',(3.46410161515016,11.,-6.));
#341=CARTESIAN_POINT('',(1.73205080757508,11.,-6.));
#342=CARTESIAN_POINT('',(3.46410161515016,17.5,-6.));
#343=CARTESIAN_POINT('',(-3.46410161513229,17.5,-6.));
#344=CARTESIAN_POINT('',(3.46410161515016,11.,-6.));
#345=CARTESIAN_POINT('Origin',(6.92820323029287,11.,5.1636472875316E-12));
#346=CARTESIAN_POINT('',(6.92820323029287,11.,5.16420239904392E-12));
#347=CARTESIAN_POINT('',(6.0621778265044,11.,-1.50000000000096));
#348=CARTESIAN_POINT('',(6.92820323029287,17.5,5.16475751055623E-12));
#349=CARTESIAN_POINT('',(3.46410161515016,17.5,-6.));
#350=CARTESIAN_POINT('',(6.92820323029287,11.,5.16420239904392E-12));
#351=CARTESIAN_POINT('Origin',(3.46410161513229,11.,6.));
#352=CARTESIAN_POINT('',(3.46410161513229,11.,6.));
#353=CARTESIAN_POINT('',(4.33012701891741,11.,4.50000000000999));
#354=CARTESIAN_POINT('',(3.46410161513229,17.5,6.));
#355=CARTESIAN_POINT('',(6.92820323029287,17.5,5.16420239904392E-12));
#356=CARTESIAN_POINT('',(3.46410161513229,11.,6.));
#357=CARTESIAN_POINT('Origin',(-3.46410161515016,11.,6.));
#358=CARTESIAN_POINT('',(-3.46410161515016,11.,6.));
#359=CARTESIAN_POINT('',(-1.73205080757508,11.,6.));
#360=CARTESIAN_POINT('',(-3.46410161515016,17.5,6.));
#361=CARTESIAN_POINT('',(3.46410161513229,17.5,6.));
#362=CARTESIAN_POINT('',(-3.46410161515016,11.,6.));
#363=CARTESIAN_POINT('Origin',(-6.92820323029288,11.,-5.15698594938385E-12));
#364=CARTESIAN_POINT('',(-6.06217782650441,11.,1.50000000000097));
#365=CARTESIAN_POINT('',(-3.46410161515016,17.5,6.));
#366=CARTESIAN_POINT('Origin',(-5.55111512312578E-15,17.5,0.));
#367=CARTESIAN_POINT('Origin',(0.,5.5,-1.22124532708767E-15));
#368=CARTESIAN_POINT('',(-10.,11.,-1.21784385502799E-15));
#369=CARTESIAN_POINT('Origin',(0.,11.,-2.44249065417534E-15));
#370=CARTESIAN_POINT('',(-10.,0.,1.22464679914735E-15));
#371=CARTESIAN_POINT('',(-10.,5.5,3.40147205968116E-18));
#372=CARTESIAN_POINT('Origin',(0.,0.,0.));
#373=CARTESIAN_POINT('Origin',(0.,0.,0.));
#374=CARTESIAN_POINT('Origin',(0.,11.,-2.44249065417534E-15));
#375=UNCERTAINTY_MEASURE_WITH_UNIT(LENGTH_MEASURE(0.01),#379,
'DISTANCE_ACCURACY_VALUE',
'Maximum model space distance between geometric entities at asserted c
onnectivities');
#376=UNCERTAINTY_MEASURE_WITH_UNIT(LENGTH_MEASURE(0.01),#379,
'DISTANCE_ACCURACY_VALUE',
'Maximum model space distance between geometric entities at asserted c
onnectivities');
#377=(
GEOMETRIC_REPRESENTATION_CONTEXT(3)
GLOBAL_UNCERTAINTY_ASSIGNED_CONTEXT((#375))
GLOBAL_UNIT_ASSIGNED_CONTEXT((#379,#381,#382))
REPRESENTATION_CONTEXT('','3D')
);
#378=(
GEOMETRIC_REPRESENTATION_CONTEXT(3)
GLOBAL_UNCERTAINTY_ASSIGNED_CONTEXT((#376))
GLOBAL_UNIT_ASSIGNED_CONTEXT((#379,#381,#382))
REPRESENTATION_CONTEXT('','3D')
);
#379=(
LENGTH_UNIT()
NAMED_UNIT(*)
SI_UNIT(.MILLI.,.METRE.)
);
#380=(
LENGTH_UNIT()
NAMED_UNIT(*)
SI_UNIT($,.METRE.)
);
#381=(
NAMED_UNIT(*)
PLANE_ANGLE_UNIT()
SI_UNIT($,.RADIAN.)
);
#382=(
NAMED_UNIT(*)
SI_UNIT($,.STERADIAN.)
SOLID_ANGLE_UNIT()
);
#383=SHAPE_DEFINITION_REPRESENTATION(#384,#385);
#384=PRODUCT_DEFINITION_SHAPE('',$,#387);
#385=SHAPE_REPRESENTATION('',(#235),#377);
#386=PRODUCT_DEFINITION_CONTEXT('part definition',#391,'design');
#387=PRODUCT_DEFINITION('2026-05-27-20-20-33-516','\X2\80548F745668\X0\',
#388,#386);
#388=PRODUCT_DEFINITION_FORMATION('',$,#393);
#389=PRODUCT_RELATED_PRODUCT_CATEGORY('\X2\80548F745668\X0\',
'\X2\80548F745668\X0\',(#393));
#390=APPLICATION_PROTOCOL_DEFINITION('international standard',
'automotive_design',2009,#391);
#391=APPLICATION_CONTEXT(
'Core Data for Automotive Mechanical Design Process');
#392=PRODUCT_CONTEXT('part definition',#391,'mechanical');
#393=PRODUCT('2026-05-27-20-20-33-516','\X2\80548F745668\X0\',$,(#392));
#394=PRESENTATION_STYLE_ASSIGNMENT((#395));
#395=SURFACE_STYLE_USAGE(.BOTH.,#396);
#396=SURFACE_SIDE_STYLE('',(#397));
#397=SURFACE_STYLE_FILL_AREA(#398);
#398=FILL_AREA_STYLE('\X2\94A2\X0\ - \X2\7F0E5149\X0\',(#399));
#399=FILL_AREA_STYLE_COLOUR('\X2\94A2\X0\ - \X2\7F0E5149\X0\',#400);
#400=COLOUR_RGB('\X2\94A2\X0\ - \X2\7F0E5149\X0\',0.627450980392157,0.627450980392157,
0.627450980392157);
ENDSEC;
END-ISO-10303-21;
