ISO-10303-21;
HEADER;
/* Generated by software containing ST-Developer
 * from STEP Tools, Inc. (www.steptools.com) 
 */

FILE_DESCRIPTION(
/* description */ (''),
/* implementation_level */ '2;1');

FILE_NAME(
/* name */ 'mid360DCDC.step',
/* time_stamp */ '2026-05-28T18:47:11+08:00',
/* author */ (''),
/* organization */ (''),
/* preprocessor_version */ 'ST-DEVELOPER v20.1',
/* originating_system */ 'Autodesk Translation Framework v15.8.0.0',
/* authorisation */ '');

FILE_SCHEMA (('AUTOMOTIVE_DESIGN { 1 0 10303 214 3 1 1 }'));
ENDSEC;

DATA;
#10=MECHANICAL_DESIGN_GEOMETRIC_PRESENTATION_REPRESENTATION('',(#13),#723);
#11=SHAPE_REPRESENTATION_RELATIONSHIP('SRR','None',#730,#12);
#12=ADVANCED_BREP_SHAPE_REPRESENTATION('',(#14),#722);
#13=STYLED_ITEM('',(#739),#14);
#14=MANIFOLD_SOLID_BREP('\X2\5B9E4F53\X0\1',#431);
#15=CIRCLE('',#447,2.);
#16=CIRCLE('',#448,2.);
#17=CIRCLE('',#451,1.56717287816379);
#18=CIRCLE('',#452,1.56717287816379);
#19=CIRCLE('',#456,1.56717287816379);
#20=CIRCLE('',#457,1.56717287816379);
#21=CIRCLE('',#461,1.56717287816379);
#22=CIRCLE('',#462,1.56717287816379);
#23=CIRCLE('',#465,2.);
#24=CIRCLE('',#466,2.);
#25=CIRCLE('',#469,1.56717287816379);
#26=CIRCLE('',#470,1.56717287816379);
#27=CYLINDRICAL_SURFACE('',#446,2.);
#28=CYLINDRICAL_SURFACE('',#450,1.56717287816379);
#29=CYLINDRICAL_SURFACE('',#455,1.56717287816379);
#30=CYLINDRICAL_SURFACE('',#460,1.56717287816379);
#31=CYLINDRICAL_SURFACE('',#464,2.);
#32=CYLINDRICAL_SURFACE('',#468,1.56717287816379);
#33=FACE_OUTER_BOUND('',#55,.T.);
#34=FACE_OUTER_BOUND('',#56,.T.);
#35=FACE_OUTER_BOUND('',#57,.T.);
#36=FACE_OUTER_BOUND('',#58,.T.);
#37=FACE_OUTER_BOUND('',#59,.T.);
#38=FACE_OUTER_BOUND('',#60,.T.);
#39=FACE_OUTER_BOUND('',#61,.T.);
#40=FACE_OUTER_BOUND('',#62,.T.);
#41=FACE_OUTER_BOUND('',#63,.T.);
#42=FACE_OUTER_BOUND('',#64,.T.);
#43=FACE_OUTER_BOUND('',#65,.T.);
#44=FACE_OUTER_BOUND('',#66,.T.);
#45=FACE_OUTER_BOUND('',#67,.T.);
#46=FACE_OUTER_BOUND('',#68,.T.);
#47=FACE_OUTER_BOUND('',#69,.T.);
#48=FACE_OUTER_BOUND('',#70,.T.);
#49=FACE_OUTER_BOUND('',#71,.T.);
#50=FACE_OUTER_BOUND('',#72,.T.);
#51=FACE_OUTER_BOUND('',#73,.T.);
#52=FACE_OUTER_BOUND('',#74,.T.);
#53=FACE_OUTER_BOUND('',#75,.T.);
#54=FACE_OUTER_BOUND('',#76,.T.);
#55=EDGE_LOOP('',(#273,#274,#275,#276));
#56=EDGE_LOOP('',(#277,#278,#279,#280));
#57=EDGE_LOOP('',(#281,#282,#283,#284));
#58=EDGE_LOOP('',(#285,#286,#287,#288));
#59=EDGE_LOOP('',(#289,#290,#291,#292));
#60=EDGE_LOOP('',(#293,#294,#295,#296));
#61=EDGE_LOOP('',(#297,#298,#299,#300));
#62=EDGE_LOOP('',(#301,#302,#303,#304,#305,#306,#307,#308));
#63=EDGE_LOOP('',(#309,#310,#311,#312));
#64=EDGE_LOOP('',(#313,#314,#315,#316));
#65=EDGE_LOOP('',(#317,#318,#319,#320));
#66=EDGE_LOOP('',(#321,#322,#323,#324));
#67=EDGE_LOOP('',(#325,#326,#327,#328));
#68=EDGE_LOOP('',(#329,#330,#331,#332));
#69=EDGE_LOOP('',(#333,#334,#335,#336));
#70=EDGE_LOOP('',(#337,#338,#339,#340,#341,#342,#343,#344));
#71=EDGE_LOOP('',(#345,#346,#347,#348,#349,#350,#351,#352));
#72=EDGE_LOOP('',(#353,#354,#355,#356));
#73=EDGE_LOOP('',(#357,#358,#359,#360));
#74=EDGE_LOOP('',(#361,#362,#363,#364,#365,#366,#367,#368));
#75=EDGE_LOOP('',(#369,#370,#371,#372));
#76=EDGE_LOOP('',(#373,#374,#375,#376,#377,#378,#379,#380,#381,#382,#383,
#384,#385,#386,#387,#388,#389,#390,#391,#392));
#77=LINE('',#601,#125);
#78=LINE('',#603,#126);
#79=LINE('',#605,#127);
#80=LINE('',#606,#128);
#81=LINE('',#612,#129);
#82=LINE('',#615,#130);
#83=LINE('',#617,#131);
#84=LINE('',#618,#132);
#85=LINE('',#624,#133);
#86=LINE('',#627,#134);
#87=LINE('',#629,#135);
#88=LINE('',#630,#136);
#89=LINE('',#634,#137);
#90=LINE('',#636,#138);
#91=LINE('',#638,#139);
#92=LINE('',#639,#140);
#93=LINE('',#644,#141);
#94=LINE('',#648,#142);
#95=LINE('',#650,#143);
#96=LINE('',#652,#144);
#97=LINE('',#653,#145);
#98=LINE('',#659,#146);
#99=LINE('',#662,#147);
#100=LINE('',#664,#148);
#101=LINE('',#665,#149);
#102=LINE('',#671,#150);
#103=LINE('',#674,#151);
#104=LINE('',#676,#152);
#105=LINE('',#677,#153);
#106=LINE('',#683,#154);
#107=LINE('',#686,#155);
#108=LINE('',#688,#156);
#109=LINE('',#689,#157);
#110=LINE('',#691,#158);
#111=LINE('',#694,#159);
#112=LINE('',#696,#160);
#113=LINE('',#698,#161);
#114=LINE('',#700,#162);
#115=LINE('',#701,#163);
#116=LINE('',#704,#164);
#117=LINE('',#706,#165);
#118=LINE('',#707,#166);
#119=LINE('',#710,#167);
#120=LINE('',#712,#168);
#121=LINE('',#713,#169);
#122=LINE('',#715,#170);
#123=LINE('',#716,#171);
#124=LINE('',#717,#172);
#125=VECTOR('',#483,10.);
#126=VECTOR('',#484,10.);
#127=VECTOR('',#485,10.);
#128=VECTOR('',#486,10.);
#129=VECTOR('',#493,10.);
#130=VECTOR('',#496,10.);
#131=VECTOR('',#497,10.);
#132=VECTOR('',#498,10.);
#133=VECTOR('',#505,10.);
#134=VECTOR('',#508,10.);
#135=VECTOR('',#509,10.);
#136=VECTOR('',#510,10.);
#137=VECTOR('',#513,10.);
#138=VECTOR('',#514,10.);
#139=VECTOR('',#515,10.);
#140=VECTOR('',#516,10.);
#141=VECTOR('',#525,10.);
#142=VECTOR('',#528,10.);
#143=VECTOR('',#529,10.);
#144=VECTOR('',#530,10.);
#145=VECTOR('',#531,10.);
#146=VECTOR('',#538,10.);
#147=VECTOR('',#541,10.);
#148=VECTOR('',#542,10.);
#149=VECTOR('',#543,10.);
#150=VECTOR('',#550,10.);
#151=VECTOR('',#553,10.);
#152=VECTOR('',#554,10.);
#153=VECTOR('',#555,10.);
#154=VECTOR('',#562,10.);
#155=VECTOR('',#565,10.);
#156=VECTOR('',#566,10.);
#157=VECTOR('',#567,10.);
#158=VECTOR('',#570,10.);
#159=VECTOR('',#573,10.);
#160=VECTOR('',#574,10.);
#161=VECTOR('',#575,10.);
#162=VECTOR('',#576,10.);
#163=VECTOR('',#577,10.);
#164=VECTOR('',#580,10.);
#165=VECTOR('',#581,10.);
#166=VECTOR('',#582,10.);
#167=VECTOR('',#585,10.);
#168=VECTOR('',#586,10.);
#169=VECTOR('',#587,10.);
#170=VECTOR('',#590,10.);
#171=VECTOR('',#591,10.);
#172=VECTOR('',#592,10.);
#173=VERTEX_POINT('',#599);
#174=VERTEX_POINT('',#600);
#175=VERTEX_POINT('',#602);
#176=VERTEX_POINT('',#604);
#177=VERTEX_POINT('',#608);
#178=VERTEX_POINT('',#610);
#179=VERTEX_POINT('',#614);
#180=VERTEX_POINT('',#616);
#181=VERTEX_POINT('',#620);
#182=VERTEX_POINT('',#622);
#183=VERTEX_POINT('',#626);
#184=VERTEX_POINT('',#628);
#185=VERTEX_POINT('',#632);
#186=VERTEX_POINT('',#633);
#187=VERTEX_POINT('',#635);
#188=VERTEX_POINT('',#637);
#189=VERTEX_POINT('',#646);
#190=VERTEX_POINT('',#647);
#191=VERTEX_POINT('',#649);
#192=VERTEX_POINT('',#651);
#193=VERTEX_POINT('',#655);
#194=VERTEX_POINT('',#657);
#195=VERTEX_POINT('',#661);
#196=VERTEX_POINT('',#663);
#197=VERTEX_POINT('',#667);
#198=VERTEX_POINT('',#669);
#199=VERTEX_POINT('',#673);
#200=VERTEX_POINT('',#675);
#201=VERTEX_POINT('',#679);
#202=VERTEX_POINT('',#681);
#203=VERTEX_POINT('',#685);
#204=VERTEX_POINT('',#687);
#205=VERTEX_POINT('',#693);
#206=VERTEX_POINT('',#695);
#207=VERTEX_POINT('',#697);
#208=VERTEX_POINT('',#699);
#209=VERTEX_POINT('',#703);
#210=VERTEX_POINT('',#705);
#211=VERTEX_POINT('',#709);
#212=VERTEX_POINT('',#711);
#213=EDGE_CURVE('',#173,#174,#77,.T.);
#214=EDGE_CURVE('',#174,#175,#78,.T.);
#215=EDGE_CURVE('',#176,#175,#79,.T.);
#216=EDGE_CURVE('',#173,#176,#80,.T.);
#217=EDGE_CURVE('',#173,#177,#15,.T.);
#218=EDGE_CURVE('',#178,#176,#16,.T.);
#219=EDGE_CURVE('',#177,#178,#81,.T.);
#220=EDGE_CURVE('',#177,#179,#82,.T.);
#221=EDGE_CURVE('',#180,#178,#83,.T.);
#222=EDGE_CURVE('',#179,#180,#84,.T.);
#223=EDGE_CURVE('',#181,#179,#17,.T.);
#224=EDGE_CURVE('',#182,#180,#18,.T.);
#225=EDGE_CURVE('',#181,#182,#85,.T.);
#226=EDGE_CURVE('',#183,#181,#86,.T.);
#227=EDGE_CURVE('',#184,#182,#87,.T.);
#228=EDGE_CURVE('',#183,#184,#88,.T.);
#229=EDGE_CURVE('',#185,#186,#89,.T.);
#230=EDGE_CURVE('',#187,#185,#90,.T.);
#231=EDGE_CURVE('',#188,#187,#91,.T.);
#232=EDGE_CURVE('',#186,#188,#92,.T.);
#233=EDGE_CURVE('',#174,#186,#19,.T.);
#234=EDGE_CURVE('',#175,#188,#20,.T.);
#235=EDGE_CURVE('',#184,#187,#93,.T.);
#236=EDGE_CURVE('',#189,#190,#94,.T.);
#237=EDGE_CURVE('',#191,#189,#95,.T.);
#238=EDGE_CURVE('',#192,#191,#96,.T.);
#239=EDGE_CURVE('',#190,#192,#97,.T.);
#240=EDGE_CURVE('',#193,#190,#21,.T.);
#241=EDGE_CURVE('',#194,#192,#22,.T.);
#242=EDGE_CURVE('',#193,#194,#98,.T.);
#243=EDGE_CURVE('',#195,#193,#99,.T.);
#244=EDGE_CURVE('',#196,#194,#100,.T.);
#245=EDGE_CURVE('',#195,#196,#101,.T.);
#246=EDGE_CURVE('',#195,#197,#23,.T.);
#247=EDGE_CURVE('',#198,#196,#24,.T.);
#248=EDGE_CURVE('',#197,#198,#102,.T.);
#249=EDGE_CURVE('',#197,#199,#103,.T.);
#250=EDGE_CURVE('',#200,#198,#104,.T.);
#251=EDGE_CURVE('',#199,#200,#105,.T.);
#252=EDGE_CURVE('',#201,#199,#25,.T.);
#253=EDGE_CURVE('',#202,#200,#26,.T.);
#254=EDGE_CURVE('',#201,#202,#106,.T.);
#255=EDGE_CURVE('',#203,#201,#107,.T.);
#256=EDGE_CURVE('',#204,#202,#108,.T.);
#257=EDGE_CURVE('',#203,#204,#109,.T.);
#258=EDGE_CURVE('',#204,#191,#110,.T.);
#259=EDGE_CURVE('',#205,#189,#111,.T.);
#260=EDGE_CURVE('',#205,#206,#112,.T.);
#261=EDGE_CURVE('',#207,#206,#113,.T.);
#262=EDGE_CURVE('',#208,#207,#114,.T.);
#263=EDGE_CURVE('',#203,#208,#115,.T.);
#264=EDGE_CURVE('',#209,#205,#116,.T.);
#265=EDGE_CURVE('',#209,#210,#117,.T.);
#266=EDGE_CURVE('',#206,#210,#118,.T.);
#267=EDGE_CURVE('',#208,#211,#119,.T.);
#268=EDGE_CURVE('',#212,#207,#120,.T.);
#269=EDGE_CURVE('',#211,#212,#121,.T.);
#270=EDGE_CURVE('',#211,#185,#122,.T.);
#271=EDGE_CURVE('',#210,#212,#123,.T.);
#272=EDGE_CURVE('',#183,#209,#124,.T.);
#273=ORIENTED_EDGE('',*,*,#213,.T.);
#274=ORIENTED_EDGE('',*,*,#214,.T.);
#275=ORIENTED_EDGE('',*,*,#215,.F.);
#276=ORIENTED_EDGE('',*,*,#216,.F.);
#277=ORIENTED_EDGE('',*,*,#217,.F.);
#278=ORIENTED_EDGE('',*,*,#216,.T.);
#279=ORIENTED_EDGE('',*,*,#218,.F.);
#280=ORIENTED_EDGE('',*,*,#219,.F.);
#281=ORIENTED_EDGE('',*,*,#220,.F.);
#282=ORIENTED_EDGE('',*,*,#219,.T.);
#283=ORIENTED_EDGE('',*,*,#221,.F.);
#284=ORIENTED_EDGE('',*,*,#222,.F.);
#285=ORIENTED_EDGE('',*,*,#223,.T.);
#286=ORIENTED_EDGE('',*,*,#222,.T.);
#287=ORIENTED_EDGE('',*,*,#224,.F.);
#288=ORIENTED_EDGE('',*,*,#225,.F.);
#289=ORIENTED_EDGE('',*,*,#226,.T.);
#290=ORIENTED_EDGE('',*,*,#225,.T.);
#291=ORIENTED_EDGE('',*,*,#227,.F.);
#292=ORIENTED_EDGE('',*,*,#228,.F.);
#293=ORIENTED_EDGE('',*,*,#229,.F.);
#294=ORIENTED_EDGE('',*,*,#230,.F.);
#295=ORIENTED_EDGE('',*,*,#231,.F.);
#296=ORIENTED_EDGE('',*,*,#232,.F.);
#297=ORIENTED_EDGE('',*,*,#233,.T.);
#298=ORIENTED_EDGE('',*,*,#232,.T.);
#299=ORIENTED_EDGE('',*,*,#234,.F.);
#300=ORIENTED_EDGE('',*,*,#214,.F.);
#301=ORIENTED_EDGE('',*,*,#234,.T.);
#302=ORIENTED_EDGE('',*,*,#231,.T.);
#303=ORIENTED_EDGE('',*,*,#235,.F.);
#304=ORIENTED_EDGE('',*,*,#227,.T.);
#305=ORIENTED_EDGE('',*,*,#224,.T.);
#306=ORIENTED_EDGE('',*,*,#221,.T.);
#307=ORIENTED_EDGE('',*,*,#218,.T.);
#308=ORIENTED_EDGE('',*,*,#215,.T.);
#309=ORIENTED_EDGE('',*,*,#236,.F.);
#310=ORIENTED_EDGE('',*,*,#237,.F.);
#311=ORIENTED_EDGE('',*,*,#238,.F.);
#312=ORIENTED_EDGE('',*,*,#239,.F.);
#313=ORIENTED_EDGE('',*,*,#240,.T.);
#314=ORIENTED_EDGE('',*,*,#239,.T.);
#315=ORIENTED_EDGE('',*,*,#241,.F.);
#316=ORIENTED_EDGE('',*,*,#242,.F.);
#317=ORIENTED_EDGE('',*,*,#243,.T.);
#318=ORIENTED_EDGE('',*,*,#242,.T.);
#319=ORIENTED_EDGE('',*,*,#244,.F.);
#320=ORIENTED_EDGE('',*,*,#245,.F.);
#321=ORIENTED_EDGE('',*,*,#246,.F.);
#322=ORIENTED_EDGE('',*,*,#245,.T.);
#323=ORIENTED_EDGE('',*,*,#247,.F.);
#324=ORIENTED_EDGE('',*,*,#248,.F.);
#325=ORIENTED_EDGE('',*,*,#249,.F.);
#326=ORIENTED_EDGE('',*,*,#248,.T.);
#327=ORIENTED_EDGE('',*,*,#250,.F.);
#328=ORIENTED_EDGE('',*,*,#251,.F.);
#329=ORIENTED_EDGE('',*,*,#252,.T.);
#330=ORIENTED_EDGE('',*,*,#251,.T.);
#331=ORIENTED_EDGE('',*,*,#253,.F.);
#332=ORIENTED_EDGE('',*,*,#254,.F.);
#333=ORIENTED_EDGE('',*,*,#255,.T.);
#334=ORIENTED_EDGE('',*,*,#254,.T.);
#335=ORIENTED_EDGE('',*,*,#256,.F.);
#336=ORIENTED_EDGE('',*,*,#257,.F.);
#337=ORIENTED_EDGE('',*,*,#256,.T.);
#338=ORIENTED_EDGE('',*,*,#253,.T.);
#339=ORIENTED_EDGE('',*,*,#250,.T.);
#340=ORIENTED_EDGE('',*,*,#247,.T.);
#341=ORIENTED_EDGE('',*,*,#244,.T.);
#342=ORIENTED_EDGE('',*,*,#241,.T.);
#343=ORIENTED_EDGE('',*,*,#238,.T.);
#344=ORIENTED_EDGE('',*,*,#258,.F.);
#345=ORIENTED_EDGE('',*,*,#257,.T.);
#346=ORIENTED_EDGE('',*,*,#258,.T.);
#347=ORIENTED_EDGE('',*,*,#237,.T.);
#348=ORIENTED_EDGE('',*,*,#259,.F.);
#349=ORIENTED_EDGE('',*,*,#260,.T.);
#350=ORIENTED_EDGE('',*,*,#261,.F.);
#351=ORIENTED_EDGE('',*,*,#262,.F.);
#352=ORIENTED_EDGE('',*,*,#263,.F.);
#353=ORIENTED_EDGE('',*,*,#264,.F.);
#354=ORIENTED_EDGE('',*,*,#265,.T.);
#355=ORIENTED_EDGE('',*,*,#266,.F.);
#356=ORIENTED_EDGE('',*,*,#260,.F.);
#357=ORIENTED_EDGE('',*,*,#267,.F.);
#358=ORIENTED_EDGE('',*,*,#262,.T.);
#359=ORIENTED_EDGE('',*,*,#268,.F.);
#360=ORIENTED_EDGE('',*,*,#269,.F.);
#361=ORIENTED_EDGE('',*,*,#230,.T.);
#362=ORIENTED_EDGE('',*,*,#270,.F.);
#363=ORIENTED_EDGE('',*,*,#269,.T.);
#364=ORIENTED_EDGE('',*,*,#271,.F.);
#365=ORIENTED_EDGE('',*,*,#265,.F.);
#366=ORIENTED_EDGE('',*,*,#272,.F.);
#367=ORIENTED_EDGE('',*,*,#228,.T.);
#368=ORIENTED_EDGE('',*,*,#235,.T.);
#369=ORIENTED_EDGE('',*,*,#271,.T.);
#370=ORIENTED_EDGE('',*,*,#268,.T.);
#371=ORIENTED_EDGE('',*,*,#261,.T.);
#372=ORIENTED_EDGE('',*,*,#266,.T.);
#373=ORIENTED_EDGE('',*,*,#270,.T.);
#374=ORIENTED_EDGE('',*,*,#229,.T.);
#375=ORIENTED_EDGE('',*,*,#233,.F.);
#376=ORIENTED_EDGE('',*,*,#213,.F.);
#377=ORIENTED_EDGE('',*,*,#217,.T.);
#378=ORIENTED_EDGE('',*,*,#220,.T.);
#379=ORIENTED_EDGE('',*,*,#223,.F.);
#380=ORIENTED_EDGE('',*,*,#226,.F.);
#381=ORIENTED_EDGE('',*,*,#272,.T.);
#382=ORIENTED_EDGE('',*,*,#264,.T.);
#383=ORIENTED_EDGE('',*,*,#259,.T.);
#384=ORIENTED_EDGE('',*,*,#236,.T.);
#385=ORIENTED_EDGE('',*,*,#240,.F.);
#386=ORIENTED_EDGE('',*,*,#243,.F.);
#387=ORIENTED_EDGE('',*,*,#246,.T.);
#388=ORIENTED_EDGE('',*,*,#249,.T.);
#389=ORIENTED_EDGE('',*,*,#252,.F.);
#390=ORIENTED_EDGE('',*,*,#255,.F.);
#391=ORIENTED_EDGE('',*,*,#263,.T.);
#392=ORIENTED_EDGE('',*,*,#267,.T.);
#393=PLANE('',#445);
#394=PLANE('',#449);
#395=PLANE('',#453);
#396=PLANE('',#454);
#397=PLANE('',#458);
#398=PLANE('',#459);
#399=PLANE('',#463);
#400=PLANE('',#467);
#401=PLANE('',#471);
#402=PLANE('',#472);
#403=PLANE('',#473);
#404=PLANE('',#474);
#405=PLANE('',#475);
#406=PLANE('',#476);
#407=PLANE('',#477);
#408=PLANE('',#478);
#409=ADVANCED_FACE('',(#33),#393,.T.);
#410=ADVANCED_FACE('',(#34),#27,.F.);
#411=ADVANCED_FACE('',(#35),#394,.T.);
#412=ADVANCED_FACE('',(#36),#28,.T.);
#413=ADVANCED_FACE('',(#37),#395,.T.);
#414=ADVANCED_FACE('',(#38),#396,.T.);
#415=ADVANCED_FACE('',(#39),#29,.T.);
#416=ADVANCED_FACE('',(#40),#397,.T.);
#417=ADVANCED_FACE('',(#41),#398,.T.);
#418=ADVANCED_FACE('',(#42),#30,.T.);
#419=ADVANCED_FACE('',(#43),#399,.T.);
#420=ADVANCED_FACE('',(#44),#31,.F.);
#421=ADVANCED_FACE('',(#45),#400,.T.);
#422=ADVANCED_FACE('',(#46),#32,.T.);
#423=ADVANCED_FACE('',(#47),#401,.T.);
#424=ADVANCED_FACE('',(#48),#402,.T.);
#425=ADVANCED_FACE('',(#49),#403,.T.);
#426=ADVANCED_FACE('',(#50),#404,.T.);
#427=ADVANCED_FACE('',(#51),#405,.T.);
#428=ADVANCED_FACE('',(#52),#406,.T.);
#429=ADVANCED_FACE('',(#53),#407,.T.);
#430=ADVANCED_FACE('',(#54),#408,.F.);
#431=CLOSED_SHELL('',(#409,#410,#411,#412,#413,#414,#415,#416,#417,#418,
#419,#420,#421,#422,#423,#424,#425,#426,#427,#428,#429,#430));
#432=DERIVED_UNIT_ELEMENT(#434,1.);
#433=DERIVED_UNIT_ELEMENT(#725,-3.);
#434=(
MASS_UNIT()
NAMED_UNIT(*)
SI_UNIT(.KILO.,.GRAM.)
);
#435=DERIVED_UNIT((#432,#433));
#436=MEASURE_REPRESENTATION_ITEM('density measure',
POSITIVE_RATIO_MEASURE(7850.),#435);
#437=PROPERTY_DEFINITION_REPRESENTATION(#442,#439);
#438=PROPERTY_DEFINITION_REPRESENTATION(#443,#440);
#439=REPRESENTATION('material name',(#441),#722);
#440=REPRESENTATION('density',(#436),#722);
#441=DESCRIPTIVE_REPRESENTATION_ITEM('\X2\94A2\X0\','\X2\94A2\X0\');
#442=PROPERTY_DEFINITION('material property','material name',#732);
#443=PROPERTY_DEFINITION('material property','density of part',#732);
#444=AXIS2_PLACEMENT_3D('',#597,#479,#480);
#445=AXIS2_PLACEMENT_3D('',#598,#481,#482);
#446=AXIS2_PLACEMENT_3D('',#607,#487,#488);
#447=AXIS2_PLACEMENT_3D('',#609,#489,#490);
#448=AXIS2_PLACEMENT_3D('',#611,#491,#492);
#449=AXIS2_PLACEMENT_3D('',#613,#494,#495);
#450=AXIS2_PLACEMENT_3D('',#619,#499,#500);
#451=AXIS2_PLACEMENT_3D('',#621,#501,#502);
#452=AXIS2_PLACEMENT_3D('',#623,#503,#504);
#453=AXIS2_PLACEMENT_3D('',#625,#506,#507);
#454=AXIS2_PLACEMENT_3D('',#631,#511,#512);
#455=AXIS2_PLACEMENT_3D('',#640,#517,#518);
#456=AXIS2_PLACEMENT_3D('',#641,#519,#520);
#457=AXIS2_PLACEMENT_3D('',#642,#521,#522);
#458=AXIS2_PLACEMENT_3D('',#643,#523,#524);
#459=AXIS2_PLACEMENT_3D('',#645,#526,#527);
#460=AXIS2_PLACEMENT_3D('',#654,#532,#533);
#461=AXIS2_PLACEMENT_3D('',#656,#534,#535);
#462=AXIS2_PLACEMENT_3D('',#658,#536,#537);
#463=AXIS2_PLACEMENT_3D('',#660,#539,#540);
#464=AXIS2_PLACEMENT_3D('',#666,#544,#545);
#465=AXIS2_PLACEMENT_3D('',#668,#546,#547);
#466=AXIS2_PLACEMENT_3D('',#670,#548,#549);
#467=AXIS2_PLACEMENT_3D('',#672,#551,#552);
#468=AXIS2_PLACEMENT_3D('',#678,#556,#557);
#469=AXIS2_PLACEMENT_3D('',#680,#558,#559);
#470=AXIS2_PLACEMENT_3D('',#682,#560,#561);
#471=AXIS2_PLACEMENT_3D('',#684,#563,#564);
#472=AXIS2_PLACEMENT_3D('',#690,#568,#569);
#473=AXIS2_PLACEMENT_3D('',#692,#571,#572);
#474=AXIS2_PLACEMENT_3D('',#702,#578,#579);
#475=AXIS2_PLACEMENT_3D('',#708,#583,#584);
#476=AXIS2_PLACEMENT_3D('',#714,#588,#589);
#477=AXIS2_PLACEMENT_3D('',#718,#593,#594);
#478=AXIS2_PLACEMENT_3D('',#719,#595,#596);
#479=DIRECTION('axis',(0.,0.,1.));
#480=DIRECTION('refdir',(1.,0.,0.));
#481=DIRECTION('center_axis',(0.,0.,1.));
#482=DIRECTION('ref_axis',(1.,0.,0.));
#483=DIRECTION('',(1.,0.,0.));
#484=DIRECTION('',(0.,1.,0.));
#485=DIRECTION('',(1.,0.,0.));
#486=DIRECTION('',(0.,1.,0.));
#487=DIRECTION('center_axis',(0.,1.,0.));
#488=DIRECTION('ref_axis',(0.,0.,-1.));
#489=DIRECTION('center_axis',(0.,1.,0.));
#490=DIRECTION('ref_axis',(0.,0.,-1.));
#491=DIRECTION('center_axis',(0.,-1.,0.));
#492=DIRECTION('ref_axis',(0.,0.,-1.));
#493=DIRECTION('',(0.,1.,0.));
#494=DIRECTION('center_axis',(0.,0.,-1.));
#495=DIRECTION('ref_axis',(-1.,0.,0.));
#496=DIRECTION('',(1.,0.,0.));
#497=DIRECTION('',(-1.,0.,0.));
#498=DIRECTION('',(0.,1.,0.));
#499=DIRECTION('center_axis',(0.,1.,0.));
#500=DIRECTION('ref_axis',(0.258819045102535,0.,0.965925826289065));
#501=DIRECTION('center_axis',(0.,1.,0.));
#502=DIRECTION('ref_axis',(0.258819045102535,0.,0.965925826289065));
#503=DIRECTION('center_axis',(0.,1.,0.));
#504=DIRECTION('ref_axis',(0.258819045102535,0.,0.965925826289065));
#505=DIRECTION('',(0.,1.,0.));
#506=DIRECTION('center_axis',(0.258819045102521,0.,0.965925826289068));
#507=DIRECTION('ref_axis',(0.965925826289068,0.,-0.258819045102521));
#508=DIRECTION('',(0.965925826289068,0.,-0.258819045102521));
#509=DIRECTION('',(0.965925826289068,0.,-0.258819045102521));
#510=DIRECTION('',(0.,1.,0.));
#511=DIRECTION('center_axis',(0.258819045102521,0.,-0.965925826289068));
#512=DIRECTION('ref_axis',(-0.965925826289068,0.,-0.258819045102521));
#513=DIRECTION('',(0.965925826289068,0.,0.258819045102521));
#514=DIRECTION('',(0.,-1.,0.));
#515=DIRECTION('',(-0.965925826289068,0.,-0.258819045102521));
#516=DIRECTION('',(0.,1.,0.));
#517=DIRECTION('center_axis',(0.,1.,0.));
#518=DIRECTION('ref_axis',(1.13347854863438E-14,0.,1.));
#519=DIRECTION('center_axis',(0.,1.,0.));
#520=DIRECTION('ref_axis',(1.13347854863438E-14,0.,1.));
#521=DIRECTION('center_axis',(0.,1.,0.));
#522=DIRECTION('ref_axis',(1.13347854863438E-14,0.,1.));
#523=DIRECTION('center_axis',(0.,1.,0.));
#524=DIRECTION('ref_axis',(1.,0.,0.));
#525=DIRECTION('',(0.,0.,-1.));
#526=DIRECTION('center_axis',(-0.258819045102521,0.,0.965925826289068));
#527=DIRECTION('ref_axis',(0.965925826289068,0.,0.258819045102521));
#528=DIRECTION('',(-0.965925826289068,0.,-0.258819045102521));
#529=DIRECTION('',(0.,-1.,0.));
#530=DIRECTION('',(0.965925826289068,0.,0.258819045102521));
#531=DIRECTION('',(0.,1.,0.));
#532=DIRECTION('center_axis',(0.,1.,0.));
#533=DIRECTION('ref_axis',(-1.13347854863438E-14,0.,-1.));
#534=DIRECTION('center_axis',(0.,1.,0.));
#535=DIRECTION('ref_axis',(-1.13347854863438E-14,0.,-1.));
#536=DIRECTION('center_axis',(0.,1.,0.));
#537=DIRECTION('ref_axis',(-1.13347854863438E-14,0.,-1.));
#538=DIRECTION('',(0.,1.,0.));
#539=DIRECTION('center_axis',(0.,0.,-1.));
#540=DIRECTION('ref_axis',(-1.,0.,0.));
#541=DIRECTION('',(-1.,0.,0.));
#542=DIRECTION('',(-1.,0.,0.));
#543=DIRECTION('',(0.,1.,0.));
#544=DIRECTION('center_axis',(0.,1.,0.));
#545=DIRECTION('ref_axis',(0.,0.,1.));
#546=DIRECTION('center_axis',(0.,1.,0.));
#547=DIRECTION('ref_axis',(0.,0.,1.));
#548=DIRECTION('center_axis',(0.,-1.,0.));
#549=DIRECTION('ref_axis',(0.,0.,1.));
#550=DIRECTION('',(0.,1.,0.));
#551=DIRECTION('center_axis',(0.,0.,1.));
#552=DIRECTION('ref_axis',(1.,0.,0.));
#553=DIRECTION('',(-1.,0.,0.));
#554=DIRECTION('',(1.,0.,0.));
#555=DIRECTION('',(0.,1.,0.));
#556=DIRECTION('center_axis',(0.,1.,0.));
#557=DIRECTION('ref_axis',(-0.258819045102535,0.,-0.965925826289065));
#558=DIRECTION('center_axis',(0.,1.,0.));
#559=DIRECTION('ref_axis',(-0.258819045102535,0.,-0.965925826289065));
#560=DIRECTION('center_axis',(0.,1.,0.));
#561=DIRECTION('ref_axis',(-0.258819045102535,0.,-0.965925826289065));
#562=DIRECTION('',(0.,1.,0.));
#563=DIRECTION('center_axis',(-0.258819045102521,0.,-0.965925826289068));
#564=DIRECTION('ref_axis',(-0.965925826289068,0.,0.258819045102521));
#565=DIRECTION('',(-0.965925826289068,0.,0.258819045102521));
#566=DIRECTION('',(-0.965925826289068,0.,0.258819045102521));
#567=DIRECTION('',(0.,1.,0.));
#568=DIRECTION('center_axis',(0.,1.,0.));
#569=DIRECTION('ref_axis',(1.,0.,0.));
#570=DIRECTION('',(0.,0.,1.));
#571=DIRECTION('center_axis',(-1.,0.,0.));
#572=DIRECTION('ref_axis',(0.,0.,1.));
#573=DIRECTION('',(0.,0.,-1.));
#574=DIRECTION('',(0.,1.,0.));
#575=DIRECTION('',(0.,0.,1.));
#576=DIRECTION('',(0.,1.,0.));
#577=DIRECTION('',(0.,0.,-1.));
#578=DIRECTION('center_axis',(0.,0.,1.));
#579=DIRECTION('ref_axis',(1.,0.,0.));
#580=DIRECTION('',(-1.,0.,0.));
#581=DIRECTION('',(0.,1.,0.));
#582=DIRECTION('',(1.,0.,0.));
#583=DIRECTION('center_axis',(2.46519032881566E-33,0.,-1.));
#584=DIRECTION('ref_axis',(-1.,0.,-2.46519032881566E-33));
#585=DIRECTION('',(1.,0.,2.46519032881566E-33));
#586=DIRECTION('',(-1.,0.,-2.46519032881566E-33));
#587=DIRECTION('',(0.,1.,0.));
#588=DIRECTION('center_axis',(1.,0.,0.));
#589=DIRECTION('ref_axis',(0.,0.,-1.));
#590=DIRECTION('',(0.,0.,1.));
#591=DIRECTION('',(0.,0.,-1.));
#592=DIRECTION('',(0.,0.,1.));
#593=DIRECTION('center_axis',(0.,1.,0.));
#594=DIRECTION('ref_axis',(0.,0.,1.));
#595=DIRECTION('center_axis',(0.,1.,0.));
#596=DIRECTION('ref_axis',(1.,0.,0.));
#597=CARTESIAN_POINT('',(0.,0.,0.));
#598=CARTESIAN_POINT('Origin',(53.,0.,14.));
#599=CARTESIAN_POINT('',(53.,0.,14.));
#600=CARTESIAN_POINT('',(54.8903687993961,0.,14.));
#601=CARTESIAN_POINT('',(53.,0.,14.));
#602=CARTESIAN_POINT('',(54.8903687993961,3.8,14.));
#603=CARTESIAN_POINT('',(54.8903687993961,0.,14.));
#604=CARTESIAN_POINT('',(53.,3.8,14.));
#605=CARTESIAN_POINT('',(53.,3.8,14.));
#606=CARTESIAN_POINT('',(53.,0.,14.));
#607=CARTESIAN_POINT('Origin',(53.,0.,16.));
#608=CARTESIAN_POINT('',(53.,0.,18.));
#609=CARTESIAN_POINT('Origin',(53.,0.,16.));
#610=CARTESIAN_POINT('',(53.,3.8,18.));
#611=CARTESIAN_POINT('Origin',(53.,3.8,16.));
#612=CARTESIAN_POINT('',(53.,0.,18.));
#613=CARTESIAN_POINT('Origin',(54.8903687993961,0.,18.));
#614=CARTESIAN_POINT('',(54.8903687993961,0.,18.));
#615=CARTESIAN_POINT('',(53.,0.,18.));
#616=CARTESIAN_POINT('',(54.8903687993961,3.8,18.));
#617=CARTESIAN_POINT('',(53.,3.8,18.));
#618=CARTESIAN_POINT('',(54.8903687993961,0.,18.));
#619=CARTESIAN_POINT('Origin',(54.890368799396,0.,19.5671728781638));
#620=CARTESIAN_POINT('',(55.295982987233,0.,21.080945635442));
#621=CARTESIAN_POINT('Origin',(54.890368799396,0.,19.5671728781638));
#622=CARTESIAN_POINT('',(55.295982987233,3.8,21.080945635442));
#623=CARTESIAN_POINT('Origin',(54.890368799396,3.8,19.5671728781638));
#624=CARTESIAN_POINT('',(55.295982987233,0.,21.080945635442));
#625=CARTESIAN_POINT('Origin',(50.,0.,22.5));
#626=CARTESIAN_POINT('',(50.,0.,22.5));
#627=CARTESIAN_POINT('',(50.,0.,22.5));
#628=CARTESIAN_POINT('',(50.,3.8,22.5));
#629=CARTESIAN_POINT('',(50.,3.8,22.5));
#630=CARTESIAN_POINT('',(50.,0.,22.5));
#631=CARTESIAN_POINT('Origin',(55.295982987233,0.,10.919054364558));
#632=CARTESIAN_POINT('',(50.,0.,9.5));
#633=CARTESIAN_POINT('',(55.295982987233,0.,10.919054364558));
#634=CARTESIAN_POINT('',(50.,0.,9.5));
#635=CARTESIAN_POINT('',(50.,3.8,9.5));
#636=CARTESIAN_POINT('',(50.,0.,9.5));
#637=CARTESIAN_POINT('',(55.295982987233,3.8,10.919054364558));
#638=CARTESIAN_POINT('',(50.,3.8,9.5));
#639=CARTESIAN_POINT('',(55.295982987233,0.,10.919054364558));
#640=CARTESIAN_POINT('Origin',(54.890368799396,0.,12.4328271218362));
#641=CARTESIAN_POINT('Origin',(54.890368799396,0.,12.4328271218362));
#642=CARTESIAN_POINT('Origin',(54.890368799396,3.8,12.4328271218362));
#643=CARTESIAN_POINT('Origin',(53.2287708387799,3.8,16.));
#644=CARTESIAN_POINT('',(50.,3.8,24.));
#645=CARTESIAN_POINT('Origin',(-5.29598298723299,0.,21.080945635442));
#646=CARTESIAN_POINT('',(0.,0.,22.5));
#647=CARTESIAN_POINT('',(-5.29598298723299,0.,21.080945635442));
#648=CARTESIAN_POINT('',(0.,0.,22.5));
#649=CARTESIAN_POINT('',(0.,3.8,22.5));
#650=CARTESIAN_POINT('',(0.,0.,22.5));
#651=CARTESIAN_POINT('',(-5.29598298723299,3.8,21.080945635442));
#652=CARTESIAN_POINT('',(0.,3.8,22.5));
#653=CARTESIAN_POINT('',(-5.29598298723299,0.,21.080945635442));
#654=CARTESIAN_POINT('Origin',(-4.89036879939604,0.,19.5671728781638));
#655=CARTESIAN_POINT('',(-4.89036879939606,0.,18.));
#656=CARTESIAN_POINT('Origin',(-4.89036879939604,0.,19.5671728781638));
#657=CARTESIAN_POINT('',(-4.89036879939606,3.8,18.));
#658=CARTESIAN_POINT('Origin',(-4.89036879939604,3.8,19.5671728781638));
#659=CARTESIAN_POINT('',(-4.89036879939606,0.,18.));
#660=CARTESIAN_POINT('Origin',(-3.,0.,18.));
#661=CARTESIAN_POINT('',(-3.,0.,18.));
#662=CARTESIAN_POINT('',(-3.,0.,18.));
#663=CARTESIAN_POINT('',(-3.,3.8,18.));
#664=CARTESIAN_POINT('',(-3.,3.8,18.));
#665=CARTESIAN_POINT('',(-3.,0.,18.));
#666=CARTESIAN_POINT('Origin',(-3.,0.,16.));
#667=CARTESIAN_POINT('',(-3.,0.,14.));
#668=CARTESIAN_POINT('Origin',(-3.,0.,16.));
#669=CARTESIAN_POINT('',(-3.,3.8,14.));
#670=CARTESIAN_POINT('Origin',(-3.,3.8,16.));
#671=CARTESIAN_POINT('',(-3.,0.,14.));
#672=CARTESIAN_POINT('Origin',(-4.89036879939606,0.,14.));
#673=CARTESIAN_POINT('',(-4.89036879939606,0.,14.));
#674=CARTESIAN_POINT('',(-3.,0.,14.));
#675=CARTESIAN_POINT('',(-4.89036879939606,3.8,14.));
#676=CARTESIAN_POINT('',(-3.,3.8,14.));
#677=CARTESIAN_POINT('',(-4.89036879939606,0.,14.));
#678=CARTESIAN_POINT('Origin',(-4.89036879939604,0.,12.4328271218362));
#679=CARTESIAN_POINT('',(-5.29598298723299,0.,10.919054364558));
#680=CARTESIAN_POINT('Origin',(-4.89036879939604,0.,12.4328271218362));
#681=CARTESIAN_POINT('',(-5.29598298723299,3.8,10.919054364558));
#682=CARTESIAN_POINT('Origin',(-4.89036879939604,3.8,12.4328271218362));
#683=CARTESIAN_POINT('',(-5.29598298723299,0.,10.919054364558));
#684=CARTESIAN_POINT('Origin',(0.,0.,9.5));
#685=CARTESIAN_POINT('',(0.,0.,9.5));
#686=CARTESIAN_POINT('',(0.,0.,9.5));
#687=CARTESIAN_POINT('',(0.,3.8,9.5));
#688=CARTESIAN_POINT('',(0.,3.8,9.5));
#689=CARTESIAN_POINT('',(0.,0.,9.5));
#690=CARTESIAN_POINT('Origin',(-3.22877083877992,3.8,16.));
#691=CARTESIAN_POINT('',(0.,3.8,8.));
#692=CARTESIAN_POINT('Origin',(0.,0.,0.));
#693=CARTESIAN_POINT('',(0.,0.,32.));
#694=CARTESIAN_POINT('',(0.,0.,32.));
#695=CARTESIAN_POINT('',(0.,18.,32.));
#696=CARTESIAN_POINT('',(0.,0.,32.));
#697=CARTESIAN_POINT('',(0.,18.,0.));
#698=CARTESIAN_POINT('',(0.,18.,32.));
#699=CARTESIAN_POINT('',(0.,0.,0.));
#700=CARTESIAN_POINT('',(0.,0.,0.));
#701=CARTESIAN_POINT('',(0.,0.,32.));
#702=CARTESIAN_POINT('Origin',(0.,0.,32.));
#703=CARTESIAN_POINT('',(50.,0.,32.));
#704=CARTESIAN_POINT('',(50.,0.,32.));
#705=CARTESIAN_POINT('',(50.,18.,32.));
#706=CARTESIAN_POINT('',(50.,0.,32.));
#707=CARTESIAN_POINT('',(50.,18.,32.));
#708=CARTESIAN_POINT('Origin',(50.,0.,1.23259516440783E-31));
#709=CARTESIAN_POINT('',(50.,0.,1.23259516440783E-31));
#710=CARTESIAN_POINT('',(0.,0.,0.));
#711=CARTESIAN_POINT('',(50.,18.,1.23259516440783E-31));
#712=CARTESIAN_POINT('',(0.,18.,0.));
#713=CARTESIAN_POINT('',(50.,0.,1.23259516440783E-31));
#714=CARTESIAN_POINT('Origin',(50.,0.,32.));
#715=CARTESIAN_POINT('',(50.,0.,1.23259516440783E-31));
#716=CARTESIAN_POINT('',(50.,18.,1.23259516440783E-31));
#717=CARTESIAN_POINT('',(50.,0.,1.23259516440783E-31));
#718=CARTESIAN_POINT('Origin',(25.,18.,16.));
#719=CARTESIAN_POINT('Origin',(25.,0.,16.));
#720=UNCERTAINTY_MEASURE_WITH_UNIT(LENGTH_MEASURE(0.01),#724,
'DISTANCE_ACCURACY_VALUE',
'Maximum model space distance between geometric entities at asserted c
onnectivities');
#721=UNCERTAINTY_MEASURE_WITH_UNIT(LENGTH_MEASURE(0.01),#724,
'DISTANCE_ACCURACY_VALUE',
'Maximum model space distance between geometric entities at asserted c
onnectivities');
#722=(
GEOMETRIC_REPRESENTATION_CONTEXT(3)
GLOBAL_UNCERTAINTY_ASSIGNED_CONTEXT((#720))
GLOBAL_UNIT_ASSIGNED_CONTEXT((#724,#726,#727))
REPRESENTATION_CONTEXT('','3D')
);
#723=(
GEOMETRIC_REPRESENTATION_CONTEXT(3)
GLOBAL_UNCERTAINTY_ASSIGNED_CONTEXT((#721))
GLOBAL_UNIT_ASSIGNED_CONTEXT((#724,#726,#727))
REPRESENTATION_CONTEXT('','3D')
);
#724=(
LENGTH_UNIT()
NAMED_UNIT(*)
SI_UNIT(.MILLI.,.METRE.)
);
#725=(
LENGTH_UNIT()
NAMED_UNIT(*)
SI_UNIT($,.METRE.)
);
#726=(
NAMED_UNIT(*)
PLANE_ANGLE_UNIT()
SI_UNIT($,.RADIAN.)
);
#727=(
NAMED_UNIT(*)
SI_UNIT($,.STERADIAN.)
SOLID_ANGLE_UNIT()
);
#728=SHAPE_DEFINITION_REPRESENTATION(#729,#730);
#729=PRODUCT_DEFINITION_SHAPE('',$,#732);
#730=SHAPE_REPRESENTATION('',(#444),#722);
#731=PRODUCT_DEFINITION_CONTEXT('part definition',#736,'design');
#732=PRODUCT_DEFINITION('2026-05-28-15-28-27-091','mid360DCDC',#733,#731);
#733=PRODUCT_DEFINITION_FORMATION('',$,#738);
#734=PRODUCT_RELATED_PRODUCT_CATEGORY('mid360DCDC','mid360DCDC',(#738));
#735=APPLICATION_PROTOCOL_DEFINITION('international standard',
'automotive_design',2009,#736);
#736=APPLICATION_CONTEXT(
'Core Data for Automotive Mechanical Design Process');
#737=PRODUCT_CONTEXT('part definition',#736,'mechanical');
#738=PRODUCT('2026-05-28-15-28-27-091','mid360DCDC',$,(#737));
#739=PRESENTATION_STYLE_ASSIGNMENT((#740));
#740=SURFACE_STYLE_USAGE(.BOTH.,#741);
#741=SURFACE_SIDE_STYLE('',(#742));
#742=SURFACE_STYLE_FILL_AREA(#743);
#743=FILL_AREA_STYLE('\X2\94A2\X0\ - \X2\7F0E5149\X0\',(#744));
#744=FILL_AREA_STYLE_COLOUR('\X2\94A2\X0\ - \X2\7F0E5149\X0\',#745);
#745=COLOUR_RGB('\X2\94A2\X0\ - \X2\7F0E5149\X0\',0.627450980392157,0.627450980392157,
0.627450980392157);
ENDSEC;
END-ISO-10303-21;
