ISO-10303-21;
HEADER;
/* Generated by software containing ST-Developer
 * from STEP Tools, Inc. (www.steptools.com) 
 */

FILE_DESCRIPTION(
/* description */ (''),
/* implementation_level */ '2;1');

FILE_NAME(
/* name */ 'wheel_motor_left_right_v0_1.step',
/* time_stamp */ '2026-05-28T09:21:34+08:00',
/* author */ (''),
/* organization */ (''),
/* preprocessor_version */ 'ST-DEVELOPER v20.1',
/* originating_system */ 'Autodesk Translation Framework v15.8.0.0',
/* authorisation */ '');

FILE_SCHEMA (('AUTOMOTIVE_DESIGN { 1 0 10303 214 3 1 1 }'));
ENDSEC;

DATA;
#10=MECHANICAL_DESIGN_GEOMETRIC_PRESENTATION_REPRESENTATION('',(#59,#60,
#61,#62,#63),#2050);
#11=ITEM_DEFINED_TRANSFORMATION($,$,#1210,#1336);
#12=ITEM_DEFINED_TRANSFORMATION($,$,#1268,#1337);
#13=ITEM_DEFINED_TRANSFORMATION($,$,#1295,#1338);
#14=ITEM_DEFINED_TRANSFORMATION($,$,#1315,#1339);
#15=ITEM_DEFINED_TRANSFORMATION($,$,#1210,#1340);
#16=ITEM_DEFINED_TRANSFORMATION($,$,#1268,#1341);
#17=ITEM_DEFINED_TRANSFORMATION($,$,#1295,#1342);
#18=ITEM_DEFINED_TRANSFORMATION($,$,#1315,#1343);
#19=ITEM_DEFINED_TRANSFORMATION($,$,#1208,#1344);
#20=ITEM_DEFINED_TRANSFORMATION($,$,#1209,#1345);
#21=(
REPRESENTATION_RELATIONSHIP($,$,#2082,#2080)
REPRESENTATION_RELATIONSHIP_WITH_TRANSFORMATION(#11)
SHAPE_REPRESENTATION_RELATIONSHIP()
);
#22=(
REPRESENTATION_RELATIONSHIP($,$,#2083,#2080)
REPRESENTATION_RELATIONSHIP_WITH_TRANSFORMATION(#12)
SHAPE_REPRESENTATION_RELATIONSHIP()
);
#23=(
REPRESENTATION_RELATIONSHIP($,$,#2084,#2080)
REPRESENTATION_RELATIONSHIP_WITH_TRANSFORMATION(#13)
SHAPE_REPRESENTATION_RELATIONSHIP()
);
#24=(
REPRESENTATION_RELATIONSHIP($,$,#2085,#2080)
REPRESENTATION_RELATIONSHIP_WITH_TRANSFORMATION(#14)
SHAPE_REPRESENTATION_RELATIONSHIP()
);
#25=(
REPRESENTATION_RELATIONSHIP($,$,#2082,#2081)
REPRESENTATION_RELATIONSHIP_WITH_TRANSFORMATION(#15)
SHAPE_REPRESENTATION_RELATIONSHIP()
);
#26=(
REPRESENTATION_RELATIONSHIP($,$,#2083,#2081)
REPRESENTATION_RELATIONSHIP_WITH_TRANSFORMATION(#16)
SHAPE_REPRESENTATION_RELATIONSHIP()
);
#27=(
REPRESENTATION_RELATIONSHIP($,$,#2084,#2081)
REPRESENTATION_RELATIONSHIP_WITH_TRANSFORMATION(#17)
SHAPE_REPRESENTATION_RELATIONSHIP()
);
#28=(
REPRESENTATION_RELATIONSHIP($,$,#2085,#2081)
REPRESENTATION_RELATIONSHIP_WITH_TRANSFORMATION(#18)
SHAPE_REPRESENTATION_RELATIONSHIP()
);
#29=(
REPRESENTATION_RELATIONSHIP($,$,#2080,#2079)
REPRESENTATION_RELATIONSHIP_WITH_TRANSFORMATION(#19)
SHAPE_REPRESENTATION_RELATIONSHIP()
);
#30=(
REPRESENTATION_RELATIONSHIP($,$,#2081,#2079)
REPRESENTATION_RELATIONSHIP_WITH_TRANSFORMATION(#20)
SHAPE_REPRESENTATION_RELATIONSHIP()
);
#31=CONTEXT_DEPENDENT_SHAPE_REPRESENTATION(#21,#2069);
#32=CONTEXT_DEPENDENT_SHAPE_REPRESENTATION(#22,#2070);
#33=CONTEXT_DEPENDENT_SHAPE_REPRESENTATION(#23,#2071);
#34=CONTEXT_DEPENDENT_SHAPE_REPRESENTATION(#24,#2072);
#35=CONTEXT_DEPENDENT_SHAPE_REPRESENTATION(#25,#2073);
#36=CONTEXT_DEPENDENT_SHAPE_REPRESENTATION(#26,#2074);
#37=CONTEXT_DEPENDENT_SHAPE_REPRESENTATION(#27,#2075);
#38=CONTEXT_DEPENDENT_SHAPE_REPRESENTATION(#28,#2076);
#39=CONTEXT_DEPENDENT_SHAPE_REPRESENTATION(#29,#2077);
#40=CONTEXT_DEPENDENT_SHAPE_REPRESENTATION(#30,#2078);
#41=NEXT_ASSEMBLY_USAGE_OCCURRENCE('jgb37_motor_bracket_v0_1:1',
'jgb37_motor_bracket_v0_1:1','jgb37_motor_bracket_v0_1:1',#2088,#2090,
'jgb37_motor_bracket_v0_1:1');
#42=NEXT_ASSEMBLY_USAGE_OCCURRENCE('\X2\7535673A\X0\:1','\X2\7535673A\X0\:
1','\X2\7535673A\X0\:1',#2088,#2091,'\X2\7535673A\X0\:1');
#43=NEXT_ASSEMBLY_USAGE_OCCURRENCE('\X2\80548F745668\X0\:1',
'\X2\80548F745668\X0\:1','\X2\80548F745668\X0\:1',#2088,#2092,
'\X2\80548F745668\X0\:1');
#44=NEXT_ASSEMBLY_USAGE_OCCURRENCE('\X2\8F6E80CE\X0\:1','\X2\8F6E80CE\X0\:
1','\X2\8F6E80CE\X0\:1',#2088,#2093,'\X2\8F6E80CE\X0\:1');
#45=NEXT_ASSEMBLY_USAGE_OCCURRENCE('jgb37_motor_bracket_v0_1:1',
'jgb37_motor_bracket_v0_1:1','jgb37_motor_bracket_v0_1:1',#2089,#2090,
'jgb37_motor_bracket_v0_1:1');
#46=NEXT_ASSEMBLY_USAGE_OCCURRENCE('\X2\7535673A\X0\:1','\X2\7535673A\X0\:
1','\X2\7535673A\X0\:1',#2089,#2091,'\X2\7535673A\X0\:1');
#47=NEXT_ASSEMBLY_USAGE_OCCURRENCE('\X2\80548F745668\X0\:1',
'\X2\80548F745668\X0\:1','\X2\80548F745668\X0\:1',#2089,#2092,
'\X2\80548F745668\X0\:1');
#48=NEXT_ASSEMBLY_USAGE_OCCURRENCE('\X2\8F6E80CE\X0\:1','\X2\8F6E80CE\X0\:
1','\X2\8F6E80CE\X0\:1',#2089,#2093,'\X2\8F6E80CE\X0\:1');
#49=NEXT_ASSEMBLY_USAGE_OCCURRENCE('wheel_motor_single_side_v0_1:1',
'wheel_motor_single_side_v0_1:1','wheel_motor_single_side_v0_1:1',#2087,
#2088,'wheel_motor_single_side_v0_1:1');
#50=NEXT_ASSEMBLY_USAGE_OCCURRENCE('wheel_motor_single_side_v0_1:3',
'wheel_motor_single_side_v0_1:3','wheel_motor_single_side_v0_1:3',#2087,
#2089,'wheel_motor_single_side_v0_1:3');
#51=SHAPE_REPRESENTATION_RELATIONSHIP('SRR','None',#2082,#55);
#52=SHAPE_REPRESENTATION_RELATIONSHIP('SRR','None',#2083,#56);
#53=SHAPE_REPRESENTATION_RELATIONSHIP('SRR','None',#2084,#57);
#54=SHAPE_REPRESENTATION_RELATIONSHIP('SRR','None',#2085,#58);
#55=ADVANCED_BREP_SHAPE_REPRESENTATION('',(#64),#2046);
#56=ADVANCED_BREP_SHAPE_REPRESENTATION('',(#65,#66),#2047);
#57=ADVANCED_BREP_SHAPE_REPRESENTATION('',(#67),#2048);
#58=ADVANCED_BREP_SHAPE_REPRESENTATION('',(#68),#2049);
#59=STYLED_ITEM('',(#2119),#64);
#60=STYLED_ITEM('',(#2118),#65);
#61=STYLED_ITEM('',(#2118),#66);
#62=STYLED_ITEM('',(#2118),#67);
#63=STYLED_ITEM('',(#2118),#68);
#64=MANIFOLD_SOLID_BREP('\X2\5B9E4F53\X0\1',#1157);
#65=MANIFOLD_SOLID_BREP('\X2\5B9E4F53\X0\1',#1158);
#66=MANIFOLD_SOLID_BREP('\X2\5B9E4F53\X0\2',#1159);
#67=MANIFOLD_SOLID_BREP('\X2\5B9E4F53\X0\1',#1160);
#68=MANIFOLD_SOLID_BREP('\X2\5B9E4F53\X0\1',#1161);
#69=FACE_BOUND('',#209,.T.);
#70=FACE_BOUND('',#210,.T.);
#71=FACE_BOUND('',#211,.T.);
#72=FACE_BOUND('',#212,.T.);
#73=FACE_BOUND('',#213,.T.);
#74=FACE_BOUND('',#214,.T.);
#75=FACE_BOUND('',#215,.T.);
#76=FACE_BOUND('',#232,.T.);
#77=FACE_BOUND('',#233,.T.);
#78=FACE_BOUND('',#234,.T.);
#79=FACE_BOUND('',#235,.T.);
#80=FACE_BOUND('',#236,.T.);
#81=FACE_BOUND('',#237,.T.);
#82=FACE_BOUND('',#238,.T.);
#83=FACE_BOUND('',#244,.T.);
#84=FACE_BOUND('',#245,.T.);
#85=FACE_BOUND('',#246,.T.);
#86=FACE_BOUND('',#247,.T.);
#87=FACE_BOUND('',#249,.T.);
#88=FACE_BOUND('',#250,.T.);
#89=FACE_BOUND('',#251,.T.);
#90=FACE_BOUND('',#252,.T.);
#91=FACE_BOUND('',#255,.T.);
#92=FACE_BOUND('',#261,.T.);
#93=FACE_BOUND('',#266,.T.);
#94=FACE_BOUND('',#272,.T.);
#95=FACE_BOUND('',#281,.T.);
#96=FACE_BOUND('',#284,.T.);
#97=FACE_BOUND('',#286,.T.);
#98=FACE_BOUND('',#295,.T.);
#99=FACE_BOUND('',#299,.T.);
#100=FACE_BOUND('',#301,.T.);
#101=PLANE('',#1214);
#102=PLANE('',#1215);
#103=PLANE('',#1243);
#104=PLANE('',#1246);
#105=PLANE('',#1257);
#106=PLANE('',#1258);
#107=PLANE('',#1262);
#108=PLANE('',#1266);
#109=PLANE('',#1267);
#110=PLANE('',#1269);
#111=PLANE('',#1271);
#112=PLANE('',#1277);
#113=PLANE('',#1278);
#114=PLANE('',#1281);
#115=PLANE('',#1286);
#116=PLANE('',#1289);
#117=PLANE('',#1293);
#118=PLANE('',#1294);
#119=PLANE('',#1299);
#120=PLANE('',#1303);
#121=PLANE('',#1304);
#122=PLANE('',#1305);
#123=PLANE('',#1306);
#124=PLANE('',#1307);
#125=PLANE('',#1308);
#126=PLANE('',#1309);
#127=PLANE('',#1313);
#128=PLANE('',#1314);
#129=PLANE('',#1316);
#130=PLANE('',#1317);
#131=PLANE('',#1318);
#132=PLANE('',#1319);
#133=PLANE('',#1320);
#134=PLANE('',#1321);
#135=PLANE('',#1322);
#136=PLANE('',#1323);
#137=PLANE('',#1330);
#138=PLANE('',#1331);
#139=PLANE('',#1335);
#140=FACE_OUTER_BOUND('',#206,.T.);
#141=FACE_OUTER_BOUND('',#207,.T.);
#142=FACE_OUTER_BOUND('',#208,.T.);
#143=FACE_OUTER_BOUND('',#216,.T.);
#144=FACE_OUTER_BOUND('',#217,.T.);
#145=FACE_OUTER_BOUND('',#218,.T.);
#146=FACE_OUTER_BOUND('',#219,.T.);
#147=FACE_OUTER_BOUND('',#220,.T.);
#148=FACE_OUTER_BOUND('',#221,.T.);
#149=FACE_OUTER_BOUND('',#222,.T.);
#150=FACE_OUTER_BOUND('',#223,.T.);
#151=FACE_OUTER_BOUND('',#224,.T.);
#152=FACE_OUTER_BOUND('',#225,.T.);
#153=FACE_OUTER_BOUND('',#226,.T.);
#154=FACE_OUTER_BOUND('',#227,.T.);
#155=FACE_OUTER_BOUND('',#228,.T.);
#156=FACE_OUTER_BOUND('',#229,.T.);
#157=FACE_OUTER_BOUND('',#230,.T.);
#158=FACE_OUTER_BOUND('',#231,.T.);
#159=FACE_OUTER_BOUND('',#239,.T.);
#160=FACE_OUTER_BOUND('',#240,.T.);
#161=FACE_OUTER_BOUND('',#241,.T.);
#162=FACE_OUTER_BOUND('',#242,.T.);
#163=FACE_OUTER_BOUND('',#243,.T.);
#164=FACE_OUTER_BOUND('',#248,.T.);
#165=FACE_OUTER_BOUND('',#253,.T.);
#166=FACE_OUTER_BOUND('',#254,.T.);
#167=FACE_OUTER_BOUND('',#256,.T.);
#168=FACE_OUTER_BOUND('',#257,.T.);
#169=FACE_OUTER_BOUND('',#258,.T.);
#170=FACE_OUTER_BOUND('',#259,.T.);
#171=FACE_OUTER_BOUND('',#260,.T.);
#172=FACE_OUTER_BOUND('',#262,.T.);
#173=FACE_OUTER_BOUND('',#263,.T.);
#174=FACE_OUTER_BOUND('',#264,.T.);
#175=FACE_OUTER_BOUND('',#265,.T.);
#176=FACE_OUTER_BOUND('',#267,.T.);
#177=FACE_OUTER_BOUND('',#268,.T.);
#178=FACE_OUTER_BOUND('',#269,.T.);
#179=FACE_OUTER_BOUND('',#270,.T.);
#180=FACE_OUTER_BOUND('',#271,.T.);
#181=FACE_OUTER_BOUND('',#273,.T.);
#182=FACE_OUTER_BOUND('',#274,.T.);
#183=FACE_OUTER_BOUND('',#275,.T.);
#184=FACE_OUTER_BOUND('',#276,.T.);
#185=FACE_OUTER_BOUND('',#277,.T.);
#186=FACE_OUTER_BOUND('',#278,.T.);
#187=FACE_OUTER_BOUND('',#279,.T.);
#188=FACE_OUTER_BOUND('',#280,.T.);
#189=FACE_OUTER_BOUND('',#282,.T.);
#190=FACE_OUTER_BOUND('',#283,.T.);
#191=FACE_OUTER_BOUND('',#285,.T.);
#192=FACE_OUTER_BOUND('',#287,.T.);
#193=FACE_OUTER_BOUND('',#288,.T.);
#194=FACE_OUTER_BOUND('',#289,.T.);
#195=FACE_OUTER_BOUND('',#290,.T.);
#196=FACE_OUTER_BOUND('',#291,.T.);
#197=FACE_OUTER_BOUND('',#292,.T.);
#198=FACE_OUTER_BOUND('',#293,.T.);
#199=FACE_OUTER_BOUND('',#294,.T.);
#200=FACE_OUTER_BOUND('',#296,.T.);
#201=FACE_OUTER_BOUND('',#297,.T.);
#202=FACE_OUTER_BOUND('',#298,.T.);
#203=FACE_OUTER_BOUND('',#300,.T.);
#204=FACE_OUTER_BOUND('',#302,.T.);
#205=FACE_OUTER_BOUND('',#303,.T.);
#206=EDGE_LOOP('',(#776,#777,#778,#779));
#207=EDGE_LOOP('',(#780,#781,#782,#783,#784,#785,#786));
#208=EDGE_LOOP('',(#787,#788,#789,#790));
#209=EDGE_LOOP('',(#791));
#210=EDGE_LOOP('',(#792));
#211=EDGE_LOOP('',(#793));
#212=EDGE_LOOP('',(#794,#795,#796,#797));
#213=EDGE_LOOP('',(#798));
#214=EDGE_LOOP('',(#799));
#215=EDGE_LOOP('',(#800));
#216=EDGE_LOOP('',(#801,#802,#803,#804));
#217=EDGE_LOOP('',(#805,#806,#807,#808));
#218=EDGE_LOOP('',(#809,#810,#811,#812));
#219=EDGE_LOOP('',(#813,#814,#815,#816));
#220=EDGE_LOOP('',(#817,#818,#819,#820));
#221=EDGE_LOOP('',(#821,#822,#823,#824));
#222=EDGE_LOOP('',(#825,#826,#827,#828));
#223=EDGE_LOOP('',(#829,#830,#831,#832));
#224=EDGE_LOOP('',(#833,#834,#835,#836));
#225=EDGE_LOOP('',(#837,#838,#839,#840));
#226=EDGE_LOOP('',(#841,#842,#843,#844));
#227=EDGE_LOOP('',(#845,#846,#847,#848));
#228=EDGE_LOOP('',(#849,#850,#851,#852));
#229=EDGE_LOOP('',(#853,#854,#855,#856));
#230=EDGE_LOOP('',(#857,#858,#859,#860));
#231=EDGE_LOOP('',(#861,#862,#863,#864));
#232=EDGE_LOOP('',(#865));
#233=EDGE_LOOP('',(#866));
#234=EDGE_LOOP('',(#867));
#235=EDGE_LOOP('',(#868,#869,#870,#871));
#236=EDGE_LOOP('',(#872));
#237=EDGE_LOOP('',(#873));
#238=EDGE_LOOP('',(#874));
#239=EDGE_LOOP('',(#875,#876,#877,#878));
#240=EDGE_LOOP('',(#879,#880,#881,#882));
#241=EDGE_LOOP('',(#883,#884,#885,#886,#887,#888,#889));
#242=EDGE_LOOP('',(#890,#891,#892,#893));
#243=EDGE_LOOP('',(#894,#895,#896,#897,#898,#899));
#244=EDGE_LOOP('',(#900));
#245=EDGE_LOOP('',(#901));
#246=EDGE_LOOP('',(#902));
#247=EDGE_LOOP('',(#903));
#248=EDGE_LOOP('',(#904,#905,#906,#907,#908,#909));
#249=EDGE_LOOP('',(#910));
#250=EDGE_LOOP('',(#911));
#251=EDGE_LOOP('',(#912));
#252=EDGE_LOOP('',(#913));
#253=EDGE_LOOP('',(#914,#915));
#254=EDGE_LOOP('',(#916));
#255=EDGE_LOOP('',(#917));
#256=EDGE_LOOP('',(#918,#919,#920,#921,#922,#923,#924,#925));
#257=EDGE_LOOP('',(#926,#927,#928,#929));
#258=EDGE_LOOP('',(#930,#931,#932));
#259=EDGE_LOOP('',(#933,#934,#935,#936));
#260=EDGE_LOOP('',(#937));
#261=EDGE_LOOP('',(#938));
#262=EDGE_LOOP('',(#939,#940,#941,#942));
#263=EDGE_LOOP('',(#943));
#264=EDGE_LOOP('',(#944,#945,#946,#947));
#265=EDGE_LOOP('',(#948));
#266=EDGE_LOOP('',(#949));
#267=EDGE_LOOP('',(#950,#951,#952,#953));
#268=EDGE_LOOP('',(#954));
#269=EDGE_LOOP('',(#955));
#270=EDGE_LOOP('',(#956,#957,#958,#959));
#271=EDGE_LOOP('',(#960));
#272=EDGE_LOOP('',(#961));
#273=EDGE_LOOP('',(#962,#963,#964,#965));
#274=EDGE_LOOP('',(#966,#967,#968,#969));
#275=EDGE_LOOP('',(#970,#971,#972,#973));
#276=EDGE_LOOP('',(#974,#975,#976,#977));
#277=EDGE_LOOP('',(#978,#979,#980,#981));
#278=EDGE_LOOP('',(#982,#983,#984,#985));
#279=EDGE_LOOP('',(#986,#987,#988,#989));
#280=EDGE_LOOP('',(#990,#991,#992,#993,#994,#995));
#281=EDGE_LOOP('',(#996));
#282=EDGE_LOOP('',(#997,#998,#999,#1000));
#283=EDGE_LOOP('',(#1001));
#284=EDGE_LOOP('',(#1002));
#285=EDGE_LOOP('',(#1003));
#286=EDGE_LOOP('',(#1004,#1005,#1006,#1007,#1008,#1009));
#287=EDGE_LOOP('',(#1010,#1011,#1012,#1013));
#288=EDGE_LOOP('',(#1014,#1015,#1016,#1017));
#289=EDGE_LOOP('',(#1018,#1019,#1020,#1021));
#290=EDGE_LOOP('',(#1022,#1023,#1024,#1025));
#291=EDGE_LOOP('',(#1026,#1027,#1028,#1029));
#292=EDGE_LOOP('',(#1030,#1031,#1032,#1033));
#293=EDGE_LOOP('',(#1034,#1035,#1036,#1037,#1038,#1039));
#294=EDGE_LOOP('',(#1040));
#295=EDGE_LOOP('',(#1041,#1042,#1043,#1044,#1045,#1046));
#296=EDGE_LOOP('',(#1047,#1048,#1049,#1050));
#297=EDGE_LOOP('',(#1051,#1052,#1053,#1054));
#298=EDGE_LOOP('',(#1055));
#299=EDGE_LOOP('',(#1056));
#300=EDGE_LOOP('',(#1057));
#301=EDGE_LOOP('',(#1058));
#302=EDGE_LOOP('',(#1059,#1060,#1061,#1062));
#303=EDGE_LOOP('',(#1063));
#304=LINE('',#1721,#392);
#305=LINE('',#1724,#393);
#306=LINE('',#1727,#394);
#307=LINE('',#1729,#395);
#308=LINE('',#1731,#396);
#309=LINE('',#1733,#397);
#310=LINE('',#1735,#398);
#311=LINE('',#1736,#399);
#312=LINE('',#1739,#400);
#313=LINE('',#1751,#401);
#314=LINE('',#1754,#402);
#315=LINE('',#1765,#403);
#316=LINE('',#1771,#404);
#317=LINE('',#1777,#405);
#318=LINE('',#1783,#406);
#319=LINE('',#1788,#407);
#320=LINE('',#1792,#408);
#321=LINE('',#1796,#409);
#322=LINE('',#1800,#410);
#323=LINE('',#1801,#411);
#324=LINE('',#1802,#412);
#325=LINE('',#1806,#413);
#326=LINE('',#1809,#414);
#327=LINE('',#1810,#415);
#328=LINE('',#1816,#416);
#329=LINE('',#1820,#417);
#330=LINE('',#1824,#418);
#331=LINE('',#1828,#419);
#332=LINE('',#1831,#420);
#333=LINE('',#1832,#421);
#334=LINE('',#1836,#422);
#335=LINE('',#1838,#423);
#336=LINE('',#1840,#424);
#337=LINE('',#1841,#425);
#338=LINE('',#1847,#426);
#339=LINE('',#1849,#427);
#340=LINE('',#1850,#428);
#341=LINE('',#1860,#429);
#342=LINE('',#1869,#430);
#343=LINE('',#1872,#431);
#344=LINE('',#1875,#432);
#345=LINE('',#1877,#433);
#346=LINE('',#1881,#434);
#347=LINE('',#1890,#435);
#348=LINE('',#1896,#436);
#349=LINE('',#1902,#437);
#350=LINE('',#1911,#438);
#351=LINE('',#1919,#439);
#352=LINE('',#1923,#440);
#353=LINE('',#1925,#441);
#354=LINE('',#1927,#442);
#355=LINE('',#1928,#443);
#356=LINE('',#1931,#444);
#357=LINE('',#1933,#445);
#358=LINE('',#1934,#446);
#359=LINE('',#1937,#447);
#360=LINE('',#1939,#448);
#361=LINE('',#1940,#449);
#362=LINE('',#1943,#450);
#363=LINE('',#1945,#451);
#364=LINE('',#1946,#452);
#365=LINE('',#1949,#453);
#366=LINE('',#1951,#454);
#367=LINE('',#1952,#455);
#368=LINE('',#1954,#456);
#369=LINE('',#1955,#457);
#370=LINE('',#1961,#458);
#371=LINE('',#1969,#459);
#372=LINE('',#1971,#460);
#373=LINE('',#1973,#461);
#374=LINE('',#1974,#462);
#375=LINE('',#1977,#463);
#376=LINE('',#1979,#464);
#377=LINE('',#1980,#465);
#378=LINE('',#1983,#466);
#379=LINE('',#1985,#467);
#380=LINE('',#1986,#468);
#381=LINE('',#1989,#469);
#382=LINE('',#1991,#470);
#383=LINE('',#1992,#471);
#384=LINE('',#1995,#472);
#385=LINE('',#1997,#473);
#386=LINE('',#1998,#474);
#387=LINE('',#2000,#475);
#388=LINE('',#2001,#476);
#389=LINE('',#2008,#477);
#390=LINE('',#2014,#478);
#391=LINE('',#2023,#479);
#392=VECTOR('',#1358,10.);
#393=VECTOR('',#1361,10.);
#394=VECTOR('',#1364,10.);
#395=VECTOR('',#1365,10.);
#396=VECTOR('',#1366,10.);
#397=VECTOR('',#1367,10.);
#398=VECTOR('',#1368,10.);
#399=VECTOR('',#1369,10.);
#400=VECTOR('',#1372,10.);
#401=VECTOR('',#1383,10.);
#402=VECTOR('',#1386,10.);
#403=VECTOR('',#1397,2.);
#404=VECTOR('',#1404,2.);
#405=VECTOR('',#1411,2.);
#406=VECTOR('',#1418,2.);
#407=VECTOR('',#1425,1.6);
#408=VECTOR('',#1430,1.6);
#409=VECTOR('',#1435,1.6);
#410=VECTOR('',#1438,10.);
#411=VECTOR('',#1439,10.);
#412=VECTOR('',#1440,10.);
#413=VECTOR('',#1445,10.);
#414=VECTOR('',#1448,10.);
#415=VECTOR('',#1449,10.);
#416=VECTOR('',#1458,1.6);
#417=VECTOR('',#1463,1.6);
#418=VECTOR('',#1468,1.6);
#419=VECTOR('',#1473,10.);
#420=VECTOR('',#1476,10.);
#421=VECTOR('',#1477,10.);
#422=VECTOR('',#1480,10.);
#423=VECTOR('',#1481,10.);
#424=VECTOR('',#1482,10.);
#425=VECTOR('',#1483,10.);
#426=VECTOR('',#1490,10.);
#427=VECTOR('',#1493,10.);
#428=VECTOR('',#1494,10.);
#429=VECTOR('',#1509,10.);
#430=VECTOR('',#1520,10.);
#431=VECTOR('',#1523,3.);
#432=VECTOR('',#1526,10.);
#433=VECTOR('',#1529,10.);
#434=VECTOR('',#1534,6.);
#435=VECTOR('',#1545,16.);
#436=VECTOR('',#1554,18.5);
#437=VECTOR('',#1561,16.);
#438=VECTOR('',#1574,3.);
#439=VECTOR('',#1585,2.);
#440=VECTOR('',#1588,10.);
#441=VECTOR('',#1589,10.);
#442=VECTOR('',#1590,10.);
#443=VECTOR('',#1591,10.);
#444=VECTOR('',#1594,10.);
#445=VECTOR('',#1595,10.);
#446=VECTOR('',#1596,10.);
#447=VECTOR('',#1599,10.);
#448=VECTOR('',#1600,10.);
#449=VECTOR('',#1601,10.);
#450=VECTOR('',#1604,10.);
#451=VECTOR('',#1605,10.);
#452=VECTOR('',#1606,10.);
#453=VECTOR('',#1609,10.);
#454=VECTOR('',#1610,10.);
#455=VECTOR('',#1611,10.);
#456=VECTOR('',#1614,10.);
#457=VECTOR('',#1615,10.);
#458=VECTOR('',#1622,10.);
#459=VECTOR('',#1633,10.);
#460=VECTOR('',#1634,10.);
#461=VECTOR('',#1635,10.);
#462=VECTOR('',#1636,10.);
#463=VECTOR('',#1639,10.);
#464=VECTOR('',#1640,10.);
#465=VECTOR('',#1641,10.);
#466=VECTOR('',#1644,10.);
#467=VECTOR('',#1645,10.);
#468=VECTOR('',#1646,10.);
#469=VECTOR('',#1649,10.);
#470=VECTOR('',#1650,10.);
#471=VECTOR('',#1651,10.);
#472=VECTOR('',#1654,10.);
#473=VECTOR('',#1655,10.);
#474=VECTOR('',#1656,10.);
#475=VECTOR('',#1659,10.);
#476=VECTOR('',#1660,10.);
#477=VECTOR('',#1669,10.);
#478=VECTOR('',#1676,28.8);
#479=VECTOR('',#1689,42.5);
#480=CIRCLE('',#1212,3.);
#481=CIRCLE('',#1213,3.);
#482=CIRCLE('',#1216,20.);
#483=CIRCLE('',#1217,1.6);
#484=CIRCLE('',#1218,1.6);
#485=CIRCLE('',#1219,1.6);
#486=CIRCLE('',#1220,6.50000000000428);
#487=CIRCLE('',#1221,6.50000000000075);
#488=CIRCLE('',#1222,1.6);
#489=CIRCLE('',#1223,1.6);
#490=CIRCLE('',#1224,1.6);
#491=CIRCLE('',#1226,2.);
#492=CIRCLE('',#1227,2.);
#493=CIRCLE('',#1229,2.);
#494=CIRCLE('',#1230,2.);
#495=CIRCLE('',#1232,2.);
#496=CIRCLE('',#1233,2.);
#497=CIRCLE('',#1235,2.);
#498=CIRCLE('',#1236,2.);
#499=CIRCLE('',#1238,1.6);
#500=CIRCLE('',#1240,1.6);
#501=CIRCLE('',#1242,1.6);
#502=CIRCLE('',#1245,6.50000000000075);
#503=CIRCLE('',#1248,6.50000000000428);
#504=CIRCLE('',#1250,1.6);
#505=CIRCLE('',#1252,1.6);
#506=CIRCLE('',#1254,1.6);
#507=CIRCLE('',#1256,20.);
#508=CIRCLE('',#1260,3.);
#509=CIRCLE('',#1261,3.);
#510=CIRCLE('',#1264,2.99999999999998);
#511=CIRCLE('',#1265,2.99999999999998);
#512=CIRCLE('',#1270,3.);
#513=CIRCLE('',#1272,6.);
#514=CIRCLE('',#1273,3.);
#515=CIRCLE('',#1275,3.);
#516=CIRCLE('',#1276,3.);
#517=CIRCLE('',#1280,6.);
#518=CIRCLE('',#1282,18.5);
#519=CIRCLE('',#1284,16.);
#520=CIRCLE('',#1285,16.);
#521=CIRCLE('',#1288,18.5);
#522=CIRCLE('',#1291,16.);
#523=CIRCLE('',#1292,16.);
#524=CIRCLE('',#1297,3.);
#525=CIRCLE('',#1298,3.);
#526=CIRCLE('',#1300,2.);
#527=CIRCLE('',#1302,2.);
#528=CIRCLE('',#1311,10.);
#529=CIRCLE('',#1312,10.);
#530=CIRCLE('',#1324,10.);
#531=CIRCLE('',#1326,10.);
#532=CIRCLE('',#1328,28.8);
#533=CIRCLE('',#1329,28.8);
#534=CIRCLE('',#1332,42.5);
#535=CIRCLE('',#1334,42.5);
#536=VERTEX_POINT('',#1717);
#537=VERTEX_POINT('',#1718);
#538=VERTEX_POINT('',#1720);
#539=VERTEX_POINT('',#1722);
#540=VERTEX_POINT('',#1726);
#541=VERTEX_POINT('',#1728);
#542=VERTEX_POINT('',#1730);
#543=VERTEX_POINT('',#1732);
#544=VERTEX_POINT('',#1734);
#545=VERTEX_POINT('',#1738);
#546=VERTEX_POINT('',#1741);
#547=VERTEX_POINT('',#1743);
#548=VERTEX_POINT('',#1745);
#549=VERTEX_POINT('',#1747);
#550=VERTEX_POINT('',#1748);
#551=VERTEX_POINT('',#1750);
#552=VERTEX_POINT('',#1752);
#553=VERTEX_POINT('',#1755);
#554=VERTEX_POINT('',#1757);
#555=VERTEX_POINT('',#1759);
#556=VERTEX_POINT('',#1762);
#557=VERTEX_POINT('',#1764);
#558=VERTEX_POINT('',#1768);
#559=VERTEX_POINT('',#1770);
#560=VERTEX_POINT('',#1774);
#561=VERTEX_POINT('',#1776);
#562=VERTEX_POINT('',#1780);
#563=VERTEX_POINT('',#1782);
#564=VERTEX_POINT('',#1786);
#565=VERTEX_POINT('',#1790);
#566=VERTEX_POINT('',#1794);
#567=VERTEX_POINT('',#1798);
#568=VERTEX_POINT('',#1799);
#569=VERTEX_POINT('',#1804);
#570=VERTEX_POINT('',#1808);
#571=VERTEX_POINT('',#1814);
#572=VERTEX_POINT('',#1818);
#573=VERTEX_POINT('',#1822);
#574=VERTEX_POINT('',#1826);
#575=VERTEX_POINT('',#1830);
#576=VERTEX_POINT('',#1834);
#577=VERTEX_POINT('',#1835);
#578=VERTEX_POINT('',#1837);
#579=VERTEX_POINT('',#1839);
#580=VERTEX_POINT('',#1843);
#581=VERTEX_POINT('',#1845);
#582=VERTEX_POINT('',#1858);
#583=VERTEX_POINT('',#1859);
#584=VERTEX_POINT('',#1863);
#585=VERTEX_POINT('',#1865);
#586=VERTEX_POINT('',#1868);
#587=VERTEX_POINT('',#1870);
#588=VERTEX_POINT('',#1873);
#589=VERTEX_POINT('',#1880);
#590=VERTEX_POINT('',#1884);
#591=VERTEX_POINT('',#1887);
#592=VERTEX_POINT('',#1889);
#593=VERTEX_POINT('',#1894);
#594=VERTEX_POINT('',#1899);
#595=VERTEX_POINT('',#1901);
#596=VERTEX_POINT('',#1908);
#597=VERTEX_POINT('',#1910);
#598=VERTEX_POINT('',#1914);
#599=VERTEX_POINT('',#1917);
#600=VERTEX_POINT('',#1921);
#601=VERTEX_POINT('',#1922);
#602=VERTEX_POINT('',#1924);
#603=VERTEX_POINT('',#1926);
#604=VERTEX_POINT('',#1930);
#605=VERTEX_POINT('',#1932);
#606=VERTEX_POINT('',#1936);
#607=VERTEX_POINT('',#1938);
#608=VERTEX_POINT('',#1942);
#609=VERTEX_POINT('',#1944);
#610=VERTEX_POINT('',#1948);
#611=VERTEX_POINT('',#1950);
#612=VERTEX_POINT('',#1958);
#613=VERTEX_POINT('',#1960);
#614=VERTEX_POINT('',#1967);
#615=VERTEX_POINT('',#1968);
#616=VERTEX_POINT('',#1970);
#617=VERTEX_POINT('',#1972);
#618=VERTEX_POINT('',#1976);
#619=VERTEX_POINT('',#1978);
#620=VERTEX_POINT('',#1982);
#621=VERTEX_POINT('',#1984);
#622=VERTEX_POINT('',#1988);
#623=VERTEX_POINT('',#1990);
#624=VERTEX_POINT('',#1994);
#625=VERTEX_POINT('',#1996);
#626=VERTEX_POINT('',#2004);
#627=VERTEX_POINT('',#2007);
#628=VERTEX_POINT('',#2011);
#629=VERTEX_POINT('',#2013);
#630=VERTEX_POINT('',#2018);
#631=VERTEX_POINT('',#2021);
#632=EDGE_CURVE('',#536,#537,#480,.T.);
#633=EDGE_CURVE('',#537,#538,#304,.T.);
#634=EDGE_CURVE('',#538,#539,#481,.T.);
#635=EDGE_CURVE('',#539,#536,#305,.T.);
#636=EDGE_CURVE('',#540,#538,#306,.T.);
#637=EDGE_CURVE('',#541,#540,#307,.T.);
#638=EDGE_CURVE('',#542,#541,#308,.T.);
#639=EDGE_CURVE('',#543,#542,#309,.T.);
#640=EDGE_CURVE('',#544,#543,#310,.T.);
#641=EDGE_CURVE('',#544,#539,#311,.T.);
#642=EDGE_CURVE('',#537,#545,#312,.T.);
#643=EDGE_CURVE('',#545,#540,#482,.T.);
#644=EDGE_CURVE('',#546,#546,#483,.T.);
#645=EDGE_CURVE('',#547,#547,#484,.T.);
#646=EDGE_CURVE('',#548,#548,#485,.T.);
#647=EDGE_CURVE('',#549,#550,#486,.T.);
#648=EDGE_CURVE('',#550,#551,#313,.T.);
#649=EDGE_CURVE('',#551,#552,#487,.T.);
#650=EDGE_CURVE('',#552,#549,#314,.T.);
#651=EDGE_CURVE('',#553,#553,#488,.T.);
#652=EDGE_CURVE('',#554,#554,#489,.T.);
#653=EDGE_CURVE('',#555,#555,#490,.T.);
#654=EDGE_CURVE('',#556,#556,#491,.T.);
#655=EDGE_CURVE('',#556,#557,#315,.T.);
#656=EDGE_CURVE('',#557,#557,#492,.T.);
#657=EDGE_CURVE('',#558,#558,#493,.T.);
#658=EDGE_CURVE('',#558,#559,#316,.T.);
#659=EDGE_CURVE('',#559,#559,#494,.T.);
#660=EDGE_CURVE('',#560,#560,#495,.T.);
#661=EDGE_CURVE('',#560,#561,#317,.T.);
#662=EDGE_CURVE('',#561,#561,#496,.T.);
#663=EDGE_CURVE('',#562,#562,#497,.T.);
#664=EDGE_CURVE('',#562,#563,#318,.T.);
#665=EDGE_CURVE('',#563,#563,#498,.T.);
#666=EDGE_CURVE('',#564,#564,#499,.T.);
#667=EDGE_CURVE('',#564,#546,#319,.T.);
#668=EDGE_CURVE('',#565,#565,#500,.T.);
#669=EDGE_CURVE('',#565,#547,#320,.T.);
#670=EDGE_CURVE('',#566,#566,#501,.T.);
#671=EDGE_CURVE('',#566,#548,#321,.T.);
#672=EDGE_CURVE('',#567,#568,#322,.T.);
#673=EDGE_CURVE('',#567,#549,#323,.T.);
#674=EDGE_CURVE('',#568,#552,#324,.T.);
#675=EDGE_CURVE('',#568,#569,#502,.T.);
#676=EDGE_CURVE('',#569,#551,#325,.T.);
#677=EDGE_CURVE('',#569,#570,#326,.T.);
#678=EDGE_CURVE('',#570,#550,#327,.T.);
#679=EDGE_CURVE('',#570,#567,#503,.T.);
#680=EDGE_CURVE('',#571,#571,#504,.T.);
#681=EDGE_CURVE('',#571,#553,#328,.T.);
#682=EDGE_CURVE('',#572,#572,#505,.T.);
#683=EDGE_CURVE('',#572,#554,#329,.T.);
#684=EDGE_CURVE('',#573,#573,#506,.T.);
#685=EDGE_CURVE('',#573,#555,#330,.T.);
#686=EDGE_CURVE('',#541,#574,#507,.T.);
#687=EDGE_CURVE('',#574,#545,#331,.T.);
#688=EDGE_CURVE('',#542,#575,#332,.T.);
#689=EDGE_CURVE('',#574,#575,#333,.T.);
#690=EDGE_CURVE('',#576,#577,#334,.T.);
#691=EDGE_CURVE('',#577,#578,#335,.T.);
#692=EDGE_CURVE('',#579,#578,#336,.T.);
#693=EDGE_CURVE('',#576,#579,#337,.T.);
#694=EDGE_CURVE('',#580,#576,#508,.T.);
#695=EDGE_CURVE('',#581,#579,#509,.T.);
#696=EDGE_CURVE('',#580,#581,#338,.T.);
#697=EDGE_CURVE('',#580,#536,#339,.T.);
#698=EDGE_CURVE('',#575,#581,#340,.T.);
#699=EDGE_CURVE('',#577,#544,#510,.T.);
#700=EDGE_CURVE('',#578,#543,#511,.T.);
#701=EDGE_CURVE('',#582,#583,#341,.T.);
#702=EDGE_CURVE('',#582,#583,#512,.T.);
#703=EDGE_CURVE('',#584,#584,#513,.T.);
#704=EDGE_CURVE('',#585,#585,#514,.T.);
#705=EDGE_CURVE('',#582,#586,#342,.T.);
#706=EDGE_CURVE('',#587,#586,#515,.T.);
#707=EDGE_CURVE('',#587,#585,#343,.T.);
#708=EDGE_CURVE('',#588,#587,#516,.T.);
#709=EDGE_CURVE('',#583,#588,#344,.T.);
#710=EDGE_CURVE('',#586,#588,#345,.T.);
#711=EDGE_CURVE('',#584,#589,#346,.T.);
#712=EDGE_CURVE('',#589,#589,#517,.T.);
#713=EDGE_CURVE('',#590,#590,#518,.T.);
#714=EDGE_CURVE('',#591,#591,#519,.T.);
#715=EDGE_CURVE('',#591,#592,#347,.T.);
#716=EDGE_CURVE('',#592,#592,#520,.T.);
#717=EDGE_CURVE('',#593,#593,#521,.T.);
#718=EDGE_CURVE('',#593,#590,#348,.T.);
#719=EDGE_CURVE('',#594,#594,#522,.T.);
#720=EDGE_CURVE('',#594,#595,#349,.T.);
#721=EDGE_CURVE('',#595,#595,#523,.T.);
#722=EDGE_CURVE('',#596,#596,#524,.T.);
#723=EDGE_CURVE('',#596,#597,#350,.T.);
#724=EDGE_CURVE('',#597,#597,#525,.T.);
#725=EDGE_CURVE('',#598,#598,#526,.T.);
#726=EDGE_CURVE('',#599,#599,#527,.T.);
#727=EDGE_CURVE('',#599,#598,#351,.T.);
#728=EDGE_CURVE('',#600,#601,#352,.T.);
#729=EDGE_CURVE('',#600,#602,#353,.T.);
#730=EDGE_CURVE('',#603,#602,#354,.T.);
#731=EDGE_CURVE('',#601,#603,#355,.T.);
#732=EDGE_CURVE('',#601,#604,#356,.T.);
#733=EDGE_CURVE('',#605,#603,#357,.T.);
#734=EDGE_CURVE('',#604,#605,#358,.T.);
#735=EDGE_CURVE('',#604,#606,#359,.T.);
#736=EDGE_CURVE('',#607,#605,#360,.T.);
#737=EDGE_CURVE('',#606,#607,#361,.T.);
#738=EDGE_CURVE('',#606,#608,#362,.T.);
#739=EDGE_CURVE('',#609,#607,#363,.T.);
#740=EDGE_CURVE('',#608,#609,#364,.T.);
#741=EDGE_CURVE('',#608,#610,#365,.T.);
#742=EDGE_CURVE('',#611,#609,#366,.T.);
#743=EDGE_CURVE('',#610,#611,#367,.T.);
#744=EDGE_CURVE('',#610,#600,#368,.T.);
#745=EDGE_CURVE('',#602,#611,#369,.T.);
#746=EDGE_CURVE('',#612,#612,#528,.T.);
#747=EDGE_CURVE('',#612,#613,#370,.T.);
#748=EDGE_CURVE('',#613,#613,#529,.T.);
#749=EDGE_CURVE('',#614,#615,#371,.T.);
#750=EDGE_CURVE('',#614,#616,#372,.T.);
#751=EDGE_CURVE('',#616,#617,#373,.T.);
#752=EDGE_CURVE('',#615,#617,#374,.T.);
#753=EDGE_CURVE('',#615,#618,#375,.T.);
#754=EDGE_CURVE('',#617,#619,#376,.T.);
#755=EDGE_CURVE('',#618,#619,#377,.T.);
#756=EDGE_CURVE('',#618,#620,#378,.T.);
#757=EDGE_CURVE('',#619,#621,#379,.T.);
#758=EDGE_CURVE('',#620,#621,#380,.T.);
#759=EDGE_CURVE('',#620,#622,#381,.T.);
#760=EDGE_CURVE('',#621,#623,#382,.T.);
#761=EDGE_CURVE('',#622,#623,#383,.T.);
#762=EDGE_CURVE('',#624,#614,#384,.T.);
#763=EDGE_CURVE('',#624,#625,#385,.T.);
#764=EDGE_CURVE('',#625,#616,#386,.T.);
#765=EDGE_CURVE('',#622,#624,#387,.T.);
#766=EDGE_CURVE('',#623,#625,#388,.T.);
#767=EDGE_CURVE('',#626,#626,#530,.T.);
#768=EDGE_CURVE('',#626,#627,#389,.T.);
#769=EDGE_CURVE('',#627,#627,#531,.T.);
#770=EDGE_CURVE('',#628,#628,#532,.T.);
#771=EDGE_CURVE('',#628,#629,#390,.T.);
#772=EDGE_CURVE('',#629,#629,#533,.T.);
#773=EDGE_CURVE('',#630,#630,#534,.T.);
#774=EDGE_CURVE('',#631,#631,#535,.T.);
#775=EDGE_CURVE('',#631,#630,#391,.T.);
#776=ORIENTED_EDGE('',*,*,#632,.T.);
#777=ORIENTED_EDGE('',*,*,#633,.T.);
#778=ORIENTED_EDGE('',*,*,#634,.T.);
#779=ORIENTED_EDGE('',*,*,#635,.T.);
#780=ORIENTED_EDGE('',*,*,#634,.F.);
#781=ORIENTED_EDGE('',*,*,#636,.F.);
#782=ORIENTED_EDGE('',*,*,#637,.F.);
#783=ORIENTED_EDGE('',*,*,#638,.F.);
#784=ORIENTED_EDGE('',*,*,#639,.F.);
#785=ORIENTED_EDGE('',*,*,#640,.F.);
#786=ORIENTED_EDGE('',*,*,#641,.T.);
#787=ORIENTED_EDGE('',*,*,#633,.F.);
#788=ORIENTED_EDGE('',*,*,#642,.T.);
#789=ORIENTED_EDGE('',*,*,#643,.T.);
#790=ORIENTED_EDGE('',*,*,#636,.T.);
#791=ORIENTED_EDGE('',*,*,#644,.T.);
#792=ORIENTED_EDGE('',*,*,#645,.T.);
#793=ORIENTED_EDGE('',*,*,#646,.T.);
#794=ORIENTED_EDGE('',*,*,#647,.T.);
#795=ORIENTED_EDGE('',*,*,#648,.T.);
#796=ORIENTED_EDGE('',*,*,#649,.T.);
#797=ORIENTED_EDGE('',*,*,#650,.T.);
#798=ORIENTED_EDGE('',*,*,#651,.T.);
#799=ORIENTED_EDGE('',*,*,#652,.T.);
#800=ORIENTED_EDGE('',*,*,#653,.T.);
#801=ORIENTED_EDGE('',*,*,#654,.F.);
#802=ORIENTED_EDGE('',*,*,#655,.T.);
#803=ORIENTED_EDGE('',*,*,#656,.F.);
#804=ORIENTED_EDGE('',*,*,#655,.F.);
#805=ORIENTED_EDGE('',*,*,#657,.F.);
#806=ORIENTED_EDGE('',*,*,#658,.T.);
#807=ORIENTED_EDGE('',*,*,#659,.F.);
#808=ORIENTED_EDGE('',*,*,#658,.F.);
#809=ORIENTED_EDGE('',*,*,#660,.F.);
#810=ORIENTED_EDGE('',*,*,#661,.T.);
#811=ORIENTED_EDGE('',*,*,#662,.F.);
#812=ORIENTED_EDGE('',*,*,#661,.F.);
#813=ORIENTED_EDGE('',*,*,#663,.F.);
#814=ORIENTED_EDGE('',*,*,#664,.T.);
#815=ORIENTED_EDGE('',*,*,#665,.F.);
#816=ORIENTED_EDGE('',*,*,#664,.F.);
#817=ORIENTED_EDGE('',*,*,#666,.F.);
#818=ORIENTED_EDGE('',*,*,#667,.T.);
#819=ORIENTED_EDGE('',*,*,#644,.F.);
#820=ORIENTED_EDGE('',*,*,#667,.F.);
#821=ORIENTED_EDGE('',*,*,#668,.F.);
#822=ORIENTED_EDGE('',*,*,#669,.T.);
#823=ORIENTED_EDGE('',*,*,#645,.F.);
#824=ORIENTED_EDGE('',*,*,#669,.F.);
#825=ORIENTED_EDGE('',*,*,#670,.F.);
#826=ORIENTED_EDGE('',*,*,#671,.T.);
#827=ORIENTED_EDGE('',*,*,#646,.F.);
#828=ORIENTED_EDGE('',*,*,#671,.F.);
#829=ORIENTED_EDGE('',*,*,#672,.F.);
#830=ORIENTED_EDGE('',*,*,#673,.T.);
#831=ORIENTED_EDGE('',*,*,#650,.F.);
#832=ORIENTED_EDGE('',*,*,#674,.F.);
#833=ORIENTED_EDGE('',*,*,#675,.F.);
#834=ORIENTED_EDGE('',*,*,#674,.T.);
#835=ORIENTED_EDGE('',*,*,#649,.F.);
#836=ORIENTED_EDGE('',*,*,#676,.F.);
#837=ORIENTED_EDGE('',*,*,#677,.F.);
#838=ORIENTED_EDGE('',*,*,#676,.T.);
#839=ORIENTED_EDGE('',*,*,#648,.F.);
#840=ORIENTED_EDGE('',*,*,#678,.F.);
#841=ORIENTED_EDGE('',*,*,#679,.F.);
#842=ORIENTED_EDGE('',*,*,#678,.T.);
#843=ORIENTED_EDGE('',*,*,#647,.F.);
#844=ORIENTED_EDGE('',*,*,#673,.F.);
#845=ORIENTED_EDGE('',*,*,#680,.F.);
#846=ORIENTED_EDGE('',*,*,#681,.T.);
#847=ORIENTED_EDGE('',*,*,#651,.F.);
#848=ORIENTED_EDGE('',*,*,#681,.F.);
#849=ORIENTED_EDGE('',*,*,#682,.F.);
#850=ORIENTED_EDGE('',*,*,#683,.T.);
#851=ORIENTED_EDGE('',*,*,#652,.F.);
#852=ORIENTED_EDGE('',*,*,#683,.F.);
#853=ORIENTED_EDGE('',*,*,#684,.F.);
#854=ORIENTED_EDGE('',*,*,#685,.T.);
#855=ORIENTED_EDGE('',*,*,#653,.F.);
#856=ORIENTED_EDGE('',*,*,#685,.F.);
#857=ORIENTED_EDGE('',*,*,#686,.F.);
#858=ORIENTED_EDGE('',*,*,#637,.T.);
#859=ORIENTED_EDGE('',*,*,#643,.F.);
#860=ORIENTED_EDGE('',*,*,#687,.F.);
#861=ORIENTED_EDGE('',*,*,#688,.F.);
#862=ORIENTED_EDGE('',*,*,#638,.T.);
#863=ORIENTED_EDGE('',*,*,#686,.T.);
#864=ORIENTED_EDGE('',*,*,#689,.T.);
#865=ORIENTED_EDGE('',*,*,#684,.T.);
#866=ORIENTED_EDGE('',*,*,#682,.T.);
#867=ORIENTED_EDGE('',*,*,#680,.T.);
#868=ORIENTED_EDGE('',*,*,#679,.T.);
#869=ORIENTED_EDGE('',*,*,#672,.T.);
#870=ORIENTED_EDGE('',*,*,#675,.T.);
#871=ORIENTED_EDGE('',*,*,#677,.T.);
#872=ORIENTED_EDGE('',*,*,#670,.T.);
#873=ORIENTED_EDGE('',*,*,#668,.T.);
#874=ORIENTED_EDGE('',*,*,#666,.T.);
#875=ORIENTED_EDGE('',*,*,#690,.T.);
#876=ORIENTED_EDGE('',*,*,#691,.T.);
#877=ORIENTED_EDGE('',*,*,#692,.F.);
#878=ORIENTED_EDGE('',*,*,#693,.F.);
#879=ORIENTED_EDGE('',*,*,#694,.T.);
#880=ORIENTED_EDGE('',*,*,#693,.T.);
#881=ORIENTED_EDGE('',*,*,#695,.F.);
#882=ORIENTED_EDGE('',*,*,#696,.F.);
#883=ORIENTED_EDGE('',*,*,#632,.F.);
#884=ORIENTED_EDGE('',*,*,#697,.F.);
#885=ORIENTED_EDGE('',*,*,#696,.T.);
#886=ORIENTED_EDGE('',*,*,#698,.F.);
#887=ORIENTED_EDGE('',*,*,#689,.F.);
#888=ORIENTED_EDGE('',*,*,#687,.T.);
#889=ORIENTED_EDGE('',*,*,#642,.F.);
#890=ORIENTED_EDGE('',*,*,#699,.T.);
#891=ORIENTED_EDGE('',*,*,#640,.T.);
#892=ORIENTED_EDGE('',*,*,#700,.F.);
#893=ORIENTED_EDGE('',*,*,#691,.F.);
#894=ORIENTED_EDGE('',*,*,#700,.T.);
#895=ORIENTED_EDGE('',*,*,#639,.T.);
#896=ORIENTED_EDGE('',*,*,#688,.T.);
#897=ORIENTED_EDGE('',*,*,#698,.T.);
#898=ORIENTED_EDGE('',*,*,#695,.T.);
#899=ORIENTED_EDGE('',*,*,#692,.T.);
#900=ORIENTED_EDGE('',*,*,#654,.T.);
#901=ORIENTED_EDGE('',*,*,#657,.T.);
#902=ORIENTED_EDGE('',*,*,#660,.T.);
#903=ORIENTED_EDGE('',*,*,#663,.T.);
#904=ORIENTED_EDGE('',*,*,#635,.F.);
#905=ORIENTED_EDGE('',*,*,#641,.F.);
#906=ORIENTED_EDGE('',*,*,#699,.F.);
#907=ORIENTED_EDGE('',*,*,#690,.F.);
#908=ORIENTED_EDGE('',*,*,#694,.F.);
#909=ORIENTED_EDGE('',*,*,#697,.T.);
#910=ORIENTED_EDGE('',*,*,#656,.T.);
#911=ORIENTED_EDGE('',*,*,#659,.T.);
#912=ORIENTED_EDGE('',*,*,#662,.T.);
#913=ORIENTED_EDGE('',*,*,#665,.T.);
#914=ORIENTED_EDGE('',*,*,#701,.F.);
#915=ORIENTED_EDGE('',*,*,#702,.T.);
#916=ORIENTED_EDGE('',*,*,#703,.T.);
#917=ORIENTED_EDGE('',*,*,#704,.T.);
#918=ORIENTED_EDGE('',*,*,#702,.F.);
#919=ORIENTED_EDGE('',*,*,#705,.T.);
#920=ORIENTED_EDGE('',*,*,#706,.F.);
#921=ORIENTED_EDGE('',*,*,#707,.T.);
#922=ORIENTED_EDGE('',*,*,#704,.F.);
#923=ORIENTED_EDGE('',*,*,#707,.F.);
#924=ORIENTED_EDGE('',*,*,#708,.F.);
#925=ORIENTED_EDGE('',*,*,#709,.F.);
#926=ORIENTED_EDGE('',*,*,#701,.T.);
#927=ORIENTED_EDGE('',*,*,#709,.T.);
#928=ORIENTED_EDGE('',*,*,#710,.F.);
#929=ORIENTED_EDGE('',*,*,#705,.F.);
#930=ORIENTED_EDGE('',*,*,#710,.T.);
#931=ORIENTED_EDGE('',*,*,#708,.T.);
#932=ORIENTED_EDGE('',*,*,#706,.T.);
#933=ORIENTED_EDGE('',*,*,#703,.F.);
#934=ORIENTED_EDGE('',*,*,#711,.T.);
#935=ORIENTED_EDGE('',*,*,#712,.F.);
#936=ORIENTED_EDGE('',*,*,#711,.F.);
#937=ORIENTED_EDGE('',*,*,#713,.T.);
#938=ORIENTED_EDGE('',*,*,#712,.T.);
#939=ORIENTED_EDGE('',*,*,#714,.F.);
#940=ORIENTED_EDGE('',*,*,#715,.T.);
#941=ORIENTED_EDGE('',*,*,#716,.F.);
#942=ORIENTED_EDGE('',*,*,#715,.F.);
#943=ORIENTED_EDGE('',*,*,#714,.T.);
#944=ORIENTED_EDGE('',*,*,#717,.F.);
#945=ORIENTED_EDGE('',*,*,#718,.T.);
#946=ORIENTED_EDGE('',*,*,#713,.F.);
#947=ORIENTED_EDGE('',*,*,#718,.F.);
#948=ORIENTED_EDGE('',*,*,#717,.T.);
#949=ORIENTED_EDGE('',*,*,#716,.T.);
#950=ORIENTED_EDGE('',*,*,#719,.F.);
#951=ORIENTED_EDGE('',*,*,#720,.T.);
#952=ORIENTED_EDGE('',*,*,#721,.F.);
#953=ORIENTED_EDGE('',*,*,#720,.F.);
#954=ORIENTED_EDGE('',*,*,#721,.T.);
#955=ORIENTED_EDGE('',*,*,#719,.T.);
#956=ORIENTED_EDGE('',*,*,#722,.T.);
#957=ORIENTED_EDGE('',*,*,#723,.T.);
#958=ORIENTED_EDGE('',*,*,#724,.F.);
#959=ORIENTED_EDGE('',*,*,#723,.F.);
#960=ORIENTED_EDGE('',*,*,#722,.F.);
#961=ORIENTED_EDGE('',*,*,#725,.F.);
#962=ORIENTED_EDGE('',*,*,#726,.F.);
#963=ORIENTED_EDGE('',*,*,#727,.T.);
#964=ORIENTED_EDGE('',*,*,#725,.T.);
#965=ORIENTED_EDGE('',*,*,#727,.F.);
#966=ORIENTED_EDGE('',*,*,#728,.F.);
#967=ORIENTED_EDGE('',*,*,#729,.T.);
#968=ORIENTED_EDGE('',*,*,#730,.F.);
#969=ORIENTED_EDGE('',*,*,#731,.F.);
#970=ORIENTED_EDGE('',*,*,#732,.F.);
#971=ORIENTED_EDGE('',*,*,#731,.T.);
#972=ORIENTED_EDGE('',*,*,#733,.F.);
#973=ORIENTED_EDGE('',*,*,#734,.F.);
#974=ORIENTED_EDGE('',*,*,#735,.F.);
#975=ORIENTED_EDGE('',*,*,#734,.T.);
#976=ORIENTED_EDGE('',*,*,#736,.F.);
#977=ORIENTED_EDGE('',*,*,#737,.F.);
#978=ORIENTED_EDGE('',*,*,#738,.F.);
#979=ORIENTED_EDGE('',*,*,#737,.T.);
#980=ORIENTED_EDGE('',*,*,#739,.F.);
#981=ORIENTED_EDGE('',*,*,#740,.F.);
#982=ORIENTED_EDGE('',*,*,#741,.F.);
#983=ORIENTED_EDGE('',*,*,#740,.T.);
#984=ORIENTED_EDGE('',*,*,#742,.F.);
#985=ORIENTED_EDGE('',*,*,#743,.F.);
#986=ORIENTED_EDGE('',*,*,#744,.F.);
#987=ORIENTED_EDGE('',*,*,#743,.T.);
#988=ORIENTED_EDGE('',*,*,#745,.F.);
#989=ORIENTED_EDGE('',*,*,#729,.F.);
#990=ORIENTED_EDGE('',*,*,#745,.T.);
#991=ORIENTED_EDGE('',*,*,#742,.T.);
#992=ORIENTED_EDGE('',*,*,#739,.T.);
#993=ORIENTED_EDGE('',*,*,#736,.T.);
#994=ORIENTED_EDGE('',*,*,#733,.T.);
#995=ORIENTED_EDGE('',*,*,#730,.T.);
#996=ORIENTED_EDGE('',*,*,#726,.T.);
#997=ORIENTED_EDGE('',*,*,#746,.F.);
#998=ORIENTED_EDGE('',*,*,#747,.T.);
#999=ORIENTED_EDGE('',*,*,#748,.F.);
#1000=ORIENTED_EDGE('',*,*,#747,.F.);
#1001=ORIENTED_EDGE('',*,*,#748,.T.);
#1002=ORIENTED_EDGE('',*,*,#724,.T.);
#1003=ORIENTED_EDGE('',*,*,#746,.T.);
#1004=ORIENTED_EDGE('',*,*,#728,.T.);
#1005=ORIENTED_EDGE('',*,*,#732,.T.);
#1006=ORIENTED_EDGE('',*,*,#735,.T.);
#1007=ORIENTED_EDGE('',*,*,#738,.T.);
#1008=ORIENTED_EDGE('',*,*,#741,.T.);
#1009=ORIENTED_EDGE('',*,*,#744,.T.);
#1010=ORIENTED_EDGE('',*,*,#749,.F.);
#1011=ORIENTED_EDGE('',*,*,#750,.T.);
#1012=ORIENTED_EDGE('',*,*,#751,.T.);
#1013=ORIENTED_EDGE('',*,*,#752,.F.);
#1014=ORIENTED_EDGE('',*,*,#753,.F.);
#1015=ORIENTED_EDGE('',*,*,#752,.T.);
#1016=ORIENTED_EDGE('',*,*,#754,.T.);
#1017=ORIENTED_EDGE('',*,*,#755,.F.);
#1018=ORIENTED_EDGE('',*,*,#756,.F.);
#1019=ORIENTED_EDGE('',*,*,#755,.T.);
#1020=ORIENTED_EDGE('',*,*,#757,.T.);
#1021=ORIENTED_EDGE('',*,*,#758,.F.);
#1022=ORIENTED_EDGE('',*,*,#759,.F.);
#1023=ORIENTED_EDGE('',*,*,#758,.T.);
#1024=ORIENTED_EDGE('',*,*,#760,.T.);
#1025=ORIENTED_EDGE('',*,*,#761,.F.);
#1026=ORIENTED_EDGE('',*,*,#762,.F.);
#1027=ORIENTED_EDGE('',*,*,#763,.T.);
#1028=ORIENTED_EDGE('',*,*,#764,.T.);
#1029=ORIENTED_EDGE('',*,*,#750,.F.);
#1030=ORIENTED_EDGE('',*,*,#765,.F.);
#1031=ORIENTED_EDGE('',*,*,#761,.T.);
#1032=ORIENTED_EDGE('',*,*,#766,.T.);
#1033=ORIENTED_EDGE('',*,*,#763,.F.);
#1034=ORIENTED_EDGE('',*,*,#766,.F.);
#1035=ORIENTED_EDGE('',*,*,#760,.F.);
#1036=ORIENTED_EDGE('',*,*,#757,.F.);
#1037=ORIENTED_EDGE('',*,*,#754,.F.);
#1038=ORIENTED_EDGE('',*,*,#751,.F.);
#1039=ORIENTED_EDGE('',*,*,#764,.F.);
#1040=ORIENTED_EDGE('',*,*,#767,.F.);
#1041=ORIENTED_EDGE('',*,*,#759,.T.);
#1042=ORIENTED_EDGE('',*,*,#765,.T.);
#1043=ORIENTED_EDGE('',*,*,#762,.T.);
#1044=ORIENTED_EDGE('',*,*,#749,.T.);
#1045=ORIENTED_EDGE('',*,*,#753,.T.);
#1046=ORIENTED_EDGE('',*,*,#756,.T.);
#1047=ORIENTED_EDGE('',*,*,#767,.T.);
#1048=ORIENTED_EDGE('',*,*,#768,.T.);
#1049=ORIENTED_EDGE('',*,*,#769,.T.);
#1050=ORIENTED_EDGE('',*,*,#768,.F.);
#1051=ORIENTED_EDGE('',*,*,#770,.F.);
#1052=ORIENTED_EDGE('',*,*,#771,.T.);
#1053=ORIENTED_EDGE('',*,*,#772,.T.);
#1054=ORIENTED_EDGE('',*,*,#771,.F.);
#1055=ORIENTED_EDGE('',*,*,#772,.F.);
#1056=ORIENTED_EDGE('',*,*,#769,.F.);
#1057=ORIENTED_EDGE('',*,*,#773,.T.);
#1058=ORIENTED_EDGE('',*,*,#770,.T.);
#1059=ORIENTED_EDGE('',*,*,#774,.F.);
#1060=ORIENTED_EDGE('',*,*,#775,.T.);
#1061=ORIENTED_EDGE('',*,*,#773,.F.);
#1062=ORIENTED_EDGE('',*,*,#775,.F.);
#1063=ORIENTED_EDGE('',*,*,#774,.T.);
#1064=CYLINDRICAL_SURFACE('',#1211,3.);
#1065=CYLINDRICAL_SURFACE('',#1225,2.);
#1066=CYLINDRICAL_SURFACE('',#1228,2.);
#1067=CYLINDRICAL_SURFACE('',#1231,2.);
#1068=CYLINDRICAL_SURFACE('',#1234,2.);
#1069=CYLINDRICAL_SURFACE('',#1237,1.6);
#1070=CYLINDRICAL_SURFACE('',#1239,1.6);
#1071=CYLINDRICAL_SURFACE('',#1241,1.6);
#1072=CYLINDRICAL_SURFACE('',#1244,6.50000000000075);
#1073=CYLINDRICAL_SURFACE('',#1247,6.50000000000428);
#1074=CYLINDRICAL_SURFACE('',#1249,1.6);
#1075=CYLINDRICAL_SURFACE('',#1251,1.6);
#1076=CYLINDRICAL_SURFACE('',#1253,1.6);
#1077=CYLINDRICAL_SURFACE('',#1255,20.);
#1078=CYLINDRICAL_SURFACE('',#1259,3.);
#1079=CYLINDRICAL_SURFACE('',#1263,2.99999999999998);
#1080=CYLINDRICAL_SURFACE('',#1274,3.);
#1081=CYLINDRICAL_SURFACE('',#1279,6.);
#1082=CYLINDRICAL_SURFACE('',#1283,16.);
#1083=CYLINDRICAL_SURFACE('',#1287,18.5);
#1084=CYLINDRICAL_SURFACE('',#1290,16.);
#1085=CYLINDRICAL_SURFACE('',#1296,3.);
#1086=CYLINDRICAL_SURFACE('',#1301,2.);
#1087=CYLINDRICAL_SURFACE('',#1310,10.);
#1088=CYLINDRICAL_SURFACE('',#1325,10.);
#1089=CYLINDRICAL_SURFACE('',#1327,28.8);
#1090=CYLINDRICAL_SURFACE('',#1333,42.5);
#1091=ADVANCED_FACE('',(#140),#1064,.T.);
#1092=ADVANCED_FACE('',(#141),#101,.T.);
#1093=ADVANCED_FACE('',(#142,#69,#70,#71,#72,#73,#74,#75),#102,.F.);
#1094=ADVANCED_FACE('',(#143),#1065,.F.);
#1095=ADVANCED_FACE('',(#144),#1066,.F.);
#1096=ADVANCED_FACE('',(#145),#1067,.F.);
#1097=ADVANCED_FACE('',(#146),#1068,.F.);
#1098=ADVANCED_FACE('',(#147),#1069,.F.);
#1099=ADVANCED_FACE('',(#148),#1070,.F.);
#1100=ADVANCED_FACE('',(#149),#1071,.F.);
#1101=ADVANCED_FACE('',(#150),#103,.T.);
#1102=ADVANCED_FACE('',(#151),#1072,.F.);
#1103=ADVANCED_FACE('',(#152),#104,.T.);
#1104=ADVANCED_FACE('',(#153),#1073,.F.);
#1105=ADVANCED_FACE('',(#154),#1074,.F.);
#1106=ADVANCED_FACE('',(#155),#1075,.F.);
#1107=ADVANCED_FACE('',(#156),#1076,.F.);
#1108=ADVANCED_FACE('',(#157),#1077,.T.);
#1109=ADVANCED_FACE('',(#158,#76,#77,#78,#79,#80,#81,#82),#105,.T.);
#1110=ADVANCED_FACE('',(#159),#106,.T.);
#1111=ADVANCED_FACE('',(#160),#1078,.T.);
#1112=ADVANCED_FACE('',(#161),#107,.T.);
#1113=ADVANCED_FACE('',(#162),#1079,.T.);
#1114=ADVANCED_FACE('',(#163,#83,#84,#85,#86),#108,.T.);
#1115=ADVANCED_FACE('',(#164,#87,#88,#89,#90),#109,.F.);
#1116=ADVANCED_FACE('',(#165),#110,.T.);
#1117=ADVANCED_FACE('',(#166,#91),#111,.T.);
#1118=ADVANCED_FACE('',(#167),#1080,.T.);
#1119=ADVANCED_FACE('',(#168),#112,.T.);
#1120=ADVANCED_FACE('',(#169),#113,.T.);
#1121=ADVANCED_FACE('',(#170),#1081,.T.);
#1122=ADVANCED_FACE('',(#171,#92),#114,.T.);
#1123=ADVANCED_FACE('',(#172),#1082,.T.);
#1124=ADVANCED_FACE('',(#173),#115,.T.);
#1125=ADVANCED_FACE('',(#174),#1083,.T.);
#1126=ADVANCED_FACE('',(#175,#93),#116,.T.);
#1127=ADVANCED_FACE('',(#176),#1084,.T.);
#1128=ADVANCED_FACE('',(#177),#117,.T.);
#1129=ADVANCED_FACE('',(#178),#118,.T.);
#1130=ADVANCED_FACE('',(#179),#1085,.F.);
#1131=ADVANCED_FACE('',(#180,#94),#119,.F.);
#1132=ADVANCED_FACE('',(#181),#1086,.F.);
#1133=ADVANCED_FACE('',(#182),#120,.T.);
#1134=ADVANCED_FACE('',(#183),#121,.T.);
#1135=ADVANCED_FACE('',(#184),#122,.T.);
#1136=ADVANCED_FACE('',(#185),#123,.T.);
#1137=ADVANCED_FACE('',(#186),#124,.T.);
#1138=ADVANCED_FACE('',(#187),#125,.T.);
#1139=ADVANCED_FACE('',(#188,#95),#126,.T.);
#1140=ADVANCED_FACE('',(#189),#1087,.T.);
#1141=ADVANCED_FACE('',(#190,#96),#127,.T.);
#1142=ADVANCED_FACE('',(#191,#97),#128,.T.);
#1143=ADVANCED_FACE('',(#192),#129,.F.);
#1144=ADVANCED_FACE('',(#193),#130,.F.);
#1145=ADVANCED_FACE('',(#194),#131,.F.);
#1146=ADVANCED_FACE('',(#195),#132,.F.);
#1147=ADVANCED_FACE('',(#196),#133,.F.);
#1148=ADVANCED_FACE('',(#197),#134,.F.);
#1149=ADVANCED_FACE('',(#198),#135,.F.);
#1150=ADVANCED_FACE('',(#199,#98),#136,.T.);
#1151=ADVANCED_FACE('',(#200),#1088,.T.);
#1152=ADVANCED_FACE('',(#201),#1089,.F.);
#1153=ADVANCED_FACE('',(#202,#99),#137,.T.);
#1154=ADVANCED_FACE('',(#203,#100),#138,.T.);
#1155=ADVANCED_FACE('',(#204),#1090,.T.);
#1156=ADVANCED_FACE('',(#205),#139,.F.);
#1157=CLOSED_SHELL('',(#1091,#1092,#1093,#1094,#1095,#1096,#1097,#1098,
#1099,#1100,#1101,#1102,#1103,#1104,#1105,#1106,#1107,#1108,#1109,#1110,
#1111,#1112,#1113,#1114,#1115));
#1158=CLOSED_SHELL('',(#1116,#1117,#1118,#1119,#1120,#1121,#1122,#1123,
#1124,#1125,#1126));
#1159=CLOSED_SHELL('',(#1127,#1128,#1129));
#1160=CLOSED_SHELL('',(#1130,#1131,#1132,#1133,#1134,#1135,#1136,#1137,
#1138,#1139,#1140,#1141,#1142));
#1161=CLOSED_SHELL('',(#1143,#1144,#1145,#1146,#1147,#1148,#1149,#1150,
#1151,#1152,#1153,#1154,#1155,#1156));
#1162=DERIVED_UNIT_ELEMENT(#1170,1.);
#1163=DERIVED_UNIT_ELEMENT(#2052,-3.);
#1164=DERIVED_UNIT_ELEMENT(#1170,1.);
#1165=DERIVED_UNIT_ELEMENT(#2052,-3.);
#1166=DERIVED_UNIT_ELEMENT(#1170,1.);
#1167=DERIVED_UNIT_ELEMENT(#2052,-3.);
#1168=DERIVED_UNIT_ELEMENT(#1170,1.);
#1169=DERIVED_UNIT_ELEMENT(#2052,-3.);
#1170=(
MASS_UNIT()
NAMED_UNIT(*)
SI_UNIT(.KILO.,.GRAM.)
);
#1171=DERIVED_UNIT((#1162,#1163));
#1172=DERIVED_UNIT((#1164,#1165));
#1173=DERIVED_UNIT((#1166,#1167));
#1174=DERIVED_UNIT((#1168,#1169));
#1175=MEASURE_REPRESENTATION_ITEM('density measure',
POSITIVE_RATIO_MEASURE(7850.),#1171);
#1176=MEASURE_REPRESENTATION_ITEM('density measure',
POSITIVE_RATIO_MEASURE(7850.),#1172);
#1177=MEASURE_REPRESENTATION_ITEM('density measure',
POSITIVE_RATIO_MEASURE(7850.),#1173);
#1178=MEASURE_REPRESENTATION_ITEM('density measure',
POSITIVE_RATIO_MEASURE(7850.),#1174);
#1179=PROPERTY_DEFINITION_REPRESENTATION(#1199,#1187);
#1180=PROPERTY_DEFINITION_REPRESENTATION(#1200,#1188);
#1181=PROPERTY_DEFINITION_REPRESENTATION(#1201,#1189);
#1182=PROPERTY_DEFINITION_REPRESENTATION(#1202,#1190);
#1183=PROPERTY_DEFINITION_REPRESENTATION(#1203,#1191);
#1184=PROPERTY_DEFINITION_REPRESENTATION(#1204,#1192);
#1185=PROPERTY_DEFINITION_REPRESENTATION(#1205,#1193);
#1186=PROPERTY_DEFINITION_REPRESENTATION(#1206,#1194);
#1187=REPRESENTATION('material name',(#1195),#2046);
#1188=REPRESENTATION('density',(#1175),#2046);
#1189=REPRESENTATION('material name',(#1196),#2047);
#1190=REPRESENTATION('density',(#1176),#2047);
#1191=REPRESENTATION('material name',(#1197),#2048);
#1192=REPRESENTATION('density',(#1177),#2048);
#1193=REPRESENTATION('material name',(#1198),#2049);
#1194=REPRESENTATION('density',(#1178),#2049);
#1195=DESCRIPTIVE_REPRESENTATION_ITEM('\X2\94A2\X0\','\X2\94A2\X0\');
#1196=DESCRIPTIVE_REPRESENTATION_ITEM('\X2\94A2\X0\','\X2\94A2\X0\');
#1197=DESCRIPTIVE_REPRESENTATION_ITEM('\X2\94A2\X0\','\X2\94A2\X0\');
#1198=DESCRIPTIVE_REPRESENTATION_ITEM('\X2\94A2\X0\','\X2\94A2\X0\');
#1199=PROPERTY_DEFINITION('material property','material name',#2090);
#1200=PROPERTY_DEFINITION('material property','density of part',#2090);
#1201=PROPERTY_DEFINITION('material property','material name',#2091);
#1202=PROPERTY_DEFINITION('material property','density of part',#2091);
#1203=PROPERTY_DEFINITION('material property','material name',#2092);
#1204=PROPERTY_DEFINITION('material property','density of part',#2092);
#1205=PROPERTY_DEFINITION('material property','material name',#2093);
#1206=PROPERTY_DEFINITION('material property','density of part',#2093);
#1207=AXIS2_PLACEMENT_3D('',#1712,#1346,#1347);
#1208=AXIS2_PLACEMENT_3D('',#1713,#1348,#1349);
#1209=AXIS2_PLACEMENT_3D('',#1714,#1350,#1351);
#1210=AXIS2_PLACEMENT_3D('',#1715,#1352,#1353);
#1211=AXIS2_PLACEMENT_3D('',#1716,#1354,#1355);
#1212=AXIS2_PLACEMENT_3D('',#1719,#1356,#1357);
#1213=AXIS2_PLACEMENT_3D('',#1723,#1359,#1360);
#1214=AXIS2_PLACEMENT_3D('',#1725,#1362,#1363);
#1215=AXIS2_PLACEMENT_3D('',#1737,#1370,#1371);
#1216=AXIS2_PLACEMENT_3D('',#1740,#1373,#1374);
#1217=AXIS2_PLACEMENT_3D('',#1742,#1375,#1376);
#1218=AXIS2_PLACEMENT_3D('',#1744,#1377,#1378);
#1219=AXIS2_PLACEMENT_3D('',#1746,#1379,#1380);
#1220=AXIS2_PLACEMENT_3D('',#1749,#1381,#1382);
#1221=AXIS2_PLACEMENT_3D('',#1753,#1384,#1385);
#1222=AXIS2_PLACEMENT_3D('',#1756,#1387,#1388);
#1223=AXIS2_PLACEMENT_3D('',#1758,#1389,#1390);
#1224=AXIS2_PLACEMENT_3D('',#1760,#1391,#1392);
#1225=AXIS2_PLACEMENT_3D('',#1761,#1393,#1394);
#1226=AXIS2_PLACEMENT_3D('',#1763,#1395,#1396);
#1227=AXIS2_PLACEMENT_3D('',#1766,#1398,#1399);
#1228=AXIS2_PLACEMENT_3D('',#1767,#1400,#1401);
#1229=AXIS2_PLACEMENT_3D('',#1769,#1402,#1403);
#1230=AXIS2_PLACEMENT_3D('',#1772,#1405,#1406);
#1231=AXIS2_PLACEMENT_3D('',#1773,#1407,#1408);
#1232=AXIS2_PLACEMENT_3D('',#1775,#1409,#1410);
#1233=AXIS2_PLACEMENT_3D('',#1778,#1412,#1413);
#1234=AXIS2_PLACEMENT_3D('',#1779,#1414,#1415);
#1235=AXIS2_PLACEMENT_3D('',#1781,#1416,#1417);
#1236=AXIS2_PLACEMENT_3D('',#1784,#1419,#1420);
#1237=AXIS2_PLACEMENT_3D('',#1785,#1421,#1422);
#1238=AXIS2_PLACEMENT_3D('',#1787,#1423,#1424);
#1239=AXIS2_PLACEMENT_3D('',#1789,#1426,#1427);
#1240=AXIS2_PLACEMENT_3D('',#1791,#1428,#1429);
#1241=AXIS2_PLACEMENT_3D('',#1793,#1431,#1432);
#1242=AXIS2_PLACEMENT_3D('',#1795,#1433,#1434);
#1243=AXIS2_PLACEMENT_3D('',#1797,#1436,#1437);
#1244=AXIS2_PLACEMENT_3D('',#1803,#1441,#1442);
#1245=AXIS2_PLACEMENT_3D('',#1805,#1443,#1444);
#1246=AXIS2_PLACEMENT_3D('',#1807,#1446,#1447);
#1247=AXIS2_PLACEMENT_3D('',#1811,#1450,#1451);
#1248=AXIS2_PLACEMENT_3D('',#1812,#1452,#1453);
#1249=AXIS2_PLACEMENT_3D('',#1813,#1454,#1455);
#1250=AXIS2_PLACEMENT_3D('',#1815,#1456,#1457);
#1251=AXIS2_PLACEMENT_3D('',#1817,#1459,#1460);
#1252=AXIS2_PLACEMENT_3D('',#1819,#1461,#1462);
#1253=AXIS2_PLACEMENT_3D('',#1821,#1464,#1465);
#1254=AXIS2_PLACEMENT_3D('',#1823,#1466,#1467);
#1255=AXIS2_PLACEMENT_3D('',#1825,#1469,#1470);
#1256=AXIS2_PLACEMENT_3D('',#1827,#1471,#1472);
#1257=AXIS2_PLACEMENT_3D('',#1829,#1474,#1475);
#1258=AXIS2_PLACEMENT_3D('',#1833,#1478,#1479);
#1259=AXIS2_PLACEMENT_3D('',#1842,#1484,#1485);
#1260=AXIS2_PLACEMENT_3D('',#1844,#1486,#1487);
#1261=AXIS2_PLACEMENT_3D('',#1846,#1488,#1489);
#1262=AXIS2_PLACEMENT_3D('',#1848,#1491,#1492);
#1263=AXIS2_PLACEMENT_3D('',#1851,#1495,#1496);
#1264=AXIS2_PLACEMENT_3D('',#1852,#1497,#1498);
#1265=AXIS2_PLACEMENT_3D('',#1853,#1499,#1500);
#1266=AXIS2_PLACEMENT_3D('',#1854,#1501,#1502);
#1267=AXIS2_PLACEMENT_3D('',#1855,#1503,#1504);
#1268=AXIS2_PLACEMENT_3D('',#1856,#1505,#1506);
#1269=AXIS2_PLACEMENT_3D('',#1857,#1507,#1508);
#1270=AXIS2_PLACEMENT_3D('',#1861,#1510,#1511);
#1271=AXIS2_PLACEMENT_3D('',#1862,#1512,#1513);
#1272=AXIS2_PLACEMENT_3D('',#1864,#1514,#1515);
#1273=AXIS2_PLACEMENT_3D('',#1866,#1516,#1517);
#1274=AXIS2_PLACEMENT_3D('',#1867,#1518,#1519);
#1275=AXIS2_PLACEMENT_3D('',#1871,#1521,#1522);
#1276=AXIS2_PLACEMENT_3D('',#1874,#1524,#1525);
#1277=AXIS2_PLACEMENT_3D('',#1876,#1527,#1528);
#1278=AXIS2_PLACEMENT_3D('',#1878,#1530,#1531);
#1279=AXIS2_PLACEMENT_3D('',#1879,#1532,#1533);
#1280=AXIS2_PLACEMENT_3D('',#1882,#1535,#1536);
#1281=AXIS2_PLACEMENT_3D('',#1883,#1537,#1538);
#1282=AXIS2_PLACEMENT_3D('',#1885,#1539,#1540);
#1283=AXIS2_PLACEMENT_3D('',#1886,#1541,#1542);
#1284=AXIS2_PLACEMENT_3D('',#1888,#1543,#1544);
#1285=AXIS2_PLACEMENT_3D('',#1891,#1546,#1547);
#1286=AXIS2_PLACEMENT_3D('',#1892,#1548,#1549);
#1287=AXIS2_PLACEMENT_3D('',#1893,#1550,#1551);
#1288=AXIS2_PLACEMENT_3D('',#1895,#1552,#1553);
#1289=AXIS2_PLACEMENT_3D('',#1897,#1555,#1556);
#1290=AXIS2_PLACEMENT_3D('',#1898,#1557,#1558);
#1291=AXIS2_PLACEMENT_3D('',#1900,#1559,#1560);
#1292=AXIS2_PLACEMENT_3D('',#1903,#1562,#1563);
#1293=AXIS2_PLACEMENT_3D('',#1904,#1564,#1565);
#1294=AXIS2_PLACEMENT_3D('',#1905,#1566,#1567);
#1295=AXIS2_PLACEMENT_3D('',#1906,#1568,#1569);
#1296=AXIS2_PLACEMENT_3D('',#1907,#1570,#1571);
#1297=AXIS2_PLACEMENT_3D('',#1909,#1572,#1573);
#1298=AXIS2_PLACEMENT_3D('',#1912,#1575,#1576);
#1299=AXIS2_PLACEMENT_3D('',#1913,#1577,#1578);
#1300=AXIS2_PLACEMENT_3D('',#1915,#1579,#1580);
#1301=AXIS2_PLACEMENT_3D('',#1916,#1581,#1582);
#1302=AXIS2_PLACEMENT_3D('',#1918,#1583,#1584);
#1303=AXIS2_PLACEMENT_3D('',#1920,#1586,#1587);
#1304=AXIS2_PLACEMENT_3D('',#1929,#1592,#1593);
#1305=AXIS2_PLACEMENT_3D('',#1935,#1597,#1598);
#1306=AXIS2_PLACEMENT_3D('',#1941,#1602,#1603);
#1307=AXIS2_PLACEMENT_3D('',#1947,#1607,#1608);
#1308=AXIS2_PLACEMENT_3D('',#1953,#1612,#1613);
#1309=AXIS2_PLACEMENT_3D('',#1956,#1616,#1617);
#1310=AXIS2_PLACEMENT_3D('',#1957,#1618,#1619);
#1311=AXIS2_PLACEMENT_3D('',#1959,#1620,#1621);
#1312=AXIS2_PLACEMENT_3D('',#1962,#1623,#1624);
#1313=AXIS2_PLACEMENT_3D('',#1963,#1625,#1626);
#1314=AXIS2_PLACEMENT_3D('',#1964,#1627,#1628);
#1315=AXIS2_PLACEMENT_3D('',#1965,#1629,#1630);
#1316=AXIS2_PLACEMENT_3D('',#1966,#1631,#1632);
#1317=AXIS2_PLACEMENT_3D('',#1975,#1637,#1638);
#1318=AXIS2_PLACEMENT_3D('',#1981,#1642,#1643);
#1319=AXIS2_PLACEMENT_3D('',#1987,#1647,#1648);
#1320=AXIS2_PLACEMENT_3D('',#1993,#1652,#1653);
#1321=AXIS2_PLACEMENT_3D('',#1999,#1657,#1658);
#1322=AXIS2_PLACEMENT_3D('',#2002,#1661,#1662);
#1323=AXIS2_PLACEMENT_3D('',#2003,#1663,#1664);
#1324=AXIS2_PLACEMENT_3D('',#2005,#1665,#1666);
#1325=AXIS2_PLACEMENT_3D('',#2006,#1667,#1668);
#1326=AXIS2_PLACEMENT_3D('',#2009,#1670,#1671);
#1327=AXIS2_PLACEMENT_3D('',#2010,#1672,#1673);
#1328=AXIS2_PLACEMENT_3D('',#2012,#1674,#1675);
#1329=AXIS2_PLACEMENT_3D('',#2015,#1677,#1678);
#1330=AXIS2_PLACEMENT_3D('',#2016,#1679,#1680);
#1331=AXIS2_PLACEMENT_3D('',#2017,#1681,#1682);
#1332=AXIS2_PLACEMENT_3D('',#2019,#1683,#1684);
#1333=AXIS2_PLACEMENT_3D('',#2020,#1685,#1686);
#1334=AXIS2_PLACEMENT_3D('',#2022,#1687,#1688);
#1335=AXIS2_PLACEMENT_3D('',#2024,#1690,#1691);
#1336=AXIS2_PLACEMENT_3D('',#2025,#1692,#1693);
#1337=AXIS2_PLACEMENT_3D('',#2026,#1694,#1695);
#1338=AXIS2_PLACEMENT_3D('',#2027,#1696,#1697);
#1339=AXIS2_PLACEMENT_3D('',#2028,#1698,#1699);
#1340=AXIS2_PLACEMENT_3D('',#2029,#1700,#1701);
#1341=AXIS2_PLACEMENT_3D('',#2030,#1702,#1703);
#1342=AXIS2_PLACEMENT_3D('',#2031,#1704,#1705);
#1343=AXIS2_PLACEMENT_3D('',#2032,#1706,#1707);
#1344=AXIS2_PLACEMENT_3D('',#2033,#1708,#1709);
#1345=AXIS2_PLACEMENT_3D('',#2034,#1710,#1711);
#1346=DIRECTION('axis',(0.,0.,1.));
#1347=DIRECTION('refdir',(1.,0.,0.));
#1348=DIRECTION('axis',(0.,0.,1.));
#1349=DIRECTION('refdir',(1.,0.,0.));
#1350=DIRECTION('axis',(0.,0.,1.));
#1351=DIRECTION('refdir',(1.,0.,0.));
#1352=DIRECTION('axis',(0.,0.,1.));
#1353=DIRECTION('refdir',(1.,0.,0.));
#1354=DIRECTION('center_axis',(0.,0.,1.));
#1355=DIRECTION('ref_axis',(-0.707106781186547,-0.707106781186547,0.));
#1356=DIRECTION('center_axis',(0.,0.,-1.));
#1357=DIRECTION('ref_axis',(-0.707106781186547,-0.707106781186547,0.));
#1358=DIRECTION('',(0.,0.,-1.));
#1359=DIRECTION('center_axis',(1.22002530178589E-16,0.,1.));
#1360=DIRECTION('ref_axis',(-0.707106781186547,-0.707106781186547,8.62688164111967E-17));
#1361=DIRECTION('',(0.,0.,1.));
#1362=DIRECTION('center_axis',(-1.22002530178589E-16,0.,-1.));
#1363=DIRECTION('ref_axis',(-1.,0.,1.22002530178589E-16));
#1364=DIRECTION('',(0.,-1.,0.));
#1365=DIRECTION('',(-1.,0.,0.));
#1366=DIRECTION('',(0.,1.,0.));
#1367=DIRECTION('',(-1.,0.,1.22002530178589E-16));
#1368=DIRECTION('',(0.,1.,0.));
#1369=DIRECTION('',(-1.,0.,1.22002530178589E-16));
#1370=DIRECTION('center_axis',(1.,0.,0.));
#1371=DIRECTION('ref_axis',(0.,0.,-1.));
#1372=DIRECTION('',(0.,1.,0.));
#1373=DIRECTION('center_axis',(-1.,0.,0.));
#1374=DIRECTION('ref_axis',(0.,0.,-1.));
#1375=DIRECTION('center_axis',(1.,0.,0.));
#1376=DIRECTION('ref_axis',(0.,0.,-1.));
#1377=DIRECTION('center_axis',(1.,0.,0.));
#1378=DIRECTION('ref_axis',(0.,0.,-1.));
#1379=DIRECTION('center_axis',(1.,0.,0.));
#1380=DIRECTION('ref_axis',(0.,0.,-1.));
#1381=DIRECTION('center_axis',(1.,0.,0.));
#1382=DIRECTION('ref_axis',(0.,9.84210661687047E-9,-1.));
#1383=DIRECTION('',(0.,-1.,8.75490158385759E-14));
#1384=DIRECTION('center_axis',(1.,0.,0.));
#1385=DIRECTION('ref_axis',(0.,1.82629706229727E-9,1.));
#1386=DIRECTION('',(0.,1.,-1.20855705337265E-13));
#1387=DIRECTION('center_axis',(1.,0.,0.));
#1388=DIRECTION('ref_axis',(0.,0.,-1.));
#1389=DIRECTION('center_axis',(1.,0.,0.));
#1390=DIRECTION('ref_axis',(0.,0.,-1.));
#1391=DIRECTION('center_axis',(1.,0.,0.));
#1392=DIRECTION('ref_axis',(0.,0.,-1.));
#1393=DIRECTION('center_axis',(0.,-1.,0.));
#1394=DIRECTION('ref_axis',(-1.,0.,0.));
#1395=DIRECTION('center_axis',(0.,-1.,0.));
#1396=DIRECTION('ref_axis',(-1.,0.,0.));
#1397=DIRECTION('',(0.,-1.,0.));
#1398=DIRECTION('center_axis',(0.,1.,0.));
#1399=DIRECTION('ref_axis',(-1.,0.,0.));
#1400=DIRECTION('center_axis',(0.,-1.,0.));
#1401=DIRECTION('ref_axis',(-1.,0.,0.));
#1402=DIRECTION('center_axis',(0.,-1.,0.));
#1403=DIRECTION('ref_axis',(-1.,0.,0.));
#1404=DIRECTION('',(0.,-1.,0.));
#1405=DIRECTION('center_axis',(0.,1.,0.));
#1406=DIRECTION('ref_axis',(-1.,0.,0.));
#1407=DIRECTION('center_axis',(0.,-1.,0.));
#1408=DIRECTION('ref_axis',(-1.,0.,0.));
#1409=DIRECTION('center_axis',(0.,-1.,0.));
#1410=DIRECTION('ref_axis',(-1.,0.,0.));
#1411=DIRECTION('',(0.,-1.,0.));
#1412=DIRECTION('center_axis',(0.,1.,0.));
#1413=DIRECTION('ref_axis',(-1.,0.,0.));
#1414=DIRECTION('center_axis',(0.,-1.,0.));
#1415=DIRECTION('ref_axis',(-1.,0.,0.));
#1416=DIRECTION('center_axis',(0.,-1.,0.));
#1417=DIRECTION('ref_axis',(-1.,0.,0.));
#1418=DIRECTION('',(0.,-1.,0.));
#1419=DIRECTION('center_axis',(0.,1.,0.));
#1420=DIRECTION('ref_axis',(-1.,0.,0.));
#1421=DIRECTION('center_axis',(-1.,0.,0.));
#1422=DIRECTION('ref_axis',(0.,0.,-1.));
#1423=DIRECTION('center_axis',(-1.,0.,0.));
#1424=DIRECTION('ref_axis',(0.,0.,-1.));
#1425=DIRECTION('',(-1.,0.,0.));
#1426=DIRECTION('center_axis',(-1.,0.,0.));
#1427=DIRECTION('ref_axis',(0.,0.,-1.));
#1428=DIRECTION('center_axis',(-1.,0.,0.));
#1429=DIRECTION('ref_axis',(0.,0.,-1.));
#1430=DIRECTION('',(-1.,0.,0.));
#1431=DIRECTION('center_axis',(-1.,0.,0.));
#1432=DIRECTION('ref_axis',(0.,0.,-1.));
#1433=DIRECTION('center_axis',(-1.,0.,0.));
#1434=DIRECTION('ref_axis',(0.,0.,-1.));
#1435=DIRECTION('',(-1.,0.,0.));
#1436=DIRECTION('center_axis',(0.,1.20855705337265E-13,1.));
#1437=DIRECTION('ref_axis',(0.,1.,-1.20855705337265E-13));
#1438=DIRECTION('',(0.,-1.,1.20855705337265E-13));
#1439=DIRECTION('',(-1.,0.,0.));
#1440=DIRECTION('',(-1.,0.,0.));
#1441=DIRECTION('center_axis',(-1.,0.,0.));
#1442=DIRECTION('ref_axis',(0.,1.82629706229727E-9,1.));
#1443=DIRECTION('center_axis',(-1.,0.,0.));
#1444=DIRECTION('ref_axis',(0.,1.82629706229727E-9,1.));
#1445=DIRECTION('',(-1.,0.,0.));
#1446=DIRECTION('center_axis',(0.,-8.75490158385759E-14,-1.));
#1447=DIRECTION('ref_axis',(0.,-1.,8.75490158385759E-14));
#1448=DIRECTION('',(0.,1.,-8.75490158385759E-14));
#1449=DIRECTION('',(-1.,0.,0.));
#1450=DIRECTION('center_axis',(-1.,0.,0.));
#1451=DIRECTION('ref_axis',(0.,9.84210661687047E-9,-1.));
#1452=DIRECTION('center_axis',(-1.,0.,0.));
#1453=DIRECTION('ref_axis',(0.,9.84210661687047E-9,-1.));
#1454=DIRECTION('center_axis',(-1.,0.,0.));
#1455=DIRECTION('ref_axis',(0.,0.,-1.));
#1456=DIRECTION('center_axis',(-1.,0.,0.));
#1457=DIRECTION('ref_axis',(0.,0.,-1.));
#1458=DIRECTION('',(-1.,0.,0.));
#1459=DIRECTION('center_axis',(-1.,0.,0.));
#1460=DIRECTION('ref_axis',(0.,0.,-1.));
#1461=DIRECTION('center_axis',(-1.,0.,0.));
#1462=DIRECTION('ref_axis',(0.,0.,-1.));
#1463=DIRECTION('',(-1.,0.,0.));
#1464=DIRECTION('center_axis',(-1.,0.,0.));
#1465=DIRECTION('ref_axis',(0.,0.,-1.));
#1466=DIRECTION('center_axis',(-1.,0.,0.));
#1467=DIRECTION('ref_axis',(0.,0.,-1.));
#1468=DIRECTION('',(-1.,0.,0.));
#1469=DIRECTION('center_axis',(-1.,0.,0.));
#1470=DIRECTION('ref_axis',(0.,0.,-1.));
#1471=DIRECTION('center_axis',(1.,0.,0.));
#1472=DIRECTION('ref_axis',(0.,0.,-1.));
#1473=DIRECTION('',(-1.,0.,0.));
#1474=DIRECTION('center_axis',(1.,0.,0.));
#1475=DIRECTION('ref_axis',(0.,0.,-1.));
#1476=DIRECTION('',(0.,0.,1.));
#1477=DIRECTION('',(0.,-1.,0.));
#1478=DIRECTION('center_axis',(1.,0.,0.));
#1479=DIRECTION('ref_axis',(0.,0.,-1.));
#1480=DIRECTION('',(0.,0.,-1.));
#1481=DIRECTION('',(0.,1.,0.));
#1482=DIRECTION('',(0.,0.,-1.));
#1483=DIRECTION('',(0.,1.,0.));
#1484=DIRECTION('center_axis',(0.,1.,0.));
#1485=DIRECTION('ref_axis',(0.,0.,1.));
#1486=DIRECTION('center_axis',(0.,1.,0.));
#1487=DIRECTION('ref_axis',(0.,0.,1.));
#1488=DIRECTION('center_axis',(0.,1.,0.));
#1489=DIRECTION('ref_axis',(0.,0.,1.));
#1490=DIRECTION('',(0.,1.,0.));
#1491=DIRECTION('center_axis',(0.,0.,1.));
#1492=DIRECTION('ref_axis',(1.,0.,0.));
#1493=DIRECTION('',(-1.,0.,0.));
#1494=DIRECTION('',(1.,0.,0.));
#1495=DIRECTION('center_axis',(0.,1.,0.));
#1496=DIRECTION('ref_axis',(1.,0.,0.));
#1497=DIRECTION('center_axis',(0.,1.,0.));
#1498=DIRECTION('ref_axis',(1.,0.,0.));
#1499=DIRECTION('center_axis',(0.,1.,0.));
#1500=DIRECTION('ref_axis',(1.,0.,0.));
#1501=DIRECTION('center_axis',(0.,1.,0.));
#1502=DIRECTION('ref_axis',(1.,0.,0.));
#1503=DIRECTION('center_axis',(0.,1.,0.));
#1504=DIRECTION('ref_axis',(1.,0.,0.));
#1505=DIRECTION('axis',(0.,0.,1.));
#1506=DIRECTION('refdir',(1.,0.,0.));
#1507=DIRECTION('center_axis',(0.,-1.,0.));
#1508=DIRECTION('ref_axis',(1.,0.,0.));
#1509=DIRECTION('',(1.,0.,-3.34744836935922E-16));
#1510=DIRECTION('center_axis',(0.,-1.,0.));
#1511=DIRECTION('ref_axis',(1.,0.,0.));
#1512=DIRECTION('center_axis',(0.,-1.,0.));
#1513=DIRECTION('ref_axis',(1.,0.,0.));
#1514=DIRECTION('center_axis',(0.,-1.,0.));
#1515=DIRECTION('ref_axis',(1.,0.,0.));
#1516=DIRECTION('center_axis',(0.,1.,0.));
#1517=DIRECTION('ref_axis',(1.,0.,0.));
#1518=DIRECTION('center_axis',(0.,-1.,2.11471052309554E-16));
#1519=DIRECTION('ref_axis',(0.552770798392567,-1.76225876924628E-16,-0.833333333333333));
#1520=DIRECTION('',(0.,-1.,2.11471052309554E-16));
#1521=DIRECTION('center_axis',(0.,-1.,2.22044604925031E-16));
#1522=DIRECTION('ref_axis',(0.552770798392567,0.,-0.833333333333333));
#1523=DIRECTION('',(0.,1.,-2.11471052309554E-16));
#1524=DIRECTION('center_axis',(0.,-1.,2.22044604925031E-16));
#1525=DIRECTION('ref_axis',(0.552770798392567,0.,-0.833333333333333));
#1526=DIRECTION('',(0.,-1.,2.11471052309554E-16));
#1527=DIRECTION('center_axis',(-3.34744836935922E-16,-2.11471052309554E-16,
-1.));
#1528=DIRECTION('ref_axis',(1.,-7.43282850681308E-32,-3.34744836935922E-16));
#1529=DIRECTION('',(1.,-7.43282850681308E-32,-3.34744836935922E-16));
#1530=DIRECTION('center_axis',(0.,-1.,2.22044604925031E-16));
#1531=DIRECTION('ref_axis',(-1.,0.,0.));
#1532=DIRECTION('center_axis',(0.,-1.,0.));
#1533=DIRECTION('ref_axis',(1.,0.,0.));
#1534=DIRECTION('',(0.,1.,0.));
#1535=DIRECTION('center_axis',(0.,1.,-2.22044604925031E-16));
#1536=DIRECTION('ref_axis',(1.,0.,0.));
#1537=DIRECTION('center_axis',(0.,-1.,2.22044604925031E-16));
#1538=DIRECTION('ref_axis',(-1.,0.,0.));
#1539=DIRECTION('center_axis',(0.,-1.,2.22044604925031E-16));
#1540=DIRECTION('ref_axis',(1.,0.,0.));
#1541=DIRECTION('center_axis',(0.,1.,-2.22044604925031E-16));
#1542=DIRECTION('ref_axis',(1.,0.,0.));
#1543=DIRECTION('center_axis',(0.,1.,-2.22044604925031E-16));
#1544=DIRECTION('ref_axis',(1.,0.,0.));
#1545=DIRECTION('',(0.,-1.,2.22044604925031E-16));
#1546=DIRECTION('center_axis',(0.,-1.,2.22044604925031E-16));
#1547=DIRECTION('ref_axis',(1.,0.,0.));
#1548=DIRECTION('center_axis',(0.,1.,-2.22044604925031E-16));
#1549=DIRECTION('ref_axis',(1.,0.,0.));
#1550=DIRECTION('center_axis',(0.,1.,-2.22044604925031E-16));
#1551=DIRECTION('ref_axis',(1.,0.,0.));
#1552=DIRECTION('center_axis',(0.,1.,-2.22044604925031E-16));
#1553=DIRECTION('ref_axis',(1.,0.,0.));
#1554=DIRECTION('',(0.,-1.,2.22044604925031E-16));
#1555=DIRECTION('center_axis',(0.,1.,-2.22044604925031E-16));
#1556=DIRECTION('ref_axis',(1.,0.,0.));
#1557=DIRECTION('center_axis',(0.,1.,-2.22044604925031E-16));
#1558=DIRECTION('ref_axis',(1.,0.,0.));
#1559=DIRECTION('center_axis',(0.,1.,-2.22044604925031E-16));
#1560=DIRECTION('ref_axis',(1.,0.,0.));
#1561=DIRECTION('',(0.,-1.,2.22044604925031E-16));
#1562=DIRECTION('center_axis',(0.,-1.,2.22044604925031E-16));
#1563=DIRECTION('ref_axis',(1.,0.,0.));
#1564=DIRECTION('center_axis',(0.,-1.,2.22044604925031E-16));
#1565=DIRECTION('ref_axis',(-1.,0.,0.));
#1566=DIRECTION('center_axis',(0.,1.,-2.22044604925031E-16));
#1567=DIRECTION('ref_axis',(1.,0.,0.));
#1568=DIRECTION('axis',(0.,0.,1.));
#1569=DIRECTION('refdir',(1.,0.,0.));
#1570=DIRECTION('center_axis',(0.,-1.,2.22044604925031E-16));
#1571=DIRECTION('ref_axis',(0.,-2.22044604925031E-16,-1.));
#1572=DIRECTION('center_axis',(0.,1.,-2.22044604925031E-16));
#1573=DIRECTION('ref_axis',(0.,-2.22044604925031E-16,-1.));
#1574=DIRECTION('',(0.,-1.,2.22044604925031E-16));
#1575=DIRECTION('center_axis',(0.,1.,-2.22044604925031E-16));
#1576=DIRECTION('ref_axis',(0.,-2.22044604925031E-16,-1.));
#1577=DIRECTION('center_axis',(0.,1.,-2.22044604925031E-16));
#1578=DIRECTION('ref_axis',(0.,2.22044604925031E-16,1.));
#1579=DIRECTION('center_axis',(0.,-1.,2.22044604925031E-16));
#1580=DIRECTION('ref_axis',(0.,-2.22044604925031E-16,-1.));
#1581=DIRECTION('center_axis',(0.,-1.,2.22044604925031E-16));
#1582=DIRECTION('ref_axis',(0.,-2.22044604925031E-16,-1.));
#1583=DIRECTION('center_axis',(0.,-1.,0.));
#1584=DIRECTION('ref_axis',(0.,-2.22044604925031E-16,-1.));
#1585=DIRECTION('',(0.,-1.,2.22044604925031E-16));
#1586=DIRECTION('center_axis',(-0.866025403782826,0.,-0.500000000002794));
#1587=DIRECTION('ref_axis',(-0.500000000002794,0.,0.866025403782825));
#1588=DIRECTION('',(0.500000000002794,-1.92296268637998E-16,-0.866025403782825));
#1589=DIRECTION('',(0.,1.,0.));
#1590=DIRECTION('',(-0.500000000002794,0.,0.866025403782825));
#1591=DIRECTION('',(0.,1.,0.));
#1592=DIRECTION('center_axis',(1.60246890531803E-16,0.,-1.));
#1593=DIRECTION('ref_axis',(-1.,0.,-1.60246890531803E-16));
#1594=DIRECTION('',(1.,3.5581957498599E-32,1.60246890531803E-16));
#1595=DIRECTION('',(-1.,0.,-1.60246890531803E-16));
#1596=DIRECTION('',(0.,1.,0.));
#1597=DIRECTION('center_axis',(0.866025403784315,0.,-0.500000000000214));
#1598=DIRECTION('ref_axis',(-0.500000000000214,0.,-0.866025403784315));
#1599=DIRECTION('',(0.500000000000214,1.92296268638329E-16,0.866025403784315));
#1600=DIRECTION('',(-0.500000000000214,0.,-0.866025403784315));
#1601=DIRECTION('',(0.,1.,0.));
#1602=DIRECTION('center_axis',(0.866025403782826,0.,0.500000000002793));
#1603=DIRECTION('ref_axis',(0.500000000002793,0.,-0.866025403782826));
#1604=DIRECTION('',(-0.500000000002793,1.92296268637998E-16,0.866025403782826));
#1605=DIRECTION('',(0.500000000002793,0.,-0.866025403782826));
#1606=DIRECTION('',(0.,1.,0.));
#1607=DIRECTION('center_axis',(-6.40987562127212E-16,0.,1.));
#1608=DIRECTION('ref_axis',(1.,0.,6.40987562127212E-16));
#1609=DIRECTION('',(-1.,-1.42327829994396E-31,-6.40987562127212E-16));
#1610=DIRECTION('',(1.,0.,6.40987562127212E-16));
#1611=DIRECTION('',(0.,1.,0.));
#1612=DIRECTION('center_axis',(-0.866025403784315,0.,0.500000000000215));
#1613=DIRECTION('ref_axis',(0.500000000000215,0.,0.866025403784315));
#1614=DIRECTION('',(-0.500000000000215,-1.92296268638329E-16,-0.866025403784315));
#1615=DIRECTION('',(0.500000000000215,0.,0.866025403784315));
#1616=DIRECTION('center_axis',(0.,1.,0.));
#1617=DIRECTION('ref_axis',(0.,0.,1.));
#1618=DIRECTION('center_axis',(0.,1.,-2.22044604925031E-16));
#1619=DIRECTION('ref_axis',(1.,0.,0.));
#1620=DIRECTION('center_axis',(0.,1.,-2.22044604925031E-16));
#1621=DIRECTION('ref_axis',(1.,0.,0.));
#1622=DIRECTION('',(0.,-1.,2.22044604925031E-16));
#1623=DIRECTION('center_axis',(0.,-1.,2.22044604925031E-16));
#1624=DIRECTION('ref_axis',(1.,0.,0.));
#1625=DIRECTION('center_axis',(0.,-1.,2.22044604925031E-16));
#1626=DIRECTION('ref_axis',(-1.,0.,0.));
#1627=DIRECTION('center_axis',(0.,1.,-2.22044604925031E-16));
#1628=DIRECTION('ref_axis',(1.,0.,0.));
#1629=DIRECTION('axis',(0.,0.,1.));
#1630=DIRECTION('refdir',(1.,0.,0.));
#1631=DIRECTION('center_axis',(1.92296268638356E-15,0.,-1.));
#1632=DIRECTION('ref_axis',(1.,0.,1.92296268638356E-15));
#1633=DIRECTION('',(1.,0.,1.92296268638356E-15));
#1634=DIRECTION('',(0.,-1.,0.));
#1635=DIRECTION('',(1.,0.,1.92296268638356E-15));
#1636=DIRECTION('',(0.,-1.,0.));
#1637=DIRECTION('center_axis',(0.866025403784439,0.,-0.5));
#1638=DIRECTION('ref_axis',(0.5,0.,0.866025403784439));
#1639=DIRECTION('',(0.5,0.,0.866025403784439));
#1640=DIRECTION('',(0.5,0.,0.866025403784439));
#1641=DIRECTION('',(0.,-1.,0.));
#1642=DIRECTION('center_axis',(0.866025403784438,0.,0.500000000000001));
#1643=DIRECTION('ref_axis',(-0.500000000000001,0.,0.866025403784438));
#1644=DIRECTION('',(-0.500000000000001,0.,0.866025403784438));
#1645=DIRECTION('',(-0.500000000000001,0.,0.866025403784438));
#1646=DIRECTION('',(0.,-1.,0.));
#1647=DIRECTION('center_axis',(-4.80740671595891E-16,0.,1.));
#1648=DIRECTION('ref_axis',(-1.,0.,-4.80740671595891E-16));
#1649=DIRECTION('',(-1.,0.,-4.80740671595891E-16));
#1650=DIRECTION('',(-1.,0.,-4.80740671595891E-16));
#1651=DIRECTION('',(0.,-1.,0.));
#1652=DIRECTION('center_axis',(-0.866025403784439,0.,-0.5));
#1653=DIRECTION('ref_axis',(0.5,0.,-0.866025403784439));
#1654=DIRECTION('',(0.5,0.,-0.866025403784439));
#1655=DIRECTION('',(0.,-1.,0.));
#1656=DIRECTION('',(0.5,0.,-0.866025403784439));
#1657=DIRECTION('center_axis',(-0.866025403784439,0.,0.499999999999999));
#1658=DIRECTION('ref_axis',(-0.499999999999999,0.,-0.866025403784439));
#1659=DIRECTION('',(-0.499999999999999,0.,-0.866025403784439));
#1660=DIRECTION('',(-0.499999999999999,0.,-0.866025403784439));
#1661=DIRECTION('center_axis',(0.,-1.,0.));
#1662=DIRECTION('ref_axis',(0.,0.,-1.));
#1663=DIRECTION('center_axis',(0.,1.,0.));
#1664=DIRECTION('ref_axis',(1.,0.,0.));
#1665=DIRECTION('center_axis',(0.,-1.,0.));
#1666=DIRECTION('ref_axis',(1.,0.,0.));
#1667=DIRECTION('center_axis',(0.,-1.,0.));
#1668=DIRECTION('ref_axis',(1.,0.,0.));
#1669=DIRECTION('',(0.,-1.,0.));
#1670=DIRECTION('center_axis',(0.,1.,0.));
#1671=DIRECTION('ref_axis',(1.,0.,0.));
#1672=DIRECTION('center_axis',(0.,-1.,0.));
#1673=DIRECTION('ref_axis',(1.,0.,0.));
#1674=DIRECTION('center_axis',(0.,-1.,0.));
#1675=DIRECTION('ref_axis',(1.,0.,0.));
#1676=DIRECTION('',(0.,-1.,0.));
#1677=DIRECTION('center_axis',(0.,-1.,0.));
#1678=DIRECTION('ref_axis',(1.,0.,0.));
#1679=DIRECTION('center_axis',(0.,1.,0.));
#1680=DIRECTION('ref_axis',(1.,0.,0.));
#1681=DIRECTION('center_axis',(0.,1.,0.));
#1682=DIRECTION('ref_axis',(1.,0.,0.));
#1683=DIRECTION('center_axis',(0.,1.,0.));
#1684=DIRECTION('ref_axis',(1.,0.,0.));
#1685=DIRECTION('center_axis',(0.,-1.,0.));
#1686=DIRECTION('ref_axis',(1.,0.,0.));
#1687=DIRECTION('center_axis',(0.,-1.,0.));
#1688=DIRECTION('ref_axis',(1.,0.,0.));
#1689=DIRECTION('',(0.,1.,0.));
#1690=DIRECTION('center_axis',(0.,1.,0.));
#1691=DIRECTION('ref_axis',(1.,0.,0.));
#1692=DIRECTION('',(9.39726797063775E-16,-5.49560397189445E-15,0.999999999999991));
#1693=DIRECTION('',(1.00000000000001,-1.63757896132214E-15,2.68535194081212E-15));
#1694=DIRECTION('',(-1.32116539930393E-14,-0.999999999999996,-8.43769498715125E-15));
#1695=DIRECTION('',(-9.39726797063798E-16,4.88498130835063E-15,-0.999999999999992));
#1696=DIRECTION('',(1.00217684219894E-15,-5.49560397189445E-15,0.999999999999991));
#1697=DIRECTION('',(1.32116539930393E-14,0.999999999999997,8.32667268468875E-15));
#1698=DIRECTION('',(-1.09717645854503E-14,-0.866025403784435,0.499999999999986));
#1699=DIRECTION('',(-7.78250528751287E-15,-0.499999999999995,-0.866025403784432));
#1700=DIRECTION('',(-1.38572291086146E-17,-2.76422853233356E-16,1.));
#1701=DIRECTION('',(0.999999999999997,7.63278329429794E-17,2.77555756156281E-17));
#1702=DIRECTION('',(1.11022302462517E-16,-0.999999999999996,1.16573417585641E-15));
#1703=DIRECTION('',(-7.63483916421797E-17,1.09889399539584E-16,-1.));
#1704=DIRECTION('',(2.08187375816415E-16,-1.09889399539583E-16,1.));
#1705=DIRECTION('',(-2.49106291150269E-15,0.999999999999999,-1.22124532708767E-15));
#1706=DIRECTION('',(-9.75707092987938E-15,-0.866025403784435,0.500000000000001));
#1707=DIRECTION('',(-3.21066194953422E-16,-0.5,-0.866025403784442));
#1708=DIRECTION('',(-2.80254552012072E-15,4.94049245958195E-15,-0.999999999999998));
#1709=DIRECTION('',(-1.00000000000001,-6.38378239159485E-16,2.74780198594723E-15));
#1710=DIRECTION('',(0.,0.,1.));
#1711=DIRECTION('',(1.,0.,0.));
#1712=CARTESIAN_POINT('',(0.,0.,0.));
#1713=CARTESIAN_POINT('',(0.,0.,0.));
#1714=CARTESIAN_POINT('',(0.,0.,0.));
#1715=CARTESIAN_POINT('',(0.,0.,0.));
#1716=CARTESIAN_POINT('Origin',(0.,3.,-20.));
#1717=CARTESIAN_POINT('',(0.,0.,0.));
#1718=CARTESIAN_POINT('',(-3.,3.,0.));
#1719=CARTESIAN_POINT('Origin',(0.,3.,0.));
#1720=CARTESIAN_POINT('',(-3.,3.,-40.));
#1721=CARTESIAN_POINT('',(-3.,3.,-20.));
#1722=CARTESIAN_POINT('',(0.,0.,-40.));
#1723=CARTESIAN_POINT('Origin',(0.,3.,-40.));
#1724=CARTESIAN_POINT('',(0.,0.,-20.));
#1725=CARTESIAN_POINT('Origin',(36.4,0.,-40.));
#1726=CARTESIAN_POINT('',(-3.,27.,-40.));
#1727=CARTESIAN_POINT('',(-3.,0.,-40.));
#1728=CARTESIAN_POINT('',(0.,27.,-40.));
#1729=CARTESIAN_POINT('',(0.,27.,-40.));
#1730=CARTESIAN_POINT('',(0.,3.,-40.));
#1731=CARTESIAN_POINT('',(0.,0.,-40.));
#1732=CARTESIAN_POINT('',(36.4,3.,-40.));
#1733=CARTESIAN_POINT('',(36.4,3.,-40.));
#1734=CARTESIAN_POINT('',(36.4,0.,-40.));
#1735=CARTESIAN_POINT('',(36.4,0.,-40.));
#1736=CARTESIAN_POINT('',(36.4,0.,-40.));
#1737=CARTESIAN_POINT('Origin',(-3.,23.5,-20.));
#1738=CARTESIAN_POINT('',(-3.,27.,0.));
#1739=CARTESIAN_POINT('',(-3.,27.,0.));
#1740=CARTESIAN_POINT('Origin',(-3.,27.,-20.));
#1741=CARTESIAN_POINT('',(-3.,40.0000000000009,-10.6057713659382));
#1742=CARTESIAN_POINT('Origin',(-3.,40.0000000000009,-12.2057713659382));
#1743=CARTESIAN_POINT('',(-3.,40.0000000000028,-26.1942286340586));
#1744=CARTESIAN_POINT('Origin',(-3.,40.0000000000028,-27.7942286340586));
#1745=CARTESIAN_POINT('',(-3.,13.0000000000019,-26.1942286340618));
#1746=CARTESIAN_POINT('Origin',(-3.,13.0000000000019,-27.7942286340618));
#1747=CARTESIAN_POINT('',(-3.,33.5000000612591,-26.5000000000037));
#1748=CARTESIAN_POINT('',(-3.,33.5000000301693,-13.4999999999952));
#1749=CARTESIAN_POINT('Origin',(-3.,33.4999999972854,-19.9999999999995));
#1750=CARTESIAN_POINT('',(-3.,19.5000000145855,-13.5000000000001));
#1751=CARTESIAN_POINT('',(-3.,33.4999999854145,-13.5000000000013));
#1752=CARTESIAN_POINT('',(-3.,19.4999999908436,-26.5000000000016));
#1753=CARTESIAN_POINT('Origin',(-3.,19.5000000027146,-20.0000000000008));
#1754=CARTESIAN_POINT('',(-3.,33.5000000612591,-26.5000000000037));
#1755=CARTESIAN_POINT('',(-3.,26.5000000000028,-33.9884572681204));
#1756=CARTESIAN_POINT('Origin',(-3.,26.5000000000028,-35.5884572681204));
#1757=CARTESIAN_POINT('',(-3.,26.5,-2.81154273187961));
#1758=CARTESIAN_POINT('Origin',(-3.,26.5,-4.41154273187961));
#1759=CARTESIAN_POINT('',(-3.,13.,-10.6057713659415));
#1760=CARTESIAN_POINT('Origin',(-3.,13.,-12.2057713659414));
#1761=CARTESIAN_POINT('Origin',(8.00000000000001,3.,-35.));
#1762=CARTESIAN_POINT('',(10.,3.,-35.));
#1763=CARTESIAN_POINT('Origin',(8.00000000000001,3.,-35.));
#1764=CARTESIAN_POINT('',(10.,0.,-35.));
#1765=CARTESIAN_POINT('',(10.,3.,-35.));
#1766=CARTESIAN_POINT('Origin',(8.00000000000001,0.,-35.));
#1767=CARTESIAN_POINT('Origin',(31.4,3.,-35.));
#1768=CARTESIAN_POINT('',(33.4,3.,-35.));
#1769=CARTESIAN_POINT('Origin',(31.4,3.,-35.));
#1770=CARTESIAN_POINT('',(33.4,0.,-35.));
#1771=CARTESIAN_POINT('',(33.4,3.,-35.));
#1772=CARTESIAN_POINT('Origin',(31.4,0.,-35.));
#1773=CARTESIAN_POINT('Origin',(31.4,3.,-5.));
#1774=CARTESIAN_POINT('',(33.4,3.,-5.));
#1775=CARTESIAN_POINT('Origin',(31.4,3.,-5.));
#1776=CARTESIAN_POINT('',(33.4,0.,-5.));
#1777=CARTESIAN_POINT('',(33.4,3.,-5.));
#1778=CARTESIAN_POINT('Origin',(31.4,0.,-5.));
#1779=CARTESIAN_POINT('Origin',(8.00000000000001,3.,-5.));
#1780=CARTESIAN_POINT('',(10.,3.,-5.));
#1781=CARTESIAN_POINT('Origin',(8.00000000000001,3.,-5.));
#1782=CARTESIAN_POINT('',(10.,0.,-5.));
#1783=CARTESIAN_POINT('',(10.,3.,-5.));
#1784=CARTESIAN_POINT('Origin',(8.00000000000001,0.,-5.));
#1785=CARTESIAN_POINT('Origin',(0.,40.0000000000009,-12.2057713659382));
#1786=CARTESIAN_POINT('',(0.,40.0000000000009,-10.6057713659382));
#1787=CARTESIAN_POINT('Origin',(0.,40.0000000000009,-12.2057713659382));
#1788=CARTESIAN_POINT('',(0.,40.0000000000009,-10.6057713659382));
#1789=CARTESIAN_POINT('Origin',(0.,40.0000000000028,-27.7942286340586));
#1790=CARTESIAN_POINT('',(0.,40.0000000000028,-26.1942286340586));
#1791=CARTESIAN_POINT('Origin',(0.,40.0000000000028,-27.7942286340586));
#1792=CARTESIAN_POINT('',(0.,40.0000000000028,-26.1942286340586));
#1793=CARTESIAN_POINT('Origin',(0.,13.0000000000019,-27.7942286340618));
#1794=CARTESIAN_POINT('',(0.,13.0000000000019,-26.1942286340618));
#1795=CARTESIAN_POINT('Origin',(0.,13.0000000000019,-27.7942286340618));
#1796=CARTESIAN_POINT('',(0.,13.0000000000019,-26.1942286340618));
#1797=CARTESIAN_POINT('Origin',(0.,19.4999999908436,-26.500000000002));
#1798=CARTESIAN_POINT('',(0.,33.5000000612591,-26.5000000000037));
#1799=CARTESIAN_POINT('',(0.,19.4999999908436,-26.5000000000016));
#1800=CARTESIAN_POINT('',(0.,33.5000000612591,-26.5000000000037));
#1801=CARTESIAN_POINT('',(0.,33.5000000612591,-26.5000000000037));
#1802=CARTESIAN_POINT('',(0.,19.4999999908436,-26.5000000000016));
#1803=CARTESIAN_POINT('Origin',(0.,19.5000000027146,-20.0000000000008));
#1804=CARTESIAN_POINT('',(0.,19.5000000145855,-13.5000000000001));
#1805=CARTESIAN_POINT('Origin',(0.,19.5000000027146,-20.0000000000008));
#1806=CARTESIAN_POINT('',(0.,19.5000000145855,-13.5000000000001));
#1807=CARTESIAN_POINT('Origin',(0.,33.4999999854145,-13.5000000000013));
#1808=CARTESIAN_POINT('',(0.,33.5000000301693,-13.4999999999952));
#1809=CARTESIAN_POINT('',(0.,33.4999999854145,-13.5000000000013));
#1810=CARTESIAN_POINT('',(0.,33.5000000301693,-13.4999999999952));
#1811=CARTESIAN_POINT('Origin',(0.,33.4999999972854,-19.9999999999995));
#1812=CARTESIAN_POINT('Origin',(0.,33.4999999972854,-19.9999999999995));
#1813=CARTESIAN_POINT('Origin',(0.,26.5000000000028,-35.5884572681204));
#1814=CARTESIAN_POINT('',(0.,26.5000000000028,-33.9884572681204));
#1815=CARTESIAN_POINT('Origin',(0.,26.5000000000028,-35.5884572681204));
#1816=CARTESIAN_POINT('',(0.,26.5000000000028,-33.9884572681204));
#1817=CARTESIAN_POINT('Origin',(0.,26.5,-4.41154273187961));
#1818=CARTESIAN_POINT('',(0.,26.5,-2.81154273187961));
#1819=CARTESIAN_POINT('Origin',(0.,26.5,-4.41154273187961));
#1820=CARTESIAN_POINT('',(0.,26.5,-2.81154273187961));
#1821=CARTESIAN_POINT('Origin',(0.,13.,-12.2057713659414));
#1822=CARTESIAN_POINT('',(0.,13.,-10.6057713659415));
#1823=CARTESIAN_POINT('Origin',(0.,13.,-12.2057713659414));
#1824=CARTESIAN_POINT('',(0.,13.,-10.6057713659414));
#1825=CARTESIAN_POINT('Origin',(0.,27.,-20.));
#1826=CARTESIAN_POINT('',(0.,27.,0.));
#1827=CARTESIAN_POINT('Origin',(0.,27.,-20.));
#1828=CARTESIAN_POINT('',(0.,27.,0.));
#1829=CARTESIAN_POINT('Origin',(0.,23.5,-20.));
#1830=CARTESIAN_POINT('',(0.,3.,0.));
#1831=CARTESIAN_POINT('',(0.,3.,-40.));
#1832=CARTESIAN_POINT('',(0.,27.,0.));
#1833=CARTESIAN_POINT('Origin',(39.4,0.,-3.));
#1834=CARTESIAN_POINT('',(39.4,0.,-3.));
#1835=CARTESIAN_POINT('',(39.4,0.,-37.));
#1836=CARTESIAN_POINT('',(39.4,0.,-3.));
#1837=CARTESIAN_POINT('',(39.4,3.,-37.));
#1838=CARTESIAN_POINT('',(39.4,0.,-37.));
#1839=CARTESIAN_POINT('',(39.4,3.,-3.));
#1840=CARTESIAN_POINT('',(39.4,3.,-3.));
#1841=CARTESIAN_POINT('',(39.4,0.,-3.));
#1842=CARTESIAN_POINT('Origin',(36.4,0.,-3.));
#1843=CARTESIAN_POINT('',(36.4,0.,0.));
#1844=CARTESIAN_POINT('Origin',(36.4,0.,-3.));
#1845=CARTESIAN_POINT('',(36.4,3.,0.));
#1846=CARTESIAN_POINT('Origin',(36.4,3.,-3.));
#1847=CARTESIAN_POINT('',(36.4,0.,0.));
#1848=CARTESIAN_POINT('Origin',(0.,0.,0.));
#1849=CARTESIAN_POINT('',(0.,0.,0.));
#1850=CARTESIAN_POINT('',(0.,3.,0.));
#1851=CARTESIAN_POINT('Origin',(36.4,0.,-37.));
#1852=CARTESIAN_POINT('Origin',(36.4,0.,-37.));
#1853=CARTESIAN_POINT('Origin',(36.4,3.,-37.));
#1854=CARTESIAN_POINT('Origin',(19.7,3.,-20.));
#1855=CARTESIAN_POINT('Origin',(19.7,0.,-20.));
#1856=CARTESIAN_POINT('',(0.,0.,0.));
#1857=CARTESIAN_POINT('Origin',(-1.11022302462516E-15,-9.,-7.5));
#1858=CARTESIAN_POINT('',(-1.6583123951777,-9.,-10.));
#1859=CARTESIAN_POINT('',(1.6583123951777,-9.,-10.));
#1860=CARTESIAN_POINT('',(-0.829156197588853,-9.,-10.));
#1861=CARTESIAN_POINT('Origin',(-1.11022302462516E-15,-9.,-7.5));
#1862=CARTESIAN_POINT('Origin',(-1.11022302462516E-15,-6.,-7.5));
#1863=CARTESIAN_POINT('',(-6.,-6.,-7.5));
#1864=CARTESIAN_POINT('Origin',(-1.11022302462516E-15,-6.,-7.5));
#1865=CARTESIAN_POINT('',(-1.6583123951777,-6.,-4.99999999999999));
#1866=CARTESIAN_POINT('Origin',(-1.11022302462516E-15,-6.,-7.5));
#1867=CARTESIAN_POINT('Origin',(-1.11022302462516E-15,0.,-7.5));
#1868=CARTESIAN_POINT('',(-1.6583123951777,-21.,-10.));
#1869=CARTESIAN_POINT('',(-1.6583123951777,-2.46519032881566E-31,-10.));
#1870=CARTESIAN_POINT('',(-1.6583123951777,-21.,-4.99999999999999));
#1871=CARTESIAN_POINT('Origin',(-1.11022302462516E-15,-21.,-7.49999999999999));
#1872=CARTESIAN_POINT('',(-1.6583123951777,5.28677630773884E-16,-5.));
#1873=CARTESIAN_POINT('',(1.6583123951777,-21.,-10.));
#1874=CARTESIAN_POINT('Origin',(-1.11022302462516E-15,-21.,-7.49999999999999));
#1875=CARTESIAN_POINT('',(1.6583123951777,-2.46519032881566E-31,-10.));
#1876=CARTESIAN_POINT('Origin',(-1.6583123951777,-2.22044604925031E-15,
-10.));
#1877=CARTESIAN_POINT('',(0.829156197588849,-21.,-10.));
#1878=CARTESIAN_POINT('Origin',(0.,-21.,4.44089209850063E-15));
#1879=CARTESIAN_POINT('Origin',(-1.11022302462516E-15,-2.46519032881566E-31,
-7.5));
#1880=CARTESIAN_POINT('',(-6.,-2.46519032881566E-31,-7.5));
#1881=CARTESIAN_POINT('',(-6.,-2.46519032881566E-31,-7.5));
#1882=CARTESIAN_POINT('Origin',(-1.11022302462516E-15,0.,-7.5));
#1883=CARTESIAN_POINT('Origin',(0.,0.,0.));
#1884=CARTESIAN_POINT('',(-18.5,0.,2.2655965784226E-15));
#1885=CARTESIAN_POINT('Origin',(0.,0.,0.));
#1886=CARTESIAN_POINT('Origin',(0.,35.,-1.99840144432528E-15));
#1887=CARTESIAN_POINT('',(-16.,46.,-2.48145721986486E-15));
#1888=CARTESIAN_POINT('Origin',(0.,46.,-4.44089209850063E-15));
#1889=CARTESIAN_POINT('',(-16.,24.,2.40352408848583E-15));
#1890=CARTESIAN_POINT('',(-16.,35.,-3.89665656895168E-17));
#1891=CARTESIAN_POINT('Origin',(0.,24.,4.44089209850062E-16));
#1892=CARTESIAN_POINT('Origin',(0.,46.,-4.44089209850063E-15));
#1893=CARTESIAN_POINT('Origin',(0.,12.,-2.66453525910038E-15));
#1894=CARTESIAN_POINT('',(-18.5,24.,-3.06347393977815E-15));
#1895=CARTESIAN_POINT('Origin',(0.,24.,-5.32907051820075E-15));
#1896=CARTESIAN_POINT('',(-18.5,12.,-3.98938680677772E-16));
#1897=CARTESIAN_POINT('Origin',(0.,24.,-5.32907051820075E-15));
#1898=CARTESIAN_POINT('Origin',(0.,51.5,-1.22124532708767E-15));
#1899=CARTESIAN_POINT('',(-16.,57.,-4.83055775539579E-16));
#1900=CARTESIAN_POINT('Origin',(0.,57.,-2.44249065417534E-15));
#1901=CARTESIAN_POINT('',(-16.,46.,1.95943487863577E-15));
#1902=CARTESIAN_POINT('',(-16.,51.5,7.38189551548093E-16));
#1903=CARTESIAN_POINT('Origin',(0.,46.,0.));
#1904=CARTESIAN_POINT('Origin',(0.,46.,0.));
#1905=CARTESIAN_POINT('Origin',(0.,57.,-2.44249065417534E-15));
#1906=CARTESIAN_POINT('',(0.,0.,0.));
#1907=CARTESIAN_POINT('Origin',(0.,5.9,1.31006316905768E-15));
#1908=CARTESIAN_POINT('',(-3.67394039744206E-16,11.8,3.));
#1909=CARTESIAN_POINT('Origin',(0.,11.8,0.));
#1910=CARTESIAN_POINT('',(-3.67394039744206E-16,1.11022302462516E-15,3.));
#1911=CARTESIAN_POINT('',(-3.67394039744206E-16,5.9,3.));
#1912=CARTESIAN_POINT('Origin',(0.,0.,2.62012633811537E-15));
#1913=CARTESIAN_POINT('Origin',(0.,11.8,0.));
#1914=CARTESIAN_POINT('',(-2.44929359829471E-16,11.8,2.));
#1915=CARTESIAN_POINT('Origin',(0.,11.8,1.26565424807268E-15));
#1916=CARTESIAN_POINT('Origin',(0.,14.65,6.32827124036339E-16));
#1917=CARTESIAN_POINT('',(-2.44929359829471E-16,17.5,2.));
#1918=CARTESIAN_POINT('Origin',(0.,17.5,-2.46519032881566E-31));
#1919=CARTESIAN_POINT('',(-2.44929359829471E-16,14.65,2.));
#1920=CARTESIAN_POINT('Origin',(-3.46410161513229,11.,-6.));
#1921=CARTESIAN_POINT('',(-6.92820323029288,11.,-5.15698594938385E-12));
#1922=CARTESIAN_POINT('',(-3.46410161513229,11.,-6.));
#1923=CARTESIAN_POINT('',(-4.33012701891741,11.,-4.50000000000999));
#1924=CARTESIAN_POINT('',(-6.92820323029288,17.5,-5.15698594938385E-12));
#1925=CARTESIAN_POINT('',(-6.92820323029288,11.,-5.15698594938385E-12));
#1926=CARTESIAN_POINT('',(-3.46410161513229,17.5,-6.));
#1927=CARTESIAN_POINT('',(-6.92820323029288,17.5,-5.15698594938385E-12));
#1928=CARTESIAN_POINT('',(-3.46410161513229,11.,-6.));
#1929=CARTESIAN_POINT('Origin',(3.46410161515016,11.,-6.));
#1930=CARTESIAN_POINT('',(3.46410161515016,11.,-6.));
#1931=CARTESIAN_POINT('',(1.73205080757508,11.,-6.));
#1932=CARTESIAN_POINT('',(3.46410161515016,17.5,-6.));
#1933=CARTESIAN_POINT('',(-3.46410161513229,17.5,-6.));
#1934=CARTESIAN_POINT('',(3.46410161515016,11.,-6.));
#1935=CARTESIAN_POINT('Origin',(6.92820323029287,11.,5.1636472875316E-12));
#1936=CARTESIAN_POINT('',(6.92820323029287,11.,5.16420239904392E-12));
#1937=CARTESIAN_POINT('',(6.0621778265044,11.,-1.50000000000096));
#1938=CARTESIAN_POINT('',(6.92820323029287,17.5,5.16475751055623E-12));
#1939=CARTESIAN_POINT('',(3.46410161515016,17.5,-6.));
#1940=CARTESIAN_POINT('',(6.92820323029287,11.,5.16420239904392E-12));
#1941=CARTESIAN_POINT('Origin',(3.46410161513229,11.,6.));
#1942=CARTESIAN_POINT('',(3.46410161513229,11.,6.));
#1943=CARTESIAN_POINT('',(4.33012701891741,11.,4.50000000000999));
#1944=CARTESIAN_POINT('',(3.46410161513229,17.5,6.));
#1945=CARTESIAN_POINT('',(6.92820323029287,17.5,5.16420239904392E-12));
#1946=CARTESIAN_POINT('',(3.46410161513229,11.,6.));
#1947=CARTESIAN_POINT('Origin',(-3.46410161515016,11.,6.));
#1948=CARTESIAN_POINT('',(-3.46410161515016,11.,6.));
#1949=CARTESIAN_POINT('',(-1.73205080757508,11.,6.));
#1950=CARTESIAN_POINT('',(-3.46410161515016,17.5,6.));
#1951=CARTESIAN_POINT('',(3.46410161513229,17.5,6.));
#1952=CARTESIAN_POINT('',(-3.46410161515016,11.,6.));
#1953=CARTESIAN_POINT('Origin',(-6.92820323029288,11.,-5.15698594938385E-12));
#1954=CARTESIAN_POINT('',(-6.06217782650441,11.,1.50000000000097));
#1955=CARTESIAN_POINT('',(-3.46410161515016,17.5,6.));
#1956=CARTESIAN_POINT('Origin',(-5.55111512312578E-15,17.5,0.));
#1957=CARTESIAN_POINT('Origin',(0.,5.5,-1.22124532708767E-15));
#1958=CARTESIAN_POINT('',(-10.,11.,-1.21784385502799E-15));
#1959=CARTESIAN_POINT('Origin',(0.,11.,-2.44249065417534E-15));
#1960=CARTESIAN_POINT('',(-10.,0.,1.22464679914735E-15));
#1961=CARTESIAN_POINT('',(-10.,5.5,3.40147205968116E-18));
#1962=CARTESIAN_POINT('Origin',(0.,0.,0.));
#1963=CARTESIAN_POINT('Origin',(0.,0.,0.));
#1964=CARTESIAN_POINT('Origin',(0.,11.,-2.44249065417534E-15));
#1965=CARTESIAN_POINT('',(0.,0.,0.));
#1966=CARTESIAN_POINT('Origin',(-3.46410161513775,0.,-6.));
#1967=CARTESIAN_POINT('',(-3.46410161513775,-8.3,-6.));
#1968=CARTESIAN_POINT('',(3.46410161513776,-8.3,-5.99999999999999));
#1969=CARTESIAN_POINT('',(-1.73205080756887,-8.3,-6.));
#1970=CARTESIAN_POINT('',(-3.46410161513775,-15.3,-6.00000000000001));
#1971=CARTESIAN_POINT('',(-3.46410161513775,0.,-6.));
#1972=CARTESIAN_POINT('',(3.46410161513776,-15.3,-5.99999999999999));
#1973=CARTESIAN_POINT('',(-3.46410161513775,-15.3,-6.));
#1974=CARTESIAN_POINT('',(3.46410161513776,0.,-5.99999999999999));
#1975=CARTESIAN_POINT('Origin',(3.46410161513776,0.,-5.99999999999999));
#1976=CARTESIAN_POINT('',(6.92820323027551,-8.3,7.12310768806728E-15));
#1977=CARTESIAN_POINT('',(4.3301270189222,-8.3,-4.49999999999999));
#1978=CARTESIAN_POINT('',(6.92820323027551,-15.3,6.66133814775094E-15));
#1979=CARTESIAN_POINT('',(3.46410161513776,-15.3,-5.99999999999999));
#1980=CARTESIAN_POINT('',(6.92820323027551,0.,7.12310768806728E-15));
#1981=CARTESIAN_POINT('Origin',(6.92820323027551,0.,7.12310768806728E-15));
#1982=CARTESIAN_POINT('',(3.46410161513775,-8.3,6.));
#1983=CARTESIAN_POINT('',(6.06217782649107,-8.3,1.50000000000001));
#1984=CARTESIAN_POINT('',(3.46410161513775,-15.3,6.));
#1985=CARTESIAN_POINT('',(6.92820323027551,-15.3,7.12310768806728E-15));
#1986=CARTESIAN_POINT('',(3.46410161513775,0.,6.));
#1987=CARTESIAN_POINT('Origin',(3.46410161513775,0.,6.));
#1988=CARTESIAN_POINT('',(-3.46410161513775,-8.3,6.));
#1989=CARTESIAN_POINT('',(1.73205080756887,-8.3,6.));
#1990=CARTESIAN_POINT('',(-3.46410161513775,-15.3,6.));
#1991=CARTESIAN_POINT('',(3.46410161513775,-15.3,6.));
#1992=CARTESIAN_POINT('',(-3.46410161513775,0.,6.));
#1993=CARTESIAN_POINT('Origin',(-6.9282032302755,0.,-5.74893966795702E-15));
#1994=CARTESIAN_POINT('',(-6.9282032302755,-8.3,-5.74893966795702E-15));
#1995=CARTESIAN_POINT('',(-6.06217782649106,-8.3,-1.5));
#1996=CARTESIAN_POINT('',(-6.9282032302755,-15.3,-5.55111512312578E-15));
#1997=CARTESIAN_POINT('',(-6.9282032302755,0.,-5.74893966795702E-15));
#1998=CARTESIAN_POINT('',(-6.9282032302755,-15.3,-5.74893966795702E-15));
#1999=CARTESIAN_POINT('Origin',(-3.46410161513775,0.,6.));
#2000=CARTESIAN_POINT('',(-4.33012701892219,-8.3,4.49999999999999));
#2001=CARTESIAN_POINT('',(-3.46410161513775,-15.3,6.));
#2002=CARTESIAN_POINT('Origin',(7.7715611723761E-15,-15.3,-2.22044604925031E-15));
#2003=CARTESIAN_POINT('Origin',(0.,-8.3,0.));
#2004=CARTESIAN_POINT('',(-10.,-8.3,1.22464679914735E-15));
#2005=CARTESIAN_POINT('Origin',(0.,-8.3,0.));
#2006=CARTESIAN_POINT('Origin',(0.,0.,0.));
#2007=CARTESIAN_POINT('',(-10.,-17.,1.22464679914735E-15));
#2008=CARTESIAN_POINT('',(-10.,0.,-1.22464679914735E-15));
#2009=CARTESIAN_POINT('Origin',(0.,-17.,0.));
#2010=CARTESIAN_POINT('Origin',(0.,0.,0.));
#2011=CARTESIAN_POINT('',(-28.8,0.,3.52698278154438E-15));
#2012=CARTESIAN_POINT('Origin',(0.,0.,0.));
#2013=CARTESIAN_POINT('',(-28.8,-17.,3.52698278154438E-15));
#2014=CARTESIAN_POINT('',(-28.8,0.,-3.52698278154438E-15));
#2015=CARTESIAN_POINT('Origin',(0.,-17.,0.));
#2016=CARTESIAN_POINT('Origin',(0.,-17.,0.));
#2017=CARTESIAN_POINT('Origin',(0.,0.,0.));
#2018=CARTESIAN_POINT('',(-42.5,0.,5.20474889637625E-15));
#2019=CARTESIAN_POINT('Origin',(0.,0.,0.));
#2020=CARTESIAN_POINT('Origin',(0.,0.,0.));
#2021=CARTESIAN_POINT('',(-42.5,-33.4,5.20474889637625E-15));
#2022=CARTESIAN_POINT('Origin',(0.,-33.4,0.));
#2023=CARTESIAN_POINT('',(-42.5,0.,-5.20474889637625E-15));
#2024=CARTESIAN_POINT('Origin',(0.,-33.4,0.));
#2025=CARTESIAN_POINT('',(-78.0359146681627,11.4934024723925,40.2573625861677));
#2026=CARTESIAN_POINT('',(-78.0359146681624,37.9167962310531,20.213133952107));
#2027=CARTESIAN_POINT('',(-87.2359146681624,45.1667962310528,20.2131339521069));
#2028=CARTESIAN_POINT('',(-90.1359146681626,45.1667962310528,20.2131339521069));
#2029=CARTESIAN_POINT('',(59.1926637269798,11.0702781614602,-1.2545285759051));
#2030=CARTESIAN_POINT('',(59.1926637269798,37.4936719201208,-21.2987572099669));
#2031=CARTESIAN_POINT('',(49.9926637269799,44.7436719201207,-21.2987572099669));
#2032=CARTESIAN_POINT('',(47.0926637269799,44.7436719201206,-21.2987572099669));
#2033=CARTESIAN_POINT('',(98.5572076311365,-0.423124310932716,-1.08562325786001));
#2034=CARTESIAN_POINT('',(0.,0.,0.));
#2035=UNCERTAINTY_MEASURE_WITH_UNIT(LENGTH_MEASURE(0.01),#2051,
'DISTANCE_ACCURACY_VALUE',
'Maximum model space distance between geometric entities at asserted c
onnectivities');
#2036=UNCERTAINTY_MEASURE_WITH_UNIT(LENGTH_MEASURE(0.01),#2051,
'DISTANCE_ACCURACY_VALUE',
'Maximum model space distance between geometric entities at asserted c
onnectivities');
#2037=UNCERTAINTY_MEASURE_WITH_UNIT(LENGTH_MEASURE(0.01),#2051,
'DISTANCE_ACCURACY_VALUE',
'Maximum model space distance between geometric entities at asserted c
onnectivities');
#2038=UNCERTAINTY_MEASURE_WITH_UNIT(LENGTH_MEASURE(0.01),#2051,
'DISTANCE_ACCURACY_VALUE',
'Maximum model space distance between geometric entities at asserted c
onnectivities');
#2039=UNCERTAINTY_MEASURE_WITH_UNIT(LENGTH_MEASURE(0.01),#2051,
'DISTANCE_ACCURACY_VALUE',
'Maximum model space distance between geometric entities at asserted c
onnectivities');
#2040=UNCERTAINTY_MEASURE_WITH_UNIT(LENGTH_MEASURE(0.01),#2051,
'DISTANCE_ACCURACY_VALUE',
'Maximum model space distance between geometric entities at asserted c
onnectivities');
#2041=UNCERTAINTY_MEASURE_WITH_UNIT(LENGTH_MEASURE(0.01),#2051,
'DISTANCE_ACCURACY_VALUE',
'Maximum model space distance between geometric entities at asserted c
onnectivities');
#2042=UNCERTAINTY_MEASURE_WITH_UNIT(LENGTH_MEASURE(0.01),#2051,
'DISTANCE_ACCURACY_VALUE',
'Maximum model space distance between geometric entities at asserted c
onnectivities');
#2043=(
GEOMETRIC_REPRESENTATION_CONTEXT(3)
GLOBAL_UNCERTAINTY_ASSIGNED_CONTEXT((#2035))
GLOBAL_UNIT_ASSIGNED_CONTEXT((#2051,#2053,#2054))
REPRESENTATION_CONTEXT('','3D')
);
#2044=(
GEOMETRIC_REPRESENTATION_CONTEXT(3)
GLOBAL_UNCERTAINTY_ASSIGNED_CONTEXT((#2036))
GLOBAL_UNIT_ASSIGNED_CONTEXT((#2051,#2053,#2054))
REPRESENTATION_CONTEXT('','3D')
);
#2045=(
GEOMETRIC_REPRESENTATION_CONTEXT(3)
GLOBAL_UNCERTAINTY_ASSIGNED_CONTEXT((#2037))
GLOBAL_UNIT_ASSIGNED_CONTEXT((#2051,#2053,#2054))
REPRESENTATION_CONTEXT('','3D')
);
#2046=(
GEOMETRIC_REPRESENTATION_CONTEXT(3)
GLOBAL_UNCERTAINTY_ASSIGNED_CONTEXT((#2038))
GLOBAL_UNIT_ASSIGNED_CONTEXT((#2051,#2053,#2054))
REPRESENTATION_CONTEXT('','3D')
);
#2047=(
GEOMETRIC_REPRESENTATION_CONTEXT(3)
GLOBAL_UNCERTAINTY_ASSIGNED_CONTEXT((#2039))
GLOBAL_UNIT_ASSIGNED_CONTEXT((#2051,#2053,#2054))
REPRESENTATION_CONTEXT('','3D')
);
#2048=(
GEOMETRIC_REPRESENTATION_CONTEXT(3)
GLOBAL_UNCERTAINTY_ASSIGNED_CONTEXT((#2040))
GLOBAL_UNIT_ASSIGNED_CONTEXT((#2051,#2053,#2054))
REPRESENTATION_CONTEXT('','3D')
);
#2049=(
GEOMETRIC_REPRESENTATION_CONTEXT(3)
GLOBAL_UNCERTAINTY_ASSIGNED_CONTEXT((#2041))
GLOBAL_UNIT_ASSIGNED_CONTEXT((#2051,#2053,#2054))
REPRESENTATION_CONTEXT('','3D')
);
#2050=(
GEOMETRIC_REPRESENTATION_CONTEXT(3)
GLOBAL_UNCERTAINTY_ASSIGNED_CONTEXT((#2042))
GLOBAL_UNIT_ASSIGNED_CONTEXT((#2051,#2053,#2054))
REPRESENTATION_CONTEXT('','3D')
);
#2051=(
LENGTH_UNIT()
NAMED_UNIT(*)
SI_UNIT(.MILLI.,.METRE.)
);
#2052=(
LENGTH_UNIT()
NAMED_UNIT(*)
SI_UNIT($,.METRE.)
);
#2053=(
NAMED_UNIT(*)
PLANE_ANGLE_UNIT()
SI_UNIT($,.RADIAN.)
);
#2054=(
NAMED_UNIT(*)
SI_UNIT($,.STERADIAN.)
SOLID_ANGLE_UNIT()
);
#2055=SHAPE_DEFINITION_REPRESENTATION(#2062,#2079);
#2056=SHAPE_DEFINITION_REPRESENTATION(#2063,#2080);
#2057=SHAPE_DEFINITION_REPRESENTATION(#2064,#2081);
#2058=SHAPE_DEFINITION_REPRESENTATION(#2065,#2082);
#2059=SHAPE_DEFINITION_REPRESENTATION(#2066,#2083);
#2060=SHAPE_DEFINITION_REPRESENTATION(#2067,#2084);
#2061=SHAPE_DEFINITION_REPRESENTATION(#2068,#2085);
#2062=PRODUCT_DEFINITION_SHAPE('',$,#2087);
#2063=PRODUCT_DEFINITION_SHAPE('',$,#2088);
#2064=PRODUCT_DEFINITION_SHAPE('',$,#2089);
#2065=PRODUCT_DEFINITION_SHAPE('',$,#2090);
#2066=PRODUCT_DEFINITION_SHAPE('',$,#2091);
#2067=PRODUCT_DEFINITION_SHAPE('',$,#2092);
#2068=PRODUCT_DEFINITION_SHAPE('',$,#2093);
#2069=PRODUCT_DEFINITION_SHAPE($,$,#41);
#2070=PRODUCT_DEFINITION_SHAPE($,$,#42);
#2071=PRODUCT_DEFINITION_SHAPE($,$,#43);
#2072=PRODUCT_DEFINITION_SHAPE($,$,#44);
#2073=PRODUCT_DEFINITION_SHAPE($,$,#45);
#2074=PRODUCT_DEFINITION_SHAPE($,$,#46);
#2075=PRODUCT_DEFINITION_SHAPE($,$,#47);
#2076=PRODUCT_DEFINITION_SHAPE($,$,#48);
#2077=PRODUCT_DEFINITION_SHAPE($,$,#49);
#2078=PRODUCT_DEFINITION_SHAPE($,$,#50);
#2079=SHAPE_REPRESENTATION('',(#1207,#1344,#1345),#2043);
#2080=SHAPE_REPRESENTATION('',(#1208,#1336,#1337,#1338,#1339),#2044);
#2081=SHAPE_REPRESENTATION('',(#1209,#1340,#1341,#1342,#1343),#2045);
#2082=SHAPE_REPRESENTATION('',(#1210),#2046);
#2083=SHAPE_REPRESENTATION('',(#1268),#2047);
#2084=SHAPE_REPRESENTATION('',(#1295),#2048);
#2085=SHAPE_REPRESENTATION('',(#1315),#2049);
#2086=PRODUCT_DEFINITION_CONTEXT('part definition',#2109,'design');
#2087=PRODUCT_DEFINITION('2026-05-28-01-12-11-815',
'wheel_motor_left_right_v0_1',#2094,#2086);
#2088=PRODUCT_DEFINITION('2026-05-27-22-23-51-898',
'wheel_motor_single_side_v0_1',#2095,#2086);
#2089=PRODUCT_DEFINITION('2026-05-27-22-23-51-898_1',
'wheel_motor_single_side_v0_1',#2096,#2086);
#2090=PRODUCT_DEFINITION('2026-05-27-13-57-29-652',
'jgb37_motor_bracket_v0_1',#2097,#2086);
#2091=PRODUCT_DEFINITION('2026-05-27-19-27-58-394','\X2\7535673A\X0\',#2098,
#2086);
#2092=PRODUCT_DEFINITION('2026-05-27-20-20-33-516','\X2\80548F745668\X0\',
#2099,#2086);
#2093=PRODUCT_DEFINITION('2026-05-27-21-11-46-557','\X2\8F6E80CE\X0\',#2100,
#2086);
#2094=PRODUCT_DEFINITION_FORMATION('',$,#2111);
#2095=PRODUCT_DEFINITION_FORMATION('',$,#2112);
#2096=PRODUCT_DEFINITION_FORMATION('',$,#2113);
#2097=PRODUCT_DEFINITION_FORMATION('',$,#2114);
#2098=PRODUCT_DEFINITION_FORMATION('',$,#2115);
#2099=PRODUCT_DEFINITION_FORMATION('',$,#2116);
#2100=PRODUCT_DEFINITION_FORMATION('',$,#2117);
#2101=PRODUCT_RELATED_PRODUCT_CATEGORY('wheel_motor_left_right_v0_1',
'wheel_motor_left_right_v0_1',(#2111));
#2102=PRODUCT_RELATED_PRODUCT_CATEGORY('wheel_motor_single_side_v0_1',
'wheel_motor_single_side_v0_1',(#2112));
#2103=PRODUCT_RELATED_PRODUCT_CATEGORY('wheel_motor_single_side_v0_1',
'wheel_motor_single_side_v0_1',(#2113));
#2104=PRODUCT_RELATED_PRODUCT_CATEGORY('jgb37_motor_bracket_v0_1',
'jgb37_motor_bracket_v0_1',(#2114));
#2105=PRODUCT_RELATED_PRODUCT_CATEGORY('\X2\7535673A\X0\','\X2\7535673A\X0\',
(#2115));
#2106=PRODUCT_RELATED_PRODUCT_CATEGORY('\X2\80548F745668\X0\',
'\X2\80548F745668\X0\',(#2116));
#2107=PRODUCT_RELATED_PRODUCT_CATEGORY('\X2\8F6E80CE\X0\','\X2\8F6E80CE\X0\',
(#2117));
#2108=APPLICATION_PROTOCOL_DEFINITION('international standard',
'automotive_design',2009,#2109);
#2109=APPLICATION_CONTEXT(
'Core Data for Automotive Mechanical Design Process');
#2110=PRODUCT_CONTEXT('part definition',#2109,'mechanical');
#2111=PRODUCT('2026-05-28-01-12-11-815','wheel_motor_left_right_v0_1',$,
(#2110));
#2112=PRODUCT('2026-05-27-22-23-51-898','wheel_motor_single_side_v0_1',
$,(#2110));
#2113=PRODUCT('2026-05-27-22-23-51-898_1',
'wheel_motor_single_side_v0_1',$,(#2110));
#2114=PRODUCT('2026-05-27-13-57-29-652','jgb37_motor_bracket_v0_1',$,(#2110));
#2115=PRODUCT('2026-05-27-19-27-58-394','\X2\7535673A\X0\',$,(#2110));
#2116=PRODUCT('2026-05-27-20-20-33-516','\X2\80548F745668\X0\',$,(#2110));
#2117=PRODUCT('2026-05-27-21-11-46-557','\X2\8F6E80CE\X0\',$,(#2110));
#2118=PRESENTATION_STYLE_ASSIGNMENT((#2120));
#2119=PRESENTATION_STYLE_ASSIGNMENT((#2121));
#2120=SURFACE_STYLE_USAGE(.BOTH.,#2122);
#2121=SURFACE_STYLE_USAGE(.BOTH.,#2123);
#2122=SURFACE_SIDE_STYLE('',(#2124));
#2123=SURFACE_SIDE_STYLE('',(#2125));
#2124=SURFACE_STYLE_FILL_AREA(#2126);
#2125=SURFACE_STYLE_FILL_AREA(#2127);
#2126=FILL_AREA_STYLE('\X2\94A2\X0\ - \X2\7F0E5149\X0\',(#2128));
#2127=FILL_AREA_STYLE('Opaque(160,160,160)',(#2129));
#2128=FILL_AREA_STYLE_COLOUR('\X2\94A2\X0\ - \X2\7F0E5149\X0\',#2130);
#2129=FILL_AREA_STYLE_COLOUR('Opaque(160,160,160)',#2131);
#2130=COLOUR_RGB('\X2\94A2\X0\ - \X2\7F0E5149\X0\',0.627450980392157,0.627450980392157,
0.627450980392157);
#2131=COLOUR_RGB('Opaque(160,160,160)',0.627450980392157,0.627450980392157,
0.627450980392157);
ENDSEC;
END-ISO-10303-21;
