ISO-10303-21;
HEADER;
/* Generated by software containing ST-Developer
 * from STEP Tools, Inc. (www.steptools.com) 
 */

FILE_DESCRIPTION(
/* description */ (''),
/* implementation_level */ '2;1');

FILE_NAME(
/* name */ '',
/* time_stamp */ '2026-05-28T18:56:15+08:00',
/* author */ (''),
/* organization */ (''),
/* preprocessor_version */ 'ST-DEVELOPER v20.1',
/* originating_system */ 'Autodesk Translation Framework v15.8.0.0',
/* authorisation */ '');

FILE_SCHEMA (('AUTOMOTIVE_DESIGN { 1 0 10303 214 3 1 1 }'));
ENDSEC;

DATA;
#10=MECHANICAL_DESIGN_GEOMETRIC_PRESENTATION_REPRESENTATION('',(#13),#711);
#11=SHAPE_REPRESENTATION_RELATIONSHIP('SRR','None',#718,#12);
#12=ADVANCED_BREP_SHAPE_REPRESENTATION('',(#14),#710);
#13=STYLED_ITEM('',(#727),#14);
#14=MANIFOLD_SOLID_BREP('\X2\5B9E4F53\X0\1',#443);
#15=FACE_OUTER_BOUND('',#37,.T.);
#16=FACE_OUTER_BOUND('',#38,.T.);
#17=FACE_OUTER_BOUND('',#39,.T.);
#18=FACE_OUTER_BOUND('',#40,.T.);
#19=FACE_OUTER_BOUND('',#41,.T.);
#20=FACE_OUTER_BOUND('',#42,.T.);
#21=FACE_OUTER_BOUND('',#43,.T.);
#22=FACE_OUTER_BOUND('',#44,.T.);
#23=FACE_OUTER_BOUND('',#45,.T.);
#24=FACE_OUTER_BOUND('',#46,.T.);
#25=FACE_OUTER_BOUND('',#47,.T.);
#26=FACE_OUTER_BOUND('',#48,.T.);
#27=FACE_OUTER_BOUND('',#49,.T.);
#28=FACE_OUTER_BOUND('',#50,.T.);
#29=FACE_OUTER_BOUND('',#51,.T.);
#30=FACE_OUTER_BOUND('',#52,.T.);
#31=FACE_OUTER_BOUND('',#53,.T.);
#32=FACE_OUTER_BOUND('',#54,.T.);
#33=FACE_OUTER_BOUND('',#55,.T.);
#34=FACE_OUTER_BOUND('',#56,.T.);
#35=FACE_OUTER_BOUND('',#57,.T.);
#36=FACE_OUTER_BOUND('',#58,.T.);
#37=EDGE_LOOP('',(#279,#280,#281,#282));
#38=EDGE_LOOP('',(#283,#284,#285,#286));
#39=EDGE_LOOP('',(#287,#288,#289,#290));
#40=EDGE_LOOP('',(#291,#292,#293,#294));
#41=EDGE_LOOP('',(#295,#296,#297,#298));
#42=EDGE_LOOP('',(#299,#300,#301,#302));
#43=EDGE_LOOP('',(#303,#304,#305,#306));
#44=EDGE_LOOP('',(#307,#308,#309,#310));
#45=EDGE_LOOP('',(#311,#312,#313,#314));
#46=EDGE_LOOP('',(#315,#316,#317,#318));
#47=EDGE_LOOP('',(#319,#320,#321,#322));
#48=EDGE_LOOP('',(#323,#324,#325,#326));
#49=EDGE_LOOP('',(#327,#328,#329,#330));
#50=EDGE_LOOP('',(#331,#332,#333,#334));
#51=EDGE_LOOP('',(#335,#336,#337,#338));
#52=EDGE_LOOP('',(#339,#340,#341,#342));
#53=EDGE_LOOP('',(#343,#344,#345,#346,#347,#348,#349,#350,#351,#352,#353,
#354,#355,#356,#357,#358,#359,#360,#361,#362));
#54=EDGE_LOOP('',(#363,#364,#365,#366));
#55=EDGE_LOOP('',(#367,#368,#369,#370));
#56=EDGE_LOOP('',(#371,#372,#373,#374,#375,#376,#377,#378,#379,#380,#381,
#382,#383,#384,#385,#386,#387,#388,#389,#390));
#57=EDGE_LOOP('',(#391,#392,#393,#394));
#58=EDGE_LOOP('',(#395,#396,#397,#398));
#59=LINE('',#589,#119);
#60=LINE('',#591,#120);
#61=LINE('',#593,#121);
#62=LINE('',#594,#122);
#63=LINE('',#598,#123);
#64=LINE('',#600,#124);
#65=LINE('',#602,#125);
#66=LINE('',#603,#126);
#67=LINE('',#607,#127);
#68=LINE('',#609,#128);
#69=LINE('',#611,#129);
#70=LINE('',#612,#130);
#71=LINE('',#615,#131);
#72=LINE('',#617,#132);
#73=LINE('',#618,#133);
#74=LINE('',#621,#134);
#75=LINE('',#623,#135);
#76=LINE('',#624,#136);
#77=LINE('',#628,#137);
#78=LINE('',#630,#138);
#79=LINE('',#632,#139);
#80=LINE('',#633,#140);
#81=LINE('',#636,#141);
#82=LINE('',#638,#142);
#83=LINE('',#639,#143);
#84=LINE('',#642,#144);
#85=LINE('',#644,#145);
#86=LINE('',#645,#146);
#87=LINE('',#649,#147);
#88=LINE('',#651,#148);
#89=LINE('',#653,#149);
#90=LINE('',#654,#150);
#91=LINE('',#657,#151);
#92=LINE('',#659,#152);
#93=LINE('',#660,#153);
#94=LINE('',#663,#154);
#95=LINE('',#665,#155);
#96=LINE('',#666,#156);
#97=LINE('',#670,#157);
#98=LINE('',#672,#158);
#99=LINE('',#674,#159);
#100=LINE('',#675,#160);
#101=LINE('',#678,#161);
#102=LINE('',#680,#162);
#103=LINE('',#681,#163);
#104=LINE('',#684,#164);
#105=LINE('',#686,#165);
#106=LINE('',#687,#166);
#107=LINE('',#689,#167);
#108=LINE('',#690,#168);
#109=LINE('',#692,#169);
#110=LINE('',#693,#170);
#111=LINE('',#695,#171);
#112=LINE('',#696,#172);
#113=LINE('',#697,#173);
#114=LINE('',#698,#174);
#115=LINE('',#700,#175);
#116=LINE('',#702,#176);
#117=LINE('',#704,#177);
#118=LINE('',#705,#178);
#119=VECTOR('',#483,10.);
#120=VECTOR('',#484,10.);
#121=VECTOR('',#485,10.);
#122=VECTOR('',#486,10.);
#123=VECTOR('',#489,10.);
#124=VECTOR('',#490,10.);
#125=VECTOR('',#491,10.);
#126=VECTOR('',#492,10.);
#127=VECTOR('',#495,10.);
#128=VECTOR('',#496,10.);
#129=VECTOR('',#497,10.);
#130=VECTOR('',#498,10.);
#131=VECTOR('',#501,10.);
#132=VECTOR('',#502,10.);
#133=VECTOR('',#503,10.);
#134=VECTOR('',#506,10.);
#135=VECTOR('',#507,10.);
#136=VECTOR('',#508,10.);
#137=VECTOR('',#511,10.);
#138=VECTOR('',#512,10.);
#139=VECTOR('',#513,10.);
#140=VECTOR('',#514,10.);
#141=VECTOR('',#517,10.);
#142=VECTOR('',#518,10.);
#143=VECTOR('',#519,10.);
#144=VECTOR('',#522,10.);
#145=VECTOR('',#523,10.);
#146=VECTOR('',#524,10.);
#147=VECTOR('',#527,10.);
#148=VECTOR('',#528,10.);
#149=VECTOR('',#529,10.);
#150=VECTOR('',#530,10.);
#151=VECTOR('',#533,10.);
#152=VECTOR('',#534,10.);
#153=VECTOR('',#535,10.);
#154=VECTOR('',#538,10.);
#155=VECTOR('',#539,10.);
#156=VECTOR('',#540,10.);
#157=VECTOR('',#543,10.);
#158=VECTOR('',#544,10.);
#159=VECTOR('',#545,10.);
#160=VECTOR('',#546,10.);
#161=VECTOR('',#549,10.);
#162=VECTOR('',#550,10.);
#163=VECTOR('',#551,10.);
#164=VECTOR('',#554,10.);
#165=VECTOR('',#555,10.);
#166=VECTOR('',#556,10.);
#167=VECTOR('',#559,10.);
#168=VECTOR('',#560,10.);
#169=VECTOR('',#563,10.);
#170=VECTOR('',#564,10.);
#171=VECTOR('',#567,10.);
#172=VECTOR('',#568,10.);
#173=VECTOR('',#569,10.);
#174=VECTOR('',#570,10.);
#175=VECTOR('',#573,10.);
#176=VECTOR('',#576,10.);
#177=VECTOR('',#579,10.);
#178=VECTOR('',#580,10.);
#179=VERTEX_POINT('',#587);
#180=VERTEX_POINT('',#588);
#181=VERTEX_POINT('',#590);
#182=VERTEX_POINT('',#592);
#183=VERTEX_POINT('',#596);
#184=VERTEX_POINT('',#597);
#185=VERTEX_POINT('',#599);
#186=VERTEX_POINT('',#601);
#187=VERTEX_POINT('',#605);
#188=VERTEX_POINT('',#606);
#189=VERTEX_POINT('',#608);
#190=VERTEX_POINT('',#610);
#191=VERTEX_POINT('',#614);
#192=VERTEX_POINT('',#616);
#193=VERTEX_POINT('',#620);
#194=VERTEX_POINT('',#622);
#195=VERTEX_POINT('',#626);
#196=VERTEX_POINT('',#627);
#197=VERTEX_POINT('',#629);
#198=VERTEX_POINT('',#631);
#199=VERTEX_POINT('',#635);
#200=VERTEX_POINT('',#637);
#201=VERTEX_POINT('',#641);
#202=VERTEX_POINT('',#643);
#203=VERTEX_POINT('',#647);
#204=VERTEX_POINT('',#648);
#205=VERTEX_POINT('',#650);
#206=VERTEX_POINT('',#652);
#207=VERTEX_POINT('',#656);
#208=VERTEX_POINT('',#658);
#209=VERTEX_POINT('',#662);
#210=VERTEX_POINT('',#664);
#211=VERTEX_POINT('',#668);
#212=VERTEX_POINT('',#669);
#213=VERTEX_POINT('',#671);
#214=VERTEX_POINT('',#673);
#215=VERTEX_POINT('',#677);
#216=VERTEX_POINT('',#679);
#217=VERTEX_POINT('',#683);
#218=VERTEX_POINT('',#685);
#219=EDGE_CURVE('',#179,#180,#59,.T.);
#220=EDGE_CURVE('',#179,#181,#60,.T.);
#221=EDGE_CURVE('',#182,#181,#61,.T.);
#222=EDGE_CURVE('',#180,#182,#62,.T.);
#223=EDGE_CURVE('',#183,#184,#63,.T.);
#224=EDGE_CURVE('',#183,#185,#64,.T.);
#225=EDGE_CURVE('',#186,#185,#65,.T.);
#226=EDGE_CURVE('',#184,#186,#66,.T.);
#227=EDGE_CURVE('',#187,#188,#67,.T.);
#228=EDGE_CURVE('',#189,#187,#68,.T.);
#229=EDGE_CURVE('',#190,#189,#69,.T.);
#230=EDGE_CURVE('',#190,#188,#70,.T.);
#231=EDGE_CURVE('',#188,#191,#71,.T.);
#232=EDGE_CURVE('',#192,#190,#72,.T.);
#233=EDGE_CURVE('',#191,#192,#73,.T.);
#234=EDGE_CURVE('',#193,#187,#74,.T.);
#235=EDGE_CURVE('',#194,#193,#75,.T.);
#236=EDGE_CURVE('',#189,#194,#76,.T.);
#237=EDGE_CURVE('',#195,#196,#77,.T.);
#238=EDGE_CURVE('',#197,#195,#78,.T.);
#239=EDGE_CURVE('',#198,#197,#79,.T.);
#240=EDGE_CURVE('',#198,#196,#80,.T.);
#241=EDGE_CURVE('',#196,#199,#81,.T.);
#242=EDGE_CURVE('',#200,#198,#82,.T.);
#243=EDGE_CURVE('',#200,#199,#83,.T.);
#244=EDGE_CURVE('',#199,#201,#84,.T.);
#245=EDGE_CURVE('',#202,#200,#85,.T.);
#246=EDGE_CURVE('',#201,#202,#86,.T.);
#247=EDGE_CURVE('',#203,#204,#87,.T.);
#248=EDGE_CURVE('',#205,#203,#88,.T.);
#249=EDGE_CURVE('',#206,#205,#89,.T.);
#250=EDGE_CURVE('',#206,#204,#90,.T.);
#251=EDGE_CURVE('',#204,#207,#91,.T.);
#252=EDGE_CURVE('',#208,#206,#92,.T.);
#253=EDGE_CURVE('',#207,#208,#93,.T.);
#254=EDGE_CURVE('',#209,#203,#94,.T.);
#255=EDGE_CURVE('',#210,#209,#95,.T.);
#256=EDGE_CURVE('',#205,#210,#96,.T.);
#257=EDGE_CURVE('',#211,#212,#97,.T.);
#258=EDGE_CURVE('',#213,#211,#98,.T.);
#259=EDGE_CURVE('',#214,#213,#99,.T.);
#260=EDGE_CURVE('',#214,#212,#100,.T.);
#261=EDGE_CURVE('',#212,#215,#101,.T.);
#262=EDGE_CURVE('',#216,#214,#102,.T.);
#263=EDGE_CURVE('',#215,#216,#103,.T.);
#264=EDGE_CURVE('',#217,#211,#104,.T.);
#265=EDGE_CURVE('',#218,#217,#105,.T.);
#266=EDGE_CURVE('',#213,#218,#106,.T.);
#267=EDGE_CURVE('',#184,#202,#107,.T.);
#268=EDGE_CURVE('',#201,#186,#108,.T.);
#269=EDGE_CURVE('',#181,#193,#109,.T.);
#270=EDGE_CURVE('',#194,#179,#110,.T.);
#271=EDGE_CURVE('',#180,#208,#111,.T.);
#272=EDGE_CURVE('',#210,#216,#112,.T.);
#273=EDGE_CURVE('',#218,#183,#113,.T.);
#274=EDGE_CURVE('',#197,#192,#114,.T.);
#275=EDGE_CURVE('',#185,#217,#115,.T.);
#276=EDGE_CURVE('',#215,#209,#116,.T.);
#277=EDGE_CURVE('',#191,#195,#117,.T.);
#278=EDGE_CURVE('',#207,#182,#118,.T.);
#279=ORIENTED_EDGE('',*,*,#219,.F.);
#280=ORIENTED_EDGE('',*,*,#220,.T.);
#281=ORIENTED_EDGE('',*,*,#221,.F.);
#282=ORIENTED_EDGE('',*,*,#222,.F.);
#283=ORIENTED_EDGE('',*,*,#223,.F.);
#284=ORIENTED_EDGE('',*,*,#224,.T.);
#285=ORIENTED_EDGE('',*,*,#225,.F.);
#286=ORIENTED_EDGE('',*,*,#226,.F.);
#287=ORIENTED_EDGE('',*,*,#227,.F.);
#288=ORIENTED_EDGE('',*,*,#228,.F.);
#289=ORIENTED_EDGE('',*,*,#229,.F.);
#290=ORIENTED_EDGE('',*,*,#230,.T.);
#291=ORIENTED_EDGE('',*,*,#231,.F.);
#292=ORIENTED_EDGE('',*,*,#230,.F.);
#293=ORIENTED_EDGE('',*,*,#232,.F.);
#294=ORIENTED_EDGE('',*,*,#233,.F.);
#295=ORIENTED_EDGE('',*,*,#234,.F.);
#296=ORIENTED_EDGE('',*,*,#235,.F.);
#297=ORIENTED_EDGE('',*,*,#236,.F.);
#298=ORIENTED_EDGE('',*,*,#228,.T.);
#299=ORIENTED_EDGE('',*,*,#237,.F.);
#300=ORIENTED_EDGE('',*,*,#238,.F.);
#301=ORIENTED_EDGE('',*,*,#239,.F.);
#302=ORIENTED_EDGE('',*,*,#240,.T.);
#303=ORIENTED_EDGE('',*,*,#241,.F.);
#304=ORIENTED_EDGE('',*,*,#240,.F.);
#305=ORIENTED_EDGE('',*,*,#242,.F.);
#306=ORIENTED_EDGE('',*,*,#243,.T.);
#307=ORIENTED_EDGE('',*,*,#244,.F.);
#308=ORIENTED_EDGE('',*,*,#243,.F.);
#309=ORIENTED_EDGE('',*,*,#245,.F.);
#310=ORIENTED_EDGE('',*,*,#246,.F.);
#311=ORIENTED_EDGE('',*,*,#247,.F.);
#312=ORIENTED_EDGE('',*,*,#248,.F.);
#313=ORIENTED_EDGE('',*,*,#249,.F.);
#314=ORIENTED_EDGE('',*,*,#250,.T.);
#315=ORIENTED_EDGE('',*,*,#251,.F.);
#316=ORIENTED_EDGE('',*,*,#250,.F.);
#317=ORIENTED_EDGE('',*,*,#252,.F.);
#318=ORIENTED_EDGE('',*,*,#253,.F.);
#319=ORIENTED_EDGE('',*,*,#254,.F.);
#320=ORIENTED_EDGE('',*,*,#255,.F.);
#321=ORIENTED_EDGE('',*,*,#256,.F.);
#322=ORIENTED_EDGE('',*,*,#248,.T.);
#323=ORIENTED_EDGE('',*,*,#257,.F.);
#324=ORIENTED_EDGE('',*,*,#258,.F.);
#325=ORIENTED_EDGE('',*,*,#259,.F.);
#326=ORIENTED_EDGE('',*,*,#260,.T.);
#327=ORIENTED_EDGE('',*,*,#261,.F.);
#328=ORIENTED_EDGE('',*,*,#260,.F.);
#329=ORIENTED_EDGE('',*,*,#262,.F.);
#330=ORIENTED_EDGE('',*,*,#263,.F.);
#331=ORIENTED_EDGE('',*,*,#264,.F.);
#332=ORIENTED_EDGE('',*,*,#265,.F.);
#333=ORIENTED_EDGE('',*,*,#266,.F.);
#334=ORIENTED_EDGE('',*,*,#258,.T.);
#335=ORIENTED_EDGE('',*,*,#246,.T.);
#336=ORIENTED_EDGE('',*,*,#267,.F.);
#337=ORIENTED_EDGE('',*,*,#226,.T.);
#338=ORIENTED_EDGE('',*,*,#268,.F.);
#339=ORIENTED_EDGE('',*,*,#235,.T.);
#340=ORIENTED_EDGE('',*,*,#269,.F.);
#341=ORIENTED_EDGE('',*,*,#220,.F.);
#342=ORIENTED_EDGE('',*,*,#270,.F.);
#343=ORIENTED_EDGE('',*,*,#232,.T.);
#344=ORIENTED_EDGE('',*,*,#229,.T.);
#345=ORIENTED_EDGE('',*,*,#236,.T.);
#346=ORIENTED_EDGE('',*,*,#270,.T.);
#347=ORIENTED_EDGE('',*,*,#219,.T.);
#348=ORIENTED_EDGE('',*,*,#271,.T.);
#349=ORIENTED_EDGE('',*,*,#252,.T.);
#350=ORIENTED_EDGE('',*,*,#249,.T.);
#351=ORIENTED_EDGE('',*,*,#256,.T.);
#352=ORIENTED_EDGE('',*,*,#272,.T.);
#353=ORIENTED_EDGE('',*,*,#262,.T.);
#354=ORIENTED_EDGE('',*,*,#259,.T.);
#355=ORIENTED_EDGE('',*,*,#266,.T.);
#356=ORIENTED_EDGE('',*,*,#273,.T.);
#357=ORIENTED_EDGE('',*,*,#223,.T.);
#358=ORIENTED_EDGE('',*,*,#267,.T.);
#359=ORIENTED_EDGE('',*,*,#245,.T.);
#360=ORIENTED_EDGE('',*,*,#242,.T.);
#361=ORIENTED_EDGE('',*,*,#239,.T.);
#362=ORIENTED_EDGE('',*,*,#274,.T.);
#363=ORIENTED_EDGE('',*,*,#265,.T.);
#364=ORIENTED_EDGE('',*,*,#275,.F.);
#365=ORIENTED_EDGE('',*,*,#224,.F.);
#366=ORIENTED_EDGE('',*,*,#273,.F.);
#367=ORIENTED_EDGE('',*,*,#255,.T.);
#368=ORIENTED_EDGE('',*,*,#276,.F.);
#369=ORIENTED_EDGE('',*,*,#263,.T.);
#370=ORIENTED_EDGE('',*,*,#272,.F.);
#371=ORIENTED_EDGE('',*,*,#234,.T.);
#372=ORIENTED_EDGE('',*,*,#227,.T.);
#373=ORIENTED_EDGE('',*,*,#231,.T.);
#374=ORIENTED_EDGE('',*,*,#277,.T.);
#375=ORIENTED_EDGE('',*,*,#237,.T.);
#376=ORIENTED_EDGE('',*,*,#241,.T.);
#377=ORIENTED_EDGE('',*,*,#244,.T.);
#378=ORIENTED_EDGE('',*,*,#268,.T.);
#379=ORIENTED_EDGE('',*,*,#225,.T.);
#380=ORIENTED_EDGE('',*,*,#275,.T.);
#381=ORIENTED_EDGE('',*,*,#264,.T.);
#382=ORIENTED_EDGE('',*,*,#257,.T.);
#383=ORIENTED_EDGE('',*,*,#261,.T.);
#384=ORIENTED_EDGE('',*,*,#276,.T.);
#385=ORIENTED_EDGE('',*,*,#254,.T.);
#386=ORIENTED_EDGE('',*,*,#247,.T.);
#387=ORIENTED_EDGE('',*,*,#251,.T.);
#388=ORIENTED_EDGE('',*,*,#278,.T.);
#389=ORIENTED_EDGE('',*,*,#221,.T.);
#390=ORIENTED_EDGE('',*,*,#269,.T.);
#391=ORIENTED_EDGE('',*,*,#233,.T.);
#392=ORIENTED_EDGE('',*,*,#274,.F.);
#393=ORIENTED_EDGE('',*,*,#238,.T.);
#394=ORIENTED_EDGE('',*,*,#277,.F.);
#395=ORIENTED_EDGE('',*,*,#253,.T.);
#396=ORIENTED_EDGE('',*,*,#271,.F.);
#397=ORIENTED_EDGE('',*,*,#222,.T.);
#398=ORIENTED_EDGE('',*,*,#278,.F.);
#399=PLANE('',#457);
#400=PLANE('',#458);
#401=PLANE('',#459);
#402=PLANE('',#460);
#403=PLANE('',#461);
#404=PLANE('',#462);
#405=PLANE('',#463);
#406=PLANE('',#464);
#407=PLANE('',#465);
#408=PLANE('',#466);
#409=PLANE('',#467);
#410=PLANE('',#468);
#411=PLANE('',#469);
#412=PLANE('',#470);
#413=PLANE('',#471);
#414=PLANE('',#472);
#415=PLANE('',#473);
#416=PLANE('',#474);
#417=PLANE('',#475);
#418=PLANE('',#476);
#419=PLANE('',#477);
#420=PLANE('',#478);
#421=ADVANCED_FACE('',(#15),#399,.T.);
#422=ADVANCED_FACE('',(#16),#400,.T.);
#423=ADVANCED_FACE('',(#17),#401,.F.);
#424=ADVANCED_FACE('',(#18),#402,.F.);
#425=ADVANCED_FACE('',(#19),#403,.F.);
#426=ADVANCED_FACE('',(#20),#404,.F.);
#427=ADVANCED_FACE('',(#21),#405,.F.);
#428=ADVANCED_FACE('',(#22),#406,.F.);
#429=ADVANCED_FACE('',(#23),#407,.F.);
#430=ADVANCED_FACE('',(#24),#408,.F.);
#431=ADVANCED_FACE('',(#25),#409,.F.);
#432=ADVANCED_FACE('',(#26),#410,.F.);
#433=ADVANCED_FACE('',(#27),#411,.F.);
#434=ADVANCED_FACE('',(#28),#412,.F.);
#435=ADVANCED_FACE('',(#29),#413,.F.);
#436=ADVANCED_FACE('',(#30),#414,.F.);
#437=ADVANCED_FACE('',(#31),#415,.T.);
#438=ADVANCED_FACE('',(#32),#416,.F.);
#439=ADVANCED_FACE('',(#33),#417,.F.);
#440=ADVANCED_FACE('',(#34),#418,.F.);
#441=ADVANCED_FACE('',(#35),#419,.F.);
#442=ADVANCED_FACE('',(#36),#420,.F.);
#443=CLOSED_SHELL('',(#421,#422,#423,#424,#425,#426,#427,#428,#429,#430,
#431,#432,#433,#434,#435,#436,#437,#438,#439,#440,#441,#442));
#444=DERIVED_UNIT_ELEMENT(#446,1.);
#445=DERIVED_UNIT_ELEMENT(#713,-3.);
#446=(
MASS_UNIT()
NAMED_UNIT(*)
SI_UNIT(.KILO.,.GRAM.)
);
#447=DERIVED_UNIT((#444,#445));
#448=MEASURE_REPRESENTATION_ITEM('density measure',
POSITIVE_RATIO_MEASURE(7850.),#447);
#449=PROPERTY_DEFINITION_REPRESENTATION(#454,#451);
#450=PROPERTY_DEFINITION_REPRESENTATION(#455,#452);
#451=REPRESENTATION('material name',(#453),#710);
#452=REPRESENTATION('density',(#448),#710);
#453=DESCRIPTIVE_REPRESENTATION_ITEM('\X2\94A2\X0\','\X2\94A2\X0\');
#454=PROPERTY_DEFINITION('material property','material name',#720);
#455=PROPERTY_DEFINITION('material property','density of part',#720);
#456=AXIS2_PLACEMENT_3D('',#585,#479,#480);
#457=AXIS2_PLACEMENT_3D('',#586,#481,#482);
#458=AXIS2_PLACEMENT_3D('',#595,#487,#488);
#459=AXIS2_PLACEMENT_3D('',#604,#493,#494);
#460=AXIS2_PLACEMENT_3D('',#613,#499,#500);
#461=AXIS2_PLACEMENT_3D('',#619,#504,#505);
#462=AXIS2_PLACEMENT_3D('',#625,#509,#510);
#463=AXIS2_PLACEMENT_3D('',#634,#515,#516);
#464=AXIS2_PLACEMENT_3D('',#640,#520,#521);
#465=AXIS2_PLACEMENT_3D('',#646,#525,#526);
#466=AXIS2_PLACEMENT_3D('',#655,#531,#532);
#467=AXIS2_PLACEMENT_3D('',#661,#536,#537);
#468=AXIS2_PLACEMENT_3D('',#667,#541,#542);
#469=AXIS2_PLACEMENT_3D('',#676,#547,#548);
#470=AXIS2_PLACEMENT_3D('',#682,#552,#553);
#471=AXIS2_PLACEMENT_3D('',#688,#557,#558);
#472=AXIS2_PLACEMENT_3D('',#691,#561,#562);
#473=AXIS2_PLACEMENT_3D('',#694,#565,#566);
#474=AXIS2_PLACEMENT_3D('',#699,#571,#572);
#475=AXIS2_PLACEMENT_3D('',#701,#574,#575);
#476=AXIS2_PLACEMENT_3D('',#703,#577,#578);
#477=AXIS2_PLACEMENT_3D('',#706,#581,#582);
#478=AXIS2_PLACEMENT_3D('',#707,#583,#584);
#479=DIRECTION('axis',(0.,0.,1.));
#480=DIRECTION('refdir',(1.,0.,0.));
#481=DIRECTION('center_axis',(0.,0.,1.));
#482=DIRECTION('ref_axis',(-1.,0.,0.));
#483=DIRECTION('',(1.,0.,0.));
#484=DIRECTION('',(0.,-1.,0.));
#485=DIRECTION('',(-1.,0.,0.));
#486=DIRECTION('',(0.,-1.,0.));
#487=DIRECTION('center_axis',(0.,0.,-1.));
#488=DIRECTION('ref_axis',(1.,0.,0.));
#489=DIRECTION('',(-1.,0.,0.));
#490=DIRECTION('',(0.,-1.,0.));
#491=DIRECTION('',(1.,0.,0.));
#492=DIRECTION('',(0.,-1.,0.));
#493=DIRECTION('center_axis',(1.,0.,2.53765262771464E-16));
#494=DIRECTION('ref_axis',(-2.53765262771464E-16,0.,1.));
#495=DIRECTION('',(2.53765262771464E-16,0.,-1.));
#496=DIRECTION('',(0.,-1.,0.));
#497=DIRECTION('',(-2.53765262771464E-16,0.,1.));
#498=DIRECTION('',(0.,-1.,0.));
#499=DIRECTION('center_axis',(0.,0.,-1.));
#500=DIRECTION('ref_axis',(1.,0.,0.));
#501=DIRECTION('',(-1.,0.,0.));
#502=DIRECTION('',(1.,0.,0.));
#503=DIRECTION('',(0.,1.,0.));
#504=DIRECTION('center_axis',(0.,0.,1.));
#505=DIRECTION('ref_axis',(-1.,0.,0.));
#506=DIRECTION('',(1.,0.,0.));
#507=DIRECTION('',(0.,-1.,0.));
#508=DIRECTION('',(-1.,0.,0.));
#509=DIRECTION('center_axis',(2.22044604925031E-16,0.,1.));
#510=DIRECTION('ref_axis',(-1.,0.,2.22044604925031E-16));
#511=DIRECTION('',(1.,0.,-2.22044604925031E-16));
#512=DIRECTION('',(0.,-1.,0.));
#513=DIRECTION('',(-1.,0.,2.22044604925031E-16));
#514=DIRECTION('',(0.,-1.,0.));
#515=DIRECTION('center_axis',(1.,0.,-1.26882631385732E-16));
#516=DIRECTION('ref_axis',(1.26882631385732E-16,0.,1.));
#517=DIRECTION('',(-1.26882631385732E-16,0.,-1.));
#518=DIRECTION('',(1.26882631385732E-16,0.,1.));
#519=DIRECTION('',(0.,-1.,0.));
#520=DIRECTION('center_axis',(5.55111512312578E-17,0.,-1.));
#521=DIRECTION('ref_axis',(1.,0.,5.55111512312578E-17));
#522=DIRECTION('',(-1.,0.,-5.55111512312578E-17));
#523=DIRECTION('',(1.,0.,5.55111512312578E-17));
#524=DIRECTION('',(0.,1.,0.));
#525=DIRECTION('center_axis',(-1.,0.,0.));
#526=DIRECTION('ref_axis',(0.,0.,-1.));
#527=DIRECTION('',(0.,0.,1.));
#528=DIRECTION('',(0.,-1.,0.));
#529=DIRECTION('',(0.,0.,-1.));
#530=DIRECTION('',(0.,-1.,0.));
#531=DIRECTION('center_axis',(-8.88178419700125E-16,0.,1.));
#532=DIRECTION('ref_axis',(-1.,0.,-8.88178419700125E-16));
#533=DIRECTION('',(1.,0.,8.88178419700125E-16));
#534=DIRECTION('',(-1.,0.,-8.88178419700125E-16));
#535=DIRECTION('',(0.,1.,0.));
#536=DIRECTION('center_axis',(-8.88178419700125E-16,0.,-1.));
#537=DIRECTION('ref_axis',(1.,0.,-8.88178419700125E-16));
#538=DIRECTION('',(-1.,0.,8.88178419700125E-16));
#539=DIRECTION('',(0.,-1.,0.));
#540=DIRECTION('',(1.,0.,-8.88178419700125E-16));
#541=DIRECTION('center_axis',(-1.,0.,0.));
#542=DIRECTION('ref_axis',(0.,0.,-1.));
#543=DIRECTION('',(0.,0.,1.));
#544=DIRECTION('',(0.,-1.,0.));
#545=DIRECTION('',(0.,0.,-1.));
#546=DIRECTION('',(0.,-1.,0.));
#547=DIRECTION('center_axis',(0.,0.,1.));
#548=DIRECTION('ref_axis',(-1.,0.,0.));
#549=DIRECTION('',(1.,0.,0.));
#550=DIRECTION('',(-1.,0.,0.));
#551=DIRECTION('',(0.,1.,0.));
#552=DIRECTION('center_axis',(8.32667268468867E-17,0.,-1.));
#553=DIRECTION('ref_axis',(1.,0.,8.32667268468867E-17));
#554=DIRECTION('',(-1.,0.,-8.32667268468867E-17));
#555=DIRECTION('',(0.,-1.,0.));
#556=DIRECTION('',(1.,0.,8.32667268468867E-17));
#557=DIRECTION('center_axis',(1.,0.,0.));
#558=DIRECTION('ref_axis',(0.,1.,0.));
#559=DIRECTION('',(0.,0.,1.));
#560=DIRECTION('',(3.87122902539228E-17,0.,-1.));
#561=DIRECTION('center_axis',(1.,0.,0.));
#562=DIRECTION('ref_axis',(0.,1.,0.));
#563=DIRECTION('',(0.,0.,-1.));
#564=DIRECTION('',(0.,0.,1.));
#565=DIRECTION('center_axis',(0.,1.,0.));
#566=DIRECTION('ref_axis',(0.,0.,1.));
#567=DIRECTION('',(0.,0.,-1.));
#568=DIRECTION('',(0.,0.,-1.));
#569=DIRECTION('',(0.,0.,-1.));
#570=DIRECTION('',(0.,0.,1.));
#571=DIRECTION('center_axis',(-1.,0.,0.));
#572=DIRECTION('ref_axis',(0.,-1.,0.));
#573=DIRECTION('',(0.,0.,1.));
#574=DIRECTION('center_axis',(-1.,0.,0.));
#575=DIRECTION('ref_axis',(0.,-1.,0.));
#576=DIRECTION('',(0.,0.,1.));
#577=DIRECTION('center_axis',(0.,1.,0.));
#578=DIRECTION('ref_axis',(0.,0.,1.));
#579=DIRECTION('',(0.,0.,-1.));
#580=DIRECTION('',(0.,0.,1.));
#581=DIRECTION('center_axis',(1.,0.,0.));
#582=DIRECTION('ref_axis',(0.,1.,0.));
#583=DIRECTION('center_axis',(-1.,0.,0.));
#584=DIRECTION('ref_axis',(0.,-1.,0.));
#585=CARTESIAN_POINT('',(0.,0.,0.));
#586=CARTESIAN_POINT('Origin',(208.4,3.,280.));
#587=CARTESIAN_POINT('',(0.,3.,280.));
#588=CARTESIAN_POINT('',(208.4,3.,280.));
#589=CARTESIAN_POINT('',(0.,3.,280.));
#590=CARTESIAN_POINT('',(0.,0.,280.));
#591=CARTESIAN_POINT('',(0.,3.,280.));
#592=CARTESIAN_POINT('',(208.4,0.,280.));
#593=CARTESIAN_POINT('',(0.,0.,280.));
#594=CARTESIAN_POINT('',(208.4,3.,280.));
#595=CARTESIAN_POINT('Origin',(0.,3.,-10.));
#596=CARTESIAN_POINT('',(208.4,3.,-10.));
#597=CARTESIAN_POINT('',(3.87122902539228E-16,3.,-10.));
#598=CARTESIAN_POINT('',(208.4,3.,-10.));
#599=CARTESIAN_POINT('',(208.4,0.,-10.));
#600=CARTESIAN_POINT('',(208.4,3.,-10.));
#601=CARTESIAN_POINT('',(0.,0.,-10.));
#602=CARTESIAN_POINT('',(208.4,0.,-10.));
#603=CARTESIAN_POINT('',(3.87122902539228E-16,3.,-10.));
#604=CARTESIAN_POINT('Origin',(40.,3.,190.));
#605=CARTESIAN_POINT('',(40.,0.,260.));
#606=CARTESIAN_POINT('',(40.,0.,190.));
#607=CARTESIAN_POINT('',(40.,0.,162.5));
#608=CARTESIAN_POINT('',(40.,3.,260.));
#609=CARTESIAN_POINT('',(40.,3.,260.));
#610=CARTESIAN_POINT('',(40.,3.,190.));
#611=CARTESIAN_POINT('',(40.,3.,162.5));
#612=CARTESIAN_POINT('',(40.,3.,190.));
#613=CARTESIAN_POINT('Origin',(0.,3.,190.));
#614=CARTESIAN_POINT('',(0.,0.,190.));
#615=CARTESIAN_POINT('',(52.1,0.,190.));
#616=CARTESIAN_POINT('',(0.,3.,190.));
#617=CARTESIAN_POINT('',(52.1,3.,190.));
#618=CARTESIAN_POINT('',(0.,2.25,190.));
#619=CARTESIAN_POINT('Origin',(40.,3.,260.));
#620=CARTESIAN_POINT('',(0.,0.,260.));
#621=CARTESIAN_POINT('',(72.1,0.,260.));
#622=CARTESIAN_POINT('',(0.,3.,260.));
#623=CARTESIAN_POINT('',(0.,2.25,260.));
#624=CARTESIAN_POINT('',(72.1,3.,260.));
#625=CARTESIAN_POINT('Origin',(40.,3.,80.));
#626=CARTESIAN_POINT('',(0.,0.,80.));
#627=CARTESIAN_POINT('',(40.,0.,80.));
#628=CARTESIAN_POINT('',(72.1,0.,80.));
#629=CARTESIAN_POINT('',(0.,3.,80.));
#630=CARTESIAN_POINT('',(0.,2.25,80.));
#631=CARTESIAN_POINT('',(40.,3.,80.));
#632=CARTESIAN_POINT('',(72.1,3.,80.));
#633=CARTESIAN_POINT('',(40.,3.,80.));
#634=CARTESIAN_POINT('Origin',(40.,3.,10.));
#635=CARTESIAN_POINT('',(40.,0.,10.));
#636=CARTESIAN_POINT('',(40.,0.,72.5));
#637=CARTESIAN_POINT('',(40.,3.,10.));
#638=CARTESIAN_POINT('',(40.,3.,72.5));
#639=CARTESIAN_POINT('',(40.,3.,10.));
#640=CARTESIAN_POINT('Origin',(0.,3.,10.));
#641=CARTESIAN_POINT('',(0.,0.,10.));
#642=CARTESIAN_POINT('',(52.1,0.,10.));
#643=CARTESIAN_POINT('',(0.,3.,10.));
#644=CARTESIAN_POINT('',(52.1,3.,10.));
#645=CARTESIAN_POINT('',(0.,2.25,10.));
#646=CARTESIAN_POINT('Origin',(168.4,3.,260.));
#647=CARTESIAN_POINT('',(168.4,0.,190.));
#648=CARTESIAN_POINT('',(168.4,0.,260.));
#649=CARTESIAN_POINT('',(168.4,0.,197.5));
#650=CARTESIAN_POINT('',(168.4,3.,190.));
#651=CARTESIAN_POINT('',(168.4,3.,190.));
#652=CARTESIAN_POINT('',(168.4,3.,260.));
#653=CARTESIAN_POINT('',(168.4,3.,197.5));
#654=CARTESIAN_POINT('',(168.4,3.,260.));
#655=CARTESIAN_POINT('Origin',(208.4,3.,260.));
#656=CARTESIAN_POINT('',(208.4,0.,260.));
#657=CARTESIAN_POINT('',(156.3,0.,260.));
#658=CARTESIAN_POINT('',(208.4,3.,260.));
#659=CARTESIAN_POINT('',(156.3,3.,260.));
#660=CARTESIAN_POINT('',(208.4,2.25,260.));
#661=CARTESIAN_POINT('Origin',(168.4,3.,190.));
#662=CARTESIAN_POINT('',(208.4,0.,190.));
#663=CARTESIAN_POINT('',(136.3,0.,190.));
#664=CARTESIAN_POINT('',(208.4,3.,190.));
#665=CARTESIAN_POINT('',(208.4,2.25,190.));
#666=CARTESIAN_POINT('',(136.3,3.,190.));
#667=CARTESIAN_POINT('Origin',(168.4,3.,80.));
#668=CARTESIAN_POINT('',(168.4,0.,10.));
#669=CARTESIAN_POINT('',(168.4,0.,80.));
#670=CARTESIAN_POINT('',(168.4,0.,107.5));
#671=CARTESIAN_POINT('',(168.4,3.,10.));
#672=CARTESIAN_POINT('',(168.4,3.,10.));
#673=CARTESIAN_POINT('',(168.4,3.,80.));
#674=CARTESIAN_POINT('',(168.4,3.,107.5));
#675=CARTESIAN_POINT('',(168.4,3.,80.));
#676=CARTESIAN_POINT('Origin',(208.4,3.,80.));
#677=CARTESIAN_POINT('',(208.4,0.,80.));
#678=CARTESIAN_POINT('',(156.3,0.,80.));
#679=CARTESIAN_POINT('',(208.4,3.,80.));
#680=CARTESIAN_POINT('',(156.3,3.,80.));
#681=CARTESIAN_POINT('',(208.4,2.25,80.));
#682=CARTESIAN_POINT('Origin',(168.4,3.,10.));
#683=CARTESIAN_POINT('',(208.4,0.,10.));
#684=CARTESIAN_POINT('',(136.3,0.,10.));
#685=CARTESIAN_POINT('',(208.4,3.,10.));
#686=CARTESIAN_POINT('',(208.4,2.25,10.));
#687=CARTESIAN_POINT('',(136.3,3.,10.));
#688=CARTESIAN_POINT('Origin',(0.,1.5,135.));
#689=CARTESIAN_POINT('',(0.,3.,135.));
#690=CARTESIAN_POINT('',(3.87122902539228E-16,0.,-10.));
#691=CARTESIAN_POINT('Origin',(0.,1.5,135.));
#692=CARTESIAN_POINT('',(0.,0.,270.));
#693=CARTESIAN_POINT('',(0.,3.,270.));
#694=CARTESIAN_POINT('Origin',(104.2,3.,135.));
#695=CARTESIAN_POINT('',(208.4,3.,135.));
#696=CARTESIAN_POINT('',(208.4,3.,135.));
#697=CARTESIAN_POINT('',(208.4,3.,135.));
#698=CARTESIAN_POINT('',(0.,3.,135.));
#699=CARTESIAN_POINT('Origin',(208.4,1.5,135.));
#700=CARTESIAN_POINT('',(208.4,0.,135.));
#701=CARTESIAN_POINT('Origin',(208.4,1.5,135.));
#702=CARTESIAN_POINT('',(208.4,0.,135.));
#703=CARTESIAN_POINT('Origin',(104.2,0.,135.));
#704=CARTESIAN_POINT('',(0.,0.,135.));
#705=CARTESIAN_POINT('',(208.4,0.,270.));
#706=CARTESIAN_POINT('Origin',(0.,1.5,135.));
#707=CARTESIAN_POINT('Origin',(208.4,1.5,135.));
#708=UNCERTAINTY_MEASURE_WITH_UNIT(LENGTH_MEASURE(0.01),#712,
'DISTANCE_ACCURACY_VALUE',
'Maximum model space distance between geometric entities at asserted c
onnectivities');
#709=UNCERTAINTY_MEASURE_WITH_UNIT(LENGTH_MEASURE(0.01),#712,
'DISTANCE_ACCURACY_VALUE',
'Maximum model space distance between geometric entities at asserted c
onnectivities');
#710=(
GEOMETRIC_REPRESENTATION_CONTEXT(3)
GLOBAL_UNCERTAINTY_ASSIGNED_CONTEXT((#708))
GLOBAL_UNIT_ASSIGNED_CONTEXT((#712,#714,#715))
REPRESENTATION_CONTEXT('','3D')
);
#711=(
GEOMETRIC_REPRESENTATION_CONTEXT(3)
GLOBAL_UNCERTAINTY_ASSIGNED_CONTEXT((#709))
GLOBAL_UNIT_ASSIGNED_CONTEXT((#712,#714,#715))
REPRESENTATION_CONTEXT('','3D')
);
#712=(
LENGTH_UNIT()
NAMED_UNIT(*)
SI_UNIT(.MILLI.,.METRE.)
);
#713=(
LENGTH_UNIT()
NAMED_UNIT(*)
SI_UNIT($,.METRE.)
);
#714=(
NAMED_UNIT(*)
PLANE_ANGLE_UNIT()
SI_UNIT($,.RADIAN.)
);
#715=(
NAMED_UNIT(*)
SI_UNIT($,.STERADIAN.)
SOLID_ANGLE_UNIT()
);
#716=SHAPE_DEFINITION_REPRESENTATION(#717,#718);
#717=PRODUCT_DEFINITION_SHAPE('',$,#720);
#718=SHAPE_REPRESENTATION('',(#456),#710);
#719=PRODUCT_DEFINITION_CONTEXT('part definition',#724,'design');
#720=PRODUCT_DEFINITION('2026-05-28-13-15-11-563','\X2\7B2C4E005C425E95677F\X0\',
#721,#719);
#721=PRODUCT_DEFINITION_FORMATION('',$,#726);
#722=PRODUCT_RELATED_PRODUCT_CATEGORY('\X2\7B2C4E005C425E95677F\X0\',
'\X2\7B2C4E005C425E95677F\X0\',(#726));
#723=APPLICATION_PROTOCOL_DEFINITION('international standard',
'automotive_design',2009,#724);
#724=APPLICATION_CONTEXT(
'Core Data for Automotive Mechanical Design Process');
#725=PRODUCT_CONTEXT('part definition',#724,'mechanical');
#726=PRODUCT('2026-05-28-13-15-11-563','\X2\7B2C4E005C425E95677F\X0\',$,
(#725));
#727=PRESENTATION_STYLE_ASSIGNMENT((#728));
#728=SURFACE_STYLE_USAGE(.BOTH.,#729);
#729=SURFACE_SIDE_STYLE('',(#730));
#730=SURFACE_STYLE_FILL_AREA(#731);
#731=FILL_AREA_STYLE('\X2\94A2\X0\ - \X2\7F0E5149\X0\',(#732));
#732=FILL_AREA_STYLE_COLOUR('\X2\94A2\X0\ - \X2\7F0E5149\X0\',#733);
#733=COLOUR_RGB('\X2\94A2\X0\ - \X2\7F0E5149\X0\',0.627450980392157,0.627450980392157,
0.627450980392157);
ENDSEC;
END-ISO-10303-21;
