ISO-10303-21;
HEADER;
/* Generated by software containing ST-Developer
 * from STEP Tools, Inc. (www.steptools.com) 
 */

FILE_DESCRIPTION(
/* description */ (''),
/* implementation_level */ '2;1');

FILE_NAME(
/* name */ '',
/* time_stamp */ '2026-05-28T18:43:31+08:00',
/* author */ (''),
/* organization */ (''),
/* preprocessor_version */ 'ST-DEVELOPER v20.1',
/* originating_system */ 'Autodesk Translation Framework v15.8.0.0',
/* authorisation */ '');

FILE_SCHEMA (('AUTOMOTIVE_DESIGN { 1 0 10303 214 3 1 1 }'));
ENDSEC;

DATA;
#10=MECHANICAL_DESIGN_GEOMETRIC_PRESENTATION_REPRESENTATION('',(#13),#339);
#11=SHAPE_REPRESENTATION_RELATIONSHIP('SRR','None',#346,#12);
#12=ADVANCED_BREP_SHAPE_REPRESENTATION('',(#14),#338);
#13=STYLED_ITEM('',(#355),#14);
#14=MANIFOLD_SOLID_BREP('\X2\5B9E4F53\X0\1',#199);
#15=FACE_BOUND('',#44,.T.);
#16=FACE_BOUND('',#45,.T.);
#17=FACE_BOUND('',#46,.T.);
#18=FACE_BOUND('',#47,.T.);
#19=FACE_BOUND('',#49,.T.);
#20=FACE_BOUND('',#50,.T.);
#21=FACE_BOUND('',#51,.T.);
#22=FACE_BOUND('',#52,.T.);
#23=PLANE('',#225);
#24=PLANE('',#226);
#25=PLANE('',#227);
#26=PLANE('',#228);
#27=PLANE('',#229);
#28=PLANE('',#230);
#29=FACE_OUTER_BOUND('',#39,.T.);
#30=FACE_OUTER_BOUND('',#40,.T.);
#31=FACE_OUTER_BOUND('',#41,.T.);
#32=FACE_OUTER_BOUND('',#42,.T.);
#33=FACE_OUTER_BOUND('',#43,.T.);
#34=FACE_OUTER_BOUND('',#48,.T.);
#35=FACE_OUTER_BOUND('',#53,.T.);
#36=FACE_OUTER_BOUND('',#54,.T.);
#37=FACE_OUTER_BOUND('',#55,.T.);
#38=FACE_OUTER_BOUND('',#56,.T.);
#39=EDGE_LOOP('',(#137,#138,#139,#140));
#40=EDGE_LOOP('',(#141,#142,#143,#144));
#41=EDGE_LOOP('',(#145,#146,#147,#148));
#42=EDGE_LOOP('',(#149,#150,#151,#152));
#43=EDGE_LOOP('',(#153,#154,#155,#156));
#44=EDGE_LOOP('',(#157));
#45=EDGE_LOOP('',(#158));
#46=EDGE_LOOP('',(#159));
#47=EDGE_LOOP('',(#160));
#48=EDGE_LOOP('',(#161,#162,#163,#164));
#49=EDGE_LOOP('',(#165));
#50=EDGE_LOOP('',(#166));
#51=EDGE_LOOP('',(#167));
#52=EDGE_LOOP('',(#168));
#53=EDGE_LOOP('',(#169,#170,#171,#172));
#54=EDGE_LOOP('',(#173,#174,#175,#176));
#55=EDGE_LOOP('',(#177,#178,#179,#180));
#56=EDGE_LOOP('',(#181,#182,#183,#184));
#57=LINE('',#290,#73);
#58=LINE('',#296,#74);
#59=LINE('',#302,#75);
#60=LINE('',#308,#76);
#61=LINE('',#313,#77);
#62=LINE('',#315,#78);
#63=LINE('',#317,#79);
#64=LINE('',#318,#80);
#65=LINE('',#322,#81);
#66=LINE('',#324,#82);
#67=LINE('',#326,#83);
#68=LINE('',#327,#84);
#69=LINE('',#329,#85);
#70=LINE('',#330,#86);
#71=LINE('',#332,#87);
#72=LINE('',#334,#88);
#73=VECTOR('',#237,1.6);
#74=VECTOR('',#244,1.6);
#75=VECTOR('',#251,1.6);
#76=VECTOR('',#258,1.6);
#77=VECTOR('',#263,10.);
#78=VECTOR('',#264,10.);
#79=VECTOR('',#265,10.);
#80=VECTOR('',#266,10.);
#81=VECTOR('',#269,10.);
#82=VECTOR('',#270,10.);
#83=VECTOR('',#271,10.);
#84=VECTOR('',#272,10.);
#85=VECTOR('',#275,10.);
#86=VECTOR('',#276,10.);
#87=VECTOR('',#279,10.);
#88=VECTOR('',#282,10.);
#89=CIRCLE('',#214,1.6);
#90=CIRCLE('',#215,1.6);
#91=CIRCLE('',#217,1.6);
#92=CIRCLE('',#218,1.6);
#93=CIRCLE('',#220,1.6);
#94=CIRCLE('',#221,1.6);
#95=CIRCLE('',#223,1.6);
#96=CIRCLE('',#224,1.6);
#97=VERTEX_POINT('',#287);
#98=VERTEX_POINT('',#289);
#99=VERTEX_POINT('',#293);
#100=VERTEX_POINT('',#295);
#101=VERTEX_POINT('',#299);
#102=VERTEX_POINT('',#301);
#103=VERTEX_POINT('',#305);
#104=VERTEX_POINT('',#307);
#105=VERTEX_POINT('',#311);
#106=VERTEX_POINT('',#312);
#107=VERTEX_POINT('',#314);
#108=VERTEX_POINT('',#316);
#109=VERTEX_POINT('',#320);
#110=VERTEX_POINT('',#321);
#111=VERTEX_POINT('',#323);
#112=VERTEX_POINT('',#325);
#113=EDGE_CURVE('',#97,#97,#89,.T.);
#114=EDGE_CURVE('',#97,#98,#57,.T.);
#115=EDGE_CURVE('',#98,#98,#90,.T.);
#116=EDGE_CURVE('',#99,#99,#91,.T.);
#117=EDGE_CURVE('',#99,#100,#58,.T.);
#118=EDGE_CURVE('',#100,#100,#92,.T.);
#119=EDGE_CURVE('',#101,#101,#93,.T.);
#120=EDGE_CURVE('',#101,#102,#59,.T.);
#121=EDGE_CURVE('',#102,#102,#94,.T.);
#122=EDGE_CURVE('',#103,#103,#95,.T.);
#123=EDGE_CURVE('',#103,#104,#60,.T.);
#124=EDGE_CURVE('',#104,#104,#96,.T.);
#125=EDGE_CURVE('',#105,#106,#61,.T.);
#126=EDGE_CURVE('',#106,#107,#62,.T.);
#127=EDGE_CURVE('',#107,#108,#63,.T.);
#128=EDGE_CURVE('',#108,#105,#64,.T.);
#129=EDGE_CURVE('',#109,#110,#65,.T.);
#130=EDGE_CURVE('',#110,#111,#66,.T.);
#131=EDGE_CURVE('',#111,#112,#67,.T.);
#132=EDGE_CURVE('',#112,#109,#68,.T.);
#133=EDGE_CURVE('',#108,#111,#69,.T.);
#134=EDGE_CURVE('',#105,#110,#70,.T.);
#135=EDGE_CURVE('',#107,#112,#71,.T.);
#136=EDGE_CURVE('',#106,#109,#72,.T.);
#137=ORIENTED_EDGE('',*,*,#113,.F.);
#138=ORIENTED_EDGE('',*,*,#114,.T.);
#139=ORIENTED_EDGE('',*,*,#115,.F.);
#140=ORIENTED_EDGE('',*,*,#114,.F.);
#141=ORIENTED_EDGE('',*,*,#116,.F.);
#142=ORIENTED_EDGE('',*,*,#117,.T.);
#143=ORIENTED_EDGE('',*,*,#118,.F.);
#144=ORIENTED_EDGE('',*,*,#117,.F.);
#145=ORIENTED_EDGE('',*,*,#119,.F.);
#146=ORIENTED_EDGE('',*,*,#120,.T.);
#147=ORIENTED_EDGE('',*,*,#121,.F.);
#148=ORIENTED_EDGE('',*,*,#120,.F.);
#149=ORIENTED_EDGE('',*,*,#122,.F.);
#150=ORIENTED_EDGE('',*,*,#123,.T.);
#151=ORIENTED_EDGE('',*,*,#124,.F.);
#152=ORIENTED_EDGE('',*,*,#123,.F.);
#153=ORIENTED_EDGE('',*,*,#125,.T.);
#154=ORIENTED_EDGE('',*,*,#126,.T.);
#155=ORIENTED_EDGE('',*,*,#127,.T.);
#156=ORIENTED_EDGE('',*,*,#128,.T.);
#157=ORIENTED_EDGE('',*,*,#113,.T.);
#158=ORIENTED_EDGE('',*,*,#116,.T.);
#159=ORIENTED_EDGE('',*,*,#119,.T.);
#160=ORIENTED_EDGE('',*,*,#122,.T.);
#161=ORIENTED_EDGE('',*,*,#129,.T.);
#162=ORIENTED_EDGE('',*,*,#130,.T.);
#163=ORIENTED_EDGE('',*,*,#131,.T.);
#164=ORIENTED_EDGE('',*,*,#132,.T.);
#165=ORIENTED_EDGE('',*,*,#115,.T.);
#166=ORIENTED_EDGE('',*,*,#118,.T.);
#167=ORIENTED_EDGE('',*,*,#121,.T.);
#168=ORIENTED_EDGE('',*,*,#124,.T.);
#169=ORIENTED_EDGE('',*,*,#133,.T.);
#170=ORIENTED_EDGE('',*,*,#130,.F.);
#171=ORIENTED_EDGE('',*,*,#134,.F.);
#172=ORIENTED_EDGE('',*,*,#128,.F.);
#173=ORIENTED_EDGE('',*,*,#135,.T.);
#174=ORIENTED_EDGE('',*,*,#131,.F.);
#175=ORIENTED_EDGE('',*,*,#133,.F.);
#176=ORIENTED_EDGE('',*,*,#127,.F.);
#177=ORIENTED_EDGE('',*,*,#136,.T.);
#178=ORIENTED_EDGE('',*,*,#132,.F.);
#179=ORIENTED_EDGE('',*,*,#135,.F.);
#180=ORIENTED_EDGE('',*,*,#126,.F.);
#181=ORIENTED_EDGE('',*,*,#134,.T.);
#182=ORIENTED_EDGE('',*,*,#129,.F.);
#183=ORIENTED_EDGE('',*,*,#136,.F.);
#184=ORIENTED_EDGE('',*,*,#125,.F.);
#185=CYLINDRICAL_SURFACE('',#213,1.6);
#186=CYLINDRICAL_SURFACE('',#216,1.6);
#187=CYLINDRICAL_SURFACE('',#219,1.6);
#188=CYLINDRICAL_SURFACE('',#222,1.6);
#189=ADVANCED_FACE('',(#29),#185,.F.);
#190=ADVANCED_FACE('',(#30),#186,.F.);
#191=ADVANCED_FACE('',(#31),#187,.F.);
#192=ADVANCED_FACE('',(#32),#188,.F.);
#193=ADVANCED_FACE('',(#33,#15,#16,#17,#18),#23,.T.);
#194=ADVANCED_FACE('',(#34,#19,#20,#21,#22),#24,.F.);
#195=ADVANCED_FACE('',(#35),#25,.F.);
#196=ADVANCED_FACE('',(#36),#26,.F.);
#197=ADVANCED_FACE('',(#37),#27,.F.);
#198=ADVANCED_FACE('',(#38),#28,.F.);
#199=CLOSED_SHELL('',(#189,#190,#191,#192,#193,#194,#195,#196,#197,#198));
#200=DERIVED_UNIT_ELEMENT(#202,1.);
#201=DERIVED_UNIT_ELEMENT(#341,-3.);
#202=(
MASS_UNIT()
NAMED_UNIT(*)
SI_UNIT(.KILO.,.GRAM.)
);
#203=DERIVED_UNIT((#200,#201));
#204=MEASURE_REPRESENTATION_ITEM('density measure',
POSITIVE_RATIO_MEASURE(7850.),#203);
#205=PROPERTY_DEFINITION_REPRESENTATION(#210,#207);
#206=PROPERTY_DEFINITION_REPRESENTATION(#211,#208);
#207=REPRESENTATION('material name',(#209),#338);
#208=REPRESENTATION('density',(#204),#338);
#209=DESCRIPTIVE_REPRESENTATION_ITEM('\X2\94A2\X0\','\X2\94A2\X0\');
#210=PROPERTY_DEFINITION('material property','material name',#348);
#211=PROPERTY_DEFINITION('material property','density of part',#348);
#212=AXIS2_PLACEMENT_3D('',#285,#231,#232);
#213=AXIS2_PLACEMENT_3D('',#286,#233,#234);
#214=AXIS2_PLACEMENT_3D('',#288,#235,#236);
#215=AXIS2_PLACEMENT_3D('',#291,#238,#239);
#216=AXIS2_PLACEMENT_3D('',#292,#240,#241);
#217=AXIS2_PLACEMENT_3D('',#294,#242,#243);
#218=AXIS2_PLACEMENT_3D('',#297,#245,#246);
#219=AXIS2_PLACEMENT_3D('',#298,#247,#248);
#220=AXIS2_PLACEMENT_3D('',#300,#249,#250);
#221=AXIS2_PLACEMENT_3D('',#303,#252,#253);
#222=AXIS2_PLACEMENT_3D('',#304,#254,#255);
#223=AXIS2_PLACEMENT_3D('',#306,#256,#257);
#224=AXIS2_PLACEMENT_3D('',#309,#259,#260);
#225=AXIS2_PLACEMENT_3D('',#310,#261,#262);
#226=AXIS2_PLACEMENT_3D('',#319,#267,#268);
#227=AXIS2_PLACEMENT_3D('',#328,#273,#274);
#228=AXIS2_PLACEMENT_3D('',#331,#277,#278);
#229=AXIS2_PLACEMENT_3D('',#333,#280,#281);
#230=AXIS2_PLACEMENT_3D('',#335,#283,#284);
#231=DIRECTION('axis',(0.,0.,1.));
#232=DIRECTION('refdir',(1.,0.,0.));
#233=DIRECTION('center_axis',(0.,-1.,0.));
#234=DIRECTION('ref_axis',(-1.,0.,0.));
#235=DIRECTION('center_axis',(0.,-1.,0.));
#236=DIRECTION('ref_axis',(-1.,0.,0.));
#237=DIRECTION('',(0.,-1.,0.));
#238=DIRECTION('center_axis',(0.,1.,0.));
#239=DIRECTION('ref_axis',(-1.,0.,0.));
#240=DIRECTION('center_axis',(0.,-1.,0.));
#241=DIRECTION('ref_axis',(-1.,0.,0.));
#242=DIRECTION('center_axis',(0.,-1.,0.));
#243=DIRECTION('ref_axis',(-1.,0.,0.));
#244=DIRECTION('',(0.,-1.,0.));
#245=DIRECTION('center_axis',(0.,1.,0.));
#246=DIRECTION('ref_axis',(-1.,0.,0.));
#247=DIRECTION('center_axis',(0.,-1.,0.));
#248=DIRECTION('ref_axis',(-1.,0.,0.));
#249=DIRECTION('center_axis',(0.,-1.,0.));
#250=DIRECTION('ref_axis',(-1.,0.,0.));
#251=DIRECTION('',(0.,-1.,0.));
#252=DIRECTION('center_axis',(0.,1.,0.));
#253=DIRECTION('ref_axis',(-1.,0.,0.));
#254=DIRECTION('center_axis',(0.,-1.,0.));
#255=DIRECTION('ref_axis',(-1.,0.,0.));
#256=DIRECTION('center_axis',(0.,-1.,0.));
#257=DIRECTION('ref_axis',(-1.,0.,0.));
#258=DIRECTION('',(0.,-1.,0.));
#259=DIRECTION('center_axis',(0.,1.,0.));
#260=DIRECTION('ref_axis',(-1.,0.,0.));
#261=DIRECTION('center_axis',(0.,1.,0.));
#262=DIRECTION('ref_axis',(0.,0.,1.));
#263=DIRECTION('',(1.,0.,0.));
#264=DIRECTION('',(0.,0.,-1.));
#265=DIRECTION('',(-1.,0.,0.));
#266=DIRECTION('',(0.,0.,1.));
#267=DIRECTION('center_axis',(0.,1.,0.));
#268=DIRECTION('ref_axis',(0.,0.,1.));
#269=DIRECTION('',(-1.,0.,0.));
#270=DIRECTION('',(0.,0.,-1.));
#271=DIRECTION('',(1.,0.,0.));
#272=DIRECTION('',(0.,0.,1.));
#273=DIRECTION('center_axis',(1.,0.,0.));
#274=DIRECTION('ref_axis',(0.,1.,0.));
#275=DIRECTION('',(0.,-1.,0.));
#276=DIRECTION('',(0.,-1.,0.));
#277=DIRECTION('center_axis',(0.,0.,1.));
#278=DIRECTION('ref_axis',(0.,-1.,0.));
#279=DIRECTION('',(0.,-1.,0.));
#280=DIRECTION('center_axis',(-1.,0.,0.));
#281=DIRECTION('ref_axis',(0.,-1.,0.));
#282=DIRECTION('',(0.,-1.,0.));
#283=DIRECTION('center_axis',(0.,0.,-1.));
#284=DIRECTION('ref_axis',(0.,1.,0.));
#285=CARTESIAN_POINT('',(0.,0.,0.));
#286=CARTESIAN_POINT('Origin',(3.49999999999999,14.,27.));
#287=CARTESIAN_POINT('',(5.09999999999999,14.,27.));
#288=CARTESIAN_POINT('Origin',(3.49999999999999,14.,27.));
#289=CARTESIAN_POINT('',(5.09999999999999,0.,27.));
#290=CARTESIAN_POINT('',(5.09999999999999,14.,27.));
#291=CARTESIAN_POINT('Origin',(3.49999999999999,0.,27.));
#292=CARTESIAN_POINT('Origin',(56.5,14.,27.));
#293=CARTESIAN_POINT('',(58.1,14.,27.));
#294=CARTESIAN_POINT('Origin',(56.5,14.,27.));
#295=CARTESIAN_POINT('',(58.1,0.,27.));
#296=CARTESIAN_POINT('',(58.1,14.,27.));
#297=CARTESIAN_POINT('Origin',(56.5,0.,27.));
#298=CARTESIAN_POINT('Origin',(3.5,14.,3.));
#299=CARTESIAN_POINT('',(5.1,14.,3.));
#300=CARTESIAN_POINT('Origin',(3.5,14.,3.));
#301=CARTESIAN_POINT('',(5.1,0.,3.));
#302=CARTESIAN_POINT('',(5.1,14.,3.));
#303=CARTESIAN_POINT('Origin',(3.5,0.,3.));
#304=CARTESIAN_POINT('Origin',(56.5,14.,3.));
#305=CARTESIAN_POINT('',(58.1,14.,3.));
#306=CARTESIAN_POINT('Origin',(56.5,14.,3.));
#307=CARTESIAN_POINT('',(58.1,0.,3.));
#308=CARTESIAN_POINT('',(58.1,14.,3.));
#309=CARTESIAN_POINT('Origin',(56.5,0.,3.));
#310=CARTESIAN_POINT('Origin',(30.,14.,15.));
#311=CARTESIAN_POINT('',(0.,14.,30.));
#312=CARTESIAN_POINT('',(60.,14.,30.));
#313=CARTESIAN_POINT('',(30.,14.,30.));
#314=CARTESIAN_POINT('',(60.,14.,0.));
#315=CARTESIAN_POINT('',(60.,14.,15.));
#316=CARTESIAN_POINT('',(0.,14.,0.));
#317=CARTESIAN_POINT('',(30.,14.,0.));
#318=CARTESIAN_POINT('',(0.,14.,15.));
#319=CARTESIAN_POINT('Origin',(30.,0.,15.));
#320=CARTESIAN_POINT('',(60.,0.,30.));
#321=CARTESIAN_POINT('',(0.,0.,30.));
#322=CARTESIAN_POINT('',(30.,0.,30.));
#323=CARTESIAN_POINT('',(0.,0.,0.));
#324=CARTESIAN_POINT('',(0.,0.,15.));
#325=CARTESIAN_POINT('',(60.,0.,0.));
#326=CARTESIAN_POINT('',(30.,0.,0.));
#327=CARTESIAN_POINT('',(60.,0.,15.));
#328=CARTESIAN_POINT('Origin',(0.,7.,15.));
#329=CARTESIAN_POINT('',(0.,7.,0.));
#330=CARTESIAN_POINT('',(0.,7.,30.));
#331=CARTESIAN_POINT('Origin',(30.,7.,0.));
#332=CARTESIAN_POINT('',(60.,7.,0.));
#333=CARTESIAN_POINT('Origin',(60.,7.,15.));
#334=CARTESIAN_POINT('',(60.,7.,30.));
#335=CARTESIAN_POINT('Origin',(30.,7.,30.));
#336=UNCERTAINTY_MEASURE_WITH_UNIT(LENGTH_MEASURE(0.01),#340,
'DISTANCE_ACCURACY_VALUE',
'Maximum model space distance between geometric entities at asserted c
onnectivities');
#337=UNCERTAINTY_MEASURE_WITH_UNIT(LENGTH_MEASURE(0.01),#340,
'DISTANCE_ACCURACY_VALUE',
'Maximum model space distance between geometric entities at asserted c
onnectivities');
#338=(
GEOMETRIC_REPRESENTATION_CONTEXT(3)
GLOBAL_UNCERTAINTY_ASSIGNED_CONTEXT((#336))
GLOBAL_UNIT_ASSIGNED_CONTEXT((#340,#342,#343))
REPRESENTATION_CONTEXT('','3D')
);
#339=(
GEOMETRIC_REPRESENTATION_CONTEXT(3)
GLOBAL_UNCERTAINTY_ASSIGNED_CONTEXT((#337))
GLOBAL_UNIT_ASSIGNED_CONTEXT((#340,#342,#343))
REPRESENTATION_CONTEXT('','3D')
);
#340=(
LENGTH_UNIT()
NAMED_UNIT(*)
SI_UNIT(.MILLI.,.METRE.)
);
#341=(
LENGTH_UNIT()
NAMED_UNIT(*)
SI_UNIT($,.METRE.)
);
#342=(
NAMED_UNIT(*)
PLANE_ANGLE_UNIT()
SI_UNIT($,.RADIAN.)
);
#343=(
NAMED_UNIT(*)
SI_UNIT($,.STERADIAN.)
SOLID_ANGLE_UNIT()
);
#344=SHAPE_DEFINITION_REPRESENTATION(#345,#346);
#345=PRODUCT_DEFINITION_SHAPE('',$,#348);
#346=SHAPE_REPRESENTATION('',(#212),#338);
#347=PRODUCT_DEFINITION_CONTEXT('part definition',#352,'design');
#348=PRODUCT_DEFINITION('2026-05-28-15-22-03-641','\X2\63A75236652F8DEF\X0\D
CDC',#349,#347);
#349=PRODUCT_DEFINITION_FORMATION('',$,#354);
#350=PRODUCT_RELATED_PRODUCT_CATEGORY('\X2\63A75236652F8DEF\X0\DCDC',
'\X2\63A75236652F8DEF\X0\DCDC',(#354));
#351=APPLICATION_PROTOCOL_DEFINITION('international standard',
'automotive_design',2009,#352);
#352=APPLICATION_CONTEXT(
'Core Data for Automotive Mechanical Design Process');
#353=PRODUCT_CONTEXT('part definition',#352,'mechanical');
#354=PRODUCT('2026-05-28-15-22-03-641','\X2\63A75236652F8DEF\X0\DCDC',$,
(#353));
#355=PRESENTATION_STYLE_ASSIGNMENT((#356));
#356=SURFACE_STYLE_USAGE(.BOTH.,#357);
#357=SURFACE_SIDE_STYLE('',(#358));
#358=SURFACE_STYLE_FILL_AREA(#359);
#359=FILL_AREA_STYLE('\X2\94A2\X0\ - \X2\7F0E5149\X0\',(#360));
#360=FILL_AREA_STYLE_COLOUR('\X2\94A2\X0\ - \X2\7F0E5149\X0\',#361);
#361=COLOUR_RGB('\X2\94A2\X0\ - \X2\7F0E5149\X0\',0.627450980392157,0.627450980392157,
0.627450980392157);
ENDSEC;
END-ISO-10303-21;
